o FMA11359_BP8677_FJ2424
v -33.8753 -112.247 1226.08
v -34.1512 -108.329 1234.53
v -34.0249 -105.447 1226.17
v -34.203 -107.321 1227.84
v -34.1738 -105.488 1229.36
v -33.9422 -104.283 1234.73
v -31.2065 -134.171 1222.73
v -30.9046 -135.838 1223.59
v -31.335 -134.302 1226.97
v -31.2707 -134.342 1229.52
v -30.7775 -136.321 1228.55
v -30.6913 -135.398 1232.15
v -31.1185 -132.412 1220.27
v -31.6031 -130.515 1222.82
v -31.4267 -132.206 1230.51
v -30.6792 -125.629 1215.73
v -31.6034 -126.61 1229.45
v -30.7465 -121.627 1213.13
v -31.6749 -122.624 1217.35
v -32.0497 -122.751 1222.57
v -31.5244 -124.018 1234.77
v -31.8657 -118.034 1212.29
v -32.229 -119.115 1236.21
v -30.9473 -116.704 1206.88
v -33.0001 -115.875 1218.03
v -33.1436 -117.102 1224.26
v -32.1531 -116.907 1243.98
v -31.5811 -112.287 1207.3
v -32.5454 -113.907 1212.11
v -33.5631 -111.412 1219.18
v -33.4503 -113.085 1236.53
v -33.1734 -112.222 1241.82
v -32.3122 -113.046 1247.48
v -31.468 -112.755 1251.49
v -31.4814 -108.34 1207.77
v -32.9412 -109.951 1213.8
v -32.9264 -108.136 1214.37
v -33.186 -108.789 1244.19
v -32.3445 -109.181 1249.04
v -31.2415 -108.918 1253.4
v -31.113 -106.179 1208.06
v -32.2946 -105.449 1214.41
v -33.2366 -106.279 1218.18
v -33.5277 -107.483 1219.02
v -33.2199 -105.513 1242.78
v -32.9369 -107.398 1246
v -32.569 -104.729 1245.96
v -32.1708 -107.042 1249.52
v -30.7795 -106.97 1253.74
v -33.3414 -104.029 1222.5
v -33.5318 -102.438 1228.63
v -33.1564 -101.392 1233.9
v -33.0724 -102.751 1239.44
v -32.59 -103.412 1244.01
v -31.7962 -101.977 1245.18
v -30.9846 -101.348 1246.61
v -31.6439 -104.365 1249.07
v -30.67 -103.307 1250.25
v -32.2717 -101.191 1222.61
v -30.6801 -98.4949 1222.55
v -31.4808 -98.3366 1227.49
v -32.6751 -100.287 1228.39
v -31.7583 -98.4115 1230.81
v -31.5838 -98.334 1235.13
v -32.2946 -100.691 1239.62
v -30.8348 -98.2048 1239.77
v -30.7928 -99.1617 1242.74
v -29.1962 -139.906 1229.06
v -27.9885 -139.172 1217.66
v -27.9067 -137.06 1215.61
v -29.4227 -137.882 1219.97
v -30.2334 -137.566 1223.05
v -30.5841 -137.111 1226.27
v -29.3822 -139.765 1225.1
v -29.3922 -138.099 1233.72
v -27.935 -134.192 1214.33
v -29.9425 -133.385 1217.15
v -29.402 -135.619 1217.24
v -29.0561 -134.57 1215.88
v -30.5815 -135.123 1220.36
v -29.1996 -136.258 1238.25
v -27.9878 -135.642 1243.52
v -29.972 -132.646 1238.78
v -28.954 -129.828 1214.26
v -27.8589 -123.949 1209.98
v -29.5731 -124.069 1212.67
v -30.6856 -124.715 1241.99
v -27.7669 -126.376 1251.89
v -27.8888 -121.188 1203.36
v -28.5675 -121.21 1206.68
v -29.4251 -122.709 1211.35
v -29.6034 -121.081 1209.59
v -27.7449 -122.792 1262.08
v -27.8877 -120.043 1199.85
v -29.0682 -119.567 1203.53
v -30.1388 -119.501 1208.09
v -30.4133 -117.638 1253.26
v -27.8948 -118.216 1270.14
v -28.7543 -114.486 1197.37
v -30.511 -115.689 1255.11
v -29.7435 -114.125 1260.62
v -28.186 -115.81 1271.72
v -27.6973 -115.878 1274.05
v -29.6182 -111.963 1261.13
v -28.3093 -112.834 1270.77
v -27.8352 -111.307 1271.8
v -27.5883 -113.874 1274.99
v -27.566 -111.906 1273.95
v -29.514 -110.734 1200.09
v -29.0959 -108.211 1259.32
v -27.8801 -109.027 1265.82
v -29.196 -107.684 1200.81
v -28.7217 -105.557 1201.49
v -30.2253 -107.414 1203.99
v -27.7809 -105.935 1259.15
v -30.2314 -104.396 1207.17
v -29.5269 -102.386 1208.5
v -30.5183 -103.063 1210.66
v -30.0601 -101.525 1248.92
v -28.1503 -100.146 1209.61
v -28.3739 -98.2562 1215.39
v -28.2651 -100.029 1249.36
v -28.0825 -95.9328 1222.88
v -30.2928 -96.7244 1228.05
v -30.5413 -96.7048 1231.15
v -29.0541 -95.3891 1229.33
v -29.8475 -96.1059 1235.86
v -29.0984 -96.1287 1239.37
v -28.2357 -95.5681 1239.9
v -29.4737 -98.1442 1243.89
v -29.0954 -96.9392 1241.89
v -28.2166 -97.181 1244.18
v -28.2616 -94.6512 1231.96
v -27.8861 -94.5096 1236.06
v -24.9882 -146.125 1222.2
v -25.4739 -146.309 1227.35
v -25.052 -143.505 1218.75
v -26.5309 -143.076 1219.98
v -25.8089 -143.579 1219.5
v -24.6239 -145.509 1220.74
v -27.3258 -143.144 1223.31
v -25.8583 -145.445 1223.15
v -26.2761 -141.858 1218.01
v -25.8591 -139.895 1215.92
v -25.4773 -141.804 1217.3
v -25.0654 -140.628 1216.23
v -27.5983 -142.017 1221.17
v -27.2059 -142.586 1232.05
v -27.0652 -137.33 1214.99
v -25.8846 -137.901 1214.75
v -24.6614 -138.547 1215.01
v -26.671 -139.447 1216.09
v -27.1904 -138.792 1241.78
v -25.3154 -138.629 1246.96
v -26.617 -134.534 1213.52
v -25.344 -135.22 1213.46
v -25.5168 -131.984 1252.71
v -27.0057 -129.288 1212.06
v -25.1099 -127.496 1209.66
v -24.7487 -129.372 1210.62
v -25.4077 -129.752 1256.72
v -24.7432 -129.119 1261.38
v -25.2286 -123.521 1195.56
v -24.7119 -124.558 1196.43
v -25.9065 -123.592 1205.5
v -24.7418 -123.895 1203.05
v -26.8263 -123.614 1207.7
v -26.3204 -125.025 1208.83
v -24.7374 -125.617 1207.56
v -26.7521 -125.983 1210.15
v -27.1803 -124.759 1261.39
v -26.4171 -126.788 1260.39
v -25.7362 -126.657 1263.16
v -24.706 -120.742 1186.47
v -25.761 -120.537 1190.12
v -26.4471 -122.383 1199.61
v -26.5817 -123.124 1266.56
v -25.0702 -123.195 1271.1
v -24.5319 -121.149 1277.02
v -26.2863 -117.511 1186.49
v -25.8061 -117.35 1185.87
v -25.4849 -119.104 1186.02
v -24.5467 -119.808 1185.9
v -26.1284 -119.07 1187.86
v -27.3884 -117.818 1273.52
v -26.9321 -119.291 1272.99
v -26.3083 -118.964 1275.8
v -25.7202 -120.431 1275.19
v -25.7135 -119.544 1276.65
v -25.8162 -118.916 1277.04
v -25.6576 -114.928 1185.77
v -27.0178 -117.37 1189.34
v -26.9191 -115.328 1187.73
v -27.0163 -117.108 1275.6
v -26.9494 -114.68 1277.12
v -26.2008 -117.175 1277.29
v -25.8608 -115.635 1277.42
v -26.3115 -113.771 1186.05
v -25.8958 -110.838 1186.41
v -25.4776 -111.05 1185.52
v -26.8923 -111.374 1188.86
v -26.4685 -111.905 1187.1
v -27.2526 -112.636 1275.9
v -26.9619 -113.08 1277.12
v -26.8766 -111.917 1276.72
v -26.8861 -111.427 1276.21
v -26.6054 -112.324 1277.3
v -26.2167 -110.921 1277.08
v -25.0562 -111.34 1277.49
v -24.7682 -109.08 1185.52
v -24.4605 -109.774 1185.57
v -25.9636 -109.019 1188.16
v -27.4606 -107.888 1194.02
v -26.7489 -109.876 1274.16
v -26.2497 -108.658 1272.64
v -25.275 -108.679 1275.91
v -24.9903 -107.873 1274.55
v -26.0289 -109.875 1276.29
v -25.0222 -107.413 1188.01
v -26.2182 -105.777 1193.54
v -26.5754 -105.782 1261.36
v -26.1193 -107.407 1267.51
v -24.6601 -106.166 1266.59
v -26.9825 -102.998 1255.61
v -25.035 -101.78 1255.45
v -25.0271 -103.859 1259.41
v -26.4522 -98.4016 1210.13
v -25.4956 -98.9727 1250.25
v -26.6975 -99.8598 1250.87
v -24.7565 -96.9517 1211.16
v -27.5326 -95.9779 1242.54
v -26.6055 -96.1018 1243.92
v -25.4169 -95.1995 1242.76
v -24.4103 -94.1868 1223.26
v -27.3578 -94.4687 1227.86
v -24.9519 -93.5312 1227.57
v -25.8598 -93.5577 1230.12
v -25.317 -93.2436 1234.1
v -26.6613 -93.732 1234.59
v -26.6338 -93.8197 1236.05
v -25.516 -93.6537 1237.54
v -25.4475 -93.3624 1235.9
v -24.541 -93.4022 1237.47
v -26.6663 -94.5045 1239.24
v -25.0125 -94.0135 1239.57
v -22.6166 -149.129 1224.79
v -21.4775 -149.234 1224.37
v -23.1034 -149.28 1227.44
v -21.9104 -150.108 1226.73
v -22.7374 -149.36 1229.5
v -21.8519 -150.316 1228.36
v -24.3171 -147.415 1223.59
v -23.8857 -147.526 1223.06
v -23.4888 -148.388 1224.32
v -23.0474 -148.294 1223.53
v -23.0646 -147.453 1222.32
v -21.515 -147.822 1222.85
v -24.265 -147.947 1225.46
v -23.0775 -149.063 1225.51
v -23.9266 -143.341 1218.42
v -23.4649 -145.562 1220.37
v -22.2385 -145.207 1220.61
v -24.043 -144.305 1240.24
v -22.8864 -144.541 1243.24
v -21.4322 -146.184 1242.49
v -21.409 -144.419 1245.87
v -24.2471 -140.701 1216.35
v -23.3644 -141.302 1217.16
v -24.2215 -142.51 1243.88
v -23.3685 -142.27 1246.02
v -22.8976 -140.185 1249.48
v -23.4854 -138.698 1215.47
v -21.3174 -139.065 1217.69
v -23.3732 -134.284 1213.07
v -21.786 -135.645 1214.74
v -22.9374 -135.179 1255.03
v -23.1613 -132.457 1258.74
v -23.2794 -130.698 1262.27
v -21.3267 -132.62 1262.86
v -22.9205 -130.097 1264.05
v -21.4604 -127.174 1194.65
v -21.5184 -126.953 1196.73
v -23.124 -127.852 1208.95
v -21.4962 -127.109 1208.01
v -23.1783 -129.776 1210.37
v -21.543 -128.814 1209.81
v -23.9352 -129.317 1263.25
v -22.7245 -127.645 1267.59
v -21.9054 -123.918 1186.43
v -21.3397 -125.435 1188.66
v -21.8923 -126.357 1192.29
v -23.8325 -125.378 1195.18
v -22.9338 -126.309 1195.67
v -23.9239 -125.372 1197.21
v -22.3404 -126.299 1197.64
v -21.4361 -126.366 1197.94
v -23.9762 -124.355 1200.94
v -21.8324 -125.308 1200.59
v -23.5294 -124.8 1204.45
v -22.391 -124.79 1202.7
v -22.2062 -125.041 1204.33
v -22.678 -126.225 1206.86
v -24.2663 -126.304 1267.03
v -22.3507 -126.079 1270.9
v -23.8146 -121.526 1186.02
v -23.3106 -121.436 1185.93
v -21.8776 -123.48 1185.82
v -23.1147 -123.149 1187.25
v -24.0645 -122.712 1275.28
v -23.2727 -121.679 1277.44
v -22.7638 -123.562 1276.51
v -22.242 -123.443 1277.34
v -21.369 -119.491 1186.57
v -22.9864 -116.616 1186.42
v -22.6612 -112.305 1186.29
v -21.7875 -109.547 1186.07
v -23.3721 -109.421 1277.51
v -23.962 -108.4 1277.33
v -24.2249 -107.479 1186.62
v -22.6776 -107.08 1185.42
v -21.4748 -105.404 1186.45
v -23.445 -106.28 1187.2
v -22.2682 -104.436 1188.68
v -24.1105 -104.774 1190.9
v -24.296 -104.807 1262.68
v -23.1025 -105.331 1266.11
v -22.973 -105.766 1268.9
v -24.2727 -106.545 1269.78
v -23.1684 -106.358 1273.57
v -22.6381 -106.498 1275.92
v -23.557 -107.44 1276.62
v -22.6883 -107.096 1277.13
v -21.8866 -107.465 1277.43
v -21.5139 -106.346 1277.07
v -22.1681 -103.496 1190.36
v -21.9264 -101.361 1195.09
v -23.8734 -103.387 1259.51
v -21.9499 -101.936 1257.42
v -22.968 -104.059 1261.98
v -23.9681 -98.1023 1249.38
v -22.5911 -97.2115 1207.29
v -23.091 -96.0515 1211.69
v -23.4056 -95.0005 1242.94
v -22.5996 -97.4649 1248.44
v -22.1275 -92.8624 1227.67
v -21.962 -92.6364 1230.06
v -23.0286 -92.8394 1234.97
v -21.806 -93.0243 1236.41
v -22.6384 -93.6799 1239.18
v -22.0226 -94.7036 1242.14
v -21.0433 -150.374 1226.38
v -20.2964 -150.46 1226.28
v -19.4429 -151.122 1227.55
v -19.5714 -150.321 1226.23
v -18.1125 -150.909 1227.77
v -20.5803 -151.078 1228.42
v -20.3537 -151.2 1230.61
v -19.8281 -151.35 1228.34
v -18.7033 -151.998 1230.28
v -18.1555 -151.968 1229.7
v -19.6144 -151.103 1233.18
v -18.7062 -152.035 1231.53
v -20.8482 -147.147 1222.89
v -20.6624 -149.09 1224.34
v -19.8613 -149.111 1224.86
v -20.8807 -143.922 1221.54
v -19.4453 -146.005 1224.46
v -18.5094 -144.279 1226.08
v -20.4302 -142.646 1249.67
v -20.8195 -141.873 1220.5
v -19.5599 -139.119 1220.44
v -18.8218 -133.604 1216.26
v -19.2667 -136.322 1259.9
v -18.7928 -134.23 1263.81
v -18.4312 -133.221 1265.31
v -18.7661 -130.345 1213.16
v -20.2486 -130.348 1266.81
v -18.2779 -130.481 1267.84
v -20.6266 -126.774 1190.77
v -19.3813 -127.468 1191.16
v -19.063 -127.1 1189.72
v -18.7192 -127.792 1191.98
v -21.0987 -127.294 1195.88
v -20.6342 -127.486 1194.7
v -20.2846 -127.453 1193.06
v -19.9025 -127.523 1195.47
v -19.4531 -127.712 1193.87
v -19.166 -127.447 1195.46
v -18.955 -127.665 1194.55
v -20.6201 -127.046 1196.78
v -20.327 -129.799 1211.28
v -19.6664 -127.868 1209.81
v -18.2196 -127.869 1211.03
v -20.8273 -128.74 1268.26
v -20.2756 -126.908 1272.08
v -21.0498 -124.313 1186.13
v -20.2126 -125.003 1186.48
v -20.2776 -124.28 1185.85
v -19.8776 -124.68 1185.79
v -19.4619 -125.071 1186.11
v -19.4776 -124.68 1185.84
v -18.6776 -125.083 1185.81
v -18.6889 -125.735 1186.72
v -19.9794 -125.924 1198.37
v -19.4343 -126.633 1197.09
v -18.7805 -124.812 1198.88
v -21.0767 -124.887 1202.33
v -20.2866 -125.264 1200
v -19.8321 -124.531 1201.51
v -20.9941 -125.531 1205.82
v -20.6687 -124.799 1204.3
v -20.246 -124.547 1203.12
v -19.5596 -124.158 1204.3
v -19.4123 -124.714 1205.67
v -19.0048 -123.575 1203.07
v -21.0824 -125.273 1275.68
v -20.6549 -124.917 1277.06
v -19.4543 -125.77 1276.44
v -18.986 -124.987 1277.44
v -18.7039 -125.728 1277.08
v -21.0306 -121.88 1186.3
v -19.4466 -123.535 1186.14
v -17.7881 -122.686 1201.34
v -18.2661 -116.415 1187.09
v -19.4829 -113.925 1186.94
v -18.9825 -108.295 1186.2
v -19.03 -104.684 1185.64
v -18.6445 -105.283 1185.42
v -21.0584 -104.64 1265.67
v -20.8869 -105.195 1270.42
v -18.193 -104.609 1269.85
v -20.3416 -105.388 1275.32
v -18.293 -104.907 1275.99
v -21.0806 -105.964 1276.66
v -19.9382 -105.696 1277.07
v -19.1176 -105.277 1276.66
v -18.6776 -105.296 1277.12
v -18.8124 -105.611 1277.28
v -18.0824 -107.403 1277.41
v -18.2462 -105.511 1277.22
v -19.9256 -103.397 1188.27
v -18.2974 -103.597 1186.76
v -20.18 -102.451 1190.37
v -19.2502 -102.298 1258.4
v -20.5397 -103.642 1261.92
v -19.6827 -96.1871 1207.48
v -19.5454 -96.7291 1246.33
v -19.0719 -94.5898 1213.03
v -18.3395 -92.4435 1227.81
v -20.9844 -92.5809 1232.34
v -19.4525 -92.7364 1234.01
v -17.1291 -152.514 1234.32
v -16.7861 -152.738 1232.66
v -15.6185 -152.52 1231.79
v -15.0979 -153.116 1233.9
v -16.2039 -152.551 1236.36
v -15.8298 -153.016 1234.81
v -14.6713 -153.063 1237.19
v -17.9085 -150.169 1227.27
v -17.873 -151.724 1229.13
v -16.6631 -149.714 1228.45
v -17.0996 -151.533 1237.61
v -17.7157 -147.636 1226.98
v -16.956 -147.115 1247.01
v -15.5529 -144.557 1230.65
v -17.8607 -141.678 1226.26
v -15.2518 -141.829 1231.11
v -14.8728 -139.697 1230.32
v -15.3009 -142.222 1255.21
v -17.0334 -138.467 1258.88
v -17.2741 -134.554 1219.78
v -17.3934 -133.035 1266.01
v -17.1178 -135.293 1263.71
v -17.1173 -134.515 1264.7
v -16.2646 -135.563 1263.69
v -15.7918 -134.286 1265.12
v -16.1791 -131.916 1267.12
v -16.2985 -130.68 1268.31
v -14.9014 -130.467 1268.23
v -16.6557 -127.523 1189.44
v -15.0599 -127.28 1188.68
v -17.8879 -127.824 1191.08
v -17.5505 -127.929 1192.01
v -16.2578 -127.921 1191.05
v -16.0049 -127.802 1192.06
v -14.7872 -127.137 1192.32
v -17.4821 -127.017 1195.08
v -16.5662 -127.882 1213.12
v -17.5781 -127.491 1272.83
v -16.468 -128.894 1270.59
v -15.0371 -129.276 1269.98
v -15.8091 -127.647 1272.98
v -17.8776 -125.514 1185.92
v -17.9037 -124.993 1185.89
v -17.3457 -125.431 1185.83
v -17.1258 -126.02 1186.48
v -15.8476 -125.867 1185.99
v -14.9154 -126.148 1186.38
v -15.1322 -125.316 1185.78
v -15.7916 -126.417 1186.87
v -16.467 -126.225 1195.11
v -17.836 -126.276 1276.26
v -17.1176 -125.972 1277.09
v -15.4346 -126.343 1276.42
v -15.4424 -125.802 1277.32
v -18.031 -121.467 1186.66
v -16.6787 -123.451 1186.3
v -15.8218 -121.006 1186.75
v -14.5632 -121.426 1197.92
v -16.0391 -121.919 1205.36
v -17.8494 -119.113 1186.96
v -15.1487 -117.931 1187.12
v -14.96 -115.531 1187.23
v -18.0841 -111.762 1186.92
v -15.684 -113.471 1187.19
v -15.4955 -109.975 1186.8
v -15.2797 -104.332 1264.81
v -17.5585 -104.615 1274.58
v -15.4578 -104.332 1273.41
v -15.5239 -104.422 1275.84
v -17.8776 -105.033 1277.12
v -17.0145 -105.169 1277.32
v -16.6967 -104.703 1276.61
v -17.0776 -104.28 1185.26
v -17.1782 -103.99 1185.66
v -16.2685 -103.79 1185.68
v -15.4776 -104.28 1185.31
v -17.543 -102.524 1188.26
v -15.8546 -102.212 1188.3
v -17.2578 -100.991 1191.71
v -16.3422 -103.896 1262.64
v -17.8264 -104.261 1265.19
v -15.3701 -101.047 1190.75
v -16.3985 -100.541 1253.67
v -16.0638 -95.4402 1207.62
v -17.5202 -92.7265 1223.77
v -17.8807 -92.5046 1230.57
v -17.68 -92.9085 1233.69
v -15.6248 -93.2414 1232.85
v -17.5302 -94.3101 1238.43
v -14.284 -152.508 1232.71
v -13.866 -153.134 1234.3
v -13.7814 -153.381 1236.84
v -12.2548 -153.437 1236.81
v -11.9087 -153.048 1235.86
v -14.5756 -152.632 1238.9
v -11.9267 -153.289 1240.64
v -14.5671 -151.427 1231.4
v -11.8886 -151.365 1234.22
v -11.8612 -152.252 1234.8
v -14.1953 -151.201 1243
v -12.6156 -151.163 1245.22
v -14.656 -148.207 1230.93
v -13.993 -143.148 1232.87
v -14.4311 -145.857 1251.5
v -12.2567 -140.272 1235.04
v -13.5001 -139.904 1258.83
v -14.01 -137.077 1261.99
v -12.2421 -137.919 1261.31
v -12.767 -136.132 1262.88
v -11.7304 -134.625 1263.47
v -14.0182 -131.949 1266.41
v -14.6805 -127.549 1189.53
v -13.1188 -127.272 1189.54
v -12.8053 -126.856 1188.27
v -14.3681 -127.619 1190.37
v -13.8727 -127.445 1190.72
v -12.6633 -127.115 1189.92
v -13.3158 -126.629 1217.83
v -12.4408 -128.645 1269.33
v -13.074 -127.742 1271.98
v -13.7927 -125.396 1185.74
v -12.6457 -125.791 1186.4
v -11.5724 -126.687 1189.14
v -11.8963 -126.595 1190.29
v -12.7545 -126.299 1275.92
v -12.4303 -125.676 1277.07
v -12.6874 -123.449 1277.52
v -13.1404 -122.682 1186.3
v -13.1502 -117.445 1187.11
v -12.716 -119.431 1186.86
v -12.4446 -118.268 1201.05
v -13.4145 -119.19 1204.05
v -12.4654 -118.083 1202.78
v -13.3256 -120.799 1207.22
v -13.3756 -113.008 1187.11
v -12.7636 -109.169 1186.56
v -14.7176 -106.637 1186.02
v -12.3971 -104.469 1263.08
v -14.1143 -104.505 1268.11
v -14.2436 -104.347 1275.5
v -12.7205 -104.39 1273.33
v -12.6926 -104.514 1275.84
v -14.5744 -105.744 1277.4
v -14.7673 -104.657 1277.05
v -13.4625 -104.568 1276.66
v -11.9332 -104.981 1277.01
v -14.322 -103.816 1185.65
v -13.0776 -104.28 1185.3
v -12.5412 -104.159 1185.66
v -13.7781 -102.451 1188.04
v -14.292 -103.476 1260.17
v -12.9272 -100.867 1191.5
v -14.4523 -99.3434 1195.53
v -14.746 -97.3541 1202.13
v -12.2974 -95.9999 1205.15
v -13.3673 -93.7881 1212.67
v -13.0364 -92.6578 1220.34
v -13.6997 -92.4415 1224.16
v -11.7335 -92.6205 1221.74
v -13.3551 -92.8078 1227.45
v -12.2219 -94.0851 1231.3
v -10.2826 -152.694 1237.16
v -10.5567 -153.31 1238.07
v -9.50806 -153.547 1240.65
v -10.8066 -152.9 1243.54
v -10.3178 -153.569 1241.03
v -8.74691 -153.406 1244.23
v -11.6709 -149.248 1234.31
v -9.7914 -151.486 1236.72
v -9.41224 -150.427 1236.93
v -9.23124 -152.237 1237.99
v -9.84351 -152.089 1246.68
v -10.1525 -151.133 1248.02
v -9.74467 -143.68 1257.48
v -10.7821 -141.175 1236.52
v -11.6462 -141.136 1258.56
v -11.3573 -139.816 1259.87
v -11.2428 -137.222 1235.63
v -10.0249 -137.61 1237.38
v -10.9721 -137.012 1261.95
v -9.8977 -138.552 1261.11
v -9.13059 -137.545 1261.48
v -9.3691 -135.029 1262.19
v -10.4911 -130.167 1265.65
v -10.5699 -130.109 1229.97
v -10.961 -127.158 1271.27
v -11.4126 -125.04 1185.93
v -10.5642 -125.089 1186.4
v -10.8028 -124.115 1185.77
v -9.36085 -123.731 1185.77
v -11.4606 -126.302 1187.83
v -11.0961 -126.396 1188.35
v -10.3037 -126.004 1189.08
v -9.83615 -125.636 1187.89
v -9.8235 -125.509 1189.5
v -8.33847 -124.681 1188.34
v -8.72677 -124.404 1189.58
v -10.7707 -125.673 1190.36
v -10.5547 -124.547 1191.13
v -10.3625 -125.85 1275.06
v -8.70461 -124.789 1275.23
v -11.5562 -125.774 1276.48
v -11.0539 -125.246 1277.05
v -9.85945 -124.231 1277.42
v -9.12834 -124.464 1276.67
v -10.8649 -121.227 1193.99
v -9.03767 -119.9 1186.38
v -8.95627 -118.574 1195.22
v -11.7697 -118.534 1198.46
v -10.7572 -118.788 1196.73
v -11.08 -116.255 1186.94
v -9.56032 -116.92 1198.29
v -8.62978 -115.56 1200.32
v -9.22752 -115.672 1205.77
v -8.09905 -114.51 1203.36
v -9.42735 -113.681 1186.67
v -11.0778 -110.705 1186.65
v -8.78342 -110.587 1186.24
v -11.4776 -105.08 1185.38
v -11.0601 -107.542 1186.02
v -10.5709 -104.6 1186.06
v -9.47756 -105.88 1185.35
v -8.67756 -106.68 1185.42
v -8.59689 -106.232 1185.85
v -11.4355 -104.912 1267.05
v -10.9686 -104.777 1272.38
v -11.4537 -104.663 1274.72
v -10.2922 -105.237 1275.88
v -9.43035 -105.376 1273.46
v -10.3585 -106.501 1277.4
v -9.90804 -105.722 1277.05
v -9.0626 -105.904 1276.2
v -8.60225 -106.54 1277.07
v -10.7417 -102.985 1188.33
v -9.37202 -103.272 1188.79
v -11.3598 -101.613 1190.49
v -10.0364 -98.9313 1197.46
v -10.4742 -97.8716 1200.57
v -11.5452 -99.7303 1248.5
v -11.6267 -94.8958 1208.15
v -9.17584 -95.0038 1208.04
v -9.90946 -97.1933 1237.8
v -10.6639 -93.6848 1212.47
v -8.66587 -93.5768 1213.94
v -10.3311 -93.0387 1217.13
v -8.65984 -93.332 1217.14
v -11.1539 -92.9503 1224.65
v -9.75462 -93.1114 1222.07
v -9.05663 -93.5826 1223.17
v -11.5394 -93.4006 1227.59
v -9.51531 -94.5577 1228.28
v -7.92137 -152.847 1240.68
v -8.25213 -153.291 1241.23
v -7.94273 -152.959 1246.63
v -6.89902 -153.418 1244.49
v -6.71896 -153.293 1246.26
v -5.91121 -153.221 1245.9
v -5.81932 -153.111 1246.86
v -5.93851 -153.056 1244.6
v -6.24217 -152.95 1247.69
v -7.41524 -151.078 1239.75
v -7.02328 -151.859 1240.83
v -6.99905 -149.449 1240
v -6.03747 -150.53 1241.73
v -5.53972 -152.299 1243.8
v -7.19217 -152.173 1249.02
v -7.2021 -150.664 1251.44
v -6.19448 -144.79 1240.96
v -7.21443 -142.841 1239.77
v -7.84487 -141.108 1260.58
v -8.27122 -138.695 1261.2
v -8.30217 -137.079 1261.45
v -7.22991 -139.712 1261.21
v -6.83997 -138.786 1261.32
v -6.62457 -136.985 1261.13
v -5.38923 -138.218 1261.2
v -7.44718 -135.422 1261.34
v -5.5172 -133.989 1260.5
v -8.07204 -130.88 1237.72
v -7.85177 -131.819 1238.63
v -6.24545 -131.707 1240.41
v -8.16687 -131.872 1262.74
v -6.71974 -132.737 1261.42
v -5.97555 -129.113 1239.96
v -6.23802 -129.788 1262.22
v -5.26906 -128.296 1261.32
v -7.65627 -128.708 1264.53
v -8.3337 -124.105 1186.74
v -7.5643 -123.817 1188.75
v -7.55938 -123.997 1187.53
v -5.92131 -125.582 1237.17
v -5.33102 -126.214 1239.14
v -5.95341 -126.629 1263.88
v -5.31234 -123.714 1266.25
v -7.62814 -125.928 1268.19
v -7.51461 -123.124 1186.33
v -6.85915 -121.479 1185.8
v -6.39716 -121.649 1185.99
v -5.91518 -120.581 1185.8
v -6.69226 -123.045 1187.08
v -6.50425 -123.047 1187.91
v -5.89934 -122.142 1188.41
v -6.14336 -121.326 1189.69
v -5.38847 -121.449 1187.09
v -5.90186 -122.754 1232.12
v -7.04734 -123.158 1275.54
v -5.68773 -121.879 1274.15
v -5.3308 -120.652 1275.49
v -8.30961 -123.486 1277.14
v -7.92261 -123.518 1276.66
v -7.97357 -122.644 1277.48
v -7.46722 -122.68 1277.15
v -6.65371 -121.828 1277.05
v -6.66992 -121.427 1277.41
v -6.0338 -121.481 1276.25
v -5.51329 -119.934 1277.04
v -5.75496 -119.005 1277.49
v -6.96231 -116.214 1197.27
v -6.16281 -112.114 1185.84
v -5.47756 -111.88 1185.79
v -6.21325 -108.582 1186.69
v -5.72752 -108.67 1274.69
v -6.45308 -108.681 1277.01
v -6.85543 -109.213 1277.35
v -5.40045 -110.587 1277.09
v -5.39003 -109.893 1276.27
v -8.20861 -104.907 1187.7
v -6.40723 -106.526 1188.05
v -7.41902 -104.917 1259.34
v -6.1234 -106.746 1265.72
v -7.41388 -106.671 1274.01
v -8.23779 -106.452 1276.25
v -7.11123 -107.462 1276.24
v -8.30464 -102 1191.74
v -6.56553 -102.821 1192.12
v -5.94357 -101.396 1195.06
v -8.38008 -99.4449 1196.93
v -6.47882 -99.7865 1197.66
v -7.51964 -97.8718 1201.74
v -6.65716 -95.4449 1207.81
v -5.89959 -95.2734 1209
v -5.40779 -94.8236 1212.23
v -5.50236 -94.9638 1217.79
v -7.5451 -97.4348 1233.54
v -8.22996 -94.0728 1211.68
v -7.06215 -94.1939 1212.28
v -6.75017 -94.1092 1213.6
v -5.59353 -94.5984 1214.19
v -7.30633 -93.8825 1218.09
v -7.90367 -94.8542 1225.41
v -5.06157 -152.873 1246.79
v -4.94024 -152.591 1245.63
v -4.63739 -151.47 1244.69
v -3.44488 -151.916 1248.88
v -3.23052 -151.421 1247.87
v -2.70021 -149.569 1247.61
v -2.16171 -150.853 1250.46
v -2.07349 -150.08 1249.3
v -5.00965 -151.689 1251.37
v -3.85222 -151.896 1250.8
v -3.06184 -150.692 1254.28
v -2.30687 -149.553 1257
v -4.69525 -147.838 1257.66
v -3.2482 -149.101 1257.24
v -3.22972 -147.038 1259.74
v -4.50874 -145.231 1243.42
v -1.80466 -145.112 1248.19
v -3.97725 -143.018 1261.69
v -3.2998 -145.324 1260.97
v -2.31402 -144.631 1261.69
v -2.31918 -143.451 1262
v -3.80756 -141.074 1261.87
v -3.6535 -142.125 1261.91
v -2.88031 -140.054 1261.63
v -2.33786 -142.603 1262.07
v -3.91585 -137.825 1260.9
v -3.35088 -136.14 1259.98
v -3.90463 -133.858 1259.44
v -2.66613 -134.719 1258.82
v -4.69987 -135.931 1260.41
v -2.2015 -131.532 1253.74
v -4.83237 -131.938 1260.02
v -4.08852 -130.77 1258.87
v -3.19494 -131.481 1257.3
v -3.01615 -133.122 1258.27
v -2.94416 -128.835 1243
v -1.77127 -128.572 1244.57
v -2.74098 -129.777 1253.16
v -3.59154 -128.215 1255.12
v -4.47389 -127.516 1258.92
v -3.92118 -129.783 1257.84
v -3.2779 -126.345 1241.8
v -2.16283 -125.592 1243.13
v -2.84814 -124.022 1251.43
v -2.6654 -126.232 1250.86
v -3.65833 -126.289 1254.84
v -4.67226 -125.62 1260.49
v -4.93331 -120.993 1187.97
v -2.71296 -123.632 1241.09
v -2.46205 -121.256 1251.3
v -4.2954 -122.555 1263.16
v -5.01567 -119.949 1186.37
v -4.91991 -119.08 1186.01
v -5.17942 -117.57 1185.8
v -4.60871 -117.858 1186.03
v -4.42597 -119.865 1187.45
v -4.18831 -118.646 1187.11
v -3.71714 -118.556 1188.41
v -3.86548 -118.489 1189.86
v -4.15813 -117.532 1191.89
v -2.21513 -120.216 1238.68
v -1.75721 -118.674 1251.14
v -2.89584 -119.199 1256.68
v -4.05602 -120.238 1268.26
v -4.75465 -120.315 1273.26
v -4.68501 -119.036 1275.8
v -4.63376 -117.899 1277.06
v -4.32855 -116.311 1186.44
v -3.6991 -116.978 1187.69
v -2.58127 -115.932 1191.48
v -2.4049 -115.153 1190.38
v -2.70695 -114.022 1196.76
v -2.79576 -116.494 1264.9
v -3.66713 -117.265 1272.59
v -4.0709 -117.097 1275.81
v -3.53578 -115.483 1273.72
v -3.37696 -114.063 1272.53
v -4.89635 -116.729 1277.47
v -4.23091 -116.257 1276.98
v -4.09056 -115.08 1276.58
v -4.30355 -114.684 1277.08
v -4.88069 -113.88 1185.92
v -4.8648 -112.951 1201.64
v -4.70608 -111.008 1210.22
v -4.24071 -112.244 1216.01
v -2.70231 -113.896 1266.61
v -2.80598 -112.235 1266.4
v -3.59022 -112.606 1272.37
v -4.29805 -112.593 1275.81
v -4.0361 -113.886 1275.77
v -5.32257 -113.368 1277.43
v -5.1321 -111.794 1277.31
v -4.86377 -111.453 1276.66
v -4.68957 -113.636 1277.36
v -4.67077 -112.746 1277.08
v -2.24028 -109.005 1208.94
v -2.1592 -108.86 1211.65
v -3.06617 -109.861 1213.56
v -2.5406 -110.334 1216.72
v -1.81545 -108.208 1257.4
v -3.1178 -108.233 1260.94
v -2.40254 -109.855 1261.32
v -4.31296 -108.27 1265.79
v -3.66564 -109.157 1265.65
v -2.88201 -110.483 1264.48
v -4.70353 -110.354 1274.27
v -3.81 -106.91 1259.32
v -4.08326 -103.952 1193.61
v -3.0916 -102.783 1196.3
v -3.47698 -101.351 1198.01
v -3.24532 -102.041 1245.63
v -5.21199 -98.3172 1202.37
v -2.42278 -98.307 1205.47
v -2.23075 -100.22 1225.69
v -3.88932 -98.8806 1228.46
v -4.51588 -99.3299 1233.35
v -4.38071 -97.158 1205.49
v -4.30492 -96.2198 1207.9
v -3.12225 -97.2493 1206.74
v -2.33819 -97.2781 1208.28
v -4.26352 -95.8111 1209.54
v -3.06396 -96.3137 1210.74
v -3.14039 -96.1857 1213.92
v -2.75356 -96.889 1216.18
v -3.44172 -98.0696 1222.6
v -0.511678 -149.561 1256.19
v -0.864441 -149.421 1257.23
v -1.89644 -148.104 1259.42
v -1.03116 -147.872 1259.92
v -0.729883 -148.547 1259.02
v -0.235206 -147.45 1260.28
v 0.0999614 -148.856 1257.97
v 0.0976792 -148.046 1259.49
v 0.802213 -148.41 1257.69
v 0.91066 -147.887 1259.09
v 0.879847 -147.278 1259.92
v -1.55642 -147.045 1260.55
v -0.689692 -147.006 1260.68
v 0.476706 -146.32 1260.87
v 0.273222 -144.902 1252.84
v -1.50641 -145.839 1261.32
v -1.45469 -144.303 1261.88
v -1.45546 -143.079 1262.03
v -0.619094 -145.478 1261.49
v 0.0610173 -143.899 1261.72
v 0.520598 -143.079 1261.55
v 0.907088 -145.398 1261.08
v 0.922513 -143.865 1261.37
v -1.85007 -141.485 1261.92
v -1.16989 -139.849 1261.21
v -0.301725 -142.644 1261.8
v -0.258459 -141.101 1261.41
v 0.52115 -142.251 1261.4
v 0.339962 -139.707 1260.38
v -0.539724 -137.451 1246.9
v -0.213832 -139.116 1247.84
v 0.859683 -139.71 1250.47
v 0.432809 -137.536 1248.74
v 0.423408 -138.519 1259.4
v 1.15951 -139.52 1259.51
v 0.949675 -138.134 1258.26
v -2.11226 -136.509 1244.77
v 0.766118 -136.319 1249.97
v 0.444127 -135.014 1250.39
v -0.35168 -133.641 1251.89
v -1.31943 -133.985 1255.98
v -1.4437 -136.384 1258.99
v -1.2357 -135.213 1257.66
v -0.489037 -132.721 1247.3
v -0.710239 -131.371 1248.47
v -1.19683 -128.631 1246.69
v -1.57209 -130.185 1250.43
v -1.47734 -127.964 1248.17
v -1.60399 -126.222 1244.76
v -1.40574 -123.969 1246.55
v -1.47045 -123.393 1243.79
v -0.908122 -120.482 1243.03
v -0.849923 -121.114 1245.09
v -0.938525 -120.587 1246.56
v -0.734128 -117.967 1239.79
v -0.261868 -118.108 1246.79
v 0.16922 -117.64 1244.96
v -1.46703 -113.859 1194.47
v 0.282729 -117.069 1243.22
v -1.23451 -112.52 1192.51
v -1.25459 -113.416 1193.19
v -0.332052 -111.752 1198.36
v 0.388625 -111.136 1196.62
v 0.458655 -111.025 1197.9
v -0.0666895 -113.398 1230.97
v -0.219431 -113.059 1253.12
v -1.713 -113.758 1258.68
v -1.78661 -111.871 1260.16
v -0.907319 -111.731 1256.66
v -0.356947 -109.341 1194.49
v 0.301249 -110.35 1195.48
v 0.946978 -109.773 1197.23
v 1.1118 -109.838 1198.76
v 1.01501 -108.032 1197.42
v 1.06302 -109.445 1200.88
v -2.06363 -110.037 1204.47
v -0.337976 -109.847 1202.8
v 0.763209 -107.759 1206.5
v -1.42574 -108.676 1214.49
v -0.962977 -109.196 1217.77
v 0.537622 -108.794 1220.06
v -1.28959 -109.579 1257.45
v -0.691893 -104.692 1197.17
v -0.0594584 -106.389 1196.54
v 1.13238 -106.761 1198.26
v 1.08361 -105.409 1199.19
v 0.490641 -107.416 1209.05
v 0.446463 -107.458 1214.57
v 0.76163 -104.718 1245.92
v 0.492843 -105.555 1248.67
v 0.0743367 -103.439 1199.77
v 0.00408709 -101.823 1202.31
v 1.14624 -103.489 1201.56
v 1.06478 -102.577 1202.98
v 1.13624 -101.412 1214.5
v -1.02211 -101.418 1224.83
v -1.33487 -101.48 1229.7
v 0.863472 -103.898 1230.05
v -1.35019 -101.863 1235.79
v -1.55035 -102.201 1241.78
v -0.856294 -103.703 1246.89
v 0.141816 -103.824 1244.02
v 0.199215 -100.235 1206.6
v 0.772674 -100.598 1208.05
v 0.430013 -99.9804 1210.89
v -0.301678 -99.5267 1215.31
v -1.418 -97.8333 1209.43
v -1.41054 -97.6866 1211.49
v 1.72136 -146.183 1256.32
v 1.38883 -147.62 1257.07
v 1.45225 -147.059 1259.53
v 1.69164 -147.094 1258.94
v 2.01188 -146.638 1257.91
v 1.94148 -146.278 1259.52
v 2.16006 -146.251 1258.72
v 1.3851 -146.285 1260.3
v 2.31952 -145.443 1259.13
v 2.41666 -145.148 1257.95
v 2.26648 -144.278 1259.89
v 2.46088 -143.436 1259.49
v 2.56582 -144.243 1258.72
v 2.49577 -143.798 1257.47
v 1.82643 -145.442 1260.28
v 1.74965 -143.927 1260.71
v 2.0278 -143.091 1260.29
v 1.41451 -142.498 1254.05
v 2.27596 -141.477 1255.96
v 1.97432 -141.032 1259.5
v 2.33014 -142.243 1259.48
v 2.26512 -140.322 1257.94
v 2.5878 -142.33 1258.33
v 2.46832 -141.167 1257
v 1.31418 -142.701 1260.99
v 1.26455 -141.108 1260.44
v 1.87114 -142.236 1260.29
v 1.41693 -138.679 1251.86
v 1.58544 -138.313 1252.9
v 1.53091 -138.125 1256.62
v 1.42165 -137.365 1254.18
v 2.02484 -139.08 1256.21
v 1.66295 -139.475 1258.66
v 2.39996 -111.836 1239.44
v 2.77902 -111.223 1243.92
v 2.11986 -112.338 1245.91
v 1.9502 -111.457 1247.65
v 1.41568 -108.933 1198.91
v 2.18967 -110.26 1230.48
v 2.69072 -108.702 1228.42
v 2.83589 -107.925 1228.43
v 3.01016 -109.812 1235.97
v 3.18705 -108.604 1236.98
v 3.14078 -109.844 1242.4
v 3.10241 -108.253 1241.14
v 2.66291 -110.317 1245.92
v 2.77565 -108.743 1245.58
v 2.98095 -109.528 1244.67
v 2.99441 -108.695 1244.21
v 1.3638 -108.426 1250.09
v 2.04731 -109.953 1248.21
v 2.21171 -108.273 1247.48
v 1.57946 -107.528 1199.1
v 1.92441 -107.5 1202.33
v 2.07314 -106.69 1201.5
v 1.90743 -106.232 1200.66
v 2.10251 -105.057 1202.47
v 1.85976 -104.679 1201.86
v 1.67802 -107.461 1204.44
v 2.35672 -105.114 1205.14
v 1.571 -106.698 1207.98
v 2.2525 -105.615 1207.04
v 1.12676 -106.769 1211.43
v 1.91784 -105.885 1210.73
v 2.34676 -104.744 1209.58
v 1.68394 -106.328 1214.22
v 2.14721 -105.495 1214.22
v 2.29771 -104.669 1213.75
v 1.19743 -107.487 1217.74
v 2.02554 -106.3 1217.06
v 2.2905 -105.508 1217.15
v 2.12543 -107.299 1220.92
v 1.60094 -104.599 1223.27
v 2.44493 -106.236 1222.51
v 2.2684 -105.86 1230.45
v 2.93424 -107.419 1236.64
v 1.62161 -105.452 1242.86
v 2.52435 -106.722 1241.39
v 1.45952 -105.899 1246.94
v 2.59375 -107.456 1244.74
v 1.4268 -106.792 1248.48
v 1.77984 -103.15 1204.23
v 2.23778 -103.881 1205.48
v 1.36463 -101.876 1205.88
v 1.90823 -102.632 1206.75
v 2.25261 -103.491 1208.24
v 1.63288 -101.943 1211.39
v 1.45434 -101.525 1209.42
v 1.77958 -103.06 1216.78
v 2.19263 -103.929 1215.73
v -24.5319 -121.149 1277.02
v -25.8061 -117.35 1185.87
v -25.8061 -117.35 1185.87
v -25.4849 -119.104 1186.02
v -25.8162 -118.916 1277.04
v -25.6576 -114.928 1185.77
v -26.9494 -114.68 1277.12
v -26.2008 -117.175 1277.29
v -26.3115 -113.771 1186.05
v -25.4776 -111.05 1185.52
v -25.4776 -111.05 1185.52
v -26.9619 -113.08 1277.12
v -26.6054 -112.324 1277.3
v -26.2167 -110.921 1277.08
v -24.7682 -109.08 1185.52
v -23.8146 -121.526 1186.02
v -21.8776 -123.48 1185.82
v -22.242 -123.443 1277.34
v -23.962 -108.4 1277.33
v -22.6776 -107.08 1185.42
v -22.6776 -107.08 1185.42
v -22.6883 -107.096 1277.13
v -21.5139 -106.346 1277.07
v -20.2776 -124.28 1185.85
v -19.8776 -124.68 1185.79
v -19.8776 -124.68 1185.79
v -19.8776 -124.68 1185.79
v -19.4776 -124.68 1185.84
v -18.6776 -125.083 1185.81
v -20.6549 -124.917 1277.06
v -18.7039 -125.728 1277.08
v -19.03 -104.684 1185.64
v -18.6445 -105.283 1185.42
v -19.9382 -105.696 1277.07
v -18.6776 -105.296 1277.12
v -17.8776 -125.514 1185.92
v -17.3457 -125.431 1185.83
v -17.3457 -125.431 1185.83
v -17.1176 -125.972 1277.09
v -15.4424 -125.802 1277.32
v -17.0776 -104.28 1185.26
v -17.0776 -104.28 1185.26
v -15.4776 -104.28 1185.31
v -12.4303 -125.676 1277.07
v -11.9332 -104.981 1277.01
v -13.0776 -104.28 1185.3
v -11.4126 -125.04 1185.93
v -9.36085 -123.731 1185.77
v -11.0539 -125.246 1277.05
v -9.85945 -124.231 1277.42
v -11.4776 -105.08 1185.38
v -9.47756 -105.88 1185.35
v -8.67756 -106.68 1185.42
v -9.90804 -105.722 1277.05
v -8.60225 -106.54 1277.07
v -6.85915 -121.479 1185.8
v -5.91518 -120.581 1185.8
v -5.91518 -120.581 1185.8
v -7.97357 -122.644 1277.48
v -5.47756 -111.88 1185.79
v -6.45308 -108.681 1277.01
v -5.40045 -110.587 1277.09
v -4.91991 -119.08 1186.01
v -4.60871 -117.858 1186.03
v -4.63376 -117.899 1277.06
v -4.23091 -116.257 1276.98
v -4.88069 -113.88 1185.92
v -5.1321 -111.794 1277.31
v -4.67077 -112.746 1277.08
f 1 4 30
f 1 2 4
f 30 4 44
f 4 3 44
f 4 5 3
f 3 5 51
f 50 44 3
f 50 3 51
f 2 5 4
f 2 6 5
f 5 6 51
f 6 52 51
f 73 11 9
f 11 12 10
f 80 13 77
f 80 8 7
f 7 8 9
f 80 7 13
f 7 14 13
f 7 9 14
f 73 9 8
f 9 11 10
f 12 15 10
f 9 10 15
f 83 21 15
f 12 81 83
f 12 83 15
f 16 77 19
f 13 14 19
f 19 14 20
f 13 19 77
f 9 15 14
f 15 17 20
f 15 20 14
f 15 21 17
f 83 87 21
f 18 16 19
f 18 86 16
f 25 19 26
f 20 26 19
f 20 17 21
f 87 23 21
f 96 22 24
f 19 25 22
f 19 22 18
f 20 23 31
f 21 23 20
f 87 31 23
f 87 27 31
f 27 87 97
f 87 88 97
f 22 25 29
f 24 29 28
f 22 29 24
f 26 1 25
f 31 26 20
f 31 27 32
f 97 33 27
f 33 97 34
f 28 29 36
f 35 28 36
f 109 28 35
f 25 30 29
f 1 30 25
f 26 31 1
f 32 2 31
f 32 33 38
f 27 33 32
f 34 39 33
f 35 114 109
f 36 37 35
f 29 30 36
f 36 30 44
f 36 44 37
f 44 43 37
f 1 31 2
f 32 38 2
f 33 39 38
f 39 46 38
f 46 39 48
f 34 40 39
f 39 40 48
f 48 49 57
f 40 49 48
f 34 101 40
f 101 49 40
f 35 41 114
f 35 42 41
f 114 41 116
f 42 35 37
f 118 41 42
f 37 43 42
f 44 50 43
f 38 45 2
f 38 46 45
f 45 46 47
f 2 45 6
f 47 54 45
f 46 48 47
f 48 57 47
f 47 57 55
f 57 49 58
f 118 42 59
f 42 43 50
f 42 50 59
f 50 51 59
f 62 59 51
f 52 62 51
f 6 53 52
f 6 45 53
f 54 53 45
f 53 54 65
f 54 47 55
f 54 55 65
f 55 58 56
f 57 58 55
f 119 56 58
f 56 119 130
f 59 62 61
f 60 59 61
f 61 62 63
f 63 125 61
f 63 62 52
f 52 64 63
f 64 125 63
f 52 65 64
f 52 53 65
f 66 64 65
f 55 67 65
f 55 56 67
f 67 66 65
f 60 61 124
f 124 61 125
f 69 138 147
f 147 141 74
f 74 141 136
f 136 68 74
f 148 68 136
f 76 149 70
f 70 69 78
f 71 147 72
f 71 72 80
f 69 71 78
f 71 80 78
f 71 69 147
f 72 73 8
f 72 8 80
f 73 72 74
f 74 72 147
f 74 68 73
f 68 11 73
f 11 68 75
f 75 12 11
f 75 81 12
f 148 75 68
f 75 153 81
f 155 76 158
f 158 76 84
f 78 80 77
f 79 78 77
f 76 70 79
f 79 70 78
f 81 82 83
f 82 81 153
f 84 76 79
f 77 16 84
f 77 84 79
f 82 88 83
f 170 84 86
f 158 84 170
f 84 16 86
f 87 83 88
f 85 86 91
f 85 170 86
f 88 171 93
f 95 176 89
f 96 90 92
f 92 90 167
f 89 165 90
f 92 91 18
f 22 92 18
f 96 92 22
f 91 167 85
f 167 91 92
f 86 18 91
f 88 93 97
f 94 95 24
f 176 95 94
f 24 95 96
f 96 89 90
f 96 95 89
f 97 101 100
f 97 93 98
f 24 99 94
f 99 24 28
f 100 34 97
f 100 101 34
f 98 101 97
f 98 102 101
f 102 105 101
f 98 185 102
f 105 102 107
f 185 103 102
f 102 103 107
f 185 194 103
f 193 99 109
f 193 109 201
f 99 28 109
f 104 101 105
f 107 108 105
f 105 108 106
f 107 203 108
f 206 108 203
f 201 213 212
f 109 112 201
f 201 112 213
f 109 114 112
f 101 104 49
f 104 110 49
f 104 105 110
f 110 105 111
f 106 111 105
f 213 113 220
f 113 117 220
f 112 113 213
f 113 114 116
f 113 116 117
f 114 113 112
f 110 58 49
f 111 115 110
f 110 115 58
f 41 118 116
f 117 116 118
f 59 60 118
f 60 117 118
f 115 119 58
f 115 122 119
f 117 60 120
f 121 120 60
f 120 121 227
f 56 130 67
f 132 130 122
f 119 122 130
f 122 229 132
f 123 121 60
f 125 126 124
f 60 124 123
f 123 124 126
f 126 133 235
f 126 235 123
f 133 126 125
f 66 127 64
f 127 125 64
f 125 127 133
f 133 127 134
f 127 128 134
f 134 128 129
f 66 128 127
f 131 66 67
f 131 67 130
f 131 128 66
f 131 130 132
f 128 131 129
f 132 232 231
f 129 131 231
f 131 132 231
f 235 133 237
f 237 133 239
f 133 134 239
f 140 253 135
f 252 142 135
f 252 135 253
f 135 142 138
f 142 252 258
f 136 142 258
f 263 148 136
f 137 260 261
f 260 137 145
f 139 135 138
f 137 140 139
f 140 135 139
f 261 140 137
f 142 141 147
f 142 147 138
f 142 136 141
f 75 263 153
f 143 138 69
f 143 69 152
f 139 138 143
f 145 152 144
f 145 143 152
f 137 143 145
f 137 139 143
f 144 146 145
f 151 146 150
f 267 146 151
f 145 146 260
f 260 146 267
f 75 148 263
f 269 270 154
f 149 76 155
f 150 152 149
f 149 155 150
f 152 69 70
f 149 152 70
f 144 152 150
f 150 146 144
f 153 154 82
f 154 153 269
f 271 154 270
f 155 158 160
f 156 150 155
f 151 150 156
f 155 160 156
f 156 160 285
f 154 88 82
f 88 154 157
f 154 276 157
f 157 276 161
f 161 277 162
f 158 170 159
f 159 160 158
f 157 161 88
f 162 173 172
f 161 162 172
f 162 287 173
f 173 287 303
f 287 280 303
f 292 163 308
f 163 292 164
f 163 176 94
f 176 294 297
f 163 164 176
f 176 164 294
f 166 176 297
f 166 299 165
f 169 165 299
f 168 85 167
f 168 167 169
f 170 168 169
f 169 167 165
f 169 159 170
f 170 85 168
f 88 172 171
f 172 88 161
f 172 173 171
f 171 177 93
f 173 303 177
f 171 173 177
f 303 304 178
f 184 175 192
f 175 184 174
f 174 308 175
f 163 175 308
f 176 166 89
f 165 89 166
f 165 167 90
f 177 303 178
f 178 188 177
f 93 177 186
f 186 177 188
f 178 309 188
f 188 309 179
f 182 180 181
f 174 1128 183
f 183 1128 1126
f 1126 314 183
f 193 180 192
f 192 180 184
f 182 184 180
f 174 184 182
f 192 94 99
f 163 94 192
f 175 163 192
f 93 186 98
f 98 186 185
f 186 187 185
f 188 187 186
f 189 187 188
f 194 190 196
f 194 196 195
f 1129 310 1132
f 194 187 190
f 189 188 179
f 189 190 187
f 1125 310 1129
f 189 179 190
f 181 180 193
f 198 181 193
f 193 201 198
f 191 1127 1133
f 1130 314 1126
f 315 314 1130
f 192 99 193
f 185 187 194
f 195 103 194
f 195 107 103
f 1132 197 1131
f 310 197 1132
f 578 209 197
f 578 197 310
f 198 201 202
f 199 198 202
f 191 1133 200
f 1134 198 199
f 201 199 202
f 201 212 199
f 214 106 108
f 107 204 203
f 108 206 214
f 195 204 107
f 1131 197 1136
f 197 207 1136
f 204 205 203
f 204 1137 205
f 203 205 206
f 205 1137 208
f 205 208 206
f 209 207 197
f 209 1138 207
f 1134 199 210
f 1139 211 1135
f 315 1135 211
f 1139 320 211
f 219 319 210
f 220 219 212
f 212 210 199
f 210 212 219
f 106 214 111
f 214 215 111
f 215 222 111
f 206 218 214
f 214 218 216
f 218 318 216
f 217 215 214
f 214 216 217
f 215 217 222
f 217 216 331
f 206 208 218
f 208 318 218
f 1138 209 1143
f 216 318 331
f 322 319 219
f 324 219 220
f 213 220 212
f 220 117 120
f 324 220 120
f 224 115 221
f 224 221 226
f 115 111 221
f 226 221 325
f 222 221 111
f 221 222 223
f 221 223 325
f 223 222 328
f 223 328 327
f 326 223 327
f 217 329 222
f 120 227 324
f 115 224 122
f 224 226 225
f 225 226 337
f 324 227 336
f 132 229 232
f 228 232 229
f 340 232 228
f 122 224 229
f 229 224 225
f 229 225 228
f 225 340 228
f 230 341 227
f 230 227 123
f 227 121 123
f 234 123 235
f 234 235 236
f 231 232 244
f 231 244 129
f 233 244 232
f 245 233 343
f 233 232 340
f 233 340 343
f 237 236 235
f 236 237 346
f 237 239 238
f 129 244 134
f 134 240 239
f 134 244 240
f 239 240 242
f 244 241 240
f 238 239 242
f 242 240 241
f 242 241 243
f 238 242 347
f 244 245 241
f 245 244 233
f 241 245 243
f 243 245 349
f 249 251 248
f 246 249 259
f 248 259 249
f 247 351 246
f 249 246 351
f 356 249 351
f 251 249 356
f 248 250 136
f 250 248 251
f 140 261 256
f 254 252 253
f 255 246 254
f 255 253 256
f 254 253 255
f 253 140 256
f 255 256 247
f 246 255 247
f 247 256 257
f 261 262 257
f 261 257 256
f 363 257 262
f 364 247 257
f 258 252 254
f 136 258 248
f 259 258 254
f 259 254 246
f 248 258 259
f 136 250 263
f 263 361 265
f 262 261 260
f 262 366 363
f 363 366 367
f 263 269 153
f 265 264 263
f 263 264 269
f 270 269 264
f 265 266 264
f 270 266 369
f 266 270 264
f 268 260 267
f 267 272 268
f 260 268 262
f 268 273 262
f 262 273 370
f 270 369 271
f 267 151 272
f 274 272 151
f 275 268 272
f 275 273 268
f 271 276 154
f 274 151 156
f 274 275 272
f 391 275 274
f 391 376 275
f 277 161 276
f 156 285 274
f 162 277 278
f 279 278 277
f 276 279 277
f 279 280 278
f 278 280 287
f 291 281 293
f 385 384 281
f 281 383 293
f 282 295 293
f 295 282 296
f 282 293 383
f 296 282 390
f 169 283 159
f 302 283 169
f 283 302 284
f 283 284 286
f 160 159 283
f 285 160 283
f 286 274 285
f 285 283 286
f 286 284 392
f 278 287 162
f 377 394 288
f 288 394 304
f 289 308 307
f 290 308 289
f 396 290 289
f 307 398 396
f 289 307 396
f 291 290 379
f 292 294 164
f 293 294 292
f 291 293 292
f 291 292 308
f 308 290 291
f 291 385 281
f 295 294 293
f 297 294 295
f 298 297 295
f 298 295 296
f 297 300 166
f 297 298 300
f 299 300 301
f 299 166 300
f 302 299 301
f 300 407 301
f 410 302 301
f 407 411 301
f 302 169 299
f 280 288 303
f 288 304 303
f 395 416 304
f 304 311 309
f 416 311 304
f 417 311 416
f 417 312 311
f 1142 1154 419
f 305 174 183
f 305 308 174
f 306 1141 1140
f 1140 183 306
f 307 308 305
f 306 183 313
f 306 313 421
f 421 1141 306
f 309 178 304
f 309 311 179
f 312 179 311
f 1125 1142 310
f 419 310 1142
f 419 578 310
f 313 183 314
f 506 421 313
f 315 425 314
f 315 1130 1135
f 425 315 514
f 316 514 315
f 1144 210 319
f 316 211 320
f 315 211 316
f 317 209 578
f 317 1143 209
f 333 1143 317
f 332 1143 333
f 333 317 578
f 1144 319 322
f 321 1144 322
f 322 219 324
f 321 322 323
f 324 323 322
f 441 321 323
f 325 223 326
f 325 326 339
f 339 326 429
f 445 339 429
f 326 327 429
f 327 430 429
f 328 222 329
f 329 327 328
f 327 432 430
f 329 217 330
f 432 327 329
f 331 1146 330
f 331 318 1146
f 217 331 330
f 330 1146 334
f 333 1147 332
f 330 334 434
f 330 434 432
f 323 324 335
f 441 323 335
f 335 324 336
f 443 441 335
f 443 335 336
f 530 443 336
f 530 336 341
f 340 225 338
f 339 338 337
f 225 337 338
f 338 445 444
f 325 337 226
f 339 337 325
f 445 338 339
f 341 336 227
f 340 338 344
f 342 230 123
f 341 230 342
f 341 342 446
f 448 446 342
f 234 342 123
f 448 342 234
f 350 343 447
f 343 344 447
f 343 340 344
f 447 344 338
f 234 236 345
f 234 345 536
f 236 346 345
f 536 345 449
f 345 346 449
f 346 237 238
f 346 238 347
f 346 347 450
f 450 347 451
f 242 243 347
f 348 347 243
f 451 347 348
f 348 243 349
f 451 348 540
f 540 348 349
f 349 245 343
f 349 343 350
f 359 453 362
f 364 354 247
f 354 352 247
f 352 351 247
f 351 358 356
f 353 351 352
f 353 358 351
f 364 365 354
f 353 360 358
f 352 354 353
f 353 354 355
f 355 460 353
f 353 460 360
f 355 354 365
f 365 363 459
f 365 459 355
f 357 251 356
f 250 251 357
f 358 359 356
f 362 356 359
f 357 356 362
f 360 359 358
f 359 360 453
f 361 263 250
f 357 361 250
f 361 357 362
f 361 462 265
f 363 367 461
f 365 364 257
f 363 365 257
f 367 463 461
f 265 551 464
f 366 262 370
f 466 366 370
f 366 368 367
f 367 368 463
f 368 366 466
f 265 464 266
f 266 464 369
f 370 273 371
f 370 371 466
f 271 369 276
f 470 369 469
f 471 371 273
f 371 471 466
f 276 369 373
f 470 373 369
f 372 273 275
f 372 471 273
f 373 279 276
f 373 374 279
f 470 374 373
f 470 473 374
f 374 288 279
f 374 375 288
f 472 378 375
f 391 393 376
f 275 376 372
f 288 280 279
f 377 288 375
f 375 378 377
f 381 496 480
f 291 379 385
f 380 385 379
f 379 290 381
f 382 385 380
f 382 387 385
f 379 381 380
f 380 381 482
f 482 382 380
f 387 382 483
f 480 482 381
f 382 482 483
f 383 281 384
f 387 384 385
f 386 383 384
f 390 383 386
f 387 386 384
f 387 389 386
f 389 388 386
f 388 390 386
f 388 405 390
f 405 388 487
f 383 390 282
f 284 410 392
f 302 410 284
f 274 286 391
f 286 392 391
f 392 393 391
f 378 394 377
f 395 304 394
f 490 394 378
f 395 394 489
f 394 490 489
f 418 395 489
f 396 399 397
f 396 398 1149
f 399 400 397
f 1150 1148 422
f 1151 401 400
f 403 397 400
f 422 402 1152
f 422 1152 1150
f 400 401 1153
f 400 1153 403
f 494 402 422
f 1153 493 403
f 1160 402 494
f 290 396 397
f 290 397 381
f 397 403 381
f 496 381 403
f 390 404 296
f 298 296 404
f 405 404 390
f 404 408 298
f 406 408 404
f 406 404 405
f 405 487 406
f 298 407 300
f 298 408 407
f 408 409 407
f 407 409 412
f 406 409 408
f 406 423 409
f 412 411 407
f 301 411 410
f 410 411 414
f 412 413 411
f 411 413 414
f 415 412 409
f 412 415 413
f 414 413 510
f 392 410 393
f 410 414 393
f 414 510 393
f 418 416 395
f 416 418 417
f 489 502 418
f 420 418 502
f 417 418 420
f 1154 1155 419
f 1148 1141 422
f 506 422 421
f 421 422 1141
f 313 511 506
f 415 409 423
f 314 424 313
f 511 313 424
f 424 314 425
f 426 514 316
f 515 424 425
f 426 316 320
f 516 514 426
f 427 1144 321
f 428 426 320
f 1157 1145 1156
f 588 426 428
f 430 431 429
f 532 429 431
f 430 518 431
f 330 432 329
f 430 432 518
f 518 432 433
f 432 436 433
f 435 1147 333
f 334 1158 434
f 434 1158 432
f 438 435 333
f 436 432 1158
f 435 438 437
f 436 1158 1159
f 439 438 333
f 440 438 439
f 440 437 438
f 1159 433 436
f 437 440 521
f 1159 521 433
f 321 441 427
f 442 427 441
f 528 442 441
f 528 441 443
f 532 445 429
f 531 445 532
f 446 530 341
f 447 338 444
f 780 447 534
f 447 444 534
f 535 446 448
f 447 690 540
f 690 447 780
f 448 234 536
f 346 450 537
f 537 450 451
f 538 451 540
f 538 537 451
f 540 539 538
f 349 350 540
f 540 350 447
f 360 460 454
f 454 455 360
f 360 455 453
f 361 362 452
f 453 452 362
f 452 457 456
f 452 453 457
f 453 455 457
f 454 542 455
f 454 541 542
f 452 456 462
f 456 546 462
f 458 546 456
f 456 457 458
f 363 461 459
f 460 355 454
f 459 548 355
f 459 461 548
f 355 548 541
f 355 541 454
f 619 461 553
f 462 361 452
f 551 265 462
f 546 551 462
f 624 464 552
f 463 465 553
f 461 463 553
f 551 552 464
f 368 466 467
f 368 465 463
f 368 467 465
f 369 464 555
f 555 469 369
f 466 468 467
f 558 470 557
f 468 466 471
f 475 470 558
f 475 473 470
f 374 474 375
f 474 472 375
f 473 474 374
f 474 473 475
f 476 472 474
f 476 477 472
f 558 476 475
f 474 475 476
f 477 476 562
f 476 560 562
f 488 372 376
f 471 372 569
f 569 372 488
f 478 490 378
f 472 478 378
f 478 472 477
f 490 478 491
f 478 477 479
f 479 491 478
f 477 562 479
f 480 563 484
f 481 563 480
f 480 500 481
f 481 500 565
f 484 483 482
f 482 480 484
f 484 485 483
f 485 484 566
f 563 566 484
f 566 567 485
f 567 486 485
f 575 486 567
f 483 389 387
f 389 485 388
f 485 487 388
f 483 485 389
f 485 486 487
f 486 501 487
f 393 488 376
f 490 491 492
f 489 490 492
f 571 492 491
f 489 492 504
f 493 495 496
f 493 496 403
f 1161 1160 494
f 507 1161 494
f 507 494 422
f 500 480 496
f 1162 499 497
f 497 496 495
f 507 499 1161
f 497 500 496
f 579 499 507
f 500 498 565
f 497 572 498
f 498 500 497
f 572 497 499
f 498 573 565
f 498 572 573
f 501 406 487
f 510 585 393
f 585 488 393
f 502 489 504
f 503 420 502
f 1155 1163 419
f 419 1163 505
f 505 578 419
f 504 503 502
f 503 504 1164
f 504 577 1164
f 506 507 422
f 507 506 508
f 579 507 508
f 508 506 511
f 660 582 423
f 406 509 423
f 584 423 582
f 423 509 660
f 415 583 413
f 583 510 413
f 584 415 423
f 584 583 415
f 508 511 512
f 581 508 512
f 512 511 424
f 513 512 424
f 513 424 515
f 514 515 425
f 515 514 516
f 516 426 588
f 587 516 588
f 578 439 333
f 524 1157 1156
f 588 428 1165
f 527 588 1165
f 517 532 590
f 676 517 590
f 532 431 590
f 431 518 519
f 590 431 519
f 518 433 523
f 518 523 520
f 519 518 520
f 520 523 595
f 519 520 591
f 591 520 595
f 439 522 440
f 522 521 440
f 523 433 521
f 523 521 595
f 578 594 439
f 594 522 439
f 595 521 522
f 594 595 522
f 525 427 442
f 1166 427 525
f 528 525 442
f 1166 525 526
f 1166 526 1167
f 525 528 526
f 529 601 598
f 598 526 529
f 529 528 530
f 530 528 443
f 528 529 526
f 529 530 533
f 601 529 533
f 534 444 602
f 444 445 531
f 444 531 602
f 531 589 602
f 589 531 517
f 517 531 532
f 601 533 603
f 533 530 604
f 604 530 605
f 530 446 605
f 535 448 607
f 607 448 536
f 607 536 608
f 609 536 449
f 609 449 537
f 449 346 537
f 538 611 537
f 538 539 611
f 539 701 611
f 540 612 539
f 541 545 542
f 545 541 550
f 541 548 550
f 455 543 457
f 457 543 458
f 455 544 543
f 542 544 455
f 543 547 458
f 545 544 542
f 550 613 545
f 545 614 544
f 546 458 547
f 616 546 547
f 547 543 617
f 461 549 548
f 549 461 619
f 550 548 549
f 546 616 551
f 616 552 551
f 555 464 624
f 718 555 624
f 467 554 465
f 465 619 553
f 465 554 619
f 556 554 467
f 626 619 554
f 626 554 556
f 625 469 555
f 718 625 555
f 629 467 468
f 625 627 469
f 469 557 470
f 469 627 557
f 628 557 627
f 628 559 557
f 636 468 471
f 629 468 636
f 556 467 629
f 558 557 559
f 559 628 632
f 558 559 560
f 559 631 560
f 476 558 560
f 631 561 560
f 631 634 561
f 560 561 562
f 471 569 636
f 562 635 479
f 635 570 479
f 563 564 566
f 565 563 481
f 565 564 563
f 565 574 564
f 564 574 568
f 565 642 643
f 643 574 565
f 575 568 574
f 567 566 564
f 564 568 567
f 568 575 567
f 570 571 491
f 570 491 479
f 570 637 571
f 492 571 504
f 572 499 579
f 640 572 579
f 572 638 573
f 1171 572 640
f 642 573 639
f 638 639 573
f 573 642 565
f 575 649 486
f 650 657 486
f 501 657 406
f 486 657 501
f 488 585 569
f 504 576 577
f 571 576 504
f 576 571 653
f 1168 578 505
f 653 577 576
f 508 581 579
f 509 406 657
f 510 583 585
f 581 512 580
f 581 580 662
f 657 661 509
f 509 661 660
f 582 660 663
f 584 665 583
f 513 580 512
f 662 580 513
f 513 586 662
f 513 515 586
f 586 515 516
f 671 587 588
f 587 586 516
f 668 586 587
f 599 588 527
f 599 670 588
f 671 588 670
f 589 517 676
f 590 592 676
f 677 676 592
f 677 781 676
f 591 596 593
f 590 519 592
f 592 519 591
f 592 591 593
f 592 593 678
f 593 597 678
f 678 597 679
f 591 595 596
f 1169 595 594
f 593 596 597
f 595 597 596
f 681 594 578
f 681 1169 594
f 598 1167 526
f 1170 1167 598
f 600 1170 598
f 1175 1170 600
f 598 601 600
f 601 603 687
f 685 600 601
f 685 601 687
f 602 780 534
f 603 533 604
f 604 605 689
f 605 446 535
f 535 606 605
f 606 535 691
f 540 912 693
f 691 535 607
f 694 607 608
f 694 608 696
f 608 536 609
f 608 609 610
f 696 608 610
f 610 609 698
f 610 698 699
f 537 611 609
f 698 609 611
f 698 611 701
f 701 539 612
f 545 613 614
f 614 613 703
f 703 613 622
f 613 550 622
f 544 617 543
f 615 617 544
f 544 614 615
f 703 704 614
f 614 704 615
f 615 704 706
f 617 618 547
f 618 616 547
f 615 706 617
f 616 705 623
f 618 705 616
f 705 717 623
f 549 619 621
f 550 549 620
f 549 621 620
f 550 620 622
f 622 620 712
f 620 621 712
f 712 713 622
f 623 552 616
f 623 624 552
f 717 624 623
f 717 718 624
f 718 814 625
f 626 556 630
f 720 619 626
f 627 625 628
f 628 625 721
f 556 629 630
f 720 626 963
f 626 630 963
f 559 632 631
f 632 628 721
f 634 631 723
f 633 723 631
f 722 632 721
f 632 722 633
f 631 632 633
f 562 561 733
f 561 634 733
f 728 634 723
f 629 636 730
f 630 629 731
f 733 635 562
f 635 738 570
f 733 738 635
f 746 570 738
f 746 637 570
f 637 746 652
f 640 579 658
f 638 641 639
f 640 1172 1171
f 1172 640 658
f 739 639 641
f 643 644 574
f 642 639 645
f 642 645 643
f 575 574 644
f 646 575 644
f 643 645 644
f 648 649 646
f 648 650 649
f 647 644 645
f 646 644 647
f 739 645 639
f 647 740 646
f 740 648 646
f 754 650 648
f 486 649 650
f 646 649 575
f 636 569 756
f 651 653 571
f 637 651 571
f 651 637 652
f 652 656 651
f 654 577 653
f 1173 578 1168
f 651 654 653
f 656 654 651
f 656 655 654
f 1174 578 1173
f 760 655 656
f 762 578 1174
f 760 1183 655
f 761 760 656
f 754 657 650
f 659 661 657
f 658 579 581
f 658 581 662
f 658 662 883
f 661 663 660
f 659 663 661
f 585 583 665
f 662 586 667
f 883 662 667
f 659 769 663
f 663 664 582
f 664 666 582
f 582 666 584
f 584 666 665
f 585 665 569
f 667 586 668
f 667 668 669
f 770 667 669
f 668 587 671
f 671 669 668
f 681 578 775
f 673 671 670
f 1176 1175 600
f 672 1176 600
f 672 600 685
f 674 671 673
f 778 1176 672
f 1176 675 1177
f 675 1176 778
f 589 676 780
f 676 781 780
f 678 677 592
f 680 781 677
f 678 679 680
f 678 680 677
f 682 683 679
f 680 679 683
f 683 783 782
f 683 782 680
f 1178 1169 681
f 679 597 682
f 684 1178 681
f 682 1179 683
f 1179 783 683
f 785 685 687
f 685 686 672
f 685 785 686
f 778 672 686
f 780 602 589
f 687 603 788
f 785 687 788
f 785 788 789
f 603 604 688
f 688 788 603
f 788 688 790
f 689 688 604
f 689 790 688
f 690 912 540
f 689 605 606
f 606 692 689
f 689 692 790
f 691 692 606
f 791 692 796
f 795 702 612
f 540 693 612
f 795 612 693
f 691 607 694
f 691 694 692
f 694 796 692
f 796 694 695
f 694 696 695
f 696 697 695
f 696 610 697
f 610 699 697
f 800 697 699
f 699 698 700
f 700 800 699
f 700 794 800
f 701 612 702
f 698 701 700
f 700 701 702
f 801 700 702
f 704 703 710
f 706 704 710
f 710 703 716
f 803 710 716
f 618 707 705
f 617 706 618
f 706 707 618
f 707 711 705
f 706 708 707
f 708 709 707
f 709 711 707
f 708 706 710
f 802 709 708
f 803 802 710
f 710 802 708
f 709 802 811
f 711 717 705
f 717 711 810
f 709 811 711
f 811 810 711
f 712 621 714
f 703 622 713
f 712 714 715
f 713 712 715
f 713 715 804
f 713 716 703
f 803 716 804
f 716 713 804
f 804 715 807
f 810 718 717
f 715 714 817
f 621 619 720
f 621 720 714
f 714 720 719
f 714 719 817
f 625 820 721
f 719 720 963
f 824 725 724
f 722 721 724
f 722 724 725
f 725 723 722
f 723 633 722
f 727 726 725
f 726 723 725
f 729 728 726
f 726 728 723
f 726 727 831
f 831 729 726
f 827 831 727
f 728 734 634
f 729 734 728
f 730 636 742
f 630 731 732
f 629 730 731
f 732 963 630
f 732 731 735
f 731 730 735
f 732 735 837
f 732 837 963
f 734 733 634
f 734 736 733
f 734 833 736
f 742 743 730
f 730 743 735
f 738 733 736
f 744 736 737
f 736 744 738
f 744 746 738
f 739 641 747
f 739 741 645
f 740 754 648
f 645 741 647
f 739 751 741
f 742 636 756
f 745 746 744
f 852 745 744
f 652 746 757
f 745 757 746
f 652 761 656
f 652 757 761
f 1172 658 748
f 641 1180 749
f 749 747 641
f 750 749 1180
f 749 1181 755
f 1181 853 755
f 857 755 853
f 747 751 739
f 751 752 741
f 752 647 741
f 647 752 740
f 752 753 740
f 740 753 754
f 749 751 747
f 749 755 751
f 751 755 752
f 860 754 753
f 860 861 754
f 752 755 849
f 752 849 753
f 763 757 764
f 766 764 757
f 766 757 758
f 757 745 758
f 759 766 758
f 758 866 759
f 761 763 760
f 760 763 1183
f 757 763 761
f 762 768 578
f 763 764 765
f 763 765 1183
f 765 768 762
f 766 767 764
f 764 767 765
f 765 767 768
f 759 767 766
f 855 658 883
f 748 658 1182
f 1182 658 855
f 853 1181 854
f 1187 1182 855
f 861 657 754
f 659 861 769
f 657 861 659
f 879 578 768
f 770 883 667
f 769 861 873
f 663 769 664
f 884 664 769
f 665 886 569
f 886 665 885
f 879 892 578
f 771 883 770
f 674 771 770
f 772 1184 1177
f 666 664 884
f 666 885 665
f 897 885 666
f 892 775 578
f 892 893 775
f 893 776 775
f 669 671 674
f 770 669 674
f 782 773 904
f 774 777 773
f 784 774 773
f 1179 774 784
f 1185 775 776
f 1185 684 775
f 774 1186 777
f 894 777 1186
f 675 779 1177
f 772 1177 779
f 779 675 778
f 780 781 908
f 904 781 782
f 680 782 781
f 784 783 1179
f 783 784 782
f 782 784 773
f 684 681 775
f 686 786 778
f 786 686 785
f 787 785 789
f 786 909 778
f 785 787 786
f 779 778 909
f 911 786 787
f 913 788 790
f 913 789 788
f 789 911 787
f 795 693 912
f 917 795 912
f 913 790 918
f 692 791 790
f 791 918 790
f 791 792 919
f 796 792 791
f 797 793 792
f 799 800 794
f 801 926 794
f 926 801 916
f 702 795 801
f 917 801 795
f 916 801 917
f 792 796 797
f 797 796 695
f 798 695 697
f 695 798 797
f 793 797 798
f 799 798 697
f 793 798 799
f 799 697 800
f 700 801 794
f 805 802 803
f 811 802 805
f 803 806 805
f 803 804 806
f 804 807 806
f 809 806 807
f 811 805 927
f 805 806 808
f 808 927 805
f 808 806 809
f 811 927 928
f 815 718 810
f 812 810 811
f 928 812 811
f 815 810 813
f 812 813 810
f 812 928 813
f 715 817 807
f 817 818 807
f 814 816 625
f 718 815 814
f 815 816 814
f 929 815 813
f 816 815 929
f 929 938 816
f 820 816 938
f 721 820 819
f 625 816 820
f 819 820 821
f 821 822 819
f 822 824 819
f 820 942 821
f 942 943 821
f 943 822 821
f 817 719 963
f 817 963 956
f 721 819 724
f 819 824 724
f 823 725 824
f 825 725 823
f 825 727 725
f 826 824 822
f 826 823 824
f 951 828 825
f 826 950 823
f 950 825 823
f 950 951 825
f 825 827 727
f 827 828 831
f 825 828 827
f 833 729 829
f 729 833 734
f 829 729 831
f 828 829 831
f 836 834 829
f 830 829 828
f 830 836 829
f 828 968 830
f 830 968 969
f 969 836 830
f 832 839 835
f 835 839 842
f 835 836 967
f 835 967 832
f 736 834 737
f 834 833 829
f 842 834 835
f 835 834 836
f 833 834 736
f 735 843 837
f 837 843 844
f 837 844 838
f 974 846 839
f 840 839 846
f 974 839 973
f 840 847 841
f 839 840 842
f 834 842 737
f 841 737 842
f 840 841 842
f 841 848 737
f 735 743 843
f 742 756 862
f 843 743 850
f 742 862 743
f 844 843 850
f 850 977 844
f 846 976 845
f 846 847 840
f 846 845 847
f 847 848 841
f 848 847 845
f 737 848 744
f 852 744 848
f 848 864 852
f 860 753 849
f 849 755 857
f 743 862 850
f 850 862 977
f 845 851 848
f 864 848 851
f 852 864 874
f 852 874 865
f 745 852 865
f 745 866 758
f 857 853 854
f 854 858 857
f 855 856 1187
f 858 854 1188
f 849 857 859
f 859 857 858
f 870 858 1188
f 1188 869 870
f 860 849 859
f 858 870 859
f 871 860 859
f 871 861 860
f 756 991 862
f 851 863 864
f 863 993 864
f 993 874 864
f 865 874 875
f 875 866 865
f 745 865 866
f 867 759 866
f 866 875 867
f 876 867 875
f 876 868 867
f 767 759 867
f 868 767 867
f 767 1189 768
f 1189 879 768
f 869 1191 996
f 869 856 855
f 869 855 1191
f 869 996 986
f 859 870 872
f 986 870 869
f 861 984 873
f 871 984 861
f 871 859 872
f 870 986 872
f 871 872 987
f 569 886 756
f 991 756 886
f 993 887 874
f 874 877 875
f 874 887 877
f 877 887 878
f 877 891 881
f 875 877 876
f 877 878 891
f 878 889 891
f 1189 880 879
f 880 882 879
f 896 882 891
f 1190 868 876
f 876 877 1190
f 877 881 1190
f 1190 881 882
f 891 882 881
f 1184 996 1191
f 873 884 769
f 1002 666 884
f 884 873 1002
f 887 994 888
f 903 994 1008
f 903 888 994
f 993 994 887
f 888 878 887
f 888 906 878
f 906 907 889
f 878 906 889
f 889 907 890
f 894 890 907
f 891 889 890
f 891 890 896
f 879 895 892
f 895 1193 892
f 1193 893 892
f 890 894 896
f 896 894 1192
f 1192 894 1186
f 882 896 895
f 879 882 895
f 1184 772 996
f 779 1010 772
f 1004 897 1002
f 897 666 1002
f 1004 1013 897
f 885 897 898
f 898 899 885
f 885 899 886
f 899 900 886
f 899 1005 900
f 899 898 1005
f 900 991 886
f 908 781 902
f 781 904 902
f 905 906 903
f 905 903 904
f 902 904 903
f 888 903 906
f 902 903 901
f 905 904 773
f 906 905 907
f 907 905 773
f 773 777 907
f 907 777 894
f 908 1016 780
f 901 908 902
f 909 786 910
f 910 786 911
f 909 910 1009
f 917 1026 1025
f 912 1026 917
f 690 780 912
f 914 789 913
f 914 911 789
f 1018 911 914
f 917 1023 916
f 1023 917 1025
f 918 914 913
f 918 791 919
f 919 920 918
f 922 919 792
f 921 919 922
f 914 918 920
f 921 920 919
f 921 914 920
f 792 793 922
f 923 922 793
f 924 793 799
f 923 921 922
f 793 924 923
f 1033 921 923
f 923 1034 1033
f 924 799 794
f 1034 924 1032
f 1032 924 925
f 1034 923 924
f 925 924 794
f 925 794 926
f 1032 925 926
f 916 915 926
f 808 809 1036
f 1036 809 1035
f 809 807 1035
f 1035 807 941
f 935 927 808
f 808 1036 935
f 929 813 931
f 930 929 931
f 930 938 929
f 928 931 813
f 939 938 930
f 934 930 931
f 930 934 932
f 930 932 939
f 927 933 928
f 928 933 931
f 931 933 934
f 932 934 937
f 940 932 937
f 927 935 933
f 935 936 933
f 933 936 934
f 936 937 934
f 1038 936 935
f 936 1037 937
f 1037 1042 937
f 1042 940 937
f 820 938 942
f 939 942 938
f 939 932 940
f 939 940 945
f 942 939 945
f 940 948 945
f 940 1042 948
f 807 818 941
f 941 818 1052
f 1035 941 1052
f 943 944 822
f 944 826 822
f 945 943 942
f 950 826 944
f 943 946 944
f 945 946 943
f 946 952 944
f 952 950 944
f 948 946 945
f 949 947 946
f 947 952 946
f 948 949 946
f 949 1059 947
f 949 948 1050
f 818 817 957
f 817 956 957
f 818 957 958
f 1052 818 958
f 961 1060 1054
f 950 953 951
f 952 953 950
f 953 955 951
f 954 947 1059
f 947 954 952
f 954 953 952
f 954 1060 953
f 1060 955 953
f 1059 1060 954
f 961 955 1060
f 961 960 955
f 957 956 959
f 957 959 958
f 958 959 1062
f 959 970 964
f 1062 964 1063
f 959 964 1062
f 967 1064 966
f 955 968 828
f 960 968 955
f 960 969 968
f 962 967 969
f 960 962 969
f 1067 962 961
f 962 960 961
f 828 951 955
f 963 838 956
f 838 963 837
f 956 838 959
f 970 971 965
f 971 973 965
f 964 970 965
f 964 965 1063
f 1065 1063 965
f 967 966 832
f 1065 965 966
f 836 969 967
f 959 838 970
f 973 832 966
f 973 966 965
f 973 839 832
f 838 975 972
f 838 972 970
f 972 976 974
f 971 970 972
f 974 971 972
f 976 846 974
f 973 971 974
f 975 844 977
f 838 844 975
f 972 975 976
f 975 977 976
f 978 977 862
f 977 978 979
f 976 977 979
f 980 976 979
f 976 851 845
f 851 980 863
f 976 980 851
f 991 981 862
f 978 862 981
f 981 985 978
f 983 978 985
f 980 979 983
f 982 980 983
f 979 978 983
f 980 982 863
f 984 871 987
f 981 991 1068
f 981 1068 985
f 1068 983 985
f 983 1070 982
f 863 982 1070
f 863 992 993
f 872 986 987
f 987 986 997
f 987 997 989
f 984 987 989
f 984 988 873
f 984 990 988
f 990 1001 988
f 990 984 989
f 1106 1073 991
f 863 1070 992
f 995 992 1085
f 993 992 995
f 994 995 1008
f 993 995 994
f 986 996 997
f 996 772 1010
f 989 997 998
f 990 989 999
f 999 1001 990
f 999 989 998
f 998 1072 999
f 997 1000 998
f 996 1000 997
f 873 1003 1002
f 873 988 1003
f 1001 1003 988
f 999 1088 1001
f 1003 1004 1002
f 1001 1004 1003
f 1004 1001 1093
f 1097 898 897
f 1013 1097 897
f 1097 1014 898
f 1014 1005 898
f 1006 991 900
f 900 1005 1006
f 1006 1103 1007
f 1006 1005 1103
f 1103 1005 1014
f 1007 991 1006
f 1106 1007 1103
f 1106 991 1007
f 1084 995 1085
f 1115 901 1084
f 1084 901 1008
f 901 903 1008
f 1008 995 1084
f 779 909 1009
f 779 1009 1010
f 1010 1009 1012
f 1009 1017 1012
f 996 1010 1011
f 996 1011 1000
f 1000 1011 1087
f 1011 1012 1090
f 1011 1010 1012
f 1004 1095 1013
f 1093 1095 1004
f 1095 1097 1013
f 1015 1027 1016
f 1111 1028 1015
f 1015 1016 1113
f 1016 901 1115
f 1016 908 901
f 910 1017 1009
f 1017 910 911
f 1017 1018 1019
f 1018 1017 911
f 1019 1018 1020
f 1018 1029 1020
f 1020 1029 1118
f 1118 1030 1119
f 926 1022 1107
f 1023 1107 1022
f 915 916 1023
f 1024 1107 1023
f 1023 1025 1024
f 1111 1024 1025
f 1111 1025 1028
f 1028 1025 1026
f 1026 912 1027
f 1027 1028 1026
f 780 1027 912
f 1028 1027 1015
f 780 1016 1027
f 1029 1018 914
f 1029 914 921
f 921 1033 1029
f 1029 1033 1030
f 1118 1029 1030
f 1030 1034 1031
f 1030 1031 1122
f 1034 1032 1031
f 1032 1021 1031
f 915 1022 926
f 1023 1022 915
f 1033 1034 1030
f 1038 935 1036
f 1037 936 1038
f 1036 1039 1038
f 1038 1039 1041
f 1038 1041 1040
f 1037 1038 1040
f 1036 1035 1039
f 1039 1035 1044
f 1042 1037 1040
f 1041 1039 1044
f 1048 1035 1053
f 1041 1043 1040
f 1049 1042 1040
f 1043 1049 1040
f 1044 1043 1041
f 1044 1035 1048
f 1043 1045 1049
f 1049 1045 1050
f 1045 1046 1051
f 1046 1055 1051
f 1051 1055 1061
f 1044 1047 1043
f 1044 1048 1047
f 1045 1043 1047
f 1045 1047 1046
f 1047 1048 1057
f 1047 1057 1046
f 1049 948 1042
f 1051 1059 1050
f 1050 1059 949
f 1061 1059 1051
f 948 1049 1050
f 1045 1051 1050
f 958 1062 1053
f 1052 958 1053
f 1053 1062 1063
f 1053 1035 1052
f 1053 1063 1058
f 1058 1063 1066
f 1055 1054 1061
f 1067 961 1054
f 1056 1054 1055
f 1058 1066 1056
f 1067 1054 1056
f 1056 1066 1064
f 1064 1067 1056
f 1055 1046 1057
f 1048 1053 1058
f 1048 1058 1057
f 1056 1055 1057
f 1057 1058 1056
f 1061 1060 1059
f 1061 1054 1060
f 1065 966 1064
f 1063 1065 1066
f 1065 1064 1066
f 1064 967 962
f 1064 962 1067
f 983 1068 1069
f 1068 991 1073
f 1070 983 1069
f 1070 1080 1071
f 992 1070 1071
f 992 1071 1085
f 1087 998 1000
f 998 1087 1072
f 1088 999 1072
f 1093 1001 1088
f 1074 1106 1075
f 1106 1108 1075
f 1074 1073 1106
f 1074 1076 1073
f 1076 1074 1075
f 1068 1073 1076
f 1076 1077 1078
f 1076 1075 1077
f 1075 1108 1077
f 1108 1110 1077
f 1076 1078 1068
f 1068 1078 1069
f 1078 1077 1079
f 1077 1110 1079
f 1079 1110 1112
f 1079 1112 1114
f 1078 1079 1083
f 1079 1114 1083
f 1081 1086 1085
f 1080 1070 1069
f 1071 1080 1085
f 1081 1085 1080
f 1080 1082 1081
f 1082 1083 1081
f 1083 1114 1081
f 1081 1114 1086
f 1069 1078 1082
f 1080 1069 1082
f 1078 1083 1082
f 1115 1084 1086
f 1086 1084 1085
f 1090 1087 1011
f 1012 1017 1019
f 1072 1087 1089
f 1072 1089 1088
f 1087 1090 1089
f 1089 1090 1091
f 1090 1092 1091
f 1090 1012 1092
f 1091 1092 1116
f 1012 1019 1092
f 1094 1089 1091
f 1096 1093 1088
f 1089 1094 1088
f 1094 1091 1117
f 1091 1116 1117
f 1093 1096 1095
f 1096 1098 1095
f 1088 1094 1096
f 1096 1094 1099
f 1099 1094 1120
f 1095 1098 1097
f 1096 1099 1098
f 1100 1103 1014
f 1014 1097 1100
f 1100 1097 1098
f 1101 1100 1098
f 1098 1099 1101
f 1101 1102 1105
f 1099 1120 1102
f 1099 1102 1101
f 1104 1103 1100
f 1101 1104 1100
f 1104 1101 1105
f 1104 1105 1106
f 1106 1105 1108
f 1105 1102 1124
f 1105 1124 1108
f 1124 1123 1108
f 1103 1104 1106
f 1108 1123 1107
f 1108 1107 1109
f 1024 1109 1107
f 1111 1109 1024
f 1110 1108 1109
f 1109 1111 1112
f 1112 1110 1109
f 1114 1112 1111
f 1113 1111 1015
f 1114 1115 1086
f 1114 1111 1113
f 1114 1113 1115
f 1016 1115 1113
f 1092 1019 1116
f 1116 1019 1020
f 1020 1118 1116
f 1118 1119 1116
f 1119 1122 1120
f 1119 1030 1122
f 1117 1116 1119
f 1117 1120 1094
f 1120 1117 1119
f 1121 1122 1031
f 1121 1031 1021
f 1121 1120 1122
f 1124 1120 1121
f 1121 1123 1124
f 1123 1121 1021
f 1120 1124 1102
f 1123 1021 1032
f 1107 1123 1032
f 1107 1032 926
