o FMA10951_BP10311_FJ3441
v -24.4056 -114.264 1102.17
v -24.3927 -115.233 1101.86
v -24.3704 -113.322 1103.19
v -24.7103 -114.811 1106.49
v -24.7493 -112.997 1109.64
v -24.3928 -111.534 1110.24
v -24.5318 -110.796 1117.7
v -25.3279 -113.785 1118.17
v -25.4719 -114.794 1120.03
v -25.4293 -115.833 1120.1
v -25.1424 -112.708 1117.82
v -25.2987 -116.89 1120.79
v -24.9428 -117.914 1118.91
v -24.6529 -118.835 1119.79
v -24.7783 -110.917 1122.22
v -25.1045 -111.856 1122
v -24.3616 -109.983 1123.91
v -25.441 -112.877 1124.15
v -25.6171 -113.934 1124.96
v -25.1776 -118.011 1125.01
v -25.7321 -115.113 1127.29
v -25.5878 -116.548 1126.33
v -25.0764 -118.786 1130.62
v -25.2087 -111.308 1133.13
v -25.6963 -113.144 1132.14
v -25.6303 -117.159 1132.67
v -24.7494 -120.015 1139.01
v -25.2084 -110.706 1144.11
v -25.7293 -112.156 1144.76
v -26.0419 -114.087 1143.21
v -26.0426 -115.982 1143.65
v -26.005 -113.153 1146.95
v -25.6366 -118.131 1144.15
v -24.2077 -108.838 1146.59
v -24.885 -109.862 1147.67
v -26.2979 -114.96 1154.2
v -24.8527 -120.752 1159.17
v -26.16 -117.825 1165.92
v -25.8112 -119.06 1167.43
v -25.2008 -120.583 1171.15
v -26.3743 -112.644 1173.44
v -25.9249 -111.189 1173.23
v -26.6091 -114.165 1173.99
v -26.5727 -116.167 1172.28
v -26.6493 -113.506 1184.7
v -25.4034 -109.693 1184.98
v -25.3648 -110.296 1189.39
v -24.7688 -108.643 1184.52
v -24.9028 -109.29 1189.4
v -24.1304 -107.761 1187.75
v -24.1883 -107.804 1189.43
v -24.5459 -108.358 1189.26
v -26.7874 -114.036 1186.8
v -26.2966 -111.683 1186.39
v -26.5786 -112.645 1187.3
v -26.2976 -111.676 1188.31
v -26.7393 -113.639 1188.27
v -26.5639 -112.665 1188.77
v -26.3717 -112.133 1189.28
v -26.5133 -112.69 1189.32
v -26.6867 -113.632 1189.25
v -25.8507 -110.582 1187.95
v -26.0389 -111.177 1188.85
v -25.9171 -111.239 1189.37
v -25.6593 -111.19 1189.68
v -26.8256 -115.026 1186.39
v -26.7194 -116.566 1185.99
v -26.8223 -114.635 1188.19
v -26.7825 -114.64 1189.2
v -26.7833 -116.097 1189.07
v -26.5467 -117.631 1189.03
v -26.3832 -118.193 1186.12
v -26.1961 -118.691 1189
v -25.6876 -120.055 1184.93
v -25.6806 -120.075 1187.52
v -25.8638 -119.313 1189.04
v -25.3234 -120.716 1188.05
v -25.1667 -121.054 1186.19
v -24.7653 -121.71 1187.96
v -25.1104 -120.75 1189.02
v -24.7047 -109.713 1189.89
v -24.3245 -108.378 1189.94
v -24.6587 -110.364 1190.09
v -26.4585 -113.209 1189.78
v -26.6412 -114.181 1189.73
v -26.1943 -112.246 1189.81
v -26.3232 -114.228 1190.13
v -25.4667 -111.195 1189.85
v -25.6818 -111.447 1189.85
v -25.666 -112.219 1190.28
v -25.757 -112.823 1190.38
v -25.1874 -111.72 1190.22
v -26.7184 -115.177 1189.7
v -26.7299 -116.16 1189.69
v -26.6983 -116.713 1189.64
v -26.3881 -115.68 1190.1
v -26.4719 -117.662 1189.66
v -26.3299 -118.199 1189.59
v -26.2979 -116.717 1190.13
v -25.8208 -114.721 1190.51
v -25.9278 -116.291 1190.5
v -26.0014 -117.693 1190.27
v -26.0265 -118.189 1190.07
v -25.3488 -116.2 1190.52
v -25.4628 -117.695 1190.42
v -25.4716 -118.263 1190.3
v -26.0404 -118.752 1189.59
v -25.5466 -118.755 1190.04
v -25.5544 -119.262 1189.7
v -25.079 -120.284 1189.54
v -25.0525 -119.172 1190.08
v -24.7183 -119.831 1190.05
v -22.9529 -111.042 1095.6
v -22.6319 -110.577 1094.97
v -22.1281 -109.648 1095.62
v -22.607 -110.434 1095.43
v -22.1064 -110.105 1095.02
v -21.532 -108.917 1095.62
v -20.7948 -108.132 1095.69
v -20.3492 -108.588 1094.99
v -23.9647 -114.068 1097.16
v -24.0001 -115.059 1096.82
v -23.3547 -112.08 1095.57
v -23.7683 -114.556 1095.28
v -23.694 -113.108 1095.91
v -22.9946 -113.804 1095.03
v -23.8609 -116.08 1096.12
v -23.5931 -117.576 1095.95
v -22.9654 -118.746 1095.15
v -23.4049 -118.592 1097.82
v -22.3475 -118.109 1095.05
v -22.2487 -120.651 1096.82
v -21.6414 -121.136 1095.25
v -21.2961 -120.986 1095.04
v -20.9296 -122.156 1096.32
v -20.9994 -107.632 1101.14
v -20.4309 -107.368 1099.27
v -23.5532 -111.24 1100.61
v -22.8079 -110.194 1098.3
v -22.3468 -109.263 1099.68
v -21.4824 -108.3 1099.32
v -23.9012 -112.666 1099.27
v -20.4994 -107.004 1103.61
v -23.6814 -110.855 1103.98
v -22.9542 -109.817 1101.97
v -22.2894 -108.814 1102.4
v -24.2047 -112.273 1104.1
v -24.4461 -116.806 1105.48
v -21.4771 -107.41 1108.55
v -23.4496 -109.95 1106.9
v -22.7347 -108.98 1105.74
v -22.8854 -108.956 1107.97
v -21.9964 -108.04 1106.63
v -22.2208 -108.087 1108.74
v -20.432 -106.404 1111.68
v -22.5689 -121.171 1110.04
v -21.1686 -122.536 1110.21
v -22.6297 -107.855 1119.26
v -21.5503 -106.893 1118.58
v -20.3777 -106.046 1118.78
v -22.2345 -121.969 1115.31
v -23.7694 -109.343 1118.27
v -23.0299 -108.361 1117.93
v -23.4385 -121.003 1120.38
v -21.3579 -123.021 1119.3
v -24.2434 -120.025 1123.88
v -23.6236 -121.093 1124.94
v -22.736 -122.142 1125.28
v -24.6113 -119.931 1132.3
v -24.1038 -120.813 1132.38
v -23.3351 -121.856 1132.64
v -22.3724 -122.954 1136.04
v -21.3216 -123.735 1133.98
v -23.803 -121.522 1138.87
v -23.2541 -107.689 1147.77
v -20.2816 -105.314 1147.64
v -21.3035 -105.872 1152.23
v -23.7713 -122.269 1159.04
v -22.8515 -123.415 1165.66
v -24.5487 -121.628 1170.88
v -23.7244 -122.72 1173.03
v -22.2763 -124.048 1171.52
v -23.3114 -123.399 1184.32
v -22.9085 -106.763 1189.46
v -22.2558 -105.933 1189.35
v -21.8579 -105.643 1186.07
v -21.8284 -105.602 1189.46
v -21.3259 -105.454 1189.57
v -20.8852 -105.18 1188.96
v -19.9187 -104.525 1185.89
v -20.3399 -105.058 1189.58
v -23.954 -107.582 1189.44
v -23.1375 -106.766 1186.03
v -23.4685 -107.185 1188.94
v -23.4627 -107.349 1189.61
v -24.3901 -122.234 1186.62
v -24.3641 -122.254 1188.44
v -24.6393 -121.741 1188.93
v -24.239 -122.3 1189.06
v -23.8454 -122.85 1188.31
v -23.7336 -122.881 1188.96
v -22.3512 -124.291 1186.95
v -22.4094 -124.213 1188.39
v -22.3858 -124.15 1188.93
v -21.8701 -124.662 1187.92
v -21.4118 -124.928 1188.34
v -21.8535 -124.595 1188.86
v -21.3377 -124.983 1184.98
v -21.3732 -124.996 1187.36
v -21.305 -124.913 1188.85
v -21.8716 -105.933 1190
v -21.8592 -106.455 1190.31
v -20.9177 -105.685 1190.02
v -20.8887 -105.978 1190.28
v -20.8881 -106.539 1190.42
v -23.9793 -107.847 1189.96
v -24.0076 -108.331 1190.26
v -24.0588 -108.945 1190.33
v -23.4543 -107.834 1190.15
v -23.5308 -108.342 1190.37
v -23.4922 -108.914 1190.43
v -22.9661 -107.407 1189.98
v -22.424 -106.913 1190.07
v -22.5554 -107.906 1190.36
v -21.9637 -107.401 1190.4
v -22.0016 -108.397 1190.46
v -24.1826 -112.216 1190.44
v -22.7201 -118.168 1190.46
v -24.4632 -121.748 1189.48
v -24.5917 -118.81 1190.33
v -24.1901 -121.843 1189.8
v -24.0857 -122.322 1189.47
v -24.1178 -119.371 1190.39
v -24.1295 -120.364 1190.29
v -24.2137 -121.281 1190.05
v -23.7378 -122.355 1189.88
v -23.4785 -120.469 1190.43
v -23.6907 -121.337 1190.32
v -23.7065 -121.867 1190.19
v -23.2327 -122.394 1190.15
v -22.6173 -122.043 1190.38
v -22.6847 -122.534 1190.25
v -23.5701 -122.832 1189.46
v -23.2732 -122.857 1189.72
v -22.9424 -123.391 1189.44
v -22.7837 -122.931 1190.01
v -21.888 -124.4 1189.4
v -21.8968 -123.945 1189.9
v -21.3773 -124.453 1189.77
v -21.3677 -124.721 1189.39
v -21.3864 -123.921 1190.15
v -19.6558 -107.253 1095.63
v -18.9534 -107.263 1094.99
v -18.9011 -106.805 1095.54
v -18.4279 -106.791 1095.01
v -17.9185 -106.342 1095.65
v -16.9037 -106.368 1094.97
v -17.2614 -107.704 1094.98
v -16.8806 -105.955 1095.8
v -16.3777 -105.884 1095
v -19.9783 -107.713 1095.04
v -19.9632 -122.513 1095.08
v -19.431 -122.608 1095.05
v -19.2998 -123.428 1095.38
v -18.9393 -123.119 1095.06
v -18.4177 -123.195 1095.04
v -18.3257 -123.948 1095.36
v -17.7988 -123.86 1095.09
v -17.1304 -123.762 1095.04
v -19.9191 -106.832 1100.99
v -18.9438 -106.505 1098.44
v -18.8998 -106.222 1101.42
v -17.8566 -105.91 1099.9
v -16.9482 -105.501 1102.08
v -16.2907 -105.481 1100.32
v -19.9148 -106.457 1105.78
v -19.4278 -106.372 1102.97
v -18.4201 -105.884 1103.28
v -18.1872 -124.005 1102.92
v -17.8463 -105.458 1107.07
v -18.871 -123.884 1109.43
v -19.3344 -105.708 1112.99
v -18.3521 -105.287 1112.91
v -17.4519 -105.008 1113.1
v -16.3244 -104.836 1112.52
v -17.3478 -124.455 1111.64
v -18.8768 -105.342 1117.25
v -17.7251 -104.935 1118.47
v -20.3362 -123.802 1120.62
v -17.8332 -124.803 1120.56
v -19.3156 -124.39 1122.35
v -20.3521 -124.415 1136.56
v -18.4547 -125.214 1137.39
v -19.2461 -104.775 1151.62
v -16.3532 -104.066 1152.32
v -17.3334 -126.049 1164.13
v -20.3601 -125.144 1165.87
v -18.905 -125.742 1166.36
v -18.5474 -104.081 1189.61
v -17.7955 -103.803 1187.24
v -20.5173 -125.429 1187.86
v -20.4488 -125.5 1186.84
v -19.9349 -125.708 1185.15
v -19.925 -125.731 1187.32
v -19.8535 -125.64 1188.38
v -18.9674 -126.058 1186.68
v -17.9662 -126.298 1185.38
v -17.9978 -126.285 1188.7
v -19.4397 -105.98 1190.37
v -18.8064 -105.508 1190.25
v -18.4515 -106.445 1190.44
v -17.7527 -104.219 1190.03
v -16.1874 -104.293 1190.31
v -20.7618 -124.978 1189.37
v -20.8329 -124.585 1189.89
v -20.2938 -124.068 1190.3
v -18.977 -125.675 1189.36
v -19.0222 -125.099 1189.97
v -18.4244 -125.62 1189.79
v -18.1314 -126.094 1189.35
v -18.4362 -125.113 1190.14
v -18.5348 -123.952 1190.42
v -17.8225 -125.176 1190.23
v -17.9047 -125.662 1189.99
v -17.3955 -126.328 1189.32
v -17.4189 -125.991 1189.83
v -15.8426 -105.601 1097.42
v -14.3647 -105.631 1095.72
v -12.87 -105.743 1095.73
v -12.6524 -106.088 1094.94
v -16.933 -124.42 1095.56
v -16.3016 -124.428 1095.17
v -15.8619 -124.702 1095.34
v -14.8661 -124.809 1095.34
v -14.4116 -124.512 1095.07
v -13.7421 -124.035 1095.02
v -14.8519 -105.434 1098.56
v -13.8005 -105.467 1098.45
v -13.9776 -105.282 1102.31
v -15.3683 -105.105 1105.44
v -16.3484 -124.502 1104.03
v -14.3557 -124.637 1102.97
v -13.2768 -124.518 1104.38
v -13.8972 -124.597 1109.73
v -15.8224 -124.668 1110.99
v -15.2228 -104.667 1117.01
v -12.8456 -104.993 1115.16
v -16.8456 -124.799 1116.19
v -12.3294 -105.059 1121.13
v -15.9675 -125.016 1119.2
v -14.8764 -125.006 1118.69
v -13.3789 -125.324 1134.28
v -16.9406 -125.497 1135.75
v -15.855 -125.63 1137.65
v -14.3703 -125.579 1137.63
v -12.3067 -104.649 1141.97
v -14.2593 -104.198 1144.41
v -13.2662 -104.278 1147.87
v -16.3664 -126.14 1162.4
v -14.0319 -126.078 1164.49
v -15.8666 -126.245 1167.55
v -15.0489 -126.172 1163.98
v -14.9709 -126.254 1169.16
v -13.397 -126.266 1183.21
v -15.7081 -103.552 1187.71
v -14.3036 -103.858 1190.03
v -13.7399 -103.64 1186.39
v -13.7298 -103.679 1189.56
v -12.7807 -103.793 1189.03
v -12.2828 -103.954 1185.68
v -12.206 -103.963 1189.02
v -12.3348 -104.033 1189.62
v -12.2631 -104.457 1190.02
v -16.9852 -126.463 1188.01
v -15.9928 -126.538 1187.84
v -15.3869 -126.509 1185.42
v -14.9926 -126.524 1188.76
v -13.9229 -126.411 1188.62
v -14.2638 -105.391 1190.44
v -13.8491 -104.39 1190.33
v -12.8457 -104.342 1190.1
v -12.859 -104.922 1190.3
v -12.3065 -104.947 1190.25
v -16.9152 -125.719 1190.13
v -16.468 -126.216 1189.83
v -15.9689 -126.498 1189.3
v -15.9383 -125.233 1190.34
v -15.857 -125.782 1190.18
v -15.7927 -126.249 1189.85
v -14.508 -126.428 1189.34
v -14.3779 -125.324 1190.3
v -13.8565 -126.325 1189.35
v -13.9633 -125.854 1190.06
v -13.9677 -126.114 1189.81
v -13.4265 -123.791 1190.46
v -11.8868 -105.952 1095.59
v -11.3419 -106.16 1095
v -11.1016 -106.203 1095.57
v -10.9102 -106.648 1094.98
v -10.7137 -107.997 1094.96
v -9.90127 -106.736 1094.98
v -8.94286 -107.324 1096.07
v -8.96705 -107.786 1094.96
v -8.46782 -107.814 1095.01
v -9.96223 -123.779 1095.39
v -10.1934 -122.849 1095.03
v -9.15022 -123.322 1095.4
v -12.8586 -124.719 1095.35
v -11.9158 -124.172 1095.05
v -11.8582 -124.506 1095.36
v -10.9572 -124.213 1095.37
v -11.8812 -105.796 1099.39
v -10.3485 -123.735 1099.44
v -11.8284 -124.164 1104.45
v -9.33421 -123.021 1102.14
v -11.8727 -124.166 1111.38
v -8.4374 -107.482 1111.86
v -12.8434 -124.426 1110.39
v -10.7884 -123.667 1109.65
v -9.73754 -123.095 1112.02
v -8.7474 -122.309 1109.05
v -9.79711 -106.377 1113.81
v -11.3496 -105.476 1117.9
v -9.95775 -106.117 1125.94
v -8.55894 -107.137 1127.54
v -10.3982 -105.533 1138.19
v -9.3428 -106.222 1136.79
v -8.38286 -107.012 1136.14
v -12.3634 -125.164 1138.53
v -11.3253 -124.705 1136.66
v -10.363 -124.326 1141.04
v -7.96444 -107.137 1147.44
v -12.9374 -125.62 1151
v -11.8733 -125.29 1150.98
v -12.473 -125.837 1169.27
v -11.4112 -125.496 1171.55
v -9.82346 -124.695 1171.75
v -10.777 -104.577 1181.2
v -8.89591 -105.666 1179.86
v -11.7815 -104.322 1189.6
v -11.2955 -104.272 1187.47
v -11.0948 -104.45 1188.63
v -11.1989 -104.714 1189.6
v -10.3026 -104.721 1187.51
v -10.3654 -105.526 1190.04
v -9.86955 -105.136 1189.05
v -9.89038 -105.293 1189.6
v -9.83156 -105.577 1189.89
v -9.32158 -105.277 1186.83
v -9.34871 -105.302 1188.1
v -9.12948 -105.568 1189.04
v -9.34394 -105.576 1189.57
v -8.49731 -106.121 1189.54
v -8.39186 -105.963 1188.11
v -8.39329 -106.647 1189.88
v -12.4985 -126.04 1188.83
v -11.9809 -125.932 1186.9
v -11.8408 -125.786 1188.79
v -10.3936 -125.237 1186.76
v -10.4229 -125.142 1188.86
v -9.86936 -124.911 1188.41
v -9.44517 -124.569 1188.9
v -9.33687 -124.6 1187.92
v -8.8644 -124.11 1188.9
v -11.8794 -105.935 1190.43
v -11.3706 -105.417 1190.19
v -10.4169 -106.099 1190.44
v -9.87583 -106.079 1190.34
v -9.89974 -107.034 1190.43
v -9.27952 -106.086 1190.04
v -9.39809 -106.604 1190.27
v -8.8138 -106.625 1190.04
v -8.12792 -107.126 1190.02
v -8.43615 -107.132 1190.12
v -10.3445 -108.195 1190.47
v -8.95886 -107.565 1190.35
v -10.1805 -122.6 1190.49
v -9.20935 -122.651 1190.33
v -12.4682 -125.887 1189.39
v -12.4279 -124.956 1190.1
v -11.4932 -125.016 1189.87
v -11.7737 -124.038 1190.44
v -11.3807 -125.408 1189.36
v -11.3342 -124.525 1190.2
v -10.432 -125.025 1189.42
v -10.3685 -124.079 1190.38
v -10.3703 -124.672 1189.91
v -10.4428 -123.589 1190.48
v -9.87366 -124.755 1189.38
v -9.79579 -123.559 1190.36
v -9.80758 -124.083 1190.22
v -9.82236 -124.444 1189.89
v -9.32104 -124.086 1189.8
v -9.33848 -124.348 1189.42
v -7.5215 -108.864 1094.97
v -7.62086 -108.409 1096.68
v -7.20323 -109.787 1094.96
v -6.57536 -109.918 1095.04
v -6.61602 -109.596 1096.4
v -6.29981 -110.788 1095.01
v -6.32464 -111.263 1094.99
v -6.11323 -110.37 1096.35
v -5.87095 -111.798 1095.01
v -5.58241 -111.451 1095.72
v -5.26063 -112.332 1096.16
v -5.8499 -112.34 1094.99
v -5.25528 -112.982 1095.06
v -5.45142 -114.006 1094.99
v -5.00479 -113.014 1095.27
v -4.90066 -115.525 1095.08
v -4.80101 -114.276 1095.23
v -4.82518 -115.531 1096.46
v -7.46154 -119.13 1094.98
v -6.07411 -119.461 1094.98
v -6.10027 -119.96 1094.96
v -5.78328 -119.51 1095.73
v -6.11091 -120.163 1095.52
v -5.49036 -117.408 1094.99
v -5.54862 -118.988 1094.98
v -5.33851 -118.001 1095.1
v -5.22105 -118.07 1095.84
v -5.58887 -119.051 1096.11
v -4.82897 -116.526 1095.15
v -7.94814 -122.329 1095.92
v -6.6258 -120.434 1094.98
v -6.65198 -120.934 1094.98
v -6.73052 -120.981 1096.3
v -6.35664 -119.778 1102.82
v -5.8753 -118.728 1103.43
v -8.16819 -122.101 1101.99
v -7.19323 -121.078 1101.89
v -7.25504 -108.866 1108.92
v -5.99535 -111.027 1107.95
v -5.55293 -112.421 1108.94
v -5.3205 -113.486 1107.04
v -6.72058 -119.98 1108.98
v -7.72311 -121.359 1108.21
v -6.74174 -109.556 1113.56
v -5.7883 -111.582 1112.15
v -5.5259 -112.531 1113.1
v -5.45741 -116.624 1112.59
v -5.36109 -115.907 1110.31
v -6.21656 -118.978 1110.64
v -5.6552 -117.465 1110.33
v -7.87274 -121.525 1114.14
v -6.19942 -110.618 1114.47
v -5.3403 -113.643 1116.43
v -6.88687 -109.292 1119.68
v -6.7605 -120.29 1122.36
v -5.82927 -118.376 1122.5
v -5.41688 -116.883 1123.22
v -7.9837 -107.733 1126.06
v -5.70222 -111.535 1126.74
v -5.15431 -114.598 1126.91
v -5.12633 -115.627 1128.49
v -5.46183 -111.877 1132.16
v -7.18744 -108.325 1135.97
v -5.95934 -110.321 1135.13
v -5.05092 -112.973 1138.36
v -5.06025 -117.108 1138.84
v -4.88677 -116.116 1139.28
v -7.06186 -108.181 1145.1
v -6.42121 -109.14 1143.18
v -5.5331 -110.735 1146.46
v -5.23057 -118.098 1142.78
v -6.58023 -108.74 1149.03
v -4.6537 -114.953 1147.61
v -4.78222 -116.883 1149.51
v -6.66244 -121.131 1145.86
v -7.08752 -121.926 1153.3
v -6.12982 -120.601 1153.34
v -5.55097 -119.562 1154.72
v -8.76828 -123.554 1153.65
v -4.84183 -111.199 1173.01
v -7.30761 -122.663 1171.74
v -8.32103 -123.662 1173.16
v -4.40108 -112.757 1173.42
v -4.84327 -118.908 1176.54
v -6.42237 -121.69 1174.3
v -5.49882 -120.331 1177.13
v -7.87157 -106.452 1181.51
v -6.42052 -108.005 1182.73
v -6.18599 -121.548 1184.68
v -7.88178 -106.363 1186.73
v -7.81571 -106.79 1189.52
v -7.41779 -106.872 1188.03
v -6.69584 -107.618 1186.99
v -6.35406 -108.157 1188.48
v -6.21528 -108.7 1189.46
v -5.8814 -108.689 1187.41
v -5.9185 -108.71 1188.45
v -5.58859 -109.214 1188.46
v -5.96298 -108.755 1188.95
v -5.61268 -109.264 1188.98
v -5.76828 -109.254 1189.46
v -6.04459 -109.268 1189.85
v -5.3183 -109.693 1184.45
v -5.26745 -109.725 1187.89
v -5.31416 -109.771 1188.91
v -5.44059 -109.773 1189.44
v -5.21139 -110.328 1189.39
v -4.80461 -110.737 1187.04
v -5.08294 -110.157 1188.42
v -5.09905 -110.271 1188.95
v -4.90425 -110.843 1188.84
v -4.44872 -111.796 1185.96
v -4.46475 -111.834 1187.88
v -4.48945 -112.287 1188.85
v -4.75521 -112.187 1189.41
v -4.48995 -112.838 1189.33
v -4.74505 -112.8 1189.64
v -4.90339 -119.295 1187.13
v -4.58167 -118.304 1188.15
v -4.9737 -119.285 1188.58
v -4.49495 -117.366 1189.16
v -4.92581 -118.79 1189.11
v -7.8275 -123.136 1188.97
v -7.40776 -123.013 1185.46
v -7.51126 -123.124 1187.47
v -7.78606 -123.26 1188.44
v -7.38158 -122.651 1189.01
v -7.22359 -122.672 1188.47
v -6.29002 -121.719 1187.49
v -6.4017 -121.721 1188.52
v -6.18787 -121.25 1189.04
v -6.72278 -121.904 1189.01
v -6.00947 -121.203 1188.52
v -5.81851 -120.748 1189.06
v -5.34134 -120.244 1186.24
v -5.664 -120.823 1187.02
v -5.33848 -120.239 1187.55
v -5.6583 -120.772 1188.02
v -5.40554 -120.252 1188.54
v -5.25623 -119.758 1189.09
v -5.49949 -120.258 1189.09
v -8.81215 -124.236 1186.23
v -8.3292 -123.834 1187.96
v -8.29851 -123.621 1188.87
v -7.99273 -107.633 1190.23
v -8.03898 -108.215 1190.44
v -7.99105 -109.698 1190.48
v -7.48606 -108.189 1190.17
v -7.02862 -109.244 1190.29
v -6.5833 -109.129 1190.1
v -6.62262 -110.357 1190.51
v -5.73808 -109.755 1189.91
v -6.08469 -109.75 1190.23
v -6.10777 -110.306 1190.45
v -5.52023 -110.324 1189.91
v -5.6289 -111.334 1190.17
v -6.15911 -111.722 1190.45
v -6.67014 -113.208 1190.45
v -5.69787 -112.323 1190.28
v -5.5609 -113.304 1190.31
v -5.11671 -112.308 1189.86
v -5.20027 -112.842 1190.05
v -5.30141 -114.408 1190.31
v -4.64141 -113.321 1189.8
v -4.79806 -113.808 1190.09
v -6.29052 -118.114 1190.43
v -5.56075 -118.856 1190.1
v -5.26792 -119.29 1189.61
v -4.76102 -117.312 1189.7
v -5.04519 -118.315 1189.66
v -8.82519 -123.2 1189.99
v -8.28019 -123.28 1189.46
v -8.6708 -120.785 1190.46
v -8.22631 -121.724 1190.41
v -8.26065 -122.661 1189.99
v -7.71721 -122.178 1189.96
v -7.75414 -122.734 1189.48
v -7.67859 -121.19 1190.32
v -7.21234 -122.126 1189.5
v -7.72946 -120.185 1190.44
v -7.17362 -120.734 1190.28
v -7.12396 -121.265 1190.04
v -6.50087 -121.266 1189.54
v -7.19897 -119.691 1190.53
v -6.63686 -120.262 1190.36
v -6.59373 -120.761 1190.04
v -5.7028 -120.289 1189.57
v -6.1491 -120.872 1189.55
v -5.72803 -119.786 1190.06
v -6.10915 -119.745 1190.44
v -6.12625 -120.349 1190.06
v -5.43481 -119.813 1189.57
v -8.80886 -123.833 1189.44
v -4.2179 -114.307 1172.35
v -4.28482 -116.792 1175.8
v -4.55556 -117.896 1173.98
v -3.96953 -115.274 1186.59
v -4.05315 -113.72 1187.06
v -4.19672 -113.279 1188.79
v -4.26757 -113.441 1189.33
v -4.01814 -114.37 1189.2
v -4.0469 -116.317 1187
v -4.22796 -117.252 1186.69
v -4.49367 -118.204 1186.31
v -4.2774 -117.303 1188.12
v -3.99881 -115.81 1189.08
v -4.13021 -116.373 1189.14
v -4.29311 -113.874 1189.85
v -4.13865 -114.406 1189.76
v -4.34164 -114.418 1189.96
v -4.12206 -115.773 1189.7
v -4.46307 -115.898 1189.99
v -4.2838 -116.39 1189.68
v -25.757 -112.823 1190.38
v -26.7299 -116.16 1189.69
v -26.6983 -116.713 1189.64
v -25.8208 -114.721 1190.51
v -22.6319 -110.577 1094.97
v -22.1064 -110.105 1095.02
v -23.7683 -114.556 1095.28
v -23.7683 -114.556 1095.28
v -23.8609 -116.08 1096.12
v -23.5931 -117.576 1095.95
v -22.9654 -118.746 1095.15
v -22.9654 -118.746 1095.15
v -22.3475 -118.109 1095.05
v -21.6414 -121.136 1095.25
v -20.3399 -105.058 1189.58
v -24.0076 -108.331 1190.26
v -18.9534 -107.263 1094.99
v -18.4279 -106.791 1095.01
v -16.9037 -106.368 1094.97
v -16.3777 -105.884 1095
v -16.3777 -105.884 1095
v -19.9783 -107.713 1095.04
v -19.9632 -122.513 1095.08
v -19.9632 -122.513 1095.08
v -19.2998 -123.428 1095.38
v -18.3257 -123.948 1095.36
v -17.1304 -123.762 1095.04
v -18.5474 -104.081 1189.61
v -17.7527 -104.219 1190.03
v -16.1874 -104.293 1190.31
v -12.6524 -106.088 1094.94
v -16.933 -124.42 1095.56
v -15.8619 -124.702 1095.34
v -14.8661 -124.809 1095.34
v -14.3036 -103.858 1190.03
v -11.3419 -106.16 1095
v -11.3419 -106.16 1095
v -11.1016 -106.203 1095.57
v -11.1016 -106.203 1095.57
v -10.9102 -106.648 1094.98
v -10.9102 -106.648 1094.98
v -9.90127 -106.736 1094.98
v -9.90127 -106.736 1094.98
v -8.94286 -107.324 1096.07
v -8.96705 -107.786 1094.96
v -8.96705 -107.786 1094.96
v -8.46782 -107.814 1095.01
v -8.46782 -107.814 1095.01
v -9.96223 -123.779 1095.39
v -9.15022 -123.322 1095.4
v -12.8586 -124.719 1095.35
v -11.8582 -124.506 1095.36
v -10.9572 -124.213 1095.37
v -7.5215 -108.864 1094.97
v -6.57536 -109.918 1095.04
v -6.29981 -110.788 1095.01
v -6.29981 -110.788 1095.01
v -6.32464 -111.263 1094.99
v -6.32464 -111.263 1094.99
v -5.87095 -111.798 1095.01
v -5.58241 -111.451 1095.72
v -5.26063 -112.332 1096.16
v -5.8499 -112.34 1094.99
v -5.8499 -112.34 1094.99
v -5.25528 -112.982 1095.06
v -5.25528 -112.982 1095.06
v -5.00479 -113.014 1095.27
v -5.00479 -113.014 1095.27
v -4.90066 -115.525 1095.08
v -4.80101 -114.276 1095.23
v -6.07411 -119.461 1094.98
v -6.07411 -119.461 1094.98
v -6.10027 -119.96 1094.96
v -5.78328 -119.51 1095.73
v -6.11091 -120.163 1095.52
v -5.54862 -118.988 1094.98
v -5.54862 -118.988 1094.98
v -5.54862 -118.988 1094.98
v -5.33851 -118.001 1095.1
v -4.82897 -116.526 1095.15
v -6.6258 -120.434 1094.98
v -6.6258 -120.434 1094.98
v -6.65198 -120.934 1094.98
v -6.65198 -120.934 1094.98
v -4.13865 -114.406 1189.76
v -4.12206 -115.773 1189.7
f 121 1 3
f 1 4 3
f 1 2 4
f 147 3 5
f 3 4 5
f 147 5 6
f 2 148 4
f 4 148 10
f 11 7 6
f 4 10 9
f 6 5 11
f 4 8 5
f 4 9 8
f 5 8 11
f 7 11 16
f 7 16 15
f 15 17 7
f 162 7 17
f 34 162 17
f 8 9 19
f 11 8 19
f 11 19 18
f 9 21 19
f 9 10 21
f 10 22 21
f 10 12 22
f 12 10 148
f 16 11 18
f 148 13 12
f 13 20 12
f 148 130 13
f 130 14 13
f 20 13 14
f 18 24 16
f 16 24 15
f 17 15 24
f 12 20 22
f 166 20 14
f 23 20 166
f 22 26 21
f 26 20 23
f 22 20 26
f 25 29 24
f 18 19 25
f 18 25 24
f 23 166 169
f 24 29 28
f 35 17 24
f 24 28 35
f 17 35 34
f 25 19 30
f 29 25 30
f 26 23 33
f 19 21 30
f 31 21 26
f 23 39 33
f 39 23 27
f 32 41 29
f 29 42 28
f 35 28 42
f 29 41 42
f 21 31 30
f 29 30 32
f 32 43 41
f 30 43 32
f 30 31 36
f 30 36 43
f 26 33 38
f 38 33 39
f 36 44 43
f 36 31 44
f 31 26 44
f 46 34 35
f 35 42 46
f 26 38 44
f 40 39 37
f 42 54 46
f 39 72 38
f 40 74 39
f 40 180 78
f 78 74 40
f 180 196 78
f 48 175 34
f 34 46 48
f 54 42 41
f 43 54 41
f 38 67 44
f 44 67 43
f 54 43 45
f 38 72 67
f 72 39 74
f 45 43 66
f 66 53 45
f 54 45 55
f 43 67 66
f 62 46 54
f 52 48 46
f 62 52 46
f 49 52 62
f 62 47 49
f 63 47 62
f 81 49 47
f 83 81 47
f 47 88 83
f 50 193 175
f 175 48 50
f 48 52 50
f 51 192 50
f 52 51 50
f 216 192 51
f 51 52 216
f 52 82 216
f 49 82 52
f 45 53 55
f 55 57 58
f 55 53 57
f 54 55 56
f 55 58 56
f 53 68 57
f 57 61 58
f 68 69 57
f 59 63 56
f 56 58 59
f 58 60 59
f 58 61 60
f 57 69 61
f 86 59 60
f 60 84 86
f 60 61 84
f 61 85 84
f 61 69 85
f 69 93 85
f 54 56 62
f 56 63 62
f 63 59 64
f 89 65 64
f 86 64 59
f 86 89 64
f 63 64 47
f 65 47 64
f 65 88 47
f 65 89 88
f 53 66 68
f 67 70 66
f 66 70 68
f 67 71 70
f 67 72 71
f 68 70 69
f 70 71 95
f 69 70 93
f 70 94 93
f 70 95 94
f 97 95 71
f 71 98 97
f 71 73 98
f 73 107 98
f 72 73 71
f 73 76 107
f 74 78 75
f 72 75 73
f 72 74 75
f 76 73 75
f 107 76 109
f 78 77 75
f 78 79 77
f 79 198 77
f 76 75 77
f 78 196 79
f 77 80 76
f 198 80 77
f 76 110 109
f 76 80 110
f 80 229 110
f 216 82 217
f 217 82 218
f 82 49 81
f 82 81 218
f 218 81 83
f 227 218 83
f 86 84 91
f 84 85 87
f 91 84 87
f 85 93 87
f 90 86 91
f 90 89 86
f 87 100 91
f 83 88 92
f 88 89 92
f 92 89 90
f 92 90 227
f 90 708 227
f 227 708 711
f 83 92 227
f 87 93 96
f 93 709 96
f 99 96 709
f 710 99 709
f 97 99 710
f 103 97 98
f 103 98 107
f 87 96 100
f 96 99 101
f 100 96 101
f 101 99 102
f 99 97 102
f 97 103 102
f 103 108 106
f 103 107 108
f 711 101 104
f 104 101 105
f 101 102 105
f 103 106 102
f 102 106 105
f 711 104 227
f 104 105 228
f 106 108 230
f 227 104 228
f 228 105 106
f 107 109 108
f 108 109 111
f 108 111 230
f 112 111 109
f 109 110 112
f 111 233 230
f 233 111 112
f 252 261 119
f 137 252 119
f 141 137 119
f 116 114 113
f 113 114 123
f 116 113 139
f 116 115 117
f 116 117 114
f 712 713 258
f 139 140 115
f 139 115 116
f 118 117 115
f 140 141 118
f 115 140 118
f 118 119 261
f 118 261 117
f 119 118 141
f 120 713 729
f 713 120 258
f 729 253 120
f 125 124 121
f 121 124 122
f 124 127 122
f 127 2 122
f 122 2 121
f 123 114 124
f 712 126 714
f 714 126 131
f 716 715 720
f 124 125 123
f 258 126 712
f 258 131 126
f 720 128 716
f 127 717 148
f 720 129 128
f 718 130 717
f 718 132 130
f 133 132 718
f 131 134 719
f 719 134 721
f 134 262 721
f 135 132 133
f 135 133 730
f 156 132 135
f 137 136 270
f 270 271 137
f 138 145 139
f 113 138 139
f 145 140 139
f 141 140 146
f 146 136 141
f 136 137 141
f 123 125 142
f 125 121 142
f 2 1 121
f 138 142 147
f 142 3 147
f 142 121 3
f 113 123 138
f 123 142 138
f 127 148 2
f 130 132 166
f 132 156 166
f 157 156 135
f 149 143 153
f 136 143 270
f 270 143 277
f 276 277 143
f 143 149 276
f 144 138 147
f 144 6 150
f 144 147 6
f 145 138 144
f 144 150 145
f 150 151 145
f 151 146 145
f 145 146 140
f 151 153 146
f 136 153 143
f 146 153 136
f 717 130 148
f 154 149 153
f 6 7 150
f 151 150 152
f 162 152 150
f 152 153 151
f 154 153 152
f 154 152 163
f 149 154 163
f 163 152 162
f 276 149 155
f 276 155 282
f 7 162 150
f 161 156 157
f 159 149 158
f 149 159 155
f 155 159 160
f 160 287 282
f 282 155 160
f 149 163 158
f 164 166 156
f 165 161 157
f 34 158 163
f 160 159 177
f 160 177 176
f 287 160 176
f 162 34 163
f 130 166 14
f 156 161 164
f 168 164 161
f 161 165 168
f 159 158 175
f 175 177 159
f 166 164 167
f 167 164 168
f 170 166 167
f 167 171 170
f 171 167 168
f 27 23 169
f 169 166 170
f 27 169 170
f 172 171 168
f 168 165 172
f 165 173 172
f 289 173 165
f 174 27 170
f 170 171 174
f 182 172 173
f 182 173 292
f 158 34 175
f 171 172 174
f 39 27 37
f 37 27 174
f 176 177 294
f 178 37 174
f 174 172 178
f 172 179 178
f 179 172 182
f 177 190 294
f 37 178 180
f 178 181 180
f 40 37 180
f 181 178 179
f 179 182 181
f 208 182 297
f 303 208 297
f 180 181 196
f 186 177 175
f 193 186 175
f 177 186 190
f 183 181 182
f 196 181 183
f 202 182 208
f 185 186 193
f 193 184 185
f 211 184 223
f 211 185 184
f 186 185 187
f 211 187 185
f 186 189 190
f 187 188 189
f 186 187 189
f 188 187 211
f 188 191 189
f 188 213 722
f 188 211 213
f 213 214 722
f 190 189 191
f 299 722 309
f 722 214 309
f 193 50 194
f 50 192 194
f 194 192 195
f 193 194 184
f 184 194 195
f 195 222 184
f 222 223 184
f 79 197 198
f 196 197 79
f 196 200 197
f 197 199 198
f 197 200 199
f 198 229 80
f 199 229 198
f 199 200 201
f 199 232 229
f 199 201 232
f 201 243 232
f 200 196 183
f 200 203 201
f 202 183 182
f 200 183 202
f 204 201 203
f 245 201 204
f 243 201 245
f 203 200 202
f 208 209 202
f 205 202 209
f 203 202 205
f 207 203 205
f 204 203 207
f 247 204 207
f 245 204 247
f 207 250 247
f 206 205 209
f 207 205 206
f 209 301 206
f 206 210 207
f 210 250 207
f 210 206 301
f 314 250 210
f 211 223 212
f 212 223 225
f 214 211 212
f 213 211 214
f 214 212 215
f 212 225 215
f 309 214 215
f 195 192 216
f 219 195 216
f 219 216 220
f 216 723 220
f 220 218 221
f 220 723 218
f 227 221 218
f 222 195 219
f 219 220 224
f 220 221 224
f 223 222 224
f 222 219 224
f 221 226 224
f 221 227 226
f 226 227 311
f 223 224 225
f 225 224 226
f 215 225 226
f 106 230 228
f 227 228 311
f 110 235 112
f 229 235 110
f 228 230 233
f 233 112 234
f 112 235 234
f 229 231 235
f 231 236 239
f 231 232 236
f 231 229 232
f 228 233 237
f 233 234 237
f 237 234 238
f 234 235 238
f 231 239 235
f 235 239 238
f 236 244 240
f 236 243 244
f 236 232 243
f 237 238 241
f 238 239 241
f 239 236 240
f 239 240 241
f 228 237 322
f 241 240 242
f 240 244 246
f 240 246 242
f 322 237 241
f 244 243 245
f 244 245 246
f 245 248 246
f 245 247 248
f 246 248 242
f 248 249 251
f 247 249 248
f 249 247 250
f 241 242 251
f 251 242 248
f 249 315 251
f 315 249 250
f 315 250 314
f 261 252 724
f 252 137 271
f 252 254 724
f 252 271 254
f 254 256 255
f 254 255 724
f 256 254 271
f 725 258 253
f 257 256 259
f 257 255 256
f 726 258 725
f 726 260 258
f 257 259 727
f 327 728 259
f 330 258 260
f 253 258 120
f 400 131 258
f 131 731 134
f 135 730 264
f 732 731 263
f 131 265 263
f 263 265 732
f 731 131 263
f 131 266 265
f 732 265 267
f 267 265 266
f 131 269 266
f 269 268 266
f 266 268 267
f 267 268 331
f 268 734 331
f 279 733 739
f 739 333 279
f 271 270 272
f 270 277 272
f 273 271 272
f 273 256 271
f 256 273 259
f 275 259 273
f 327 259 275
f 275 273 274
f 327 275 337
f 157 135 264
f 279 264 733
f 277 276 278
f 273 272 278
f 272 277 278
f 274 278 280
f 274 273 278
f 275 274 285
f 275 285 340
f 278 276 282
f 280 278 282
f 285 274 280
f 281 157 264
f 279 281 264
f 280 282 283
f 280 283 284
f 280 284 285
f 279 286 281
f 341 286 279
f 341 345 286
f 345 348 286
f 283 282 287
f 287 284 283
f 284 287 288
f 288 287 294
f 285 284 288
f 281 286 290
f 348 290 286
f 287 176 294
f 288 294 295
f 346 288 295
f 165 157 289
f 281 289 157
f 291 289 281
f 290 291 281
f 348 350 290
f 292 289 291
f 173 289 292
f 290 293 291
f 293 292 291
f 353 293 290
f 350 353 290
f 292 297 182
f 297 292 293
f 298 297 293
f 293 296 298
f 353 296 293
f 354 296 353
f 303 297 298
f 359 361 296
f 300 294 190
f 295 294 300
f 295 300 365
f 357 295 365
f 298 306 303
f 298 307 306
f 296 307 298
f 190 191 735
f 735 300 190
f 309 310 299
f 310 312 299
f 736 365 300
f 302 208 303
f 209 208 302
f 301 209 302
f 302 304 301
f 301 304 305
f 305 210 301
f 303 304 302
f 306 304 303
f 306 305 304
f 314 210 305
f 314 305 317
f 306 308 305
f 307 308 306
f 305 320 317
f 320 305 308
f 296 374 307
f 374 308 307
f 374 325 308
f 325 320 308
f 309 215 311
f 312 310 311
f 310 309 311
f 300 735 736
f 313 365 736
f 312 311 737
f 737 311 379
f 215 226 311
f 322 241 316
f 241 251 316
f 316 251 315
f 315 318 316
f 318 315 314
f 318 314 317
f 322 316 321
f 316 318 321
f 318 319 321
f 317 319 318
f 319 320 324
f 319 317 320
f 322 321 323
f 321 319 324
f 321 324 323
f 326 324 320
f 325 326 320
f 322 323 387
f 387 323 384
f 323 324 384
f 384 324 326
f 328 728 327
f 328 738 728
f 330 400 258
f 328 329 738
f 329 328 338
f 412 329 338
f 329 396 738
f 396 329 412
f 400 406 131
f 406 269 131
f 406 336 269
f 734 332 331
f 269 335 332
f 332 335 740
f 331 332 740
f 740 335 334
f 336 335 269
f 334 335 408
f 336 409 335
f 335 409 408
f 328 327 337
f 339 337 275
f 339 275 340
f 328 337 338
f 338 337 339
f 412 338 339
f 741 342 333
f 758 342 741
f 414 418 343
f 333 341 279
f 333 342 341
f 410 342 758
f 343 342 410
f 339 340 285
f 342 345 341
f 343 344 342
f 418 344 343
f 346 339 285
f 339 346 347
f 352 344 418
f 344 345 342
f 285 288 346
f 412 339 347
f 344 351 345
f 351 350 345
f 352 351 344
f 349 347 346
f 423 347 349
f 416 429 352
f 345 350 348
f 352 355 351
f 346 295 357
f 424 349 426
f 351 354 350
f 355 354 351
f 349 346 357
f 349 357 356
f 426 349 356
f 354 353 350
f 433 355 352
f 429 433 352
f 358 356 357
f 360 354 355
f 433 360 355
f 433 434 435
f 360 433 435
f 354 359 296
f 354 362 359
f 360 362 354
f 362 361 359
f 360 363 361
f 362 360 361
f 363 376 361
f 363 360 376
f 364 360 435
f 364 376 360
f 376 296 361
f 367 370 358
f 358 357 367
f 356 358 370
f 367 357 365
f 367 365 368
f 368 365 366
f 381 368 742
f 370 367 369
f 368 369 367
f 369 368 372
f 381 372 368
f 369 371 370
f 369 372 371
f 381 373 372
f 373 381 383
f 441 370 371
f 440 371 372
f 440 372 373
f 373 466 440
f 383 466 373
f 375 374 296
f 375 386 374
f 386 325 374
f 376 375 296
f 378 377 376
f 377 375 376
f 377 386 375
f 390 386 377
f 364 378 376
f 378 390 377
f 364 457 378
f 366 365 313
f 380 742 737
f 380 737 379
f 381 742 380
f 379 311 475
f 382 381 380
f 380 379 382
f 383 381 382
f 383 382 465
f 465 382 379
f 465 466 383
f 475 311 228
f 228 322 395
f 384 385 388
f 326 385 384
f 385 326 325
f 386 385 325
f 387 384 388
f 388 385 389
f 385 386 389
f 391 387 388
f 387 391 395
f 387 395 322
f 389 390 394
f 386 390 389
f 391 388 393
f 393 388 389
f 394 393 389
f 390 392 394
f 378 392 390
f 480 391 393
f 392 479 394
f 479 393 394
f 391 480 395
f 393 479 480
f 396 397 738
f 397 396 398
f 398 396 412
f 743 399 400
f 743 400 330
f 744 745 747
f 748 746 401
f 400 399 749
f 749 403 400
f 412 750 398
f 752 750 402
f 422 402 750
f 496 404 402
f 751 754 753
f 422 496 402
f 496 495 404
f 755 761 403
f 403 761 400
f 761 497 400
f 508 513 400
f 513 406 400
f 406 409 336
f 406 411 409
f 405 413 760
f 413 410 760
f 406 756 411
f 405 407 413
f 406 757 756
f 526 757 406
f 408 409 759
f 409 411 759
f 750 412 422
f 410 413 414
f 407 415 413
f 407 524 415
f 417 496 422
f 343 410 414
f 530 415 524
f 530 421 415
f 415 421 420
f 419 416 414
f 414 416 418
f 413 419 414
f 413 415 419
f 415 420 419
f 417 422 552
f 552 532 417
f 416 352 418
f 419 430 416
f 420 430 419
f 347 423 412
f 412 423 422
f 424 422 423
f 349 424 423
f 416 430 429
f 421 545 420
f 425 422 424
f 422 425 552
f 424 427 425
f 427 428 425
f 428 552 425
f 430 420 431
f 426 427 424
f 439 427 426
f 427 439 432
f 428 427 432
f 434 433 429
f 430 434 429
f 430 431 434
f 573 431 420
f 573 420 545
f 438 439 426
f 356 438 426
f 431 436 434
f 437 436 431
f 437 431 573
f 434 436 435
f 435 436 364
f 437 459 436
f 436 457 364
f 436 459 457
f 576 636 437
f 437 636 459
f 370 438 356
f 438 370 441
f 449 439 438
f 584 439 449
f 439 584 581
f 443 442 440
f 440 442 371
f 443 440 466
f 438 441 444
f 442 444 441
f 371 442 441
f 444 442 446
f 443 446 442
f 446 443 447
f 443 466 445
f 443 445 447
f 445 466 467
f 444 449 438
f 444 450 449
f 446 450 444
f 448 447 445
f 445 468 448
f 467 468 445
f 468 470 448
f 450 446 451
f 452 451 446
f 447 452 446
f 451 452 453
f 452 447 448
f 452 448 470
f 452 470 453
f 584 449 454
f 454 449 450
f 454 450 451
f 454 451 453
f 453 470 472
f 453 472 455
f 455 472 474
f 454 453 585
f 585 453 455
f 473 455 474
f 473 585 455
f 457 456 378
f 479 392 456
f 456 392 378
f 457 458 456
f 458 483 479
f 458 479 456
f 457 459 458
f 460 458 459
f 485 483 460
f 460 483 458
f 636 463 459
f 463 461 459
f 461 489 460
f 459 461 460
f 489 485 460
f 462 461 463
f 462 489 461
f 494 462 464
f 462 494 489
f 463 464 462
f 687 464 638
f 464 687 494
f 465 379 475
f 466 465 467
f 467 465 475
f 468 467 469
f 467 475 469
f 471 470 468
f 468 469 471
f 472 470 471
f 472 471 476
f 471 469 476
f 474 472 476
f 639 473 474
f 639 474 476
f 476 469 475
f 641 475 652
f 476 475 640
f 639 476 640
f 640 475 641
f 475 228 652
f 228 395 667
f 667 395 477
f 395 488 477
f 667 477 668
f 488 490 477
f 477 490 478
f 478 490 665
f 668 477 478
f 484 480 481
f 481 480 479
f 483 481 479
f 482 395 480
f 484 482 480
f 488 395 482
f 487 484 481
f 488 482 486
f 486 482 484
f 487 486 484
f 485 481 483
f 485 487 481
f 489 492 487
f 489 487 485
f 486 490 488
f 486 491 490
f 492 491 487
f 487 491 486
f 494 492 489
f 494 493 492
f 493 665 491
f 491 665 490
f 493 491 492
f 687 665 493
f 687 493 494
f 500 400 497
f 495 496 499
f 499 498 495
f 761 762 497
f 499 496 532
f 762 500 497
f 501 400 500
f 498 499 502
f 498 502 763
f 501 503 400
f 503 506 400
f 546 499 532
f 499 546 502
f 763 502 504
f 764 768 765
f 504 767 766
f 504 502 533
f 546 533 502
f 504 505 767
f 767 505 770
f 504 533 505
f 506 508 400
f 769 507 771
f 506 772 508
f 509 507 769
f 508 773 774
f 511 508 774
f 511 510 508
f 776 777 512
f 523 776 512
f 512 544 523
f 513 526 406
f 513 525 526
f 514 515 513
f 515 525 513
f 517 788 780
f 508 518 513
f 518 519 513
f 516 778 783
f 519 514 513
f 780 779 781
f 780 781 517
f 787 520 518
f 787 518 510
f 510 518 508
f 784 518 520
f 786 523 521
f 786 521 785
f 785 521 522
f 781 785 522
f 523 529 521
f 521 529 522
f 523 544 529
f 790 524 407
f 790 527 524
f 528 527 517
f 789 782 791
f 790 517 527
f 777 775 535
f 777 535 512
f 528 781 522
f 527 530 524
f 527 531 530
f 531 527 528
f 781 528 517
f 496 417 532
f 535 775 505
f 529 528 522
f 537 530 531
f 530 537 421
f 536 531 528
f 537 531 536
f 533 534 505
f 505 534 535
f 544 512 542
f 512 535 542
f 529 536 528
f 529 543 536
f 529 544 543
f 537 545 421
f 532 538 546
f 533 546 539
f 539 534 533
f 534 539 540
f 539 546 540
f 542 541 544
f 534 540 535
f 536 545 537
f 543 549 536
f 543 550 549
f 543 544 550
f 538 532 548
f 532 552 548
f 548 546 538
f 546 553 540
f 535 547 542
f 535 540 547
f 542 551 541
f 536 549 545
f 540 553 547
f 551 544 541
f 551 550 544
f 551 542 554
f 548 552 557
f 553 546 548
f 547 554 542
f 552 428 557
f 558 548 557
f 548 558 553
f 553 558 556
f 547 553 556
f 554 556 559
f 551 554 555
f 556 554 547
f 551 560 550
f 554 567 555
f 551 555 561
f 555 567 561
f 551 561 560
f 556 558 564
f 556 564 559
f 554 559 567
f 550 560 565
f 545 549 570
f 428 432 557
f 562 557 432
f 563 558 557
f 558 563 564
f 572 549 550
f 549 572 571
f 565 572 550
f 573 545 570
f 563 562 566
f 557 562 563
f 563 566 564
f 560 561 568
f 561 567 568
f 560 568 565
f 569 570 549
f 571 569 549
f 566 562 432
f 569 571 570
f 568 690 565
f 565 690 572
f 575 573 570
f 579 570 571
f 579 571 572
f 690 578 572
f 570 579 575
f 572 578 580
f 572 580 579
f 564 566 597
f 597 574 564
f 559 564 577
f 573 576 437
f 573 575 576
f 566 432 582
f 564 574 577
f 618 576 575
f 575 579 618
f 581 432 439
f 582 432 581
f 582 597 566
f 636 576 618
f 583 618 579
f 579 580 583
f 584 582 581
f 587 582 584
f 582 587 590
f 582 590 597
f 597 602 574
f 577 574 606
f 698 690 689
f 690 698 578
f 698 612 578
f 578 612 580
f 586 587 584
f 454 586 584
f 454 585 586
f 473 639 585
f 588 587 586
f 585 588 586
f 588 585 589
f 593 588 589
f 585 642 644
f 589 585 644
f 589 644 596
f 588 590 587
f 591 590 588
f 590 591 592
f 593 591 588
f 591 593 592
f 592 593 594
f 589 595 593
f 593 595 594
f 595 589 596
f 596 647 646
f 595 596 646
f 595 646 600
f 590 598 597
f 592 598 590
f 599 598 592
f 594 599 592
f 598 599 603
f 600 599 594
f 595 600 594
f 599 601 604
f 599 600 601
f 600 646 649
f 600 649 601
f 601 649 609
f 649 650 609
f 602 597 598
f 603 602 598
f 602 603 605
f 599 604 603
f 603 604 605
f 604 601 605
f 605 609 608
f 605 601 609
f 574 602 606
f 606 602 607
f 602 605 607
f 609 650 655
f 655 611 609
f 606 692 577
f 606 607 692
f 692 607 693
f 605 608 607
f 607 608 693
f 608 610 693
f 693 610 694
f 610 608 609
f 611 610 609
f 611 658 610
f 610 658 694
f 633 631 612
f 634 633 614
f 662 634 616
f 634 662 686
f 613 612 698
f 699 613 698
f 612 613 614
f 612 614 633
f 615 613 699
f 613 615 616
f 616 634 614
f 616 614 613
f 707 615 701
f 707 663 615
f 615 663 664
f 662 616 664
f 664 616 615
f 666 638 617
f 687 638 666
f 620 617 638
f 671 617 621
f 666 617 671
f 619 618 623
f 618 619 636
f 622 619 623
f 636 619 637
f 620 619 622
f 637 619 620
f 622 621 617
f 622 617 620
f 673 671 621
f 623 618 583
f 624 622 623
f 626 622 624
f 621 622 626
f 626 673 621
f 626 677 673
f 623 583 630
f 624 623 627
f 625 624 627
f 625 626 624
f 682 625 628
f 677 625 682
f 677 626 625
f 632 623 630
f 627 623 632
f 633 627 632
f 628 633 635
f 628 625 627
f 628 627 633
f 681 628 635
f 681 682 628
f 629 580 612
f 580 629 583
f 631 629 612
f 629 631 630
f 583 629 630
f 631 633 632
f 630 631 632
f 633 634 635
f 686 681 635
f 686 635 634
f 636 637 463
f 637 638 464
f 463 637 464
f 637 620 638
f 642 585 639
f 642 639 640
f 642 640 643
f 640 641 643
f 644 642 643
f 641 652 645
f 645 643 641
f 647 596 644
f 647 644 643
f 643 648 647
f 648 643 645
f 648 645 651
f 647 648 649
f 646 647 649
f 650 649 648
f 651 650 648
f 653 650 651
f 645 652 651
f 653 651 652
f 653 652 654
f 654 652 657
f 650 653 655
f 656 655 653
f 654 659 656
f 654 656 653
f 657 659 654
f 656 611 655
f 611 656 658
f 658 656 659
f 694 658 702
f 702 658 659
f 702 659 704
f 659 657 704
f 704 657 706
f 660 652 228
f 660 228 678
f 660 678 684
f 661 684 683
f 684 661 660
f 662 664 661
f 661 664 660
f 683 662 661
f 686 662 683
f 660 657 652
f 657 660 706
f 663 707 706
f 660 663 706
f 664 663 660
f 666 665 687
f 668 478 669
f 665 669 478
f 668 669 670
f 666 669 665
f 671 669 666
f 667 668 672
f 672 668 676
f 668 670 676
f 673 670 671
f 673 676 670
f 669 671 670
f 678 228 674
f 228 667 674
f 674 667 675
f 675 667 672
f 677 676 673
f 678 674 679
f 679 674 675
f 676 680 675
f 676 675 672
f 677 680 676
f 682 680 677
f 684 678 679
f 680 685 679
f 680 679 675
f 683 681 686
f 683 685 681
f 685 680 682
f 685 682 681
f 685 683 684
f 679 685 684
f 559 577 688
f 559 688 567
f 567 688 689
f 567 689 568
f 568 689 690
f 689 688 691
f 688 577 692
f 688 692 691
f 698 689 697
f 689 691 696
f 689 696 697
f 692 695 691
f 691 695 700
f 692 693 695
f 693 694 695
f 695 703 705
f 695 705 700
f 697 699 698
f 691 700 696
f 697 696 699
f 696 700 701
f 696 701 699
f 701 615 699
f 700 705 701
f 701 705 707
f 695 694 702
f 703 695 702
f 704 792 702
f 793 792 704
f 706 793 704
f 707 793 706
o FMA10951_BP10311_FJ3659
v -20.5847 -117.693 1039.86
v -20.8096 -115.899 1044.76
v -20.2456 -112.714 1046.78
v -20.6127 -113.77 1047.33
v -20.5286 -118.683 1044.87
v -20.9978 -117.012 1055.66
v -21.2683 -114.038 1060.17
v -21.2641 -115.625 1059.16
v -21.0297 -118.195 1066.64
v -22.0969 -116.427 1075.53
v -21.4774 -118.522 1075.49
v -21.8317 -109.628 1091.87
v -21.6536 -109.122 1094.88
v -21.818 -109.682 1094.73
v -21.0426 -108.582 1092.95
v -21.5809 -109.631 1095
v -23.4989 -114.386 1091.37
v -23.7499 -114.516 1094.68
v -22.9352 -111.571 1093.23
v -23.2622 -113.05 1095.01
v -23.796 -115.515 1094.65
v -23.5276 -117.001 1094.02
v -23.4254 -115.918 1094.96
v -22.8135 -116.566 1095
v -23.0168 -118.03 1094.92
v -22.9005 -118.852 1093.22
v -22.4168 -118.995 1094.99
v -22.0214 -120.6 1093.73
v -21.8934 -120.636 1094.97
v -21.5172 -120.752 1095.03
v -21.1121 -121.681 1093.28
v -21.233 -121.642 1094.94
v -20.7647 -122.196 1094.92
v -16.6313 -118.447 965.784
v -17.3962 -119.109 975.725
v -17.4394 -121.154 976.402
v -17.0673 -122.065 974.661
v -17.2807 -117.324 983.333
v -16.4489 -115.882 985.077
v -17.7486 -122.98 984.814
v -17.237 -123.536 981.227
v -17.072 -125.057 988.077
v -16.8905 -115.351 997.555
v -17.5438 -116.373 996.108
v -18.5716 -121.743 992.87
v -18.3588 -123.336 994.632
v -18.0172 -124.386 995.913
v -18.3644 -117.754 997.903
v -18.8226 -122.415 999.496
v -19.0191 -120.404 1000.45
v -17.4448 -125.448 997.142
v -19.014 -118.58 1004.57
v -19.1492 -121.552 1005.28
v -18.9929 -122.458 1007.46
v -18.5698 -123.537 1001.2
v -18.1061 -124.565 1001.22
v -17.4486 -125.522 1004.38
v -18.5361 -123.731 1006.71
v -19.379 -116.116 1020.97
v -18.4327 -114.633 1017.65
v -19.7286 -117.982 1020.66
v -19.7976 -119.322 1021.94
v -18.8199 -122.689 1029.14
v -18.0932 -123.587 1033.03
v -17.3152 -124.564 1029.02
v -19.6555 -121.017 1043.27
v -18.7573 -122.448 1042.58
v -17.8002 -123.485 1042.42
v -19.2965 -121.558 1045.73
v -16.9164 -107.971 1052.28
v -20.2793 -111.384 1055.61
v -19.3261 -110.765 1048.45
v -18.9984 -121.442 1054.81
v -17.3254 -123.029 1055.01
v -20.2511 -119.408 1057.13
v -19.8139 -109.631 1062.99
v -18.9368 -108.643 1062.25
v -17.5055 -107.31 1063.53
v -16.4257 -106.755 1062.42
v -18.7146 -121.657 1063.69
v -20.0051 -120.16 1065.88
v -17.5344 -106.847 1072.04
v -19.8631 -108.865 1071.5
v -18.9768 -107.93 1071.82
v -17.2494 -123.072 1072.79
v -16.4333 -106.166 1076.45
v -20.6369 -120.062 1075.15
v -19.1815 -121.856 1076.09
v -19.8264 -107.511 1092.75
v -19.4527 -107.237 1094.99
v -18.9314 -106.843 1094.46
v -18.951 -107.218 1094.95
v -18.4264 -106.761 1094.96
v -17.7864 -106.355 1093.59
v -17.3303 -106.347 1094.75
v -17.4249 -106.758 1094.97
v -16.762 -106.016 1093.97
v -19.0138 -107.719 1094.99
v -20.6204 -121.776 1095.03
v -20.0233 -122.686 1093.36
v -20.239 -122.235 1095.01
v -20.2463 -122.379 1094.92
v -19.345 -123.271 1094.89
v -19.3222 -122.759 1095.02
v -18.6983 -123.55 1093.44
v -18.7926 -123.303 1094.98
v -18.043 -122.851 1095.02
v -18.3194 -123.826 1094.9
v -17.7359 -124.026 1093.84
v -17.3184 -124.012 1094.82
v -12.1704 -110.69 953.239
v -14.921 -114.037 952.65
v -14.3999 -113.53 952.171
v -14.7759 -114.509 952.131
v -14.7313 -113.06 953.179
v -14.3286 -114.505 951.652
v -14.1514 -112.575 952.679
v -14.0413 -112.055 953.226
v -13.7787 -113.542 951.581
v -13.8271 -114.537 951.469
v -13.7264 -112.585 952.102
v -13.2519 -111.608 952.732
v -13.6914 -112.037 952.68
v -13.2088 -112.582 951.619
v -13.2752 -113.56 951.363
v -13.3216 -114.529 952.025
v -13.1931 -111.952 952.197
v -12.6958 -112.07 951.616
v -12.7736 -113.626 951.826
v -12.6693 -111.516 952.217
v -12.6537 -111.17 952.752
v -12.6867 -114.171 953.076
v -15.4362 -115.549 953.075
v -15.4381 -116.531 953.025
v -14.9711 -116.465 952.087
v -15.1634 -114.972 952.613
v -15.1873 -117.01 952.526
v -15.0755 -117.549 952.491
v -15.3134 -117.569 953.054
v -14.8729 -115.457 952.03
v -14.8896 -117.06 952.049
v -14.8028 -118.493 952.494
v -14.379 -115.515 951.606
v -14.4577 -117.017 951.694
v -14.4999 -118.457 951.999
v -13.8801 -115.549 951.82
v -14.0369 -118.541 951.657
v -13.7778 -117.064 952.026
v -13.7226 -117.566 952.009
v -13.4881 -118.518 951.871
v -13.4452 -117.6 952.537
v -14.819 -118.997 952.962
v -14.5486 -119.046 952.457
v -14.2662 -119.545 952.441
v -14.5333 -119.551 952.965
v -14.0864 -119.266 951.979
v -13.8936 -120.086 952.48
v -13.5362 -119.622 951.726
v -13.0583 -119.589 951.644
v -12.9476 -120.627 951.958
v -13.1288 -121.145 952.838
v -13.6598 -111.028 955.228
v -13.6543 -110.981 956.258
v -13.6154 -111.029 957.327
v -13.1289 -111.026 953.716
v -13.124 -110.704 954.852
v -13.1043 -110.596 955.76
v -13.1037 -110.649 956.764
v -12.5716 -110.533 954.26
v -12.5596 -110.343 955.269
v -15.4605 -114.505 953.626
v -15.6548 -114.033 955.196
v -15.1173 -113.098 954.183
v -15.0624 -112.617 955.166
v -15.1319 -112.649 956.242
v -14.4993 -112.093 954.239
v -14.4133 -111.684 955.717
v -14.4111 -111.736 957.301
v -13.6609 -111.247 954.235
v -12.5701 -114.71 954.095
v -16.0278 -117.564 956.495
v -16.1105 -115.606 957.107
v -15.7594 -115.53 954.065
v -15.7576 -116.558 954.058
v -15.8216 -115.062 954.655
v -15.9079 -116.046 954.756
v -15.6171 -118.045 954.549
v -13.025 -115.155 953.564
v -13.1687 -117.149 953.503
v -12.9925 -116.183 953.977
v -12.7867 -115.222 954.108
v -12.7328 -117.716 953.913
v -12.4439 -115.202 954.576
v -12.561 -115.715 954.585
v -12.522 -117.201 954.489
v -15.6558 -119.097 956.519
v -15.085 -119.22 954.135
v -14.6022 -120.157 954.286
v -14.5458 -121.249 956.941
v -13.6874 -121.135 954.001
v -13.6998 -122.087 956.766
v -12.6094 -110.641 958.621
v -16.0327 -114.753 959.288
v -15.6625 -113.703 957.638
v -15.6486 -113.798 959.934
v -15.1492 -112.739 958.19
v -15.0003 -112.804 960.38
v -13.6922 -111.497 960.055
v -16.2826 -115.866 960.337
v -16.3672 -117.619 959.922
v -16.0738 -118.785 958.748
v -15.3973 -121.347 960.946
v -14.2145 -122.694 960.426
v -13.1878 -123.411 959.971
v -13.7945 -123.91 963.678
v -15.4395 -114.468 966.238
v -14.6902 -113.503 966.171
v -13.7218 -112.566 965.585
v -13.7324 -113.006 969.007
v -12.7641 -111.956 965.384
v -16.3387 -116.357 965.912
v -15.4156 -114.712 972.301
v -16.0077 -115.535 970.621
v -14.7999 -124.785 970.942
v -13.4315 -125.897 971.291
v -16.2939 -123.641 973.976
v -15.5305 -124.743 974.212
v -14.3965 -125.658 973.265
v -14.424 -126.162 976.234
v -13.4067 -126.376 973.765
v -13.4886 -126.803 976.661
v -14.7628 -114.268 978.102
v -12.6132 -113.086 978.987
v -15.3601 -125.94 979.752
v -13.9203 -127.035 980.055
v -14.301 -113.976 984.784
v -16.5289 -125.021 982.446
v -15.4386 -126.423 983.631
v -14.4935 -126.978 982.235
v -13.4957 -127.628 983.239
v -15.9393 -126.282 986.596
v -14.4838 -127.315 985.425
v -15.0049 -127.488 991.642
v -13.5581 -128.24 992.321
v -13.2093 -113.114 994.854
v -16.8612 -125.919 993.121
v -15.9608 -126.893 993.599
v -15.46 -127.428 996.555
v -14.5093 -127.92 994.324
v -13.5532 -128.392 996.552
v -15.3336 -113.606 1000.7
v -16.4523 -126.633 997.851
v -15.1061 -127.685 1000.73
v -14.517 -128.009 997.705
v -13.135 -112.311 1004.13
v -16.4081 -126.65 1004.4
v -15.0663 -127.641 1004.26
v -14.1251 -127.957 1006.19
v -13.5554 -128.385 1001.11
v -15.5419 -127.087 1009.37
v -15.8785 -124.975 1040.46
v -12.2623 -107.239 1046.71
v -13.8515 -125.496 1043.66
v -12.7871 -106.536 1053.13
v -13.8971 -107.039 1049.97
v -13.4757 -124.809 1052.95
v -15.3069 -124.145 1055.28
v -14.9343 -106.448 1058.52
v -13.4328 -106.177 1058.02
v -12.4354 -106.077 1058.76
v -14.3482 -124.198 1060.83
v -15.3943 -106.19 1064.79
v -14.3648 -105.958 1064.02
v -13.354 -105.83 1063.87
v -16.4292 -123.351 1062.65
v -12.3797 -105.747 1065.83
v -14.912 -105.848 1070.09
v -13.8408 -105.677 1070.01
v -12.36 -105.626 1073.27
v -15.2835 -123.862 1071.72
v -13.3903 -124.215 1071.2
v -15.4269 -105.833 1077.92
v -13.501 -105.582 1076.62
v -15.9797 -123.904 1079.96
v -14.7939 -124.297 1082.84
v -15.964 -106.498 1094.95
v -15.2763 -105.726 1093.42
v -15.4202 -105.96 1094.73
v -14.3114 -106.031 1094.86
v -13.7451 -105.673 1093.03
v -12.7964 -105.773 1093.73
v -12.85 -106.082 1094.79
v -16.6724 -123.928 1094.98
v -16.2006 -124.465 1094.18
v -14.7173 -124.663 1092.87
v -13.5973 -124.535 1094.9
v -13.2777 -124.599 1094.2
v -11.1489 -110.774 952.272
v -11.0739 -110.313 953.253
v -10.1145 -110.571 952.283
v -9.60794 -110.809 951.762
v -9.63461 -110.131 953.307
v -8.66067 -110.839 951.732
v -8.6234 -110.542 952.32
v -12.1499 -111.624 951.673
v -12.2014 -112.154 951.381
v -12.127 -111.175 952.248
v -11.208 -111.648 951.253
v -11.7776 -112.723 951.614
v -11.3745 -111.189 951.743
v -11.1836 -112.153 951.275
v -10.6239 -111.167 951.511
v -10.1741 -111.709 951.089
v -10.2204 -112.397 951.786
v -9.62451 -111.258 951.269
v -8.6701 -112.234 951.789
v -8.66909 -112.354 953.195
v -12.6041 -119.508 952.002
v -11.9945 -120.136 951.914
v -12.1716 -121.575 952.35
v -12.1897 -121.858 952.904
v -11.7739 -121.072 951.681
v -11.1391 -121.703 951.878
v -11.2045 -122.107 952.437
v -10.6564 -121.208 951.733
v -10.1478 -120.762 952.399
v -9.70038 -121.778 951.786
v -9.76034 -122.445 952.372
v -12.1069 -110.165 956.37
v -11.6188 -110.277 953.803
v -11.6025 -110.052 954.79
v -11.5848 -109.971 955.764
v -11.0118 -110.016 954.278
v -11.0627 -109.891 956.362
v -10.6039 -109.8 955.716
v -9.56087 -109.809 954.803
v -9.60108 -109.821 956.525
v -8.58575 -110.044 953.797
v -8.57502 -109.872 954.786
v -8.55799 -109.837 955.75
v -8.4948 -109.968 956.98
v -12.2123 -114.208 954.112
v -11.7853 -114.254 954.631
v -12.1826 -114.733 954.605
v -11.7227 -113.486 953.574
v -11.6958 -113.757 954.162
v -11.7965 -114.767 954.972
v -11.2136 -113.423 954.159
v -11.2108 -113.79 954.639
v -10.7192 -112.961 953.637
v -10.81 -114.341 955.336
v -10.2083 -112.982 954.175
v -10.2709 -113.375 954.741
v -9.68915 -112.619 953.585
v -9.69088 -113.078 954.661
v -9.78737 -113.887 955.435
v -9.78517 -114.428 955.744
v -9.27623 -113.41 955.182
v -8.74037 -112.627 954.178
v -8.75134 -112.949 954.769
v -8.74474 -113.428 955.315
v -8.78956 -113.948 955.706
v -8.8173 -114.494 955.985
v -12.4162 -116.684 954.737
v -11.9468 -115.263 955.061
v -12.074 -118.733 953.788
v -11.9672 -117.262 955.007
v -12.0023 -117.769 954.726
v -11.8835 -115.817 955.226
v -11.9035 -116.753 955.187
v -11.504 -118.322 954.744
v -11.3507 -115.309 955.482
v -11.4478 -117.267 955.364
v -11.4637 -117.795 955.124
v -10.9421 -116.341 955.767
v -10.5438 -118.802 954.846
v -10.3649 -115.375 955.901
v -10.483 -117.39 955.691
v -9.96709 -118.361 955.325
v -9.88027 -116.408 956.043
v -9.45621 -117.44 955.853
v -9.35008 -115.407 956.121
v -9.00391 -118.397 955.405
v -8.89282 -116.942 956.051
v -12.7272 -121.922 953.981
v -12.7704 -122.789 956.807
v -11.077 -119.417 953.917
v -11.3157 -122.679 954.09
v -10.1912 -120.262 953.362
v -10.2749 -122.799 953.471
v -10.0439 -119.913 953.952
v -9.15497 -120.585 953.357
v -9.264 -122.988 953.654
v -9.08386 -119.353 954.737
v -11.0766 -110.334 959.356
v -11.8402 -123.906 959.208
v -10.3534 -124.062 958.194
v -9.34131 -124.458 959.534
v -8.82285 -111.196 964.256
v -12.8653 -124.566 963.856
v -11.7244 -111.741 966.583
v -12.3838 -125.547 967.174
v -10.9476 -125.977 967.256
v -9.93202 -126.182 967.725
v -9.93361 -112.307 974.191
v -12.4085 -126.569 972.401
v -10.9534 -126.87 972.037
v -9.48064 -126.882 971.698
v -12.507 -127.116 976.026
v -11.9605 -127.001 974.153
v -11.4736 -127.314 975.442
v -10.5179 -127.268 974.26
v -9.50058 -127.491 975.934
v -11.494 -127.925 980.43
v -10.4704 -127.765 978.063
v -12.3564 -113.123 985.6
v -10.2653 -112.858 985.822
v -12.5065 -127.861 982.019
v -11.0685 -128.213 982.818
v -10.05 -128.165 981.919
v -10.0429 -128.32 983.787
v -13.0515 -128.036 985.903
v -12.0743 -128.282 985.516
v -12.0857 -128.462 988.41
v -11.0055 -128.528 987.223
v -11.0982 -128.739 992.667
v -10.0633 -128.696 992.456
v -11.2796 -112.751 994.522
v -12.58 -128.592 993.714
v -11.5863 -128.79 996.801
v -12.6013 -128.661 997.313
v -10.0793 -128.736 997.997
v -11.2072 -112.2 1002.83
v -8.93569 -112.229 1005.57
v -12.488 -128.625 1002.05
v -11.066 -128.752 1001.3
v -12.6212 -128.319 1007.62
v -11.5096 -128.488 1006.93
v -9.57148 -128.355 1006.34
v -10.084 -127.943 1013.67
v -11.6575 -110.332 1020.18
v -11.9189 -126.194 1038.01
v -10.4656 -108.051 1041.75
v -9.44159 -108.228 1042.75
v -10.8625 -125.717 1043.07
v -9.4023 -125.622 1040.41
v -11.4042 -106.989 1049.38
v -10.8679 -106.691 1053.09
v -9.99421 -107.26 1049.59
v -9.01766 -107.317 1052.6
v -9.34561 -124.556 1051.86
v -12.3336 -124.878 1053.52
v -10.8339 -124.76 1053.91
v -11.3833 -106.144 1059.11
v -9.49851 -106.66 1058.39
v -8.41988 -107.185 1057.79
v -10.3662 -124.322 1059.43
v -10.3639 -106.146 1062.89
v -9.31136 -106.512 1062.76
v -11.9499 -124.337 1064.19
v -11.3239 -105.847 1066.08
v -9.86894 -106.212 1066.07
v -10.4347 -105.978 1072
v -9.33629 -106.366 1070.64
v -11.933 -124.214 1073.58
v -11.4287 -105.783 1078.57
v -8.51066 -106.892 1077.23
v -9.44039 -123.595 1073.54
v -9.91919 -106.236 1078.89
v -11.8752 -105.954 1094.5
v -10.854 -106.248 1092.86
v -10.4015 -106.495 1094.49
v -10.8929 -107.188 1094.92
v -9.87528 -106.671 1092.81
v -8.94016 -107.273 1094.46
v -11.0385 -123.198 1095
v -9.84083 -123.663 1093.3
v -10.3439 -123.682 1094.85
v -12.6001 -124.09 1094.98
v -11.1733 -124.219 1092.38
v -8.07546 -110.883 951.787
v -7.61836 -110.338 953.289
v -7.18724 -110.652 952.709
v -6.67115 -111.301 951.769
v -6.60332 -110.666 953.25
v -5.166 -111.39 953.257
v -8.12131 -111.321 951.248
v -8.17901 -111.856 950.995
v -7.71463 -112.236 951.243
v -7.57393 -112.374 951.738
v -7.73347 -112.321 952.683
v -7.7097 -112.448 953.59
v -6.75028 -111.866 951.055
v -6.72003 -112.678 951.191
v -6.72491 -112.586 952.67
v -6.18169 -111.931 951.22
v -6.20536 -112.411 950.892
v -6.22613 -112.851 953.185
v -5.70626 -112.442 951.009
v -5.74168 -113.118 951.177
v -5.65082 -111.838 951.709
v -5.79567 -113.104 951.713
v -5.6747 -111.492 952.273
v -5.72768 -113.092 952.64
v -5.7564 -113.134 953.195
v -5.20393 -112.492 951.334
v -5.06493 -112.982 951.183
v -4.78771 -112.514 951.697
v -5.25867 -113.455 951.667
v -5.24599 -113.537 953.134
v -4.73135 -113.008 951.403
v -4.7607 -113.507 951.396
v -4.77552 -113.789 951.656
v -4.68944 -112.202 952.253
v -4.73048 -114.084 953.12
v -4.33899 -114.61 953.111
v -8.70188 -121.833 951.857
v -8.74085 -121.314 952.122
v -8.71332 -122.311 952.136
v -8.74064 -122.563 952.401
v -8.2502 -122.768 952.995
v -7.74882 -122.447 952.368
v -7.75322 -120.761 952.935
v -7.1449 -121.317 952.033
v -7.26548 -121.918 951.965
v -7.2406 -122.598 953.096
v -6.73334 -122.155 952.372
v -6.22131 -121.501 952.019
v -6.18001 -121.924 952.394
v -6.25316 -122.175 952.877
v -5.57926 -120.442 952.2
v -5.65385 -120.995 951.985
v -5.48715 -121.479 952.388
v -5.70955 -121.886 952.919
v -5.15487 -121.028 952.165
v -5.13264 -121.466 952.918
v -7.58421 -110.062 954.718
v -7.11653 -110.148 955.775
v -6.6694 -110.491 957.2
v -6.08629 -110.633 954.33
v -6.0574 -110.557 955.787
v -4.65499 -111.474 954.259
v -4.67915 -111.357 955.285
v -4.76676 -111.51 957.153
v -8.20149 -112.854 954.686
v -8.26781 -113.219 955.152
v -8.26432 -113.484 955.4
v -8.31644 -115.036 956.172
v -7.6902 -112.648 954.189
v -7.74356 -113.299 955.178
v -7.80249 -113.995 955.752
v -7.8624 -114.51 956.022
v -7.2582 -113.004 954.684
v -6.96453 -113.535 955.146
v -7.17988 -114.023 955.631
v -7.3148 -114.535 955.953
v -7.34799 -115.064 956.102
v -6.75046 -112.73 953.672
v -6.74495 -112.911 954.184
v -6.73277 -113.186 954.656
v -6.77375 -114.064 955.507
v -6.83032 -114.536 955.797
v -6.80713 -115.07 955.956
v -6.16358 -113.012 953.682
v -6.23793 -113.171 954.176
v -6.17001 -113.55 954.663
v -6.18174 -114.059 955.14
v -6.32593 -114.573 955.558
v -5.74545 -113.28 953.673
v -5.717 -113.563 954.164
v -5.76151 -113.88 954.653
v -5.70516 -114.584 955.122
v -5.37759 -115.122 955.082
v -5.86002 -115.125 955.47
v -5.26413 -113.694 953.659
v -5.1923 -114.083 954.147
v -5.1699 -114.594 954.63
v -4.89367 -115.098 954.594
v -4.81737 -114.213 953.661
v -4.52811 -114.604 953.629
v -4.82341 -114.606 954.161
v -4.51922 -115.117 954.096
v -8.42621 -116.017 956.212
v -8.01285 -118.483 955.345
v -8.03589 -117.529 955.866
v -7.48746 -116.994 956.024
v -7.42647 -116.019 956.168
v -7.04591 -118.529 955.189
v -6.92486 -116.57 956.026
v -6.95142 -117.057 955.919
v -7.01679 -117.573 955.72
v -6.87315 -115.879 956.062
v -6.56712 -119.009 954.628
v -6.47217 -118.048 955.316
v -6.42002 -116.557 955.864
v -6.44852 -117.089 955.735
v -5.95334 -116.063 955.674
v -5.84364 -116.617 955.552
v -5.62391 -119.113 953.872
v -5.5242 -118.122 954.731
v -5.39987 -116.115 955.289
v -5.49606 -117.526 955.039
v -4.4908 -117.565 954.041
v -4.71397 -118.106 953.942
v -4.71677 -115.65 954.571
v -4.67535 -116.671 954.564
v -4.91451 -117.615 954.514
v -8.60236 -120.207 953.921
v -7.53502 -120.063 953.882
v -7.62001 -119.445 954.559
v -6.25057 -122.553 954.329
v -5.18927 -121.887 954.355
v -8.29333 -123.879 957.309
v -7.2814 -123.754 957.825
v -6.69882 -111.929 965.225
v -8.95075 -126.219 968.082
v -7.93929 -125.91 967.58
v -6.308 -125.292 968.024
v -8.45259 -126.603 970.645
v -8.47039 -126.938 972.854
v -7.45318 -126.413 971.205
v -6.39392 -126.189 972.902
v -5.40787 -125.401 971.9
v -7.46469 -126.866 974.369
v -8.57657 -127.519 977.288
v -7.50499 -127.334 978.482
v -6.49668 -126.833 978.036
v -5.46113 -126.13 978.01
v -6.69313 -113.612 982.06
v -4.81653 -114.983 982.037
v -8.9875 -128.101 982.557
v -7.5412 -127.765 983.911
v -6.47956 -127.169 982.437
v -5.43934 -126.425 982.355
v -9.07079 -128.38 987.281
v -6.44675 -127.32 986.8
v -5.04042 -126.208 986.801
v -9.05516 -128.535 992.853
v -7.57626 -128.013 992.036
v -6.5205 -127.434 992.028
v -5.29296 -126.443 991.356
v -7.35687 -113.508 994.837
v -5.38236 -114.902 995.434
v -5.01854 -126.027 996.508
v -8.56063 -128.387 998.69
v -7.49115 -127.941 998.529
v -7.0489 -127.618 1000.99
v -6.43005 -127.262 998.76
v -7.28735 -112.91 1005.99
v -5.88387 -113.836 1007.4
v -7.99731 -127.936 1004.75
v -6.52556 -126.931 1007.06
v -5.42063 -125.964 1006.76
v -8.56527 -127.599 1013.07
v -7.49681 -127.192 1012.03
v -5.37346 -125.182 1016.05
v -6.4094 -126.099 1016.5
v -4.37042 -114.06 1026.45
v -5.16412 -123.289 1033.55
v -5.75739 -123.917 1033.97
v -8.37243 -125.37 1038.82
v -7.32525 -124.559 1041.11
v -7.82821 -124.234 1047.82
v -7.91335 -108.285 1048.82
v -6.29746 -122.649 1052.62
v -6.98185 -108.185 1057.24
v -5.44336 -110.312 1050.99
v -5.36463 -121.708 1051.69
v -7.45906 -107.604 1060.96
v -5.69463 -109.262 1060.86
v -4.36202 -111.419 1060.49
v -7.98235 -107.133 1064.71
v -6.54307 -108.26 1063.1
v -5.86004 -108.937 1065.86
v -5.07432 -109.982 1065.24
v -7.85375 -123.128 1063.34
v -6.97856 -107.821 1067.78
v -5.03721 -110.059 1068.55
v -4.49316 -111.042 1067.72
v -6.75722 -122.055 1069.85
v -5.44869 -120.705 1068.56
v -7.95105 -107.105 1070.2
v -7.94794 -122.866 1072
v -7.50062 -107.584 1077.05
v -6.4721 -108.492 1076.09
v -5.68626 -109.344 1074.44
v -4.74293 -110.838 1073.41
v -4.36436 -111.794 1074.41
v -5.96505 -109.418 1081.72
v -5.17521 -110.438 1078.87
v -4.3742 -112.438 1079.5
v -7.43562 -108.465 1092.93
v -7.52148 -108.864 1094.96
v -6.51909 -109.576 1093.5
v -5.95085 -110.413 1093.62
v -6.09712 -110.346 1094.86
v -6.12827 -110.941 1094.96
v -5.65366 -111.04 1093.88
v -5.41627 -111.458 1093.19
v -5.25322 -111.965 1093.79
v -5.65514 -111.466 1094.96
v -5.50755 -111.97 1094.81
v -6.09221 -112.368 1094.95
v -4.81842 -113.472 1093.28
v -5.11816 -112.49 1094.79
v -5.26347 -113.01 1094.94
v -5.03881 -113.495 1094.71
v -5.72182 -113.966 1094.94
v -4.74887 -114.514 1094.01
v -4.93248 -115.184 1094.8
v -6.58824 -118.728 1094.95
v -5.95514 -119.952 1094.53
v -5.17138 -118.037 1094.6
v -4.80465 -116.51 1094.65
v -7.90938 -122.352 1094.44
v -8.12515 -121.512 1094.98
v -7.17725 -121.403 1094.86
v -6.56783 -120.973 1092.24
v -4.26146 -113.534 951.435
v -4.23246 -113.046 951.762
v -4.28812 -114.043 951.697
v -4.12259 -114.575 952.153
v -3.93837 -115.127 952.648
v -3.78885 -114.07 951.721
v -3.81524 -114.574 951.83
v -3.53831 -113.135 952.697
v -3.31596 -114.6 951.853
v -3.34223 -115.102 951.898
v -3.33663 -113.934 952.132
v -3.03119 -114.621 952.15
v -2.93259 -114.128 952.663
v -2.97544 -113.663 953.187
v -2.86789 -115.169 952.254
v -2.71116 -114.676 952.672
v -4.54779 -119.049 952.553
v -3.36878 -115.608 952.1
v -3.39536 -116.115 952.315
v -3.47392 -117.614 952.318
v -3.1636 -119.176 953.013
v -2.89589 -116.139 952.23
v -2.94839 -117.14 952.305
v -2.52147 -115.673 952.662
v -2.58598 -116.713 952.574
v -2.91845 -118.19 952.548
v -2.53029 -117.647 953.093
v -2.35518 -116.662 953.101
v -4.07238 -119.506 952.2
v -3.62811 -119.586 952.486
v -4.17911 -120.315 952.47
v -3.75469 -120.081 952.979
v -4.2592 -115.095 953.576
v -3.75057 -112.431 953.707
v -3.6875 -112.221 955.196
v -3.74304 -112.282 956.481
v -3.13104 -113.182 953.668
v -2.90823 -113.24 954.667
v -2.93922 -113.345 956.622
v -2.77391 -113.695 953.79
v -2.58057 -114.199 953.599
v -2.44837 -114.213 954.177
v -2.37572 -114.307 955.464
v -2.34063 -114.752 953.849
v -2.21389 -114.805 954.652
v -2.14312 -115.372 956.177
v -4.09614 -115.622 953.585
v -4.16096 -117.545 953.49
v -4.25488 -116.614 954.005
v -2.77811 -118.667 953.531
v -2.67859 -118.789 954.677
v -2.13416 -115.743 954.062
v -2.15316 -116.746 954.102
v -2.32823 -117.826 954.751
v -2.0585 -115.854 955.299
v -2.11512 -116.885 955.885
v -4.0691 -120.641 953.449
v -3.91727 -120.741 954.66
v -3.20358 -119.732 954.527
v -2.53619 -118.436 959.95
v -4.65063 -122.234 959.373
v -3.65005 -120.726 957.332
v -3.0722 -119.931 959.424
v -3.93186 -113.972 964.896
v -2.47173 -117.619 963.189
v -2.84788 -116.041 965.576
v -3.88598 -123.037 968.106
v -2.78668 -120.126 965.786
v -2.85508 -121.272 968.994
v -2.45981 -119.358 971.279
v -2.74592 -121.389 971.101
v -3.10982 -122.328 970.901
v -2.53442 -120.319 970.866
v -4.83433 -124.642 970.405
v -4.59214 -124.844 973.076
v -3.76483 -123.866 973.303
v -3.17732 -122.904 973.85
v -2.76096 -121.927 975.557
v -3.3377 -116.992 981.125
v -2.55301 -119.56 978.864
v -3.85124 -124.445 978.301
v -2.52657 -120.615 978.148
v -4.65855 -125.429 978.276
v -2.80333 -118.549 981.961
v -3.56943 -124.147 981.275
v -2.78532 -122.15 981.791
v -3.1099 -123.182 982.111
v -2.65904 -121.229 983.479
v -3.08234 -122.811 988.451
v -4.53828 -125.636 984.705
v -3.89529 -124.755 986.334
v -3.89222 -124.562 992.4
v -4.42742 -125.481 990.731
v -4.36633 -116.116 995.449
v -3.29821 -118.416 998.982
v -4.4546 -115.627 1006.43
v -3.12142 -120.786 1003.55
v -4.58026 -124.904 1006.68
v -3.85257 -122.703 1016.52
v -3.46295 -121.301 1019.06
v -3.22182 -118.93 1023.71
v -3.2257 -118.093 1022.47
v -4.60046 -123.455 1023.73
v -4.57473 -120.508 1051.24
v -3.65306 -114.057 1053.32
v -3.80802 -112.883 1060.41
v -3.48708 -114.823 1059.6
v -3.58382 -113.88 1060.25
v -3.63178 -117.526 1055.27
v -3.50257 -116.218 1058.93
v -3.70208 -116.995 1064.83
v -4.09122 -112.07 1067.91
v -3.85554 -113.094 1069.15
v -3.64123 -114.144 1067.4
v -3.58487 -115.602 1066.5
v -4.26682 -118.235 1071.41
v -4.07518 -116.874 1076.6
v -4.07349 -115.057 1080.71
v -4.17874 -114.022 1082.02
v -21.6536 -109.122 1094.88
v -21.6536 -109.122 1094.88
v -21.818 -109.682 1094.73
v -21.5809 -109.631 1095
v -21.5809 -109.631 1095
v -23.7499 -114.516 1094.68
v -22.9352 -111.571 1093.23
v -23.2622 -113.05 1095.01
v -23.2622 -113.05 1095.01
v -23.796 -115.515 1094.65
v -23.5276 -117.001 1094.02
v -23.5276 -117.001 1094.02
v -23.4254 -115.918 1094.96
v -22.8135 -116.566 1095
v -22.8135 -116.566 1095
v -23.0168 -118.03 1094.92
v -23.0168 -118.03 1094.92
v -22.4168 -118.995 1094.99
v -21.8934 -120.636 1094.97
v -21.233 -121.642 1094.94
v -20.7647 -122.196 1094.92
v -19.4527 -107.237 1094.99
v -19.4527 -107.237 1094.99
v -18.9314 -106.843 1094.46
v -18.9314 -106.843 1094.46
v -18.951 -107.218 1094.95
v -18.951 -107.218 1094.95
v -18.4264 -106.761 1094.96
v -18.4264 -106.761 1094.96
v -17.7864 -106.355 1093.59
v -17.3303 -106.347 1094.75
v -17.3303 -106.347 1094.75
v -17.4249 -106.758 1094.97
v -17.4249 -106.758 1094.97
v -17.4249 -106.758 1094.97
v -16.762 -106.016 1093.97
v -20.2463 -122.379 1094.92
v -19.345 -123.271 1094.89
v -19.345 -123.271 1094.89
v -18.6983 -123.55 1093.44
v -18.7926 -123.303 1094.98
v -18.7926 -123.303 1094.98
v -18.3194 -123.826 1094.9
v -18.3194 -123.826 1094.9
v -13.8271 -114.537 951.469
v -13.2752 -113.56 951.363
v -13.2752 -113.56 951.363
v -14.379 -115.515 951.606
v -14.4577 -117.017 951.694
v -14.0369 -118.541 951.657
v -13.7778 -117.064 952.026
v -13.0583 -119.589 951.644
v -15.964 -106.498 1094.95
v -15.964 -106.498 1094.95
v -15.4202 -105.96 1094.73
v -14.3114 -106.031 1094.86
v -12.85 -106.082 1094.79
v -16.6724 -123.928 1094.98
v -13.5973 -124.535 1094.9
v -12.2014 -112.154 951.381
v -11.208 -111.648 951.253
v -10.1741 -111.709 951.089
v -10.1741 -111.709 951.089
v -11.7739 -121.072 951.681
v -11.7739 -121.072 951.681
v -10.6564 -121.208 951.733
v -10.6564 -121.208 951.733
v -10.6564 -121.208 951.733
v -9.70038 -121.778 951.786
v -11.8752 -105.954 1094.5
v -10.4015 -106.495 1094.49
v -8.94016 -107.273 1094.46
v -10.3439 -123.682 1094.85
v -12.6001 -124.09 1094.98
v -8.17901 -111.856 950.995
v -6.20536 -112.411 950.892
v -5.70626 -112.442 951.009
v -5.74168 -113.118 951.177
v -5.74168 -113.118 951.177
v -5.06493 -112.982 951.183
v -5.06493 -112.982 951.183
v -5.06493 -112.982 951.183
v -5.25867 -113.455 951.667
v -5.25867 -113.455 951.667
v -4.77552 -113.789 951.656
v -8.70188 -121.833 951.857
v -8.74085 -121.314 952.122
v -7.1449 -121.317 952.033
v -7.26548 -121.918 951.965
v -6.22131 -121.501 952.019
v -5.57926 -120.442 952.2
v -5.65385 -120.995 951.985
v -5.15487 -121.028 952.165
v -5.15487 -121.028 952.165
v -7.52148 -108.864 1094.96
v -6.09712 -110.346 1094.86
v -6.09712 -110.346 1094.86
v -6.12827 -110.941 1094.96
v -6.12827 -110.941 1094.96
v -5.65366 -111.04 1093.88
v -5.65514 -111.466 1094.96
v -5.50755 -111.97 1094.81
v -5.11816 -112.49 1094.79
v -5.11816 -112.49 1094.79
v -5.03881 -113.495 1094.71
v -5.72182 -113.966 1094.94
v -4.74887 -114.514 1094.01
v -4.93248 -115.184 1094.8
v -5.95514 -119.952 1094.53
v -5.17138 -118.037 1094.6
v -4.80465 -116.51 1094.65
v -7.90938 -122.352 1094.44
v -7.17725 -121.403 1094.86
v -4.26146 -113.534 951.435
v -4.12259 -114.575 952.153
v -3.78885 -114.07 951.721
v -3.81524 -114.574 951.83
v -3.31596 -114.6 951.853
v -3.34223 -115.102 951.898
v -3.34223 -115.102 951.898
v -4.54779 -119.049 952.553
v -3.36878 -115.608 952.1
v -3.36878 -115.608 952.1
v -3.36878 -115.608 952.1
v -3.39536 -116.115 952.315
v -3.47392 -117.614 952.318
v -2.89589 -116.139 952.23
v -2.89589 -116.139 952.23
v -2.94839 -117.14 952.305
v -4.07238 -119.506 952.2
v -3.62811 -119.586 952.486
f 854 855 794
f 855 798 794
f 852 797 796
f 854 794 795
f 852 854 797
f 854 795 797
f 795 794 801
f 794 798 799
f 794 799 801
f 795 800 797
f 864 796 797
f 795 801 800
f 798 868 799
f 802 799 868
f 797 800 864
f 799 802 801
f 803 800 801
f 803 801 802
f 800 810 864
f 800 803 810
f 868 874 802
f 804 802 874
f 805 876 869
f 805 869 864
f 803 802 804
f 880 819 804
f 804 819 803
f 864 810 812
f 810 803 814
f 815 803 819
f 821 880 824
f 882 808 883
f 812 805 864
f 806 883 808
f 808 805 806
f 805 807 806
f 805 812 807
f 1652 1631 809
f 1632 1633 1634
f 1633 1637 1634
f 812 810 811
f 810 814 811
f 1635 812 813
f 812 811 813
f 1638 1636 816
f 1636 1640 816
f 1639 1643 817
f 809 1639 817
f 900 809 817
f 803 815 814
f 816 1640 1641
f 815 819 818
f 816 1641 1644
f 1645 1642 1646
f 818 819 820
f 817 1647 1648
f 817 1648 900
f 821 822 819
f 820 819 822
f 819 880 821
f 900 1648 823
f 1648 1649 823
f 822 821 825
f 823 1649 1650
f 821 824 825
f 900 823 892
f 823 1650 892
f 825 824 826
f 1650 1651 892
f 1002 827 1014
f 1014 827 828
f 831 1016 1014
f 827 829 828
f 827 830 829
f 1004 830 827
f 1004 1005 830
f 1014 828 831
f 829 830 833
f 830 834 833
f 834 830 1019
f 1019 1030 834
f 831 828 841
f 837 832 831
f 834 835 833
f 834 1030 835
f 837 831 841
f 828 845 841
f 835 839 833
f 836 837 853
f 836 832 837
f 828 843 845
f 853 837 841
f 828 838 843
f 829 838 828
f 829 833 838
f 833 839 838
f 835 840 839
f 835 844 840
f 844 835 1039
f 1044 836 853
f 839 842 838
f 838 842 843
f 839 840 848
f 848 842 839
f 840 849 848
f 849 840 844
f 850 849 844
f 844 1045 850
f 1045 1049 850
f 843 855 854
f 854 845 843
f 843 842 846
f 848 847 842
f 855 843 846
f 842 847 846
f 848 849 851
f 848 851 847
f 849 850 851
f 846 847 855
f 851 856 847
f 852 853 841
f 1044 853 865
f 841 845 852
f 851 850 856
f 850 858 856
f 1049 858 850
f 845 854 852
f 1053 1054 858
f 856 859 847
f 847 798 855
f 858 857 856
f 856 857 860
f 857 858 861
f 859 798 847
f 857 861 860
f 796 853 852
f 856 860 859
f 859 860 862
f 861 866 860
f 858 1054 861
f 867 866 861
f 867 861 1054
f 853 796 865
f 860 866 862
f 863 1044 865
f 796 864 865
f 864 869 865
f 859 868 798
f 859 866 868
f 862 866 859
f 869 870 865
f 870 863 865
f 872 863 871
f 873 866 867
f 870 871 863
f 872 871 875
f 868 866 874
f 873 874 866
f 867 1068 873
f 875 879 872
f 1065 872 879
f 876 870 869
f 876 877 870
f 871 870 877
f 871 877 875
f 880 874 873
f 808 876 805
f 877 876 808
f 804 874 880
f 873 881 880
f 880 881 824
f 1068 881 873
f 881 1068 878
f 881 893 824
f 893 881 878
f 898 893 878
f 882 877 808
f 877 882 875
f 875 882 884
f 875 884 879
f 824 893 826
f 887 879 884
f 1075 887 890
f 879 887 1075
f 1075 890 1080
f 1077 902 898
f 884 882 883
f 885 1654 1653
f 1656 1652 891
f 1655 1657 886
f 1658 1656 891
f 887 884 1659
f 1660 889 888
f 887 1659 1663
f 1664 1658 891
f 890 887 1661
f 1079 890 1661
f 1665 1683 1662
f 809 1684 1664
f 1664 891 809
f 1081 1666 1684
f 891 1652 809
f 893 895 826
f 894 892 1651
f 1667 894 1651
f 892 894 897
f 1667 897 894
f 895 893 896
f 893 898 896
f 892 897 900
f 1667 1668 897
f 897 1668 899
f 1671 1669 1670
f 897 899 900
f 898 901 1672
f 899 1673 900
f 900 1673 1086
f 898 902 901
f 903 901 902
f 1087 903 902
f 1688 1674 903
f 929 926 964
f 908 905 964
f 907 933 929
f 905 907 929
f 964 905 929
f 906 909 907
f 907 909 933
f 905 908 906
f 907 905 906
f 906 912 909
f 909 912 913
f 910 914 906
f 912 906 914
f 916 914 910
f 908 910 906
f 908 911 910
f 911 916 910
f 911 969 972
f 911 908 969
f 912 917 918
f 1676 919 1675
f 918 913 912
f 917 914 920
f 917 912 914
f 920 916 915
f 920 914 916
f 958 924 915
f 915 911 958
f 916 911 915
f 958 911 972
f 917 1099 918
f 1102 922 1676
f 1102 1677 1690
f 921 920 923
f 921 917 920
f 919 1676 922
f 923 915 924
f 923 920 915
f 904 924 958
f 925 919 922
f 919 925 939
f 981 939 925
f 921 1098 1099
f 921 1099 917
f 1098 923 1100
f 1098 921 923
f 904 1100 924
f 1100 923 924
f 1102 925 922
f 973 925 1135
f 925 973 981
f 926 928 927
f 927 977 926
f 927 932 977
f 929 933 926
f 933 936 928
f 926 933 928
f 928 934 930
f 930 934 931
f 928 930 927
f 931 932 930
f 930 932 927
f 909 936 933
f 936 937 928
f 934 928 937
f 937 940 938
f 934 937 938
f 934 938 931
f 938 935 931
f 931 935 932
f 935 945 932
f 932 945 990
f 913 936 909
f 939 1678 1675
f 938 940 949
f 938 946 935
f 938 949 946
f 946 945 935
f 939 1675 919
f 941 1678 939
f 1679 1678 941
f 942 1679 941
f 942 943 1679
f 1679 943 1680
f 942 1681 944
f 943 942 944
f 943 944 985
f 1681 939 983
f 1159 943 985
f 939 981 983
f 1681 983 982
f 1681 982 944
f 945 948 990
f 949 947 946
f 945 946 948
f 946 947 948
f 947 950 948
f 951 949 940
f 949 950 947
f 949 951 950
f 943 952 1680
f 940 1682 951
f 951 953 950
f 953 954 950
f 943 1111 952
f 953 951 1115
f 1115 951 1682
f 943 1159 1111
f 953 1115 1113
f 954 953 1113
f 971 957 956
f 958 972 959
f 963 959 960
f 959 955 960
f 959 972 955
f 956 961 960
f 955 956 960
f 957 961 956
f 995 961 957
f 962 904 958
f 958 959 962
f 962 959 963
f 1122 963 960
f 1122 960 961
f 963 1124 962
f 997 965 975
f 966 908 964
f 964 976 978
f 966 964 965
f 964 978 965
f 968 967 965
f 965 997 968
f 997 999 968
f 967 969 966
f 966 965 967
f 970 969 967
f 967 968 970
f 970 968 971
f 968 999 971
f 969 908 966
f 955 972 969
f 970 955 969
f 956 955 970
f 971 956 970
f 981 973 984
f 1137 986 973
f 986 984 973
f 1137 1158 986
f 979 977 974
f 979 975 978
f 979 974 975
f 978 975 965
f 974 1003 975
f 974 1004 1003
f 964 926 976
f 926 977 976
f 976 979 978
f 976 977 979
f 977 980 974
f 977 932 980
f 980 989 974
f 980 990 989
f 974 989 1004
f 932 990 980
f 984 983 981
f 988 982 983
f 982 985 944
f 988 985 982
f 984 987 983
f 987 1157 983
f 1157 988 983
f 987 984 986
f 1161 985 988
f 1158 987 986
f 987 1162 1157
f 990 991 1005
f 989 990 1005
f 1004 989 1005
f 991 990 948
f 991 948 950
f 950 993 991
f 992 991 993
f 1005 991 992
f 992 1006 1005
f 954 993 950
f 1006 992 994
f 992 993 994
f 994 1179 1006
f 954 1178 993
f 994 993 1178
f 994 1178 1179
f 1001 957 971
f 995 957 1001
f 995 1001 1013
f 1011 1013 1001
f 961 995 1122
f 1013 1194 995
f 975 996 997
f 997 996 998
f 996 1014 998
f 996 1002 1014
f 998 1014 1009
f 1009 1000 998
f 999 998 1000
f 997 998 999
f 1009 1010 1000
f 999 1000 971
f 1001 971 1000
f 1010 1001 1000
f 1010 1011 1001
f 975 1003 1002
f 975 1002 996
f 1017 1005 1006
f 1007 1008 1006
f 1007 1006 1179
f 1179 1189 1007
f 1189 1193 1007
f 1193 1008 1007
f 1003 1004 827
f 1003 827 1002
f 1017 1006 1008
f 1009 1014 1016
f 1009 1016 1010
f 1010 1016 1015
f 1012 1010 1015
f 1012 1011 1010
f 1012 1013 1011
f 1194 1013 1012
f 1017 1008 1018
f 1193 1018 1008
f 1005 1020 1019
f 1020 1005 1017
f 1017 1021 1020
f 1018 1021 1017
f 1018 1023 1021
f 1018 1199 1023
f 1016 831 1015
f 1012 1015 1025
f 1012 1025 1026
f 830 1005 1019
f 1022 1020 1021
f 1022 1021 1023
f 1023 1024 1022
f 1022 1024 1028
f 1023 1202 1024
f 1015 831 832
f 832 1025 1015
f 1030 1019 1020
f 1020 1027 1030
f 1027 1020 1022
f 1028 1027 1022
f 1028 1032 1027
f 1028 1024 1202
f 1025 832 1029
f 1026 1025 1029
f 1026 1029 1209
f 1027 1031 1030
f 1027 1032 1031
f 1032 1035 1031
f 1028 1033 1032
f 1033 1035 1032
f 1216 1215 1033
f 1215 1035 1033
f 1044 1029 832
f 1209 1029 1044
f 1030 1034 835
f 1034 1030 1031
f 1031 1035 1034
f 1215 1037 1035
f 835 1034 1039
f 1040 1039 1034
f 1034 1036 1040
f 1036 1041 1040
f 1035 1036 1034
f 1036 1042 1041
f 1037 1036 1035
f 1042 1036 1037
f 836 1044 832
f 1039 1045 844
f 1040 1045 1039
f 1041 1045 1040
f 1042 1047 1041
f 1037 1043 1042
f 1047 1042 1043
f 1043 1052 1047
f 1222 1043 1037
f 1222 1224 1043
f 1038 1044 1048
f 1221 1038 1048
f 1045 1046 1049
f 1046 1045 1041
f 1046 1041 1047
f 1052 1046 1047
f 1046 1050 1049
f 1053 1049 1050
f 1051 1050 1046
f 1052 1051 1046
f 1230 1052 1228
f 1051 1052 1230
f 1054 1053 1051
f 1050 1051 1053
f 1234 1226 1048
f 1049 1053 858
f 1056 1051 1230
f 1234 1048 1058
f 1048 1044 1058
f 1044 863 1058
f 1056 1054 1051
f 867 1054 1060
f 1056 1060 1054
f 1236 1055 1240
f 1240 1055 1057
f 1057 1055 1058
f 1245 1059 1056
f 1058 863 1061
f 1062 1058 1061
f 1057 1058 1062
f 1063 1057 1062
f 1059 1060 1056
f 1245 1064 1059
f 1064 1060 1059
f 1245 1253 1064
f 863 872 1061
f 1061 872 1065
f 1062 1061 1066
f 1066 1061 1065
f 1067 1062 1066
f 1067 1066 1071
f 1063 1062 1067
f 1067 1071 1069
f 1063 1067 1069
f 1247 1063 1069
f 1060 1068 867
f 1064 1068 1060
f 1253 1074 1064
f 1065 879 1070
f 1066 1065 1070
f 1071 1066 1070
f 1069 1071 1072
f 1064 878 1068
f 1064 1073 878
f 1253 1258 1074
f 1256 1072 1259
f 1073 1077 878
f 1074 1073 1064
f 1074 1078 1073
f 1258 1078 1074
f 1075 1070 879
f 1071 1070 1075
f 1076 1071 1075
f 1076 1075 1080
f 1072 1071 1076
f 1072 1076 1083
f 1259 1072 1083
f 898 878 1077
f 1083 1076 1080
f 1073 1078 1077
f 1259 1083 1084
f 1078 1087 1077
f 1088 1087 1078
f 1258 1088 1078
f 1080 890 1685
f 1082 1080 1685
f 1686 1081 1684
f 1266 1684 809
f 1083 1080 1082
f 1085 1083 1082
f 1687 1686 1266
f 1686 1684 1266
f 1084 1083 1085
f 1263 1259 1084
f 1263 1084 1085
f 1700 1687 1266
f 900 1086 1272
f 1087 902 1077
f 903 1087 1688
f 1272 1086 1089
f 1689 1688 1087
f 1258 1090 1088
f 1090 1087 1088
f 1090 1689 1087
f 1273 1090 1258
f 1704 1689 1090
f 904 1092 1091
f 1123 1092 904
f 1103 1100 1091
f 1091 1100 904
f 1105 1091 1093
f 1105 1103 1091
f 1091 1092 1093
f 1093 1092 1095
f 1105 1094 1108
f 1105 1093 1094
f 1093 1097 1094
f 1097 1093 1095
f 1096 1108 1094
f 1096 1094 1097
f 1096 1274 1280
f 1108 1096 1280
f 1096 1097 1274
f 1095 1131 1097
f 1275 1097 1131
f 1098 1103 1101
f 1101 1099 1098
f 1103 1098 1100
f 1138 925 1102
f 925 1138 1135
f 1104 1690 1691
f 1104 1102 1690
f 1138 1102 1107
f 1105 1101 1103
f 1143 1138 1107
f 1104 1691 1106
f 1108 1101 1105
f 1692 1101 1108
f 1107 1104 1693
f 1102 1104 1107
f 1107 1147 1143
f 1281 1692 1108
f 1705 1107 1693
f 1109 1147 1107
f 1110 1152 1147
f 1282 1109 1705
f 1109 1107 1705
f 1147 1109 1110
f 1280 1281 1108
f 1152 1110 1285
f 1111 1112 952
f 1112 1694 952
f 1112 1111 1159
f 1114 954 1113
f 1112 1118 1694
f 1113 1115 1116
f 1116 1695 1696
f 1116 1117 1113
f 1114 1117 1181
f 1114 1113 1117
f 1119 1697 1112
f 1182 1119 1112
f 1181 1117 1183
f 1696 1120 1116
f 1116 1120 1121
f 1121 1117 1116
f 1183 1117 1121
f 1119 1182 1185
f 1183 1121 1186
f 1121 1120 1312
f 1697 1119 1311
f 1717 1699 1698
f 1121 1312 1313
f 1311 1119 1185
f 1699 1717 1310
f 1312 1120 1716
f 1316 1311 1185
f 1186 1121 1313
f 1123 904 962
f 1123 962 1124
f 1125 1124 963
f 1125 963 1122
f 1125 1122 1127
f 1127 1122 1188
f 1092 1123 1126
f 1126 1123 1124
f 1126 1124 1128
f 1128 1124 1125
f 1128 1125 1127
f 1095 1092 1126
f 1095 1126 1129
f 1129 1126 1128
f 1130 1128 1127
f 1130 1127 1188
f 1129 1128 1130
f 1129 1132 1131
f 1095 1129 1131
f 1133 1132 1129
f 1133 1129 1130
f 1133 1130 1134
f 1275 1131 1330
f 1330 1131 1132
f 1139 1135 1138
f 1136 1135 1139
f 973 1135 1137
f 1137 1135 1136
f 1136 1140 1137
f 1140 1158 1137
f 1138 1141 1139
f 1141 1142 1139
f 1142 1136 1139
f 1144 1136 1142
f 1165 1140 1144
f 1144 1140 1136
f 1140 1165 1158
f 1138 1143 1141
f 1144 1170 1165
f 1143 1147 1145
f 1143 1145 1141
f 1145 1146 1141
f 1146 1142 1141
f 1142 1146 1144
f 1147 1152 1145
f 1152 1148 1145
f 1148 1146 1145
f 1146 1148 1151
f 1149 1146 1151
f 1149 1150 1144
f 1149 1144 1146
f 1150 1170 1144
f 1148 1152 1153
f 1148 1153 1151
f 1149 1151 1155
f 1155 1150 1149
f 1156 1150 1155
f 1156 1175 1150
f 1150 1175 1170
f 1154 1151 1153
f 1154 1155 1151
f 1156 1341 1175
f 1285 1342 1152
f 1342 1338 1152
f 1338 1153 1152
f 1339 1153 1338
f 1339 1154 1153
f 1340 1154 1339
f 1340 1155 1154
f 1344 1155 1340
f 1344 1345 1155
f 1155 1345 1156
f 1345 1341 1156
f 1161 1159 985
f 1162 987 1158
f 1157 1160 988
f 988 1160 1161
f 1165 1162 1158
f 1162 1163 1157
f 1157 1163 1160
f 1161 1167 1164
f 1161 1164 1159
f 1162 1168 1163
f 1160 1163 1166
f 1160 1167 1161
f 1166 1167 1160
f 1165 1168 1162
f 1164 1167 1169
f 1164 1169 1180
f 1164 1180 1159
f 1163 1168 1166
f 1166 1171 1167
f 1167 1171 1169
f 1170 1168 1165
f 1168 1171 1166
f 1172 1169 1171
f 1170 1173 1168
f 1171 1174 1172
f 1173 1171 1168
f 1172 1174 1176
f 1173 1174 1171
f 1175 1173 1170
f 1169 1172 1187
f 1174 1378 1176
f 1176 1187 1172
f 1173 1177 1174
f 1341 1376 1175
f 1175 1376 1173
f 1376 1177 1173
f 1176 1378 1377
f 1377 1187 1176
f 1174 1177 1378
f 1114 1178 954
f 1114 1181 1178
f 1178 1181 1179
f 1159 1180 1112
f 1182 1112 1180
f 1190 1181 1183
f 1180 1184 1182
f 1180 1169 1184
f 1183 1186 1190
f 1185 1182 1184
f 1187 1184 1169
f 1401 1185 1184
f 1316 1185 1401
f 1401 1184 1187
f 995 1188 1122
f 1188 995 1194
f 1192 1134 1130
f 1192 1332 1134
f 1181 1189 1179
f 1190 1189 1181
f 1186 1191 1190
f 1406 1191 1186
f 1406 1410 1191
f 1192 1188 1194
f 1192 1130 1188
f 1026 1194 1012
f 1192 1194 1026
f 1193 1189 1195
f 1018 1193 1195
f 1196 1195 1189
f 1189 1190 1196
f 1196 1190 1191
f 1197 1196 1191
f 1191 1409 1197
f 1192 1026 1198
f 1195 1199 1018
f 1199 1195 1196
f 1196 1200 1199
f 1200 1203 1199
f 1205 1203 1200
f 1197 1200 1196
f 1200 1201 1205
f 1201 1200 1197
f 1409 1201 1197
f 1412 1201 1409
f 1210 1198 1026
f 1023 1203 1202
f 1023 1199 1203
f 1204 1202 1203
f 1204 1207 1202
f 1205 1204 1203
f 1205 1208 1204
f 1208 1207 1204
f 1201 1206 1205
f 1206 1208 1205
f 1413 1206 1201
f 1210 1026 1209
f 1198 1210 1435
f 1202 1211 1028
f 1207 1211 1202
f 1207 1212 1211
f 1208 1213 1207
f 1206 1418 1208
f 1418 1213 1208
f 1210 1209 1221
f 1211 1033 1028
f 1211 1216 1033
f 1212 1216 1211
f 1213 1212 1207
f 1213 1214 1212
f 1424 1214 1213
f 1424 1428 1214
f 1038 1221 1209
f 1209 1044 1038
f 1227 1210 1221
f 1435 1210 1227
f 1217 1037 1215
f 1215 1216 1217
f 1218 1214 1428
f 1216 1218 1217
f 1216 1212 1218
f 1218 1219 1217
f 1219 1222 1217
f 1212 1214 1218
f 1222 1037 1217
f 1220 1219 1218
f 1428 1431 1220
f 1218 1428 1220
f 1224 1052 1043
f 1438 1225 1431
f 1222 1223 1224
f 1219 1223 1222
f 1219 1225 1223
f 1220 1225 1219
f 1220 1431 1225
f 1226 1221 1048
f 1221 1226 1227
f 1224 1228 1052
f 1223 1228 1224
f 1229 1228 1223
f 1225 1229 1223
f 1232 1229 1225
f 1232 1225 1438
f 1444 1232 1438
f 1231 1230 1228
f 1229 1231 1228
f 1231 1229 1232
f 1231 1235 1230
f 1447 1233 1232
f 1232 1233 1231
f 1231 1233 1235
f 1444 1447 1232
f 1227 1226 1234
f 1235 1056 1230
f 1442 1227 1457
f 1058 1055 1234
f 1227 1234 1055
f 1236 1227 1055
f 1237 1227 1236
f 1457 1227 1237
f 1233 1238 1235
f 1239 1238 1233
f 1242 1237 1236
f 1243 1237 1242
f 1243 1457 1237
f 1235 1245 1056
f 1238 1245 1235
f 1240 1242 1236
f 1244 1238 1239
f 1454 1244 1239
f 1240 1057 1241
f 1242 1240 1241
f 1241 1243 1242
f 1238 1246 1245
f 1244 1246 1238
f 1057 1063 1247
f 1241 1057 1247
f 1248 1241 1247
f 1249 1243 1248
f 1241 1248 1243
f 1249 1457 1243
f 1250 1253 1245
f 1246 1250 1245
f 1246 1244 1250
f 1248 1247 1251
f 1252 1248 1251
f 1252 1249 1248
f 1462 1249 1252
f 1244 1469 1250
f 1254 1247 1069
f 1251 1247 1254
f 1255 1251 1254
f 1252 1251 1255
f 1252 1255 1465
f 1465 1462 1252
f 1254 1069 1072
f 1255 1254 1256
f 1256 1254 1072
f 1250 1258 1253
f 1250 1261 1258
f 1250 1469 1261
f 1476 1261 1469
f 1257 1255 1256
f 1262 1257 1256
f 1257 1465 1255
f 1262 1260 1257
f 1475 1465 1257
f 1260 1475 1257
f 1262 1256 1259
f 1260 1262 1267
f 1264 1262 1259
f 1262 1264 1267
f 1260 1267 1268
f 1261 1476 1273
f 1261 1273 1258
f 1270 1273 1476
f 1263 1264 1259
f 1265 1264 1263
f 1701 1700 1266
f 1267 1264 1265
f 1702 1701 1266
f 1267 1265 1268
f 1266 1486 1702
f 1486 1266 809
f 1485 1268 1725
f 809 900 1504
f 900 1272 1269
f 1271 1269 1272
f 1270 1703 1273
f 900 1269 1509
f 1509 1269 1271
f 1476 1508 1270
f 1742 1509 1271
f 1508 1703 1270
f 1273 1703 1090
f 1703 1704 1090
f 1280 1274 1277
f 1274 1276 1277
f 1276 1274 1097
f 1275 1276 1097
f 1277 1276 1278
f 1278 1276 1275
f 1330 1278 1275
f 1296 1277 1278
f 1279 1296 1278
f 1283 1109 1282
f 1283 1284 1109
f 1284 1110 1109
f 1284 1285 1110
f 1282 1705 1287
f 1282 1287 1283
f 1283 1288 1284
f 1285 1284 1288
f 1285 1288 1351
f 1280 1277 1286
f 1281 1280 1286
f 1287 1288 1283
f 1277 1294 1289
f 1286 1277 1289
f 1289 1290 1286
f 1286 1290 1281
f 1705 1706 1287
f 1277 1296 1294
f 1295 1288 1287
f 1291 1351 1288
f 1289 1292 1290
f 1287 1706 1293
f 1293 1706 1707
f 1289 1294 1292
f 1287 1708 1295
f 1288 1295 1297
f 1291 1288 1297
f 1297 1298 1291
f 1351 1291 1357
f 1298 1362 1357
f 1291 1298 1357
f 1707 1300 1293
f 1294 1299 1292
f 1292 1299 1710
f 1711 1302 1709
f 1713 1295 1708
f 1713 1297 1295
f 1362 1298 1303
f 1303 1368 1362
f 1299 1294 1301
f 1299 1301 1304
f 1299 1304 1710
f 1712 1305 1714
f 1710 1304 1305
f 1305 1306 1714
f 1294 1296 1307
f 1294 1307 1301
f 1713 1715 1297
f 1307 1296 1279
f 1297 1715 1303
f 1298 1297 1303
f 1303 1308 1368
f 1308 1372 1368
f 1304 1512 1305
f 1305 1512 1514
f 1306 1305 1514
f 1301 1307 1513
f 1301 1513 1304
f 1304 1513 1744
f 1515 1306 1514
f 1308 1715 1745
f 1303 1715 1308
f 1308 1373 1372
f 1308 1309 1373
f 1528 1324 1392
f 1311 1316 1317
f 1718 1310 1717
f 1318 1312 1716
f 1312 1318 1315
f 1313 1312 1315
f 1315 1314 1313
f 1314 1186 1313
f 1310 1718 1719
f 1318 1320 1315
f 1320 1319 1315
f 1319 1314 1315
f 1718 1321 1719
f 1318 1720 1320
f 1317 1316 1402
f 1322 1320 1720
f 1320 1322 1323
f 1392 1402 1386
f 1392 1317 1402
f 1320 1323 1319
f 1317 1392 1324
f 1721 1325 1718
f 1718 1325 1321
f 1720 1722 1326
f 1322 1720 1326
f 1322 1327 1323
f 1322 1326 1327
f 1540 1328 1721
f 1721 1328 1325
f 1326 1722 1723
f 1326 1329 1327
f 1542 1724 1760
f 1724 1542 1326
f 1542 1568 1329
f 1326 1542 1329
f 1568 1405 1329
f 1329 1405 1327
f 1133 1330 1132
f 1330 1133 1331
f 1134 1331 1133
f 1134 1332 1331
f 1330 1333 1278
f 1333 1330 1331
f 1334 1333 1331
f 1334 1331 1332
f 1332 1337 1334
f 1333 1279 1278
f 1279 1333 1335
f 1336 1335 1333
f 1334 1336 1333
f 1337 1336 1334
f 1335 1545 1279
f 1343 1339 1338
f 1343 1340 1339
f 1344 1340 1343
f 1351 1342 1285
f 1346 1338 1342
f 1346 1343 1338
f 1344 1343 1348
f 1349 1344 1348
f 1344 1349 1345
f 1345 1349 1350
f 1341 1345 1350
f 1352 1342 1351
f 1353 1346 1352
f 1346 1342 1352
f 1346 1347 1343
f 1353 1347 1346
f 1347 1348 1343
f 1347 1354 1348
f 1354 1355 1348
f 1355 1349 1348
f 1350 1349 1356
f 1356 1349 1355
f 1352 1351 1357
f 1357 1358 1352
f 1352 1358 1353
f 1353 1358 1359
f 1359 1347 1353
f 1360 1347 1359
f 1360 1354 1347
f 1361 1354 1360
f 1355 1354 1361
f 1361 1356 1355
f 1357 1362 1358
f 1359 1358 1363
f 1363 1364 1359
f 1359 1364 1360
f 1365 1361 1360
f 1356 1361 1367
f 1367 1361 1365
f 1358 1362 1363
f 1362 1368 1363
f 1364 1365 1360
f 1364 1370 1365
f 1370 1371 1366
f 1365 1370 1366
f 1367 1365 1366
f 1363 1368 1369
f 1368 1372 1369
f 1369 1364 1363
f 1369 1370 1364
f 1369 1374 1370
f 1369 1372 1374
f 1374 1375 1371
f 1370 1374 1371
f 1371 1398 1366
f 1373 1544 1375
f 1335 1336 1546
f 1373 1374 1372
f 1375 1374 1373
f 1375 1398 1371
f 1375 1558 1398
f 1375 1544 1558
f 1336 1337 1547
f 1377 1403 1187
f 1376 1379 1177
f 1379 1378 1177
f 1403 1377 1381
f 1384 1377 1378
f 1381 1377 1384
f 1350 1380 1341
f 1341 1380 1376
f 1376 1380 1379
f 1402 1403 1386
f 1386 1403 1381
f 1379 1380 1382
f 1379 1382 1383
f 1383 1384 1379
f 1379 1384 1378
f 1385 1350 1356
f 1385 1380 1350
f 1381 1384 1387
f 1387 1386 1381
f 1382 1385 1388
f 1388 1389 1382
f 1382 1389 1383
f 1389 1384 1383
f 1385 1382 1380
f 1391 1395 1389
f 1387 1389 1395
f 1386 1387 1393
f 1367 1390 1356
f 1356 1390 1385
f 1390 1388 1385
f 1389 1388 1391
f 1389 1387 1384
f 1392 1386 1393
f 1394 1395 1391
f 1393 1387 1395
f 1394 1367 1366
f 1390 1367 1394
f 1391 1390 1394
f 1388 1390 1391
f 1397 1392 1393
f 1394 1366 1398
f 1399 1394 1398
f 1395 1394 1399
f 1558 1560 1398
f 1398 1560 1399
f 1393 1400 1397
f 1400 1396 1397
f 1395 1399 1400
f 1400 1393 1395
f 1401 1402 1316
f 1403 1401 1187
f 1402 1401 1403
f 1314 1406 1186
f 1314 1319 1406
f 1404 1319 1323
f 1404 1407 1319
f 1407 1404 1411
f 1404 1327 1405
f 1323 1327 1404
f 1404 1405 1411
f 1572 1405 1569
f 1319 1407 1406
f 1575 1547 1337
f 1572 1411 1405
f 1407 1410 1406
f 1411 1410 1407
f 1332 1192 1408
f 1408 1337 1332
f 1408 1192 1198
f 1337 1408 1575
f 1410 1409 1191
f 1410 1412 1409
f 1412 1413 1201
f 1410 1414 1412
f 1413 1412 1414
f 1414 1410 1411
f 1414 1417 1413
f 1417 1414 1415
f 1416 1411 1585
f 1415 1411 1416
f 1411 1415 1414
f 1421 1415 1416
f 1408 1198 1422
f 1408 1422 1575
f 1575 1423 1590
f 1418 1206 1413
f 1417 1418 1413
f 1417 1419 1418
f 1417 1420 1419
f 1420 1417 1415
f 1415 1421 1420
f 1575 1422 1423
f 1213 1418 1424
f 1419 1424 1418
f 1420 1426 1419
f 1426 1420 1421
f 1427 1426 1421
f 1198 1435 1422
f 1436 1422 1435
f 1422 1436 1423
f 1436 1605 1423
f 1428 1424 1425
f 1419 1425 1424
f 1425 1419 1426
f 1425 1432 1428
f 1425 1429 1432
f 1433 1432 1429
f 1425 1426 1429
f 1426 1427 1429
f 1430 1429 1427
f 1430 1434 1429
f 1429 1434 1433
f 1601 1430 1427
f 1432 1431 1428
f 1432 1438 1431
f 1442 1435 1227
f 1443 1435 1442
f 1435 1443 1436
f 1433 1439 1432
f 1432 1439 1438
f 1439 1433 1441
f 1434 1441 1433
f 1434 1437 1441
f 1605 1436 1607
f 1439 1444 1438
f 1439 1440 1444
f 1445 1440 1441
f 1439 1441 1440
f 1436 1443 1607
f 1440 1445 1444
f 1446 1445 1441
f 1437 1446 1441
f 1609 1437 1603
f 1446 1437 1609
f 1444 1448 1447
f 1445 1448 1444
f 1447 1239 1233
f 1445 1450 1448
f 1445 1446 1450
f 1443 1442 1457
f 1449 1446 1609
f 1449 1609 1614
f 1446 1449 1450
f 1449 1453 1450
f 1453 1449 1614
f 1460 1443 1457
f 1460 1607 1443
f 1448 1454 1447
f 1607 1460 1451
f 1448 1455 1454
f 1448 1450 1455
f 1452 1453 1614
f 1447 1454 1239
f 1458 1455 1450
f 1450 1453 1458
f 1458 1453 1461
f 1461 1453 1452
f 1452 1614 1461
f 1455 1456 1454
f 1455 1458 1456
f 1451 1464 1616
f 1454 1456 1244
f 1451 1460 1464
f 1457 1249 1459
f 1462 1459 1249
f 1459 1460 1457
f 1463 1460 1459
f 1460 1463 1464
f 1462 1463 1459
f 1463 1462 1466
f 1616 1464 1617
f 1458 1461 1474
f 1474 1461 1615
f 1456 1469 1244
f 1465 1466 1462
f 1465 1470 1466
f 1467 1463 1466
f 1470 1467 1466
f 1464 1463 1468
f 1463 1467 1468
f 1468 1472 1464
f 1464 1472 1623
f 1458 1469 1456
f 1458 1473 1469
f 1470 1465 1475
f 1477 1470 1475
f 1468 1467 1471
f 1467 1479 1471
f 1471 1472 1468
f 1472 1471 1480
f 1480 1471 1479
f 1469 1473 1476
f 1458 1474 1473
f 1260 1477 1475
f 1478 1470 1477
f 1467 1478 1479
f 1470 1478 1467
f 1627 1505 1615
f 1615 1505 1474
f 1479 1483 1480
f 1478 1483 1479
f 1483 1481 1480
f 1481 1483 1484
f 1477 1260 1268
f 1485 1478 1477
f 1482 1478 1485
f 1482 1483 1478
f 1484 1497 1630
f 1487 1482 1485
f 1483 1482 1487
f 1485 1477 1268
f 1511 1473 1474
f 1511 1474 1505
f 1491 1492 1483
f 1483 1492 1484
f 1497 1484 1498
f 1485 1725 1487
f 1486 809 1490
f 1490 809 1496
f 1489 1487 1725
f 1726 1486 1490
f 1490 1496 1494
f 1487 1488 1483
f 1483 1488 1491
f 1489 1488 1487
f 1488 1489 1491
f 1730 1727 1728
f 1731 1491 1729
f 1492 1493 1484
f 1731 1492 1491
f 1492 1731 1493
f 1493 1731 1495
f 1496 1732 1494
f 1732 1496 1733
f 1498 1484 1493
f 1495 1498 1493
f 1496 809 1501
f 1501 809 1504
f 1733 1496 1499
f 1499 1496 1501
f 1497 1498 1500
f 1735 1734 1499
f 1501 1735 1499
f 1735 1501 1502
f 1737 1736 1503
f 1501 1504 1738
f 1738 1504 1507
f 1737 1497 1500
f 1741 1737 1503
f 1506 1507 1504
f 1739 1506 1504
f 1509 1504 900
f 1508 1473 1511
f 1476 1473 1508
f 1742 1510 1509
f 1509 1510 1504
f 1511 1743 1508
f 1511 1505 1743
f 1510 1739 1504
f 1512 1517 1514
f 1515 1514 1518
f 1747 1514 1517
f 1513 1307 1519
f 1308 1745 1309
f 1745 1516 1309
f 1545 1519 1307
f 1279 1545 1307
f 1544 1309 1516
f 1373 1309 1544
f 1516 1558 1544
f 1513 1522 1744
f 1744 1522 1746
f 1522 1520 1746
f 1517 1748 1747
f 1515 1518 1521
f 1749 1747 1748
f 1745 1529 1516
f 1515 1521 1752
f 1545 1548 1519
f 1519 1548 1525
f 1523 1520 1522
f 1750 1520 1523
f 1522 1513 1519
f 1522 1519 1524
f 1523 1522 1524
f 1523 1526 1750
f 1750 1526 1753
f 1552 1524 1525
f 1524 1519 1525
f 1525 1548 1551
f 1525 1551 1552
f 1523 1524 1527
f 1526 1523 1527
f 1535 1526 1527
f 1524 1552 1527
f 1527 1552 1555
f 1527 1555 1535
f 1535 1555 1563
f 1751 1540 1721
f 1531 1540 1751
f 1559 1756 1397
f 1397 1528 1392
f 1397 1756 1528
f 1529 1530 1516
f 1530 1558 1516
f 1559 1530 1756
f 1526 1533 1753
f 1754 1757 1755
f 1757 1534 1755
f 1755 1534 1531
f 1531 1534 1540
f 1537 1541 1760
f 1537 1760 1759
f 1758 1526 1535
f 1536 1758 1535
f 1759 1758 1536
f 1537 1759 1536
f 1535 1539 1536
f 1563 1539 1535
f 1536 1538 1537
f 1539 1538 1536
f 1761 1537 1532
f 1538 1561 1537
f 1561 1532 1537
f 1539 1563 1564
f 1539 1564 1538
f 1542 1760 1541
f 1543 1542 1761
f 1542 1543 1568
f 1761 1532 1543
f 1335 1546 1545
f 1546 1336 1547
f 1546 1549 1545
f 1545 1549 1548
f 1551 1548 1549
f 1546 1547 1550
f 1546 1550 1549
f 1575 1550 1547
f 1551 1549 1553
f 1552 1551 1553
f 1555 1553 1556
f 1555 1552 1553
f 1553 1549 1554
f 1553 1554 1556
f 1549 1550 1554
f 1554 1550 1577
f 1555 1556 1563
f 1554 1557 1556
f 1563 1556 1566
f 1556 1557 1566
f 1577 1557 1554
f 1566 1557 1576
f 1558 1530 1560
f 1530 1559 1560
f 1559 1396 1560
f 1397 1396 1559
f 1396 1399 1560
f 1400 1399 1396
f 1561 1562 1570
f 1532 1561 1570
f 1562 1574 1570
f 1538 1564 1565
f 1561 1538 1565
f 1561 1565 1562
f 1563 1566 1564
f 1564 1566 1567
f 1564 1567 1565
f 1565 1574 1562
f 1567 1566 1576
f 1565 1567 1571
f 1565 1571 1574
f 1567 1576 1571
f 1405 1568 1569
f 1569 1573 1572
f 1543 1532 1570
f 1543 1570 1568
f 1568 1570 1569
f 1569 1570 1573
f 1573 1570 1574
f 1575 1577 1550
f 1577 1576 1557
f 1573 1574 1572
f 1576 1579 1571
f 1571 1579 1574
f 1578 1411 1572
f 1574 1579 1578
f 1574 1578 1572
f 1575 1590 1577
f 1584 1579 1576
f 1577 1595 1576
f 1584 1576 1581
f 1578 1579 1580
f 1579 1584 1580
f 1577 1590 1595
f 1583 1587 1578
f 1583 1588 1587
f 1584 1582 1580
f 1578 1580 1583
f 1580 1582 1583
f 1583 1582 1588
f 1411 1578 1585
f 1587 1585 1578
f 1585 1586 1416
f 1416 1586 1421
f 1585 1587 1586
f 1581 1576 1591
f 1586 1587 1594
f 1582 1589 1588
f 1582 1584 1589
f 1584 1593 1589
f 1584 1581 1593
f 1581 1591 1593
f 1421 1586 1594
f 1594 1587 1592
f 1423 1605 1590
f 1576 1595 1591
f 1593 1591 1599
f 1587 1588 1592
f 1596 1592 1588
f 1592 1596 1601
f 1589 1593 1597
f 1597 1593 1599
f 1589 1597 1598
f 1589 1598 1588
f 1596 1588 1598
f 1594 1427 1421
f 1592 1601 1594
f 1594 1601 1427
f 1590 1606 1595
f 1595 1606 1591
f 1598 1602 1596
f 1600 1602 1598
f 1597 1600 1598
f 1599 1600 1597
f 1602 1601 1596
f 1590 1605 1606
f 1606 1608 1591
f 1591 1608 1599
f 1599 1608 1600
f 1430 1601 1602
f 1604 1430 1602
f 1434 1430 1604
f 1603 1602 1600
f 1602 1603 1604
f 1434 1604 1437
f 1437 1604 1603
f 1605 1607 1606
f 1600 1608 1611
f 1613 1608 1606
f 1610 1603 1600
f 1603 1610 1609
f 1600 1611 1610
f 1451 1606 1607
f 1608 1613 1612
f 1608 1612 1611
f 1614 1609 1610
f 1606 1616 1613
f 1606 1451 1616
f 1611 1620 1610
f 1611 1612 1620
f 1612 1613 1616
f 1612 1616 1620
f 1610 1615 1614
f 1615 1461 1614
f 1610 1620 1615
f 1616 1621 1620
f 1616 1618 1621
f 1618 1616 1619
f 1616 1617 1619
f 1620 1627 1615
f 1464 1623 1617
f 1617 1623 1624
f 1618 1619 1625
f 1625 1626 1618
f 1619 1617 1625
f 1617 1624 1625
f 1622 1627 1620
f 1620 1621 1622
f 1618 1626 1621
f 1621 1626 1622
f 1623 1472 1480
f 1624 1623 1480
f 1481 1624 1480
f 1629 1625 1624
f 1625 1629 1626
f 1626 1629 1628
f 1627 1622 1628
f 1626 1628 1622
f 1629 1624 1630
f 1481 1484 1624
f 1624 1484 1630
f 1505 1627 1740
f 1627 1628 1740
f 1628 1629 1741
f 1628 1741 1740
f 1737 1630 1497
f 1630 1737 1629
f 1629 1737 1741
