o FMA3736_BP10329_FJ3413
v 28.046 -119.449 1241.67
v 28.943 -119.673 1245.64
v 28.6507 -116.291 1245.85
v 28.4964 -117.341 1243.43
v 28.7036 -120.159 1248.44
v 28.4182 -121.206 1243.4
v 27.7262 -124.358 1246.03
v 25.5706 -111.117 1243.3
v 24.9525 -109.889 1246.02
v 25.126 -110.363 1248.74
v 24.2842 -110.881 1251.53
v 24.3089 -115.423 1237.5
v 26.4991 -114.266 1240.82
v 27.9429 -114.886 1243.65
v 27.2744 -112.799 1245.96
v 27.5184 -114.2 1249.29
v 24.8742 -113.865 1254.14
v 26.1425 -119.305 1238.57
v 26.9031 -117.525 1239.74
v 27.096 -119.61 1252.9
v 24.3709 -120.213 1236.9
v 23.6918 -123.493 1237.29
v 27.3644 -122.074 1241.09
v 27.0724 -124.364 1242.55
v 25.3663 -123.457 1238.88
v 27.1299 -123.782 1250.8
v 25.6926 -126.579 1242.85
v 24.2374 -125.289 1238.97
v 23.4647 -128.143 1241.62
v 26.0532 -126.655 1248.13
v 23.7072 -129.101 1246.43
v 21.4783 -110.607 1238.8
v 23.4444 -109.216 1243.13
v 23.4011 -110.567 1240.5
v 21.7193 -108.59 1242.14
v 22.3169 -108.067 1245.52
v 20.0888 -107.218 1247.7
v 23.0059 -109.103 1249.71
v 23.1488 -112.869 1237.93
v 20.9365 -114.433 1235.79
v 20.3806 -112.147 1236.84
v 21.7609 -117.859 1235.26
v 21.1033 -122.18 1235.36
v 22.5744 -122.683 1261.44
v 21.4788 -125.135 1236.84
v 22.3697 -127.719 1239.7
v 20.0389 -128.053 1238.72
v 21.8856 -126.884 1260.81
v 21.1839 -129.159 1240.94
v 21.2291 -130.361 1245.04
v 19.0942 -130.615 1263.54
v 16.7953 -106.662 1246.18
v 16.6457 -110.261 1237.79
v 19.0004 -108.347 1240.68
v 16.2759 -107.412 1242.22
v 19.5505 -107.18 1244.36
v 17.0301 -107.665 1251.39
v 18.0814 -113.17 1235.63
v 15.2957 -114.843 1234.88
v 18.9776 -117.38 1234.4
v 17.23 -118.495 1234.06
v 18.8617 -118.596 1267.39
v 16.1652 -120.123 1280.54
v 15.9816 -120.106 1281.45
v 15.0751 -120.007 1281.83
v 14.7798 -117.944 1280.95
v 18.731 -120.408 1234.34
v 18.2617 -121.152 1271.82
v 16.986 -123.204 1281.01
v 14.2823 -124.652 1281.88
v 18.055 -125.352 1235.95
v 16.3069 -128.678 1238.7
v 18.5424 -127.004 1272.74
v 17.084 -128.579 1279.35
v 16.1605 -129.104 1281.65
v 17.2286 -130.668 1242.43
v 14.1239 -129.998 1241.33
v 15.5441 -131.785 1280.42
v 14.764 -130.88 1281.88
v 14.2722 -132.962 1281.59
v 13.8109 -134.234 1255.35
v 13.4394 -108.367 1241.03
v 11.1271 -108.78 1242.15
v 13.9367 -107.029 1244.86
v 12.9957 -107.457 1249.07
v 11.1054 -108.043 1246.46
v 14.329 -112.371 1236.24
v 11.9494 -113.481 1236.4
v 11.1877 -111.065 1238.7
v 14.3483 -113.644 1266.75
v 11.2728 -114.796 1276.47
v 12.2229 -115.531 1280.96
v 11.5741 -116.03 1281.86
v 12.6238 -117.406 1234.87
v 14.192 -117.019 1277.82
v 13.9792 -116.99 1280.94
v 14.0105 -117.298 1281.57
v 14.5487 -119.521 1234.24
v 14.3547 -122.973 1234.95
v 11.7201 -121.596 1235.32
v 13.9494 -127.22 1237.61
v 11.4379 -123.939 1236.27
v 10.1089 -125.621 1238.18
v 10.3351 -128.13 1240.82
v 13.7944 -134.01 1280.08
v 13.0678 -133.563 1281.87
v 10.4872 -134.205 1253.68
v 13.9938 -134.99 1266.9
v 9.69324 -136.75 1266.74
v 11.7343 -135.614 1280.33
v 11.4808 -135.499 1281.5
v 10.0165 -135.236 1281.85
v 9.10393 -109.838 1243.14
v 9.21215 -113.565 1238.1
v 8.67861 -111.646 1240.4
v 7.26678 -114.408 1239.68
v 6.11704 -113.141 1243.44
v 6.8511 -112.941 1270.82
v 9.27932 -114.335 1281.75
v 8.11979 -113.57 1280.83
v 7.98638 -114.195 1281.85
v 6.70294 -113.53 1281.69
v 8.60479 -116.437 1237.33
v 8.43874 -118.826 1237.12
v 6.75749 -117.664 1238.99
v 5.81048 -116.09 1241.03
v 9.8988 -121.56 1236.31
v 9.42932 -123.376 1237.26
v 7.06398 -121.64 1238.97
v 7.39959 -124.665 1240.24
v 6.60145 -127.957 1244.47
v 7.18791 -133.213 1252.69
v 8.96046 -135.895 1260.5
v 6.42036 -135.276 1258.88
v 5.62835 -137.439 1271.7
v 8.01014 -137.429 1275.19
v 9.29767 -136.725 1280.38
v 7.33766 -137.095 1281.21
v 5.41322 -137.346 1280.39
v 2.59655 -113.769 1255.21
v 5.29871 -113.139 1280.84
v 3.66575 -113.409 1281.68
v 4.20969 -114.324 1281.87
v 2.96736 -113.711 1281.69
v 2.50411 -113.472 1280.64
v 1.77266 -113.913 1281.65
v 5.155 -118.913 1241.46
v 1.72046 -118.863 1248.62
v 3.05385 -123.365 1246.01
v 3.19563 -127.42 1248.45
v 3.39775 -131.954 1254.25
v 3.73582 -134.226 1258.54
v 4.04014 -135.923 1263.7
v 1.37211 -134.075 1261.82
v 1.76293 -136.563 1271.33
v 0.882022 -136.587 1276.99
v 3.60278 -136.295 1281.81
v 0.637302 -136.229 1281.33
v 0.96067 -114.582 1269.54
v 0.531002 -115.24 1281.84
v -0.82046 -114.866 1280.25
v -0.566315 -119.027 1254.58
v -0.365867 -116.768 1258.57
v -3.43878 -119.365 1266.95
v -2.28507 -115.945 1281.58
v -2.89213 -116.397 1280.21
v -1.30843 -123.177 1254.77
v -3.30109 -123.474 1260.6
v -3.08214 -121.127 1261.26
v -0.54902 -127.891 1255.4
v -2.31585 -126.2 1258.28
v -0.0853643 -130.92 1258.22
v -1.85129 -132.738 1265.86
v -3.37121 -130.199 1265.51
v -3.81839 -131.614 1270.08
v -3.92153 -132.972 1277.28
v -2.12978 -133.062 1281.85
v 0.166246 -134.942 1267.2
v -2.51054 -133.605 1270.99
v -1.89237 -134.889 1275.77
v -1.04791 -135.537 1280.65
v -3.1191 -133.907 1280.69
v -3.07491 -133.735 1281.51
v -2.81491 -117.832 1281.88
v -3.96919 -117.592 1281.53
v -3.90875 -117.587 1279.67
v -4.77254 -123.568 1266.94
v -4.27987 -121.421 1281.9
v -6.20057 -121.271 1281.44
v -5.69555 -121.249 1281.8
v -5.15347 -123.647 1281.87
v -4.80306 -126.905 1266.98
v -5.44989 -128.366 1271.67
v -5.87985 -126.493 1272.5
v -5.66058 -128.612 1281.9
v -6.82218 -124.602 1281.32
v -6.49924 -127.221 1280.15
v -5.12942 -130.555 1274.7
v -5.10649 -131.28 1280.78
v -5.21812 -130.874 1281.7
v 15.9816 -120.106 1281.45
v 16.986 -123.204 1281.01
v 16.1605 -129.104 1281.65
v 14.2722 -132.962 1281.59
v 11.5741 -116.03 1281.86
v 14.0105 -117.298 1281.57
v 11.4808 -135.499 1281.5
v 9.27932 -114.335 1281.75
v 7.98638 -114.195 1281.85
v 6.70294 -113.53 1281.69
v 9.29767 -136.725 1280.38
v 7.33766 -137.095 1281.21
v 7.33766 -137.095 1281.21
v 3.66575 -113.409 1281.68
v 2.96736 -113.711 1281.69
v 1.77266 -113.913 1281.65
v 1.77266 -113.913 1281.65
v 3.60278 -136.295 1281.81
v 0.637302 -136.229 1281.33
v 0.531002 -115.24 1281.84
v -0.82046 -114.866 1280.25
v -2.28507 -115.945 1281.58
v -2.28507 -115.945 1281.58
v -3.07491 -133.735 1281.51
v -3.96919 -117.592 1281.53
v -6.20057 -121.271 1281.44
v -5.66058 -128.612 1281.9
v -6.82218 -124.602 1281.32
v -5.21812 -130.874 1281.7
f 15 3 14
f 3 15 16
f 4 6 1
f 13 14 4
f 1 6 23
f 2 7 6
f 2 3 5
f 3 2 4
f 4 2 6
f 2 5 7
f 3 4 14
f 3 16 5
f 16 20 5
f 20 26 5
f 5 26 7
f 7 26 30
f 26 51 30
f 15 9 10
f 15 8 9
f 8 33 9
f 38 10 9
f 15 10 16
f 11 16 10
f 11 10 38
f 13 19 12
f 8 14 13
f 8 15 14
f 13 34 8
f 34 13 39
f 39 13 12
f 16 17 20
f 16 11 17
f 18 12 19
f 21 12 18
f 4 19 13
f 23 18 1
f 4 1 19
f 19 1 18
f 18 25 21
f 22 21 25
f 25 28 22
f 22 43 21
f 23 6 24
f 24 25 23
f 18 23 25
f 20 44 26
f 26 44 48
f 45 22 28
f 28 24 27
f 24 28 25
f 27 29 28
f 46 28 29
f 29 27 31
f 45 28 46
f 50 29 31
f 24 6 7
f 27 24 7
f 7 30 27
f 31 27 30
f 31 30 108
f 51 108 30
f 51 26 48
f 8 34 33
f 33 35 36
f 35 33 34
f 35 56 36
f 35 34 32
f 35 32 54
f 56 35 54
f 33 36 9
f 38 36 37
f 38 9 36
f 36 56 37
f 56 52 37
f 37 57 38
f 38 90 11
f 90 17 11
f 40 41 39
f 39 12 40
f 32 34 39
f 32 39 41
f 53 32 41
f 40 58 41
f 67 60 42
f 42 40 12
f 42 12 21
f 40 42 60
f 62 20 17
f 62 68 44
f 43 42 21
f 42 43 67
f 67 43 71
f 62 44 20
f 48 44 73
f 68 73 44
f 22 45 43
f 71 43 45
f 45 46 47
f 45 47 71
f 72 71 47
f 49 46 29
f 49 29 50
f 47 46 49
f 73 51 48
f 49 50 76
f 76 47 49
f 47 76 72
f 31 108 50
f 50 108 81
f 52 85 57
f 54 32 53
f 56 54 55
f 54 53 55
f 52 56 55
f 55 53 82
f 52 57 37
f 38 57 90
f 58 60 59
f 41 58 53
f 87 53 58
f 87 58 59
f 90 62 17
f 60 61 59
f 98 59 61
f 94 59 98
f 58 40 60
f 62 95 68
f 62 90 95
f 68 95 63
f 63 95 66
f 64 69 63
f 202 201 65
f 63 66 64
f 61 60 67
f 98 61 67
f 98 67 99
f 67 71 99
f 68 69 73
f 69 68 63
f 65 70 202
f 71 101 99
f 72 101 71
f 77 101 72
f 99 101 102
f 73 74 51
f 73 69 74
f 69 75 74
f 75 78 74
f 203 202 70
f 74 78 51
f 72 76 77
f 81 76 50
f 78 75 80
f 70 79 203
f 79 204 203
f 112 79 70
f 106 204 79
f 112 106 79
f 80 105 78
f 105 51 78
f 89 53 87
f 55 84 52
f 89 82 53
f 55 82 84
f 82 83 84
f 83 86 84
f 89 115 83
f 89 83 82
f 84 85 52
f 84 86 85
f 57 85 118
f 90 57 118
f 59 88 87
f 88 89 87
f 123 114 88
f 91 95 90
f 91 90 118
f 96 92 97
f 95 92 96
f 97 92 93
f 91 120 92
f 95 91 92
f 94 88 59
f 123 88 94
f 66 95 96
f 66 96 97
f 64 66 97
f 201 206 65
f 143 70 65
f 205 65 206
f 143 65 205
f 99 100 98
f 94 98 100
f 102 100 99
f 100 127 94
f 100 102 127
f 127 102 128
f 102 103 128
f 103 102 101
f 104 103 101
f 77 104 101
f 128 103 130
f 77 132 104
f 103 104 130
f 151 104 132
f 107 77 76
f 77 107 132
f 76 81 107
f 133 107 81
f 81 108 109
f 51 105 108
f 111 105 80
f 207 204 106
f 105 110 108
f 111 110 105
f 112 207 106
f 207 112 137
f 110 111 211
f 138 137 112
f 110 211 108
f 136 108 211
f 113 86 83
f 115 113 83
f 140 86 113
f 140 159 86
f 89 88 114
f 114 115 89
f 116 115 114
f 116 117 115
f 117 113 115
f 126 117 116
f 113 117 140
f 118 120 91
f 92 120 119
f 92 119 93
f 119 120 121
f 209 205 208
f 141 120 118
f 143 205 209
f 122 120 141
f 122 121 120
f 210 143 209
f 123 94 124
f 124 125 123
f 126 116 125
f 123 125 116
f 123 116 114
f 124 129 125
f 125 129 147
f 147 126 125
f 128 129 127
f 94 127 124
f 127 129 124
f 129 128 130
f 131 130 104
f 151 131 104
f 131 150 130
f 130 150 149
f 130 149 129
f 152 151 132
f 133 134 107
f 133 153 134
f 134 132 107
f 133 81 109
f 153 133 135
f 109 108 136
f 109 136 135
f 133 109 135
f 211 212 136
f 136 212 139
f 135 136 139
f 157 139 212
f 140 117 163
f 159 85 86
f 118 85 159
f 122 141 142
f 214 143 210
f 118 145 141
f 214 144 143
f 141 145 142
f 118 159 145
f 142 145 215
f 215 145 146
f 143 144 216
f 216 160 143
f 159 161 145
f 161 146 145
f 126 147 148
f 117 126 148
f 147 129 149
f 148 147 149
f 150 170 149
f 150 131 151
f 150 172 170
f 151 172 150
f 154 172 151
f 154 151 152
f 177 112 70
f 152 132 134
f 134 153 152
f 153 154 152
f 154 153 178
f 178 153 155
f 135 155 153
f 156 180 155
f 156 155 135
f 135 139 156
f 112 218 213
f 177 218 112
f 177 158 218
f 219 139 157
f 156 139 219
f 156 219 181
f 161 159 163
f 217 221 220
f 70 143 160
f 221 165 220
f 166 222 161
f 163 166 161
f 117 148 162
f 117 162 163
f 163 162 169
f 159 140 163
f 163 169 164
f 186 166 163
f 166 185 222
f 225 184 223
f 223 184 160
f 184 70 160
f 149 167 148
f 167 162 148
f 167 168 162
f 169 162 168
f 169 187 164
f 169 168 187
f 149 170 171
f 149 171 167
f 171 170 174
f 167 171 168
f 171 192 168
f 192 171 174
f 195 177 70
f 170 172 174
f 154 173 172
f 172 173 174
f 174 173 175
f 173 179 175
f 179 176 175
f 200 183 177
f 173 154 178
f 180 178 155
f 176 179 180
f 179 173 178
f 180 179 178
f 181 180 156
f 224 181 219
f 183 158 177
f 181 182 180
f 224 182 181
f 176 180 182
f 186 163 164
f 164 189 186
f 185 166 186
f 185 186 189
f 196 187 194
f 196 189 187
f 189 164 187
f 188 70 184
f 191 70 188
f 225 190 184
f 190 188 184
f 190 191 188
f 225 226 190
f 226 228 190
f 228 191 190
f 168 192 187
f 192 174 193
f 187 192 194
f 192 193 194
f 196 194 197
f 194 193 197
f 191 195 70
f 195 191 228
f 197 227 196
f 193 174 175
f 175 198 193
f 198 197 193
f 175 176 198
f 199 224 229
f 199 176 182
f 199 182 224
f 200 177 195
f 198 176 199
f 227 197 229
f 197 198 199
f 229 197 199
