o FMA3895_BP8397_FJ2649
v 34.5991 -120.577 1254
v 34.6858 -120.958 1254
v 34.802 -120.758 1253.79
v 34.786 -120.369 1253.78
v 35.0299 -121.177 1253.79
v 34.8843 -120.977 1253.79
v 35.0557 -120.76 1253.59
v 35.0914 -121.554 1254.12
v 35.0831 -120.973 1253.63
v 35.1367 -120.351 1253.51
v 34.3756 -120.764 1254.78
v 34.4091 -120.75 1255.17
v 34.4142 -120.565 1254.38
v 34.3669 -120.365 1254.58
v 34.3553 -120.365 1254.97
v 34.4533 -120.371 1255.37
v 34.651 -121.367 1254.96
v 34.5115 -121.157 1254.77
v 34.5509 -121.144 1255.18
v 34.5043 -120.965 1254.38
v 34.5008 -120.776 1255.41
v 34.8162 -121.338 1254.17
v 34.7126 -121.359 1254.41
v 34.7708 -121.368 1255.36
v 34.7362 -121.159 1255.57
v 34.8791 -121.595 1254.59
v 34.8869 -121.613 1254.98
v 34.8853 -121.535 1254.37
v 34.9032 -121.365 1255.58
v 35.0913 -121.691 1254.39
v 35.0913 -121.762 1254.74
v 35.1007 -121.758 1255
v 35.0868 -121.635 1255.38
v 34.7887 -120.946 1255.78
v 34.6804 -120.547 1255.76
v 34.8964 -120.565 1255.98
v 34.9282 -121.168 1255.78
v 35.0891 -120.953 1256.02
v 34.8757 -119.972 1253.8
v 34.9508 -119.534 1254.07
v 35.0955 -120.105 1253.58
v 35.3122 -119.624 1253.64
v 34.4587 -119.966 1254.58
v 34.45 -119.966 1255
v 34.5289 -120.176 1254.18
v 34.6521 -119.976 1255.57
v 34.6485 -119.574 1254.77
v 34.6821 -119.775 1254.18
v 34.7246 -119.579 1254.38
v 34.7095 -119.573 1255.18
v 34.8952 -119.605 1255.58
v 35.0139 -119.318 1254.34
v 35.0269 -119.229 1254.75
v 35.209 -119.225 1255.32
v 34.8762 -120.179 1255.93
v 35.0301 -119.944 1255.95
v 35.1019 -120.17 1256.08
v 35.4852 -121.897 1254.57
v 35.4689 -121.91 1254.97
v 35.4788 -121.816 1255.36
v 35.7378 -121.957 1254.8
v 35.6875 -121.917 1255.17
v 35.857 -121.826 1254.2
v 35.886 -121.939 1254.57
v 35.8735 -121.857 1255.39
v 36.0857 -121.798 1254.19
v 36.0803 -121.942 1254.78
v 36.0794 -121.9 1255.17
v 36.274 -121.874 1254.57
v 36.5263 -121.764 1254.56
v 36.466 -121.82 1254.8
v 35.2772 -121.368 1253.77
v 35.2772 -121.165 1253.62
v 35.2783 -120.964 1253.52
v 35.4853 -121.637 1253.97
v 35.4787 -121.757 1254.16
v 35.4915 -121.359 1253.67
v 35.4798 -121.149 1253.54
v 35.511 -120.743 1253.39
v 35.8734 -121.707 1253.99
v 35.9039 -121.506 1253.77
v 35.9046 -121.12 1253.47
v 36.3238 -121.581 1253.94
v 35.4713 -121.71 1255.58
v 35.6795 -121.763 1255.57
v 35.9156 -121.754 1255.59
v 36.2582 -121.696 1255.56
v 36.5318 -121.63 1254.17
v 36.4651 -121.758 1255.22
v 36.4808 -121.592 1255.57
v 36.7816 -121.631 1254.74
v 36.7758 -121.577 1255.14
v 36.7566 -121.395 1255.54
v 35.2749 -121.476 1255.77
v 35.2801 -121.168 1256.02
v 35.479 -121.364 1255.97
v 35.4933 -121.172 1256.1
v 35.4787 -120.965 1256.19
v 35.4586 -120.565 1256.26
v 35.6741 -121.612 1255.78
v 35.6965 -121.367 1256.01
v 35.6923 -120.765 1256.28
v 35.8687 -121.149 1256.16
v 35.8686 -120.37 1256.31
v 36.0613 -121.595 1255.78
v 36.0783 -121.363 1255.99
v 36.0807 -120.762 1256.26
v 36.2782 -121.531 1255.78
v 36.2881 -121.311 1255.97
v 36.27 -121.148 1256.07
v 36.3272 -120.306 1256.21
v 36.4924 -121.36 1255.82
v 36.6016 -121.07 1255.93
v 36.5948 -120.66 1256.09
v 35.9144 -119.736 1253.21
v 36.0829 -119.976 1253.12
v 36.7325 -120.117 1252.98
v 35.3872 -119.399 1255.73
v 35.4952 -120.157 1256.24
v 35.5164 -119.742 1256.07
v 35.9646 -119.74 1256.11
v 37.0631 -120.581 1253.2
v 37.7631 -120.862 1253.95
v 37.7102 -120.598 1253.41
v 37.1663 -120.931 1255.56
v 37.3257 -119.117 1252.69
v 37.9757 -120.088 1252.99
v 37.7004 -118.753 1255.52
v 37.2676 -119.803 1255.84
v 37.1807 -118.038 1253.24
v 37.2531 -117.725 1253.78
v 37.6519 -118.384 1252.65
v 37.2314 -118.41 1255.29
v 37.393 -117.903 1254.81
v 37.4293 -117.66 1254.37
v 38.3157 -117.146 1254.36
v 38.3697 -116.939 1253.98
v 38.5081 -119.14 1252.49
v 39.6741 -118.747 1252.41
v 39.0929 -119.612 1252.98
v 39.8646 -119.35 1253.4
v 39.8835 -119.187 1253.01
v 38.7525 -120.22 1254.2
v 38.756 -120.083 1254.62
v 39.9016 -119.104 1254.37
v 38.5009 -118.555 1252.33
v 38.852 -117.147 1252.4
v 38.5322 -117.217 1254.6
v 38.6984 -117.526 1254.91
v 39.5587 -117.237 1254.83
v 39.7669 -117.653 1254.92
v 38.9958 -116.384 1253.4
v 39.1985 -116.449 1252.64
v 39.4493 -116.127 1253.79
v 39.6027 -116.306 1254.2
v 40.0493 -119.224 1253.8
v 40.1482 -117.446 1251.87
v 40.4751 -118.35 1252.38
v 40.5151 -117.533 1251.88
v 41.4116 -117.225 1251.89
v 40.6419 -118.444 1252.6
v 41.0457 -118.393 1253.2
v 41.0857 -118.327 1253.58
v 41.2328 -118.128 1252.79
v 40.3977 -118.223 1254.57
v 40.1775 -117.99 1254.77
v 41.4565 -117.391 1254.17
v 40.163 -115.717 1252.17
v 40.2964 -116.672 1251.76
v 40.157 -115.388 1253.33
v 40.0562 -116.178 1254.3
v 41.4337 -117.016 1254.32
v 40.5089 -115.058 1252.45
v 41.2989 -115.084 1251.51
v 41.4852 -114.174 1251.78
v 40.4854 -115.375 1253.78
v 41.4795 -114.636 1253.74
v 41.6659 -117.414 1252.19
v 42.0929 -117.229 1252.4
v 41.647 -117.607 1253.79
v 41.9354 -117.554 1252.98
v 42.0844 -117.341 1253.37
v 42.0504 -116.373 1251.58
v 42.303 -116.499 1251.77
v 43.0629 -116.065 1251.99
v 42.3884 -116.798 1253.6
v 42.2794 -116.374 1253.96
v 42.6994 -116.566 1253.37
v 42.8484 -116.557 1252.57
v 42.6762 -116.394 1253.58
v 42.8558 -116.542 1252.98
v 41.6636 -116.391 1254.29
v 42.5615 -114.292 1250.99
v 42.2843 -115.362 1251.21
v 43.1518 -115.033 1251.2
v 43.2111 -114.55 1250.99
v 41.7516 -113.774 1253.11
v 41.9365 -115.023 1254.03
v 42.9659 -115.313 1253.76
v 42.8204 -114.77 1253.84
v 41.8094 -113.425 1252.17
v 42.7354 -112.579 1251.18
v 43.0107 -111.67 1251.89
v 43.1919 -111.598 1252.3
v 43.3516 -115.941 1252.36
v 43.4438 -115.741 1252.97
v 43.2838 -115.611 1253.37
v 43.5123 -115.761 1252.57
v 43.6219 -114.93 1251.37
v 44.1239 -114.599 1251.54
v 44.0684 -114.936 1251.99
v 44.2536 -114.723 1252.39
v 44.667 -114.068 1252.37
v 43.896 -114.326 1253.32
v 44.2379 -114.561 1252.77
v 44.2929 -114.207 1252.97
v 43.5359 -112.509 1250.58
v 44.2659 -113.004 1253.23
v 44.5582 -112.101 1250.28
v 43.4958 -111.026 1251.15
v 44.5162 -109.601 1251.76
v 44.513 -110.184 1252.28
v 44.823 -108.764 1250.74
v 44.7573 -108.934 1251.14
v 45.0103 -113.473 1251.51
v 44.9656 -113.649 1251.94
v 45.2708 -112.844 1252.4
v 45.7196 -112.313 1251.94
v 45.0721 -112.557 1252.76
v 45.14 -111.932 1250.29
v 45.7864 -111.299 1250.2
v 45.6614 -110.789 1252.49
v 45.9879 -111.395 1252.17
v 45.9063 -111.101 1252.33
v 44.7555 -111.381 1252.86
v 44.8336 -109.652 1249.96
v 45.4525 -110 1249.63
v 45.866 -110.388 1249.73
v 45.4927 -109.12 1252.01
v 45.7092 -109.921 1252.34
v 44.7704 -110.636 1252.61
v 45.9312 -108.505 1249.2
v 46.0978 -108.949 1249.2
v 45.4449 -107.962 1249.86
v 45.809 -107.776 1249.36
v 45.2768 -108.677 1251.59
v 45.663 -107.747 1250.99
v 46.0474 -108.93 1251.98
v 46.1255 -107.496 1251.14
v 46.4125 -106.484 1248.94
v 46.2193 -106.513 1249.45
v 46.1814 -107.068 1250.78
v 46.3686 -95.3844 1240.6
v 46.3118 -95.3489 1240.96
v 46.3125 -95.1772 1241.18
v 46.3817 -94.9889 1241.4
v 46.2327 -94.2547 1239.4
v 46.1777 -93.6825 1239.07
v 46.2123 -93.3275 1239.12
v 46.4344 -94.6341 1239.28
v 46.1968 -94.4362 1240.06
v 46.2573 -94.3675 1240.57
v 46.1866 -93.9626 1239.77
v 46.3949 -94.1958 1240.81
v 46.3319 -93.5798 1239.97
v 46.294 -92.1822 1236.54
v 46.2201 -92.7807 1238
v 46.3143 -92.1694 1237.53
v 46.3435 -92.7499 1238.77
v 46.4792 -90.7107 1233.57
v 46.4641 -90.5716 1233.97
v 46.3511 -91.3643 1235.57
v 46.4227 -91.1588 1235.75
v 46.4956 -109.017 1249.17
v 47.1595 -109.706 1249.99
v 46.8362 -110.346 1251.39
v 46.7454 -109.947 1251.75
v 46.6767 -109.396 1251.87
v 46.8793 -107.947 1248.7
v 47.2535 -108.77 1249.18
v 47.642 -109.153 1250.44
v 47.8148 -108.563 1250.78
v 46.4915 -107.756 1251.44
v 46.6486 -109.003 1251.85
v 47.0261 -107.833 1251.43
v 47.5474 -108.424 1251.2
v 47.4729 -107.959 1251.26
v 46.8299 -106.6 1248.4
v 47.2347 -106.821 1248.18
v 47.7064 -106.687 1247.99
v 47.8471 -107.177 1248.26
v 47.3347 -106.073 1250.54
v 47.8582 -106.615 1250.75
v 47.2928 -106.797 1250.97
v 47.8675 -105.565 1247.44
v 47.243 -104.687 1248.09
v 47.3573 -105.338 1247.77
v 46.7706 -105.634 1249.64
v 47.8424 -103.312 1246.96
v 47.7699 -103.178 1247.56
v 47.936 -103.605 1246.79
v 47.4126 -104.137 1248.26
v 47.4672 -104.266 1248.84
v 47.9709 -103.75 1248.87
v 47.8722 -103.139 1247.99
v 48.0564 -102.383 1246.37
v 48.0512 -101.996 1246.43
v 47.995 -100.395 1245.25
v 48.0769 -100.603 1245.8
v 47.4968 -97.9689 1242.48
v 47.8863 -97.938 1242.19
v 47.4489 -98.6037 1243.86
v 47.6965 -98.9796 1243.6
v 47.877 -99.2277 1245.17
v 47.131 -96.6091 1241.07
v 47.6991 -96.4657 1240.8
v 46.8095 -96.9905 1242.59
v 46.7948 -96.8544 1242.05
v 46.7936 -96.7896 1242.79
v 46.8639 -96.568 1241.34
v 47.1522 -97.3643 1243.66
v 47.1923 -96.8191 1243.62
v 47.554 -97.1301 1244.14
v 47.4653 -96.3714 1243.63
v 46.9278 -95.0202 1239.22
v 47.2943 -94.7254 1238.74
v 47.4811 -95.3755 1239.58
v 47.7061 -94.9302 1239.16
v 47.8874 -95.5912 1240.02
v 46.5207 -96.1508 1241.78
v 46.6007 -96.1053 1242.32
v 46.6381 -95.7367 1242.35
v 46.5739 -94.9809 1241.8
v 46.7917 -96.211 1242.8
v 46.9112 -95.7878 1242.78
v 47.0856 -95.2693 1242.56
v 47.4715 -95.1453 1242.62
v 47.684 -96.1449 1243.58
v 47.8733 -95.4439 1242.94
v 46.5475 -93.5031 1237.54
v 47.0811 -93.614 1237.19
v 47.6497 -93.8009 1237.55
v 46.5243 -93.7444 1240.55
v 46.4935 -93.1477 1239.74
v 46.6805 -93.1527 1239.99
v 46.8671 -93.4966 1240.6
v 46.8911 -92.9776 1239.93
v 47.0969 -93.3952 1240.58
v 47.4793 -93.4104 1240.6
v 46.6547 -94.3559 1241.37
v 47.0837 -94.2401 1241.58
v 47.479 -94.1898 1241.57
v 47.901 -94.207 1241.4
v 47.4668 -91.4298 1233.04
v 46.4864 -92.4138 1236.02
v 46.8858 -92.2881 1235.14
v 47.2928 -92.6022 1235.45
v 47.7018 -92.7385 1235.8
v 46.4856 -91.7431 1237.35
v 46.8854 -91.487 1237.55
v 47.1007 -91.4031 1237.55
v 47.4714 -91.4821 1237.72
v 46.6807 -92.1298 1238.43
v 47.0894 -92.1124 1238.73
v 47.6682 -91.9697 1238.42
v 47.8915 -92.3845 1238.85
v 47.285 -92.896 1239.93
v 47.6719 -92.9645 1239.89
v 47.8978 -89.9076 1228.37
v 47.1112 -90.579 1231.21
v 47.5279 -90.5736 1230.77
v 47.8999 -90.6351 1231.03
v 46.6928 -90.6587 1232.39
v 46.9068 -91.2503 1233.14
v 46.5708 -90.171 1233.59
v 47.4605 -89.9178 1234.64
v 47.6777 -89.928 1234.65
v 46.6735 -90.7757 1235.74
v 46.879 -90.7823 1236.14
v 47.0858 -90.217 1235.12
v 47.4724 -90.7332 1236.35
v 47.8692 -90.7505 1236.16
v 46.686 -91.3359 1236.99
v 47.0908 -90.8645 1236.52
v 47.4913 -88.7213 1226.38
v 47.5197 -88.3159 1226.3
v 46.9748 -89.1726 1228.39
v 46.9806 -88.7768 1228.39
v 47.0766 -89.6014 1228.7
v 47.1818 -88.7635 1227.38
v 47.1891 -88.3772 1228.05
v 47.3344 -89.1381 1227.22
v 47.2876 -88.3763 1227.22
v 47.4804 -89.4706 1227.49
v 47.7161 -89.6609 1227.63
v 46.8037 -89.3843 1229.5
v 46.8417 -88.9944 1229.25
v 46.8644 -89.6253 1229.5
v 46.9123 -88.7967 1229.43
v 47.0795 -88.5844 1229.64
v 47.2855 -88.457 1229.84
v 47.2948 -88.3035 1228.94
v 47.4941 -88.2231 1229.16
v 47.6846 -88.3746 1230.08
v 46.6609 -89.5914 1231.09
v 47.0815 -88.9822 1231.59
v 47.3007 -88.7978 1231.37
v 46.7669 -89.354 1231.72
v 47.6731 -88.8464 1231.82
v 47.8904 -89.0687 1232.43
v 46.8829 -89.771 1233.64
v 47.2838 -89.43 1233.33
v 47.6723 -89.4617 1233.56
v 47.8787 -89.6833 1233.99
v 47.4984 -88.1408 1226.68
v 47.703 -87.8856 1226.69
v 47.386 -88.1656 1227.36
v 47.4924 -88.0579 1227.74
v 47.6977 -87.9608 1228
v 47.8865 -87.9688 1228.38
v 48.0539 -107.595 1250.77
v 48.4936 -107.583 1250
v 48.0931 -107.212 1248.37
v 48.6913 -107.273 1249.23
v 48.6028 -106.867 1248.4
v 48.8526 -106.745 1248.59
v 49.1581 -106.381 1248.79
v 48.2393 -106.783 1250.58
v 48.6019 -106.951 1250.17
v 48.6696 -106.105 1250.13
v 48.4697 -105.936 1250.24
v 48.8562 -106.996 1249.39
v 48.9322 -106.737 1249.57
v 49.2156 -105.972 1249.39
v 48.28 -104.276 1246.67
v 48.4406 -105.21 1247.09
v 48.6459 -105.354 1247.18
v 48.8554 -105.566 1247.38
v 49.2757 -105.277 1247.4
v 49.401 -105.725 1248.17
v 49.3985 -104.8 1249.2
v 49.497 -105.584 1248.78
v 49.5592 -104.973 1248.97
v 48.0666 -105.772 1250.35
v 48.457 -104.614 1249.67
v 48.6696 -104.81 1249.72
v 49.1383 -105.765 1249.58
v 49.0571 -104.8 1249.51
v 48.2506 -102.619 1246.04
v 49.245 -103.382 1245.92
v 48.8274 -104.038 1246.35
v 49.4711 -103.776 1246.25
v 48.4887 -102.715 1248.3
v 48.6762 -103.503 1248.94
v 49.0594 -103.995 1249.17
v 49.4902 -104.083 1248.93
v 49.4654 -102.938 1248.43
v 48.1527 -101.898 1245.94
v 48.6235 -102.355 1245.49
v 49.0333 -102.397 1245.31
v 49.4914 -102.517 1245.39
v 48.0709 -102.201 1247.19
v 48.18 -101.353 1246.6
v 48.2668 -102.185 1247.6
v 48.6438 -101.169 1247.14
v 48.2498 -99.5589 1243.58
v 48.6756 -100.601 1244.22
v 49.2547 -100.682 1244.18
v 48.2716 -100.771 1244.76
v 48.2456 -99.6647 1245.87
v 48.6667 -100.335 1246.6
v 49.0204 -100.8 1247.09
v 49.4462 -100.966 1247.22
v 48.4601 -99.3482 1243.29
v 48.6984 -98.9554 1242.99
v 48.4681 -99.1047 1245.78
v 48.8897 -98.8454 1245.77
v 49.296 -98.845 1245.74
v 49.4495 -98.3448 1245.22
v 48.0985 -97.5841 1241.86
v 48.5058 -97.3598 1241.86
v 48.4885 -96.517 1241.35
v 49.1677 -97.6387 1242.63
v 49.2766 -97.2421 1242.83
v 48.279 -96.7391 1244.16
v 48.6705 -96.957 1244.28
v 49.0105 -96.8097 1243.81
v 49.065 -97.3629 1244.48
v 49.5461 -97.6035 1243.8
v 49.4426 -97.4918 1244.05
v 48.0614 -97.3359 1244.57
v 48.4859 -97.8004 1245.01
v 48.889 -97.7771 1244.97
v 48.2661 -95.2049 1240.13
v 48.4297 -94.7555 1240.36
v 48.5793 -95.724 1241.14
v 48.5283 -95.0408 1241.04
v 48.5111 -95.1529 1241.82
v 48.8108 -96.2019 1241.8
v 48.9265 -96.1676 1242.45
v 48.3137 -95.8557 1243.24
v 48.0805 -93.8743 1238.19
v 48.2951 -94.117 1239.15
v 48.1817 -94.0256 1240.72
v 48.3974 -94.3991 1240.45
v 48.3288 -93.8122 1239.77
v 48.1372 -94.493 1241.54
v 48.0679 -91.6266 1233.87
v 48.2517 -92.3302 1235.88
v 48.4812 -91.5528 1235.23
v 48.1992 -91.8784 1237.56
v 48.3419 -92.9879 1237.59
v 48.3812 -92.7387 1237.89
v 48.3741 -91.7549 1236.79
v 48.4702 -90.2093 1230.75
v 48.5854 -90.0961 1233.2
v 48.3351 -91.3187 1233.7
v 48.2801 -91.1543 1236.21
v 48.4158 -90.7462 1235.12
v 48.2675 -90.5497 1235.19
v 48.0791 -91.3673 1236.99
v 48.8693 -88.3653 1222.79
v 48.6409 -88.4025 1223.24
v 48.8649 -88.5873 1223.13
v 49.0771 -88.5454 1222.79
v 49.0785 -88.3661 1222.62
v 49.2777 -88.6136 1222.78
v 49.2414 -88.7206 1223.04
v 49.2838 -88.3626 1222.54
v 49.4796 -88.6142 1222.77
v 49.4601 -88.7286 1223.09
v 49.4859 -88.361 1222.52
v 48.2494 -89.0229 1225.25
v 48.6779 -89.0831 1224.99
v 48.8874 -89.2497 1226.12
v 49.0913 -89.1109 1226.58
v 48.2863 -89.5553 1227
v 48.4334 -89.6838 1227.82
v 48.7041 -89.5285 1228.18
v 49.067 -88.3306 1227.6
v 49.1702 -88.7301 1227.37
v 48.8436 -88.8799 1229.24
v 48.8763 -89.2125 1228.87
v 48.0793 -88.6752 1231.05
v 48.6946 -89.8486 1230.92
v 48.2752 -89.0791 1231.94
v 48.5027 -89.8246 1233.13
v 48.5461 -89.348 1231.89
v 48.0861 -89.8165 1234.07
v 48.0791 -89.4906 1233.35
v 48.2816 -89.7493 1233.58
v 48.5247 -88.0067 1223.18
v 48.557 -87.78 1223.11
v 48.5495 -87.5874 1223.28
v 48.7539 -88.1544 1222.79
v 48.7201 -87.7726 1222.79
v 48.6825 -87.5684 1222.94
v 48.7781 -87.3636 1222.99
v 48.5796 -87.4306 1223.55
v 48.8884 -88.172 1222.65
v 48.8871 -87.9647 1222.61
v 48.8874 -87.753 1222.61
v 48.8767 -87.4465 1222.78
v 48.8692 -87.1795 1223.29
v 49.0842 -88.1599 1222.52
v 49.0862 -87.9577 1222.48
v 49.0789 -87.7645 1222.49
v 49.0786 -87.5564 1222.55
v 49.0753 -87.2491 1222.78
v 49.0811 -87.1164 1222.98
v 49.2788 -88.1648 1222.45
v 49.2843 -87.97 1222.41
v 49.2787 -87.765 1222.41
v 49.2784 -87.5641 1222.46
v 49.2784 -87.3392 1222.59
v 49.2787 -87.1394 1222.79
v 49.2854 -87.0351 1222.99
v 49.2635 -87.0012 1223.18
v 49.2595 -87.0094 1223.45
v 49.474 -88.1597 1222.42
v 49.4948 -87.9649 1222.38
v 49.4791 -87.7713 1222.38
v 49.4783 -87.5655 1222.43
v 49.4713 -87.3698 1222.53
v 49.4851 -87.1278 1222.77
v 49.4785 -87.0209 1222.98
v 49.4714 -86.9805 1223.18
v 48.6925 -87.2558 1224.78
v 49.0713 -87.1946 1224.78
v 49.2707 -87.2374 1224.81
v 49.5965 -87.6165 1225.18
v 48.1037 -87.5916 1226.1
v 48.4586 -87.5172 1226.42
v 48.8645 -87.4051 1225.85
v 48.9092 -87.5735 1226.37
v 48.2948 -87.9705 1228.32
v 48.7022 -88.1485 1228.23
v 49.7336 -104.702 1247.36
v 49.9021 -104.608 1247.81
v 49.8611 -102.625 1245.62
v 49.8618 -103.611 1246.4
v 50.1154 -103.948 1247.38
v 50.1613 -103.35 1246.6
v 50.2671 -103.387 1247.39
v 50.3215 -103.179 1246.99
v 50.3548 -102.954 1247.18
v 49.7919 -103.972 1248.56
v 50.041 -104.018 1248
v 49.8663 -102.743 1248.08
v 50.18 -103.349 1247.77
v 50.1039 -102.824 1247.82
v 49.8697 -101.919 1245.16
v 50.1994 -102.397 1245.8
v 50.2252 -101.752 1245.38
v 50.0805 -101.012 1244.81
v 50.3794 -101.942 1245.78
v 50.3959 -101.172 1245.37
v 50.4986 -101.207 1245.79
v 49.8675 -101.565 1247.45
v 50.1109 -101.797 1247.36
v 50.3411 -102.543 1246.18
v 50.4243 -102.58 1246.6
v 50.3055 -102.56 1247.37
v 50.424 -102.379 1246.97
v 50.3943 -101.967 1246.97
v 50.3488 -101.361 1246.77
v 50.4835 -102.137 1246.58
v 50.4837 -101.971 1246.18
v 50.4725 -101.596 1246.56
v 50.5177 -101.567 1246.19
v 49.6639 -100.529 1244.23
v 49.6131 -99.4648 1243.69
v 50.0274 -100.155 1244.37
v 49.852 -99.474 1243.94
v 50.0727 -99.4867 1244.32
v 50.4405 -100.739 1245.4
v 50.3122 -100.546 1244.96
v 50.4074 -100.383 1245.79
v 50.3312 -100.141 1244.98
v 50.3419 -99.9575 1245.36
v 50.2587 -99.9286 1245.76
v 50.4923 -100.979 1245.98
v 49.8548 -100.325 1246.63
v 50.0532 -99.9475 1246.16
v 50.1312 -100.622 1246.6
v 50.4142 -100.786 1246.2
v 50.2746 -100.359 1246.17
v 49.8757 -98.4848 1244.12
v 49.6831 -98.9955 1245.66
v 49.6496 -98.3256 1244.97
v 50.0281 -98.9313 1244.95
v 49.89 -99.014 1245.44
v 50.1886 -99.375 1244.78
v 49.6798 -88.3966 1222.59
v 49.7131 -88.5596 1222.79
v 49.8258 -88.6171 1223.36
v 49.865 -88.5577 1222.97
v 49.8802 -88.3658 1222.68
v 50.0662 -88.3605 1222.97
v 49.6784 -88.1657 1222.45
v 49.6735 -87.9549 1222.4
v 49.6782 -87.5832 1222.44
v 49.6748 -87.3695 1222.55
v 49.734 -87.1729 1222.78
v 49.6801 -87.0512 1222.98
v 49.6704 -87.0125 1223.17
v 49.6508 -87.0442 1223.46
v 49.8774 -88.1662 1222.53
v 49.8741 -87.9651 1222.47
v 50.0098 -87.9722 1222.59
v 49.8685 -87.7653 1222.46
v 50.0084 -87.7712 1222.58
v 49.8778 -87.5657 1222.52
v 49.8827 -87.3649 1222.66
v 49.8824 -87.1537 1222.98
v 49.8681 -87.1086 1223.18
v 49.9057 -87.1786 1223.41
v 50.1022 -88.1647 1222.77
v 50.183 -88.151 1222.98
v 50.1361 -88.2015 1223.38
v 50.1658 -87.9532 1222.78
v 50.2397 -87.776 1222.99
v 50.1894 -87.7901 1223.5
v 50.1245 -87.5756 1222.78
v 50.2023 -87.5658 1222.98
v 50.2158 -87.5656 1223.18
v 50.1796 -87.5591 1223.4
v 50.1044 -87.3766 1222.98
v 50.1128 -87.3581 1223.19
v 50.0593 -87.3717 1223.49
v 49.6487 -87.3403 1224.47
v 49.9584 -87.6109 1224.16
f 59 32 31
f 31 30 58
f 31 58 59
f 3 2 1
f 2 20 1
f 1 20 13
f 4 3 1
f 45 4 1
f 1 13 45
f 6 5 22
f 22 2 6
f 20 2 22
f 7 9 6
f 3 7 6
f 3 6 2
f 4 7 3
f 8 22 5
f 5 6 9
f 10 79 7
f 4 10 7
f 10 4 41
f 8 75 76
f 75 8 72
f 72 5 73
f 72 8 5
f 74 73 9
f 73 5 9
f 74 7 79
f 74 9 7
f 116 79 10
f 116 10 115
f 115 10 41
f 18 19 11
f 11 19 12
f 12 15 11
f 12 16 15
f 12 21 16
f 13 14 45
f 13 11 14
f 11 15 14
f 15 16 44
f 16 46 44
f 26 27 17
f 23 26 17
f 20 23 18
f 23 17 18
f 17 19 18
f 17 24 19
f 11 20 18
f 19 21 12
f 20 11 13
f 16 21 35
f 46 16 35
f 35 55 46
f 26 31 27
f 22 28 23
f 28 26 23
f 23 20 22
f 24 17 27
f 24 25 19
f 25 21 19
f 25 34 21
f 25 37 34
f 34 35 21
f 8 30 28
f 22 8 28
f 28 30 26
f 32 27 31
f 33 27 32
f 33 24 27
f 33 29 24
f 29 25 24
f 29 37 25
f 29 94 37
f 29 33 94
f 30 76 58
f 30 8 76
f 30 31 26
f 59 60 32
f 60 33 32
f 84 33 60
f 33 84 94
f 34 36 35
f 35 36 55
f 37 38 34
f 38 99 36
f 34 38 36
f 36 57 55
f 57 36 99
f 94 95 37
f 37 95 38
f 38 95 98
f 99 38 98
f 57 99 119
f 43 48 45
f 39 45 48
f 39 4 45
f 41 39 42
f 41 4 39
f 39 40 42
f 48 40 39
f 42 40 130
f 130 40 52
f 41 42 115
f 43 45 14
f 14 15 43
f 15 44 43
f 47 43 44
f 44 46 50
f 50 47 44
f 46 51 50
f 48 43 49
f 47 49 43
f 53 47 50
f 46 55 56
f 51 46 56
f 49 40 48
f 40 49 52
f 52 47 53
f 52 49 47
f 51 118 54
f 51 56 118
f 52 53 131
f 50 51 54
f 131 53 135
f 53 50 54
f 135 53 54
f 54 118 134
f 131 130 52
f 135 54 134
f 56 55 57
f 119 120 57
f 120 56 57
f 118 56 120
f 58 76 63
f 80 83 66
f 63 80 66
f 63 64 58
f 58 61 59
f 61 62 59
f 62 60 59
f 61 58 64
f 68 62 61
f 68 65 62
f 62 65 60
f 85 60 65
f 63 66 64
f 61 64 67
f 61 67 68
f 68 87 65
f 87 86 65
f 65 86 85
f 88 69 66
f 66 69 64
f 69 67 64
f 88 70 69
f 70 71 69
f 69 71 67
f 67 71 68
f 71 89 68
f 89 90 87
f 89 87 68
f 91 71 70
f 92 71 91
f 89 71 92
f 72 77 75
f 77 73 78
f 77 72 73
f 78 74 79
f 78 73 74
f 80 76 75
f 63 76 80
f 78 82 77
f 82 78 79
f 77 82 81
f 75 77 81
f 81 80 75
f 81 122 83
f 80 81 83
f 122 81 82
f 79 116 117
f 83 88 66
f 82 79 117
f 82 117 122
f 122 124 83
f 100 94 84
f 85 84 60
f 100 84 85
f 85 86 100
f 87 105 86
f 87 108 105
f 90 108 87
f 92 90 89
f 92 93 90
f 92 144 93
f 144 125 93
f 94 100 96
f 94 96 95
f 97 95 96
f 98 95 97
f 96 100 101
f 101 97 96
f 97 101 103
f 103 98 97
f 98 103 102
f 102 99 98
f 102 104 99
f 104 119 99
f 104 121 119
f 100 86 105
f 101 100 105
f 103 107 102
f 107 104 102
f 101 105 106
f 106 103 101
f 111 104 107
f 111 121 104
f 108 106 105
f 108 109 106
f 106 109 110
f 106 110 103
f 110 107 103
f 108 90 112
f 112 109 108
f 113 109 112
f 110 109 113
f 110 114 107
f 110 113 114
f 111 107 114
f 90 93 112
f 125 113 112
f 125 112 93
f 114 129 111
f 126 116 115
f 133 118 120
f 133 134 118
f 119 121 120
f 121 133 120
f 111 128 121
f 129 128 111
f 124 88 83
f 138 122 117
f 127 122 138
f 124 122 127
f 70 123 91
f 70 88 123
f 88 124 123
f 127 140 124
f 140 123 124
f 113 166 114
f 113 125 166
f 169 146 126
f 132 169 126
f 138 117 146
f 117 116 126
f 132 115 42
f 42 147 132
f 115 132 126
f 146 117 126
f 139 127 138
f 140 127 139
f 129 114 166
f 128 133 121
f 166 151 129
f 151 128 129
f 169 132 147
f 130 147 42
f 130 153 147
f 131 153 130
f 152 131 135
f 135 137 152
f 128 149 133
f 133 148 134
f 149 148 133
f 137 135 136
f 135 134 136
f 136 134 148
f 152 137 154
f 154 137 136
f 143 91 123
f 91 143 92
f 158 140 139
f 123 141 143
f 140 142 123
f 143 141 156
f 142 141 123
f 143 144 92
f 156 144 143
f 192 151 166
f 145 125 144
f 156 145 144
f 125 165 166
f 163 145 156
f 145 165 125
f 138 146 157
f 157 146 169
f 139 138 159
f 159 138 157
f 128 150 149
f 151 150 128
f 198 150 151
f 192 200 151
f 200 198 151
f 168 147 153
f 168 153 173
f 153 131 152
f 136 155 154
f 152 154 170
f 173 152 170
f 173 153 152
f 170 154 176
f 154 155 176
f 170 176 197
f 148 155 136
f 149 155 148
f 171 155 149
f 150 171 149
f 177 171 150
f 198 177 150
f 162 156 141
f 163 156 162
f 158 161 140
f 161 158 178
f 178 164 161
f 157 194 159
f 160 158 139
f 159 160 139
f 178 158 160
f 178 179 164
f 159 183 160
f 140 161 142
f 142 161 164
f 142 164 141
f 141 164 162
f 180 167 145
f 180 145 163
f 162 164 181
f 181 163 162
f 167 165 145
f 167 172 165
f 165 172 166
f 166 172 192
f 183 159 194
f 157 169 193
f 157 193 194
f 155 171 176
f 201 168 173
f 174 169 147
f 168 174 147
f 201 175 168
f 193 169 174
f 175 174 168
f 170 201 173
f 170 197 201
f 177 176 171
f 177 197 176
f 197 203 201
f 181 164 179
f 163 181 182
f 180 163 182
f 179 189 181
f 186 180 182
f 184 160 183
f 178 160 184
f 195 183 194
f 183 195 184
f 185 178 184
f 185 184 209
f 196 195 194
f 185 189 179
f 185 179 178
f 209 184 195
f 205 189 185
f 167 187 172
f 192 172 187
f 186 167 180
f 167 186 187
f 187 186 190
f 187 199 192
f 192 199 200
f 188 186 182
f 188 190 186
f 199 187 207
f 181 189 191
f 181 191 182
f 188 182 191
f 206 188 191
f 206 207 188
f 207 190 188
f 187 190 207
f 208 191 189
f 206 191 208
f 201 202 175
f 174 175 202
f 193 174 217
f 194 193 219
f 196 194 219
f 197 177 222
f 177 241 222
f 241 177 198
f 218 199 214
f 199 218 200
f 199 207 214
f 217 174 202
f 202 236 217
f 203 197 204
f 204 197 222
f 235 198 200
f 202 201 220
f 208 189 205
f 205 185 211
f 205 211 208
f 208 211 212
f 185 210 211
f 206 208 212
f 212 215 206
f 195 196 230
f 230 196 219
f 209 210 185
f 211 226 212
f 210 225 211
f 225 226 211
f 209 275 210
f 213 212 226
f 210 275 225
f 227 213 228
f 218 235 200
f 215 207 206
f 207 216 214
f 216 207 215
f 213 215 212
f 227 215 213
f 227 216 215
f 219 193 217
f 230 231 195
f 231 209 195
f 275 209 231
f 214 216 229
f 218 214 229
f 218 232 235
f 232 218 229
f 202 220 236
f 236 220 244
f 237 217 236
f 219 217 237
f 203 220 201
f 204 222 221
f 235 241 198
f 203 244 220
f 224 223 203
f 204 224 203
f 224 204 221
f 244 203 223
f 226 228 213
f 281 226 225
f 225 275 281
f 228 226 281
f 228 233 227
f 229 216 227
f 233 229 227
f 232 229 234
f 229 233 234
f 219 237 238
f 230 219 238
f 230 238 231
f 234 278 232
f 233 277 234
f 277 278 234
f 276 228 281
f 276 233 228
f 276 277 233
f 243 237 242
f 238 237 274
f 237 243 274
f 280 238 274
f 231 238 280
f 221 222 246
f 246 222 239
f 241 239 222
f 235 240 241
f 248 239 241
f 232 240 235
f 240 248 241
f 245 242 236
f 245 244 250
f 274 243 279
f 245 236 244
f 242 237 236
f 250 244 251
f 223 251 244
f 221 247 224
f 221 246 247
f 246 239 249
f 247 246 249
f 248 283 239
f 247 249 252
f 283 249 239
f 245 288 242
f 224 251 223
f 252 298 247
f 247 298 224
f 261 254 255
f 255 262 261
f 253 330 254
f 254 330 255
f 253 254 261
f 257 253 261
f 255 256 262
f 253 318 330
f 330 331 255
f 331 256 255
f 332 256 331
f 332 333 256
f 256 333 264
f 257 266 355
f 266 257 258
f 261 263 257
f 257 263 258
f 258 263 259
f 263 265 259
f 258 259 267
f 260 253 257
f 260 257 340
f 261 262 263
f 262 265 263
f 256 264 262
f 262 264 265
f 270 266 272
f 266 268 272
f 272 268 273
f 268 359 273
f 266 258 267
f 266 267 268
f 269 359 268
f 259 268 267
f 265 269 259
f 259 269 268
f 270 272 271
f 272 273 271
f 375 271 273
f 274 291 280
f 231 280 275
f 281 275 424
f 282 276 281
f 278 284 232
f 284 240 232
f 277 286 278
f 276 282 277
f 286 277 282
f 291 274 279
f 279 243 242
f 279 242 289
f 425 280 423
f 423 280 291
f 280 425 275
f 424 275 426
f 421 286 282
f 286 421 287
f 240 285 248
f 285 283 248
f 284 285 240
f 278 287 284
f 287 285 284
f 287 278 286
f 290 289 295
f 289 242 288
f 250 288 245
f 288 250 297
f 291 279 290
f 290 279 289
f 289 288 295
f 298 251 224
f 252 249 304
f 292 304 249
f 283 292 249
f 292 283 294
f 285 293 294
f 287 428 293
f 444 294 293
f 428 431 293
f 431 444 293
f 294 283 285
f 287 293 285
f 297 295 288
f 297 301 435
f 295 297 435
f 297 250 296
f 298 302 251
f 302 296 250
f 250 251 302
f 297 296 301
f 298 303 302
f 298 252 303
f 444 292 294
f 301 296 299
f 296 300 299
f 299 300 307
f 302 303 305
f 305 303 304
f 303 252 304
f 296 302 300
f 302 305 300
f 449 299 306
f 299 307 306
f 300 462 307
f 458 449 306
f 307 458 306
f 309 314 308
f 308 314 321
f 318 313 312
f 310 313 318
f 310 311 474
f 312 321 319
f 314 470 321
f 308 312 313
f 308 321 312
f 470 476 323
f 310 320 315
f 325 316 315
f 315 316 311
f 311 316 480
f 317 312 319
f 318 317 330
f 330 317 319
f 331 330 319
f 319 334 331
f 312 317 318
f 318 320 310
f 311 310 315
f 319 321 334
f 321 322 334
f 322 335 334
f 470 322 321
f 335 322 324
f 470 323 322
f 324 322 323
f 323 476 491
f 491 324 323
f 338 324 491
f 491 485 338
f 253 260 320
f 325 320 340
f 325 327 316
f 327 325 326
f 326 328 327
f 329 327 328
f 329 328 494
f 325 315 320
f 327 329 316
f 482 316 329
f 318 253 320
f 331 334 332
f 335 333 332
f 333 350 264
f 334 335 332
f 336 333 335
f 333 336 350
f 351 350 336
f 351 336 337
f 351 337 352
f 338 337 336
f 339 352 337
f 339 337 338
f 501 353 339
f 335 324 336
f 324 338 336
f 485 339 338
f 501 339 485
f 257 355 340
f 356 340 355
f 340 341 325
f 340 356 341
f 325 341 326
f 341 342 326
f 320 260 340
f 326 342 328
f 502 503 494
f 328 502 494
f 342 502 328
f 264 343 265
f 344 265 343
f 343 264 350
f 344 343 345
f 343 350 346
f 345 346 347
f 345 343 346
f 346 351 348
f 346 348 347
f 347 348 367
f 351 352 348
f 352 349 348
f 348 349 367
f 353 349 352
f 353 368 349
f 368 353 366
f 353 504 366
f 350 351 346
f 353 352 339
f 507 504 353
f 266 373 355
f 373 266 270
f 356 355 373
f 356 374 354
f 356 354 357
f 357 354 358
f 508 358 354
f 341 356 357
f 342 341 357
f 357 358 342
f 383 359 363
f 363 364 360
f 383 363 360
f 364 361 360
f 265 344 269
f 363 344 345
f 269 344 363
f 359 269 363
f 363 345 347
f 363 347 364
f 347 367 364
f 367 365 364
f 362 361 364
f 365 362 364
f 349 368 367
f 367 368 365
f 366 365 368
f 366 521 365
f 511 366 504
f 511 521 366
f 395 371 370
f 395 369 371
f 395 537 369
f 537 538 369
f 370 373 389
f 369 538 371
f 538 515 372
f 270 271 405
f 538 372 371
f 354 372 508
f 372 515 508
f 271 375 405
f 370 374 373
f 354 370 371
f 354 374 370
f 371 372 354
f 374 356 373
f 412 380 376
f 376 381 377
f 381 382 377
f 382 520 549
f 382 549 414
f 359 378 273
f 378 359 383
f 378 383 379
f 273 378 375
f 378 379 411
f 375 378 411
f 411 379 380
f 379 384 380
f 412 411 380
f 384 376 380
f 381 376 384
f 383 360 379
f 360 361 384
f 379 360 384
f 361 381 384
f 362 381 361
f 362 365 382
f 382 381 362
f 365 521 382
f 521 520 382
f 385 392 390
f 552 385 386
f 385 390 386
f 390 393 386
f 415 386 393
f 533 394 392
f 385 523 392
f 523 533 392
f 523 385 552
f 387 388 390
f 390 388 393
f 391 393 388
f 388 399 391
f 392 394 389
f 392 389 387
f 390 392 387
f 417 391 418
f 394 370 389
f 393 417 415
f 417 393 391
f 418 391 402
f 370 394 395
f 396 405 397
f 397 405 399
f 399 405 408
f 398 389 373
f 398 270 396
f 398 373 270
f 389 398 387
f 398 396 387
f 387 396 388
f 396 397 388
f 388 397 399
f 399 400 391
f 399 408 400
f 391 400 402
f 400 401 402
f 401 404 403
f 402 403 419
f 402 401 403
f 403 404 420
f 596 420 404
f 270 405 396
f 400 408 406
f 406 412 407
f 401 406 407
f 400 406 401
f 401 407 404
f 404 409 544
f 404 407 409
f 544 596 404
f 375 408 405
f 411 408 375
f 411 406 408
f 406 411 412
f 407 412 409
f 413 409 412
f 544 409 410
f 410 409 413
f 410 550 546
f 410 546 544
f 413 412 376
f 377 413 376
f 382 414 377
f 410 413 414
f 414 413 377
f 549 550 414
f 414 550 410
f 386 415 559
f 559 415 416
f 592 559 416
f 564 559 592
f 415 417 416
f 418 402 419
f 417 418 416
f 416 418 592
f 418 419 592
f 419 420 593
f 596 593 420
f 592 419 593
f 419 403 420
f 432 281 424
f 421 282 429
f 422 281 432
f 282 281 422
f 282 422 429
f 291 437 438
f 423 438 425
f 438 423 291
f 439 425 438
f 275 425 426
f 424 426 427
f 439 426 425
f 424 427 432
f 440 426 439
f 426 440 427
f 442 433 432
f 432 427 442
f 442 427 440
f 434 442 443
f 428 287 421
f 428 430 431
f 421 429 428
f 429 430 428
f 422 433 429
f 432 433 422
f 442 434 433
f 433 434 429
f 434 447 429
f 429 447 430
f 290 295 436
f 290 436 437
f 437 291 290
f 436 295 451
f 451 295 435
f 436 451 437
f 448 455 446
f 447 434 443
f 456 441 607
f 441 456 448
f 442 608 443
f 441 443 607
f 444 445 292
f 445 444 446
f 430 448 431
f 431 446 444
f 431 448 446
f 441 448 430
f 447 443 441
f 430 447 441
f 449 459 301
f 435 301 459
f 460 435 459
f 451 460 450
f 452 450 461
f 301 299 449
f 451 435 460
f 437 451 450
f 438 437 450
f 452 438 450
f 452 439 438
f 304 464 305
f 453 464 304
f 454 292 445
f 454 304 292
f 445 446 455
f 455 454 445
f 454 453 304
f 456 455 448
f 456 457 455
f 449 458 459
f 469 459 458
f 458 309 308
f 467 459 469
f 460 459 467
f 460 468 450
f 450 468 461
f 461 468 612
f 612 468 631
f 300 305 462
f 305 464 462
f 307 462 463
f 463 462 464
f 307 309 458
f 463 309 307
f 464 453 465
f 463 464 465
f 465 470 463
f 465 453 472
f 454 472 453
f 619 473 457
f 457 454 455
f 457 473 454
f 469 313 466
f 308 313 469
f 313 310 466
f 467 469 466
f 467 466 474
f 468 467 474
f 474 475 468
f 468 460 467
f 631 468 475
f 632 631 475
f 308 469 458
f 463 470 309
f 309 470 314
f 471 476 470
f 470 465 471
f 471 465 472
f 472 476 471
f 476 472 477
f 473 472 454
f 473 477 472
f 473 478 477
f 311 480 475
f 466 310 474
f 475 474 311
f 632 475 481
f 481 483 632
f 484 500 648
f 648 500 489
f 491 476 492
f 492 477 493
f 476 477 492
f 477 478 493
f 479 493 478
f 479 488 493
f 478 649 479
f 478 643 649
f 650 479 649
f 481 316 482
f 480 481 475
f 481 480 316
f 483 481 482
f 482 499 483
f 483 499 484
f 499 500 484
f 485 486 501
f 488 501 486
f 488 487 501
f 479 650 488
f 650 487 488
f 490 489 500
f 490 487 650
f 492 485 491
f 493 485 492
f 493 486 485
f 488 486 493
f 482 329 494
f 482 494 496
f 482 496 499
f 496 494 495
f 497 505 498
f 498 505 504
f 498 504 507
f 497 498 500
f 496 495 497
f 487 353 501
f 487 498 507
f 353 487 507
f 497 499 496
f 500 498 490
f 490 498 487
f 500 499 497
f 502 342 358
f 503 502 512
f 503 512 513
f 495 503 506
f 504 506 513
f 513 506 503
f 494 503 495
f 495 505 497
f 505 495 506
f 504 505 506
f 508 509 358
f 508 517 509
f 509 517 510
f 502 358 509
f 510 502 509
f 513 516 514
f 516 513 510
f 514 521 511
f 502 510 512
f 512 510 513
f 513 514 504
f 514 511 504
f 538 539 515
f 515 517 508
f 517 545 510
f 517 515 545
f 542 510 545
f 510 542 516
f 542 548 516
f 516 548 547
f 547 551 520
f 549 520 551
f 520 519 547
f 547 519 516
f 518 520 521
f 516 519 514
f 514 519 518
f 518 521 514
f 518 519 520
f 522 524 523
f 560 526 522
f 555 560 522
f 552 555 523
f 555 522 523
f 528 534 524
f 524 534 533
f 522 526 525
f 524 525 528
f 524 522 525
f 565 526 560
f 528 525 527
f 527 525 526
f 527 526 529
f 529 565 571
f 529 526 565
f 534 535 537
f 530 531 527
f 527 531 528
f 534 528 531
f 529 532 530
f 530 527 529
f 532 529 580
f 580 529 571
f 535 534 531
f 655 531 530
f 532 660 654
f 530 532 654
f 655 530 654
f 660 532 580
f 533 523 524
f 536 535 656
f 533 395 394
f 395 533 534
f 395 534 537
f 536 680 541
f 537 535 538
f 538 535 539
f 535 536 539
f 541 539 536
f 539 541 543
f 542 543 541
f 542 540 597
f 541 540 542
f 544 597 596
f 539 543 515
f 515 543 545
f 543 542 545
f 546 597 544
f 597 548 542
f 550 551 546
f 547 548 551
f 546 548 597
f 551 548 546
f 549 551 550
f 553 556 552
f 552 386 553
f 554 557 553
f 553 386 554
f 559 554 386
f 557 554 558
f 558 554 559
f 561 560 555
f 556 561 555
f 552 556 555
f 562 561 556
f 563 562 556
f 556 557 563
f 553 557 556
f 563 557 558
f 564 558 559
f 561 566 565
f 560 561 565
f 567 566 561
f 562 567 561
f 568 567 562
f 562 563 568
f 568 563 569
f 569 558 570
f 569 563 558
f 558 564 570
f 571 565 572
f 572 565 566
f 572 566 573
f 573 566 567
f 573 567 574
f 574 567 568
f 574 568 575
f 575 568 569
f 575 569 576
f 569 570 576
f 576 570 577
f 577 570 578
f 570 564 578
f 578 564 579
f 581 580 572
f 580 571 572
f 582 581 572
f 573 582 572
f 582 573 583
f 573 574 583
f 583 574 584
f 584 574 575
f 585 584 575
f 585 575 576
f 585 576 586
f 576 577 586
f 586 577 587
f 577 578 587
f 587 578 579
f 581 661 580
f 661 660 580
f 661 582 662
f 581 582 661
f 583 662 582
f 662 583 663
f 663 583 584
f 663 584 585
f 664 663 585
f 664 585 665
f 585 586 665
f 665 586 666
f 586 587 666
f 666 587 667
f 587 579 667
f 588 579 564
f 588 589 579
f 589 590 667
f 667 579 589
f 540 591 597
f 590 691 667
f 564 592 588
f 588 592 593
f 589 588 593
f 594 589 593
f 594 595 590
f 590 589 594
f 595 691 590
f 591 691 597
f 597 691 595
f 594 593 596
f 595 596 597
f 595 594 596
f 439 598 440
f 599 440 598
f 599 598 602
f 599 602 608
f 440 599 442
f 442 599 608
f 443 608 607
f 452 600 601
f 600 452 461
f 461 612 600
f 601 600 613
f 439 601 598
f 601 439 452
f 598 601 603
f 601 613 603
f 608 602 604
f 598 603 602
f 604 602 605
f 604 610 608
f 610 623 611
f 602 603 605
f 604 605 606
f 604 606 610
f 603 613 621
f 603 621 622
f 603 622 605
f 605 622 606
f 606 623 610
f 611 607 610
f 456 607 611
f 609 456 611
f 456 609 457
f 607 608 610
f 631 615 612
f 614 612 615
f 613 616 621
f 612 613 600
f 613 614 616
f 612 614 613
f 614 615 617
f 621 616 628
f 628 616 618
f 614 617 616
f 616 617 618
f 618 617 636
f 628 618 630
f 618 642 630
f 646 629 642
f 642 629 630
f 609 619 457
f 620 609 611
f 645 619 620
f 620 619 609
f 645 643 619
f 611 623 620
f 645 620 626
f 606 622 624
f 606 624 623
f 623 624 625
f 623 625 620
f 622 627 624
f 624 627 625
f 627 629 625
f 629 626 625
f 620 625 626
f 629 646 626
f 626 646 645
f 621 628 622
f 622 628 627
f 628 630 627
f 630 629 627
f 615 631 633
f 632 633 631
f 633 634 635
f 632 634 633
f 615 633 637
f 633 635 637
f 647 641 644
f 644 641 652
f 652 641 651
f 617 615 637
f 617 637 636
f 639 637 635
f 637 639 636
f 647 638 641
f 636 639 640
f 636 640 638
f 638 640 641
f 653 639 635
f 639 653 640
f 640 653 651
f 651 641 640
f 636 642 618
f 642 636 638
f 638 646 642
f 643 473 619
f 643 478 473
f 645 644 643
f 647 645 646
f 647 644 645
f 646 638 647
f 634 483 635
f 632 483 634
f 483 484 635
f 648 489 651
f 490 651 489
f 635 484 648
f 648 651 653
f 652 650 649
f 490 650 651
f 644 649 643
f 652 649 644
f 650 652 651
f 635 648 653
f 531 656 535
f 654 658 655
f 668 654 660
f 654 668 658
f 531 655 657
f 656 531 657
f 658 659 657
f 655 658 657
f 668 678 658
f 656 657 659
f 680 656 659
f 659 658 678
f 659 678 679
f 659 679 680
f 656 680 536
f 668 660 669
f 669 660 661
f 669 661 671
f 671 661 662
f 671 662 673
f 674 673 663
f 663 673 662
f 674 663 664
f 674 664 675
f 677 667 691
f 675 664 665
f 675 665 676
f 665 666 676
f 676 666 667
f 669 670 668
f 668 670 678
f 672 670 669
f 671 672 669
f 673 672 671
f 673 674 684
f 690 691 692
f 674 675 688
f 691 690 677
f 689 688 675
f 676 689 675
f 677 689 676
f 667 677 676
f 670 681 678
f 678 681 679
f 679 681 682
f 679 682 680
f 680 682 683
f 680 683 541
f 672 681 670
f 684 681 672
f 673 684 672
f 681 684 682
f 682 684 685
f 682 685 686
f 682 686 683
f 683 686 687
f 683 687 692
f 684 674 688
f 684 688 685
f 685 688 686
f 686 688 689
f 686 689 687
f 687 689 690
f 690 692 687
f 677 690 689
f 692 591 540
f 591 692 691
f 692 541 683
f 692 540 541
o FMA3895_BP8397_FJ2650
v 55.4795 -90.1914 1207.54
v 55.5406 -90.0245 1207.24
v 55.7056 -90.438 1207.34
v 55.9081 -90.6245 1206.95
v 55.8966 -90.4265 1207.56
v 55.4256 -90.1626 1208.01
v 55.4701 -90.1618 1208.78
v 55.3673 -89.9666 1207.81
v 55.3025 -89.965 1208.74
v 55.3561 -89.9651 1209.18
v 55.6768 -90.3464 1207.79
v 55.6687 -90.2796 1208.21
v 55.6903 -90.2332 1208.77
v 55.6818 -90.2506 1209.18
v 55.8748 -90.2164 1208.35
v 55.8907 -90.172 1208.79
v 55.8793 -90.2485 1209.17
v 56.0536 -89.9727 1208.58
v 55.579 -90.1685 1209.56
v 55.4892 -89.9661 1209.61
v 55.941 -90.4191 1210.02
v 55.8061 -90.2108 1210.03
v 55.8836 -90.3588 1209.56
v 56.0702 -90.7692 1213.99
v 56.0116 -90.1765 1213.63
v 55.6738 -90.5682 1214.97
v 55.6522 -90.1823 1214.8
v 55.7548 -90.3749 1214.17
v 55.9139 -90.7797 1214.98
v 55.8799 -89.9317 1214.65
v 55.5457 -90.565 1216.18
v 55.5406 -90.3658 1215.73
v 55.6237 -90.1798 1216.1
v 55.6786 -90.565 1216.4
v 55.8801 -90.8532 1216.14
v 55.8785 -90.565 1216.52
v 55.8768 -90.1862 1216.44
v 55.9009 -89.9695 1216.08
v 55.4944 -89.7773 1207.59
v 55.8911 -89.6915 1207.37
v 55.2865 -89.763 1208.56
v 55.2988 -89.7725 1208.98
v 55.3895 -89.5783 1208.98
v 55.4973 -89.4935 1208.54
v 55.4905 -89.4811 1208.99
v 55.4845 -89.5737 1209.3
v 55.6797 -89.4264 1208.96
v 55.8736 -89.5297 1208.22
v 55.9004 -89.4806 1209.18
v 55.3952 -89.7657 1209.37
v 55.6227 -89.778 1209.77
v 55.6893 -89.487 1209.38
v 57.2578 -91.4717 1204.41
v 57.6367 -92.3547 1203.79
v 57.0756 -91.6287 1204.59
v 57.2476 -91.9108 1204.64
v 57.3841 -91.5552 1211.2
v 57.4175 -91.5658 1211.4
v 57.3926 -91.565 1211.58
v 57.4586 -91.5385 1212.38
v 56.2105 -90.9399 1205.87
v 56.3339 -90.781 1205.58
v 56.6479 -90.4361 1205.86
v 56.82 -90.5819 1206.03
v 56.8853 -90.9517 1205.01
v 57.2998 -91.0186 1204.96
v 56.1126 -90.5944 1207.09
v 56.0867 -90.1266 1206.39
v 56.3519 -91.0695 1206.11
v 56.454 -90.5431 1206.81
v 56.796 -91.0225 1206.07
v 56.1474 -90.1666 1207.76
v 56.0767 -90.1223 1209.18
v 56.0952 -89.9714 1208.97
v 56.1868 -89.965 1209.19
v 56.0965 -90.2841 1209.41
v 56.1616 -90.1443 1210.41
v 56.3495 -90.6599 1210.02
v 56.2806 -90.1623 1209.43
v 56.4962 -90.0255 1209.63
v 56.6439 -90.4126 1209.81
v 57.0444 -91.2678 1210.76
v 57.4394 -91.3211 1210.57
v 57.1595 -91.2974 1211.11
v 57.3455 -91.378 1211.37
v 57.3364 -91.165 1211.38
v 57.3739 -91.165 1211.58
v 56.2145 -90.765 1213.18
v 56.5519 -91.032 1213.13
v 56.465 -90.8127 1213.99
v 56.5481 -90.4437 1212.72
v 56.5271 -90.1167 1213.16
v 56.7469 -90.5611 1214
v 56.7457 -90.165 1213.98
v 56.9328 -90.9684 1213.32
v 56.8777 -90.1723 1213.39
v 57.1269 -90.3492 1212.74
v 57.2571 -90.5725 1213.1
v 56.2953 -90.7598 1214.81
v 56.2905 -89.8935 1214.23
v 56.4957 -90.565 1215.18
v 56.627 -90.365 1214.58
v 56.5707 -90.165 1214.78
v 56.0797 -90.8971 1215.9
v 56.0867 -90.5696 1216.51
v 56.0712 -90.3616 1216.54
v 56.0785 -90.0735 1216.37
v 56.271 -90.8056 1216.12
v 56.3563 -90.5595 1216.36
v 56.2686 -90.3577 1216.46
v 56.2754 -90.0408 1216.09
v 56.4705 -90.5581 1216.1
v 56.4626 -90.3599 1216.18
v 56.1087 -89.7664 1207.53
v 56.0697 -89.7526 1208.71
v 56.1205 -89.771 1209
v 56.2592 -89.7816 1209.37
v 56.2785 -89.6924 1209.58
v 56.2785 -89.765 1210.18
v 59.1645 -94.765 1201.38
v 59.2549 -94.7536 1201.75
v 58.1245 -93.2259 1202.57
v 58.283 -93.1691 1202.19
v 58.6145 -93.965 1201.98
v 58.506 -93.579 1202.57
v 58.4785 -93.3094 1202.78
v 58.5163 -93.2462 1202.05
v 58.592 -93.146 1202.79
v 58.8118 -94.1554 1202.17
v 58.6987 -93.3889 1202.65
v 58.9457 -93.365 1202.38
v 59.0829 -94.3638 1202.14
v 59.0527 -94.1291 1202.3
v 59.2357 -93.7649 1201.99
v 58.0712 -93.0096 1203.03
v 58.0282 -92.7715 1202.59
v 57.8821 -92.7424 1202.96
v 58.2852 -92.796 1202.38
v 58.2785 -92.565 1202.61
v 58.5177 -92.852 1202.38
v 58.6786 -92.965 1202.69
v 57.665 -92.1441 1203.63
v 57.8907 -92.3287 1203.17
v 57.829 -92.3221 1204.23
v 57.8785 -91.765 1203.87
v 58.1259 -92.1273 1204.22
v 58.2176 -91.965 1203.98
v 58.2785 -92.965 1203.17
v 58.3421 -92.5342 1203.61
v 58.3426 -92.165 1203.58
v 58.2761 -92.1724 1203.94
v 58.4741 -92.6171 1203.26
v 57.8632 -91.6868 1204.67
v 57.6367 -91.7598 1211.78
v 57.6234 -91.7058 1211.12
v 57.8836 -91.8023 1211.38
v 57.8791 -91.7735 1211.79
v 57.8639 -91.6516 1210.98
v 57.866 -91.5357 1212.21
v 58.146 -91.5616 1211.18
v 58.2107 -91.5665 1211.56
v 58.1628 -91.5468 1211.8
v 57.7801 -90.765 1210.78
v 57.8118 -91.3005 1210.69
v 57.6786 -90.8947 1211.38
v 57.6786 -90.9384 1211.58
v 57.8611 -91.1622 1212.39
v 57.878 -90.9388 1211.57
v 57.8629 -90.8945 1211.8
v 57.8379 -90.8876 1212.21
v 58.1961 -91.3472 1211.18
v 58.2539 -91.3597 1211.58
v 58.2096 -91.355 1211.8
v 58.0785 -91.0185 1211.38
v 58.0639 -91.0215 1211.59
v 58.1531 -91.1536 1211.79
v 59.4785 -95.565 1199.68
v 59.4785 -95.365 1199.69
v 59.3386 -95.565 1199.78
v 59.2953 -95.5415 1200.08
v 59.2945 -95.3518 1199.98
v 59.2785 -95.215 1200.58
v 59.4484 -94.765 1200.78
v 59.4785 -95.7634 1199.98
v 59.4655 -95.2706 1200.96
v 59.6533 -95.1767 1201.12
v 59.8176 -95.565 1199.98
v 59.709 -95.3711 1199.8
v 59.8042 -95.3015 1200.09
v 59.6786 -95.165 1199.99
v 59.6786 -94.6603 1200.98
v 59.4788 -94.7688 1201.78
v 59.7274 -94.7802 1201.51
v 59.2772 -94.3704 1202.15
v 59.2785 -94.165 1201.56
v 59.2593 -93.96 1202.23
v 59.4742 -94.373 1202.04
v 59.4785 -94.0999 1201.78
v 59.5131 -94.1815 1201.95
v 59.7563 -94.565 1201.38
v 55.4795 -90.1914 1207.54
v 55.8966 -90.4265 1207.56
v 55.6768 -90.3464 1207.79
v 55.6687 -90.2796 1208.21
v 55.8748 -90.2164 1208.35
v 56.0536 -89.9727 1208.58
v 55.8836 -90.3588 1209.56
v 56.0702 -90.7692 1213.99
v 56.0116 -90.1765 1213.63
v 55.6522 -90.1823 1214.8
v 55.7548 -90.3749 1214.17
v 55.8799 -89.9317 1214.65
v 55.5457 -90.565 1216.18
v 55.6786 -90.565 1216.4
v 55.8785 -90.565 1216.52
v 55.9009 -89.9695 1216.08
v 55.9004 -89.4806 1209.18
v 57.6367 -92.3547 1203.79
v 57.3926 -91.565 1211.58
v 57.3926 -91.565 1211.58
v 56.82 -90.5819 1206.03
v 56.82 -90.5819 1206.03
v 57.2998 -91.0186 1204.96
v 57.2998 -91.0186 1204.96
v 56.1126 -90.5944 1207.09
v 56.3519 -91.0695 1206.11
v 56.454 -90.5431 1206.81
v 56.796 -91.0225 1206.07
v 56.1474 -90.1666 1207.76
v 56.1474 -90.1666 1207.76
v 56.1616 -90.1443 1210.41
v 57.3364 -91.165 1211.38
v 57.3364 -91.165 1211.38
v 57.3739 -91.165 1211.58
v 57.3739 -91.165 1211.58
v 57.3739 -91.165 1211.58
v 56.2145 -90.765 1213.18
v 56.465 -90.8127 1213.99
v 56.5481 -90.4437 1212.72
v 56.7457 -90.165 1213.98
v 56.9328 -90.9684 1213.32
v 57.1269 -90.3492 1212.74
v 57.2571 -90.5725 1213.1
v 56.627 -90.365 1214.58
v 56.5707 -90.165 1214.78
v 56.0867 -90.5696 1216.51
v 56.0785 -90.0735 1216.37
v 56.0785 -90.0735 1216.37
v 56.3563 -90.5595 1216.36
v 56.2686 -90.3577 1216.46
v 56.1087 -89.7664 1207.53
v 56.0697 -89.7526 1208.71
v 56.1205 -89.771 1209
v 56.2785 -89.6924 1209.58
v 56.2785 -89.765 1210.18
v 59.1645 -94.765 1201.38
v 59.1645 -94.765 1201.38
v 59.1645 -94.765 1201.38
v 58.1245 -93.2259 1202.57
v 58.1245 -93.2259 1202.57
v 58.283 -93.1691 1202.19
v 58.6145 -93.965 1201.98
v 58.6145 -93.965 1201.98
v 58.4785 -93.3094 1202.78
v 58.5163 -93.2462 1202.05
v 58.5163 -93.2462 1202.05
v 59.2357 -93.7649 1201.99
v 58.0282 -92.7715 1202.59
v 57.8821 -92.7424 1202.96
v 58.2852 -92.796 1202.38
v 58.2785 -92.565 1202.61
v 58.6786 -92.965 1202.69
v 57.829 -92.3221 1204.23
v 57.8785 -91.765 1203.87
v 58.2176 -91.965 1203.98
v 58.2176 -91.965 1203.98
v 58.2785 -92.965 1203.17
v 58.3421 -92.5342 1203.61
v 58.3426 -92.165 1203.58
v 57.8632 -91.6868 1204.67
v 58.2107 -91.5665 1211.56
v 57.7801 -90.765 1210.78
v 57.6786 -90.8947 1211.38
v 57.6786 -90.8947 1211.38
v 57.6786 -90.9384 1211.58
v 59.4785 -95.565 1199.68
v 59.4785 -95.565 1199.68
v 59.4785 -95.565 1199.68
v 59.4785 -95.365 1199.69
v 59.4785 -95.365 1199.69
v 59.3386 -95.565 1199.78
v 59.3386 -95.565 1199.78
v 59.3386 -95.565 1199.78
v 59.2953 -95.5415 1200.08
v 59.2945 -95.3518 1199.98
v 59.2785 -95.215 1200.58
v 59.4484 -94.765 1200.78
v 59.4785 -95.7634 1199.98
v 59.4785 -95.7634 1199.98
v 59.4785 -95.7634 1199.98
v 59.4655 -95.2706 1200.96
v 59.6533 -95.1767 1201.12
v 59.8176 -95.565 1199.98
v 59.8176 -95.565 1199.98
v 59.8176 -95.565 1199.98
v 59.8176 -95.565 1199.98
v 59.709 -95.3711 1199.8
v 59.709 -95.3711 1199.8
v 59.6786 -95.165 1199.99
v 59.6786 -95.165 1199.99
v 59.4788 -94.7688 1201.78
v 59.2772 -94.3704 1202.15
v 59.2785 -94.165 1201.56
v 59.2785 -94.165 1201.56
v 59.4785 -94.0999 1201.78
v 59.7563 -94.565 1201.38
f 694 700 731
f 700 733 731
f 753 695 693
f 695 703 693
f 694 754 753
f 753 893 694
f 760 754 694
f 694 893 700
f 760 694 731
f 761 696 753
f 753 696 695
f 696 697 695
f 695 697 895
f 895 697 707
f 759 696 918
f 759 697 696
f 894 764 897
f 760 731 732
f 698 699 701
f 893 698 700
f 698 701 700
f 699 702 701
f 700 701 733
f 701 702 734
f 702 742 734
f 693 703 698
f 703 704 698
f 698 704 699
f 704 705 699
f 706 699 705
f 706 711 699
f 895 707 896
f 896 707 705
f 707 708 705
f 708 709 705
f 705 709 706
f 709 715 706
f 706 899 711
f 708 897 710
f 709 768 715
f 897 764 710
f 708 765 709
f 709 765 768
f 921 807 898
f 702 711 712
f 702 712 742
f 711 713 714
f 711 702 699
f 711 714 712
f 714 743 712
f 711 899 713
f 769 743 714
f 780 716 718
f 717 929 720
f 780 718 903
f 720 719 717
f 717 719 722
f 717 783 929
f 792 901 904
f 718 724 902
f 724 725 719
f 719 725 722
f 727 718 721
f 718 902 903
f 721 796 727
f 718 716 721
f 792 904 730
f 727 723 718
f 718 905 724
f 724 905 725
f 726 725 905
f 722 725 908
f 723 727 906
f 906 727 728
f 725 726 729
f 729 726 907
f 725 729 908
f 800 797 727
f 797 728 727
f 938 798 907
f 798 729 907
f 799 908 729
f 798 939 729
f 731 736 732
f 740 732 736
f 806 732 740
f 701 734 733
f 731 733 736
f 734 735 733
f 734 742 735
f 733 735 736
f 736 735 737
f 735 742 738
f 737 735 738
f 736 737 739
f 739 737 744
f 737 738 744
f 736 739 740
f 740 739 741
f 739 744 741
f 740 909 944
f 944 909 808
f 742 712 743
f 743 738 742
f 744 738 743
f 741 744 811
f 743 947 744
f 834 746 747
f 745 834 747
f 910 836 748
f 757 837 745
f 834 745 837
f 748 761 753
f 747 748 753
f 748 747 746
f 761 748 836
f 965 763 918
f 775 856 850
f 847 775 850
f 774 749 776
f 774 847 749
f 751 846 781
f 781 846 752
f 749 777 776
f 749 750 777
f 750 911 777
f 846 749 847
f 750 749 846
f 751 750 846
f 758 839 966
f 747 753 754
f 763 759 918
f 754 760 757
f 754 757 745
f 747 754 745
f 757 760 755
f 756 915 755
f 756 845 915
f 763 972 913
f 916 757 755
f 837 757 916
f 762 894 917
f 921 943 807
f 732 755 760
f 894 762 764
f 922 919 913
f 943 921 914
f 806 756 755
f 732 806 755
f 763 913 919
f 917 920 762
f 708 710 766
f 765 708 766
f 767 765 766
f 766 898 945
f 766 945 767
f 767 945 809
f 770 774 713
f 899 770 713
f 713 774 776
f 715 768 770
f 713 776 714
f 776 778 714
f 768 765 771
f 714 778 769
f 765 767 771
f 743 923 947
f 768 771 773
f 773 770 768
f 771 767 772
f 767 809 772
f 811 857 855
f 975 947 923
f 772 773 771
f 811 855 810
f 974 772 946
f 773 775 770
f 774 770 847
f 775 847 770
f 856 775 773
f 773 772 856
f 861 858 789
f 778 776 777
f 777 911 778
f 911 779 778
f 926 976 924
f 923 925 975
f 926 977 976
f 716 780 781
f 900 781 782
f 900 782 721
f 784 901 792
f 751 781 780
f 781 787 782
f 783 912 929
f 931 901 784
f 781 752 787
f 912 783 927
f 928 931 858
f 858 931 784
f 788 789 784
f 788 792 786
f 784 792 788
f 785 930 933
f 933 790 785
f 789 858 784
f 935 788 786
f 790 932 785
f 785 932 795
f 792 937 786
f 861 934 862
f 935 862 934
f 788 935 934
f 782 791 721
f 721 791 796
f 730 803 792
f 791 930 785
f 791 785 794
f 791 794 793
f 793 936 795
f 785 795 936
f 803 937 792
f 791 800 796
f 796 800 727
f 800 801 797
f 941 802 938
f 802 798 938
f 940 803 730
f 939 942 803
f 942 939 798
f 800 791 793
f 793 804 800
f 804 801 800
f 801 805 942
f 805 803 942
f 793 795 804
f 804 795 805
f 801 804 805
f 937 803 805
f 740 944 806
f 945 898 807
f 909 946 808
f 808 946 809
f 811 810 741
f 772 809 946
f 871 876 872
f 873 983 986
f 873 986 874
f 988 877 813
f 988 813 812
f 875 874 887
f 812 813 821
f 874 948 887
f 814 829 828
f 961 827 910
f 815 814 828
f 951 827 961
f 952 818 827
f 952 817 818
f 818 840 827
f 816 814 815
f 819 954 953
f 955 821 952
f 819 949 954
f 952 821 817
f 825 822 817
f 822 956 817
f 956 822 820
f 956 820 844
f 844 820 833
f 812 821 955
f 825 817 821
f 950 957 1005
f 958 832 1006
f 823 833 822
f 822 833 820
f 832 964 823
f 821 824 825
f 1006 832 826
f 888 823 822
f 825 888 822
f 959 832 823
f 813 824 821
f 824 813 886
f 824 886 825
f 826 890 1006
f 959 823 888
f 827 836 910
f 836 827 840
f 969 956 844
f 953 960 830
f 831 830 960
f 831 960 835
f 819 953 830
f 832 958 962
f 832 962 963
f 963 842 832
f 833 971 844
f 832 842 964
f 835 828 829
f 835 829 834
f 829 746 834
f 835 834 837
f 838 763 965
f 838 972 763
f 965 969 841
f 831 835 837
f 838 965 841
f 838 970 843
f 839 842 966
f 843 967 838
f 967 972 838
f 841 969 844
f 844 971 970
f 966 842 963
f 970 971 843
f 971 967 843
f 850 848 847
f 847 848 846
f 848 849 846
f 846 849 752
f 752 849 851
f 787 752 851
f 933 851 859
f 849 848 853
f 854 849 853
f 850 852 848
f 852 853 848
f 851 849 854
f 850 856 852
f 852 856 863
f 852 863 973
f 973 863 864
f 973 864 854
f 854 864 865
f 854 865 859
f 851 854 859
f 845 968 915
f 856 772 974
f 856 974 863
f 857 866 855
f 866 857 860
f 857 858 860
f 860 858 861
f 867 861 868
f 868 862 859
f 862 935 859
f 860 867 866
f 861 867 860
f 862 868 861
f 863 866 864
f 864 866 868
f 864 868 865
f 865 868 859
f 974 866 863
f 867 868 866
f 933 859 790
f 869 990 984
f 870 978 985
f 882 870 989
f 880 879 979
f 981 880 979
f 999 982 1001
f 872 876 877
f 985 987 870
f 989 870 987
f 874 875 873
f 877 988 872
f 884 813 993
f 991 878 993
f 878 884 993
f 882 989 883
f 989 1006 883
f 992 980 995
f 996 1000 881
f 881 1000 1002
f 878 991 997
f 994 998 885
f 885 996 881
f 883 881 1002
f 885 881 892
f 883 1008 881
f 886 813 884
f 1003 994 885
f 1008 883 1006
f 1003 889 1004
f 1004 889 888
f 1004 888 825
f 959 891 1007
f 888 891 959
f 892 891 885
f 891 889 885
f 1003 885 889
f 890 1008 1006
f 1007 891 892
f 889 891 888
o FMA3895_BP8397_FJ2651
v 59.0026 -93.2494 1214.85
v 58.9705 -93.0523 1215.22
v 58.756 -92.7642 1214.79
v 58.8932 -92.584 1215.17
v 58.8923 -92.7755 1214.5
v 58.8887 -92.5674 1214.56
v 58.893 -92.4358 1214.79
v 59.1592 -93.0379 1214.44
v 59.1743 -92.8681 1215.43
v 59.0854 -92.5766 1214.4
v 59.0812 -92.3901 1215.16
v 59.1755 -92.6452 1215.36
v 59.079 -92.3619 1214.59
v 59.0861 -92.2868 1214.79
v 60.7742 -94.943 1216.15
v 60.0785 -93.965 1214.98
v 60.3624 -93.1944 1215.61
v 60.4538 -94.3249 1216.17
v 60.5797 -94.0728 1216.21
v 60.6089 -93.7091 1216.03
v 59.375 -93.0383 1214.4
v 59.2777 -92.7692 1214.32
v 59.3009 -92.5685 1214.37
v 59.2719 -92.3755 1214.52
v 59.2785 -92.2562 1214.77
v 59.2801 -92.264 1214.99
v 59.3238 -92.4223 1215.23
v 59.5626 -92.8181 1214.42
v 59.5352 -92.4431 1215.2
v 59.4799 -92.377 1214.6
v 59.4738 -92.3025 1214.97
v 59.8051 -92.7061 1214.67
v 59.7523 -92.5107 1215.02
v 62.4113 -96.5258 1216.56
v 62.3964 -96.3226 1216.77
v 61.4785 -94.965 1215.53
v 61.7461 -94.8397 1215.67
v 61.0343 -95.224 1215.9
v 61.3225 -95.1918 1216.54
v 61.3309 -94.7994 1216.54
v 61.9009 -94.674 1216.09
v 61.8721 -94.7505 1216.37
v 60.9645 -94.2553 1215.27
v 61.2476 -94.1544 1215.55
v 63.8827 -98.1576 1217.18
v 63.9638 -98.3289 1217.53
v 63.9098 -98.1287 1217.74
v 63.0744 -97.1841 1217
v 62.9795 -96.8663 1216.21
v 63.147 -96.8371 1217.14
v 63.3042 -97.4491 1216.63
v 63.5186 -97.4001 1216.46
v 63.4438 -96.9143 1216.24
v 63.3556 -96.3911 1216.97
v 63.9696 -96.9855 1216.62
v 62.6116 -96.118 1216.91
v 63.0966 -95.9576 1216.19
v 63.4199 -96.2056 1216.63
v 65.0049 -99.5113 1217.53
v 65.1382 -99.5927 1217.93
v 64.0662 -98.1485 1217.05
v 64.4709 -98.5628 1217.28
v 64.6786 -98.765 1217.32
v 64.61 -98.3172 1217.18
v 64.8244 -98.127 1217.31
v 65.0786 -99.165 1217.3
v 65.0738 -98.7601 1217.31
v 65.3425 -99.2108 1217.24
v 64.2993 -98.5862 1217.98
v 64.3111 -98.7504 1217.77
v 64.2612 -98.5413 1217.37
v 64.2745 -98.1481 1218.04
v 64.5201 -98.9349 1217.56
v 64.9039 -98.8083 1218.22
v 64.8879 -98.3943 1218.15
v 65.0044 -98.1249 1217.71
v 65.1879 -98.4323 1217.96
v 65.2912 -98.5651 1217.57
v 65.5354 -99.034 1217.36
v 65.5332 -98.765 1217.78
v 64.4257 -97.717 1217.86
v 66.6646 -99.965 1217.18
v 66.8351 -100.712 1216.68
v 65.7163 -99.7956 1218.02
v 65.8406 -99.5262 1218.02
v 66.3781 -99.8751 1217.74
v 66.5616 -100.86 1217.53
v 67.0152 -100.91 1217.52
v 68.2739 -102.928 1216.38
v 68.2844 -102.752 1216.16
v 68.2785 -102.765 1216.81
v 68.5198 -103.198 1216.07
v 68.7406 -103.196 1215.75
v 68.6743 -102.96 1215.85
v 67.1485 -101.77 1216.84
v 67.1677 -101.454 1216.55
v 67.4972 -101.596 1217.31
v 67.7011 -102.325 1216.78
v 67.8627 -102.345 1216.38
v 68.0441 -102.142 1216.23
v 68.4831 -102.57 1216.03
v 68.4785 -102.429 1216.98
v 68.5826 -102.286 1216.16
v 69.874 -104.341 1214.11
v 70.2713 -104.966 1213.83
v 69.5236 -104.337 1214.45
v 69.8181 -104.762 1214.19
v 69.665 -104.66 1214.62
v 69.6821 -104.327 1215.39
v 70.1186 -105.207 1214.19
v 69.979 -104.954 1214.4
v 69.8785 -104.704 1214.78
v 70.2955 -105.188 1214.5
v 70.2785 -104.908 1214.58
v 70.4245 -104.757 1214.58
v 70.2563 -104.38 1214.76
v 68.9655 -103.751 1215.38
v 69.1344 -104.13 1215.22
v 69.1087 -103.59 1215.27
v 69.0572 -103.174 1215.6
v 69.3043 -104.175 1215.68
v 69.3093 -103.42 1215.34
v 69.7591 -103.75 1215.58
v 69.6564 -103.537 1215.38
v 69.8847 -103.846 1214.77
v 70.2439 -104.143 1214.65
v 68.8785 -103.688 1216.18
v 68.8785 -102.989 1216.69
v 68.8624 -102.765 1215.89
v 69.0991 -102.801 1215.95
v 68.9792 -102.522 1216.39
v 69.2785 -103.765 1216.17
v 69.2711 -103.066 1216.35
v 71.8785 -107.843 1213.98
v 71.9199 -107.624 1213.85
v 71.8992 -107.641 1214.54
v 71.0786 -106.365 1214.09
v 71.2796 -106.17 1214.07
v 71.6786 -107.165 1214.06
v 71.6786 -106.765 1214.11
v 70.7027 -106.189 1214.36
v 70.7076 -106.118 1214.57
v 71.2142 -106.924 1214.58
v 71.0775 -106.356 1214.8
v 71.2695 -106.994 1214.36
v 71.266 -106.15 1214.8
v 71.4785 -107.326 1214.38
v 71.6075 -107.42 1214.52
v 71.479 -106.782 1214.84
v 71.5847 -106.199 1214.57
v 71.6402 -106.286 1214.36
v 71.8605 -107.347 1214.73
v 71.8518 -106.942 1214.78
v 70.4944 -105.574 1213.95
v 70.4852 -104.619 1213.92
v 70.6924 -105.385 1213.85
v 70.9374 -105.227 1214.01
v 70.4838 -104.983 1214.57
v 70.4753 -104.566 1214.52
v 70.4474 -104.363 1214.21
v 70.4826 -104.393 1214.39
v 70.6923 -105.583 1214.67
v 70.7118 -105.201 1214.58
v 70.6693 -104.781 1214.42
v 70.9612 -105.174 1214.39
v 70.8554 -104.929 1214.19
v 71.0929 -105.551 1214.57
v 71.2607 -105.641 1214.37
v 73.4518 -111.35 1213.15
v 73.3582 -111.165 1212.98
v 73.552 -111.565 1212.78
v 73.4408 -111.043 1213.32
v 73.6695 -110.965 1212.78
v 72.6972 -109.478 1213.19
v 72.7081 -109.476 1212.98
v 72.8833 -109.358 1213.42
v 73.0893 -109.984 1212.76
v 73.0922 -109.984 1213.34
v 73.0786 -109.165 1213.44
v 73.2785 -109.894 1213.38
v 73.2714 -109.765 1212.75
v 73.2785 -109.094 1213.18
v 73.4785 -110.565 1213.43
v 72.3922 -108.711 1213.24
v 72.4292 -108.701 1213.64
v 72.477 -108.298 1213.21
v 72.5456 -107.574 1213.98
v 72.7011 -109.002 1212.9
v 72.8818 -108.785 1212.91
v 72.8785 -108.765 1213.64
v 72.8354 -108.304 1213.24
v 72.9645 -108.365 1213.58
v 73.1845 -109.009 1213
v 72.0786 -107.565 1214.63
v 72.5788 -107.78 1214.16
v 72.1048 -107.418 1213.84
v 72.0786 -107.165 1214.01
v 72.3419 -107.383 1213.96
v 72.0644 -106.872 1214.35
v 72.1133 -106.999 1214.55
v 74.4785 -113.897 1211.38
v 74.6786 -114.4 1211.38
v 74.6667 -114.163 1211.19
v 74.679 -113.952 1211.6
v 74.8785 -114.897 1211.38
v 74.8938 -114.693 1211.58
v 74.8784 -114.559 1211.15
v 74.9047 -114.399 1211.62
v 74.8725 -114.148 1211.07
v 75.153 -115.339 1211.38
v 75.0856 -115.329 1211.57
v 75.0814 -114.962 1211.19
v 75.0846 -114.577 1211.1
v 75.0708 -114.164 1211.12
v 73.9614 -112.565 1212.18
v 74.2458 -113.177 1211.78
v 74.0786 -112.365 1211.76
v 74.2785 -113.165 1211.37
v 74.2617 -112.723 1212.2
v 74.2792 -112.385 1211.69
v 74.4846 -113.549 1211.67
v 74.5028 -113.214 1211.24
v 74.4788 -112.985 1211.97
v 74.4673 -112.605 1212.19
v 74.4624 -112.342 1211.8
v 74.6735 -113.38 1211.76
v 74.6861 -112.975 1211.4
v 74.7309 -113.007 1211.78
v 74.6573 -112.68 1211.82
v 74.8714 -113.744 1211.12
v 74.8785 -113.765 1211.64
v 75.0524 -113.746 1211.39
v 73.7756 -112.135 1212.41
v 73.887 -111.705 1212.38
v 74.089 -111.596 1212.48
v 73.6994 -111.572 1213.22
v 73.6786 -111.365 1212.68
v 73.6786 -111.165 1213.41
v 73.877 -112.132 1212.76
v 73.8887 -111.388 1213.3
v 73.88 -111.188 1212.75
v 74.0175 -111.142 1213.16
v 73.8404 -111.075 1213.33
v 73.8989 -110.851 1212.97
v 74.0785 -111.983 1212.92
v 74.2315 -111.613 1212.73
v 74.0695 -111.232 1212.95
v 74.269 -111.953 1212.76
v 75.2785 -115.551 1211.58
v 75.2785 -115.365 1211.8
v 75.2841 -114.585 1211.21
v 75.2785 -114.538 1211.58
v 75.4785 -115.365 1211.31
v 75.6332 -115.365 1211.58
v 75.5595 -115.156 1211.39
v 75.6207 -115.165 1211.58
v 75.4785 -115.165 1211.77
v 59.0026 -93.2494 1214.85
v 58.756 -92.7642 1214.79
v 58.756 -92.7642 1214.79
v 58.8932 -92.584 1215.17
v 58.8923 -92.7755 1214.5
v 61.4785 -94.965 1215.53
v 61.0343 -95.224 1215.9
v 63.9098 -98.1287 1217.74
v 62.9795 -96.8663 1216.21
v 63.147 -96.8371 1217.14
v 63.3556 -96.3911 1216.97
v 63.9696 -96.9855 1216.62
v 63.0966 -95.9576 1216.19
v 65.0049 -99.5113 1217.53
v 64.8244 -98.127 1217.31
v 65.0786 -99.165 1217.3
v 65.0738 -98.7601 1217.31
v 65.0044 -98.1249 1217.71
v 65.2912 -98.5651 1217.57
v 65.5332 -98.765 1217.78
v 64.4257 -97.717 1217.86
v 66.6646 -99.965 1217.18
v 66.6646 -99.965 1217.18
v 68.2785 -102.765 1216.81
v 67.1485 -101.77 1216.84
v 67.7011 -102.325 1216.78
v 68.4785 -102.429 1216.98
v 68.5826 -102.286 1216.16
v 68.5826 -102.286 1216.16
v 69.874 -104.341 1214.11
v 70.2713 -104.966 1213.83
v 70.2713 -104.966 1213.83
v 69.5236 -104.337 1214.45
v 69.8181 -104.762 1214.19
v 69.665 -104.66 1214.62
v 69.6821 -104.327 1215.39
v 70.1186 -105.207 1214.19
v 69.979 -104.954 1214.4
v 69.979 -104.954 1214.4
v 69.8785 -104.704 1214.78
v 69.8785 -104.704 1214.78
v 69.8785 -104.704 1214.78
v 70.2785 -104.908 1214.58
v 70.4245 -104.757 1214.58
v 70.2563 -104.38 1214.76
v 70.2563 -104.38 1214.76
v 69.1344 -104.13 1215.22
v 69.3043 -104.175 1215.68
v 69.7591 -103.75 1215.58
v 68.8785 -103.688 1216.18
v 68.8785 -102.989 1216.69
v 68.9792 -102.522 1216.39
v 69.2785 -103.765 1216.17
v 69.2711 -103.066 1216.35
v 71.0786 -106.365 1214.09
v 71.6786 -107.165 1214.06
v 71.6786 -106.765 1214.11
v 70.7027 -106.189 1214.36
v 71.0775 -106.356 1214.8
v 71.2695 -106.994 1214.36
v 71.4785 -107.326 1214.38
v 71.479 -106.782 1214.84
v 71.6402 -106.286 1214.36
v 71.8605 -107.347 1214.73
v 70.4944 -105.574 1213.95
v 70.4852 -104.619 1213.92
v 70.4852 -104.619 1213.92
v 70.9374 -105.227 1214.01
v 70.4838 -104.983 1214.57
v 70.4474 -104.363 1214.21
v 70.6923 -105.583 1214.67
v 73.3582 -111.165 1212.98
v 73.552 -111.565 1212.78
v 73.6695 -110.965 1212.78
v 72.7081 -109.476 1212.98
v 72.8833 -109.358 1213.42
v 73.0786 -109.165 1213.44
v 73.2785 -109.894 1213.38
v 73.2714 -109.765 1212.75
v 73.2785 -109.094 1213.18
v 73.4785 -110.565 1213.43
v 72.4292 -108.701 1213.64
v 72.4292 -108.701 1213.64
v 72.8785 -108.765 1213.64
v 72.9645 -108.365 1213.58
v 72.0786 -107.565 1214.63
v 72.5788 -107.78 1214.16
v 72.0644 -106.872 1214.35
v 72.1133 -106.999 1214.55
v 74.4785 -113.897 1211.38
v 74.6786 -114.4 1211.38
v 74.6667 -114.163 1211.19
v 74.679 -113.952 1211.6
v 74.8785 -114.897 1211.38
v 74.8784 -114.559 1211.15
v 74.9047 -114.399 1211.62
v 75.0856 -115.329 1211.57
v 75.0846 -114.577 1211.1
v 75.0708 -114.164 1211.12
v 73.9614 -112.565 1212.18
v 73.9614 -112.565 1212.18
v 74.2458 -113.177 1211.78
v 74.0786 -112.365 1211.76
v 74.2785 -113.165 1211.37
v 74.4624 -112.342 1211.8
v 74.6861 -112.975 1211.4
v 74.7309 -113.007 1211.78
v 74.6573 -112.68 1211.82
v 74.8714 -113.744 1211.12
v 74.8785 -113.765 1211.64
v 75.0524 -113.746 1211.39
v 74.089 -111.596 1212.48
v 73.6994 -111.572 1213.22
v 73.6786 -111.365 1212.68
v 73.6786 -111.165 1213.41
v 73.6786 -111.165 1213.41
v 73.877 -112.132 1212.76
v 73.8887 -111.388 1213.3
v 74.2315 -111.613 1212.73
v 74.0695 -111.232 1212.95
v 75.2785 -115.551 1211.58
v 75.2785 -115.551 1211.58
v 75.2785 -115.551 1211.58
v 75.2785 -115.551 1211.58
v 75.2785 -115.365 1211.8
v 75.2785 -115.365 1211.8
v 75.2841 -114.585 1211.21
v 75.2785 -114.538 1211.58
v 75.2785 -114.538 1211.58
v 75.2785 -114.538 1211.58
v 75.4785 -115.365 1211.31
v 75.4785 -115.365 1211.31
v 75.6332 -115.365 1211.58
v 75.6332 -115.365 1211.58
v 75.6332 -115.365 1211.58
v 75.6207 -115.165 1211.58
v 75.4785 -115.165 1211.77
v 75.4785 -115.165 1211.77
f 1009 1023 1010
f 1266 1016 1046
f 1023 1009 1272
f 1023 1026 1010
f 1011 1013 1266
f 1009 1010 1267
f 1014 1270 1268
f 1268 1015 1014
f 1010 1012 1267
f 1017 1020 1012
f 1010 1017 1012
f 1021 1014 1015
f 1015 1268 1269
f 1016 1270 1018
f 1266 1013 1016
f 1010 1026 1017
f 1270 1014 1018
f 1014 1021 1018
f 1019 1012 1020
f 1021 1015 1022
f 1015 1269 1019
f 1022 1015 1019
f 1029 1016 1030
f 1030 1016 1018
f 1027 1017 1026
f 1018 1031 1030
f 1027 1020 1017
f 1031 1018 1032
f 1018 1021 1032
f 1019 1020 1035
f 1033 1032 1021
f 1021 1022 1033
f 1033 1022 1034
f 1022 1019 1034
f 1019 1035 1034
f 1016 1024 1046
f 1024 1016 1029
f 1051 1029 1036
f 1040 1051 1036
f 1044 1046 1024
f 1051 1040 1052
f 1025 1037 1028
f 1029 1051 1024
f 1025 1050 1049
f 1050 1025 1028
f 1027 1026 1048
f 1028 1020 1027
f 1032 1038 1031
f 1037 1035 1028
f 1028 1035 1020
f 1038 1032 1033
f 1038 1033 1039
f 1033 1034 1039
f 1037 1039 1034
f 1037 1034 1035
f 1029 1030 1036
f 1036 1030 1031
f 1038 1040 1031
f 1041 1040 1038
f 1039 1041 1038
f 1041 1039 1037
f 1031 1040 1036
f 1041 1049 1040
f 1025 1049 1041
f 1037 1025 1041
f 1052 1040 1049
f 1042 1043 1023
f 1271 1024 1051
f 1271 1051 1045
f 1051 1052 1045
f 1047 1026 1023
f 1047 1048 1026
f 1057 1046 1044
f 1274 1042 1272
f 1042 1023 1272
f 1047 1064 1048
f 1047 1023 1043
f 1047 1043 1064
f 1062 1048 1064
f 1048 1062 1050
f 1049 1065 1045
f 1066 1065 1049
f 1050 1066 1049
f 1276 1066 1050
f 1045 1052 1049
f 1048 1028 1027
f 1048 1050 1028
f 1079 1053 1069
f 1053 1059 1069
f 1069 1059 1060
f 1054 1078 1055
f 1080 1058 1273
f 1274 1059 1042
f 1042 1059 1056
f 1056 1043 1042
f 1043 1056 1058
f 1058 1064 1043
f 1056 1059 1054
f 1059 1274 1060
f 1060 1057 1061
f 1275 1062 1064
f 1054 1059 1053
f 1278 1063 1061
f 1277 1065 1066
f 1060 1061 1072
f 1063 1073 1061
f 1273 1058 1056
f 1054 1055 1056
f 1057 1044 1061
f 1278 1061 1045
f 1045 1061 1271
f 1067 1103 1068
f 1082 1068 1092
f 1069 1072 1070
f 1070 1079 1069
f 1072 1069 1060
f 1071 1070 1072
f 1075 1071 1072
f 1282 1072 1073
f 1075 1074 1071
f 1075 1076 1074
f 1087 1076 1282
f 1078 1068 1077
f 1054 1053 1079
f 1078 1077 1055
f 1077 1080 1273
f 1081 1054 1079
f 1070 1081 1079
f 1078 1054 1081
f 1067 1078 1081
f 1081 1070 1071
f 1082 1080 1077
f 1068 1082 1077
f 1067 1068 1078
f 1281 1279 1081
f 1281 1081 1071
f 1082 1083 1080
f 1080 1083 1089
f 1085 1286 1083
f 1280 1084 1086
f 1082 1092 1093
f 1083 1093 1085
f 1093 1083 1082
f 1282 1073 1284
f 1286 1085 1283
f 1084 1088 1086
f 1085 1285 1283
f 1284 1087 1282
f 1094 1285 1085
f 1094 1085 1093
f 1061 1073 1072
f 1084 1280 1277
f 1066 1084 1277
f 1062 1275 1089
f 1089 1275 1080
f 1276 1286 1066
f 1286 1283 1066
f 1105 1096 1095
f 1110 1096 1105
f 1281 1104 1279
f 1087 1091 1076
f 1076 1091 1074
f 1091 1104 1074
f 1290 1279 1104
f 1087 1090 1091
f 1103 1095 1068
f 1092 1068 1095
f 1092 1095 1096
f 1096 1093 1092
f 1096 1094 1093
f 1094 1287 1285
f 1096 1110 1094
f 1088 1087 1086
f 1087 1088 1090
f 1126 1135 1100
f 1125 1312 1100
f 1125 1100 1101
f 1097 1099 1106
f 1107 1097 1291
f 1107 1098 1097
f 1135 1097 1100
f 1315 1136 1289
f 1135 1099 1097
f 1097 1098 1100
f 1102 1098 1109
f 1100 1098 1102
f 1102 1109 1137
f 1101 1102 1128
f 1100 1102 1101
f 1128 1102 1137
f 1107 1291 1290
f 1290 1104 1107
f 1091 1090 1111
f 1106 1095 1103
f 1095 1289 1105
f 1099 1095 1106
f 1098 1107 1108
f 1108 1107 1104
f 1108 1104 1091
f 1293 1108 1091
f 1110 1105 1289
f 1110 1289 1136
f 1109 1098 1108
f 1293 1109 1108
f 1137 1109 1293
f 1292 1316 1139
f 1139 1094 1292
f 1316 1141 1139
f 1139 1287 1094
f 1113 1118 1115
f 1115 1112 1113
f 1162 1149 1118
f 1113 1162 1118
f 1162 1145 1149
f 1164 1330 1296
f 1164 1297 1163
f 1297 1295 1163
f 1331 1112 1168
f 1116 1129 1126
f 1114 1300 1312
f 1126 1129 1135
f 1313 1117 1140
f 1129 1116 1120
f 1114 1299 1300
f 1313 1305 1117
f 1318 1301 1131
f 1299 1119 1300
f 1120 1116 1303
f 1115 1298 1112
f 1306 1124 1301
f 1298 1127 1112
f 1131 1301 1124
f 1302 1119 1299
f 1302 1323 1150
f 1150 1121 1302
f 1302 1121 1119
f 1304 1121 1122
f 1120 1303 1308
f 1307 1122 1310
f 1170 1166 1121
f 1150 1170 1121
f 1166 1122 1121
f 1122 1166 1123
f 1309 1167 1311
f 1122 1123 1310
f 1167 1169 1311
f 1311 1169 1134
f 1168 1112 1133
f 1125 1114 1312
f 1125 1101 1127
f 1128 1127 1101
f 1138 1128 1137
f 1298 1125 1127
f 1130 1127 1128
f 1138 1130 1128
f 1132 1130 1138
f 1317 1132 1138
f 1133 1130 1132
f 1112 1127 1130
f 1134 1314 1311
f 1133 1132 1134
f 1314 1134 1132
f 1132 1317 1314
f 1112 1130 1133
f 1335 1133 1134
f 1134 1169 1335
f 1316 1318 1141
f 1138 1137 1293
f 1317 1138 1294
f 1288 1317 1294
f 1140 1315 1313
f 1315 1140 1136
f 1317 1319 1314
f 1131 1141 1318
f 1147 1143 1142
f 1143 1321 1204
f 1142 1156 1155
f 1144 1160 1156
f 1193 1144 1156
f 1144 1347 1202
f 1160 1144 1202
f 1153 1145 1147
f 1321 1320 1146
f 1146 1320 1164
f 1146 1164 1165
f 1159 1148 1146
f 1165 1159 1146
f 1326 1147 1142
f 1322 1321 1146
f 1205 1204 1321
f 1207 1205 1148
f 1322 1205 1321
f 1323 1151 1150
f 1323 1325 1151
f 1153 1149 1145
f 1151 1152 1150
f 1157 1154 1324
f 1333 1174 1176
f 1155 1156 1151
f 1325 1155 1151
f 1151 1156 1327
f 1152 1151 1327
f 1158 1154 1161
f 1161 1154 1157
f 1328 1333 1176
f 1158 1175 1154
f 1326 1153 1147
f 1158 1328 1176
f 1175 1158 1176
f 1160 1327 1156
f 1329 1161 1157
f 1351 1208 1161
f 1329 1351 1161
f 1208 1158 1161
f 1207 1148 1159
f 1158 1353 1328
f 1320 1330 1164
f 1332 1174 1333
f 1332 1335 1174
f 1165 1164 1163
f 1152 1170 1150
f 1171 1334 1336
f 1171 1172 1334
f 1172 1309 1334
f 1169 1167 1172
f 1172 1167 1309
f 1174 1335 1169
f 1154 1336 1324
f 1154 1171 1336
f 1173 1172 1171
f 1174 1172 1173
f 1169 1172 1174
f 1175 1171 1154
f 1176 1174 1173
f 1173 1175 1176
f 1171 1175 1173
f 1177 1182 1178
f 1177 1180 1182
f 1179 1241 1177
f 1177 1178 1179
f 1245 1242 1338
f 1177 1244 1246
f 1337 1245 1338
f 1180 1177 1246
f 1181 1245 1337
f 1180 1246 1191
f 1346 1380 1251
f 1192 1196 1183
f 1192 1340 1182
f 1184 1348 1182
f 1185 1337 1183
f 1178 1182 1340
f 1196 1185 1183
f 1198 1347 1341
f 1182 1186 1184
f 1189 1185 1196
f 1196 1197 1189
f 1187 1198 1341
f 1182 1180 1186
f 1188 1341 1186
f 1186 1191 1188
f 1197 1201 1344
f 1342 1343 1190
f 1341 1188 1187
f 1190 1200 1342
f 1181 1185 1189
f 1181 1337 1185
f 1180 1191 1186
f 1346 1190 1343
f 1251 1190 1346
f 1344 1201 1252
f 1252 1201 1345
f 1143 1194 1192
f 1142 1192 1156
f 1142 1143 1192
f 1193 1156 1192
f 1194 1143 1204
f 1192 1182 1193
f 1199 1194 1204
f 1206 1199 1204
f 1194 1196 1192
f 1200 1203 1349
f 1195 1199 1206
f 1350 1195 1352
f 1197 1196 1194
f 1197 1194 1199
f 1199 1201 1197
f 1349 1342 1200
f 1195 1350 1199
f 1201 1199 1350
f 1201 1350 1345
f 1349 1203 1351
f 1347 1198 1202
f 1206 1204 1205
f 1207 1206 1205
f 1207 1195 1206
f 1195 1354 1352
f 1351 1203 1208
f 1354 1195 1353
f 1158 1354 1353
f 1261 1257 1218
f 1218 1386 1219
f 1387 1258 1362
f 1210 1209 1211
f 1356 1212 1355
f 1230 1217 1357
f 1226 1230 1357
f 1369 1211 1209
f 1215 1213 1210
f 1359 1214 1356
f 1357 1217 1360
f 1211 1215 1210
f 1214 1216 1356
f 1212 1356 1216
f 1238 1217 1230
f 1361 1239 1358
f 1220 1261 1218
f 1213 1220 1218
f 1218 1219 1213
f 1359 1362 1214
f 1362 1258 1214
f 1213 1215 1220
f 1220 1360 1221
f 1214 1258 1216
f 1221 1360 1217
f 1363 1217 1222
f 1222 1217 1238
f 1236 1375 1240
f 1221 1261 1220
f 1396 1363 1259
f 1260 1239 1361
f 1222 1259 1363
f 1392 1364 1376
f 1225 1223 1241
f 1365 1247 1241
f 1369 1223 1225
f 1227 1382 1366
f 1209 1224 1369
f 1369 1224 1223
f 1366 1367 1227
f 1367 1355 1229
f 1367 1229 1231
f 1230 1226 1228
f 1226 1368 1228
f 1231 1227 1367
f 1232 1227 1231
f 1355 1212 1229
f 1229 1358 1234
f 1229 1234 1231
f 1231 1372 1232
f 1231 1234 1372
f 1235 1230 1228
f 1233 1235 1228
f 1370 1237 1371
f 1239 1234 1358
f 1371 1376 1374
f 1230 1235 1238
f 1236 1240 1373
f 1236 1373 1232
f 1237 1376 1371
f 1364 1374 1376
f 1239 1372 1234
f 1227 1253 1382
f 1232 1253 1227
f 1241 1179 1225
f 1242 1368 1338
f 1368 1242 1228
f 1243 1228 1242
f 1243 1242 1249
f 1243 1233 1228
f 1237 1370 1254
f 1377 1254 1370
f 1247 1244 1177
f 1241 1247 1177
f 1242 1379 1249
f 1248 1381 1378
f 1380 1383 1251
f 1339 1249 1379
f 1253 1378 1382
f 1378 1253 1248
f 1255 1377 1249
f 1383 1250 1251
f 1249 1339 1252
f 1249 1252 1255
f 1385 1252 1250
f 1256 1253 1232
f 1253 1256 1383
f 1384 1250 1256
f 1256 1250 1383
f 1250 1384 1385
f 1255 1254 1377
f 1373 1384 1256
f 1232 1373 1256
f 1344 1252 1339
f 1250 1252 1345
f 1251 1250 1190
f 1388 1262 1390
f 1389 1397 1398
f 1265 1260 1361
f 1265 1361 1391
f 1375 1393 1240
f 1376 1394 1392
f 1263 1399 1396
f 1399 1263 1264
f 1402 1390 1262
f 1403 1400 1401
f 1259 1263 1396
f 1263 1392 1264
f 1264 1392 1394
f 1403 1401 1395
o FMA3895_BP8397_FJ2652
v 65.6293 -101.416 1201.35
v 65.5385 -101.351 1201.87
v 65.7077 -101.393 1202.37
v 65.5234 -100.967 1201.99
v 65.5113 -100.949 1202.54
v 65.6628 -100.762 1203.77
v 65.1817 -99.764 1205.78
v 65.4677 -99.97 1205.76
v 65.5814 -100.515 1204.63
v 65.0864 -99.5126 1206.22
v 65.4868 -99.5871 1206.23
v 64.8754 -99.2091 1205.94
v 64.8832 -98.7219 1206.09
v 65.3 -99.2135 1205.29
v 65.3016 -98.615 1205.96
v 64.4529 -98.355 1207.43
v 64.6071 -98.8032 1206.99
v 64.6688 -98.7682 1207.67
v 64.6618 -97.9266 1207.44
v 64.9003 -99.0343 1207.15
v 64.8787 -97.9227 1207.26
v 65.2785 -99.0072 1207.18
v 65.2748 -98.0364 1207.21
v 65.5078 -98.3856 1207.08
v 64.287 -98.1867 1209.05
v 64.5074 -98.3647 1209.09
v 64.8854 -98.7473 1207.96
v 65.2183 -97.9917 1209.07
v 65.2832 -98.565 1207.98
v 64.4842 -98.1441 1209.45
v 64.6786 -97.9611 1209.59
v 64.8775 -98.2531 1209.32
v 64.1856 -97.7881 1209.11
v 64.269 -97.6082 1208.88
v 64.2566 -97.567 1209.18
v 64.4778 -97.4104 1208.89
v 64.4861 -97.3699 1209.18
v 64.6847 -97.3362 1208.94
v 64.6786 -97.3195 1209.18
v 64.8953 -97.3988 1208.86
v 64.8687 -97.3599 1209.18
v 65.1407 -97.6038 1209.08
v 64.2623 -97.7777 1209.37
v 64.3734 -97.5667 1209.38
v 64.4865 -97.7711 1209.56
v 64.6784 -97.7656 1209.61
v 64.675 -97.4088 1209.37
v 64.675 -97.5786 1209.53
v 64.8661 -97.7744 1209.57
v 64.8798 -97.567 1209.48
v 65.0641 -97.7773 1209.43
v 67.2567 -104.364 1198.39
v 67.1425 -104.45 1198.66
v 66.9895 -103.965 1199.18
v 66.6551 -103.165 1199.78
v 66.6862 -103.383 1199.97
v 66.8785 -103.463 1200.18
v 65.8392 -102.026 1201.15
v 65.966 -101.489 1200.94
v 66.6329 -102.008 1201.14
v 66.7202 -102.002 1200.93
v 66.8558 -102.343 1200.23
v 66.0791 -101.585 1201.98
v 66.0742 -101.46 1202.24
v 66.0876 -101.333 1202.83
v 66.2962 -101.988 1201.47
v 66.405 -101.568 1201.58
v 66.2736 -101.4 1201.97
v 66.4277 -101.401 1201.37
v 66.3421 -101.179 1201.96
v 66.3142 -101.175 1202.41
v 65.8929 -101.214 1203.49
v 65.8525 -101.017 1204.08
v 66.0784 -101.197 1203.78
v 66.2817 -101.212 1203.38
v 66.2804 -101.059 1204.17
v 65.701 -100.983 1201.56
v 65.6935 -100.59 1202.77
v 65.8754 -100.614 1202.21
v 66.0942 -100.941 1201.56
v 66.0986 -100.644 1202.23
v 66.2745 -100.974 1201.8
v 66.3422 -100.947 1202.29
v 65.6822 -100.726 1204.18
v 65.6959 -100.578 1203.53
v 65.6786 -100.471 1204.18
v 65.8857 -100.416 1203.37
v 66.0652 -100.939 1204.54
v 66.0805 -100.438 1202.99
v 66.1282 -100.362 1203.42
v 66.2785 -100.165 1204.1
v 66.4898 -100.974 1203.33
v 66.5098 -100.964 1203.79
v 66.5688 -100.765 1203.76
v 66.5173 -100.753 1204.36
v 66.5751 -100.548 1204.2
v 66.4577 -100.39 1203.88
v 65.6777 -100.547 1205.02
v 65.8628 -100.52 1205.19
v 66.2409 -100.524 1205.02
v 66.4363 -100.149 1204.58
v 66.4357 -100.264 1204.83
v 65.8322 -99.018 1205.93
v 65.8176 -99.2194 1206.15
v 67.5004 -106.958 1194.81
v 67.544 -107.155 1194.79
v 67.6786 -106.965 1194.65
v 67.6929 -106.812 1194.8
v 67.8785 -107.165 1194.72
v 67.8785 -106.965 1194.69
v 67.4707 -107.165 1194.98
v 67.6489 -106.965 1195.58
v 67.5832 -106.765 1195.38
v 67.6548 -106.571 1196.16
v 67.6639 -106.365 1195.96
v 67.6547 -105.965 1196.38
v 67.6852 -107.278 1195
v 67.6833 -106.683 1195.18
v 67.8785 -107.273 1194.98
v 67.8798 -107.156 1195.39
v 67.8765 -106.942 1195.85
v 67.932 -106.776 1194.99
v 67.8886 -106.629 1195.2
v 67.8713 -106.613 1196.4
v 67.8785 -106.338 1195.78
v 67.8785 -105.857 1196.38
v 68.0613 -106.969 1195
v 68.1417 -106.968 1195.38
v 68.0722 -106.949 1195.77
v 68.1832 -106.765 1195.38
v 68.2249 -106.758 1195.79
v 68.0751 -106.732 1196.17
v 68.2426 -106.565 1195.78
v 68.2166 -106.356 1196.38
v 67.5446 -106.145 1196.58
v 67.6708 -106.324 1196.66
v 68.059 -106.339 1196.67
v 67.4268 -105.677 1197.3
v 67.337 -105.343 1197.22
v 67.4785 -105.315 1196.98
v 67.4785 -104.764 1197.63
v 67.6897 -105.633 1197.54
v 67.8652 -105.11 1198.02
v 67.9926 -105.765 1197.18
v 67.8559 -105.357 1196.95
v 67.8513 -104.898 1197.67
v 68.0626 -105.722 1196.8
v 67.2654 -104.736 1198.64
v 67.2785 -104.323 1199.38
v 67.2506 -103.749 1199
v 67.2209 -103.432 1199.27
v 67.4785 -103.913 1198.78
v 67.5661 -103.571 1199.35
v 67.7645 -103.965 1199.18
v 67.2317 -103.319 1200.2
v 67.279 -102.947 1200.18
v 65.7077 -101.393 1202.37
v 65.6628 -100.762 1203.77
v 64.8832 -98.7219 1206.09
v 65.3 -99.2135 1205.29
v 65.3016 -98.615 1205.96
v 65.2785 -99.0072 1207.18
v 64.4842 -98.1441 1209.45
v 65.0641 -97.7773 1209.43
v 67.1425 -104.45 1198.66
v 66.9895 -103.965 1199.18
v 66.8785 -103.463 1200.18
v 65.8392 -102.026 1201.15
v 65.966 -101.489 1200.94
v 66.7202 -102.002 1200.93
v 66.8558 -102.343 1200.23
v 66.0742 -101.46 1202.24
v 66.2962 -101.988 1201.47
v 66.2962 -101.988 1201.47
v 66.4277 -101.401 1201.37
v 66.3142 -101.175 1202.41
v 65.701 -100.983 1201.56
v 65.701 -100.983 1201.56
v 65.6822 -100.726 1204.18
v 65.6786 -100.471 1204.18
v 65.6786 -100.471 1204.18
v 65.6786 -100.471 1204.18
v 66.1282 -100.362 1203.42
v 66.2785 -100.165 1204.1
v 66.2785 -100.165 1204.1
v 65.8322 -99.018 1205.93
v 67.5004 -106.958 1194.81
v 67.5004 -106.958 1194.81
v 67.544 -107.155 1194.79
v 67.544 -107.155 1194.79
v 67.6786 -106.965 1194.65
v 67.6786 -106.965 1194.65
v 67.6786 -106.965 1194.65
v 67.6786 -106.965 1194.65
v 67.8785 -107.165 1194.72
v 67.8785 -107.165 1194.72
v 67.8785 -107.165 1194.72
v 67.8785 -106.965 1194.69
v 67.8785 -106.965 1194.69
v 67.8785 -106.965 1194.69
v 67.4707 -107.165 1194.98
v 67.4707 -107.165 1194.98
v 67.4707 -107.165 1194.98
v 67.6489 -106.965 1195.58
v 67.5832 -106.765 1195.38
v 67.6548 -106.571 1196.16
v 67.6639 -106.365 1195.96
v 67.6547 -105.965 1196.38
v 67.6852 -107.278 1195
v 67.8785 -107.273 1194.98
v 67.8785 -107.273 1194.98
v 67.8785 -107.273 1194.98
v 67.8798 -107.156 1195.39
v 67.8798 -107.156 1195.39
v 67.8765 -106.942 1195.85
v 67.8785 -106.338 1195.78
v 67.8785 -106.338 1195.78
v 67.8785 -105.857 1196.38
v 68.0613 -106.969 1195
v 68.1417 -106.968 1195.38
v 68.0722 -106.949 1195.77
v 68.1832 -106.765 1195.38
v 68.2249 -106.758 1195.79
v 68.0751 -106.732 1196.17
v 68.2426 -106.565 1195.78
v 68.2166 -106.356 1196.38
v 67.5446 -106.145 1196.58
v 67.337 -105.343 1197.22
v 67.4785 -105.315 1196.98
v 67.4785 -104.764 1197.63
v 67.8652 -105.11 1198.02
v 67.9926 -105.765 1197.18
v 67.8513 -104.898 1197.67
v 68.0626 -105.722 1196.8
v 67.2785 -104.323 1199.38
v 67.2209 -103.432 1199.27
v 67.4785 -103.913 1198.78
v 67.7645 -103.965 1199.18
v 67.7645 -103.965 1199.18
v 67.279 -102.947 1200.18
f 1407 1480 1404
f 1461 1406 1405
f 1461 1405 1404
f 1404 1405 1407
f 1405 1406 1476
f 1405 1476 1408
f 1405 1408 1407
f 1580 1407 1482
f 1482 1407 1481
f 1407 1408 1481
f 1476 1409 1408
f 1409 1476 1487
f 1481 1408 1488
f 1488 1408 1561
f 1476 1501 1412
f 1487 1476 1412
f 1582 1412 1489
f 1415 1410 1420
f 1410 1413 1420
f 1412 1410 1415
f 1501 1410 1412
f 1410 1501 1411
f 1413 1410 1411
f 1411 1414 1413
f 1489 1412 1415
f 1502 1411 1501
f 1411 1502 1414
f 1419 1416 1415
f 1417 1415 1416
f 1562 1418 1563
f 1583 1415 1417
f 1584 1563 1494
f 1494 1563 1418
f 1506 1587 1564
f 1437 1422 1419
f 1415 1420 1419
f 1416 1419 1422
f 1422 1437 1439
f 1421 1420 1423
f 1424 1562 1422
f 1420 1413 1423
f 1424 1418 1562
f 1423 1413 1414
f 1414 1425 1423
f 1425 1430 1423
f 1426 1564 1424
f 1506 1564 1426
f 1427 1506 1426
f 1565 1414 1507
f 1507 1427 1565
f 1421 1429 1428
f 1420 1421 1428
f 1420 1428 1419
f 1428 1433 1446
f 1428 1436 1419
f 1428 1446 1436
f 1433 1428 1429
f 1430 1421 1423
f 1421 1430 1429
f 1430 1435 1429
f 1425 1432 1430
f 1432 1435 1430
f 1431 1435 1432
f 1427 1431 1432
f 1445 1431 1427
f 1565 1427 1432
f 1433 1448 1446
f 1566 1429 1435
f 1435 1434 1566
f 1434 1449 1448
f 1433 1434 1448
f 1435 1452 1434
f 1452 1449 1434
f 1435 1454 1452
f 1431 1445 1567
f 1435 1431 1454
f 1422 1439 1424
f 1419 1436 1437
f 1436 1438 1437
f 1446 1438 1436
f 1439 1437 1438
f 1446 1447 1438
f 1438 1447 1440
f 1439 1438 1440
f 1441 1439 1440
f 1441 1440 1442
f 1450 1442 1440
f 1439 1441 1424
f 1424 1441 1443
f 1443 1441 1444
f 1441 1442 1444
f 1444 1442 1450
f 1453 1444 1450
f 1426 1424 1443
f 1445 1426 1443
f 1445 1444 1453
f 1444 1445 1443
f 1445 1427 1426
f 1447 1446 1448
f 1449 1451 1448
f 1451 1447 1448
f 1450 1440 1447
f 1451 1450 1447
f 1451 1452 1453
f 1449 1452 1451
f 1453 1450 1451
f 1567 1453 1452
f 1567 1445 1453
f 1455 1542 1456
f 1551 1552 1457
f 1456 1569 1455
f 1457 1568 1551
f 1457 1459 1458
f 1553 1569 1458
f 1552 1459 1457
f 1552 1460 1459
f 1554 1553 1458
f 1455 1569 1553
f 1556 1639 1465
f 1460 1571 1459
f 1460 1469 1571
f 1570 1638 1558
f 1558 1576 1570
f 1463 1558 1559
f 1463 1577 1558
f 1404 1480 1462
f 1483 1572 1581
f 1458 1461 1404
f 1458 1404 1462
f 1458 1459 1461
f 1572 1483 1465
f 1554 1458 1462
f 1464 1472 1463
f 1574 1483 1578
f 1574 1578 1573
f 1465 1639 1572
f 1559 1464 1463
f 1643 1574 1573
f 1406 1475 1476
f 1469 1560 1571
f 1577 1466 1406
f 1467 1406 1466
f 1475 1406 1467
f 1468 1475 1467
f 1471 1466 1577
f 1471 1474 1575
f 1471 1575 1466
f 1471 1473 1579
f 1474 1468 1575
f 1474 1478 1468
f 1472 1485 1473
f 1483 1485 1578
f 1463 1470 1577
f 1471 1577 1470
f 1463 1472 1470
f 1473 1471 1470
f 1470 1472 1473
f 1473 1485 1486
f 1473 1486 1579
f 1579 1486 1495
f 1474 1495 1478
f 1468 1477 1475
f 1477 1476 1475
f 1491 1476 1477
f 1468 1478 1477
f 1477 1478 1479
f 1491 1477 1479
f 1479 1503 1491
f 1478 1496 1479
f 1495 1496 1478
f 1496 1498 1479
f 1503 1479 1498
f 1497 1498 1496
f 1483 1581 1482
f 1482 1481 1490
f 1483 1482 1484
f 1484 1482 1492
f 1492 1482 1490
f 1485 1483 1484
f 1485 1484 1486
f 1484 1492 1500
f 1489 1488 1561
f 1582 1489 1561
f 1481 1488 1490
f 1490 1488 1585
f 1491 1501 1476
f 1492 1490 1493
f 1493 1490 1588
f 1588 1490 1585
f 1492 1586 1500
f 1500 1586 1587
f 1486 1484 1500
f 1587 1504 1500
f 1495 1486 1497
f 1495 1497 1496
f 1486 1500 1497
f 1497 1500 1499
f 1497 1499 1498
f 1505 1498 1499
f 1499 1500 1504
f 1499 1504 1505
f 1414 1502 1503
f 1491 1502 1501
f 1507 1414 1503
f 1491 1503 1502
f 1505 1503 1498
f 1507 1503 1505
f 1505 1504 1589
f 1505 1589 1507
f 1589 1427 1507
f 1506 1504 1587
f 1509 1520 1514
f 1508 1592 1604
f 1510 1590 1511
f 1511 1590 1521
f 1594 1512 1593
f 1509 1598 1520
f 1592 1508 1595
f 1598 1522 1520
f 1599 1596 1513
f 1601 1597 1511
f 1526 1511 1521
f 1530 1613 1600
f 1602 1530 1600
f 1601 1511 1525
f 1603 1525 1622
f 1525 1511 1526
f 1605 1516 1591
f 1590 1608 1521
f 1515 1606 1612
f 1516 1605 1607
f 1607 1517 1516
f 1516 1517 1518
f 1517 1538 1518
f 1609 1539 1630
f 1519 1518 1538
f 1543 1529 1611
f 1614 1523 1612
f 1612 1523 1515
f 1524 1515 1523
f 1524 1609 1515
f 1609 1524 1527
f 1618 1535 1527
f 1528 1526 1521
f 1521 1608 1619
f 1527 1539 1609
f 1619 1608 1610
f 1619 1610 1529
f 1611 1529 1610
f 1531 1616 1615
f 1623 1613 1530
f 1531 1532 1616
f 1617 1624 1618
f 1624 1535 1618
f 1526 1620 1536
f 1535 1540 1527
f 1536 1620 1621
f 1550 1536 1621
f 1534 1532 1531
f 1623 1530 1533
f 1623 1533 1626
f 1625 1622 1525
f 1526 1625 1525
f 1526 1536 1625
f 1533 1628 1626
f 1627 1532 1534
f 1627 1534 1537
f 1629 1626 1628
f 1540 1627 1537
f 1637 1629 1628
f 1630 1539 1541
f 1541 1539 1545
f 1539 1527 1545
f 1545 1527 1540
f 1547 1545 1540
f 1540 1537 1547
f 1637 1635 1629
f 1548 1529 1543
f 1550 1621 1548
f 1542 1519 1538
f 1630 1541 1631
f 1632 1519 1542
f 1541 1568 1631
f 1632 1542 1544
f 1455 1544 1542
f 1548 1543 1633
f 1549 1548 1633
f 1549 1550 1548
f 1636 1546 1637
f 1637 1546 1635
f 1545 1547 1634
f 1541 1551 1568
f 1552 1551 1541
f 1545 1552 1541
f 1545 1634 1638
f 1557 1638 1634
f 1546 1636 1641
f 1555 1544 1455
f 1455 1553 1555
f 1555 1553 1554
f 1640 1639 1556
f 1549 1633 1640
f 1549 1640 1556
f 1549 1556 1642
f 1556 1643 1642
f 1557 1559 1558
f 1643 1556 1574
f 1638 1557 1558
o FMA3895_BP8397_FJ2653
v 73.8865 -128.177 1188.77
v 74.0786 -128.307 1188.58
v 74.0786 -128.254 1188.78
v 73.8706 -127.965 1188.38
v 73.8785 -128.165 1188.44
v 74.0786 -128.165 1188.36
v 74.0786 -127.965 1188.33
v 74.2841 -127.934 1188.54
v 73.7802 -128.165 1188.58
v 73.7457 -127.965 1188.58
v 73.7859 -127.968 1188.78
v 73.9121 -127.908 1189.02
v 73.9079 -127.626 1189.02
v 74.2837 -127.698 1188.65
v 74.3002 -128.105 1188.64
v 74.2439 -127.194 1189.12
v 74.2788 -126.787 1189.57
v 74.2748 -126.772 1189.95
v 74.4544 -127.118 1189.92
v 74.4785 -126.965 1189.28
v 74.6547 -127.353 1189.58
v 74.8207 -126.965 1189.58
v 74.6731 -126.754 1190.19
v 74.311 -126.353 1190.02
v 74.4785 -126.365 1189.72
v 74.6786 -126.165 1189.8
v 74.9464 -126.334 1189.98
v 74.4858 -126.535 1190.3
v 74.5039 -125.255 1190.75
v 74.6814 -126.136 1190.51
v 74.6882 -125.567 1190.74
v 74.9388 -126.345 1190.18
v 74.8736 -125.602 1190.69
v 74.8698 -125.342 1190.86
v 75.0786 -125.425 1190.38
v 75.0664 -125.429 1190.6
v 74.5397 -124.821 1190.77
v 74.6476 -124.558 1191.22
v 74.6786 -124.92 1190.38
v 74.7817 -124.763 1191.39
v 74.8758 -124.273 1191.18
v 75.0754 -124.971 1190.52
v 75.2082 -124.965 1190.78
v 75.0916 -124.876 1191.38
v 75.0842 -124.532 1190.8
v 74.9551 -124.165 1192.18
v 74.9827 -123.975 1191.96
v 75.0301 -123.765 1192.58
v 74.9301 -122.165 1193.18
v 75.077 -121.365 1193.18
v 75.0786 -121.765 1192.87
v 74.977 -121.765 1193.58
v 75.0676 -121.365 1193.98
v 75.2784 -124.316 1192.38
v 75.2682 -123.805 1191.9
v 75.2785 -123.585 1192.18
v 75.2564 -123.527 1193.02
v 75.6165 -123.99 1191.93
v 75.4673 -123.58 1192.16
v 75.4643 -123.493 1193.09
v 75.6957 -124.165 1192.38
v 75.8082 -123.565 1192.58
v 75.6957 -123.565 1192.98
v 75.2785 -123.165 1192.43
v 75.4785 -123.242 1192.38
v 75.4785 -122.965 1192.47
v 75.4843 -122.234 1192.67
v 75.7435 -122.22 1192.98
v 75.6792 -122.262 1193.23
v 75.2775 -122.214 1193.49
v 75.3012 -121.91 1193.82
v 75.4914 -122.238 1193.45
v 75.5082 -121.926 1193.81
v 75.6801 -121.965 1193.38
v 75.8724 -121.756 1194
v 75.8957 -121.891 1194.43
v 75.8503 -121.904 1195.1
v 76.2672 -121.777 1195.39
v 75.2785 -121.81 1192.79
v 75.4755 -121.586 1192.95
v 75.2785 -121.101 1193.58
v 75.474 -121.191 1193.38
v 75.7705 -121.765 1193.78
v 75.7145 -121.365 1193.38
v 75.6786 -121.12 1193.78
v 75.5306 -121.347 1195.33
v 75.7457 -121.165 1196.18
v 75.8201 -120.942 1196.02
v 75.8593 -121.606 1195.95
v 75.8785 -121.029 1195.18
v 76.1805 -121.165 1194.98
v 76.2661 -121.619 1196.18
v 76.3582 -121.565 1194.98
v 76.2541 -120.746 1195.98
v 76.4838 -120.949 1195.83
v 76.6861 -121.1 1196.47
v 75.8588 -120.548 1197.18
v 75.9242 -120.772 1197.34
v 76.0915 -121.262 1196.87
v 76.4686 -120.98 1197.39
v 76.4677 -120.299 1196.82
v 76.7588 -120.363 1197.15
v 76.2787 -120.401 1198.3
v 76.0419 -120.19 1197.15
v 76.288 -119.502 1197.96
v 76.6658 -119.617 1197.92
v 75.9249 -120.002 1198.32
v 75.9147 -119.792 1198.14
v 76.0693 -119.765 1198.56
v 76.0816 -120.213 1198.39
v 76.0916 -119.966 1198.59
v 76.101 -119.536 1198.37
v 76.2788 -120.155 1198.59
v 76.2857 -119.958 1198.68
v 76.2712 -119.773 1198.67
v 76.2843 -119.579 1198.56
v 76.4796 -120.186 1198.55
v 76.4711 -119.972 1198.67
v 76.4731 -119.771 1198.66
v 76.4677 -119.449 1198.37
v 76.4865 -119.577 1198.56
v 76.7193 -120.217 1198.29
v 76.8102 -119.985 1198.32
v 76.67 -119.787 1198.57
v 76.6658 -119.967 1198.58
v 76.8311 -119.812 1198.1
v 76.6634 -119.507 1198.18
v 76.7021 -119.585 1198.38
v 73.8865 -128.177 1188.77
v 73.8865 -128.177 1188.77
v 74.0786 -128.307 1188.58
v 74.0786 -128.307 1188.58
v 74.0786 -128.254 1188.78
v 74.0786 -128.254 1188.78
v 74.0786 -128.254 1188.78
v 73.8706 -127.965 1188.38
v 73.8706 -127.965 1188.38
v 73.8706 -127.965 1188.38
v 73.8785 -128.165 1188.44
v 73.8785 -128.165 1188.44
v 74.0786 -128.165 1188.36
v 74.0786 -128.165 1188.36
v 74.0786 -127.965 1188.33
v 74.0786 -127.965 1188.33
v 73.7802 -128.165 1188.58
v 73.7802 -128.165 1188.58
v 73.7457 -127.965 1188.58
v 73.7457 -127.965 1188.58
v 73.9121 -127.908 1189.02
v 73.9079 -127.626 1189.02
v 73.9079 -127.626 1189.02
v 74.2837 -127.698 1188.65
v 74.3002 -128.105 1188.64
v 74.2788 -126.787 1189.57
v 74.2748 -126.772 1189.95
v 74.2748 -126.772 1189.95
v 74.4544 -127.118 1189.92
v 74.4544 -127.118 1189.92
v 74.4785 -126.965 1189.28
v 74.6547 -127.353 1189.58
v 74.6547 -127.353 1189.58
v 74.8207 -126.965 1189.58
v 74.6731 -126.754 1190.19
v 74.6731 -126.754 1190.19
v 74.311 -126.353 1190.02
v 74.9464 -126.334 1189.98
v 74.4858 -126.535 1190.3
v 74.5039 -125.255 1190.75
v 74.5039 -125.255 1190.75
v 74.6814 -126.136 1190.51
v 74.6882 -125.567 1190.74
v 74.8698 -125.342 1190.86
v 74.8698 -125.342 1190.86
v 75.0786 -125.425 1190.38
v 75.0664 -125.429 1190.6
v 74.5397 -124.821 1190.77
v 74.6476 -124.558 1191.22
v 74.6786 -124.92 1190.38
v 74.6786 -124.92 1190.38
v 74.8758 -124.273 1191.18
v 75.2082 -124.965 1190.78
v 75.2082 -124.965 1190.78
v 75.0916 -124.876 1191.38
v 75.0916 -124.876 1191.38
v 75.0916 -124.876 1191.38
v 75.0842 -124.532 1190.8
v 75.0842 -124.532 1190.8
v 74.9551 -124.165 1192.18
v 75.0301 -123.765 1192.58
v 75.0301 -123.765 1192.58
v 74.9301 -122.165 1193.18
v 75.077 -121.365 1193.18
v 74.977 -121.765 1193.58
v 75.2784 -124.316 1192.38
v 75.2682 -123.805 1191.9
v 75.6165 -123.99 1191.93
v 75.6165 -123.99 1191.93
v 75.6957 -124.165 1192.38
v 75.8082 -123.565 1192.58
v 75.6957 -123.565 1192.98
v 75.4785 -123.242 1192.38
v 75.4785 -122.965 1192.47
v 75.4843 -122.234 1192.67
v 75.7435 -122.22 1192.98
v 75.2775 -122.214 1193.49
v 75.3012 -121.91 1193.82
v 75.3012 -121.91 1193.82
v 75.4914 -122.238 1193.45
v 75.4914 -122.238 1193.45
v 75.5082 -121.926 1193.81
v 75.5082 -121.926 1193.81
v 75.8957 -121.891 1194.43
v 76.2672 -121.777 1195.39
v 75.2785 -121.101 1193.58
v 75.7705 -121.765 1193.78
v 75.7145 -121.365 1193.38
v 75.5306 -121.347 1195.33
v 75.8785 -121.029 1195.18
v 76.1805 -121.165 1194.98
v 76.2661 -121.619 1196.18
v 76.3582 -121.565 1194.98
v 76.4838 -120.949 1195.83
v 76.7588 -120.363 1197.15
v 76.6658 -119.617 1197.92
v 75.9147 -119.792 1198.14
v 76.0693 -119.765 1198.56
v 76.101 -119.536 1198.37
v 76.101 -119.536 1198.37
v 76.67 -119.787 1198.57
v 76.6634 -119.507 1198.18
v 76.6634 -119.507 1198.18
v 76.7021 -119.585 1198.38
f 1648 1645 1652
f 1648 1649 1645
f 1774 1784 1658
f 1645 1644 1652
f 1645 1646 1644
f 1796 1776 1775
f 1647 1782 1788
f 1647 1788 1653
f 1650 1779 1659
f 1659 1780 1790
f 1785 1781 1786
f 1785 1783 1781
f 1651 1658 1784
f 1787 1651 1784
f 1651 1787 1657
f 1795 1650 1659
f 1789 1654 1791
f 1772 1655 1654
f 1772 1654 1789
f 1654 1656 1791
f 1654 1655 1656
f 1659 1790 1793
f 1777 1792 1773
f 1796 1664 1776
f 1655 1661 1656
f 1659 1793 1660
f 1798 1797 1794
f 1797 1798 1667
f 1665 1658 1651
f 1803 1658 1665
f 1651 1657 1805
f 1795 1659 1663
f 1792 1777 1662
f 1799 1792 1662
f 1663 1659 1660
f 1663 1660 1668
f 1660 1808 1668
f 1657 1802 1805
f 1800 1778 1804
f 1666 1800 1804
f 1802 1669 1805
f 1803 1665 1675
f 1806 1803 1675
f 1805 1669 1670
f 1665 1809 1675
f 1662 1671 1799
f 1810 1801 1807
f 1798 1672 1667
f 1669 1663 1668
f 1668 1682 1669
f 1668 1808 1821
f 1675 1809 1678
f 1670 1669 1817
f 1671 1811 1799
f 1810 1807 1673
f 1673 1812 1810
f 1673 1674 1812
f 1674 1677 1812
f 1806 1675 1813
f 1675 1676 1813
f 1676 1814 1813
f 1815 1814 1676
f 1678 1679 1675
f 1818 1816 1676
f 1818 1676 1675
f 1669 1682 1685
f 1816 1818 1687
f 1686 1679 1678
f 1817 1669 1685
f 1685 1824 1817
f 1679 1686 1826
f 1672 1680 1667
f 1819 1821 1808
f 1672 1681 1680
f 1677 1683 1812
f 1827 1683 1677
f 1683 1681 1672
f 1684 1821 1819
f 1819 1820 1684
f 1820 1689 1690
f 1684 1820 1690
f 1688 1685 1682
f 1829 1822 1823
f 1683 1831 1681
f 1698 1684 1690
f 1701 1824 1685
f 1701 1685 1830
f 1823 1838 1829
f 1689 1691 1690
f 1698 1690 1699
f 1699 1690 1832
f 1831 1700 1833
f 1697 1683 1827
f 1697 1831 1683
f 1697 1700 1831
f 1700 1692 1833
f 1694 1707 1832
f 1834 1694 1832
f 1695 1693 1834
f 1699 1832 1707
f 1692 1700 1713
f 1694 1722 1707
f 1692 1713 1836
f 1836 1713 1714
f 1693 1694 1834
f 1694 1835 1722
f 1695 1696 1693
f 1724 1693 1696
f 1839 1829 1838
f 1702 1839 1838
f 1704 1837 1828
f 1700 1837 1703
f 1702 1698 1699
f 1703 1713 1700
f 1704 1828 1825
f 1841 1824 1701
f 1704 1706 1837
f 1706 1703 1837
f 1839 1702 1708
f 1705 1841 1701
f 1843 1841 1705
f 1840 1844 1842
f 1708 1702 1699
f 1707 1708 1699
f 1708 1707 1709
f 1703 1715 1713
f 1709 1707 1710
f 1710 1707 1722
f 1723 1710 1722
f 1845 1842 1844
f 1703 1706 1715
f 1842 1845 1846
f 1712 1717 1851
f 1711 1846 1723
f 1843 1705 1712
f 1843 1712 1851
f 1846 1711 1842
f 1705 1847 1712
f 1712 1847 1717
f 1716 1848 1852
f 1716 1849 1848
f 1720 1836 1714
f 1717 1853 1851
f 1854 1720 1850
f 1732 1836 1720
f 1726 1853 1717
f 1726 1718 1853
f 1718 1719 1853
f 1854 1855 1720
f 1855 1721 1720
f 1719 1718 1736
f 1856 1719 1736
f 1721 1735 1720
f 1720 1735 1732
f 1723 1722 1835
f 1835 1725 1723
f 1857 1725 1835
f 1727 1723 1725
f 1717 1847 1859
f 1711 1723 1727
f 1695 1729 1696
f 1725 1728 1727
f 1728 1725 1857
f 1728 1857 1733
f 1724 1696 1861
f 1696 1860 1861
f 1858 1717 1859
f 1858 1859 1718
f 1718 1859 1736
f 1728 1864 1727
f 1864 1728 1734
f 1733 1862 1728
f 1695 1732 1729
f 1732 1730 1729
f 1732 1742 1741
f 1732 1741 1730
f 1860 1731 1861
f 1860 1730 1731
f 1742 1732 1735
f 1737 1861 1731
f 1862 1733 1737
f 1747 1737 1731
f 1864 1734 1738
f 1737 1865 1862
f 1744 1865 1737
f 1744 1737 1747
f 1736 1739 1856
f 1863 1856 1739
f 1864 1738 1739
f 1739 1738 1745
f 1865 1744 1866
f 1741 1740 1730
f 1730 1740 1731
f 1747 1731 1740
f 1742 1753 1741
f 1741 1753 1750
f 1746 1753 1742
f 1735 1743 1742
f 1746 1742 1743
f 1743 1760 1746
f 1739 1743 1863
f 1749 1866 1744
f 1749 1769 1866
f 1745 1769 1739
f 1756 1753 1746
f 1746 1760 1756
f 1765 1760 1743
f 1765 1743 1739
f 1751 1747 1740
f 1741 1750 1740
f 1740 1750 1868
f 1747 1751 1748
f 1744 1747 1748
f 1744 1748 1867
f 1867 1748 1770
f 1873 1769 1749
f 1753 1754 1750
f 1750 1752 1868
f 1754 1758 1869
f 1750 1754 1752
f 1869 1759 1755
f 1752 1870 1868
f 1748 1751 1871
f 1753 1756 1754
f 1754 1756 1757
f 1757 1758 1754
f 1759 1869 1758
f 1760 1761 1756
f 1761 1757 1756
f 1761 1762 1757
f 1762 1758 1757
f 1759 1762 1764
f 1762 1759 1758
f 1770 1748 1763
f 1748 1755 1763
f 1763 1755 1759
f 1764 1763 1759
f 1765 1768 1760
f 1760 1768 1761
f 1767 1762 1768
f 1768 1762 1761
f 1767 1764 1762
f 1767 1771 1764
f 1771 1763 1764
f 1765 1739 1766
f 1765 1766 1768
f 1739 1769 1766
f 1766 1872 1768
f 1766 1769 1875
f 1872 1766 1875
f 1875 1769 1873
f 1763 1771 1874
o FMA3895_BP8397_FJ2654
v 74.4894 -142.765 1188.78
v 74.6786 -142.817 1188.58
v 74.8785 -142.77 1188.58
v 74.8785 -142.845 1188.78
v 74.2263 -141.625 1188.41
v 74.1907 -141.389 1188.19
v 74.2148 -141.13 1188.37
v 74.3549 -142.161 1188.38
v 74.2902 -141.181 1187.95
v 74.4717 -141.917 1188.11
v 74.4785 -141.365 1187.91
v 74.6742 -142.35 1188.29
v 74.6795 -141.765 1188.1
v 74.8364 -141.765 1188.38
v 74.6741 -141.371 1188.04
v 74.768 -141.298 1188.17
v 74.685 -141.11 1187.98
v 74.7239 -141.165 1188.38
v 74.867 -142.243 1188.39
v 74.4851 -142.321 1188.79
v 74.4785 -141.565 1188.62
v 75.0051 -142.565 1188.78
v 74.8785 -142.565 1188.99
v 74.1667 -140.928 1188.17
v 74.241 -139.956 1187.99
v 74.2113 -139.994 1188.19
v 74.2874 -140.892 1187.92
v 74.4785 -140.965 1187.83
v 74.4785 -140.365 1188.43
v 74.4776 -139.798 1187.82
v 74.6701 -140.165 1187.84
v 74.8222 -139.987 1187.99
v 74.8453 -139.832 1188.21
v 74.2233 -139.155 1188.18
v 74.2239 -139.165 1188.38
v 74.4903 -138.68 1188
v 74.6932 -138.988 1187.94
v 74.8998 -139.092 1188.19
v 74.9176 -138.903 1188.39
v 74.8716 -137.954 1188.06
v 75.0755 -137.902 1188.21
v 74.7647 -137.626 1188.93
v 74.8785 -138.6 1188.58
v 74.4457 -137.765 1188.38
v 74.8656 -136.982 1188.3
v 75.0863 -136.924 1188.34
v 74.6485 -136.682 1189.01
v 74.6878 -135.952 1188.96
v 75.0124 -134.565 1189.38
v 75.1484 -133.803 1190.39
v 75.3207 -136.965 1188.78
v 75.268 -135.094 1189.01
v 75.5033 -135.742 1189.02
v 75.5206 -133.467 1189.91
v 75.8906 -133.533 1190.05
v 76.0786 -133.365 1190.78
v 75.4974 -132.192 1191.38
v 75.5475 -132.242 1191.53
v 75.5934 -131.902 1191.3
v 75.8575 -131.569 1191.32
v 76.0463 -132.732 1191.46
v 76.0602 -131.498 1191.34
v 76.2359 -131.853 1191.12
v 76.2769 -131.428 1191.57
v 76.4399 -132.281 1191.34
v 76.4686 -131.982 1191.36
v 75.5805 -131.98 1191.78
v 75.5402 -131.771 1191.77
v 75.6536 -131.569 1191.97
v 75.6828 -131.766 1192.06
v 75.684 -131.463 1191.77
v 75.8347 -132.422 1191.72
v 75.8799 -131.977 1192.13
v 75.8776 -131.584 1192.15
v 76.0886 -131.988 1192.14
v 76.0713 -131.766 1192.21
v 76.0815 -131.565 1192.16
v 76.3702 -132.009 1191.92
v 76.2642 -131.767 1192.13
v 76.4471 -131.575 1191.77
v 76.3706 -131.576 1191.97
v 76.4916 -131.785 1191.76
v 75.8813 -131.354 1191.58
v 76.0852 -131.322 1191.59
v 75.8831 -131.38 1191.97
v 76.0716 -131.297 1191.78
v 76.0894 -131.364 1191.97
v 76.2688 -131.375 1191.79
v 74.4894 -142.765 1188.78
v 74.4894 -142.765 1188.78
v 74.4894 -142.765 1188.78
v 74.4894 -142.765 1188.78
v 74.6786 -142.817 1188.58
v 74.6786 -142.817 1188.58
v 74.6786 -142.817 1188.58
v 74.8785 -142.77 1188.58
v 74.8785 -142.77 1188.58
v 74.8785 -142.845 1188.78
v 74.8785 -142.845 1188.78
v 74.8785 -142.845 1188.78
v 74.8785 -142.845 1188.78
v 74.2263 -141.625 1188.41
v 74.1907 -141.389 1188.19
v 74.2148 -141.13 1188.37
v 74.3549 -142.161 1188.38
v 74.4717 -141.917 1188.11
v 74.4785 -141.365 1187.91
v 74.6742 -142.35 1188.29
v 74.8364 -141.765 1188.38
v 74.8364 -141.765 1188.38
v 74.7239 -141.165 1188.38
v 74.867 -142.243 1188.39
v 74.4785 -141.565 1188.62
v 75.0051 -142.565 1188.78
v 75.0051 -142.565 1188.78
v 74.8785 -142.565 1188.99
v 74.8785 -142.565 1188.99
v 74.8785 -142.565 1188.99
v 74.2113 -139.994 1188.19
v 74.4785 -140.365 1188.43
v 74.4785 -140.365 1188.43
v 74.4785 -140.365 1188.43
v 74.8453 -139.832 1188.21
v 74.2233 -139.155 1188.18
v 74.2239 -139.165 1188.38
v 74.2239 -139.165 1188.38
v 74.8998 -139.092 1188.19
v 74.8716 -137.954 1188.06
v 74.7647 -137.626 1188.93
v 74.7647 -137.626 1188.93
v 74.7647 -137.626 1188.93
v 74.8785 -138.6 1188.58
v 74.4457 -137.765 1188.38
v 75.0863 -136.924 1188.34
v 74.6878 -135.952 1188.96
v 75.0124 -134.565 1189.38
v 75.1484 -133.803 1190.39
v 75.1484 -133.803 1190.39
v 75.1484 -133.803 1190.39
v 75.268 -135.094 1189.01
v 75.268 -135.094 1189.01
v 75.5206 -133.467 1189.91
v 76.0786 -133.365 1190.78
v 76.0786 -133.365 1190.78
v 76.0786 -133.365 1190.78
v 75.5475 -132.242 1191.53
v 75.8575 -131.569 1191.32
v 75.8347 -132.422 1191.72
v 75.8799 -131.977 1192.13
v 75.8813 -131.354 1191.58
f 1877 1883 1887
f 1983 1894 1878
f 1968 1983 1878
f 1876 1883 1877
f 1971 1879 1969
f 1970 1973 1964
f 1974 1898 1965
f 1966 1991 1895
f 1897 1975 1972
f 1972 1987 1897
f 1992 1976 1989
f 1980 1880 1881
f 1884 1885 1978
f 1880 1882 1881
f 1899 1902 1884
f 1884 1978 1899
f 1881 1882 1899
f 1967 1880 1980
f 1885 1883 1978
f 1979 1977 1896
f 1885 1884 1886
f 1886 1884 1903
f 1903 1884 1902
f 1896 1904 1979
f 1887 1883 1885
f 1983 1981 1888
f 1981 1982 1888
f 1888 1982 1890
f 1892 1982 1903
f 1908 1995 1988
f 1983 1888 1894
f 1987 1888 1889
f 1890 1891 1888
f 1888 1891 1889
f 1984 1891 1893
f 1890 1982 1892
f 1890 1892 1891
f 1893 1891 1998
f 1988 1986 1908
f 1895 1977 1966
f 1896 1977 1895
f 1988 1993 1985
f 1991 1896 1895
f 1988 1985 1986
f 1987 1889 1897
f 1985 1993 1990
f 1900 1902 1899
f 1899 1901 1900
f 1899 1882 1901
f 1909 1911 1900
f 1900 1901 1999
f 1994 1904 1910
f 1901 2000 1999
f 1903 1902 1905
f 1994 1979 1904
f 1902 1900 1905
f 1905 1900 1911
f 1892 1903 1906
f 1906 1903 1905
f 1998 1918 1996
f 2007 2001 1997
f 1906 1907 1892
f 1892 1907 1891
f 1891 1907 1998
f 1914 1918 1998
f 1913 1998 1907
f 1998 1913 1914
f 1919 1911 1909
f 1999 2000 2008
f 1906 1905 1912
f 1912 1905 1911
f 1912 1907 1906
f 1907 1912 2002
f 1912 1911 1915
f 1914 1913 1926
f 1918 1914 1926
f 1926 1913 1916
f 1916 2002 1912
f 1916 1912 2003
f 2000 1917 2008
f 2007 2004 2001
f 1926 2005 1918
f 1911 1920 1915
f 1919 1920 1911
f 1919 1923 1920
f 1916 2003 1921
f 1920 2009 1915
f 2009 1920 1927
f 2015 1920 1923
f 1921 1928 1916
f 1916 1928 1926
f 1928 1921 2016
f 1917 1922 2008
f 2008 1922 2010
f 1917 1925 1922
f 1925 2010 1922
f 2010 1925 1924
f 1926 1931 2005
f 2018 2012 2006
f 2011 2015 1923
f 1925 1934 1924
f 1926 1928 2019
f 1928 2016 1930
f 2015 2011 1929
f 1929 2011 1934
f 2016 2017 1930
f 1928 1930 2019
f 1933 1932 1925
f 1934 1925 1932
f 1929 1934 1935
f 1933 1942 1932
f 1942 1943 1932
f 1932 1943 1934
f 1934 1943 1946
f 2021 2013 1947
f 1935 1934 1958
f 1946 1958 1934
f 1936 2014 2020
f 2023 2014 1936
f 1937 2017 2022
f 2020 1953 1936
f 1938 2017 1937
f 1939 1938 1937
f 1953 2020 1940
f 1940 2019 1930
f 1930 2017 1938
f 1938 1941 1930
f 1939 1955 1941
f 1939 1941 1938
f 1939 1959 1963
f 1939 1963 1955
f 1941 1940 1930
f 1940 1941 1957
f 1953 1940 1957
f 1955 1957 1941
f 1942 1945 1943
f 1943 1945 1944
f 1946 1943 1944
f 1947 1942 2021
f 1942 1947 1948
f 1949 1945 2024
f 1945 1942 1948
f 1949 1944 1945
f 1960 1944 1949
f 2024 2023 1936
f 2024 1936 1950
f 1950 1951 2024
f 1949 2024 1951
f 1952 1949 1951
f 1952 1960 1949
f 1953 1950 1936
f 1950 1954 1951
f 1954 1956 1952
f 1951 1954 1952
f 1956 1962 1952
f 1953 1956 1954
f 1950 1953 1954
f 1963 1962 1956
f 1963 1956 1955
f 1953 1957 1956
f 1957 1955 1956
f 2025 1946 1960
f 1937 2022 2025
f 1959 1937 2025
f 1959 2025 1961
f 2025 1960 1961
f 1939 1937 1959
f 1963 1959 1961
f 1946 1944 1960
f 1961 1960 1962
f 1952 1962 1960
f 1962 1963 1961
