o FMA3855_BP8961_FJ2737
v 23.4627 -118.788 1258.43
v 23.6283 -118.242 1258.77
v 23.8609 -118.117 1258.17
v 23.4454 -119.427 1258.33
v 23.6244 -119.971 1258.19
v 23.5534 -120.098 1258.78
v 23.779 -119.524 1257.68
v 23.9552 -120.544 1258.37
v 23.7667 -118.899 1257.73
v 24.0963 -120.044 1257.58
v 24.2155 -119.316 1257.27
v 24.6033 -120.644 1257.73
v 24.7105 -120.994 1258.3
v 23.5153 -118.612 1259.31
v 23.6452 -118.985 1259.87
v 23.9442 -118.302 1259.93
v 24.0727 -118.631 1260.27
v 23.3893 -119.262 1259.22
v 23.467 -119.849 1259.14
v 23.5815 -120.149 1259.1
v 23.9575 -120.622 1259.01
v 23.6124 -119.608 1259.77
v 23.7684 -120.165 1259.65
v 23.8795 -119.905 1260.03
v 24.1685 -120.429 1259.9
v 25.0201 -121.064 1259.38
v 24.256 -119.272 1260.5
v 24.4792 -120.097 1260.42
v 24.0665 -117.715 1258.8
v 24.4595 -118.113 1257.54
v 24.3805 -117.651 1258.19
v 24.6321 -117.418 1259.11
v 25.3072 -117.834 1257.5
v 25.2538 -117.398 1258.19
v 25.5946 -117.304 1259.07
v 25.2301 -119.941 1257.05
v 25.2467 -118.727 1256.99
v 26.0419 -119.085 1256.86
v 26.3974 -119.981 1256.77
v 26.0491 -118.241 1257.2
v 26.0969 -120.946 1257.48
v 24.0922 -117.795 1259.41
v 24.1984 -118.017 1259.96
v 24.2915 -118.232 1260.23
v 24.6902 -118.531 1260.58
v 24.694 -117.709 1259.95
v 25.0622 -117.857 1260.24
v 25.3572 -117.594 1259.93
v 26.1647 -118.422 1260.55
v 25.0137 -120.579 1260.24
v 25.1437 -119.967 1260.66
v 25.2349 -119.302 1260.82
v 26.5034 -119.37 1260.72
v 27.2932 -120.643 1260.16
v 26.0185 -121.368 1258.56
v 26.681 -121.047 1259.86
v 26.8538 -117.883 1257.56
v 26.663 -117.536 1258.28
v 26.8691 -117.52 1258.91
v 27.0553 -119.419 1256.51
v 27.5128 -118.918 1256.55
v 28.9686 -118.107 1257.76
v 29.8781 -122.391 1257.34
v 27.6969 -118.072 1259.53
v 28.2772 -119.088 1260.07
v 28.7365 -120.576 1259.83
v 29.9521 -120.21 1255.22
v 30.8436 -119.559 1255.32
v 31.2682 -121.905 1254.86
v 31.5714 -122.778 1255.54
v 30.9871 -122.423 1257.72
v 31.4591 -122.09 1258.09
v 32.5562 -123.291 1255.88
v 31.6322 -119.246 1255.72
v 33.826 -119.986 1255.07
v 34.1705 -119.974 1255.39
v 34.3331 -120.219 1254.96
v 34.405 -120.327 1255.56
v 32.3561 -121.037 1254.32
v 32.9073 -123.138 1254.94
v 33.1706 -122.915 1254.53
v 33.3171 -123.197 1254.98
v 33.3217 -122.247 1254.05
v 33.569 -122.497 1254.45
v 33.727 -121.487 1253.95
v 33.5811 -120.544 1254.41
v 34.06 -121.127 1254.24
v 31.9728 -119.124 1256.19
v 33.7179 -120.589 1257.52
v 33.4615 -119.642 1256.18
v 34.2002 -120.093 1256.55
v 33.0374 -123.409 1255.5
v 33.0044 -123.425 1256.13
v 32.9513 -123.347 1256.46
v 32.8944 -123.202 1256.79
v 32.546 -121.791 1258.06
v 33.3734 -123.334 1256.08
v 33.3622 -123.283 1256.67
v 33.2325 -123.027 1257.08
v 33.7559 -122.588 1256.91
v 33.6681 -122.346 1257.57
v 33.6069 -121.455 1257.81
v 34.0931 -121.643 1257.47
v 34.315 -120.912 1256.88
v 34.3331 -120.219 1254.96
v 34.3331 -120.219 1254.96
v 34.405 -120.327 1255.56
v 33.1706 -122.915 1254.53
v 33.3171 -123.197 1254.98
v 33.3171 -123.197 1254.98
v 33.3171 -123.197 1254.98
v 33.3217 -122.247 1254.05
v 33.727 -121.487 1253.95
v 34.06 -121.127 1254.24
v 33.3734 -123.334 1256.08
v 33.3622 -123.283 1256.67
v 33.3622 -123.283 1256.67
v 33.2325 -123.027 1257.08
v 33.6681 -122.346 1257.57
v 34.0931 -121.643 1257.47
v 34.315 -120.912 1256.88
f 18 14 1
f 1 3 9
f 1 9 4
f 2 3 1
f 14 2 1
f 42 2 14
f 3 2 29
f 2 42 29
f 3 30 9
f 31 3 29
f 7 10 5
f 7 5 4
f 5 6 4
f 5 8 6
f 6 8 21
f 1 4 18
f 4 19 18
f 4 6 19
f 6 20 19
f 6 21 20
f 9 11 7
f 4 9 7
f 11 36 10
f 7 11 10
f 5 10 8
f 8 13 21
f 10 12 8
f 12 13 8
f 9 30 11
f 30 37 11
f 37 36 11
f 12 10 36
f 13 41 55
f 13 12 41
f 22 15 18
f 14 15 16
f 18 15 14
f 17 16 15
f 27 15 22
f 27 17 15
f 14 16 42
f 16 43 42
f 16 44 43
f 44 16 17
f 45 44 17
f 27 45 17
f 45 27 52
f 20 23 19
f 20 21 23
f 18 19 22
f 19 23 22
f 27 22 24
f 24 22 23
f 21 25 23
f 25 24 23
f 26 21 13
f 21 26 25
f 50 25 26
f 24 25 28
f 27 24 28
f 25 50 28
f 55 26 13
f 28 50 51
f 28 51 27
f 31 29 32
f 32 29 42
f 3 31 30
f 31 33 30
f 32 34 31
f 34 33 31
f 30 33 37
f 33 34 57
f 35 34 32
f 35 32 48
f 33 40 37
f 33 57 40
f 34 35 58
f 58 57 34
f 61 40 57
f 58 35 59
f 36 37 39
f 12 36 41
f 37 38 39
f 39 41 36
f 39 38 60
f 37 40 38
f 61 38 40
f 46 42 43
f 46 43 44
f 32 42 46
f 44 47 46
f 45 47 44
f 49 47 45
f 49 45 52
f 48 32 46
f 53 49 52
f 48 46 47
f 49 48 47
f 48 49 64
f 35 48 64
f 51 50 54
f 52 27 51
f 50 26 56
f 56 54 50
f 53 51 54
f 52 51 53
f 56 26 71
f 60 67 39
f 67 69 39
f 61 67 60
f 74 57 58
f 59 35 64
f 58 62 74
f 62 58 59
f 64 62 59
f 60 38 61
f 68 61 57
f 74 68 57
f 64 90 62
f 55 41 70
f 63 26 55
f 55 70 63
f 63 71 26
f 69 70 41
f 49 65 64
f 53 65 49
f 54 66 53
f 66 65 53
f 89 64 65
f 66 89 65
f 71 54 56
f 72 66 54
f 39 69 41
f 67 79 69
f 68 67 61
f 67 68 86
f 86 79 67
f 74 86 68
f 80 70 69
f 70 80 92
f 88 74 62
f 88 62 90
f 66 72 96
f 71 63 95
f 54 71 72
f 70 73 63
f 94 95 63
f 73 93 63
f 63 93 94
f 70 92 73
f 95 99 71
f 93 73 92
f 71 99 72
f 86 74 75
f 88 75 74
f 75 77 86
f 88 76 75
f 75 76 77
f 90 76 88
f 78 87 105
f 86 77 114
f 106 76 107
f 83 81 69
f 80 69 81
f 80 81 82
f 82 92 80
f 79 83 69
f 108 112 84
f 108 84 109
f 86 85 79
f 84 100 110
f 84 112 113
f 85 83 79
f 84 113 87
f 114 85 86
f 84 87 100
f 100 87 104
f 91 90 64
f 76 90 91
f 104 87 78
f 89 91 64
f 91 121 107
f 91 89 121
f 76 91 107
f 111 97 92
f 97 93 92
f 97 98 93
f 98 94 93
f 98 95 94
f 99 95 98
f 72 101 96
f 101 72 99
f 110 100 115
f 115 100 116
f 100 118 117
f 102 96 101
f 100 104 103
f 119 100 103
f 100 119 118
f 102 66 96
f 89 66 102
f 120 102 101
f 120 89 102
f 121 89 120
