o FMA49911_BP8784_FJ3040
v -32.1658 -78.4853 1211.85
v -32.1919 -79.7455 1211.8
v -33.8068 -79.3489 1215.04
v -33.6686 -78.5475 1213.75
v -33.1007 -79.3074 1212.54
v -32.9851 -77.3861 1213.36
v -33.4613 -80.1195 1213.35
v -33.4197 -80.8956 1214.53
v -32.7313 -80.5046 1212.51
v -32.537 -81.4554 1213.35
v -31.7871 -80.9207 1212.13
v -32.1603 -78.5592 1218.08
v -32.4728 -76.8418 1216.08
v -33.1764 -80.8975 1216.12
v -32.631 -81.7299 1215.66
v -32.1894 -80.1631 1218.27
v -31.6341 -81.706 1217.89
v -31.3955 -78.9642 1211.42
v -30.5774 -77.4683 1211.78
v -30.213 -79.3211 1211.28
v -31.3399 -80.1176 1211.55
v -29.4868 -80.8548 1211.88
v -31.3919 -76.4755 1212.91
v -28.8305 -76.4618 1213.63
v -31.0672 -82.4734 1214.2
v -30.5325 -82.0102 1212.96
v -29.4374 -82.7995 1214.64
v -31.6764 -76.0429 1215.19
v -30.7587 -76.3351 1217.03
v -30.0549 -76.0731 1216.46
v -30.1904 -82.8926 1216.99
v -28.2113 -78.5462 1211.72
v -26.602 -78.9383 1213.04
v -26.8615 -81.6056 1213.62
v -28.2682 -77.3052 1220.7
v -26.433 -76.5363 1220.15
v -26.5638 -83.578 1219
v -26.2503 -78.5016 1223.6
v -26.6372 -81.3711 1223.79
v -26.6383 -82.9823 1221.83
v -23.6619 -83.0249 1215.77
v -23.3227 -76.9347 1221.04
v -24.9466 -84.1195 1220.49
v -24.2996 -84.1539 1218.87
v -24.5714 -77.4535 1223.2
v -23.7426 -79.278 1225.95
v -25.2522 -80.4124 1225.47
v -23.2468 -82.4827 1227.14
v -22.864 -80.8382 1227.36
v -23.6964 -84.3219 1224.83
v -21.7029 -81.0403 1214.36
v -21.9191 -77.9859 1216.34
v -22.1182 -85.6787 1222.82
v -20.4408 -79.4683 1226.56
v -21.989 -84.5516 1226.76
v -20.9251 -85.8759 1225.56
v -19.8205 -84.4337 1227.84
v -19.313 -86.0648 1226.48
v -20.505 -82.1063 1228.25
v -17.5927 -79.6697 1217.37
v -16.9818 -81.4475 1215.52
v -16.6672 -78.9474 1221.79
v -16.3614 -87.591 1222.01
v -17.4013 -87.2212 1225.11
v -14.162 -84.8938 1216.47
v -13.2517 -82.3863 1228.74
v -13.3491 -86.36 1227.94
v -10.1887 -82.1019 1217.34
v -12.0995 -84.3028 1216.43
v -10.5333 -86.4565 1217.96
v -11.8128 -87.9915 1219.86
v -11.5022 -88.9373 1223.11
v -10.2913 -81.0513 1227.42
v -10.3373 -79.8157 1224.64
v -11.8164 -87.8229 1226.73
v -10.3396 -88.764 1225.19
v -10.1255 -87.2252 1227.5
v -12.8869 -84.3836 1228.89
v -10.9304 -85.6009 1228.61
v -10.2056 -83.6613 1228.8
v -8.33748 -84.1539 1218.03
v -9.68247 -80.345 1220.13
v -8.06894 -82.4677 1218.56
v -6.77273 -83.7846 1220.13
v -9.38706 -88.6316 1220.83
v -7.49625 -87.0652 1220.32
v -7.08504 -81.4256 1222.64
v -6.28302 -83.7196 1223.92
v -8.96938 -89.0205 1223.53
v -7.77905 -88.2912 1221.69
v -7.72464 -88.3396 1224
v -6.44242 -86.4396 1222.71
v -8.57878 -80.358 1224.97
v -7.47495 -82.0991 1226.17
v -8.14986 -83.7459 1227.66
v -6.81259 -83.7139 1225.92
v -8.5989 -88.4952 1225.2
v -7.96699 -87.1351 1226.37
v -6.93395 -86.29 1225.47
v -9.31977 -85.2896 1228.34
v -33.6686 -78.5475 1213.75
v -32.9851 -77.3861 1213.36
v -30.5774 -77.4683 1211.78
v -31.3919 -76.4755 1212.91
v -31.3919 -76.4755 1212.91
v -28.8305 -76.4618 1213.63
v -28.2113 -78.5462 1211.72
v -28.2113 -78.5462 1211.72
v -26.602 -78.9383 1213.04
v -26.8615 -81.6056 1213.62
v -21.7029 -81.0403 1214.36
v -16.9818 -81.4475 1215.52
v -10.1887 -82.1019 1217.34
f 19 1 23
f 18 2 1
f 2 21 11
f 21 2 18
f 104 6 28
f 7 3 4
f 101 3 13
f 3 12 13
f 6 101 13
f 4 102 5
f 5 7 4
f 23 1 102
f 2 5 1
f 102 1 5
f 7 8 3
f 8 14 3
f 8 15 14
f 5 9 7
f 10 8 7
f 5 2 9
f 9 10 7
f 10 15 8
f 9 2 11
f 11 10 9
f 10 25 15
f 11 26 10
f 10 26 25
f 25 31 15
f 6 13 28
f 3 16 12
f 14 16 3
f 15 17 14
f 17 16 14
f 19 18 1
f 19 32 20
f 19 20 18
f 103 105 24
f 103 24 107
f 20 108 22
f 22 11 21
f 26 11 22
f 21 18 20
f 21 20 22
f 28 24 105
f 26 27 25
f 27 31 25
f 26 22 34
f 34 27 26
f 31 27 44
f 41 27 34
f 28 13 29
f 30 24 28
f 30 28 29
f 29 13 35
f 17 15 31
f 44 37 31
f 47 12 16
f 12 35 13
f 35 12 38
f 16 17 39
f 16 39 47
f 39 17 40
f 40 17 31
f 37 40 31
f 110 22 108
f 33 110 108
f 24 109 107
f 41 44 27
f 24 30 36
f 29 36 30
f 36 29 35
f 37 43 40
f 43 53 40
f 12 47 38
f 45 35 38
f 24 51 109
f 33 111 110
f 51 41 34
f 71 44 41
f 42 24 36
f 52 24 42
f 52 42 62
f 43 37 44
f 35 45 36
f 42 36 45
f 53 50 40
f 43 44 53
f 45 38 46
f 42 45 54
f 45 46 54
f 47 39 48
f 40 50 39
f 48 39 50
f 46 38 47
f 49 47 48
f 46 47 49
f 48 59 49
f 50 55 48
f 55 50 56
f 61 51 24
f 112 106 52
f 60 52 62
f 60 112 52
f 63 44 71
f 53 56 50
f 63 53 44
f 63 64 53
f 64 56 53
f 54 46 49
f 54 49 59
f 58 55 56
f 48 55 57
f 59 48 57
f 55 58 57
f 57 67 78
f 58 56 64
f 59 57 78
f 61 69 51
f 72 64 63
f 62 42 54
f 58 67 57
f 75 58 64
f 68 69 61
f 41 65 71
f 65 51 69
f 41 51 65
f 70 71 65
f 69 70 65
f 82 60 62
f 74 82 62
f 72 63 71
f 74 62 54
f 75 67 58
f 76 64 72
f 75 64 76
f 54 59 66
f 59 78 66
f 67 77 79
f 113 112 60
f 113 60 82
f 68 81 69
f 81 70 69
f 85 71 70
f 85 72 71
f 89 76 72
f 89 72 85
f 73 74 54
f 93 74 73
f 54 66 73
f 66 78 80
f 67 79 78
f 66 80 73
f 79 80 78
f 100 80 79
f 77 67 75
f 100 79 77
f 68 83 81
f 70 86 85
f 82 83 113
f 87 83 82
f 70 81 86
f 83 84 81
f 84 86 81
f 87 84 83
f 90 85 86
f 74 93 82
f 82 93 87
f 84 87 88
f 92 84 88
f 88 96 99
f 85 90 89
f 90 91 89
f 91 97 89
f 92 90 86
f 92 91 90
f 92 86 84
f 73 94 93
f 94 73 95
f 87 93 94
f 87 94 88
f 96 88 94
f 94 95 96
f 97 76 89
f 76 77 75
f 76 97 77
f 77 98 100
f 91 98 97
f 98 77 97
f 95 100 98
f 99 91 92
f 91 99 98
f 95 98 99
f 95 99 96
f 80 100 95
f 80 95 73
f 92 88 99
