o FMA49914_BP8580_FJ3020
v -35.9391 -97.4455 1251.14
v -35.2837 -96.8652 1248.96
v -35.6925 -97.9697 1249.24
v -29.883 -92.498 1242.91
v -32.1201 -95.363 1244
v -30.7778 -92.4236 1246.16
v -33.1328 -94.7183 1246.26
v -31.2873 -93.2476 1249.53
v -34.1912 -95.223 1249.31
v -34.6451 -96.7752 1247.53
v -34.2956 -97.964 1247.11
v -34.9273 -96.9646 1253.68
v -36.3571 -100.709 1251.52
v -34.6873 -101.301 1250.5
v -37.0352 -100.593 1253.29
v -36.1482 -102.669 1253.73
v -35.4778 -99.841 1258.11
v -36.9572 -100.263 1255.68
v -36.8886 -103.488 1256.77
v -36.9067 -101.841 1258.28
v -37.1408 -102.822 1257.54
v -36.804 -103.963 1258.18
v -26.3807 -90.4805 1240.52
v -26.8207 -91.6196 1239.25
v -28.3356 -93.2187 1239.86
v -27.737 -90.9497 1246
v -29.7785 -93.4949 1250.59
v -29.8629 -96.1275 1252.99
v -33.0956 -102.199 1251.42
v -32.9958 -97.2508 1255.12
v -33.0182 -100.422 1259.36
v -35.9556 -104.853 1257.44
v -36.1225 -105.043 1258.95
v -35.2376 -105.884 1259.19
v -35.8297 -102.661 1260.39
v -34.5922 -102.718 1261.19
v -35.1671 -103.967 1261.27
v -36.4584 -103.576 1259.76
v -36.3091 -104.613 1259.62
v -35.8055 -104.752 1260.55
v -35.6766 -105.333 1260.18
v -22.9436 -88.8425 1239.78
v -25.5582 -93.5852 1237.54
v -25.2848 -94.9811 1238.13
v -28.2545 -95.0871 1239.96
v -26.4127 -96.7585 1241.69
v -26.1505 -90.9614 1246.97
v -25.141 -92.0913 1248.2
v -28.1391 -97.1951 1252.11
v -29.2556 -100.266 1251.89
v -30.4487 -98.4671 1255.07
v -29.825 -99.9002 1254.81
v -31.7139 -103.136 1254.23
v -30.6144 -102.604 1255.95
v -31.2203 -100.542 1257.83
v -30.4983 -101.047 1256.81
v -32.1624 -105.144 1257
v -34.4708 -105.593 1257.2
v -33.2799 -106.065 1257.9
v -32.534 -102.524 1261.02
v -34.0816 -103.864 1261.71
v -33.4135 -105.145 1261.77
v -32.2645 -103.966 1261.48
v -32.0386 -104.723 1261.34
v -34.8723 -105.405 1261.2
v -34.3537 -105.083 1261.62
v -34.5474 -106.263 1260.24
v -34.2042 -106.444 1259.55
v -33.9305 -106.483 1260.32
v -33.8992 -106.126 1261.07
v -33.476 -105.999 1261.28
v -33.2999 -106.536 1260.03
v -33.2382 -106.349 1260.77
v -32.7314 -105.701 1261.34
v -32.7343 -106.384 1260.26
v -32.374 -105.735 1261.05
v -32.8436 -106.177 1260.89
v -20.7694 -91.0392 1235.3
v -19.9957 -88.9506 1237.29
v -22.9362 -90.2407 1236.79
v -20.9019 -89.8163 1236.16
v -22.6342 -91.7999 1235.85
v -22.14 -93.3695 1235.8
v -22.3778 -88.9692 1238.31
v -20.8937 -88.4968 1238.87
v -21.6122 -88.488 1241.87
v -23.0745 -89.2887 1243.75
v -22.1823 -90.4672 1245.84
v -22.1836 -92.1396 1247.14
v -23.9301 -94.0791 1248.49
v -25.3301 -96.6724 1248.92
v -25.9314 -97.5998 1248.52
v -30.9338 -103.573 1259.46
v -31.2309 -103.324 1260.27
v -31.2903 -105.016 1259.19
v -32.3942 -106.226 1259.37
v -31.4876 -104.956 1260.47
v -32.1696 -105.984 1260.4
v -19.648 -92.1049 1234.93
v -18.7213 -90.6297 1235.44
v -18.9972 -91.4082 1235.03
v -18.6671 -92.2231 1234.98
v -19.6576 -93.4942 1235.24
v -18.906 -88.531 1238.81
v -18.8722 -89.5483 1236.42
v -18.1045 -89.2136 1237.26
v -21.0372 -92.8578 1235.24
v -20.8972 -94.2596 1235.93
v -17.4635 -88.6571 1240.07
v -19.4228 -88.3313 1241.72
v -17.7991 -88.8476 1242.92
v -20.0107 -88.9968 1243.99
v -20.8493 -93.827 1246.85
v -20.5306 -94.8949 1246.34
v -22.6349 -96.2407 1246.02
v -23.2823 -95.4483 1247.64
v -17.0506 -90.5659 1236.15
v -18.0207 -91.5134 1235.19
v -17.5291 -92.4911 1235.28
v -16.9986 -92.0164 1235.52
v -16.6447 -92.6879 1235.76
v -15.9565 -91.7658 1236.29
v -18.3586 -93.4692 1235.34
v -17.1909 -89.0353 1238.42
v -16.3996 -89.7049 1237.78
v -19.7111 -95.1002 1236.67
v -17.5882 -93.9385 1235.85
v -16.3957 -89.1024 1241.34
v -16.0784 -89.3353 1239.46
v -18.5364 -96.313 1238.8
v -16.3725 -89.8907 1243.56
v -18.0245 -89.9077 1244.68
v -17.19 -91.2694 1245.11
v -15.317 -90.807 1237.58
v -14.9655 -90.5229 1238.67
v -15.049 -91.8203 1237.28
v -14.5704 -91.3621 1238.41
v -15.7632 -92.9107 1236.54
v -14.4154 -93.1581 1238.58
v -16.6768 -94.127 1236.45
v -17.1555 -95.4284 1237.58
v -15.1152 -89.9777 1240.42
v -15.245 -90.0131 1241.7
v -14.3575 -90.9844 1240.75
v -14.3007 -91.1456 1239.73
v -14.0182 -91.9959 1240.9
v -14.0164 -92.663 1239.76
v -15.1091 -94.6529 1238.73
v -16.2235 -96.1253 1239.78
v -14.799 -91.4273 1242.95
v -14.422 -92.519 1242.79
v -15.308 -95.7213 1240.63
v -18.5878 -96.8197 1240.93
v -15.9377 -96.2137 1241.82
v -15.4209 -93.1506 1244.3
v -17.2412 -94.0118 1245.3
v -16.9768 -95.4813 1244.29
v -15.9259 -94.8525 1244.17
v -15.8838 -95.6582 1243.33
v -15.0968 -94.5955 1243.36
v -16.7225 -96.255 1242.91
v -14.0741 -93.2236 1241.25
v -14.5319 -94.5293 1240.14
v -15.1248 -95.4853 1241.95
v -28.1391 -97.1951 1252.11
v -29.2556 -100.266 1251.89
v -29.825 -99.9002 1254.81
v -32.534 -102.524 1261.02
v -32.2645 -103.966 1261.48
v -25.9314 -97.5998 1248.52
v -23.2823 -95.4483 1247.64
f 7 10 2
f 7 2 9
f 10 3 2
f 9 2 1
f 2 3 1
f 1 3 15
f 9 1 12
f 1 15 18
f 1 18 12
f 8 26 6
f 4 7 6
f 5 7 4
f 9 6 7
f 5 10 7
f 6 9 8
f 10 11 3
f 5 11 10
f 14 11 45
f 9 12 8
f 27 8 30
f 3 11 13
f 11 14 13
f 8 12 30
f 3 13 15
f 15 13 16
f 16 13 14
f 12 17 30
f 15 21 18
f 16 19 15
f 16 14 58
f 15 19 21
f 12 18 17
f 20 18 21
f 20 17 18
f 31 30 17
f 20 21 38
f 21 22 38
f 17 20 35
f 20 38 35
f 21 19 22
f 32 19 16
f 32 22 19
f 24 23 80
f 4 24 25
f 23 24 4
f 4 25 5
f 45 5 25
f 23 4 6
f 23 6 26
f 5 45 11
f 47 87 26
f 46 14 45
f 47 8 27
f 26 8 47
f 29 14 46
f 58 14 29
f 30 28 27
f 30 51 28
f 16 58 32
f 31 51 30
f 22 32 33
f 22 33 39
f 41 39 33
f 34 41 33
f 32 34 33
f 31 17 36
f 60 31 36
f 36 17 35
f 35 38 37
f 35 37 36
f 61 36 37
f 60 36 61
f 61 37 66
f 22 39 38
f 37 38 40
f 40 38 39
f 40 39 41
f 41 65 40
f 40 65 37
f 67 41 34
f 67 65 41
f 66 37 65
f 80 23 84
f 80 82 24
f 23 26 42
f 84 23 42
f 43 25 24
f 44 45 43
f 44 43 83
f 87 86 26
f 43 45 25
f 87 47 88
f 88 47 48
f 47 27 48
f 28 48 27
f 90 28 49
f 29 46 50
f 28 51 49
f 51 52 49
f 165 167 166
f 166 167 54
f 29 50 53
f 51 55 52
f 50 54 53
f 56 54 167
f 53 54 57
f 55 56 52
f 93 54 56
f 54 93 95
f 29 53 57
f 31 55 51
f 31 168 55
f 168 94 55
f 94 93 56
f 55 94 56
f 34 32 58
f 68 67 34
f 68 34 58
f 29 59 58
f 58 59 68
f 59 29 57
f 57 96 59
f 59 72 68
f 96 75 72
f 59 96 72
f 60 61 63
f 61 66 62
f 63 61 62
f 63 62 64
f 62 74 64
f 168 169 94
f 169 64 94
f 64 74 76
f 67 70 65
f 70 66 65
f 69 67 68
f 67 69 70
f 70 71 66
f 73 71 70
f 73 70 69
f 71 62 66
f 72 69 68
f 72 73 69
f 73 77 71
f 71 74 62
f 75 77 73
f 72 75 73
f 77 76 74
f 71 77 74
f 80 78 82
f 81 100 78
f 81 105 100
f 78 107 82
f 84 81 80
f 84 42 85
f 79 81 84
f 105 81 79
f 79 84 85
f 81 78 80
f 43 24 82
f 82 83 43
f 86 110 85
f 104 85 110
f 85 42 86
f 83 108 44
f 46 45 44
f 110 86 112
f 87 112 86
f 42 26 86
f 87 88 112
f 89 88 48
f 132 88 89
f 90 48 28
f 89 48 90
f 89 90 113
f 113 90 116
f 91 116 90
f 115 171 92
f 91 92 171
f 165 166 90
f 90 166 91
f 115 170 46
f 170 50 46
f 92 91 166
f 93 94 97
f 57 54 95
f 95 93 97
f 95 96 57
f 75 96 98
f 95 98 96
f 94 64 97
f 76 97 64
f 95 97 98
f 76 98 97
f 76 77 98
f 77 75 98
f 100 105 117
f 107 78 99
f 99 103 107
f 101 99 78
f 100 101 78
f 101 102 99
f 102 103 99
f 101 118 102
f 100 118 101
f 103 123 126
f 124 104 109
f 79 85 104
f 106 105 79
f 79 104 106
f 117 105 106
f 117 106 125
f 106 104 124
f 106 124 125
f 107 83 82
f 108 83 107
f 107 103 108
f 103 126 108
f 44 108 126
f 126 46 44
f 104 110 109
f 111 110 112
f 111 112 132
f 109 110 111
f 132 112 88
f 113 133 89
f 115 114 171
f 117 118 100
f 103 102 123
f 120 119 118
f 118 119 102
f 119 123 102
f 120 121 119
f 119 127 123
f 117 120 118
f 121 127 119
f 121 140 127
f 117 122 120
f 122 121 120
f 138 121 122
f 138 140 121
f 129 125 124
f 129 124 109
f 125 134 117
f 117 134 122
f 127 126 123
f 141 126 127
f 127 140 141
f 129 109 128
f 142 129 128
f 142 128 143
f 143 128 131
f 130 46 126
f 128 109 111
f 132 131 111
f 131 128 111
f 143 131 150
f 130 149 153
f 115 46 153
f 46 130 153
f 133 132 89
f 133 131 132
f 157 114 115
f 156 133 113
f 113 116 114
f 114 156 113
f 129 142 135
f 122 134 136
f 125 135 134
f 135 125 129
f 137 136 134
f 134 135 137
f 135 142 145
f 145 137 135
f 145 147 137
f 136 137 139
f 147 139 137
f 138 122 136
f 148 140 138
f 138 136 139
f 148 138 139
f 126 141 130
f 141 140 148
f 143 144 142
f 150 144 143
f 142 144 145
f 146 145 144
f 144 150 146
f 162 147 146
f 147 145 146
f 146 150 151
f 147 162 163
f 147 163 139
f 163 148 139
f 148 163 152
f 130 141 149
f 141 148 149
f 149 148 152
f 152 154 149
f 146 151 162
f 162 151 160
f 155 160 151
f 159 161 154
f 154 152 164
f 160 159 164
f 159 154 164
f 153 161 115
f 153 149 154
f 161 153 154
f 150 131 133
f 155 150 133
f 155 133 156
f 151 150 155
f 156 114 157
f 161 157 115
f 159 157 161
f 156 158 155
f 157 158 156
f 158 160 155
f 159 160 158
f 157 159 158
f 163 162 164
f 152 163 164
f 162 160 164
