o FMA49916_BP8556_FJ2925
v 35.2242 -83.597 1254.16
v 35.6192 -82.9887 1254.13
v 35.9992 -83.7483 1253.38
v 36.5651 -83.3449 1253.24
v 36.0225 -82.4505 1254.89
v 35.7766 -84.8374 1253.47
v 37.1762 -86.6291 1252.76
v 35.0352 -83.3039 1254.96
v 34.9497 -83.6908 1255.66
v 35.1098 -84.3338 1256.23
v 35.295 -83.7544 1256.23
v 35.6147 -82.9255 1255.72
v 34.8546 -84.7805 1254.73
v 34.7494 -84.6348 1255.33
v 35.1362 -86.3399 1255.43
v 35.8992 -87.2478 1254.28
v 35.5236 -84.3252 1256.64
v 35.2685 -85.7806 1256.35
v 35.7816 -85.3413 1256.95
v 36.1198 -86.5536 1257.09
v 36.064 -88.2403 1255.61
v 36.1655 -87.551 1256.72
v 37.4893 -85.0421 1252.47
v 37.2606 -82.3745 1253.9
v 37.7052 -82.1238 1254.84
v 38.3262 -88.3933 1252.59
v 38.6872 -90.3481 1253.39
v 35.953 -83.7689 1256.67
v 37.005 -82.4938 1255.84
v 37.0884 -83.2375 1256.68
v 37.0906 -89.7342 1255.13
v 38.9528 -91.5339 1254.57
v 37.0815 -84.232 1257.27
v 36.4147 -85.0512 1257.28
v 36.8501 -86.3423 1257.57
v 37.4932 -87.8445 1257.73
v 38.1364 -90.7469 1256.42
v 38.9151 -91.7029 1255.38
v 39.761 -82.9429 1252.85
v 38.8486 -83.364 1252.6
v 39.9894 -86.3822 1251.6
v 40.795 -85.2071 1251.66
v 40.0445 -88.0267 1251.74
v 39.1287 -82.2176 1254.1
v 39.423 -82.2053 1254.75
v 40.4597 -90.3611 1252.37
v 40.2214 -91.5631 1253.38
v 38.5191 -82.3759 1255.7
v 38.3833 -82.9727 1256.54
v 39.492 -82.8527 1256.29
v 41.3383 -92.9742 1254.47
v 37.9803 -85.7507 1257.93
v 38.7751 -84.4879 1257.61
v 38.4295 -89.844 1257.65
v 42.6472 -85.8613 1251.54
v 40.5942 -82.5804 1253.57
v 40.923 -83.6461 1252.31
v 41.6326 -83.3635 1252.68
v 42.6974 -84.3225 1252.18
v 42.2864 -87.7394 1251.45
v 42.0181 -89.5816 1251.77
v 40.3637 -82.5861 1255.53
v 40.8169 -82.46 1254.42
v 42.9618 -92.0675 1252.98
v 40.787 -83.9217 1257.12
v 41.7076 -83.6053 1256.58
v 42.2466 -92.9794 1253.94
v 42.5513 -93.822 1255.04
v 41.6847 -93.5394 1257.22
v 41.9423 -93.7104 1255.62
v 40.9084 -88.6885 1259.01
v 40.8005 -91.0976 1258.68
v 41.7501 -92.9061 1258.37
v 43.5795 -86.5856 1251.67
v 43.626 -84.2283 1252.67
v 43.3171 -83.4528 1253.75
v 43.777 -85.1731 1252.13
v 44.1676 -90.7544 1252.34
v 42.6774 -83.1128 1254.93
v 42.6278 -83.4261 1255.84
v 45.424 -92.6559 1253.4
v 45.078 -93.6422 1254.12
v 45.0599 -94.6089 1255.29
v 42.4511 -86.966 1258.89
v 45.0323 -95.4125 1256.92
v 43.018 -91.9583 1259.92
v 45.4576 -85.0974 1253.47
v 45.9433 -86.0043 1253.16
v 45.6622 -86.8635 1252.58
v 47.116 -87.7785 1253.39
v 46.3901 -88.9891 1252.76
v 46.2338 -90.8211 1252.9
v 44.9937 -84.4505 1255.59
v 46.4054 -93.592 1254.22
v 47.139 -92.9214 1254.01
v 43.8461 -85.3752 1257.76
v 45.2891 -85.3303 1257.15
v 47.16 -94.9881 1255.77
v 44.0096 -90.3776 1260.5
v 44.6672 -95.4378 1258.86
v 45.4523 -93.3688 1261.84
v 44.3728 -94.6438 1259.95
v 46.848 -86.2879 1253.96
v 46.505 -85.4912 1254.82
v 48.1057 -87.7331 1254.5
v 48.0788 -87.1531 1255.13
v 47.9592 -86.7673 1256.47
v 48.7288 -91.938 1254.46
v 47.5926 -86.6588 1257.3
v 49.2057 -93.4619 1255.32
v 48.5757 -94.5353 1255.7
v 46.3735 -89.3804 1260.98
v 47.548 -96.7562 1258.89
v 48.4958 -96.6726 1258.46
v 46.3441 -91.2747 1262.14
v 47.0327 -96.8602 1260.09
v 49.4925 -89.0672 1255.74
v 49.4146 -90.4377 1255.01
v 47.4925 -87.8534 1259.46
v 48.8066 -89.7546 1261.74
v 50.4541 -96.6373 1258.82
v 47.5108 -90.7675 1262.59
v 50.0754 -97.7151 1260.94
v 47.2229 -94.3682 1264.17
v 48.219 -92.5478 1264.86
v 47.7465 -96.555 1263.89
v 48.2765 -97.3459 1263.3
v 48.5375 -96.539 1266.33
v 48.4371 -95.3974 1266.85
v 51.4151 -91.9954 1257.34
v 51.189 -92.9278 1256.88
v 50.8671 -90.0015 1260.27
v 51.6373 -90.9578 1259
v 51.1514 -95.6572 1258.07
v 51.926 -95.1143 1258.38
v 49.5808 -89.4549 1260.93
v 52.0153 -96.5371 1259.69
v 51.4304 -97.9326 1261.77
v 49.3007 -91.6666 1264.98
v 50.3782 -91.2089 1264.51
v 49.8573 -98.0872 1262.55
v 49.9919 -92.3376 1266.88
v 50.7085 -98.7843 1265.9
v 48.8981 -93.803 1267.29
v 49.7806 -98.2093 1267.06
v 49.1877 -96.0076 1270.77
v 49.6195 -97.333 1271.42
v 49.9918 -98.4147 1270.17
v 53.1802 -94.966 1260.02
v 51.3112 -91.1969 1263.92
v 52.3868 -91.6487 1262.85
v 52.1989 -97.6775 1261.69
v 52.6092 -98.4642 1264.05
v 51.6202 -98.8633 1265.12
v 52.155 -99.608 1269.23
v 49.8124 -94.9209 1271.67
v 50.2925 -94.2798 1271.56
v 50.6653 -95.0318 1272.69
v 49.8668 -96.2539 1272.32
v 50.2118 -97.2239 1272.42
v 50.5607 -98.4329 1271.64
v 51.4743 -99.1868 1271.24
v 50.996 -99.2644 1269.98
v 50.5567 -96.6954 1272.85
v 54.0497 -94.483 1262.03
v 54.0856 -93.4244 1263.86
v 53.7267 -96.8711 1262.36
v 54.3396 -95.9615 1262.75
v 53.0286 -92.3176 1265.77
v 54.9654 -96.4153 1265.27
v 53.6296 -98.1147 1264.53
v 54.4359 -97.5435 1265.35
v 54.0507 -93.2057 1266.55
v 53.2783 -98.8182 1266.42
v 52.7364 -93.0474 1269.63
v 53.2761 -99.3188 1269.82
v 51.6093 -93.6933 1271.62
v 51.5259 -94.2822 1272.57
v 51.5397 -94.92 1273.01
v 52.047 -94.574 1272.87
v 52.6583 -93.8349 1271.88
v 52.5342 -94.1115 1272.37
v 52.5176 -95.4722 1273.15
v 52.9997 -94.8077 1272.74
v 52.9024 -96.3955 1273.04
v 51.8823 -98.5338 1272.19
v 52.3754 -99.0721 1271.52
v 53.4525 -98.9095 1270.98
v 53.1838 -97.7072 1272.41
v 52.1856 -99.5397 1270.53
v 51.2867 -97.3903 1272.89
v 51.6074 -96.1673 1273.22
v 52.2174 -97.0694 1273.07
v 55.0135 -95.2263 1265.36
v 54.7901 -94.208 1266.92
v 53.8768 -93.6599 1269.6
v 54.6461 -94.3832 1268.96
v 55.1678 -95.7746 1267.94
v 55.0878 -96.7917 1267.66
v 53.2245 -93.9636 1271.64
v 53.8573 -94.3958 1271.46
v 54.4596 -95.5708 1271.49
v 54.5235 -98.0797 1269.81
v 54.5163 -97.3848 1271.17
v 54.8811 -96.9322 1270.41
v 53.1401 -94.2283 1272.18
v 53.7416 -94.8153 1272.18
v 53.5226 -95.4784 1272.68
v 54.1338 -96.2672 1272.16
f 1 13 8
f 5 24 2
f 8 5 2
f 2 1 8
f 1 2 3
f 5 8 12
f 2 4 3
f 12 29 5
f 2 24 4
f 40 4 24
f 1 3 6
f 1 6 13
f 16 13 6
f 6 3 23
f 7 6 23
f 7 16 6
f 8 14 9
f 10 9 14
f 8 9 12
f 11 10 17
f 11 9 10
f 12 9 11
f 5 29 25
f 28 11 17
f 8 13 14
f 13 15 14
f 13 16 15
f 14 15 18
f 18 10 14
f 10 18 19
f 22 18 15
f 16 21 15
f 16 31 21
f 28 17 34
f 17 10 19
f 18 22 20
f 19 18 20
f 17 19 34
f 21 22 15
f 31 37 21
f 4 23 3
f 4 40 23
f 43 7 23
f 26 7 43
f 41 43 23
f 24 5 25
f 39 40 24
f 25 44 24
f 44 25 45
f 7 26 16
f 26 27 16
f 31 16 27
f 47 32 27
f 26 46 27
f 11 28 12
f 28 30 12
f 29 12 30
f 49 29 30
f 53 49 30
f 27 32 31
f 32 38 31
f 33 30 28
f 28 34 33
f 33 53 30
f 52 53 33
f 34 52 33
f 34 19 35
f 35 19 20
f 52 34 35
f 20 22 36
f 20 36 35
f 72 36 54
f 71 35 36
f 21 37 22
f 22 37 54
f 36 22 54
f 31 38 37
f 54 37 73
f 44 56 39
f 56 58 39
f 23 40 42
f 39 57 40
f 23 42 41
f 60 41 42
f 41 60 43
f 26 43 46
f 43 61 46
f 60 61 43
f 44 39 24
f 45 25 48
f 48 62 45
f 27 46 47
f 64 46 61
f 64 47 46
f 25 29 48
f 49 48 29
f 49 50 48
f 53 65 49
f 62 48 50
f 65 50 49
f 47 51 32
f 52 35 71
f 84 53 52
f 65 53 84
f 36 72 71
f 38 69 37
f 72 54 73
f 42 59 55
f 55 74 60
f 44 45 63
f 44 63 56
f 76 58 56
f 63 76 56
f 79 76 63
f 58 57 39
f 40 57 42
f 57 59 42
f 59 57 58
f 58 75 59
f 58 76 75
f 60 42 55
f 60 74 91
f 63 45 62
f 62 79 63
f 64 61 78
f 64 82 67
f 82 64 81
f 64 78 81
f 66 62 50
f 50 65 66
f 64 67 47
f 47 67 51
f 51 67 68
f 70 32 51
f 51 68 70
f 67 83 68
f 67 82 83
f 70 68 85
f 68 83 85
f 96 65 84
f 69 73 37
f 70 38 32
f 69 38 70
f 69 70 100
f 86 71 72
f 72 73 102
f 69 102 73
f 55 77 74
f 75 76 87
f 59 77 55
f 59 75 77
f 77 89 74
f 74 89 91
f 60 78 61
f 60 92 78
f 80 79 62
f 79 93 76
f 78 92 81
f 66 80 62
f 66 65 96
f 80 66 97
f 52 71 84
f 99 71 86
f 72 102 86
f 86 102 101
f 100 102 69
f 77 88 89
f 75 87 77
f 76 104 87
f 88 77 87
f 88 90 89
f 87 103 88
f 88 103 90
f 87 104 103
f 91 89 90
f 91 90 118
f 60 91 92
f 80 93 79
f 93 80 97
f 76 93 104
f 93 107 104
f 94 82 81
f 92 95 81
f 94 81 95
f 66 96 97
f 96 119 97
f 94 98 82
f 83 82 98
f 84 112 96
f 70 85 116
f 85 83 113
f 113 116 85
f 71 99 112
f 84 71 112
f 115 99 101
f 86 101 99
f 100 127 102
f 127 126 102
f 100 70 116
f 100 116 127
f 90 103 105
f 90 105 118
f 109 93 97
f 93 109 107
f 103 104 106
f 107 106 104
f 103 106 105
f 117 105 106
f 91 108 92
f 108 95 92
f 91 118 108
f 108 110 95
f 107 109 132
f 111 94 95
f 111 98 94
f 95 110 111
f 119 109 97
f 96 112 119
f 98 114 83
f 83 114 113
f 112 99 115
f 122 115 125
f 122 112 115
f 115 101 125
f 113 141 116
f 141 127 116
f 101 102 124
f 126 124 102
f 107 133 106
f 105 117 118
f 117 106 133
f 117 130 118
f 108 118 131
f 108 131 110
f 118 130 131
f 132 133 107
f 133 132 166
f 110 135 134
f 136 109 119
f 111 121 98
f 134 111 110
f 112 120 119
f 114 98 121
f 113 114 123
f 121 123 114
f 138 123 121
f 120 112 122
f 113 123 141
f 123 154 141
f 125 139 122
f 101 124 125
f 124 144 125
f 129 144 124
f 128 124 126
f 129 124 128
f 127 145 126
f 131 135 110
f 109 136 132
f 117 133 130
f 121 111 134
f 135 131 149
f 119 120 136
f 136 120 150
f 132 136 150
f 121 134 137
f 135 137 134
f 121 137 152
f 140 150 120
f 138 154 123
f 138 121 152
f 138 153 154
f 152 153 138
f 120 122 139
f 140 120 139
f 139 125 142
f 127 143 145
f 143 127 141
f 154 143 141
f 146 144 129
f 125 144 142
f 142 144 157
f 129 128 146
f 126 145 128
f 128 147 146
f 148 147 128
f 146 147 159
f 145 148 128
f 132 151 166
f 165 133 166
f 130 133 165
f 167 135 149
f 137 135 167
f 130 149 131
f 137 167 152
f 165 149 130
f 149 168 167
f 165 168 149
f 150 151 132
f 150 169 151
f 152 171 153
f 152 167 171
f 140 139 142
f 150 140 175
f 140 142 177
f 175 140 177
f 143 154 155
f 174 155 154
f 177 142 157
f 161 148 163
f 148 145 163
f 145 143 163
f 155 163 143
f 156 144 146
f 144 156 157
f 156 159 158
f 156 146 159
f 158 157 156
f 157 178 177
f 178 157 158
f 159 147 160
f 164 158 159
f 148 161 147
f 147 161 160
f 191 161 186
f 162 186 161
f 160 161 191
f 190 187 162
f 187 186 162
f 161 163 162
f 155 190 163
f 162 163 190
f 192 158 164
f 159 160 164
f 164 160 191
f 151 173 166
f 151 169 173
f 194 165 166
f 168 165 194
f 166 173 195
f 194 166 195
f 170 168 194
f 168 172 167
f 171 167 172
f 170 172 168
f 171 172 174
f 174 153 171
f 153 174 154
f 175 169 150
f 196 169 175
f 200 196 175
f 196 173 169
f 174 176 155
f 175 177 181
f 200 175 181
f 174 172 176
f 179 178 158
f 158 192 179
f 180 178 179
f 183 180 179
f 183 179 192
f 182 178 180
f 184 182 180
f 184 180 183
f 177 182 181
f 177 178 182
f 181 206 200
f 181 182 206
f 193 185 192
f 185 193 189
f 192 185 183
f 183 185 208
f 187 189 186
f 186 189 193
f 188 189 187
f 155 176 190
f 176 188 190
f 188 187 190
f 192 164 191
f 192 191 193
f 193 191 186
f 198 194 195
f 195 173 197
f 198 195 197
f 172 170 199
f 170 194 198
f 198 199 170
f 197 173 196
f 200 201 196
f 196 201 197
f 197 201 202
f 199 198 205
f 198 202 205
f 198 197 202
f 199 203 172
f 199 205 203
f 172 203 176
f 176 203 188
f 203 204 188
f 204 203 205
f 202 204 205
f 182 184 206
f 200 206 201
f 208 184 183
f 206 207 201
f 207 206 184
f 184 208 207
f 207 202 201
f 202 207 208
f 202 208 209
f 208 185 209
f 189 209 185
f 188 204 189
f 189 204 209
f 209 204 202
o FMA49916_BP8556_FJ2933
v 35.0278 -84.3161 1250.33
v 35.2998 -84.9557 1249.94
v 35.3665 -86.4993 1250.4
v 35.2862 -82.2874 1253.01
v 33.8444 -84.6122 1252.7
v 34.4244 -83.4551 1252.11
v 34.472 -84.6475 1250.99
v 34.8333 -83.4891 1251.18
v 33.9228 -85.8453 1252.43
v 34.5802 -85.8387 1250.91
v 34.5535 -87.0019 1252.11
v 34.7519 -82.8117 1254.16
v 35.0385 -82.7337 1254.84
v 33.9026 -84.1019 1253.65
v 33.9407 -84.9332 1255.07
v 34.2104 -83.4478 1253.32
v 34.3278 -83.4806 1254.51
v 33.6998 -85.2358 1253.61
v 33.8915 -86.3828 1254.21
v 34.1988 -87.0165 1253.34
v 34.3824 -87.3069 1254.79
v 34.7613 -87.7526 1253.83
v 35.0712 -88.0205 1254.85
v 34.4446 -84.9644 1256.29
v 34.7858 -83.7845 1255.98
v 35.0378 -84.6808 1256.91
v 35.6314 -82.8682 1255.98
v 34.2527 -86.1587 1255.95
v 34.7704 -87.3346 1256
v 34.7618 -86.6381 1256.62
v 34.8057 -85.8271 1256.89
v 35.3367 -86.4423 1257.28
v 36.477 -82.8597 1250.62
v 35.6381 -84.3381 1249.85
v 35.6572 -83.4651 1250.35
v 35.9591 -84.9415 1249.55
v 37.0593 -84.9823 1249.3
v 36.79 -83.8251 1249.76
v 35.6438 -85.8238 1249.82
v 36.7668 -86.5229 1249.71
v 36.6454 -87.4312 1250.6
v 36.9844 -85.6382 1249.32
v 35.6396 -82.5074 1251.56
v 36.2093 -81.7681 1253.02
v 37.4972 -81.8597 1252.08
v 35.7807 -87.8076 1251.86
v 35.6035 -82.0712 1253.94
v 35.644 -82.3512 1255.08
v 36.2315 -81.8013 1254.25
v 36.8835 -81.5478 1253.65
v 37.1136 -81.7561 1255.07
v 37.7251 -81.593 1254.77
v 35.9893 -88.4331 1253.85
v 36.2931 -88.5372 1255.34
v 36.2583 -82.2866 1255.65
v 36.5491 -82.6065 1256.33
v 37.4042 -82.0024 1255.73
v 37.6912 -82.5504 1256.56
v 35.9326 -84.0349 1257.23
v 37.1515 -83.2137 1257.13
v 35.6096 -87.3141 1257.05
v 35.644 -85.5379 1257.55
v 36.2731 -86.7235 1257.71
v 37.1789 -85.2207 1258.02
v 37.8114 -86.7134 1258.06
v 37.8224 -87.3912 1257.81
v 36.076 -88.1639 1256.3
v 36.3393 -87.6437 1257.21
v 38.0238 -81.817 1255.39
v 38.4171 -81.559 1253.87
v 38.3815 -81.6575 1254.81
v 39.3126 -82.1004 1255.36
v 39.9263 -81.9876 1254.43
v 38.3679 -82.2062 1256.01
v 38.088 -83.7935 1257.56
v 38.3851 -82.9021 1256.84
v 39.2013 -84.6801 1257.84
v 40.0506 -84.024 1257.31
v 38.7346 -88.4956 1257.17
v 40.2571 -88.5501 1257.29
v 39.5316 -86.0944 1258.09
v 41.9834 -89.9265 1251.72
v 42.0908 -90.5058 1253.82
v 40.6826 -83.1487 1256.24
v 40.751 -84.977 1257.57
v 41.3566 -84.0994 1256.83
v 40.3477 -87.3218 1257.84
v 42.2173 -86.2481 1257.37
v 40.8709 -89.5955 1256.12
v 42.7037 -88.2736 1257.05
v 42.5802 -84.9042 1248.93
v 42.6461 -83.7127 1249.78
v 44.1426 -83.3574 1250.72
v 42.9221 -88.2917 1249.37
v 43.84 -87.5426 1248.77
v 42.7881 -82.6446 1252.5
v 44.8782 -83.3727 1252.4
v 42.9632 -82.8724 1253.85
v 45.0013 -83.755 1253.61
v 44.7853 -90.263 1255.52
v 43.1324 -83.9679 1255.65
v 43.0408 -85.5647 1256.81
v 45.1474 -86.4213 1248.46
v 47.0634 -87.3859 1248.04
v 46.6452 -88.5613 1248.1
v 45.7479 -84.6602 1249.42
v 46.2854 -90.8947 1249.32
v 46.3131 -84.0908 1251.11
v 46.7423 -84.3643 1252.37
v 46.928 -92.2979 1250.84
v 47.4163 -92.4686 1252.27
v 46.1272 -85.2896 1254.67
v 46.549 -89.988 1255.3
v 46.9024 -87.9648 1255.44
v 47.0166 -91.6628 1253.84
v 47.8738 -86.7916 1248.23
v 50.2081 -87.4634 1247.56
v 49.4135 -88.6299 1246.82
v 49.5074 -91.4103 1246.44
v 48.6683 -86.0312 1249.13
v 50.297 -86.4827 1249.42
v 48.1845 -85.5043 1252.74
v 49.9531 -86.2468 1250.95
v 50.0097 -87.0731 1252.6
v 49.9717 -93.2826 1251.31
v 47.6528 -87.0732 1254.76
v 49.2769 -88.6533 1254.09
v 47.9258 -91.2617 1254.11
v 50.5927 -93.5662 1246.66
v 51.005 -94.3152 1248.57
v 51.6772 -88.8073 1252.08
v 50.1018 -91.5936 1253.06
v 51.4126 -93.1435 1251.29
v 50.241 -90.5874 1253.38
v 53.4241 -88.4714 1249.38
v 54.5074 -89.5448 1249.24
v 53.7954 -93.4283 1250.05
v 53.5918 -91.3933 1250.91
v 53.1062 -92.4533 1251.01
v 56.8855 -96.2731 1240.3
v 55.5312 -96.6165 1243.45
v 57.0298 -97.3082 1243.68
v 58.0472 -95.1345 1238.93
v 58.9988 -93.8625 1238.92
v 58.7345 -92.52 1240.35
v 58.6173 -96.4012 1245.36
v 58.6161 -97.4601 1244.05
v 59.8372 -92.2047 1241.31
v 59.8995 -95.5121 1245.28
v 63.0569 -98.4938 1234.93
v 63.5206 -97.5723 1234.81
v 62.3659 -99.9756 1236.64
v 63.2258 -99.61 1235.06
v 62.3639 -93.4891 1240.58
v 64.8583 -97.4373 1234.25
v 65.9537 -102.419 1235.71
v 64.4444 -96.2351 1241.65
v 65.8811 -96.0099 1239.39
v 66.2525 -100.339 1239.53
v 67.259 -98.9467 1232.14
v 67.0068 -97.8184 1233.3
v 67.6007 -97.3678 1234.09
v 67.6713 -96.9279 1235.52
v 66.8469 -101.745 1237.94
v 68.5318 -100.164 1238.27
v 66.7709 -102.451 1236.72
v 68.9293 -102.3 1229.77
v 69.7777 -104.151 1229.89
v 70.4487 -99.4655 1236.04
v 71.3495 -103.161 1235
v 72.5792 -101.319 1227.97
v 72.8752 -102.643 1226.51
v 73.2624 -106.655 1228.46
v 72.219 -99.796 1232.55
v 72.8257 -105.575 1231.61
v 72.2446 -101.512 1234.79
v 71.7998 -102.086 1235.23
v 74.3255 -105.689 1224.08
v 75.3385 -103.209 1224.94
v 75.1736 -102.367 1226.37
v 74.5732 -107.29 1224.84
v 74.6113 -101.475 1228.47
v 75.3005 -104.146 1231.39
v 75.4929 -103.112 1231.06
v 75.8454 -102.647 1229.91
v 74.0633 -105.639 1231.26
v 75.2258 -105.298 1230.92
v 78.0238 -107.858 1219.64
v 78.4841 -108.93 1219.2
v 78.521 -109.798 1219.66
v 77.2631 -108.576 1220.54
v 77.8732 -109.744 1220.51
v 78.1019 -110.207 1221.41
v 78.5468 -110.431 1220.6
v 76.48 -108.852 1224.4
v 77.5957 -103.597 1225.97
v 77.5743 -109.021 1225.09
v 77.5778 -104.847 1228.44
v 78.836 -108.626 1218.98
v 79.1134 -107.763 1219.02
v 78.8942 -106.69 1219.87
v 79.4484 -108.33 1218.88
v 79.4139 -108.947 1218.96
v 79.7648 -108.647 1218.94
v 79.9922 -107.474 1219.2
v 80.2924 -108.069 1219.13
v 80.6152 -108.622 1219.36
v 78.8423 -109.236 1219.12
v 79.413 -109.563 1219.24
v 80.0305 -109.238 1219.22
v 79.4115 -106.035 1220.68
v 80.0408 -106.015 1221.23
v 80.2881 -106.877 1219.8
v 80.9725 -107.731 1219.72
v 81.0443 -106.813 1221.01
v 79.1496 -110.396 1220.03
v 79.1442 -110.701 1220.63
v 79.0908 -110.77 1221.23
v 79.3888 -110.682 1222.07
v 79.7433 -110.709 1220.61
v 79.7286 -110.848 1221.22
v 80.2939 -110.109 1220.01
v 80.2793 -110.689 1221.85
v 80.9048 -109.263 1219.86
v 80.8623 -110.37 1221.2
v 78.7123 -110.452 1222.23
v 79.6613 -110.208 1223.06
v 80.5524 -109.935 1222.85
v 79.0544 -105.057 1225.48
v 78.4948 -108.947 1225.15
v 81.0364 -106.715 1222.08
v 81.4998 -108.094 1220.36
v 81.5991 -107.476 1221.5
v 81.8161 -108.64 1221.56
v 81.4293 -109.791 1221.84
v 81.5722 -109.491 1221.16
v 81.3448 -107.606 1222.65
v 80.8281 -108.873 1223.45
v 80.8623 -110.37 1221.2
f 216 210 211
f 244 210 217
f 217 210 216
f 219 216 211
f 210 244 243
f 244 217 252
f 243 245 211
f 211 210 243
f 219 211 248
f 248 212 219
f 245 248 211
f 223 214 227
f 225 214 223
f 215 216 214
f 218 214 216
f 213 252 215
f 215 225 213
f 215 214 225
f 213 225 221
f 216 219 218
f 252 217 215
f 215 217 216
f 218 227 214
f 219 220 218
f 220 229 218
f 228 218 229
f 229 220 231
f 219 212 220
f 220 212 255
f 255 231 220
f 255 262 231
f 262 255 291
f 222 256 221
f 257 256 222
f 222 236 257
f 234 236 222
f 223 227 224
f 225 226 221
f 225 223 226
f 224 226 223
f 226 224 234
f 221 226 222
f 226 234 222
f 228 227 218
f 229 230 228
f 230 237 228
f 227 228 224
f 230 229 231
f 230 238 237
f 231 232 230
f 238 230 232
f 262 232 231
f 276 238 232
f 224 237 233
f 234 224 233
f 234 233 235
f 268 234 235
f 271 268 235
f 236 234 268
f 224 228 237
f 238 239 237
f 240 233 237
f 237 239 240
f 235 233 240
f 239 238 270
f 240 271 235
f 240 239 241
f 239 270 241
f 271 240 241
f 276 270 238
f 301 242 254
f 247 245 243
f 247 243 244
f 247 244 242
f 242 244 252
f 246 251 245
f 245 247 246
f 300 246 247
f 312 246 300
f 247 242 301
f 300 247 301
f 248 245 251
f 250 255 212
f 249 212 248
f 249 250 212
f 255 250 291
f 249 248 251
f 303 250 249
f 303 291 250
f 249 304 303
f 304 249 251
f 242 252 254
f 253 252 213
f 254 252 253
f 254 253 259
f 256 213 221
f 257 236 264
f 253 213 256
f 253 256 258
f 256 257 258
f 257 264 258
f 258 264 260
f 258 259 253
f 258 260 259
f 261 259 260
f 261 260 278
f 260 266 278
f 264 266 260
f 279 259 261
f 254 259 279
f 262 263 232
f 263 276 232
f 291 292 262
f 263 262 292
f 236 265 264
f 264 265 266
f 269 267 265
f 278 266 283
f 267 283 266
f 265 267 266
f 267 285 283
f 265 236 268
f 265 268 269
f 268 271 273
f 269 268 273
f 267 269 285
f 269 273 284
f 269 284 285
f 271 241 272
f 241 270 272
f 270 277 272
f 271 272 273
f 273 272 274
f 272 277 275
f 274 272 275
f 270 276 277
f 288 277 276
f 298 276 263
f 298 288 276
f 288 275 277
f 273 274 290
f 274 296 290
f 246 312 251
f 280 279 261
f 280 261 278
f 281 280 278
f 281 278 283
f 305 254 279
f 279 280 282
f 282 280 281
f 305 279 282
f 298 263 292
f 283 285 293
f 281 283 293
f 287 293 285
f 307 281 293
f 284 287 285
f 284 286 287
f 286 284 273
f 287 286 294
f 288 289 275
f 274 275 296
f 275 289 296
f 294 286 290
f 289 288 298
f 286 273 290
f 312 304 251
f 301 254 302
f 305 302 254
f 307 282 281
f 305 282 307
f 292 320 298
f 287 295 293
f 295 310 293
f 295 287 294
f 293 310 307
f 311 295 294
f 311 310 295
f 290 296 297
f 297 294 290
f 299 297 296
f 297 311 294
f 309 289 298
f 289 299 296
f 299 289 309
f 299 323 297
f 300 301 315
f 302 315 301
f 317 315 302
f 315 312 300
f 312 314 304
f 316 291 303
f 305 307 306
f 305 306 302
f 306 317 302
f 292 291 319
f 319 320 292
f 319 291 316
f 307 310 308
f 308 306 307
f 321 310 311
f 335 321 311
f 311 297 323
f 323 299 322
f 322 299 309
f 315 325 312
f 325 313 312
f 313 314 312
f 313 327 314
f 325 327 313
f 316 303 314
f 316 314 328
f 315 317 329
f 314 303 304
f 318 317 306
f 306 308 318
f 321 308 310
f 324 309 298
f 320 324 298
f 337 322 309
f 309 324 337
f 320 334 324
f 334 342 324
f 342 337 324
f 323 335 311
f 325 329 326
f 326 327 325
f 327 328 314
f 330 329 317
f 325 315 329
f 316 338 319
f 338 339 319
f 330 317 332
f 318 332 317
f 331 318 308
f 318 331 332
f 321 333 331
f 333 321 335
f 341 337 342
f 319 339 320
f 335 323 336
f 321 331 308
f 323 343 336
f 322 343 323
f 337 341 322
f 341 343 322
f 328 327 352
f 328 338 316
f 329 330 326
f 332 363 330
f 332 344 363
f 351 320 339
f 356 320 351
f 356 334 320
f 331 333 332
f 332 333 344
f 335 340 333
f 340 335 336
f 333 340 345
f 344 333 345
f 341 348 343
f 342 346 341
f 346 348 341
f 352 349 328
f 349 338 328
f 339 350 351
f 330 357 326
f 363 357 330
f 350 339 338
f 340 366 345
f 358 348 346
f 356 342 334
f 343 348 347
f 343 347 336
f 347 340 336
f 366 340 347
f 352 362 349
f 354 327 326
f 354 326 357
f 371 354 357
f 349 361 338
f 338 361 350
f 355 346 342
f 358 346 355
f 356 355 342
f 347 358 366
f 348 358 347
f 353 360 352
f 327 353 352
f 354 353 327
f 370 353 354
f 370 364 353
f 362 352 359
f 362 361 349
f 361 365 350
f 360 359 352
f 364 360 353
f 370 354 371
f 372 371 357
f 372 357 363
f 350 365 351
f 362 377 361
f 363 344 367
f 363 383 372
f 367 344 345
f 367 345 366
f 359 360 376
f 376 360 369
f 370 369 364
f 359 376 362
f 377 365 361
f 360 364 369
f 373 356 375
f 356 373 355
f 375 351 365
f 383 363 367
f 378 367 366
f 374 366 358
f 375 356 351
f 368 358 355
f 355 373 368
f 362 376 377
f 389 370 371
f 372 389 371
f 365 377 382
f 382 406 365
f 374 378 366
f 358 368 374
f 369 387 376
f 376 387 377
f 387 369 381
f 380 369 370
f 370 389 380
f 375 406 384
f 365 406 375
f 383 367 378
f 374 385 378
f 375 384 373
f 373 379 368
f 395 373 384
f 374 368 379
f 395 379 373
f 386 374 379
f 388 381 380
f 404 377 390
f 380 381 369
f 382 377 404
f 406 382 404
f 391 389 372
f 383 391 372
f 385 393 378
f 386 385 374
f 379 392 386
f 392 385 386
f 400 390 387
f 377 387 390
f 380 389 388
f 405 389 391
f 405 391 383
f 383 378 394
f 378 393 394
f 392 393 385
f 407 393 392
f 447 407 392
f 384 439 395
f 392 379 396
f 379 395 396
f 437 395 439
f 447 392 396
f 437 396 395
f 437 447 396
f 409 408 397
f 408 398 397
f 398 400 397
f 397 410 409
f 417 398 408
f 399 400 398
f 417 399 398
f 399 417 418
f 388 410 381
f 397 400 387
f 397 387 381
f 381 410 397
f 400 401 390
f 400 399 401
f 390 401 402
f 399 403 401
f 401 403 402
f 402 435 404
f 399 425 403
f 389 420 388
f 410 388 420
f 404 390 402
f 435 406 404
f 438 394 407
f 439 384 406
f 394 405 383
f 438 405 394
f 407 394 393
f 410 422 414
f 409 411 408
f 411 412 408
f 408 412 417
f 409 414 411
f 414 409 410
f 411 413 412
f 413 419 412
f 414 415 411
f 413 416 419
f 411 415 413
f 413 415 416
f 416 433 419
f 414 422 423
f 414 423 415
f 423 416 415
f 417 412 418
f 425 399 418
f 412 419 418
f 419 431 418
f 433 431 419
f 422 410 420
f 421 422 420
f 421 420 389
f 421 389 405
f 424 422 421
f 421 405 424
f 440 424 405
f 422 424 423
f 423 424 441
f 426 403 425
f 426 427 403
f 403 427 402
f 427 435 402
f 425 418 431
f 429 426 425
f 426 429 430
f 426 430 427
f 428 435 427
f 431 429 425
f 430 428 427
f 432 428 430
f 431 434 429
f 429 434 430
f 430 434 432
f 431 433 434
f 448 437 432
f 448 444 437
f 444 447 437
f 405 438 440
f 428 406 435
f 436 406 428
f 406 436 439
f 439 436 437
f 428 432 436
f 437 436 432
f 440 442 424
f 416 423 441
f 441 424 442
f 438 446 440
f 440 446 442
f 433 416 441
f 445 433 441
f 441 442 443
f 441 443 445
f 444 445 443
f 445 444 434
f 433 445 434
f 407 446 438
f 446 407 447
f 442 446 443
f 447 444 443
f 447 443 446
