o FMA49913_BP8334_FJ2944
v 44.7098 -77.2504 1227.7
v 45.2612 -77.6645 1226.82
v 44.2954 -76.9557 1226.6
v 45.1217 -77.0916 1225.18
v 45.7639 -77.8232 1227.69
v 46.559 -77.9823 1227.54
v 46.0932 -77.8644 1226.05
v 46.1141 -78.0178 1227.01
v 46.7745 -77.9874 1226.43
v 42.7521 -74.3931 1227.61
v 43.0633 -74.7302 1225.26
v 42.6331 -74.1622 1226.6
v 43.4457 -73.8701 1224.5
v 43.8651 -75.1342 1229.12
v 43.3834 -74.5799 1228.75
v 43.7888 -76.384 1227.71
v 43.6051 -75.902 1228.26
v 44.0231 -75.9641 1228.83
v 42.9291 -75.1893 1227.14
v 43.0596 -74.8704 1228.15
v 43.4356 -75.1427 1228.66
v 43.4821 -76.0348 1226.26
v 44.2051 -76.2231 1224.92
v 44.7847 -74.9662 1223.6
v 44.5061 -75.9391 1229.25
v 45.3563 -76.3669 1229.34
v 44.4709 -75.3563 1229.4
v 45.1124 -75.7281 1229.51
v 45.9909 -76.111 1229.38
v 44.159 -76.5295 1228.35
v 44.9584 -77.1124 1228.47
v 44.6106 -76.4855 1228.93
v 45.633 -76.9777 1228.99
v 45.2709 -76.1592 1224.06
v 46.2106 -77.643 1228.29
v 47.0902 -77.6897 1227.78
v 46.3242 -76.7857 1229.03
v 47.233 -76.6524 1228.41
v 46.6112 -76.0242 1229.07
v 47.161 -77.9012 1227.01
v 47.6755 -77.2194 1225.8
v 47.5813 -77.5102 1227.06
v 47.6892 -77.0208 1227.54
v 46.7594 -77.0531 1224.79
v 42.7862 -73.8636 1227.61
v 42.9989 -74.0789 1228.18
v 43.2068 -73.5941 1228.14
v 42.9583 -73.5799 1225.45
v 43.2338 -72.9462 1226.64
v 43.9461 -74.3828 1229.15
v 44.785 -74.2378 1229.3
v 43.4075 -74.0359 1228.67
v 44.2073 -73.5379 1228.74
v 44.1843 -72.8615 1227.94
v 45.2492 -73.6104 1228.86
v 45.2492 -72.7159 1222.82
v 45.7659 -75.4478 1229.48
v 45.2951 -74.8011 1229.47
v 46.4591 -75.3603 1229.12
v 46.0177 -74.627 1229.17
v 45.6023 -74.2257 1229.17
v 48.9567 -75.3395 1225.42
v 44.8948 -71.4922 1224.03
v 47.2678 -71.0573 1220.8
v 49.0959 -74.221 1226.35
v 48.7255 -73.7147 1226.95
v 48.3232 -72.8144 1227.18
v 46.6016 -69.1496 1222.62
v 46.8253 -69.5272 1221.12
v 45.6586 -70.6018 1224.89
v 47.9647 -71.8796 1227.02
v 48.012 -70.0596 1225.7
v 49.1519 -70.9039 1219.95
v 50.4574 -71.9027 1224.27
v 50.7593 -70.9283 1220.83
v 48.5487 -66.6439 1217.77
v 47.5327 -69.12 1224.54
v 49.7952 -67.8661 1217.2
v 49.6107 -70.0025 1225.09
v 50.3898 -70.4476 1224.47
v 51.3384 -70.3638 1222.04
v 51.5551 -69.2269 1222.25
v 48.1373 -66.5088 1219.16
v 51.3117 -67.7708 1222.34
v 51.0292 -66.76 1222
v 52.6173 -67.255 1218.35
v 51.1808 -67.6253 1216.74
v 49.8206 -63.622 1218.32
v 50.3859 -63.5829 1218.82
v 52.735 -64.2973 1212.7
v 51.9172 -63.5729 1211.65
v 52.7044 -66.5056 1219.17
v 52.3846 -64.2507 1218.85
v 52.8403 -66.0322 1215.95
v 50.1967 -61.0744 1213.32
v 50.5952 -60.7217 1210.93
v 50.9497 -62.1942 1211.12
v 51.3562 -63.9932 1219.37
v 51.8669 -61.4023 1216.38
v 53.2122 -60.59 1214.75
v 54.5286 -61.679 1210.33
v 53.9867 -62.3864 1214.72
v 52.1266 -56.1747 1203.36
v 52.7128 -55.9294 1202.26
v 51.4779 -57.7688 1210.03
v 52.6721 -57.4684 1203.39
v 53.6345 -57.7561 1202.95
v 53.6684 -56.354 1201.83
v 54.6621 -56.866 1202.06
v 52.3735 -58.4812 1212.33
v 53.4759 -58.378 1211.95
v 54.5025 -58.0941 1203.4
v 55.2808 -57.9664 1203.97
v 54.3862 -59.5654 1212.06
v 54.9897 -60.3002 1210.34
v 51.9345 -55.682 1204.04
v 52.4674 -55.1724 1202.51
v 52.4044 -54.4693 1203.61
v 53.0262 -54.0455 1202.58
v 53.2816 -54.8678 1201.82
v 53.8318 -54.3278 1201.82
v 53.0468 -55.9835 1208.34
v 54.5486 -56.2036 1201.69
v 54.9693 -56.4062 1201.89
v 53.5636 -55.4863 1201.63
v 54.3272 -55.5793 1201.54
v 54.9706 -55.8467 1201.72
v 53.8205 -55.0311 1201.58
v 54.5714 -55.1255 1201.58
v 54.2257 -54.6944 1201.62
v 55.497 -55.1299 1202.11
v 54.4541 -56.3131 1208.26
v 55.8388 -56.9427 1203.52
v 56.0191 -55.8656 1204.16
v 55.3399 -56.9593 1202.5
v 55.6026 -56.0012 1202.23
v 55.947 -55.4409 1202.78
v 52.9757 -54.1085 1204.42
v 53.5529 -53.5757 1203.47
v 53.9964 -53.612 1202.63
v 53.9578 -53.8953 1202.16
v 55.6504 -54.3761 1203.2
v 53.9864 -53.6622 1204.01
v 54.2305 -53.5181 1203.38
v 54.5146 -53.6355 1202.71
v 54.972 -53.8121 1202.84
v 54.9379 -54.1758 1204.48
v 55.3708 -54.1034 1203.64
v 54.3569 -54.2728 1201.83
v 54.8137 -54.4911 1201.86
v 55.45 -54.5835 1202.31
v 54.4817 -53.8809 1202.24
v 54.9446 -54.0395 1202.33
v 55.4949 -54.3378 1202.68
v 55.933 -54.9015 1203.27
v 55.6224 -54.7368 1204.23
v 55.7918 -54.8223 1202.73
f 16 22 3
f 16 3 1
f 3 23 4
f 22 23 3
f 23 34 4
f 1 2 5
f 31 1 5
f 2 3 4
f 4 7 2
f 2 7 8
f 2 1 3
f 7 4 44
f 4 34 44
f 34 73 44
f 2 8 5
f 35 31 5
f 35 5 6
f 5 8 6
f 33 31 35
f 40 36 6
f 8 9 6
f 8 7 9
f 9 7 44
f 6 9 40
f 9 44 41
f 40 9 41
f 10 19 20
f 10 12 19
f 12 45 49
f 12 10 45
f 45 10 46
f 19 12 11
f 12 48 11
f 13 11 48
f 13 56 24
f 25 14 18
f 14 25 27
f 15 14 50
f 50 14 27
f 52 15 50
f 16 19 22
f 30 17 16
f 17 19 16
f 18 17 30
f 21 17 18
f 19 17 20
f 21 15 20
f 17 21 20
f 21 18 14
f 14 15 21
f 46 10 20
f 46 20 15
f 52 46 15
f 11 23 22
f 11 22 19
f 11 13 24
f 11 24 23
f 24 34 23
f 18 32 25
f 26 25 32
f 32 33 26
f 26 33 37
f 28 25 26
f 26 29 28
f 26 37 29
f 27 25 28
f 57 28 29
f 59 29 39
f 31 30 1
f 30 16 1
f 31 32 30
f 32 31 33
f 30 32 18
f 34 24 73
f 6 36 35
f 36 40 42
f 37 33 35
f 37 35 36
f 38 37 36
f 38 36 43
f 39 29 37
f 37 38 39
f 39 38 66
f 40 41 42
f 42 41 62
f 36 42 43
f 62 43 42
f 43 62 65
f 43 65 38
f 41 44 75
f 41 75 62
f 45 46 47
f 47 46 52
f 47 49 45
f 47 54 49
f 77 49 54
f 49 48 12
f 49 63 48
f 70 63 49
f 77 70 49
f 50 53 52
f 51 53 50
f 27 51 50
f 58 51 27
f 53 51 55
f 55 72 53
f 47 52 53
f 53 54 47
f 53 72 54
f 56 64 24
f 64 73 24
f 27 28 58
f 58 28 57
f 57 29 59
f 60 58 57
f 57 59 60
f 51 58 61
f 61 55 51
f 58 60 61
f 75 44 73
f 66 59 39
f 65 66 38
f 63 13 48
f 63 56 13
f 63 69 56
f 72 77 54
f 59 67 60
f 59 66 67
f 67 66 80
f 62 81 74
f 65 80 66
f 62 75 81
f 70 68 63
f 63 68 69
f 68 70 77
f 64 56 69
f 61 60 71
f 71 60 67
f 61 71 55
f 55 71 72
f 62 74 65
f 67 80 79
f 71 67 79
f 74 80 65
f 77 88 68
f 68 83 69
f 83 68 88
f 76 69 83
f 76 64 69
f 64 78 73
f 76 78 64
f 87 73 78
f 71 79 72
f 72 79 85
f 84 80 82
f 85 79 84
f 75 73 87
f 87 94 75
f 87 90 94
f 80 84 79
f 82 80 74
f 74 81 82
f 82 81 92
f 92 81 86
f 86 81 75
f 105 95 88
f 76 83 95
f 88 95 83
f 76 97 78
f 91 87 78
f 78 97 91
f 92 84 82
f 92 93 84
f 85 84 93
f 92 86 115
f 75 94 86
f 88 77 89
f 95 96 76
f 76 96 97
f 85 98 72
f 89 72 98
f 77 72 89
f 91 90 87
f 85 93 98
f 102 92 115
f 102 93 92
f 88 89 110
f 88 110 105
f 89 98 99
f 98 93 100
f 89 99 110
f 99 98 100
f 90 91 112
f 86 94 101
f 112 113 90
f 113 94 90
f 101 115 86
f 102 115 114
f 102 114 93
f 95 105 116
f 95 116 96
f 97 103 106
f 103 97 96
f 103 96 116
f 104 106 103
f 107 106 108
f 104 103 117
f 104 108 106
f 122 105 110
f 97 106 91
f 106 107 91
f 107 112 91
f 112 107 109
f 135 112 109
f 107 108 109
f 109 108 123
f 123 124 109
f 99 111 110
f 113 112 135
f 94 113 101
f 113 135 133
f 101 113 133
f 101 133 115
f 99 100 111
f 93 114 100
f 111 100 114
f 132 111 114
f 156 132 114
f 116 117 103
f 105 118 116
f 118 117 116
f 117 118 119
f 138 118 105
f 108 104 125
f 117 120 104
f 104 120 125
f 128 125 120
f 117 119 120
f 120 119 121
f 120 121 128
f 128 121 130
f 141 121 119
f 105 122 138
f 122 132 147
f 126 123 108
f 108 125 126
f 127 124 123
f 127 136 124
f 126 125 128
f 127 123 126
f 129 126 128
f 129 127 126
f 130 129 128
f 131 127 129
f 130 121 149
f 150 129 130
f 150 131 129
f 131 136 127
f 149 150 130
f 150 151 131
f 111 122 110
f 111 132 122
f 114 115 134
f 132 156 147
f 134 156 114
f 135 136 133
f 133 136 137
f 134 115 133
f 134 133 137
f 156 134 155
f 137 155 134
f 135 109 124
f 136 135 124
f 131 137 136
f 138 122 143
f 139 119 118
f 140 141 119
f 118 138 139
f 140 119 139
f 139 138 143
f 144 139 143
f 140 139 144
f 143 122 147
f 152 140 145
f 153 152 145
f 154 153 146
f 157 154 142
f 142 154 146
f 147 156 148
f 148 156 142
f 155 157 142
f 140 144 145
f 145 146 153
f 143 147 144
f 145 144 146
f 144 147 148
f 144 148 146
f 142 146 148
f 149 141 152
f 121 141 149
f 149 152 150
f 151 157 131
f 153 154 151
f 153 151 150
f 154 157 151
f 141 140 152
f 152 153 150
f 157 155 137
f 155 142 156
f 157 137 131
o FMA49913_BP8334_FJ2950
v 49.6695 -80.5255 1221.12
v 50.5734 -80.8866 1222.06
v 53.2898 -81.9963 1219.49
v 52.6888 -81.428 1218.59
v 38.2589 -75.005 1227.75
v 38.3304 -74.5703 1228.3
v 38.2693 -75.2473 1226.75
v 38.0141 -74.6403 1225.79
v 37.8054 -74.4803 1227.23
v 37.741 -74.2943 1226.26
v 37.6384 -74.0499 1226.92
v 37.7499 -73.9256 1227.48
v 38.4951 -75.0409 1225.43
v 37.9512 -74.259 1225.56
v 38.2702 -74.3794 1225.12
v 38.1405 -73.7591 1225.14
v 38.7443 -73.9558 1224.51
v 39.7154 -74.2987 1223.94
v 39.1812 -75.6219 1228.22
v 39.3903 -74.8753 1229.13
v 38.7995 -75.715 1227.17
v 39.2263 -75.8113 1225.9
v 39.6514 -76.1642 1227.19
v 39.3665 -75.0123 1224.51
v 40.9321 -76.2301 1228.43
v 40.3341 -75.5983 1229.12
v 43.4377 -77.5153 1224.68
v 43.6236 -77.5691 1225.96
v 43.6925 -76.7619 1222.83
v 44.0291 -76.1059 1222.15
v 44.6008 -77.5769 1226.7
v 48.3356 -79.648 1221.12
v 50.0491 -79.4056 1219.06
v 50.2614 -80.0839 1223.96
v 53.6943 -81.2869 1222.03
v 54.8213 -80.8378 1216.11
v 54.7076 -80.9431 1222.13
v 55.1342 -82.3227 1219.88
v 57.6847 -82.2257 1219.48
v 56.618 -82.8536 1217.23
v 57.9239 -82.8346 1215.25
v 58.6345 -82.2791 1213.67
v 58.8351 -83.2301 1216.47
v 58.7303 -82.9655 1217.66
v 60.0062 -83.3292 1214.34
v 60.8086 -83.4593 1214.6
v 61.3346 -83.0811 1212.03
v 61.2209 -83.3313 1215.26
v 62.2796 -83.4381 1212.39
v 62.6415 -83.4903 1213.02
v 63.1414 -83.4103 1212.49
v 62.5907 -82.8732 1211.18
v 38.2108 -73.6959 1228.29
v 38.3222 -72.9212 1227.9
v 38.9395 -73.0964 1228.7
v 39.302 -72.5654 1228.37
v 37.6538 -73.548 1226.96
v 37.7451 -73.5027 1226.03
v 37.8365 -73.0455 1226.5
v 37.9003 -73.2312 1227.52
v 38.216 -72.6422 1226.19
v 38.1664 -72.77 1227.31
v 38.6891 -72.5196 1227.71
v 38.863 -72.2244 1226.79
v 38.0838 -73.0278 1225.62
v 38.7623 -73.0019 1224.79
v 39.7825 -73.3317 1224.01
v 38.6916 -72.5011 1225.54
v 39.5999 -72.7178 1224.5
v 39.0866 -73.7579 1229.1
v 40.1935 -74.0533 1229.64
v 39.641 -73.17 1229.15
v 41.4659 -75.6391 1229.31
v 41.0249 -74.9807 1229.69
v 41.3034 -74.5158 1229.82
v 42.7052 -75.2062 1229.4
v 44.408 -75.1815 1221.87
v 44.722 -76.9597 1227.63
v 47.1214 -76.1467 1227.38
v 48.2729 -77.2243 1219.79
v 48.4302 -76.4105 1219.94
v 50.0394 -78.9589 1225.15
v 52.7902 -78.8101 1217.3
v 56.1984 -79.5003 1215.2
v 54.9197 -79.8161 1222.6
v 57.529 -81.431 1220.36
v 59.0768 -81.4014 1212.69
v 60.565 -81.0459 1211.12
v 59.2169 -80.3787 1212.56
v 60.8091 -82.7635 1216.89
v 60.4346 -81.9502 1218.09
v 60.6096 -81.8895 1211.34
v 61.8146 -82.3511 1210.84
v 61.4672 -81.1175 1210.56
v 62.55 -81.6215 1210.4
v 62.9647 -82.9623 1214.74
v 63.3674 -82.1855 1215.38
v 63.2264 -83.1044 1211.62
v 63.2754 -83.3538 1213.13
v 63.8146 -82.5545 1211.25
v 63.3266 -81.6581 1210.52
v 64.2032 -82.8847 1212.31
v 64.2031 -82.7887 1213.56
v 64.7055 -82.253 1211.92
v 39.8682 -71.9761 1225.81
v 40.7789 -72.5794 1228.89
v 39.9102 -72.0844 1227.79
v 40.2497 -71.841 1226.89
v 41.3867 -71.9599 1227.65
v 40.9348 -72.292 1224.68
v 41.6255 -71.8687 1226.32
v 41.2668 -73.4923 1229.63
v 42.8161 -74.1658 1229.5
v 43.0833 -73.0803 1228.79
v 43.0273 -72.2254 1227.11
v 43.2245 -73.4991 1222.95
v 44.3899 -72.7165 1224.21
v 46.2714 -73.6 1222.78
v 47.5848 -74.1347 1226.21
v 47.6234 -75.0054 1226.93
v 50.2143 -76.0568 1219.79
v 52.0816 -75.7125 1220.88
v 53.8895 -76.4054 1221.34
v 54.3718 -77.5515 1217.45
v 55.0016 -77.2735 1221.73
v 56.3595 -77.1499 1218.19
v 56.7137 -79.1047 1221.41
v 57.0202 -77.472 1219.64
v 57.4956 -78.1891 1215.51
v 58.7293 -77.7528 1216.03
v 61.0332 -78.8453 1212
v 61.2053 -79.8021 1211
v 59.6671 -80.5226 1219.29
v 61.6082 -79.286 1217.29
v 62.173 -78.6543 1211.5
v 62.7155 -80.1622 1210.43
v 62.0763 -79.1072 1211.06
v 63.0276 -79.4718 1210.72
v 61.9952 -80.9645 1217.31
v 64.456 -80.2494 1214.8
v 65.111 -79.9064 1212.11
v 64.4809 -81.301 1211.03
v 63.6343 -80.0738 1210.62
v 64.9125 -80.6811 1211.43
v 64.019 -79.4827 1211.09
v 64.7409 -82.0454 1213.91
v 64.6783 -81.3135 1214.47
v 65.0136 -82.083 1212.96
v 65.1759 -81.4549 1212.07
v 65.2962 -81.3891 1213.1
v 65.3636 -80.5493 1212.41
v 65.3053 -80.4105 1213.42
v 47.8168 -73.6993 1224.27
v 59.4728 -77.7947 1216.98
v 61.2306 -78.3835 1216.61
v 62.0811 -78.2853 1212.34
v 62.81 -78.3858 1211.89
v 62.9966 -78.1799 1213.17
v 63.7288 -78.4095 1212.34
v 62.8522 -78.7285 1211.36
v 64.6169 -79.5294 1214.23
v 64.067 -78.8282 1214.08
v 65.2173 -79.7899 1213.1
v 64.6287 -78.9339 1213
v 63.9457 -78.8335 1211.68
f 189 161 158
f 161 160 158
f 158 160 159
f 189 190 161
f 160 195 159
f 160 197 195
f 160 161 197
f 163 169 166
f 162 163 166
f 163 210 169
f 167 171 165
f 164 167 165
f 171 172 165
f 167 164 166
f 164 162 166
f 162 164 178
f 168 215 167
f 166 168 167
f 215 171 167
f 166 169 168
f 214 168 169
f 214 215 168
f 215 222 173
f 165 170 164
f 170 179 164
f 170 181 179
f 165 172 170
f 170 172 181
f 173 172 171
f 174 172 173
f 172 174 181
f 174 175 181
f 171 215 173
f 178 176 162
f 176 163 162
f 183 177 176
f 163 176 177
f 177 227 163
f 210 163 227
f 227 177 228
f 178 164 179
f 176 178 180
f 178 179 180
f 179 184 180
f 179 186 184
f 179 181 186
f 186 181 187
f 181 175 187
f 182 176 180
f 182 185 188
f 176 182 183
f 182 188 235
f 230 183 182
f 182 235 230
f 180 184 185
f 180 185 182
f 187 175 234
f 187 190 186
f 234 237 187
f 235 188 191
f 186 189 184
f 184 189 158
f 184 159 185
f 184 158 159
f 237 190 187
f 239 233 235
f 188 185 159
f 186 190 189
f 237 193 190
f 237 240 193
f 191 239 235
f 188 159 191
f 191 159 192
f 192 239 191
f 192 159 195
f 239 192 194
f 190 193 161
f 193 199 161
f 192 195 196
f 194 192 196
f 194 196 243
f 242 194 243
f 201 196 195
f 161 198 197
f 200 195 197
f 195 200 201
f 199 198 161
f 193 244 199
f 199 204 198
f 205 201 200
f 247 201 205
f 196 201 247
f 200 202 203
f 205 200 203
f 198 202 197
f 197 202 200
f 198 204 202
f 202 204 206
f 203 202 206
f 207 203 206
f 204 209 206
f 199 249 204
f 249 250 204
f 249 199 244
f 253 247 205
f 207 205 203
f 205 207 256
f 253 205 256
f 208 207 206
f 207 208 256
f 209 204 250
f 214 169 217
f 210 217 169
f 211 217 210
f 212 210 227
f 211 210 212
f 211 213 220
f 212 213 211
f 214 216 215
f 214 217 216
f 216 222 215
f 218 222 216
f 217 219 216
f 216 219 218
f 211 219 217
f 218 225 222
f 219 211 220
f 221 225 218
f 220 221 219
f 218 219 221
f 221 220 264
f 223 173 222
f 223 174 173
f 174 223 224
f 175 174 224
f 224 223 226
f 225 223 222
f 225 226 223
f 225 262 226
f 267 273 226
f 267 226 262
f 262 225 221
f 224 226 273
f 228 177 231
f 231 177 183
f 228 231 232
f 227 228 229
f 212 227 229
f 229 213 212
f 229 228 269
f 269 228 232
f 231 183 230
f 230 235 233
f 232 231 233
f 233 231 230
f 270 232 233
f 270 269 232
f 224 234 175
f 234 224 273
f 236 270 233
f 238 237 234
f 273 238 234
f 273 278 238
f 239 236 233
f 237 238 240
f 281 238 278
f 239 242 236
f 238 281 240
f 281 241 240
f 241 281 286
f 241 286 288
f 240 241 193
f 242 239 194
f 246 244 193
f 193 241 246
f 246 241 288
f 290 242 243
f 242 290 284
f 249 244 245
f 244 246 245
f 245 246 289
f 248 290 243
f 248 243 196
f 248 196 247
f 248 296 290
f 251 250 249
f 245 251 249
f 251 252 250
f 252 209 250
f 251 245 289
f 293 252 251
f 258 209 252
f 252 293 258
f 293 251 289
f 247 253 254
f 248 247 254
f 296 248 254
f 260 253 256
f 206 255 208
f 206 209 255
f 255 259 208
f 256 259 260
f 256 208 259
f 257 255 209
f 257 209 258
f 257 258 299
f 254 253 260
f 303 254 260
f 257 259 255
f 259 257 261
f 261 257 299
f 261 299 306
f 260 259 305
f 259 261 305
f 261 306 305
f 303 260 305
f 220 213 264
f 265 221 264
f 265 262 221
f 263 264 213
f 229 263 213
f 269 263 229
f 269 271 263
f 263 271 266
f 265 266 268
f 266 265 264
f 266 264 263
f 266 272 268
f 265 268 262
f 268 267 262
f 274 267 268
f 275 267 274
f 270 271 269
f 271 270 277
f 270 236 277
f 271 272 266
f 277 276 271
f 272 271 276
f 267 275 273
f 275 274 310
f 268 310 274
f 268 272 310
f 273 275 278
f 272 276 310
f 279 275 310
f 242 284 236
f 236 284 277
f 277 282 276
f 284 282 277
f 279 278 275
f 276 282 310
f 310 280 279
f 283 278 279
f 284 291 282
f 285 283 279
f 280 285 279
f 278 283 281
f 280 310 282
f 282 285 280
f 285 311 283
f 283 287 281
f 282 291 312
f 282 312 285
f 285 312 311
f 283 311 287
f 287 286 281
f 291 284 290
f 315 287 311
f 286 287 288
f 246 288 289
f 288 294 289
f 292 294 288
f 313 288 287
f 313 314 292
f 313 292 288
f 314 317 292
f 258 293 300
f 295 300 293
f 294 293 289
f 293 294 295
f 302 300 295
f 292 317 294
f 317 295 294
f 291 290 296
f 254 304 296
f 297 291 296
f 291 297 318
f 300 299 258
f 300 301 299
f 301 306 299
f 302 301 300
f 298 301 302
f 298 302 322
f 254 303 304
f 303 305 307
f 303 307 304
f 297 296 304
f 309 297 304
f 309 318 297
f 307 305 306
f 306 308 307
f 306 301 308
f 298 308 301
f 309 304 307
f 320 309 308
f 307 308 309
f 311 312 315
f 319 312 291
f 313 287 315
f 314 313 315
f 322 317 314
f 314 315 316
f 322 314 316
f 315 319 321
f 315 321 316
f 316 321 322
f 317 302 295
f 302 317 322
f 319 291 318
f 308 298 320
f 298 322 321
f 320 318 309
f 321 318 320
f 298 321 320
f 315 312 319
f 319 318 321
o FMA49913_BP8334_FJ2955
v 35.9626 -76.5189 1230.97
v 35.2302 -76.2731 1232.19
v 34.3767 -75.9204 1231.52
v 34.0164 -75.539 1230.46
v 35.2786 -75.9383 1229.5
v 34.5302 -75.4333 1229.17
v 65.4832 -88.8692 1219.66
v 70.2221 -91.2982 1216.92
v 69.603 -90.9064 1217.89
v 70.7094 -91.2588 1217.29
v 70.2095 -90.9141 1218.14
v 71.3661 -90.9971 1217.69
v 69.0777 -90.8627 1216.89
v 65.8518 -88.8025 1218.09
v 65.7869 -88.197 1217.39
v 70.3289 -91.2877 1216.41
v 70.7887 -91.3169 1216.79
v 70.9277 -91.2644 1216.33
v 70.6765 -91.0595 1215.56
v 71.3714 -91.1623 1216.94
v 71.493 -91.0081 1216
v 71.2181 -90.7591 1215.21
v 68.7255 -90.2823 1215.7
v 69.9463 -90.8951 1215.43
v 69.9187 -90.525 1214.92
v 69.2409 -89.9257 1214.77
v 68.6131 -89.4657 1215.07
v 70.7459 -90.5736 1214.87
v 70.1675 -89.8227 1214.35
v 41.5637 -77.6138 1234.44
v 35.669 -76.1481 1233.49
v 36.3061 -75.7857 1234.71
v 34.653 -75.4554 1233.86
v 33.8794 -74.9556 1233.34
v 34.955 -75.1035 1234.63
v 34.0153 -74.5478 1233.98
v 33.2218 -73.982 1232.72
v 43.6688 -78.7418 1232.94
v 34.103 -75.5717 1232.5
v 33.6415 -75.2943 1231.41
v 33.294 -74.6512 1232.08
v 32.9273 -73.8863 1231.32
v 32.9264 -73.4041 1231.85
v 32.8489 -73.204 1230.86
v 44.0353 -79.209 1230.76
v 33.3039 -74.7242 1230.45
v 33.5577 -74.6536 1229.46
v 33.0063 -73.6645 1229.92
v 33.4188 -73.3539 1228.8
v 48.8093 -80.7067 1230.74
v 42.5827 -78.4829 1229.53
v 35.6629 -75.4216 1228.31
v 35.3473 -74.3223 1227.4
v 34.1999 -74.4432 1228.33
v 34.0654 -73.225 1227.91
v 35.0491 -73.6427 1227.23
v 46.1388 -79.8257 1228.36
v 45.4091 -78.9726 1227.43
v 41.222 -77.4382 1228.34
v 41.9941 -76.6613 1227.02
v 38.0147 -75.0961 1227.02
v 44.1898 -77.6627 1226.85
v 56.6692 -84.058 1226.88
v 52.6525 -82.4313 1225.57
v 51.5163 -81.1972 1224.96
v 56.2469 -84.2891 1225.07
v 55.9475 -84.0142 1224.39
v 55.9182 -83.6393 1223.56
v 63.7422 -86.9064 1223.77
v 63.1321 -87.427 1222.59
v 60.0137 -85.7926 1221.74
v 58.5506 -83.6691 1221.17
v 61.9904 -86.0058 1219.65
v 70.5465 -90.0068 1219.33
v 62.9903 -85.5076 1218.64
v 70.9059 -90.6149 1218.55
v 71.549 -90.4019 1218.56
v 71.8901 -90.5088 1218.09
v 71.3742 -89.6225 1219.22
v 72.0199 -89.8568 1218.62
v 72.6003 -89.7828 1217.8
v 65.5632 -87.0495 1217.07
v 72.1863 -90.5444 1215.97
v 71.8051 -90.5204 1215.32
v 72.2415 -90.5704 1217.17
v 72.3975 -90.0556 1215.54
v 72.6749 -90.0118 1216.38
v 72.7289 -89.4077 1215.68
v 71.4771 -90.2876 1214.82
v 72.054 -90.0845 1215.09
v 71.7446 -89.8291 1214.65
v 72.3037 -89.6363 1215.06
v 72.0581 -89.1904 1214.67
v 71.0618 -89.7532 1214.34
v 70.0149 -88.6615 1214.15
v 71.4833 -89.3954 1214.34
v 70.8782 -89.0807 1214.12
v 71.5164 -88.8236 1214.32
v 70.8432 -88.0179 1214.28
v 69.2816 -89.1553 1214.46
v 69.1767 -88.0685 1214.57
v 70.0137 -87.6758 1214.46
v 40.2377 -75.8215 1236.08
v 36.1062 -74.5597 1235.68
v 36.9108 -74.1234 1236.02
v 36.852 -73.5004 1235.83
v 34.7502 -74.3071 1234.97
v 34.3396 -73.5583 1234.72
v 35.1508 -73.7862 1235.4
v 35.614 -73.4943 1235.62
v 34.8176 -73.0306 1235.06
v 45.3181 -77.4844 1235.38
v 43.9687 -77.1429 1235.7
v 41.7816 -76.7485 1235.74
v 42.0379 -76.1294 1236.21
v 34.7072 -72.3336 1234.52
v 33.7392 -73.4275 1233.94
v 33.2709 -72.9724 1232.92
v 33.8714 -72.6186 1233.86
v 33.6935 -71.8789 1232.8
v 45.8411 -78.8436 1233.81
v 44.6872 -77.9393 1234.98
v 46.4581 -78.1727 1234.63
v 33.0609 -72.3678 1231.48
v 33.2704 -71.8316 1231.02
v 33.5445 -71.6184 1231.86
v 33.7451 -71.3233 1231.4
v 33.0871 -72.3972 1230.01
v 33.5437 -71.9252 1229.14
v 33.6575 -71.3987 1230.18
v 34.0052 -71.341 1229.29
v 51.1533 -79.638 1232.04
v 50.8013 -80.5266 1231.4
v 35.0894 -72.7835 1227.08
v 33.8039 -72.2096 1228.42
v 34.8172 -71.9737 1227.49
v 34.0759 -71.5473 1228.7
v 35.2965 -71.42 1227.65
v 54.696 -81.3128 1230.18
v 36.186 -73.5325 1226.7
v 36.8116 -72.4634 1226.38
v 36.2932 -71.9856 1226.63
v 35.921 -71.5993 1227.05
v 57.1404 -82.0107 1229.1
v 47.3088 -78.4024 1225.8
v 44.3937 -76.7703 1226.24
v 42.1803 -75.5371 1226.3
v 39.5125 -73.9462 1226.08
v 60.9083 -83.6857 1226.97
v 60.0327 -84.2473 1226.91
v 48.8288 -77.6222 1225.12
v 51.5477 -79.8173 1224.23
v 63.6376 -85.6629 1224.97
v 64.6427 -84.8068 1224.72
v 67.4039 -87.5417 1222.37
v 58.7823 -81.6108 1221.1
v 57.3391 -81.6468 1221.6
v 68.5153 -87.1889 1221.9
v 61.8449 -83.4145 1219.44
v 69.9217 -87.3854 1220.81
v 70.0053 -86.8395 1220.58
v 70.6507 -86.5482 1219.56
v 71.8461 -89.0352 1219.1
v 72.632 -89.015 1218.15
v 72.0868 -88.5539 1218.89
v 72.3629 -87.9368 1218.27
v 72.7358 -88.2043 1217.69
v 72.166 -87.3301 1217.94
v 66.6487 -85.988 1216.57
v 72.8832 -89.2381 1217.4
v 72.9742 -88.9072 1216.49
v 72.8531 -88.4957 1215.98
v 72.6253 -88.2747 1215.5
v 72.9382 -88.435 1217
v 72.9068 -88.3018 1216.5
v 72.6912 -87.9657 1215.98
v 72.7619 -87.8906 1217.01
v 72.6874 -87.7446 1216.48
v 72.3791 -87.4761 1215.95
v 72.2952 -87.1901 1216.92
v 70.2567 -86.4229 1215.67
v 71.323 -86.5827 1216.27
v 72.6347 -88.8188 1215.36
v 72.2235 -88.2872 1214.93
v 72.3427 -87.8451 1215.35
v 71.8733 -87.8383 1214.85
v 71.1364 -87.1953 1214.93
v 71.9883 -87.4112 1215.35
v 69.903 -86.8668 1215.1
v 41.1615 -75.4503 1236.36
v 40.7828 -74.772 1236.3
v 35.7553 -72.6998 1235.17
v 46.1209 -77.0608 1235.38
v 45.6248 -75.8436 1235.63
v 44.7521 -76.3133 1235.93
v 44.4407 -75.6041 1236.01
v 43.758 -74.7247 1235.9
v 42.9434 -75.9835 1236.26
v 42.2765 -75.1422 1236.32
v 41.6151 -74.2974 1235.99
v 39.8544 -73.2352 1235.13
v 37.2296 -72.4846 1234.76
v 35.2796 -71.6764 1233.81
v 34.2949 -71.6346 1233.31
v 34.7131 -71.3803 1233.12
v 47.797 -77.7069 1234.45
v 47.4703 -76.5402 1234.77
v 35.812 -71.4051 1233.08
v 34.034 -71.3856 1232.46
v 34.3937 -71.0665 1231.55
v 34.9498 -71.108 1232.13
v 34.3895 -71.0345 1230.34
v 35.8124 -70.9183 1230.13
v 51.5431 -78.3753 1232.23
v 35.2798 -71.0696 1228.63
v 55.0548 -80.6739 1230.36
v 54.429 -79.3727 1230.78
v 39.0792 -72.6302 1226.03
v 39.4511 -71.8557 1226.39
v 39.9067 -71.5954 1226.8
v 37.3303 -71.8727 1226.43
v 36.7039 -71.4358 1226.95
v 37.6977 -71.5305 1226.71
v 37.286 -71.1424 1227.61
v 36.2254 -71.282 1227.39
v 57.5168 -81.3996 1229.12
v 57.7828 -80.4526 1228.87
v 44.9314 -75.154 1225.97
v 40.9355 -72.4935 1226.13
v 40.8583 -71.943 1226.5
v 41.8184 -72.3734 1226.41
v 50.0649 -76.8385 1225.14
v 53.9222 -79.227 1223.39
v 54.4963 -78.276 1223.89
v 65.4415 -84.5777 1224.09
v 64.1416 -83.1241 1224.55
v 64.7322 -82.6953 1223.21
v 67.786 -84.818 1221.72
v 64.9929 -82.4972 1221.38
v 64.1382 -82.2208 1220.62
v 69.0545 -85.1286 1220.03
v 63.105 -82.3962 1219.92
v 70.8281 -86.0961 1218
v 45.1386 -75.0381 1235.57
v 43.0201 -73.7883 1235.34
v 44.1566 -73.9669 1235.2
v 48.1127 -75.8846 1234.15
v 46.4204 -75.5285 1235.13
v 45.395 -74.0864 1234.74
v 43.0057 -72.8658 1234.1
v 44.5988 -73.0899 1234.02
v 40.1945 -72.2087 1233.24
v 48.1162 -75.1555 1233.64
v 47.0591 -73.8702 1233.16
v 45.4577 -72.9219 1233.21
v 44.4451 -72.5529 1233.21
v 44.9079 -72.2271 1232.1
v 43.219 -71.7594 1231.85
v 40.0039 -71.3849 1230.69
v 50.9654 -76.9654 1232.33
v 47.2644 -73.2748 1231.54
v 45.5886 -72.3037 1230.48
v 42.8177 -71.3969 1230.64
v 43.8219 -71.622 1231.14
v 43.557 -71.4811 1229.98
v 54.4444 -78.0731 1230.35
v 53.0679 -76.51 1230.09
v 44.7658 -72.0204 1229.11
v 43.2488 -71.7463 1228.06
v 40.9499 -71.5102 1227.28
v 41.8515 -71.6875 1227.22
v 42.9252 -72.0914 1227.15
v 41.5826 -71.3617 1228.38
v 57.3743 -79.0131 1228.33
v 53.9552 -76.4455 1228.41
v 50.027 -74.6949 1227.64
v 46.3501 -73.8969 1226.83
v 57.224 -78.2346 1227.1
v 52.0952 -76.2081 1225.94
v 56.1321 -77.6038 1225.72
f 324 325 323
f 325 326 323
f 324 361 325
f 325 362 326
f 381 327 374
f 323 326 327
f 326 328 327
f 326 369 328
f 327 328 374
f 329 388 336
f 388 393 336
f 393 395 336
f 329 335 392
f 329 336 335
f 395 337 336
f 332 331 330
f 331 335 330
f 339 332 330
f 338 339 330
f 333 391 331
f 332 333 331
f 332 339 342
f 334 398 333
f 334 333 332
f 332 342 334
f 334 342 407
f 398 391 333
f 398 334 400
f 392 335 331
f 335 338 330
f 391 392 331
f 337 404 349
f 340 339 338
f 340 342 339
f 338 341 340
f 350 341 346
f 343 407 342
f 342 340 343
f 340 341 343
f 344 343 341
f 341 350 344
f 405 407 343
f 406 343 344
f 405 343 406
f 336 345 335
f 336 337 345
f 338 346 341
f 335 346 338
f 335 345 346
f 347 346 345
f 350 346 347
f 345 348 347
f 337 349 345
f 349 348 345
f 344 350 411
f 406 344 411
f 416 411 350
f 351 347 348
f 350 347 351
f 348 349 422
f 354 426 357
f 426 429 357
f 352 353 360
f 352 354 353
f 355 353 354
f 355 361 353
f 361 324 353
f 355 358 356
f 355 356 361
f 354 357 355
f 355 357 358
f 357 429 358
f 358 359 356
f 356 363 361
f 359 363 356
f 358 429 430
f 439 359 358
f 443 352 360
f 372 443 360
f 443 444 352
f 360 323 367
f 360 324 323
f 353 324 360
f 325 361 362
f 362 368 326
f 361 363 362
f 363 364 368
f 363 368 362
f 359 364 363
f 368 364 370
f 364 359 365
f 370 364 366
f 365 366 364
f 367 372 360
f 367 323 373
f 327 381 323
f 368 369 326
f 369 376 328
f 370 371 369
f 368 370 369
f 371 376 369
f 366 450 370
f 450 371 370
f 367 385 372
f 373 379 367
f 381 379 373
f 323 381 373
f 383 382 374
f 328 376 374
f 376 375 374
f 374 375 383
f 375 376 378
f 383 375 462
f 462 375 378
f 371 377 376
f 376 377 378
f 367 379 388
f 381 380 379
f 382 380 381
f 382 384 380
f 374 382 381
f 382 383 469
f 462 378 456
f 383 462 470
f 380 384 467
f 380 467 387
f 367 388 385
f 385 455 372
f 388 379 386
f 379 380 386
f 380 387 386
f 474 387 467
f 385 391 455
f 388 386 389
f 386 390 389
f 393 388 389
f 386 387 390
f 391 477 475
f 472 391 475
f 388 392 385
f 391 385 392
f 393 389 390
f 394 390 387
f 388 329 392
f 395 394 397
f 394 395 390
f 395 393 390
f 397 394 479
f 477 391 396
f 477 396 401
f 395 404 337
f 404 395 397
f 396 391 398
f 407 400 334
f 398 399 396
f 399 398 400
f 396 399 401
f 400 407 403
f 403 407 409
f 402 401 399
f 402 399 400
f 402 400 403
f 485 401 402
f 402 403 486
f 402 486 485
f 403 492 486
f 404 491 423
f 407 405 409
f 405 408 409
f 405 406 408
f 406 412 408
f 412 414 408
f 408 410 409
f 410 408 414
f 505 410 414
f 403 409 492
f 492 409 493
f 409 410 493
f 349 404 422
f 491 424 423
f 412 411 413
f 412 406 411
f 416 413 411
f 413 416 418
f 414 412 413
f 415 414 413
f 415 413 418
f 505 414 415
f 415 418 420
f 506 505 415
f 422 351 348
f 416 350 351
f 418 416 419
f 351 419 416
f 417 351 422
f 419 351 417
f 418 419 420
f 419 417 421
f 424 421 417
f 420 419 421
f 511 421 424
f 422 423 417
f 422 404 423
f 424 417 423
f 437 512 425
f 425 426 354
f 425 427 426
f 426 427 432
f 432 427 428
f 428 514 432
f 428 524 514
f 431 429 426
f 431 430 429
f 426 432 431
f 430 431 433
f 441 430 433
f 433 431 432
f 514 433 432
f 434 435 444
f 517 435 434
f 444 436 352
f 436 444 435
f 435 517 520
f 352 436 354
f 436 425 354
f 436 437 425
f 437 436 435
f 358 430 439
f 430 441 439
f 433 438 441
f 433 514 438
f 438 525 526
f 365 359 440
f 446 365 440
f 359 439 440
f 440 439 441
f 440 441 442
f 442 446 440
f 526 441 438
f 526 442 441
f 526 531 442
f 372 455 443
f 445 443 455
f 455 454 445
f 443 445 444
f 444 445 434
f 450 366 446
f 366 365 446
f 448 447 446
f 447 450 446
f 442 448 446
f 448 449 447
f 531 448 442
f 448 531 449
f 531 532 449
f 528 445 454
f 451 371 450
f 451 459 457
f 453 459 451
f 447 452 450
f 452 451 450
f 452 453 451
f 447 449 452
f 453 537 459
f 449 534 452
f 452 534 453
f 534 537 453
f 451 457 371
f 457 377 371
f 378 377 456
f 377 458 456
f 459 458 457
f 458 377 457
f 459 460 458
f 459 537 460
f 460 465 458
f 537 547 460
f 461 455 472
f 461 472 466
f 454 455 461
f 463 540 470
f 462 456 463
f 462 463 470
f 456 464 463
f 543 463 464
f 465 544 464
f 544 543 464
f 463 543 540
f 458 464 456
f 465 464 458
f 547 465 460
f 472 471 466
f 455 391 472
f 468 467 384
f 550 473 468
f 384 382 468
f 382 469 468
f 468 469 550
f 469 383 470
f 469 470 550
f 550 470 540
f 474 467 473
f 473 467 468
f 472 475 471
f 471 475 476
f 387 474 394
f 394 474 479
f 479 474 555
f 555 474 473
f 477 480 476
f 475 477 476
f 478 479 555
f 477 401 480
f 476 480 557
f 564 478 555
f 480 401 485
f 485 482 480
f 557 480 482
f 483 560 557
f 479 481 397
f 397 481 404
f 564 511 481
f 479 478 481
f 481 478 564
f 482 483 557
f 488 484 483
f 487 485 486
f 485 487 482
f 483 482 487
f 483 487 488
f 486 488 487
f 489 488 486
f 492 489 486
f 496 489 492
f 489 490 488
f 484 488 490
f 490 502 565
f 481 511 491
f 564 503 511
f 481 491 404
f 493 410 494
f 410 505 494
f 492 493 496
f 493 494 497
f 494 505 495
f 493 497 496
f 494 495 498
f 489 496 499
f 497 494 498
f 499 490 489
f 497 499 496
f 497 500 499
f 500 497 498
f 498 501 500
f 499 502 490
f 500 502 499
f 502 500 501
f 501 510 504
f 501 504 502
f 562 504 503
f 502 504 565
f 511 424 491
f 495 505 506
f 506 415 420
f 495 506 507
f 495 507 498
f 501 498 507
f 510 501 507
f 506 420 508
f 421 508 420
f 421 511 509
f 508 507 506
f 510 507 508
f 509 508 421
f 511 503 509
f 504 509 503
f 509 510 508
f 504 510 509
f 427 425 512
f 512 513 427
f 513 428 427
f 524 428 522
f 517 434 515
f 434 445 515
f 515 516 517
f 516 518 517
f 518 520 517
f 518 516 566
f 519 518 566
f 516 570 566
f 437 435 520
f 520 512 437
f 521 513 512
f 520 521 512
f 520 518 521
f 521 522 513
f 518 519 521
f 521 519 522
f 519 567 522
f 523 522 567
f 522 428 513
f 574 523 572
f 522 523 524
f 523 574 524
f 514 525 438
f 524 525 514
f 525 524 530
f 527 526 525
f 527 531 526
f 525 530 527
f 533 527 530
f 528 536 529
f 536 582 529
f 515 445 528
f 515 528 529
f 515 529 516
f 529 570 516
f 574 530 524
f 530 581 533
f 532 531 533
f 527 533 531
f 532 533 535
f 528 454 536
f 536 539 582
f 581 530 574
f 532 534 449
f 532 535 534
f 533 581 535
f 595 546 535
f 581 595 535
f 535 537 534
f 546 537 535
f 546 547 537
f 538 454 461
f 461 466 538
f 454 538 536
f 536 538 539
f 549 588 539
f 542 552 541
f 552 542 592
f 544 465 547
f 545 543 544
f 544 547 546
f 546 545 544
f 541 540 543
f 542 546 592
f 542 545 546
f 545 542 541
f 543 545 541
f 592 546 595
f 471 476 548
f 548 476 549
f 548 538 466
f 548 466 471
f 538 548 539
f 539 548 549
f 550 553 599
f 550 551 553
f 552 553 551
f 550 540 551
f 540 541 551
f 541 552 551
f 556 554 601
f 555 473 554
f 473 550 554
f 601 554 599
f 550 599 554
f 554 556 555
f 557 549 476
f 549 557 558
f 559 596 558
f 549 558 596
f 598 564 601
f 557 560 558
f 560 559 558
f 559 560 563
f 556 564 555
f 556 601 564
f 564 598 562
f 560 483 484
f 563 560 484
f 559 563 561
f 563 565 561
f 484 490 563
f 563 490 565
f 504 561 565
f 504 562 561
f 564 562 503
f 519 566 568
f 567 519 568
f 572 523 567
f 567 568 572
f 529 582 569
f 570 529 569
f 570 569 575
f 571 566 570
f 568 566 571
f 571 573 568
f 572 568 573
f 575 571 570
f 575 576 571
f 573 571 577
f 578 572 573
f 569 582 575
f 575 582 589
f 575 589 576
f 576 589 583
f 583 589 597
f 571 576 577
f 577 583 579
f 577 576 583
f 577 578 573
f 578 580 572
f 579 578 577
f 578 579 580
f 579 586 580
f 586 579 584
f 574 572 580
f 581 574 580
f 586 585 580
f 580 585 581
f 582 539 588
f 584 590 587
f 595 581 585
f 585 587 595
f 584 587 586
f 586 587 585
f 588 596 589
f 582 588 589
f 597 584 583
f 598 590 584
f 591 590 598
f 594 591 598
f 587 591 595
f 590 591 587
f 593 552 592
f 552 593 553
f 553 594 599
f 594 553 593
f 593 595 591
f 595 593 592
f 593 591 594
f 588 549 596
f 589 596 600
f 600 597 589
f 602 598 584
f 584 597 602
f 599 594 598
f 596 559 600
f 561 600 559
f 600 561 602
f 597 600 602
f 599 598 601
f 561 562 602
f 598 602 562
f 583 584 579
