o FMA4720_BP10292_FJ3645
v -24.719 -118.329 1308.7
v -24.494 -119.826 1308.24
v -24.1623 -118.476 1309.65
v -24.163 -120.344 1309.07
v -24.0447 -121.174 1307.43
v -24.7123 -116.399 1309.08
v -24.9033 -116.37 1307.94
v -24.4367 -114.815 1309.09
v -24.7674 -115.262 1307.81
v -24.5191 -114.224 1307.95
v -24.2154 -116.359 1309.64
v -23.6476 -113.713 1309.57
v -24.1319 -113.33 1308.45
v -25.3025 -117.299 1303.15
v -24.3709 -112.351 1303.93
v -25.2171 -118.824 1300.47
v -25.8042 -114.866 1295.06
v -25.272 -112.408 1295.27
v -24.8014 -111.265 1295.72
v -25.9675 -116.858 1292.31
v -24.9795 -109.885 1284.55
v -23.8019 -122.496 1278.87
v -26.01 -118.636 1279.29
v -26.1897 -117.99 1275.68
v -25.6557 -119.411 1276.18
v -25.3024 -119.459 1275.58
v -25.713 -118.82 1275.54
v -24.567 -121.488 1279.84
v -25.2032 -118.865 1275.22
v -24.7114 -119.81 1275.3
v -23.9287 -121.808 1275.78
v -26.6349 -115.304 1279.49
v -26.5908 -116.386 1276.61
v -26.522 -115.764 1275.61
v -26.5762 -113.448 1277.36
v -26.3304 -112.415 1277.73
v -26.6178 -113.977 1276.2
v -26.4592 -112.877 1276.14
v -26.3837 -113.431 1275.6
v -25.8047 -110.826 1277.81
v -25.8477 -111.71 1275.66
v -24.7511 -110.976 1275.19
v -24.818 -108.893 1277.38
v -24.7028 -108.978 1276.16
v -23.9745 -107.894 1279.41
v -23.9065 -107.816 1276.25
v -23.9771 -108.35 1275.61
v -24.7281 -118.372 1274.94
v -24.2636 -119.32 1275.01
v -26.1915 -117.241 1275.17
v -26.194 -115.759 1275.13
v -25.6437 -117.544 1274.85
v -25.7235 -112.593 1275.1
v -25.1781 -112.5 1274.93
v -23.5069 -122.242 1307.43
v -23.2056 -122.327 1309.15
v -23.317 -122.696 1305.56
v -22.3095 -123.771 1308.97
v -22.1396 -123.437 1309.59
v -22.2346 -122.659 1309.73
v -22.0122 -124.241 1307.4
v -20.6969 -125.261 1309.02
v -20.9028 -125.267 1305.4
v -20.2128 -124.837 1309.67
v -20.0727 -125.851 1308.51
v -23.2723 -121.515 1309.57
v -23.5089 -117.482 1309.79
v -23.6935 -114.84 1309.71
v -23.6826 -112.802 1309.09
v -23.4063 -111.832 1308.16
v -22.4095 -111.442 1309.57
v -22.6791 -111.171 1308.92
v -21.53 -111.658 1309.79
v -21.492 -109.81 1308.38
v -20.8751 -109.942 1309.55
v -20.2869 -109.91 1309.76
v -19.9317 -109.36 1309.58
v -20.2544 -109.193 1309.07
v -20.2586 -108.842 1307.98
v -22.7998 -109.858 1303.65
v -21.2095 -108.675 1304.83
v -23.7228 -110.852 1302.76
v -21.7404 -107.915 1298.87
v -20.6102 -107.143 1299.08
v -23.3965 -108.857 1294.37
v -20.7963 -106.442 1293.69
v -22.1712 -106.917 1288.44
v -20.1874 -105.669 1289.92
v -22.1784 -123.91 1277.55
v -20.9329 -124.547 1276.14
v -21.2524 -123.736 1275.36
v -20.5909 -125.102 1280.2
v -22.2843 -106.126 1277.56
v -21.776 -106.43 1275.32
v -21.7201 -105.819 1276.15
v -20.7457 -105.103 1278.27
v -23.6139 -120.84 1275.02
v -23.6688 -117.974 1274.9
v -23.4727 -111.693 1274.93
v -23.7935 -109.458 1275.08
v -22.781 -108.659 1274.97
v -23.144 -108.166 1275.12
v -21.2402 -106.458 1275.11
v -18.9104 -126.298 1309.06
v -19.2338 -126.334 1307.18
v -17.7329 -126.282 1309.51
v -17.6645 -126.747 1309.08
v -17.7721 -126.871 1308.52
v -17.272 -126.972 1305.4
v -16.6725 -127.108 1308.53
v -18.9 -124.112 1309.77
v -19.7387 -109.862 1309.81
v -19.1974 -109.354 1309.77
v -19.2662 -108.685 1308.92
v -18.6354 -108.842 1309.57
v -17.8891 -109.402 1309.81
v -17.7313 -108.098 1308.44
v -17.1847 -108.875 1309.75
v -16.2984 -108.397 1309.58
v -19.6391 -107.572 1303.85
v -16.8048 -107.203 1305.33
v -18.6578 -106.383 1299.67
v -16.2214 -105.723 1298.28
v -18.3585 -105.291 1293.3
v -18.7321 -104.928 1288.86
v -17.2194 -104.562 1288.88
v -16.6782 -126.305 1277.9
v -16.7295 -126.116 1275.66
v -19.1319 -125.615 1277.75
v -18.8715 -124.742 1275.24
v -17.7705 -125.811 1275.66
v -19.6969 -105.118 1275.57
v -19.1856 -104.388 1279.02
v -19.2913 -104.406 1276.6
v -18.2985 -104.065 1275.63
v -17.7055 -103.826 1276.07
v -18.0757 -122.838 1274.93
v -17.3575 -125.274 1274.96
v -16.6859 -125.833 1275.14
v -16.544 -124.759 1274.86
v -16.0371 -125.305 1274.87
v -18.8001 -105.878 1274.96
v -17.5135 -104.426 1274.85
v -17.6814 -104.029 1275.16
v -15.7484 -127.012 1309.1
v -15.2648 -127.276 1307.3
v -14.9099 -126.305 1309.63
v -14.7852 -127.202 1308.55
v -14.178 -127.209 1307.35
v -13.2399 -126.793 1309.04
v -12.3194 -126.787 1306.97
v -12.8646 -125.739 1309.69
v -15.7455 -108.069 1308.87
v -15.0444 -109.684 1309.81
v -14.9951 -108.439 1309.54
v -14.227 -108.073 1308.45
v -12.762 -108.63 1308.98
v -14.7483 -107.214 1305.32
v -12.6938 -107.731 1305.8
v -14.1754 -126.813 1298.22
v -13.3047 -105.762 1297.07
v -14.2583 -104.399 1287.72
v -12.1734 -104.84 1287.58
v -15.7148 -126.181 1275.67
v -14.3151 -126.331 1277.38
v -14.1404 -126.038 1275.66
v -12.6418 -125.987 1277.63
v -15.2557 -125.834 1275.13
v -15.7317 -103.608 1276.97
v -15.7169 -103.587 1275.6
v -13.779 -103.681 1276.04
v -12.7033 -103.926 1275.66
v -12.2633 -104.091 1277.68
v -12.2058 -104.132 1275.62
v -13.9653 -125.26 1275.01
v -15.6943 -103.89 1275.04
v -14.2546 -105.653 1274.82
v -13.3885 -104.388 1274.81
v -13.3552 -103.921 1275.14
v -11.7944 -104.851 1275.14
v -12.2608 -104.368 1275.06
v -11.7143 -126.525 1308.53
v -11.2012 -126.351 1306.69
v -10.7387 -125.88 1309.08
v -10.695 -126.056 1308.48
v -11.5983 -125.736 1309.59
v -9.64528 -124.718 1309.5
v -9.08915 -124.704 1309.11
v -9.24568 -125.067 1308.49
v -8.82504 -122.598 1309.78
v -9.76258 -110.376 1309.57
v -9.14539 -110.345 1309.07
v -8.91527 -111.977 1309.81
v -8.73651 -111.42 1309.73
v -8.71964 -110.059 1307.32
v -8.2655 -111.404 1309.57
v -11.6969 -109.904 1309.75
v -11.6943 -109.375 1309.49
v -10.7579 -109.188 1308.47
v -9.76614 -125.549 1306.15
v -8.29502 -124.372 1305.42
v -10.2865 -108.772 1306.09
v -8.87762 -108.567 1300.55
v -11.6424 -106.198 1296.38
v -11.7562 -126.043 1293.93
v -8.17739 -123.676 1293.7
v -10.1427 -125.187 1290.96
v -8.73931 -106.988 1289.14
v -10.1764 -105.84 1288.14
v -10.7074 -125.367 1278.63
v -10.2855 -125.035 1276.67
v -10.4955 -124.686 1275.66
v -9.71824 -124.833 1278.01
v -9.66819 -123.662 1275.2
v -9.15921 -124.187 1276.15
v -8.39109 -123.841 1278.04
v -8.74349 -106.528 1275.6
v -8.74844 -106.067 1276.16
v -8.34961 -106.242 1278.13
v -11.6733 -104.262 1276.59
v -11.6725 -104.464 1275.63
v -10.6671 -105.183 1275.6
v -10.0845 -106.033 1275.21
v -9.91413 -105.183 1278.57
v -9.80946 -105.237 1276.62
v -11.2764 -123.424 1274.9
v -11.6446 -105.428 1275.01
v -7.30459 -123.052 1308.89
v -6.23126 -121.354 1309.74
v -6.11353 -121.402 1308.92
v -6.06571 -118.444 1309.8
v -5.73126 -120.547 1309.6
v -5.31202 -119.773 1308.52
v -5.15321 -118.417 1309.6
v -4.94055 -118.309 1306.44
v -6.23186 -114.92 1309.77
v -5.37296 -114.819 1308.59
v -5.03204 -116.854 1309.6
v -5.11198 -115.333 1307.84
v -7.71422 -111.474 1309.03
v -7.24358 -113.476 1309.8
v -6.82883 -113.246 1309.68
v -6.50609 -112.856 1309.06
v -6.50437 -112.283 1307.38
v -6.18576 -113.944 1309.56
v -5.9956 -113.39 1308.56
v -6.83648 -122.715 1305.2
v -5.47615 -120.372 1306.33
v -4.79743 -116.299 1304.39
v -5.11086 -114.302 1303.18
v -5.5272 -113.835 1306.98
v -5.87468 -112.292 1302.25
v -7.5508 -109.829 1300.8
v -6.69341 -121.89 1292.45
v -4.98246 -117.819 1291.05
v -6.41883 -110.314 1293.82
v -4.97075 -113.789 1291.72
v -5.6018 -119.865 1291.22
v -4.70242 -115.444 1289.49
v -5.57129 -111.52 1290.34
v -7.22803 -122.797 1279.13
v -6.6919 -121.949 1276.26
v -6.84046 -121.639 1275.59
v -6.07522 -121.358 1278.45
v -5.6001 -120.411 1275.68
v -5.25844 -119.61 1275.59
v -5.23015 -119.853 1277.01
v -4.60745 -118.337 1278.51
v -4.41872 -117.401 1276.15
v -4.73999 -117.353 1275.47
v -4.19841 -116.372 1278.29
v -4.10943 -115.764 1275.73
v -4.13207 -114.23 1275.79
v -5.45442 -110.426 1275.65
v -5.14794 -110.464 1278.45
v -5.17405 -110.34 1276.65
v -4.4786 -112.404 1278.36
v -4.6173 -111.918 1276.55
v -4.83962 -113.197 1275.32
v -4.18575 -114.004 1278.3
v -7.71614 -106.843 1276.69
v -7.64356 -107.123 1276.11
v -7.15059 -107.52 1279.32
v -6.41985 -108.29 1276.69
v -6.18352 -109.238 1275.62
v -5.69451 -109.356 1278.06
v -5.79392 -109.313 1276.21
v -7.68837 -120.083 1274.87
v -6.82885 -120.49 1274.99
v -6.13492 -120.365 1275.12
v -5.7548 -119.83 1275.13
v -6.25483 -119.729 1274.85
v -5.68991 -118.355 1275.1
v -6.43816 -116.191 1274.9
v -5.22026 -116.507 1275.01
v -4.80601 -115.823 1274.9
v -4.80274 -114.438 1274.92
v -4.23126 -115.854 1275.05
v -4.1961 -114.354 1275.1
v -6.58257 -113.739 1274.92
v -6.83213 -110.348 1275.02
v -24.2154 -116.359 1309.64
v -20.2128 -124.837 1309.67
v -22.4095 -111.442 1309.57
v -21.2524 -123.736 1275.36
v -16.2984 -108.397 1309.58
v -18.8715 -124.742 1275.24
v -6.23126 -121.354 1309.74
v -5.73126 -120.547 1309.6
v -5.15321 -118.417 1309.6
v -5.03204 -116.854 1309.6
v -5.25844 -119.61 1275.59
v -4.73999 -117.353 1275.47
v -5.45442 -110.426 1275.65
v -4.83962 -113.197 1275.32
v -4.23126 -115.854 1275.05
v -4.1961 -114.354 1275.1
v -4.1961 -114.354 1275.1
f 16 1 14
f 1 7 14
f 4 3 1
f 1 3 6
f 4 1 2
f 1 16 2
f 2 16 5
f 3 4 66
f 3 66 60
f 3 60 67
f 66 4 56
f 5 4 2
f 5 56 4
f 6 7 1
f 3 67 11
f 302 6 3
f 302 8 6
f 6 9 7
f 6 8 9
f 8 10 9
f 67 68 11
f 68 8 302
f 12 8 68
f 12 69 8
f 10 8 13
f 8 69 13
f 69 70 13
f 13 15 10
f 5 16 23
f 7 17 14
f 7 9 17
f 9 18 17
f 10 18 9
f 10 15 18
f 15 19 18
f 19 15 82
f 14 20 16
f 14 17 20
f 16 20 23
f 20 17 32
f 28 22 63
f 21 19 85
f 85 45 21
f 32 33 20
f 17 18 36
f 18 40 36
f 18 19 21
f 18 21 40
f 21 43 40
f 43 21 45
f 31 22 28
f 31 89 22
f 33 24 23
f 24 27 25
f 25 23 24
f 27 24 52
f 23 25 28
f 25 27 26
f 26 27 29
f 48 29 52
f 29 27 52
f 31 25 26
f 26 29 30
f 30 29 49
f 25 31 28
f 97 31 26
f 20 33 23
f 17 35 32
f 32 35 37
f 37 33 32
f 33 37 34
f 37 39 34
f 24 33 50
f 50 33 34
f 51 34 39
f 51 50 34
f 17 36 35
f 35 38 37
f 35 36 38
f 36 41 38
f 37 38 39
f 51 39 53
f 39 38 41
f 53 39 41
f 40 41 36
f 43 44 40
f 44 41 40
f 53 41 42
f 45 46 43
f 43 46 44
f 47 41 44
f 47 44 46
f 41 47 100
f 48 52 98
f 97 30 49
f 49 29 48
f 26 30 97
f 97 49 98
f 49 48 98
f 24 50 52
f 50 51 52
f 52 51 53
f 52 53 54
f 98 52 99
f 52 54 99
f 53 42 54
f 54 42 99
f 42 41 100
f 99 42 100
f 63 105 65
f 55 58 56
f 23 55 5
f 57 55 23
f 59 60 56
f 56 60 66
f 59 56 58
f 58 55 57
f 57 61 58
f 28 61 57
f 58 62 59
f 61 63 62
f 58 61 62
f 61 28 63
f 59 64 60
f 60 64 111
f 303 59 62
f 62 63 65
f 56 5 55
f 60 111 67
f 67 73 68
f 111 73 67
f 15 13 70
f 68 73 12
f 12 73 71
f 69 12 304
f 304 72 69
f 69 72 70
f 70 72 80
f 72 304 75
f 75 71 73
f 73 76 75
f 80 72 74
f 73 112 76
f 74 81 80
f 74 72 75
f 77 78 75
f 75 78 74
f 74 78 79
f 81 74 79
f 77 75 76
f 77 76 112
f 77 114 78
f 79 78 114
f 81 79 120
f 57 23 28
f 70 82 15
f 82 70 80
f 85 80 83
f 82 80 85
f 84 83 81
f 81 83 80
f 81 120 84
f 19 82 85
f 83 84 86
f 85 83 86
f 86 84 124
f 85 86 87
f 86 88 87
f 125 133 88
f 45 85 87
f 133 96 88
f 96 87 88
f 22 89 63
f 89 31 91
f 305 31 97
f 63 89 92
f 90 92 89
f 91 90 89
f 92 90 129
f 47 46 95
f 102 94 103
f 102 47 94
f 87 93 45
f 45 93 46
f 46 93 95
f 47 95 94
f 94 132 103
f 87 96 93
f 93 96 95
f 134 95 96
f 94 95 132
f 132 95 134
f 96 133 134
f 305 97 137
f 137 97 98
f 98 99 137
f 137 99 177
f 99 101 177
f 99 100 101
f 100 47 102
f 101 100 102
f 102 103 101
f 177 101 142
f 103 142 101
f 103 132 142
f 104 62 65
f 104 65 105
f 108 107 104
f 108 104 105
f 108 105 109
f 303 104 106
f 104 107 106
f 106 107 145
f 145 107 110
f 110 107 108
f 110 108 109
f 146 110 109
f 146 109 160
f 104 303 62
f 106 111 64
f 147 111 106
f 116 112 73
f 112 113 77
f 77 113 115
f 114 77 115
f 114 120 79
f 114 117 120
f 116 113 112
f 116 115 113
f 114 115 117
f 116 118 115
f 116 154 118
f 115 118 119
f 117 115 306
f 119 118 154
f 117 306 153
f 153 121 117
f 154 155 119
f 306 155 153
f 121 122 120
f 120 117 121
f 122 121 123
f 84 120 122
f 158 123 121
f 105 63 92
f 92 109 105
f 84 122 124
f 86 124 88
f 123 124 122
f 88 124 125
f 126 133 125
f 123 126 124
f 126 125 124
f 129 127 109
f 127 129 131
f 127 160 109
f 128 127 131
f 128 131 139
f 164 127 128
f 164 128 139
f 109 92 129
f 130 90 91
f 138 90 130
f 131 90 138
f 131 129 90
f 138 139 131
f 136 134 133
f 135 134 136
f 126 136 133
f 135 132 134
f 126 169 136
f 136 144 135
f 144 132 135
f 170 144 136
f 169 170 136
f 176 144 170
f 137 307 305
f 138 307 137
f 141 139 138
f 141 138 140
f 138 137 140
f 141 140 226
f 140 137 226
f 177 142 143
f 142 132 143
f 144 143 132
f 176 143 144
f 106 145 147
f 148 145 110
f 148 110 146
f 145 150 147
f 150 145 148
f 149 148 146
f 150 152 147
f 150 148 149
f 150 149 151
f 150 184 186
f 152 150 186
f 150 151 182
f 182 184 150
f 182 151 183
f 152 111 147
f 152 190 111
f 152 186 190
f 190 154 111
f 154 73 111
f 73 154 116
f 193 197 154
f 155 156 153
f 158 121 153
f 156 155 157
f 156 158 153
f 157 159 156
f 197 155 154
f 197 198 155
f 198 157 155
f 157 199 159
f 149 146 160
f 151 149 160
f 156 159 158
f 151 160 205
f 183 151 205
f 123 158 161
f 159 161 158
f 159 202 204
f 159 204 161
f 204 163 161
f 123 162 126
f 161 162 123
f 162 161 163
f 205 160 167
f 162 169 126
f 163 224 173
f 163 173 162
f 160 127 165
f 165 127 164
f 168 164 139
f 166 165 164
f 166 164 168
f 175 166 168
f 165 167 160
f 167 165 166
f 212 167 166
f 141 175 168
f 166 175 212
f 171 170 169
f 162 171 169
f 173 171 162
f 172 171 173
f 172 179 171
f 220 172 173
f 220 174 172
f 221 181 174
f 221 174 220
f 180 181 221
f 174 181 172
f 168 139 141
f 175 141 226
f 226 137 288
f 301 177 227
f 177 143 178
f 178 143 176
f 178 176 179
f 179 176 170
f 171 179 170
f 227 177 178
f 227 178 181
f 181 178 179
f 172 181 179
f 181 180 227
f 182 185 184
f 185 182 183
f 189 188 184
f 185 189 184
f 186 184 187
f 187 190 186
f 190 231 154
f 188 187 184
f 189 185 200
f 185 183 200
f 200 201 189
f 187 229 190
f 187 188 308
f 188 189 228
f 201 228 189
f 154 231 193
f 194 197 193
f 194 191 197
f 191 198 197
f 196 191 194
f 192 191 196
f 198 191 192
f 198 192 199
f 241 193 231
f 199 192 195
f 241 194 193
f 196 240 192
f 240 195 192
f 157 198 199
f 159 199 202
f 199 195 202
f 200 183 207
f 200 207 201
f 202 195 203
f 206 247 201
f 202 203 204
f 207 183 205
f 203 253 208
f 253 283 208
f 206 201 207
f 203 209 204
f 203 208 209
f 209 224 163
f 204 209 163
f 205 210 207
f 254 206 261
f 167 210 205
f 224 209 219
f 219 209 208
f 212 175 214
f 175 226 214
f 213 210 211
f 167 211 210
f 211 167 212
f 212 214 215
f 213 207 210
f 207 213 216
f 215 213 211
f 212 215 211
f 213 215 216
f 263 215 214
f 216 206 207
f 215 262 216
f 262 215 263
f 261 206 216
f 217 222 218
f 222 217 223
f 219 225 224
f 219 218 225
f 282 217 218
f 219 281 218
f 281 282 218
f 217 285 301
f 173 224 220
f 225 222 221
f 225 221 220
f 180 222 227
f 222 180 221
f 225 220 224
f 218 222 225
f 214 226 288
f 137 177 301
f 301 227 223
f 217 301 223
f 223 227 222
f 188 228 308
f 228 201 247
f 308 228 230
f 230 228 247
f 229 231 190
f 231 229 232
f 230 309 308
f 247 248 230
f 230 248 309
f 234 231 232
f 310 309 233
f 248 233 309
f 310 233 235
f 231 236 241
f 238 236 231
f 245 236 238
f 237 245 311
f 246 245 237
f 238 231 234
f 311 310 235
f 311 239 237
f 311 235 249
f 311 249 239
f 239 249 250
f 237 239 251
f 251 239 250
f 196 194 242
f 242 194 241
f 244 253 195
f 240 244 195
f 253 203 195
f 236 242 241
f 242 240 196
f 245 242 236
f 245 243 242
f 242 243 240
f 240 243 244
f 245 246 243
f 243 246 244
f 251 244 246
f 244 251 252
f 237 251 246
f 235 233 248
f 258 248 247
f 254 258 247
f 248 258 235
f 249 259 250
f 249 235 259
f 244 252 253
f 252 251 250
f 206 254 247
f 235 258 255
f 235 255 259
f 252 256 253
f 256 252 260
f 252 250 260
f 256 283 253
f 259 257 250
f 250 257 260
f 254 267 258
f 258 267 268
f 258 268 255
f 257 259 280
f 271 280 259
f 260 257 277
f 277 257 280
f 264 254 261
f 259 255 271
f 255 268 271
f 219 208 283
f 216 262 261
f 263 214 289
f 289 290 263
f 254 264 267
f 262 264 261
f 264 262 265
f 263 265 262
f 265 263 290
f 265 291 266
f 290 291 265
f 265 267 264
f 267 265 312
f 266 293 295
f 267 269 268
f 267 312 269
f 266 295 270
f 270 295 298
f 268 269 271
f 313 269 312
f 316 269 313
f 271 272 280
f 280 272 273
f 271 269 272
f 269 316 272
f 273 272 299
f 279 278 317
f 299 278 273
f 274 287 276
f 287 274 285
f 285 314 301
f 256 260 275
f 278 276 275
f 278 274 276
f 300 301 315
f 275 260 277
f 275 277 278
f 280 273 277
f 277 273 278
f 274 278 279
f 301 314 315
f 219 283 281
f 282 281 284
f 282 285 217
f 284 281 283
f 284 287 282
f 287 285 282
f 283 286 284
f 284 286 287
f 256 275 286
f 283 256 286
f 275 276 286
f 286 276 287
f 289 214 288
f 292 290 289
f 289 288 292
f 292 288 294
f 288 137 294
f 291 290 292
f 291 292 293
f 292 294 293
f 266 291 293
f 294 295 293
f 294 137 300
f 296 298 295
f 296 295 294
f 296 294 297
f 294 300 297
f 296 297 298
f 299 272 316
f 297 318 298
f 318 297 315
f 300 137 301
f 300 315 297
