o FMA50872_BP8968_FJ3019
v -56.2192 -67.7553 1225.03
v -56.786 -63.9306 1228.62
v -58.7111 -68.6334 1228.27
v -58.9455 -67.4571 1229.67
v -58.4677 -67.2044 1227.47
v -58.3352 -66.0156 1228.02
v -57.5351 -66.6118 1226.29
v -57.7394 -67.9018 1226.28
v -57.6062 -64.8468 1228.03
v -56.7583 -64.7773 1226.88
v -57.3896 -65.4367 1226.86
v -56.7513 -65.9919 1225.86
v -57.6791 -70.1176 1226.86
v -57.9165 -71.1703 1228.6
v -56.7229 -71.4653 1226.99
v -56.1916 -70.0953 1225.5
v -56.8243 -63.8095 1229.87
v -56.7654 -64.0527 1231.23
v -58.3108 -65.37 1229.77
v -58.5205 -66.3436 1231.54
v -57.732 -65.0108 1231.42
v -56.1152 -75.5057 1232.61
v -56.6474 -67.1217 1237.2
v -58.4526 -72.3461 1238.67
v -58.184 -74.6597 1237.7
v -56.9177 -76.7414 1236.41
v -57.3379 -69.5081 1239.7
v -56.4378 -79.3153 1241.9
v -56.698 -72.8627 1244.81
v -57.2089 -76.8979 1244.31
v -54.987 -66.5739 1224.73
v -53.8581 -68.4026 1224.4
v -53.7825 -65.408 1225.04
v -52.7138 -66.6141 1224.64
v -51.4712 -67.7941 1224.87
v -52.1173 -69.6637 1224.91
v -55.5823 -63.1981 1229.21
v -54.4865 -63.3979 1227.49
v -53.2693 -64.0551 1226.26
v -53.3145 -62.9648 1229.32
v -52.0661 -63.4692 1228.06
v -55.5142 -64.8329 1225.89
v -51.4946 -65.4338 1225.77
v -55.5545 -71.3868 1225.95
v -55.036 -72.6495 1227.19
v -54.4021 -70.6261 1225.09
v -53.7286 -72.1032 1226.27
v -51.4439 -71.4695 1226.37
v -55.5502 -63.2522 1230.46
v -55.509 -63.9404 1232.37
v -53.2017 -63.7174 1232.41
v -51.3441 -64.0313 1231.53
v -53.0572 -77.1757 1232.71
v -51.3256 -75.5017 1231.04
v -53.9182 -81.7764 1240.64
v -54.9696 -71.4698 1246.09
v -52.6005 -70.7251 1247
v -53.7845 -83.7074 1248.45
v -52.5074 -84.9179 1245.37
v -54.9746 -78.0553 1250.76
v -53.5196 -76.2022 1252.5
v -51.1923 -74.5567 1253.58
v -54.8832 -80.6285 1250.25
v -52.703 -82.7584 1254.47
v -52.0199 -80.8659 1256.2
v -52.3599 -84.5247 1253.66
v -50.8162 -87.0865 1253.9
v -49.7832 -67.2551 1226.4
v -49.7135 -65.0736 1229.37
v -48.528 -67.9549 1229.68
v -50.3076 -69.5653 1225.99
v -50.1635 -71.05 1227.17
v -49.2133 -69.7254 1227.82
v -49.3623 -74.6582 1232.58
v -47.6205 -71.6633 1235.94
v -48.4862 -78.2709 1236.16
v -49.4796 -80.9152 1237.25
v -47.6001 -69.9875 1239.21
v -47.8887 -86.6582 1243.85
v -50.0854 -69.5083 1244.49
v -50.7476 -85.7723 1244.19
v -46.4726 -72.3748 1250.45
v -50.6125 -87.6075 1250.16
v -49.7663 -86.9376 1257.58
v -48.8447 -80.0082 1259.87
v -49.5077 -84.6403 1259.52
v -46.7468 -90.2051 1259.77
v -44.6714 -73.4519 1246.24
v -43.9648 -76.3079 1244.27
v -42.6053 -85.2081 1246.05
v -43.0517 -89.6072 1247.92
v -44.4915 -92.0947 1251.27
v -45.4898 -74.7488 1256.95
v -40.8283 -75.5028 1256.53
v -46.014 -91.9881 1255.69
v -41.8182 -94.7569 1256.87
v -45.1448 -78.6617 1261.86
v -41.88 -87.4251 1268.3
v -41.0545 -82.2552 1247.89
v -36.8447 -93.6076 1253.62
v -37.0821 -79.1158 1256.28
v -39.1564 -95.1247 1255.1
v -40.0088 -78.0409 1262.93
v -39.1397 -77.2993 1261.32
v -40.8202 -94.9497 1263.59
v -36.9173 -82.2988 1268.25
v -40.584 -84.4652 1268.21
v -36.9209 -88.142 1271.98
v -41.3904 -90.9863 1268.25
v -38.8247 -94.741 1268.56
v -35.577 -85.8554 1253.37
v -36.1606 -90.7486 1252.82
v -33.3014 -95.3133 1255.99
v -32.7352 -93.5465 1255.22
v -31.2302 -97.2914 1258.3
v -34.5495 -98.5129 1267.47
v -32.5642 -82.5011 1268.39
v -35.9019 -94.6882 1272.32
v -33.3504 -97.529 1272.27
v -32.5141 -86.8792 1273.43
v -35.3436 -91.7236 1273.43
v -32.0482 -88.9895 1274.57
v -32.2507 -95.9642 1274.33
v -29.45 -87.4624 1257.29
v -31.47 -91.0366 1255.36
v -29.2782 -95.4754 1257.02
v -28.1054 -86.4583 1260.09
v -28.4623 -84.5488 1264.98
v -29.8324 -100.452 1264.7
v -30.3319 -83.1848 1268.11
v -28.0424 -101.536 1268.75
v -28.4973 -88.2098 1275.54
v -27.8418 -86.2025 1274
v -30.1275 -93.5941 1275.88
v -29.1985 -98.546 1274.51
v -24.1309 -90.5372 1257.84
v -26.339 -93.6574 1257.1
v -25.9676 -88.316 1258.83
v -25.4213 -87.1805 1261.87
v -25.3556 -100.7 1263.05
v -22.3348 -86.9637 1265.89
v -26.1666 -101.774 1266.98
v -24.3355 -86.4976 1268.16
v -26.8511 -101.518 1271.85
v -22.996 -102.691 1270.47
v -24.123 -87.3636 1275.13
v -23.6225 -88.7462 1276.95
v -23.6494 -90.687 1278.01
v -21.3817 -87.4945 1261.74
v -20.2606 -88.7074 1259.78
v -17.4254 -86.3187 1266.66
v -20.2569 -87.2916 1270.63
v -22.1628 -87.245 1273.22
v -21.482 -88.0365 1276.01
v -21.1102 -102.007 1275.67
v -18.2201 -103.159 1274.23
v -18.1247 -98.921 1279.93
v -15.4989 -86.4731 1262.88
v -16.6905 -90.6724 1259.31
v -14.9418 -88.8068 1260.67
v -16.9958 -93.5558 1258.9
v -17.3659 -86.3259 1264.17
v -13.128 -84.9559 1266.99
v -17.2588 -86.7936 1270.26
v -14.8671 -87.7371 1275.28
v -17.6006 -88.6529 1277.7
v -16.3186 -90.4912 1280.34
v -13.6413 -92.4136 1281.97
v -13.6699 -89.1496 1278.74
v -13.1153 -90.3183 1280.79
v -15.019 -95.4337 1281.89
v -11.5282 -91.2409 1260.83
v -9.99272 -99.3671 1261.93
v -12.1085 -86.3464 1263.52
v -11.4324 -85.2348 1265.4
v -10.4272 -101.533 1263.49
v -10.3142 -103.235 1266.7
v -12.0008 -85.1346 1271.44
v -9.511 -85.9996 1276.43
v -8.77932 -84.7045 1274.14
v -6.81736 -94.9293 1262.07
v -7.71128 -88.3555 1263.68
v -3.52038 -86.6693 1267.24
v -7.76332 -84.1115 1270.7
v -5.65734 -84.4734 1269.46
v -5.17137 -84.8505 1276.54
v -4.3049 -105.744 1276.81
v -6.49765 -87.4249 1280.58
v -6.66866 -104.379 1280
v -5.30306 -89.1641 1282.64
v -3.13629 -96.9247 1286.13
v -5.40216 -103.375 1282.88
v -0.139043 -102.076 1265.83
v 0.961681 -85.484 1272.05
v -2.42668 -84.3471 1273.04
v 1.40757 -85.2504 1276.83
v -0.643823 -86.8471 1280.93
v -2.25366 -105.582 1281.87
v 1.07809 -90.6404 1284.8
v -0.167515 -94.7358 1286.5
v -2.46828 -101.397 1285.76
v 2.18346 -92.8902 1266.41
v 5.46797 -103.725 1267.51
v 1.62459 -105.927 1269.23
v 6.63793 -100.905 1267.19
v 10.749 -88.0582 1277.18
v 10.3493 -88.7565 1274.55
v 9.89349 -112.01 1273.13
v 7.18523 -111.014 1279.38
v 10.9834 -113.408 1281.95
v 9.39031 -90.7065 1285.1
v 9.42651 -93.474 1287.26
v 6.69689 -109.555 1284.49
v 10.7783 -112.163 1285.75
v 9.1953 -101.01 1290.05
v 10.1016 -98.4675 1289.67
v 8.52529 -108.305 1287.93
v 13.6993 -111.819 1270.04
v 15.3694 -109.583 1269.41
v 15.2514 -115.494 1271.38
v 13.3149 -92.3315 1272.9
v 12.7155 -115.036 1274.73
v 13.219 -89.1177 1280.76
v 15.9904 -90.7158 1277.66
v 13.5227 -117.437 1280.74
v 12.8115 -89.8863 1283.11
v 13.3119 -116.256 1284.37
v 11.0784 -105.732 1290.55
v 12.236 -110.055 1289.76
v 14.239 -114.953 1288.46
v 17.0661 -99.4401 1271.49
v 16.9981 -107.455 1269.79
v 17.3127 -114.4 1270.02
v 20.7382 -113.725 1270.05
v 19.721 -94.8464 1276.51
v 18.4183 -123.926 1273.7
v 16.3837 -90.5146 1279.77
v 20.9452 -93.747 1280.48
v 17.5244 -125.828 1278.38
v 18.0092 -126.576 1282.41
v 20.145 -129.459 1280.79
v 17.6811 -93.5196 1286.34
v 18.1154 -125.248 1285.29
v 17.4768 -115.097 1291.62
v 17.7941 -120.535 1289.2
v 20.1577 -124.737 1288.48
v 18.1842 -104.385 1292.44
v 19.6675 -111.739 1293.22
v 24.1192 -113.822 1271.01
v 21.5855 -123.719 1270.95
v 22.4153 -126.704 1272.28
v 25.2624 -126.443 1271.34
v 21.0956 -129.38 1276.58
v 22.4244 -130.544 1277.4
v 23.5744 -130.045 1275.43
v 24.8494 -130.993 1277.27
v 25.4981 -129.092 1273.8
v 23.6522 -131.2 1280.74
v 21.131 -94.3611 1285.44
v 21.1334 -128.359 1285.49
v 22.5103 -130.324 1283.23
v 24.2987 -129.539 1285.68
v 21.1339 -100.666 1291.39
v 21.6105 -98.5343 1290.1
v 25.1891 -99.4703 1290.01
v 25.2305 -101.396 1291.51
v 21.0474 -121.072 1291.42
v 24.0967 -123.525 1291.2
v 23.5113 -127.6 1287.88
v 24.756 -104.423 1292.91
v 24.1664 -109.627 1293.95
v 24.2951 -113.561 1294.01
v 22.8062 -118.528 1292.99
v 25.591 -118.896 1293.19
v 28.6446 -118.595 1270.92
v 29.5807 -121.183 1270.87
v 25.8353 -122.65 1269.98
v 30.0373 -123.584 1271.47
v 28.3854 -127.073 1272.51
v 27.9625 -107.154 1276
v 28.2238 -130.435 1277.21
v 29.5357 -129.308 1275.97
v 27.7257 -131.049 1280.23
v 30.1493 -130.104 1280.87
v 30.15 -129.907 1278.46
v 26.4696 -130.77 1283.26
v 28.9905 -130.059 1283.65
v 28.9096 -128.464 1286.63
v 29.4039 -103.716 1291.54
v 26.6222 -124.106 1291.09
v 29.0427 -126.363 1288.96
v 29.0493 -122.347 1291.55
v 26.4842 -127.285 1288.63
v 29.3668 -107.582 1292.93
v 28.2374 -111.656 1293.71
v 28.3296 -115.192 1293.54
v 31.3809 -118.858 1272.29
v 31.8322 -121.828 1272.49
v 31.3865 -124.787 1273.01
v 31.2096 -115.499 1273.43
v 33.306 -117.569 1274.35
v 33.5969 -120.095 1274.3
v 35.1882 -119.178 1276.67
v 33.4629 -123.46 1274.79
v 33.4124 -125.348 1276.02
v 35.1207 -122.294 1277.25
v 31.3175 -127.137 1274.81
v 32.4992 -127.741 1277.71
v 32.6199 -109.298 1278.15
v 34.8288 -113.713 1277.79
v 34.1203 -126.519 1281.3
v 34.4664 -125.28 1278.47
v 31.9415 -128.845 1279.76
v 30.16 -101.047 1286.54
v 31.7356 -103.595 1283.47
v 34.6202 -107.037 1283.66
v 34.2957 -105.823 1286.24
v 32.9927 -125.524 1286.82
v 34.8183 -124.706 1284.34
v 35.011 -122.904 1286.31
v 31.9305 -128.482 1283.26
v 30.3868 -101.928 1289.08
v 32.4115 -103.254 1287.35
v 32.0047 -107.465 1291.49
v 32.9947 -105.015 1289.19
v 35.0802 -108.738 1288.15
v 31.7795 -113.744 1292.23
v 33.7586 -112.679 1290.81
v 33.6835 -115.946 1290.71
v 32.5287 -121.046 1290.33
v 35.0094 -118.965 1288.57
v 31.8748 -124.099 1289.22
v 33.4815 -122.906 1288.57
v 30.6641 -118.133 1292.27
v 35.8615 -111.66 1280.96
v 36.1464 -121.982 1280.88
v 36.6024 -117.594 1280.27
v 36.2021 -110.387 1285.56
v 36.938 -114.182 1283.87
v 36.286 -120.361 1284.97
v 35.6348 -115.055 1288.44
f 19 2 9
f 17 2 19
f 10 9 2
f 2 38 10
f 17 49 37
f 2 17 37
f 42 10 38
f 38 2 37
f 19 4 20
f 14 25 3
f 8 3 5
f 8 13 3
f 5 4 6
f 3 4 5
f 19 9 6
f 19 6 4
f 13 14 3
f 7 1 8
f 1 16 8
f 11 12 7
f 7 8 5
f 11 6 9
f 7 6 11
f 5 6 7
f 7 12 1
f 10 12 11
f 9 10 11
f 12 42 31
f 31 1 12
f 42 12 10
f 14 26 25
f 13 8 16
f 13 15 14
f 16 15 13
f 16 44 15
f 21 18 17
f 17 19 21
f 18 49 17
f 18 50 49
f 18 23 50
f 3 25 4
f 20 4 24
f 20 21 19
f 24 27 20
f 20 27 21
f 21 27 23
f 21 23 18
f 14 15 22
f 14 22 26
f 56 23 27
f 4 25 24
f 55 26 22
f 27 29 56
f 29 27 24
f 30 29 24
f 60 29 30
f 30 24 25
f 25 28 30
f 28 58 30
f 55 28 26
f 25 26 28
f 60 61 29
f 30 58 63
f 30 63 60
f 16 1 32
f 1 31 32
f 43 34 33
f 33 34 31
f 31 34 32
f 34 35 32
f 35 36 32
f 35 34 43
f 32 46 16
f 46 32 36
f 39 42 38
f 31 42 33
f 33 42 39
f 33 39 43
f 37 40 38
f 41 39 38
f 40 41 38
f 41 43 39
f 41 40 52
f 52 40 51
f 41 69 43
f 36 71 48
f 45 15 44
f 46 44 16
f 47 45 44
f 53 45 47
f 47 44 46
f 36 47 46
f 36 48 47
f 47 48 54
f 53 47 54
f 57 50 23
f 51 49 50
f 51 50 57
f 40 37 49
f 49 51 40
f 80 52 51
f 52 80 78
f 22 15 45
f 53 54 77
f 80 51 57
f 22 45 53
f 55 22 53
f 56 57 23
f 55 53 81
f 93 80 57
f 56 29 61
f 56 61 62
f 57 56 62
f 58 66 63
f 58 28 59
f 59 28 55
f 81 59 55
f 63 66 64
f 63 64 60
f 64 65 60
f 67 66 58
f 59 83 58
f 58 83 67
f 61 60 65
f 62 61 85
f 85 61 65
f 64 86 65
f 67 84 66
f 66 84 64
f 64 84 86
f 52 69 41
f 43 69 68
f 35 71 36
f 35 43 68
f 35 68 71
f 68 69 70
f 73 71 68
f 68 70 73
f 70 69 78
f 71 72 48
f 72 54 48
f 74 54 72
f 72 71 73
f 74 72 73
f 75 74 73
f 70 75 73
f 78 69 52
f 70 78 75
f 76 77 54
f 76 54 74
f 75 76 74
f 90 76 99
f 77 76 91
f 88 75 78
f 82 88 78
f 99 76 89
f 81 53 79
f 53 77 79
f 80 93 82
f 80 82 78
f 81 83 59
f 92 81 79
f 77 91 79
f 83 81 92
f 62 93 57
f 67 87 84
f 95 87 67
f 95 67 83
f 62 85 97
f 93 62 97
f 65 86 85
f 98 85 86
f 84 109 86
f 95 105 87
f 75 88 89
f 89 76 75
f 90 91 76
f 94 88 82
f 88 94 101
f 89 88 101
f 89 101 99
f 111 99 101
f 91 92 79
f 94 82 93
f 83 92 95
f 92 96 95
f 95 96 105
f 105 96 116
f 103 93 97
f 97 85 107
f 107 85 98
f 87 109 84
f 86 109 98
f 87 105 110
f 116 110 105
f 90 99 112
f 111 112 99
f 111 101 124
f 90 112 91
f 92 91 102
f 96 129 116
f 96 92 102
f 129 96 102
f 100 102 91
f 104 93 103
f 93 104 94
f 130 94 104
f 97 107 106
f 103 97 106
f 98 108 107
f 87 110 109
f 109 121 98
f 98 121 108
f 110 118 109
f 118 121 109
f 125 112 111
f 112 100 91
f 114 100 112
f 124 125 111
f 125 114 112
f 100 115 102
f 115 129 102
f 115 100 113
f 100 114 113
f 114 126 113
f 101 94 128
f 117 104 103
f 117 130 104
f 128 94 130
f 117 103 106
f 120 106 107
f 120 107 108
f 110 116 119
f 118 110 119
f 118 119 123
f 116 144 119
f 108 122 120
f 108 121 122
f 134 122 121
f 121 118 123
f 134 121 123
f 101 127 124
f 124 127 138
f 114 125 137
f 124 136 125
f 125 136 137
f 126 115 113
f 137 126 114
f 128 127 101
f 127 143 139
f 140 129 115
f 127 128 143
f 153 143 128
f 129 142 131
f 142 129 140
f 117 153 130
f 117 106 133
f 128 130 153
f 116 129 131
f 131 144 116
f 106 120 133
f 120 122 132
f 132 133 120
f 132 147 133
f 117 133 146
f 148 147 132
f 148 132 122
f 122 134 148
f 119 135 123
f 119 144 135
f 124 138 136
f 138 150 136
f 115 126 173
f 173 126 137
f 161 173 137
f 139 138 127
f 149 138 139
f 138 149 150
f 115 173 176
f 115 176 140
f 141 139 143
f 177 142 140
f 145 131 142
f 144 131 145
f 145 142 177
f 146 153 117
f 133 147 146
f 154 146 147
f 153 146 154
f 144 155 135
f 155 157 135
f 135 157 123
f 156 155 144
f 159 161 136
f 137 136 161
f 150 149 158
f 160 136 150
f 136 160 159
f 149 139 141
f 162 149 141
f 162 141 151
f 152 141 143
f 152 143 166
f 164 141 152
f 152 166 164
f 151 141 164
f 177 156 145
f 153 166 143
f 153 154 166
f 145 156 144
f 192 157 155
f 155 156 192
f 147 148 167
f 166 154 147
f 166 147 167
f 167 148 168
f 148 134 171
f 134 123 157
f 158 149 162
f 160 150 158
f 174 160 158
f 174 158 175
f 174 182 160
f 160 172 159
f 159 172 161
f 172 181 161
f 161 181 173
f 175 158 163
f 163 158 162
f 163 162 151
f 163 151 178
f 164 165 178
f 178 151 164
f 165 164 166
f 166 169 165
f 165 169 178
f 169 166 167
f 167 170 169
f 170 167 168
f 171 134 157
f 171 168 148
f 160 182 172
f 182 202 172
f 205 173 181
f 176 173 204
f 174 183 182
f 175 185 183
f 183 174 175
f 176 177 140
f 175 163 184
f 184 163 178
f 184 178 180
f 185 175 184
f 178 169 179
f 179 180 178
f 189 192 156
f 187 189 156
f 179 169 170
f 157 192 201
f 168 191 200
f 191 168 171
f 201 171 157
f 191 171 201
f 202 181 172
f 205 193 173
f 185 194 183
f 177 176 204
f 185 184 195
f 195 194 185
f 156 177 204
f 180 186 184
f 186 195 184
f 170 188 179
f 180 179 186
f 190 188 170
f 179 188 186
f 186 188 197
f 190 197 188
f 198 192 189
f 198 189 187
f 190 170 168
f 190 168 200
f 199 190 200
f 202 182 183
f 193 204 173
f 195 196 194
f 156 204 187
f 187 204 208
f 195 186 196
f 196 186 197
f 226 196 197
f 223 196 226
f 213 198 187
f 199 197 190
f 200 191 215
f 181 202 205
f 232 205 202
f 205 203 193
f 203 204 193
f 213 187 209
f 192 198 213
f 217 192 213
f 192 217 201
f 191 201 228
f 228 201 217
f 219 205 232
f 205 219 203
f 194 207 183
f 204 203 218
f 204 218 208
f 206 207 194
f 196 206 194
f 206 196 223
f 208 209 187
f 209 208 222
f 210 209 222
f 213 209 210
f 214 213 210
f 199 200 212
f 211 197 199
f 199 212 211
f 226 197 211
f 227 214 210
f 200 216 212
f 263 212 216
f 200 215 216
f 228 217 229
f 217 213 214
f 217 214 229
f 202 183 221
f 202 231 232
f 202 221 231
f 231 221 235
f 218 203 219
f 218 220 208
f 219 233 218
f 220 222 208
f 207 221 183
f 224 221 207
f 206 224 207
f 237 224 206
f 237 206 223
f 225 227 210
f 225 210 222
f 211 242 226
f 214 227 230
f 212 264 211
f 216 215 247
f 216 247 263
f 191 228 215
f 230 229 214
f 229 230 244
f 228 229 244
f 243 230 227
f 235 280 231
f 219 232 234
f 220 218 233
f 219 234 233
f 250 220 233
f 250 236 220
f 224 235 221
f 222 239 225
f 220 236 222
f 222 236 239
f 236 253 239
f 259 223 226
f 259 237 223
f 237 238 224
f 238 235 224
f 238 237 259
f 240 227 225
f 225 239 240
f 239 253 241
f 240 239 241
f 240 241 260
f 242 259 226
f 243 227 240
f 240 260 243
f 243 260 246
f 211 264 242
f 212 263 264
f 230 245 244
f 243 245 230
f 245 267 244
f 243 246 245
f 245 246 267
f 247 215 248
f 215 228 248
f 228 244 248
f 244 273 248
f 231 249 232
f 232 249 234
f 234 277 233
f 277 250 233
f 251 253 236
f 251 236 250
f 252 251 250
f 250 277 252
f 315 280 235
f 231 280 249
f 254 253 255
f 255 253 251
f 255 256 254
f 257 255 251
f 255 257 256
f 281 283 256
f 315 235 238
f 253 254 241
f 241 254 258
f 261 260 241
f 254 256 258
f 258 261 241
f 286 258 283
f 286 261 258
f 283 258 256
f 242 265 259
f 314 315 238
f 259 314 238
f 260 269 246
f 260 261 262
f 260 262 269
f 286 262 261
f 242 264 265
f 263 266 264
f 264 266 265
f 270 266 263
f 273 244 267
f 267 268 273
f 267 246 268
f 246 269 268
f 268 290 274
f 263 247 270
f 270 247 271
f 271 247 248
f 248 272 271
f 271 272 295
f 274 272 273
f 272 248 273
f 272 274 296
f 274 273 268
f 280 300 249
f 249 300 275
f 297 275 300
f 249 275 234
f 234 275 277
f 275 276 277
f 277 279 252
f 278 279 277
f 278 277 276
f 298 278 276
f 279 278 299
f 307 279 299
f 315 309 280
f 280 309 300
f 251 252 257
f 256 257 281
f 279 257 252
f 282 257 279
f 257 282 281
f 282 279 307
f 282 285 281
f 282 307 308
f 282 308 285
f 283 281 285
f 284 283 285
f 321 284 313
f 284 287 283
f 285 313 284
f 286 288 262
f 288 293 262
f 287 288 286
f 286 283 287
f 266 289 265
f 322 259 265
f 259 322 314
f 265 289 322
f 270 294 289
f 290 268 293
f 293 268 269
f 292 274 290
f 293 291 290
f 291 292 290
f 291 332 292
f 318 291 288
f 318 332 291
f 293 269 262
f 288 291 293
f 289 266 270
f 324 294 327
f 324 289 294
f 295 272 296
f 271 295 294
f 271 294 270
f 294 295 327
f 295 296 327
f 327 296 334
f 296 274 334
f 334 274 292
f 276 275 297
f 297 298 276
f 298 299 278
f 309 310 300
f 300 310 301
f 297 300 301
f 302 297 301
f 298 297 302
f 302 301 303
f 303 306 302
f 299 305 307
f 299 304 305
f 306 305 304
f 307 305 308
f 298 304 299
f 298 302 304
f 302 306 304
f 309 315 316
f 310 309 335
f 311 321 313
f 321 311 319
f 312 308 305
f 312 311 308
f 308 311 313
f 312 305 306
f 336 311 312
f 311 336 319
f 313 285 308
f 314 323 315
f 323 317 315
f 316 315 317
f 319 318 321
f 320 318 319
f 333 318 320
f 321 287 284
f 321 288 287
f 321 318 288
f 314 322 323
f 322 325 323
f 322 289 325
f 289 324 325
f 323 325 317
f 325 324 326
f 317 325 326
f 328 324 327
f 324 328 326
f 327 334 329
f 328 327 329
f 341 328 329
f 341 329 331
f 334 292 330
f 334 330 329
f 329 330 331
f 331 333 320
f 330 333 331
f 332 330 292
f 318 333 332
f 332 333 330
f 309 316 335
f 310 337 303
f 335 338 339
f 337 310 335
f 310 303 301
f 336 306 337
f 306 336 312
f 337 306 303
f 336 337 340
f 337 335 339
f 339 340 337
f 335 316 338
f 317 338 316
f 317 326 338
f 338 326 341
f 341 331 340
f 338 341 339
f 339 341 340
f 320 340 331
f 336 340 319
f 320 319 340
f 326 328 341
