o FMA74912_BP8970_FJ2631
v 33.4348 -123.565 1255.38
v 33.4658 -123.565 1256.18
v 33.2928 -123.365 1254.98
v 33.4785 -123 1254.38
v 33.5489 -122.565 1254.18
v 33.3989 -123.365 1255.98
v 33.4785 -123.365 1256.61
v 33.552 -123.165 1256.78
v 33.8727 -123.568 1256.5
v 33.9137 -122.451 1253.92
v 33.7551 -121.965 1253.98
v 34.0172 -123.011 1254.12
v 33.761 -123.371 1256.77
v 33.8434 -122.546 1257.31
v 34.0107 -122.871 1257.29
v 34.2405 -122.647 1257.42
v 34.23 -122.245 1257.56
v 34.0785 -121.908 1257.58
v 34.5258 -122.051 1257.55
v 34.1757 -121.833 1253.81
v 34.0785 -121.165 1253.98
v 34.2785 -120.965 1254.07
v 34.0265 -121.234 1254.22
v 34.2983 -120.586 1254.42
v 34.6022 -120.817 1254.2
v 34.5688 -120.621 1254.38
v 34.5359 -120.312 1254.78
v 35.0885 -120.251 1255.37
v 35.1014 -120.234 1255.59
v 34.7649 -120.829 1257.15
v 34.4785 -120.681 1257.18
v 34.5151 -120.365 1256.58
v 34.7743 -120.597 1256.96
v 34.6785 -120.365 1256.74
v 34.2785 -121.565 1257.62
v 34.3346 -121.165 1257.38
v 34.4785 -121.165 1257.47
v 34.4307 -120.263 1255.21
v 34.735 -120.183 1255.18
v 34.6785 -120.073 1255.58
v 34.5504 -120.177 1255.98
v 34.6785 -120.11 1256.18
v 35.9474 -124.641 1255.2
v 35.9259 -124.513 1255.79
v 35.9115 -124.159 1256.38
v 36.4519 -123.931 1256.68
v 36.399 -123.511 1256.91
v 35.6532 -122.838 1253.47
v 35.8237 -122.338 1253.46
v 36.6649 -123.03 1253.25
v 36.605 -123.044 1257.02
v 35.668 -121.771 1253.66
v 36.1851 -121.315 1254
v 36.4592 -121.767 1253.68
v 35.3158 -120.643 1254.57
v 35.4911 -120.5 1254.97
v 35.7049 -120.492 1255.37
v 36.5856 -120.88 1255.36
v 36.646 -121.155 1254.39
v 35.6444 -120.812 1256.59
v 35.8974 -120.596 1255.77
v 36.0409 -120.805 1256.2
v 36.4426 -121.836 1256.91
v 36.5106 -121.364 1256.56
v 38.279 -125.562 1253.78
v 37.1706 -125.089 1254.21
v 37.5201 -125.369 1255.17
v 38.246 -125.745 1254.22
v 37.537 -125.13 1255.76
v 37.5138 -124.744 1253.5
v 37.3864 -122.744 1253.23
v 37.8074 -122.218 1253.57
v 38.0568 -122.883 1253.19
v 38.3299 -122.162 1253.79
v 37.0953 -121.589 1253.98
v 36.8384 -121.056 1254.8
v 37.7097 -121.567 1254.36
v 37.8678 -121.51 1254.79
v 38.236 -121.689 1255.18
v 37.7851 -121.613 1255.77
v 39.1204 -126.17 1253.76
v 39.4666 -125.952 1253.15
v 39.3106 -126.433 1254.15
v 39.326 -126.453 1254.57
v 39.24 -126.224 1255.17
v 39.7996 -126.224 1255.54
v 38.4619 -125.187 1256.06
v 38.735 -124.837 1252.95
v 39.3144 -124.203 1252.77
v 39.2456 -124.478 1252.77
v 38.6601 -124.984 1256.25
v 38.8655 -124.58 1256.43
v 38.9701 -123.461 1256.47
v 39.3943 -123.435 1253.04
v 39.2683 -122.437 1253.97
v 39.5372 -123.015 1253.38
v 38.744 -121.943 1254.77
v 38.8436 -122.059 1254.39
v 39.2631 -122.273 1255.18
v 39.8774 -122.649 1254.18
v 39.9335 -122.78 1255.37
v 38.7782 -122.709 1256.24
v 39.0224 -122.415 1255.79
v 39.4138 -123.326 1256.25
v 40.2331 -126.975 1253.59
v 40.3573 -127.168 1253.97
v 40.3027 -126.773 1253.18
v 40.8572 -126.761 1252.68
v 41.102 -127.58 1253.2
v 41.478 -127.452 1252.6
v 41.5687 -128.155 1253.77
v 40.8314 -127.486 1254.35
v 41.2207 -127.672 1254.57
v 40.626 -125.544 1252.46
v 40.8416 -126.34 1252.51
v 41.4983 -125.782 1252.27
v 40.0956 -125.991 1255.82
v 41.0338 -123.658 1253.41
v 41.3936 -124.233 1252.97
v 41.2082 -123.475 1253.98
v 41.4591 -124.575 1252.72
v 41.1803 -123.758 1255.38
v 39.9912 -124.541 1256.28
v 41.004 -124.313 1255.88
v 40.1043 -122.711 1254.57
v 40.4939 -122.968 1254.79
v 40.7152 -123.247 1255.17
v 40.2696 -123.359 1255.76
v 43.0903 -129.321 1252.15
v 42.8167 -129.328 1253.57
v 42.8197 -129.35 1252.79
v 42.4662 -128.658 1254.34
v 42.3637 -128.24 1254.75
v 41.7607 -127.267 1252.29
v 42.436 -126.982 1251.93
v 41.6658 -127.654 1254.96
v 42.2703 -127.639 1255.2
v 42.8562 -126.762 1255.48
v 42.6936 -126.457 1251.98
v 42.8071 -126.186 1252.07
v 42.8467 -125.139 1252.81
v 41.6787 -126.606 1255.66
v 42.511 -125.987 1255.61
v 42.8234 -125.534 1255.34
v 42.9545 -125.149 1254.98
v 41.6128 -125.125 1255.83
v 41.7667 -125.898 1255.82
v 41.7351 -123.953 1253.57
v 43.0478 -124.913 1253.38
v 43.2518 -124.971 1253.78
v 41.649 -124.333 1255.48
v 41.7242 -123.958 1254.99
v 41.7403 -123.796 1254.18
v 41.6269 -123.735 1254.61
v 41.8815 -124.777 1255.6
v 42.2154 -124.392 1254.98
v 42.0966 -124.096 1254.58
v 42.285 -124.779 1255.3
v 42.8433 -124.634 1254.19
v 42.8695 -124.773 1254.58
v 44.7688 -131.826 1251.75
v 43.9387 -130.553 1251.98
v 44.5862 -131.229 1251.36
v 44.4497 -130.621 1251.21
v 43.9062 -130.669 1252.58
v 43.821 -130.419 1253.22
v 44.5535 -130.318 1253.97
v 44.016 -129.484 1251.29
v 44.2404 -128.544 1251.22
v 43.7475 -129.921 1253.88
v 44.7725 -126.783 1252.37
v 43.4408 -127.748 1255.17
v 43.3001 -126.765 1255.34
v 43.8986 -127.573 1255.09
v 44.2531 -127.164 1254.9
v 44.646 -126.754 1254.38
v 43.7432 -126.276 1252.21
v 44.0778 -126.265 1252.4
v 43.8398 -125.786 1252.8
v 44.0212 -125.738 1253.19
v 44.0768 -125.715 1253.59
v 44.2985 -126.149 1252.77
v 44.2418 -125.944 1253.99
v 44.5125 -126.187 1253.16
v 43.2902 -125.602 1255.01
v 43.4092 -125.439 1254.73
v 43.4595 -126.342 1255.21
v 43.4733 -125.201 1254.17
v 44.0571 -126.39 1254.78
v 44.5507 -126.403 1254.15
v 45.6309 -133.265 1251.12
v 46.1442 -134.078 1251.37
v 46.2372 -133.899 1251.82
v 45.2304 -131.859 1250.72
v 45.497 -132.781 1250.78
v 45.8635 -132.164 1250.11
v 46.0663 -131.939 1249.98
v 45.047 -132.223 1252.15
v 44.9358 -131.876 1252.62
v 45.264 -131.792 1253.11
v 45.086 -130.979 1250.69
v 45.0621 -130.172 1250.7
v 45.4926 -130.056 1250.57
v 45.4901 -130.891 1253.82
v 45.8202 -130.49 1253.97
v 46.2587 -130.339 1253.88
v 45.9285 -129.972 1250.54
v 46.2308 -129.592 1250.78
v 46.4347 -128.524 1252.02
v 46.3399 -128.744 1253.57
v 45.2266 -129.113 1254.44
v 45.6535 -128.378 1254.16
v 45.7186 -129.024 1254.22
v 44.8444 -127.552 1251.67
v 44.8664 -127.187 1251.99
v 45.7113 -128.235 1251.55
v 45.6634 -127.802 1251.98
v 45.1033 -126.945 1252.57
v 45.3714 -127.168 1253.57
v 45.4667 -127.613 1253.97
v 45.5982 -127.364 1252.81
v 46.0914 -128.003 1253.17
v 46.2813 -128.176 1252.58
v 44.9004 -128.164 1254.64
v 45.1972 -127.7 1254.32
v 44.8699 -126.545 1253.57
v 48.0822 -144.582 1244.35
v 48.0417 -144.364 1244.77
v 48.0131 -144.172 1244.38
v 48.0525 -143.876 1244.22
v 47.9863 -143.956 1244.8
v 47.9884 -143.555 1244.71
v 48.0033 -143.687 1245.22
v 47.9681 -143.41 1245.09
v 48.0058 -141.829 1246.5
v 47.9424 -140.5 1246.7
v 48.0445 -139.838 1246.6
v 47.9924 -139.864 1248.04
v 47.9007 -138.777 1247.39
v 47.6354 -138.231 1248.66
v 47.5993 -137.971 1248.35
v 47.8388 -139.288 1247.73
v 47.8496 -138.47 1249.16
v 47.6664 -137.513 1248.02
v 47.0791 -136.163 1249.19
v 47.1389 -135.404 1248.92
v 47.8797 -135.301 1248.29
v 46.5974 -135.131 1250.38
v 46.4651 -134.686 1250.02
v 46.906 -135.872 1250.09
v 46.9949 -135.876 1250.51
v 47.477 -135.921 1251.11
v 46.7824 -133.833 1249.34
v 47.2561 -133.769 1249.04
v 47.4256 -133.422 1249.08
v 46.5566 -134.321 1249.62
v 46.4383 -133.477 1252.41
v 46.4708 -131.775 1249.84
v 46.5052 -131.778 1253.41
v 47.1316 -131.907 1253.21
v 47.5394 -131.893 1253.01
v 47.9314 -131.874 1252.71
v 46.8667 -129.943 1250.8
v 47.5333 -131.318 1250.12
v 47.687 -130.991 1250.47
v 47.7964 -130.386 1251.59
v 47.6812 -130.21 1252.19
v 48.0868 -131.235 1252.32
v 46.486 -131.159 1253.63
v 46.8859 -131.151 1253.48
v 46.8374 -130.341 1253.56
v 47.2959 -130.998 1253.24
v 47.2859 -130.517 1253.18
v 47.5478 -130.372 1252.77
v 47.7837 -131.168 1252.77
v 46.7059 -129.224 1251.37
v 47.0221 -129.175 1252.37
v 47.3312 -129.75 1251.59
v 46.4776 -129.377 1253.7
v 46.7817 -128.98 1252.98
v 46.9856 -129.576 1253.17
v 47.3356 -129.745 1252.6
v 49.4223 -148.141 1239.79
v 49.4544 -148.231 1240.97
v 48.9265 -146.984 1241.19
v 48.9976 -145.999 1240.95
v 49.2616 -145.993 1240.57
v 49.4133 -147.431 1239.76
v 49.5401 -147.046 1239.7
v 49.4869 -145.957 1240.37
v 48.7799 -146.173 1241.38
v 49.0279 -147.318 1241.3
v 48.8581 -146.666 1242.51
v 49.2845 -147.359 1242.18
v 49.5092 -147.303 1242.56
v 48.8717 -146.176 1243.58
v 49.1215 -146.14 1243.96
v 49.1176 -145.519 1241.04
v 49.4739 -145.33 1240.85
v 48.3578 -144.975 1242.75
v 48.566 -144.85 1242.3
v 48.6109 -144.379 1242.55
v 49.0774 -144.751 1241.66
v 49.286 -144.256 1241.98
v 48.2927 -145.271 1243.63
v 48.1598 -144.736 1243.63
v 48.2009 -144.559 1243.38
v 48.3255 -145.215 1242.92
v 48.3703 -144.358 1243
v 48.202 -144.815 1244.68
v 48.1434 -144.554 1244.99
v 48.349 -144.845 1245.07
v 48.3054 -144.347 1245.51
v 48.6994 -145.084 1245.29
v 48.6625 -144.523 1245.77
v 48.9337 -145.23 1245.28
v 48.8936 -144.817 1245.7
v 49.3622 -145.172 1245.53
v 49.2809 -144.567 1246.02
v 48.8888 -143.919 1242.63
v 48.2023 -143.843 1243.76
v 48.5002 -143.212 1243.76
v 48.8704 -142.813 1243.74
v 49.2994 -142.683 1243.64
v 48.0816 -144.046 1245.24
v 48.1439 -141.681 1247.02
v 48.4725 -140.486 1248.36
v 49.4772 -140.09 1249
v 48.105 -138.05 1247.25
v 48.6663 -138.793 1246.38
v 48.2225 -139.253 1249.02
v 48.8361 -139.165 1249.5
v 49.4526 -139.072 1249.63
v 48.634 -137.436 1247.09
v 49.197 -137.543 1246.89
v 49.4476 -137.685 1250.35
v 48.2523 -134.812 1248.36
v 49.0524 -134.59 1248.61
v 47.9458 -135.638 1251.52
v 48.1392 -134.691 1252.01
v 48.4526 -136.029 1251.34
v 48.8803 -135.766 1251.39
v 49.2998 -136.072 1251.08
v 49.2534 -135.516 1251.29
v 49.5087 -135.856 1251
v 49.4885 -135.156 1251.16
v 47.9757 -133.63 1248.92
v 48.3895 -133.891 1248.82
v 49.2881 -134.355 1248.93
v 49.5557 -134.492 1249.12
v 49.54 -133.743 1250.2
v 49.5281 -133.74 1250.61
v 48.616 -134.471 1251.93
v 48.9415 -133.515 1251.78
v 49.0151 -134.43 1251.68
v 49.2684 -133.763 1251.38
v 49.0973 -133.13 1251.41
v 49.3402 -134.344 1251.37
v 49.6256 -134.596 1250.97
v 49.5062 -133.982 1250.99
v 48.5113 -132.136 1250.2
v 48.5991 -131.984 1250.57
v 48.6754 -132.964 1249.57
v 49.0261 -132.992 1249.97
v 49.0726 -132.817 1250.38
v 49.0745 -132.728 1250.8
v 48.4235 -132.167 1252.18
v 48.8706 -132.431 1251.37
v 48.0558 -131.101 1250.82
v 48.3188 -131.316 1251.14
v 48.3607 -131.366 1251.58
v 51.0531 -154.81 1234.49
v 50.4634 -151.345 1237.82
v 50.4461 -151.321 1237.35
v 50.6626 -152.335 1237.26
v 50.7702 -152.134 1237.89
v 50.6261 -150.796 1239.27
v 51.1078 -152.413 1238.08
v 50.4262 -149.985 1237.45
v 50.9755 -149.799 1236.96
v 49.9327 -149.209 1238.58
v 50.155 -150.321 1238.38
v 50.269 -150.479 1239
v 50.6632 -148.992 1241.21
v 49.9242 -148.553 1241.29
v 50.0573 -147.503 1242.59
v 51.121 -148.652 1241.46
v 49.9084 -146.825 1239.46
v 50.3502 -146.956 1239.13
v 50.5345 -146.697 1239.29
v 50.8978 -146.798 1239.2
v 50.8731 -145.834 1240.18
v 50.6716 -147.385 1242.66
v 51.1881 -146.801 1242.76
v 49.856 -146.302 1244
v 50.3121 -145.885 1244.34
v 49.8805 -145.792 1240.23
v 49.8683 -144.763 1241.22
v 50.3011 -145.758 1240.16
v 50.4658 -144.989 1241
v 50.8918 -145.073 1241.15
v 50.4428 -144.285 1241.91
v 50.8427 -144.532 1241.94
v 51.2468 -145.136 1241.63
v 50.8661 -145.437 1244.19
v 51.0535 -144.983 1244.15
v 51.1952 -144.719 1243.67
v 51.2439 -144.718 1242.86
v 49.8716 -144.681 1245.86
v 50.3166 -144.518 1245.75
v 50.744 -144.404 1245.32
v 50.0566 -144.129 1241.96
v 49.7147 -143.036 1243.37
v 49.6714 -142.523 1243.8
v 49.9002 -142.816 1243.64
v 50.1005 -143.071 1243.53
v 50.0649 -142.628 1243.86
v 50.306 -143.232 1243.47
v 50.4724 -143.198 1243.74
v 50.2788 -142.819 1243.87
v 50.4981 -142.801 1244.09
v 50.7505 -143.469 1243.85
v 50.7216 -143.03 1244.26
v 50.892 -143.604 1244.14
v 50.878 -143.243 1244.47
v 50.8582 -143.883 1245.39
v 50.6723 -143.918 1245.75
v 50.9797 -143.683 1244.95
v 50.9788 -143.709 1244.55
v 50.6786 -141.946 1247.09
v 50.0851 -139.716 1245.72
v 50.454 -140.378 1245.56
v 50.6807 -140.787 1245.58
v 50.9195 -141.003 1245.93
v 50.9644 -140.885 1247.12
v 51.0015 -140.769 1246.44
v 51.019 -140.619 1246.93
v 50.9366 -139.836 1246.75
v 50.9798 -139.587 1247.17
v 49.8774 -140.065 1248.94
v 50.2576 -140.643 1248.38
v 50.2665 -139.588 1249
v 50.4928 -140.471 1248.3
v 50.4893 -139.615 1248.78
v 50.7728 -140.411 1247.95
v 50.6796 -139.967 1248.36
v 50.7892 -139.55 1248.37
v 50.8726 -139.977 1247.97
v 50.4879 -138.653 1246.76
v 50.8317 -139.405 1246.77
v 50.7391 -138.378 1247.37
v 50.9139 -138.966 1247.38
v 50.5403 -138.563 1249.18
v 50.6309 -138.011 1249.14
v 50.7092 -138.949 1248.77
v 50.8255 -138.55 1248.58
v 50.8089 -137.964 1248.18
v 50.7832 -137.927 1248.6
v 50.9713 -139.441 1247.76
v 50.9562 -138.972 1247.77
v 50.9125 -138.972 1248.19
v 50.8923 -138.541 1247.78
v 50.9009 -138.552 1248.18
v 49.8772 -139.097 1249.5
v 49.8737 -137.872 1250.05
v 50.2722 -138.438 1249.53
v 49.6619 -137.285 1247.12
v 50.0978 -137.868 1246.95
v 50.004 -136.778 1247.66
v 50.3564 -137.339 1247.6
v 50.3567 -136.652 1248.26
v 50.6682 -137.745 1247.81
v 50.5872 -137.466 1249.23
v 50.5773 -136.987 1248.57
v 50.5169 -136.722 1249.02
v 50.1394 -137.278 1250.02
v 50.4041 -137.782 1249.57
v 50.3965 -137.249 1249.66
v 49.8896 -134.99 1249.16
v 49.8035 -135.681 1250.72
v 49.8365 -134.772 1250.54
v 49.9256 -135.452 1250.53
v 50.2534 -135.964 1249.79
v 50.1295 -135.42 1249.35
v 50.1316 -135.387 1249.78
v 49.7008 -134.322 1249.61
v 49.8671 -134.565 1250.03
v 52.6073 -166.959 1199.58
v 52.6539 -166.766 1199.16
v 52.8019 -167.356 1199.4
v 52.8328 -167.164 1198.58
v 52.8107 -166.776 1198.44
v 52.617 -167.147 1200.2
v 52.6588 -167.176 1201
v 52.4882 -166.747 1200.32
v 52.7704 -167.378 1200.17
v 52.4886 -166.769 1201.39
v 52.6088 -166.743 1202.43
v 52.7252 -166.971 1202.35
v 52.8452 -166.757 1203.44
v 52.7289 -166.574 1198.91
v 52.4908 -166.351 1200.4
v 52.5976 -166.401 1199.7
v 52.5438 -165.98 1200.96
v 52.7357 -165.99 1199.96
v 52.6968 -165.748 1200.89
v 52.4301 -166.354 1201.37
v 52.4691 -166.129 1202.05
v 52.5003 -166.364 1202.39
v 52.561 -165.788 1201.76
v 52.6859 -165.55 1202
v 52.6616 -165.571 1202.79
v 52.6749 -165.789 1203.56
v 52.7445 -166.352 1203.76
v 52.4355 -165.365 1213.89
v 52.0175 -165.544 1215.42
v 51.9718 -165.171 1215.36
v 52.1537 -165.771 1215.22
v 52.1259 -165.559 1214.98
v 52.1261 -165.183 1214.74
v 52.4523 -166.158 1215.18
v 52.4404 -165.949 1214.6
v 52.2897 -165.572 1214.45
v 52.6233 -165.932 1214.07
v 51.8251 -165.165 1216.19
v 51.8924 -165.593 1216.39
v 52.2605 -166.157 1216.61
v 52.1443 -165.97 1215.96
v 52.0889 -165.959 1216.4
v 52.2818 -166.162 1216.19
v 52.4797 -166.315 1215.96
v 52.4786 -166.34 1216.38
v 52.4842 -166.331 1216.82
v 52.7035 -166.472 1216.15
v 52.6864 -166.463 1216.59
v 51.6448 -165.193 1218.35
v 51.8048 -165.552 1217.73
v 51.6848 -165.141 1217.44
v 51.9456 -165.782 1217.33
v 51.9492 -165.748 1218.01
v 52.2699 -166.128 1217.39
v 52.2737 -166.035 1218.18
v 52.4901 -166.236 1217.77
v 52.4713 -166.071 1218.57
v 51.7487 -165.338 1219
v 52.0836 -165.662 1219.18
v 52.4903 -165.845 1219.38
v 52.096 -165.233 1220.57
v 52.3078 -165.058 1221.35
v 52.6679 -165.359 1220.89
v 52.4281 -164.96 1213.89
v 52.5401 -164.573 1213.95
v 52.8919 -164.361 1213.39
v 51.9901 -164.764 1215.63
v 52.1404 -164.947 1214.77
v 52.2828 -164.567 1214.79
v 52.2768 -164.362 1215.48
v 52.69 -164.246 1214.36
v 51.883 -164.307 1217.33
v 52.2873 -164.058 1216.92
v 52.5215 -164.112 1215.88
v 52.7005 -163.9 1216.95
v 51.7022 -164.757 1217.33
v 52.2924 -163.84 1217.71
v 51.4427 -164.357 1219.42
v 51.4228 -164.364 1220.01
v 51.4115 -163.948 1220.21
v 51.586 -164.936 1219.62
v 51.5173 -164.77 1218.98
v 51.5027 -164.215 1219.08
v 51.5226 -163.715 1219.86
v 51.7057 -163.391 1219.91
v 51.7325 -164.976 1220.34
v 51.4453 -164.184 1220.97
v 51.4245 -163.718 1221.47
v 51.4211 -163.502 1221.3
v 51.5216 -164.572 1220.54
v 51.6035 -164.559 1221
v 51.5546 -164.08 1221.74
v 51.8222 -164.472 1221.8
v 51.8753 -164.841 1221.15
v 52.0907 -164.874 1221.48
v 52.7 -164.658 1222.62
v 52.2974 -163.544 1224.6
v 52.646 -163.658 1224.85
v 51.9343 -163.07 1220.21
v 52.51 -162.834 1220.24
v 51.489 -163.159 1221.46
v 51.6511 -162.414 1224.7
v 51.6096 -162.045 1224.24
v 51.8317 -162.83 1224.9
v 52.2474 -162.353 1227.5
v 52.6959 -162.782 1227.36
v 52.6774 -162.446 1228.08
v 51.7351 -161.837 1223.5
v 51.8785 -161.587 1223.56
v 52.498 -161.391 1223.15
v 52.2638 -161.167 1223.88
v 52.6853 -160.831 1224.4
v 51.7406 -161.386 1226.54
v 51.8594 -160.854 1226.43
v 52.0615 -160.341 1226.72
v 52.6622 -160.309 1225.94
v 51.83 -161.79 1227.09
v 51.7706 -161.157 1227.77
v 51.7452 -160.7 1227.67
v 51.9028 -161.303 1228.46
v 51.6301 -160.386 1228.97
v 52.2683 -161.35 1229.52
v 52.6599 -161.468 1229.81
v 51.7531 -160.359 1230.58
v 52.0934 -160.563 1230.98
v 52.478 -160.221 1232.07
v 52.6637 -159.921 1226.72
v 52.3046 -159.982 1226.96
v 52.2788 -159.212 1228.18
v 52.6781 -159.075 1228.18
v 51.5366 -159.416 1229.46
v 51.6983 -158.815 1229.72
v 51.9056 -158.861 1229.23
v 51.4719 -159.825 1230.32
v 51.4185 -159.417 1230.27
v 51.402 -159.341 1231
v 51.4829 -158.961 1230.19
v 51.4169 -158.923 1230.67
v 51.5349 -159.743 1231.17
v 51.4476 -159.098 1231.86
v 51.6024 -159.58 1231.78
v 51.8513 -159.972 1231.75
v 51.6778 -159.115 1232.78
v 52.0806 -159.976 1232.15
v 51.8817 -159.553 1232.54
v 51.9214 -159.173 1233.17
v 52.2615 -159.822 1232.6
v 52.2796 -159.376 1233.26
v 52.4901 -159.789 1232.78
v 52.4819 -159.365 1233.37
v 52.2819 -158.962 1233.76
v 52.6784 -159.06 1233.74
v 52.6828 -158.728 1234.06
v 52.067 -158.504 1229.61
v 52.2905 -158.376 1229.64
v 52.6722 -158.414 1229.45
v 51.6049 -158.561 1230.39
v 51.5095 -158.55 1230.8
v 51.6894 -158.147 1231
v 51.8686 -158.256 1230.38
v 52.0675 -157.759 1231.1
v 52.0918 -157.469 1231.58
v 52.303 -157.646 1231.11
v 51.4084 -158.355 1232.13
v 51.3357 -157.36 1233.27
v 51.5451 -157.806 1232.08
v 51.4805 -157.128 1232.81
v 51.8407 -157.567 1231.76
v 51.8604 -157.165 1232.19
v 52.0835 -157.163 1231.97
v 52.479 -157.165 1231.77
v 51.4006 -157.706 1233.66
v 51.7756 -158.25 1233.97
v 52.2389 -158.201 1234.4
v 52.6418 -157.734 1234.81
v 51.856 -156.338 1232.69
v 52.0836 -156.92 1232.18
v 52.0706 -156.269 1232.58
v 52.3025 -156.934 1232.05
v 52.4482 -156.323 1232.42
v 52.6696 -156.786 1232.1
v 52.6889 -156.385 1232.37
v 52.0827 -154.754 1233.33
v 52.6517 -154.994 1233.18
v 51.3426 -154.863 1233.86
v 51.6922 -154.787 1233.52
v 52.8685 -154.649 1233.47
v 52.4338 -153.847 1237.3
v 51.4563 -153.268 1234.53
v 51.6964 -153.653 1234.13
v 51.8661 -153.262 1234.29
v 52.2658 -153.554 1234.05
v 52.4848 -153.372 1234.2
v 51.7184 -153.183 1237.81
v 51.8891 -151.099 1235.74
v 52.2721 -151.634 1235.39
v 52.5024 -151.657 1235.46
v 51.2183 -151.439 1239.09
v 51.6591 -150.997 1239.57
v 52.2362 -150.749 1239.52
v 52.6948 -151.425 1238.71
v 51.4584 -150.418 1236.3
v 51.6167 -149.384 1237.03
v 52.0951 -150.112 1236.51
v 52.2193 -149.457 1237.18
v 52.472 -150.295 1236.58
v 52.4967 -149.461 1237.48
v 52.7956 -149.944 1237.41
v 52.569 -150.242 1239.48
v 52.682 -149.92 1239.4
v 52.2846 -147.921 1239.26
v 52.3261 -147.838 1239.72
v 51.8659 -147.744 1241.39
v 52.0209 -147.596 1241.14
v 52.315 -148.771 1240.37
v 52.3604 -148.451 1240.32
v 52.2658 -147.765 1240.41
v 51.2977 -148.198 1241.71
v 51.708 -148.272 1241.35
v 51.328 -147.308 1238.83
v 51.2828 -146.752 1239.37
v 51.7052 -147.331 1239.05
v 51.7722 -146.991 1239.57
v 51.2743 -146.068 1240.18
v 51.4535 -145.957 1240.59
v 51.7543 -146.374 1240.58
v 51.5739 -146.007 1242.38
v 51.2846 -145.929 1243.14
v 53.8758 -166.758 1192.8
v 54.0866 -166.911 1192.77
v 54.3035 -167.182 1193.16
v 54.2915 -166.712 1192.2
v 53.5275 -166.723 1194.23
v 53.6747 -167.151 1194.33
v 53.8858 -167.282 1194
v 54.0967 -167.603 1194.57
v 54.0856 -167.267 1193.58
v 53.2631 -167.127 1196.48
v 53.4116 -166.732 1195.75
v 53.8636 -167.621 1195.24
v 54.0879 -167.931 1196.4
v 54.2635 -167.87 1195.59
v 53.1964 -167.529 1197.73
v 53.2139 -166.772 1196.81
v 53.6966 -167.785 1196.65
v 53.665 -167.921 1197.99
v 54.0874 -168.008 1197.56
v 53.0229 -167.561 1198.94
v 53.0709 -167.653 1199.41
v 53.2888 -167.785 1198.96
v 53.2947 -167.741 1198.32
v 53.679 -167.946 1198.79
v 54.0791 -168 1198.79
v 54.2968 -167.945 1199.29
v 53.073 -167.664 1199.99
v 53.0741 -167.6 1200.74
v 53.289 -167.792 1199.78
v 53.4845 -167.753 1200.88
v 53.6914 -167.914 1199.79
v 53.8706 -167.814 1200.81
v 54.1112 -167.895 1199.95
v 53.0797 -167.46 1201.65
v 53.0862 -167.068 1203.35
v 53.5293 -167.289 1203.5
v 54.0795 -167.446 1203.22
v 53.4568 -166.826 1205.07
v 54.2295 -166.63 1207.47
v 53.3139 -166.59 1214.65
v 53.3194 -166.654 1215.46
v 53.0745 -166.599 1216.56
v 53.2969 -166.564 1217.16
v 53.5161 -166.668 1216.11
v 53.9506 -166.639 1215.62
v 54.2909 -165.059 1189.76
v 53.565 -165.166 1190.99
v 53.7449 -165.546 1190.97
v 53.8847 -166.155 1191.66
v 54.0866 -166.147 1191.38
v 54.0805 -165.719 1190.75
v 54.3046 -166.356 1191.57
v 54.2866 -165.958 1190.95
v 53.6125 -166.543 1193.15
v 53.6248 -165.965 1191.97
v 53.5312 -165.606 1191.87
v 53.553 -165.535 1192.38
v 54.0795 -166.502 1191.99
v 53.6957 -165.969 1193.8
v 54.1002 -165.603 1193.8
v 53.6744 -166.343 1195.39
v 54.2546 -165.976 1195.19
v 54.296 -166.008 1196.46
v 53.2578 -166.518 1197.12
v 53.7064 -166.207 1196.65
v 53.8546 -165.873 1198.1
v 53.4782 -166.008 1198.14
v 53.1005 -165.637 1200.06
v 53.3157 -165.473 1200.27
v 53.9262 -165.282 1200.67
v 54.3076 -165.376 1200.57
v 53.076 -165.157 1202.09
v 52.9419 -165.158 1203.08
v 52.9763 -165.74 1205.18
v 53.0068 -165.207 1204.66
v 53.1408 -166.347 1205.26
v 53.0953 -165.175 1205.18
v 53.448 -165.583 1206.96
v 53.6078 -165.988 1207.25
v 53.766 -165.729 1208.78
v 53.6888 -165.179 1208.15
v 53.7646 -165.135 1209.18
v 53.6562 -165.176 1210.33
v 53.7656 -165.947 1210.82
v 53.7693 -165.75 1210
v 53.9944 -166.162 1209.35
v 53.4351 -165.988 1212.24
v 53.2571 -165.571 1212.03
v 53.4808 -165.365 1211.15
v 54.0761 -166.354 1211.13
v 53.8639 -166.462 1212.77
v 52.8736 -166.48 1215.2
v 52.9001 -166.26 1214.17
v 53.8798 -166.501 1216.93
v 54.2823 -166.192 1217.09
v 52.8787 -166.462 1217.36
v 52.8603 -166.3 1218.21
v 53.2662 -166.442 1217.81
v 53.4776 -166.273 1218.39
v 53.6723 -166.433 1217.62
v 53.8627 -166.001 1218.7
v 54.0707 -166.15 1217.88
v 54.4168 -165.769 1217.74
v 53.0729 -166.08 1219.05
v 53.4709 -165.966 1219.25
v 54.0949 -165.518 1219.37
v 53.0902 -165.028 1221.8
v 54.2742 -163.641 1188.42
v 53.6785 -164.35 1189.78
v 53.6277 -163.98 1189.78
v 53.6859 -164.771 1190.13
v 53.7443 -163.935 1189.35
v 53.7158 -163.571 1189.39
v 53.8813 -164.979 1190.02
v 53.8948 -164.348 1189.37
v 54.0791 -164.79 1189.59
v 54.2736 -164.358 1189.01
v 53.527 -164.779 1191
v 53.5731 -164.39 1190.2
v 53.6156 -164.415 1191.05
v 53.6079 -163.982 1190.19
v 53.761 -163.945 1190.74
v 54.0961 -163.477 1190.58
v 53.8972 -164.938 1192.38
v 54.3093 -164.731 1192.43
v 54.3057 -164.225 1191.7
v 53.4804 -164.88 1202.46
v 53.3043 -164.841 1203.2
v 53.6776 -164.561 1204.03
v 53.8672 -164.603 1203.33
v 54.3023 -164.509 1203.62
v 53.2065 -164.955 1205.07
v 53.5089 -164.622 1204.84
v 53.9285 -164.367 1205.19
v 54.2494 -164.308 1204.75
v 54.2936 -164.194 1205.94
v 53.5141 -164.99 1206.78
v 54.2671 -164.209 1206.74
v 53.8613 -164.779 1208.37
v 54.0216 -164.575 1209.02
v 54.212 -164.355 1208.35
v 53.8407 -164.579 1210.35
v 54.0289 -164.178 1210.88
v 54.2787 -164.275 1209.55
v 53.2425 -164.99 1211.83
v 53.3734 -164.584 1211.77
v 53.515 -164.779 1211.17
v 53.6303 -164.388 1211.4
v 53.8945 -163.97 1212.04
v 54.2835 -163.842 1212.16
v 53.2982 -164.124 1212.95
v 53.4339 -163.978 1213.35
v 53.8608 -163.881 1212.83
v 52.9163 -164.004 1215.54
v 53.5256 -163.939 1214.62
v 53.7521 -164.011 1215.24
v 54.0873 -164.201 1215.58
v 54.3302 -164.095 1214.5
v 53.2874 -163.965 1215.92
v 53.6921 -164.056 1216.53
v 54.0811 -164.282 1216.39
v 54.4609 -164.559 1215.78
v 54.344 -164.566 1216.75
v 52.8719 -163.575 1218.22
v 53.2664 -163.607 1218.34
v 53.4531 -163.892 1217.38
v 53.6819 -163.822 1218.23
v 53.895 -164.117 1217.38
v 54.1657 -164.125 1218.8
v 54.3414 -164.556 1217.62
v 54.1446 -163.702 1220.12
v 54.3995 -164.937 1219.21
v 54.3475 -164.316 1219.64
v 53.2569 -163.738 1224.96
v 53.6733 -163.796 1224.52
v 53.8783 -163.491 1225.01
v 54.0746 -163.631 1223.96
v 54.1382 -163.391 1188.42
v 54.1023 -162.751 1188.38
v 54.2118 -162.373 1188.38
v 54.2791 -162.789 1188.05
v 54.3564 -162.364 1187.98
v 54.4606 -161.979 1188.17
v 53.7516 -163.371 1189.6
v 53.8243 -163.158 1189.17
v 53.9728 -163.17 1188.62
v 53.9681 -162.977 1189.6
v 53.9984 -162.759 1188.77
v 53.992 -162.771 1189.17
v 54.272 -162.351 1188.99
v 54.3119 -162.186 1188.59
v 53.0792 -162.912 1220.12
v 53.6785 -163.115 1220.35
v 53.9027 -162.385 1222.57
v 54.2302 -163.098 1222.53
v 54.2712 -163.219 1223.62
v 54.1468 -161.947 1224.41
v 53.2856 -163.231 1226.55
v 53.6479 -163.175 1226.52
v 53.8815 -163.003 1226.66
v 54.1416 -162.787 1226.48
v 54.2981 -162.587 1225.95
v 54.3504 -162.203 1226.04
v 53.048 -163.122 1226.79
v 53.0842 -162.644 1227.99
v 53.278 -162.959 1227.31
v 53.4783 -162.73 1227.8
v 53.6721 -162.866 1227.36
v 53.6859 -162.665 1227.79
v 53.6805 -162.349 1228.36
v 53.8748 -162.649 1227.55
v 53.8867 -162.411 1227.97
v 54.1628 -162.386 1227.33
v 54.1688 -161.963 1227.98
v 54.322 -161.976 1227.15
v 53.06 -162.067 1229.02
v 53.4542 -162.288 1228.62
v 53.6627 -161.909 1229.07
v 53.9467 -161.965 1228.58
v 53.0721 -161.066 1223.95
v 53.487 -161.401 1223.69
v 53.8198 -161.546 1224.07
v 53.0624 -160.52 1225.38
v 53.4352 -160.362 1226.09
v 53.6575 -160.587 1225.94
v 53.9465 -160.988 1225.79
v 54.2535 -161.366 1226.37
v 54.3265 -161.815 1226.01
v 53.8588 -160.224 1227.34
v 54.0987 -160.775 1227
v 54.3358 -161.582 1226.96
v 54.266 -161.415 1227.96
v 54.2663 -161.137 1227.54
v 52.8707 -161.356 1230.13
v 53.8604 -161.6 1229.22
v 53.9981 -161.456 1229.09
v 54.0745 -160.329 1228.51
v 53.1039 -161.098 1230.55
v 53.4959 -160.646 1230.9
v 53.0528 -160.043 1226.46
v 53.0827 -158.882 1228.69
v 53.8196 -160.077 1230.94
v 53.8792 -159.035 1231.49
v 52.8671 -160.029 1232.43
v 52.8733 -159.632 1233.01
v 53.0966 -159.796 1232.66
v 53.4618 -159.6 1232.5
v 53.2741 -159.286 1233.17
v 53.6277 -158.966 1232.96
v 53.0637 -158.967 1233.7
v 52.8829 -157.618 1231.12
v 53.3033 -158.066 1230.69
v 53.557 -158.045 1231.24
v 53.7733 -158.532 1231.15
v 53.0466 -157.026 1231.98
v 53.4294 -157.389 1231.93
v 53.8242 -158.426 1232.9
v 53.679 -157.876 1231.84
v 53.8426 -157.96 1232.36
v 53.6498 -157.161 1232.47
v 52.8848 -158.025 1234.55
v 53.075 -158.545 1234.07
v 53.3864 -158.57 1233.77
v 53.2571 -157.86 1234.42
v 53.5598 -157.776 1234.07
v 53.849 -157.501 1233.4
v 53.2448 -156.643 1232.39
v 53.7934 -156.652 1233.39
v 53.7145 -156.501 1233.14
v 53.2684 -154.934 1233.6
v 53.4279 -154.754 1233.99
v 52.8813 -153.168 1234.56
v 53.2749 -152.568 1235.65
v 52.8835 -153.962 1236.95
v 53.0561 -152.531 1237.6
v 53.3138 -153.34 1236.66
v 52.9446 -152.32 1235.3
v 52.8626 -151.132 1236.23
v 53.0471 -150.819 1236.96
v 53.1266 -151.189 1237.95
v 53.133 -150.824 1237.55
v 53.3349 -152.283 1236.88
v 53.3207 -152.084 1236.49
v 52.9344 -151.017 1238.54
v 52.9156 -149.955 1237.82
v 53.0366 -150.362 1238.17
v 52.8912 -150.092 1238.83
v 52.8646 -149.624 1238.5
v 54.685 -166.885 1192.42
v 54.665 -166.65 1191.98
v 54.892 -166.728 1192.17
v 55.2517 -166.896 1192.74
v 54.4847 -167.604 1194.14
v 54.4909 -167.762 1194.73
v 54.8782 -167.562 1193.98
v 54.8781 -167.677 1194.38
v 54.8837 -167.344 1193.43
v 55.2599 -167.625 1194.62
v 55.2542 -167.456 1194
v 55.4801 -167.481 1194.55
v 55.4843 -167.123 1193.55
v 55.6733 -167.357 1194.79
v 55.7486 -167.155 1194.38
v 55.835 -166.74 1193.74
v 55.9172 -166.774 1194.58
v 54.4782 -167.971 1196.22
v 54.6843 -167.908 1195.57
v 54.8786 -167.807 1194.98
v 55.0843 -167.83 1195.55
v 55.0532 -167.875 1196.2
v 55.2944 -167.758 1195.96
v 55.2993 -167.751 1196.42
v 55.4711 -167.593 1195.19
v 55.5497 -167.554 1195.97
v 55.7085 -167.366 1195.22
v 55.8239 -167.159 1194.99
v 55.8042 -167.175 1195.96
v 55.8301 -166.949 1196.17
v 55.876 -166.757 1195.68
v 55.8963 -166.965 1195.23
v 54.6771 -167.99 1196.98
v 54.6423 -167.972 1197.85
v 55.0535 -167.856 1197.21
v 55.2511 -167.689 1197.49
v 55.6219 -167.368 1196.76
v 55.7145 -167.156 1196.86
v 54.6854 -167.819 1199.16
v 54.9655 -167.368 1200.36
v 55.238 -166.955 1199.98
v 54.7049 -167.454 1201.37
v 55.1382 -166.955 1201.58
v 54.6943 -167.29 1203.39
v 55.3911 -166.756 1203.68
v 55.4748 -166.827 1205.92
v 54.8415 -166.949 1206.51
v 54.4657 -166.595 1208.99
v 55.0338 -166.768 1209.93
v 55.2704 -166.731 1210.89
v 55.659 -166.711 1209.82
v 55.6762 -166.641 1210.77
v 54.6327 -166.647 1211.54
v 55.4676 -166.635 1211.41
v 54.3832 -166.619 1212.74
v 54.6235 -166.635 1212.86
v 55.0697 -165.19 1189.96
v 54.4848 -165.468 1190.2
v 54.6788 -165.906 1190.8
v 54.8665 -166.387 1191.58
v 55.0705 -165.954 1191
v 55.2778 -165.663 1190.77
v 55.4728 -165.762 1191.19
v 55.265 -166.329 1191.75
v 55.2563 -165.172 1193.07
v 55.5713 -166.203 1192.03
v 55.6253 -165.882 1191.68
v 55.5707 -165.164 1192.58
v 55.7274 -166.186 1192.42
v 55.8269 -165.974 1192.64
v 55.7566 -165.687 1191.89
v 55.7894 -165.554 1192.59
v 54.4578 -165.414 1193.69
v 54.6775 -165.651 1194.3
v 54.861 -165.271 1193.47
v 55.0773 -165.713 1194.42
v 55.4832 -165.948 1194.7
v 55.4698 -165.562 1193.64
v 55.7428 -166.155 1194.61
v 55.7435 -165.77 1193.44
v 55.9096 -166.546 1193.95
v 55.8935 -166.348 1194.21
v 54.8702 -165.955 1195.6
v 55.4506 -166.111 1195.54
v 55.7625 -166.551 1196.16
v 55.6775 -166.338 1195.82
v 55.0607 -166.049 1196.93
v 54.4788 -165.818 1198.37
v 54.6609 -165.748 1199.38
v 55.279 -166.354 1199.14
v 55.0904 -166.071 1198.47
v 55.3301 -166.578 1199.36
v 54.7025 -165.514 1200.83
v 55.0331 -165.965 1200.14
v 55.252 -166.557 1201.21
v 55.2214 -166.354 1200.56
v 54.4987 -165.155 1201.62
v 54.8988 -165.245 1202.06
v 55.298 -165.959 1201.89
v 55.0806 -165.766 1201.33
v 55.2113 -165.542 1202.22
v 55.4607 -166.364 1202.79
v 55.8374 -166.165 1204.43
v 55.8595 -165.755 1204.24
v 55.7563 -165.201 1204.29
v 55.8066 -166.496 1211.19
v 55.9732 -165.375 1212.57
v 54.8817 -166.538 1213.36
v 54.4502 -166.438 1215.28
v 54.9793 -165.564 1215.15
v 54.9866 -165.166 1215.06
v 54.7091 -166.136 1215.48
v 54.653 -165.334 1216.67
v 54.7186 -165.721 1216.11
v 54.797 -165.351 1215.81
v 54.5109 -163.753 1188.34
v 55.0972 -163.905 1188.38
v 54.4943 -164.373 1188.92
v 54.6795 -164.936 1189.52
v 55.4772 -164.662 1189.71
v 55.4897 -164.056 1188.8
v 55.6784 -164.603 1190.18
v 55.6891 -164.204 1189.53
v 55.7953 -163.778 1189.79
v 55.6751 -163.504 1190.01
v 54.8957 -163.798 1191.17
v 55.4615 -164.519 1191.66
v 55.6084 -163.991 1190.63
v 55.745 -165.022 1191.46
v 55.6738 -164.766 1191.51
v 55.7181 -164.385 1190.61
v 54.7215 -164.402 1192.03
v 55.2517 -164.779 1192.37
v 54.6587 -164.701 1203.14
v 55.0952 -164.751 1203.63
v 55.4598 -164.99 1203.84
v 54.6666 -164.175 1205.43
v 55.0679 -164.247 1205.31
v 55.6751 -164.383 1205.77
v 55.9133 -164.776 1205.34
v 54.6786 -164.062 1206.76
v 55.0899 -164.044 1206.56
v 55.093 -163.993 1207.35
v 55.6488 -164.147 1206.71
v 55.6659 -164.084 1207.21
v 54.6585 -164.082 1208.17
v 55.6778 -164.02 1208.35
v 54.8275 -163.977 1209.83
v 55.0475 -163.885 1210.68
v 55.4665 -163.964 1209.89
v 55.8539 -164.107 1210.24
v 54.643 -163.84 1212.44
v 55.0308 -163.945 1212.49
v 55.2763 -163.91 1211.19
v 55.4166 -164.179 1212.51
v 55.498 -164.083 1211.9
v 55.8009 -164.362 1211.98
v 56.0371 -164.577 1211.73
v 55.8039 -164.967 1212.9
v 55.6527 -164.572 1212.81
v 54.5387 -164.372 1214.95
v 54.9041 -164.81 1214.91
v 54.5631 -164.964 1216.77
v 54.6774 -164.954 1215.92
v 54.5104 -164.941 1217.65
v 54.4749 -163.171 1187.96
v 54.6799 -162.518 1187.55
v 54.6529 -162.137 1187.56
v 54.628 -161.911 1187.72
v 54.9317 -163.074 1187.63
v 55.0978 -163.301 1187.76
v 56.0449 -163.283 1188.32
v 55.9185 -162.995 1187.55
v 54.4631 -162.304 1189.21
v 54.4871 -162.051 1188.77
v 54.6941 -162.518 1189.65
v 55.0815 -162.958 1190.11
v 55.1672 -162.363 1189.49
v 55.4871 -162.596 1189.55
v 55.7071 -162.176 1189.12
v 55.9603 -163.373 1189.17
v 55.8651 -163.002 1189.4
v 55.3079 -163.385 1190.42
v 55.6108 -161.231 1186.53
v 55.7926 -160.613 1186.6
v 54.7089 -161.68 1187.89
v 54.7148 -161.673 1188.17
v 55.3435 -161.099 1187.93
v 54.8687 -161.706 1188.6
v 55.3116 -161.498 1188.57
v 56.301 -165.156 1205.94
v 56.0658 -166.485 1207.1
v 56.2602 -166.169 1206.47
v 56.3837 -166.148 1207.23
v 56.3627 -165.771 1206.14
v 56.4049 -165.386 1206.17
v 56.5471 -165.787 1207.15
v 56.6002 -165.555 1207.19
v 56.5849 -165.159 1207.13
v 56.6687 -165.165 1207.74
v 56.0705 -166.541 1208.7
v 56.4492 -166.162 1208.35
v 56.6302 -165.777 1207.95
v 56.6578 -165.771 1208.78
v 56.6982 -165.547 1208.19
v 56.7113 -165.165 1208.4
v 56.6638 -164.959 1208.96
v 56.088 -166.515 1209.6
v 56.0583 -166.456 1210.39
v 56.4464 -166.158 1209.35
v 56.3804 -166.172 1210.01
v 56.4174 -165.947 1210.56
v 56.5343 -165.958 1209.79
v 56.6404 -165.765 1209.39
v 56.6456 -165.583 1209.82
v 56.5006 -165.572 1210.73
v 56.6343 -165.353 1210.02
v 56.4641 -165.359 1210.96
v 56.7029 -165.369 1209.34
v 56.1293 -166.155 1211.24
v 56.1368 -165.764 1211.9
v 56.2522 -165.38 1211.76
v 56.3547 -165.753 1211.18
v 56.217 -164.775 1206.18
v 56.1341 -164.571 1206.38
v 56.0597 -164.336 1206.98
v 56.4194 -164.777 1206.94
v 56.3402 -164.565 1207.2
v 56.5349 -164.778 1207.57
v 56.2641 -164.372 1207.76
v 56.0651 -164.199 1207.96
v 56.0572 -164.175 1208.84
v 56.453 -164.565 1207.96
v 56.2768 -164.343 1208.21
v 56.2777 -164.338 1208.98
v 56.5918 -164.783 1208.18
v 56.4744 -164.565 1208.42
v 56.096 -164.262 1210.12
v 56.4439 -164.965 1210.78
v 56.4569 -164.573 1209.39
v 56.3072 -164.574 1210.55
v 56.6214 -164.965 1209.63
v 56.1838 -164.976 1211.8
v 56.0532 -164.357 1211
v 56.5276 -162.045 1186.51
v 56.0969 -162.506 1188.95
v 56.3539 -162.697 1188.52
v 57.4711 -160.65 1184.93
v 56.0424 -161.377 1186.1
v 56.0729 -160.567 1185.91
v 55.9923 -160.35 1186.85
v 56.2116 -161.878 1186.35
v 56.4977 -160.828 1185.35
v 56.6617 -161.121 1185.48
v 57.0568 -161.1 1185.36
v 57.2207 -161.637 1186.26
v 57.2778 -161.24 1185.59
v 57.5031 -161.432 1186.68
v 56.0791 -161.177 1188.27
v 56.0614 -160.868 1187.98
v 56.0647 -160.592 1187.61
v 56.5029 -160.476 1187.54
v 56.6067 -161.418 1188.2
v 56.8483 -160.777 1187.7
v 57.0275 -161.594 1187.81
v 57.0846 -160.954 1187.64
v 57.2681 -161.572 1187.39
v 57.3666 -161.147 1187.36
v 57.5665 -161.159 1186.97
v 57.4892 -160.373 1186.95
v 56.7655 -158.992 1183.62
v 57.0647 -159.448 1183.7
v 57.0882 -158.76 1183.07
v 57.4716 -159.313 1183.47
v 56.3566 -160.158 1185.17
v 56.5246 -159.013 1184.25
v 56.1499 -160.181 1185.99
v 56.2701 -159.963 1185.56
v 56.3162 -159.823 1185.99
v 56.8061 -159.613 1186.36
v 57.1074 -159.718 1186.57
v 57.2633 -160.135 1186.95
v 56.7301 -158.368 1183.4
v 56.8091 -157.955 1183.17
v 56.7462 -158.045 1183.64
v 57.0944 -157.954 1182.56
v 56.9468 -157.981 1182.81
v 56.8831 -157.646 1183.18
v 56.9733 -157.551 1182.78
v 56.912 -157.629 1183.45
v 57.0699 -158.372 1182.81
v 57.0803 -157.19 1182.8
v 57.2396 -157.203 1182.21
v 57.1644 -157.138 1183.15
v 57.2785 -158.342 1182.62
v 57.2885 -157.97 1182.37
v 57.3139 -157.55 1182.16
v 57.4657 -158.583 1182.74
v 57.4631 -157.308 1183.73
v 57.0692 -157.656 1183.88
v 57.4143 -156.738 1181.97
v 57.2102 -156.98 1182.39
v 57.4214 -156.533 1182.35
v 57.499 -156.847 1183.17
v 57.6812 -160.656 1185.11
v 57.8822 -160.511 1185.23
v 57.6718 -160.96 1185.56
v 57.7946 -160.968 1185.99
v 57.837 -160.784 1186.39
v 57.7055 -160.753 1186.77
v 57.7755 -160.365 1186.57
v 57.9534 -160.568 1185.59
v 57.9626 -160.565 1185.97
v 58.0258 -160.25 1185.26
v 57.9405 -160.376 1186.19
v 58.146 -158.885 1183.51
v 57.6992 -159.652 1183.93
v 57.9838 -158.977 1185.19
v 58.1445 -159.141 1184.94
v 57.6749 -159.573 1186.11
v 57.8743 -159.954 1186.16
v 58.0386 -159.563 1185.56
v 58.0702 -160.114 1185.56
v 57.6681 -157.79 1182.05
v 57.8839 -157.155 1181.57
v 58.2523 -157.295 1181.63
v 58.278 -156.977 1181.38
v 58.66 -157.055 1181.61
v 57.7146 -157.152 1183.59
v 57.8602 -158.417 1182.61
v 58.1077 -158.264 1182.58
v 58.0778 -157.353 1183.66
v 58.3894 -157.935 1183.56
v 58.2694 -157.587 1183.64
v 58.4614 -157.901 1182.64
v 58.5412 -157.769 1182.99
v 58.5591 -157.549 1182.19
v 58.6577 -157.498 1182.54
v 57.6691 -158.65 1185.18
v 57.6784 -157.757 1184.24
v 58.0419 -157.99 1184.21
v 58.1506 -158.365 1184.36
v 58.3044 -158.612 1183.83
v 58.2728 -158.556 1184.1
v 57.6702 -156.852 1181.6
v 57.8329 -156.192 1181.39
v 57.7959 -155.977 1181.58
v 57.9024 -156.726 1181.37
v 57.8767 -156.387 1181.33
v 58.0161 -155.554 1181.58
v 58.0715 -156.166 1181.14
v 58.0848 -155.772 1181.16
v 58.274 -156.58 1181.15
v 58.2728 -156.171 1181
v 58.2785 -155.78 1180.96
v 58.4775 -156.968 1181.4
v 58.4791 -156.762 1181.24
v 58.4935 -156.536 1181.1
v 58.4909 -156.152 1180.91
v 58.4793 -155.772 1180.83
v 58.6722 -156.835 1181.38
v 58.7167 -156.557 1181.16
v 58.9111 -156.637 1181.36
v 58.8588 -155.965 1180.8
v 58.9077 -155.528 1180.63
v 59.0704 -156.637 1181.78
v 57.7101 -156.27 1182.56
v 57.8965 -156.566 1183.02
v 58.2575 -156.595 1183
v 58.262 -155.818 1182.41
v 58.4832 -156.787 1182.98
v 58.7813 -156.983 1182.61
v 58.6578 -155.814 1182.39
v 59.0899 -156.375 1182.16
v 59.0516 -156.003 1182.23
v 58.2206 -155.377 1181.18
v 58.3005 -155.259 1181.78
v 58.4618 -154.963 1181.17
v 58.4841 -155.38 1180.84
v 58.5205 -155.231 1181.97
v 58.4989 -154.892 1181.37
v 58.6634 -154.963 1180.8
v 58.8921 -155.163 1182.02
v 58.951 -154.943 1180.59
v 58.8787 -154.589 1180.79
v 58.9511 -154.36 1180.98
v 59.1143 -155.366 1182.06
v 59.0993 -154.541 1180.59
v 59.179 -154.184 1180.77
v 59.4573 -155.741 1181.8
v 59.2922 -155.56 1180.65
v 59.507 -155.621 1180.81
v 59.6828 -155.648 1181.39
v 59.6907 -155.598 1181.01
v 59.4874 -154.35 1180.39
v 59.687 -154.558 1180.31
v 59.885 -153.782 1180.38
v 60.0941 -154.585 1180.3
v 60.0903 -153.956 1180.18
v 59.2376 -154.086 1181.2
v 59.5453 -154.725 1181.78
v 59.4821 -153.995 1180.58
v 59.4058 -154.079 1181.41
v 59.4775 -153.868 1180.78
v 59.4858 -153.832 1180.98
v 59.6676 -154.017 1181.46
v 60.0303 -155.002 1180.6
v 60.2656 -154.925 1181.17
v 60.0354 -154.821 1181.54
v 60.2799 -154.931 1180.8
v 60.3846 -154.742 1180.56
v 60.3572 -153.948 1181.44
v 60.2838 -153.575 1180.23
v 60.2758 -153.436 1180.38
v 60.6187 -153.369 1180.18
v 60.6707 -153.571 1180.02
v 60.6945 -153.185 1180.38
v 59.6708 -153.76 1181.18
v 59.8772 -153.615 1180.58
v 59.8747 -153.555 1180.78
v 59.888 -153.559 1180.98
v 60.086 -153.556 1181.17
v 60.2439 -153.362 1180.58
v 60.1844 -153.374 1180.79
v 60.2798 -153.37 1180.97
v 60.578 -153.537 1181.23
v 60.4922 -153.238 1180.78
v 60.6736 -153.262 1180.98
v 61.1032 -154.223 1180.18
v 61.0849 -153.968 1179.96
v 61.4168 -154.21 1180.36
v 60.8904 -154.471 1180.57
v 61.0536 -154.367 1180.79
v 61.0057 -154.025 1181.19
v 61.508 -154.172 1180.58
v 61.7062 -153.949 1180.78
v 60.8316 -153.802 1179.94
v 60.9011 -153.365 1180.01
v 60.8914 -153.192 1180.17
v 61.0843 -153.558 1179.87
v 61.3022 -153.156 1179.97
v 61.1882 -152.974 1180.39
v 61.2778 -152.995 1180.19
v 61.4839 -153.356 1179.79
v 61.5758 -152.858 1180.36
v 61.6296 -153.577 1179.74
v 61.8823 -153.751 1179.79
v 62.0766 -153.371 1179.64
v 62.0566 -153.172 1179.67
v 62.0783 -152.793 1179.98
v 62.2865 -152.966 1179.7
v 62.3113 -152.694 1180.39
v 60.8688 -153.078 1180.58
v 61.0558 -153.071 1180.77
v 61.2829 -152.956 1180.58
v 61.4312 -153.029 1180.79
v 61.65 -153.394 1180.99
v 61.7125 -152.872 1180.58
v 61.8048 -153.596 1180.95
v 62.0454 -152.982 1180.75
v 62.3448 -153.761 1180.58
v 62.253 -153.178 1180.82
v 62.4901 -153.815 1180.39
v 62.656 -153.372 1179.59
v 62.6694 -153.16 1179.56
v 62.7943 -152.951 1179.59
v 62.8006 -153.626 1179.8
v 63.0385 -152.605 1179.78
v 62.9983 -152.501 1179.99
v 63.2533 -153.362 1179.64
v 63.2529 -153.165 1179.56
v 63.2568 -152.965 1179.54
v 63.2592 -152.766 1179.6
v 63.2895 -152.573 1179.76
v 63.2755 -152.454 1179.98
v 63.2109 -152.454 1180.19
v 63.2373 -152.583 1180.47
v 63.4633 -153.423 1179.78
v 63.3913 -153.534 1180.01
v 63.4514 -153.435 1180.37
v 63.4702 -153.175 1179.6
v 63.4948 -152.971 1179.59
v 63.4665 -152.766 1179.64
v 63.4857 -152.602 1179.79
v 63.4783 -152.489 1179.98
v 63.4695 -152.465 1180.17
v 63.4761 -152.54 1180.37
v 63.6811 -153.358 1179.97
v 63.6916 -153.354 1180.17
v 63.6668 -153.167 1179.74
v 63.8016 -153.165 1179.98
v 63.8143 -153.157 1180.17
v 63.7309 -153.162 1180.37
v 63.7448 -152.973 1179.79
v 63.8342 -152.965 1179.98
v 63.8413 -152.965 1180.18
v 63.7713 -152.958 1180.37
v 63.6647 -152.966 1180.49
v 63.676 -152.773 1179.79
v 63.7907 -152.775 1179.99
v 63.6735 -152.629 1179.98
v 63.7931 -152.768 1180.18
v 63.6637 -152.598 1180.18
v 63.6724 -152.765 1180.42
v 62.5639 -152.773 1180.58
v 62.608 -153.387 1180.73
v 62.8547 -152.966 1180.7
v 63.1356 -153.374 1180.58
v 63.0483 -153.166 1180.68
v 63.2803 -153.159 1180.65
v 63.2708 -152.965 1180.67
v 63.2436 -152.773 1180.63
v 63.4757 -153.189 1180.57
v 63.4707 -152.973 1180.62
v 63.4717 -152.77 1180.58
v 33.4348 -123.565 1255.38
v 33.4658 -123.565 1256.18
v 33.2928 -123.365 1254.98
v 33.2928 -123.365 1254.98
v 33.4785 -123 1254.38
v 33.5489 -122.565 1254.18
v 33.4785 -123.365 1256.61
v 33.552 -123.165 1256.78
v 33.7551 -121.965 1253.98
v 33.8434 -122.546 1257.31
v 34.0785 -121.908 1257.58
v 34.0785 -121.165 1253.98
v 34.2785 -120.965 1254.07
v 34.2785 -120.965 1254.07
v 34.2983 -120.586 1254.42
v 34.2983 -120.586 1254.42
v 34.5359 -120.312 1254.78
v 34.4785 -120.681 1257.18
v 34.4785 -120.681 1257.18
v 34.4785 -120.681 1257.18
v 34.6785 -120.365 1256.74
v 34.2785 -121.565 1257.62
v 34.4785 -121.165 1257.47
v 34.4307 -120.263 1255.21
v 34.4307 -120.263 1255.21
v 34.735 -120.183 1255.18
v 34.6785 -120.073 1255.58
v 34.6785 -120.073 1255.58
v 34.6785 -120.11 1256.18
v 60.2656 -154.925 1181.17
v 60.0354 -154.821 1181.54
f 1 43 2
f 3 1519 6
f 1519 1520 6
f 1 1521 43
f 1520 7 6
f 9 1525 2
f 10 12 5
f 12 4 5
f 1523 1522 1524
f 23 1524 1522
f 6 8 1522
f 7 8 6
f 13 1525 9
f 13 1526 1525
f 1526 13 15
f 15 14 1526
f 43 1521 66
f 15 45 46
f 9 2 43
f 88 12 10
f 88 10 48
f 10 11 20
f 10 20 48
f 5 11 10
f 1524 23 1527
f 4 12 88
f 45 13 9
f 15 13 45
f 1522 8 1528
f 1522 1528 36
f 1528 18 36
f 47 17 16
f 35 19 93
f 37 35 93
f 15 46 16
f 16 14 15
f 16 17 14
f 17 19 1529
f 14 17 1529
f 1540 36 18
f 35 1529 19
f 21 20 11
f 1530 1527 23
f 1530 23 22
f 1531 52 21
f 54 52 1531
f 54 1531 25
f 53 54 25
f 23 1522 38
f 1532 23 24
f 24 23 38
f 1533 1542 27
f 25 1531 1534
f 26 25 1534
f 26 1534 1535
f 32 38 1522
f 53 25 26
f 55 53 26
f 26 1535 55
f 39 56 1535
f 39 28 56
f 56 55 1535
f 1522 36 31
f 36 1541 1536
f 1522 31 32
f 34 32 1537
f 30 37 63
f 30 1538 37
f 1539 1538 33
f 30 33 1538
f 41 38 32
f 32 34 42
f 33 60 1539
f 1547 62 61
f 1539 60 62
f 1539 62 1547
f 1540 1541 36
f 1544 27 1542
f 1544 1542 40
f 1545 1543 42
f 1546 28 39
f 29 28 1546
f 29 1546 1547
f 1543 41 42
f 41 32 42
f 61 29 1547
f 68 67 43
f 1521 4 70
f 70 4 88
f 88 48 90
f 43 67 44
f 43 66 68
f 44 9 43
f 44 45 9
f 16 46 47
f 45 44 69
f 49 48 20
f 49 20 21
f 50 48 49
f 71 50 49
f 52 49 21
f 90 48 50
f 49 52 71
f 63 37 93
f 47 51 17
f 51 19 17
f 75 54 53
f 59 75 53
f 56 28 57
f 28 29 57
f 57 29 61
f 55 59 53
f 56 59 55
f 59 56 76
f 76 56 57
f 58 76 57
f 61 58 57
f 61 80 58
f 30 64 33
f 33 64 60
f 60 64 62
f 63 64 30
f 61 62 80
f 66 65 68
f 66 70 65
f 82 70 88
f 82 65 70
f 68 65 81
f 81 65 82
f 67 68 84
f 69 67 85
f 85 67 84
f 84 68 83
f 66 1521 70
f 69 44 67
f 47 46 92
f 51 47 92
f 45 91 46
f 87 45 69
f 87 91 45
f 46 91 92
f 54 71 52
f 50 71 89
f 90 50 89
f 73 71 54
f 72 73 54
f 73 89 71
f 75 74 72
f 77 74 75
f 95 74 77
f 94 73 72
f 95 77 98
f 51 93 19
f 102 64 63
f 103 64 102
f 103 80 64
f 72 54 75
f 79 58 80
f 59 77 75
f 76 58 78
f 77 59 76
f 78 58 79
f 78 77 76
f 78 98 77
f 98 78 97
f 97 78 79
f 80 62 64
f 83 81 105
f 83 68 81
f 107 81 82
f 69 85 86
f 69 86 87
f 86 117 87
f 92 91 142
f 87 117 91
f 147 92 142
f 114 88 90
f 89 114 90
f 123 51 92
f 93 51 123
f 147 123 92
f 124 104 93
f 72 96 94
f 72 74 96
f 95 96 74
f 96 121 94
f 100 95 98
f 119 121 96
f 79 80 99
f 97 79 99
f 103 101 99
f 103 128 101
f 97 100 98
f 100 97 125
f 97 99 125
f 125 99 126
f 99 101 126
f 104 102 63
f 128 103 102
f 103 99 80
f 104 63 93
f 128 102 104
f 109 111 106
f 134 115 135
f 83 105 106
f 107 105 81
f 107 109 105
f 107 108 110
f 108 82 115
f 108 107 82
f 109 106 105
f 107 110 109
f 110 108 134
f 134 108 115
f 106 111 112
f 111 130 113
f 112 111 113
f 84 83 106
f 112 113 84
f 86 85 113
f 112 84 106
f 84 113 85
f 86 113 136
f 132 136 113
f 132 133 136
f 136 137 86
f 114 115 88
f 114 135 115
f 135 114 116
f 116 114 89
f 140 116 89
f 115 82 88
f 117 86 137
f 142 117 137
f 91 117 142
f 140 89 73
f 94 140 73
f 119 118 141
f 120 148 118
f 148 141 118
f 151 122 128
f 126 153 125
f 155 124 146
f 155 151 124
f 126 127 154
f 152 127 122
f 124 93 146
f 146 93 123
f 128 104 124
f 123 147 146
f 151 128 124
f 118 119 96
f 118 96 95
f 118 95 100
f 120 100 125
f 120 118 100
f 153 120 125
f 126 101 127
f 128 127 101
f 128 122 127
f 129 110 134
f 168 129 134
f 131 111 109
f 110 131 109
f 131 130 111
f 113 130 132
f 131 110 129
f 129 162 131
f 132 167 133
f 133 167 137
f 168 134 135
f 169 168 135
f 169 135 139
f 139 135 116
f 169 139 140
f 137 136 133
f 142 138 147
f 172 138 142
f 138 172 174
f 173 138 174
f 139 116 140
f 140 94 121
f 121 177 140
f 119 177 121
f 149 179 141
f 149 150 180
f 150 159 188
f 143 146 147
f 143 144 146
f 144 155 146
f 158 155 144
f 138 173 143
f 147 138 143
f 144 145 158
f 144 143 187
f 185 145 144
f 187 143 173
f 185 144 187
f 185 186 145
f 186 160 145
f 153 148 120
f 119 141 177
f 148 149 141
f 153 157 159
f 153 149 148
f 150 149 153
f 159 150 153
f 152 122 151
f 127 152 154
f 126 154 153
f 152 157 154
f 154 157 153
f 158 156 151
f 158 151 155
f 156 152 151
f 156 157 152
f 160 157 156
f 145 156 158
f 145 160 156
f 160 188 159
f 159 157 160
f 161 198 165
f 163 161 162
f 168 164 129
f 164 162 129
f 199 165 198
f 165 162 161
f 163 162 164
f 164 168 201
f 168 202 201
f 162 165 131
f 131 165 130
f 130 165 166
f 170 132 166
f 199 170 166
f 165 199 166
f 200 170 199
f 167 170 200
f 205 172 204
f 168 169 202
f 130 166 132
f 132 170 167
f 137 167 204
f 137 204 142
f 211 174 172
f 172 142 204
f 207 169 140
f 140 177 214
f 140 214 208
f 214 177 215
f 215 177 178
f 215 178 171
f 175 173 174
f 175 187 173
f 174 224 175
f 175 189 187
f 224 174 211
f 189 175 225
f 225 176 189
f 225 175 224
f 178 177 141
f 179 149 180
f 178 141 179
f 181 188 183
f 181 150 188
f 182 180 184
f 180 182 179
f 150 181 180
f 182 171 178
f 182 178 179
f 171 182 218
f 184 218 182
f 181 184 180
f 183 190 226
f 181 226 184
f 183 226 181
f 186 185 189
f 187 189 185
f 188 160 186
f 183 188 186
f 190 183 186
f 176 186 189
f 176 190 186
f 248 191 249
f 249 191 195
f 194 256 195
f 196 253 194
f 195 256 249
f 194 253 256
f 161 191 192
f 198 161 192
f 248 192 191
f 193 198 192
f 248 251 192
f 193 192 251
f 252 257 193
f 164 194 163
f 161 195 191
f 195 161 163
f 195 163 194
f 197 258 254
f 253 196 197
f 197 254 253
f 198 193 199
f 200 199 193
f 257 167 200
f 204 167 257
f 257 200 193
f 257 339 204
f 201 196 194
f 197 202 203
f 197 201 202
f 196 201 197
f 258 197 203
f 207 258 203
f 194 164 201
f 259 205 204
f 269 205 259
f 206 213 211
f 206 205 269
f 206 211 205
f 269 270 206
f 271 213 206
f 205 211 172
f 202 169 203
f 203 169 207
f 208 348 207
f 208 207 140
f 220 212 210
f 225 212 220
f 220 210 222
f 210 212 279
f 279 212 213
f 277 222 280
f 279 213 271
f 210 281 280
f 281 210 279
f 210 280 222
f 211 213 224
f 212 225 224
f 213 212 224
f 208 214 216
f 215 216 214
f 217 215 171
f 218 217 171
f 216 215 217
f 209 217 218
f 190 219 226
f 221 184 226
f 218 184 221
f 221 226 219
f 219 190 220
f 219 220 222
f 209 221 223
f 221 209 218
f 221 222 223
f 219 222 221
f 223 222 277
f 176 225 220
f 220 190 176
f 228 229 227
f 228 311 325
f 230 229 232
f 230 232 237
f 236 237 232
f 228 231 229
f 228 325 231
f 325 233 231
f 229 231 232
f 231 234 232
f 231 233 234
f 325 235 233
f 325 326 235
f 232 234 236
f 233 235 234
f 234 235 236
f 326 242 235
f 235 242 236
f 326 238 242
f 236 239 237
f 236 242 239
f 331 243 238
f 242 241 239
f 239 241 244
f 238 243 240
f 238 240 242
f 242 240 241
f 243 331 251
f 241 245 244
f 241 240 245
f 244 245 246
f 246 329 244
f 251 250 240
f 240 243 251
f 251 331 252
f 252 193 251
f 252 331 332
f 329 246 247
f 247 246 254
f 247 334 329
f 247 337 334
f 247 254 337
f 245 250 248
f 250 251 248
f 245 249 256
f 249 245 248
f 246 245 256
f 240 250 245
f 252 332 339
f 254 246 253
f 347 255 207
f 254 255 337
f 348 347 207
f 337 255 347
f 253 246 256
f 257 252 339
f 261 353 355
f 264 338 348
f 254 258 255
f 258 207 255
f 204 340 259
f 259 260 269
f 259 340 260
f 269 260 270
f 261 270 260
f 260 340 353
f 260 353 261
f 262 275 272
f 261 262 272
f 275 262 367
f 208 264 348
f 263 264 208
f 216 276 263
f 263 276 265
f 263 265 264
f 264 265 363
f 265 276 369
f 278 277 266
f 276 278 369
f 267 277 282
f 369 278 266
f 266 267 371
f 277 267 266
f 268 275 367
f 274 275 268
f 268 267 274
f 370 369 266
f 370 266 371
f 270 271 206
f 261 272 270
f 272 273 271
f 270 272 271
f 281 273 274
f 282 274 267
f 275 273 272
f 275 274 273
f 263 208 216
f 217 276 216
f 217 209 276
f 209 223 277
f 276 209 278
f 277 278 209
f 273 281 279
f 273 279 271
f 281 282 280
f 282 281 274
f 280 282 277
f 382 383 292
f 288 379 381
f 381 283 288
f 383 284 292
f 291 288 283
f 382 285 283
f 382 292 285
f 289 288 286
f 288 291 286
f 289 286 287
f 290 289 287
f 289 290 388
f 290 397 388
f 285 305 308
f 291 285 308
f 292 305 285
f 283 285 291
f 291 301 286
f 292 284 293
f 294 295 296
f 284 294 293
f 296 314 312
f 296 312 293
f 296 293 294
f 297 314 296
f 295 297 296
f 301 298 286
f 290 287 298
f 298 287 286
f 290 298 299
f 290 299 397
f 397 299 398
f 300 301 291
f 291 308 300
f 322 302 309
f 309 302 301
f 301 302 298
f 298 302 303
f 298 303 299
f 299 303 304
f 303 320 304
f 398 299 304
f 293 310 305
f 305 306 308
f 310 227 305
f 305 227 306
f 307 309 300
f 300 308 307
f 308 306 307
f 307 306 230
f 230 306 229
f 227 229 306
f 307 230 321
f 293 305 292
f 293 312 310
f 300 309 301
f 297 316 314
f 312 311 310
f 310 228 227
f 311 228 310
f 311 313 325
f 314 315 312
f 311 312 313
f 312 315 313
f 315 327 313
f 317 314 316
f 317 315 314
f 318 317 316
f 332 315 317
f 317 318 319
f 319 332 317
f 297 395 316
f 316 395 318
f 395 409 318
f 409 319 318
f 320 303 302
f 322 320 302
f 324 304 320
f 324 320 323
f 398 304 324
f 307 321 309
f 321 230 237
f 321 322 309
f 323 320 322
f 324 414 413
f 325 313 326
f 327 326 313
f 323 330 324
f 414 324 467
f 467 324 335
f 321 330 322
f 237 330 321
f 324 330 335
f 327 315 332
f 322 330 323
f 238 326 331
f 327 331 326
f 327 332 331
f 328 332 319
f 409 328 319
f 239 329 237
f 239 244 329
f 237 329 330
f 334 335 330
f 339 332 341
f 333 341 332
f 332 328 333
f 341 333 336
f 329 334 330
f 348 467 335
f 342 341 336
f 336 343 342
f 336 465 343
f 338 467 348
f 469 467 338
f 334 337 335
f 335 337 348
f 338 349 469
f 349 350 469
f 345 465 476
f 339 341 204
f 204 341 340
f 341 342 340
f 342 353 340
f 342 344 353
f 355 353 344
f 342 343 344
f 343 345 344
f 343 465 345
f 346 344 345
f 345 480 346
f 344 346 355
f 337 347 348
f 349 338 363
f 349 363 350
f 479 350 486
f 364 350 363
f 350 364 486
f 486 364 365
f 486 365 351
f 358 359 360
f 486 351 487
f 487 351 352
f 355 358 354
f 360 357 356
f 357 354 356
f 356 354 358
f 360 352 357
f 358 355 346
f 358 360 356
f 359 358 346
f 363 338 264
f 363 265 361
f 265 369 361
f 362 361 369
f 370 362 369
f 362 370 365
f 365 370 366
f 364 363 361
f 364 361 362
f 364 362 365
f 352 351 366
f 366 351 365
f 261 355 262
f 354 262 355
f 367 262 354
f 268 367 357
f 357 367 354
f 370 371 366
f 371 368 366
f 368 371 268
f 368 268 357
f 368 357 352
f 368 352 366
f 268 371 267
f 654 652 372
f 652 659 374
f 652 374 372
f 374 379 372
f 372 379 672
f 376 375 659
f 659 375 374
f 676 672 379
f 380 676 379
f 676 380 689
f 373 382 374
f 374 381 379
f 381 374 382
f 375 376 373
f 374 375 373
f 382 373 383
f 383 377 284
f 376 383 373
f 378 383 376
f 378 377 383
f 377 685 385
f 685 377 378
f 384 685 686
f 382 283 381
f 284 377 385
f 384 385 685
f 379 289 380
f 288 289 379
f 380 289 388
f 690 391 707
f 385 294 284
f 294 385 295
f 384 295 385
f 386 295 384
f 384 387 393
f 393 387 705
f 380 388 389
f 388 397 389
f 389 399 390
f 389 397 399
f 390 690 389
f 390 391 690
f 391 390 399
f 708 707 391
f 392 708 391
f 391 399 392
f 392 711 708
f 392 401 711
f 386 297 295
f 393 705 394
f 705 706 394
f 715 394 700
f 297 386 395
f 386 384 393
f 395 386 393
f 396 395 393
f 393 394 396
f 405 396 394
f 405 394 715
f 399 397 398
f 398 400 399
f 400 398 412
f 399 400 392
f 402 401 400
f 403 401 402
f 400 401 392
f 401 404 712
f 412 402 400
f 401 403 404
f 712 404 713
f 405 715 406
f 406 407 426
f 396 409 395
f 396 410 409
f 410 396 405
f 406 411 405
f 411 410 405
f 427 410 411
f 406 426 411
f 412 398 324
f 412 324 413
f 413 402 412
f 415 413 414
f 415 402 413
f 416 402 415
f 416 415 417
f 418 402 416
f 417 420 416
f 420 418 416
f 403 402 418
f 419 403 418
f 420 419 418
f 420 421 419
f 419 421 423
f 404 422 408
f 403 422 404
f 424 422 425
f 422 403 419
f 419 423 422
f 422 423 425
f 407 408 429
f 408 422 424
f 408 424 429
f 424 425 429
f 411 426 427
f 425 423 434
f 429 428 407
f 407 428 426
f 427 430 410
f 467 415 414
f 467 417 415
f 421 420 432
f 421 432 433
f 433 434 423
f 421 433 423
f 429 425 436
f 429 436 428
f 425 434 436
f 430 443 410
f 430 427 426
f 430 435 445
f 443 430 445
f 430 426 435
f 426 428 435
f 431 417 467
f 431 420 417
f 431 432 420
f 468 432 431
f 432 449 433
f 434 433 450
f 433 449 450
f 428 437 435
f 445 435 448
f 428 436 437
f 435 437 459
f 435 459 448
f 437 436 439
f 437 439 459
f 434 438 436
f 436 438 439
f 450 438 434
f 438 450 439
f 328 409 440
f 328 440 333
f 333 440 464
f 440 442 464
f 410 441 409
f 409 441 440
f 441 442 440
f 443 441 410
f 443 442 441
f 444 442 443
f 446 443 445
f 443 446 444
f 445 448 446
f 446 448 447
f 447 448 459
f 446 447 444
f 467 468 431
f 449 432 468
f 449 468 470
f 469 470 468
f 449 470 451
f 470 472 451
f 451 472 462
f 450 449 451
f 439 460 459
f 450 451 452
f 450 452 439
f 439 452 460
f 452 451 462
f 452 462 460
f 442 466 464
f 444 466 442
f 444 453 466
f 453 454 477
f 473 454 458
f 454 473 477
f 461 455 447
f 444 447 455
f 444 455 453
f 455 454 453
f 455 456 454
f 458 454 456
f 463 458 456
f 463 457 458
f 462 472 457
f 447 459 461
f 459 460 461
f 461 460 463
f 456 461 463
f 461 456 455
f 460 462 463
f 463 462 457
f 333 464 336
f 336 464 465
f 464 466 465
f 466 477 465
f 466 453 477
f 468 467 469
f 469 350 470
f 350 471 470
f 472 471 474
f 470 471 472
f 458 474 475
f 458 475 473
f 472 474 457
f 457 474 458
f 478 473 482
f 476 477 478
f 477 476 465
f 475 483 473
f 477 473 478
f 471 484 474
f 471 350 479
f 484 471 479
f 475 474 484
f 345 476 480
f 480 482 346
f 482 481 359
f 482 359 346
f 484 479 486
f 359 481 360
f 476 478 480
f 478 482 480
f 483 481 482
f 485 481 483
f 485 487 481
f 487 484 486
f 352 481 487
f 473 483 482
f 475 485 483
f 475 484 485
f 485 484 487
f 352 360 481
f 490 493 488
f 491 488 489
f 489 488 503
f 496 493 490
f 491 490 488
f 725 491 492
f 491 489 492
f 492 501 779
f 492 489 501
f 489 503 501
f 493 497 495
f 493 496 494
f 494 497 493
f 488 495 503
f 495 488 493
f 494 749 499
f 494 499 497
f 499 498 497
f 497 509 507
f 497 498 509
f 498 514 509
f 498 500 514
f 499 500 498
f 499 750 500
f 503 779 501
f 505 779 503
f 495 507 502
f 495 497 507
f 504 502 507
f 504 507 510
f 503 495 502
f 503 502 505
f 502 504 505
f 505 504 506
f 504 510 506
f 783 505 506
f 507 509 508
f 509 514 513
f 508 510 507
f 509 513 508
f 513 512 508
f 508 512 510
f 506 510 511
f 510 512 511
f 787 511 788
f 511 512 788
f 787 506 511
f 514 789 513
f 513 790 512
f 788 512 790
f 515 520 551
f 803 524 515
f 803 515 860
f 860 515 551
f 808 524 802
f 803 802 524
f 519 516 517
f 520 519 517
f 520 517 555
f 517 554 555
f 518 521 528
f 522 521 518
f 519 518 516
f 519 522 518
f 520 523 519
f 520 555 551
f 521 807 531
f 531 528 521
f 524 523 515
f 523 522 519
f 523 524 522
f 520 515 523
f 521 522 808
f 522 524 808
f 526 538 525
f 526 537 538
f 554 517 525
f 518 526 516
f 537 526 539
f 517 516 525
f 526 525 516
f 532 533 527
f 530 532 527
f 527 533 541
f 528 530 529
f 530 527 529
f 529 527 539
f 541 539 527
f 526 518 528
f 529 526 528
f 539 526 529
f 530 531 532
f 530 528 531
f 543 541 533
f 807 534 531
f 534 535 532
f 531 534 532
f 533 532 535
f 811 533 535
f 543 533 811
f 534 757 535
f 535 757 811
f 536 540 545
f 536 569 538
f 536 545 569
f 539 540 537
f 537 536 538
f 537 540 536
f 539 541 540
f 540 546 545
f 540 541 542
f 546 540 542
f 542 541 543
f 544 542 543
f 544 546 542
f 547 546 544
f 812 544 543
f 812 547 544
f 811 812 543
f 545 573 568
f 545 568 569
f 545 546 573
f 546 548 573
f 548 546 547
f 550 548 547
f 547 819 550
f 822 550 819
f 548 582 581
f 549 582 548
f 549 548 550
f 583 549 550
f 583 550 822
f 555 552 551
f 553 552 558
f 553 558 866
f 554 556 555
f 554 557 556
f 557 554 559
f 556 552 555
f 552 556 558
f 558 556 557
f 558 557 561
f 558 561 867
f 867 561 869
f 563 554 525
f 525 538 563
f 559 554 563
f 560 559 564
f 557 559 560
f 560 561 557
f 560 564 562
f 869 561 562
f 560 562 561
f 538 569 570
f 538 570 563
f 570 559 563
f 564 559 586
f 879 564 587
f 562 564 879
f 562 879 881
f 573 577 568
f 565 570 569
f 569 566 565
f 569 568 566
f 577 566 568
f 565 567 570
f 565 566 567
f 566 575 567
f 571 567 588
f 578 577 573
f 571 570 567
f 571 559 570
f 586 559 572
f 572 559 571
f 577 578 574
f 566 577 574
f 566 574 575
f 574 578 579
f 574 579 575
f 575 576 567
f 575 579 589
f 567 576 588
f 575 590 576
f 575 589 590
f 576 590 588
f 578 573 581
f 578 581 580
f 579 578 580
f 581 573 548
f 582 580 581
f 585 582 549
f 580 582 585
f 583 585 549
f 579 591 589
f 580 591 579
f 591 580 584
f 584 580 585
f 583 889 585
f 564 586 587
f 595 571 588
f 571 595 572
f 572 595 596
f 586 597 587
f 907 587 597
f 586 572 598
f 586 598 597
f 588 590 595
f 590 601 595
f 590 600 601
f 590 589 600
f 591 604 589
f 591 592 604
f 592 591 584
f 889 919 585
f 919 584 585
f 609 607 592
f 584 593 592
f 593 594 592
f 592 594 609
f 584 919 593
f 610 609 594
f 931 610 594
f 598 572 596
f 597 935 907
f 602 595 601
f 602 596 595
f 598 596 602
f 599 597 598
f 599 598 603
f 602 603 598
f 599 935 597
f 938 599 603
f 955 938 603
f 589 604 600
f 604 605 600
f 601 600 606
f 602 601 606
f 614 603 615
f 603 602 615
f 614 955 603
f 604 607 605
f 600 605 606
f 605 608 606
f 605 607 608
f 592 607 604
f 607 611 621
f 609 612 611
f 611 607 609
f 612 631 629
f 612 629 611
f 609 610 612
f 613 631 612
f 610 613 612
f 610 949 613
f 613 949 959
f 953 959 949
f 615 602 616
f 614 615 616
f 617 614 616
f 617 616 642
f 617 955 614
f 955 617 956
f 608 622 606
f 607 621 608
f 621 622 608
f 606 622 618
f 602 606 618
f 622 624 618
f 602 618 619
f 619 618 624
f 616 602 620
f 620 602 619
f 617 642 643
f 956 617 643
f 966 956 643
f 621 623 622
f 621 626 623
f 622 625 624
f 622 623 625
f 626 627 623
f 623 627 651
f 645 624 625
f 623 651 625
f 611 629 628
f 621 611 626
f 628 626 611
f 626 628 627
f 619 624 644
f 644 624 645
f 627 630 659
f 628 632 630
f 630 627 628
f 660 659 630
f 629 631 632
f 629 632 628
f 630 633 660
f 631 634 632
f 634 633 632
f 632 633 630
f 634 631 613
f 634 635 633
f 635 638 633
f 636 634 613
f 636 635 634
f 637 635 636
f 613 959 636
f 960 636 959
f 637 636 960
f 660 376 659
f 633 638 660
f 637 638 635
f 638 637 639
f 638 639 640
f 640 661 638
f 639 637 960
f 639 960 965
f 640 639 965
f 616 620 641
f 620 619 641
f 616 641 642
f 643 642 650
f 966 643 650
f 645 625 653
f 653 625 651
f 619 644 647
f 646 647 644
f 644 645 646
f 653 646 645
f 655 646 653
f 641 647 648
f 641 619 647
f 647 646 648
f 649 648 655
f 648 646 655
f 649 655 657
f 642 641 648
f 642 648 650
f 648 649 650
f 649 658 650
f 657 658 649
f 966 650 658
f 658 970 966
f 627 652 651
f 659 652 627
f 653 651 654
f 654 651 652
f 656 653 654
f 653 656 655
f 657 655 656
f 657 656 664
f 657 666 658
f 664 666 657
f 658 668 970
f 661 378 660
f 638 661 660
f 661 662 681
f 640 662 661
f 662 640 976
f 662 976 989
f 663 656 654
f 663 664 656
f 664 663 665
f 664 667 666
f 664 665 667
f 666 667 669
f 668 658 666
f 669 668 666
f 667 671 669
f 970 668 669
f 982 970 669
f 671 982 669
f 660 378 376
f 378 661 681
f 665 673 670
f 665 670 667
f 671 667 670
f 671 670 679
f 672 673 663
f 654 672 663
f 654 372 672
f 663 673 665
f 673 672 676
f 677 673 676
f 673 677 670
f 662 675 681
f 662 989 675
f 670 677 678
f 677 676 678
f 676 689 678
f 682 678 689
f 678 679 670
f 679 678 682
f 680 671 679
f 680 679 683
f 684 680 683
f 674 671 680
f 684 674 680
f 674 684 987
f 987 684 992
f 675 686 681
f 689 690 682
f 690 691 682
f 683 679 682
f 691 683 682
f 684 683 691
f 691 693 684
f 684 693 993
f 681 685 378
f 686 685 681
f 675 687 686
f 686 687 387
f 675 989 687
f 989 688 687
f 380 389 689
f 689 389 690
f 692 690 707
f 691 690 692
f 707 709 692
f 692 693 691
f 692 709 694
f 694 710 698
f 693 692 694
f 693 694 993
f 993 694 695
f 695 694 698
f 695 698 1000
f 698 1003 1000
f 687 688 696
f 688 999 696
f 999 1002 697
f 999 697 696
f 696 697 702
f 384 686 387
f 696 706 687
f 710 694 709
f 698 710 713
f 1003 698 699
f 1003 699 704
f 387 687 705
f 687 706 705
f 696 702 700
f 706 696 700
f 702 701 700
f 702 703 701
f 701 703 704
f 703 697 1002
f 697 703 702
f 1002 704 703
f 707 708 709
f 710 709 708
f 699 698 713
f 711 710 708
f 710 711 712
f 401 712 711
f 713 710 712
f 704 699 408
f 713 408 699
f 706 700 394
f 408 714 704
f 714 701 704
f 701 714 700
f 700 714 715
f 408 407 714
f 713 404 408
f 715 714 406
f 406 714 407
f 724 716 717
f 717 716 773
f 724 717 718
f 717 719 718
f 773 767 719
f 717 773 719
f 720 721 730
f 769 716 721
f 721 720 769
f 722 727 721
f 730 721 727
f 721 716 722
f 727 723 729
f 722 723 727
f 722 724 723
f 724 722 716
f 723 1008 1009
f 729 723 1009
f 723 724 1008
f 718 1008 724
f 725 730 491
f 730 725 720
f 720 725 726
f 731 726 725
f 779 726 731
f 727 732 730
f 726 774 720
f 729 728 732
f 732 727 729
f 729 1021 728
f 1009 1022 729
f 1022 1021 729
f 725 492 731
f 779 731 492
f 730 732 738
f 732 733 738
f 728 734 732
f 732 734 733
f 728 1021 734
f 735 736 490
f 491 735 490
f 496 490 736
f 737 744 736
f 735 737 736
f 736 744 742
f 735 730 738
f 730 735 491
f 735 738 737
f 738 733 737
f 733 739 737
f 737 739 744
f 739 746 744
f 733 734 739
f 739 734 740
f 746 739 740
f 740 748 746
f 741 748 740
f 736 742 496
f 742 743 496
f 494 496 743
f 743 749 494
f 744 743 742
f 744 745 743
f 749 743 745
f 745 744 746
f 747 745 746
f 748 747 746
f 748 752 747
f 741 1042 748
f 750 499 749
f 749 751 750
f 745 751 749
f 747 752 745
f 748 1047 752
f 500 750 753
f 753 750 751
f 751 745 752
f 754 753 751
f 751 1050 754
f 806 1058 755
f 1058 756 755
f 1058 1059 756
f 755 756 807
f 756 1059 759
f 1059 760 759
f 1111 760 1059
f 809 760 1112
f 1112 760 1111
f 756 757 534
f 807 756 534
f 757 759 758
f 756 759 757
f 759 809 758
f 758 809 815
f 760 809 759
f 766 829 831
f 766 831 761
f 761 1122 1061
f 762 826 763
f 829 763 826
f 773 764 765
f 765 764 766
f 766 764 763
f 766 763 829
f 767 765 768
f 767 773 765
f 768 766 1061
f 768 765 766
f 1061 766 761
f 768 1062 767
f 1062 768 1061
f 770 716 769
f 762 763 770
f 770 771 762
f 770 769 771
f 769 720 771
f 720 774 772
f 771 720 772
f 770 764 716
f 770 763 764
f 774 839 772
f 716 764 773
f 839 775 1076
f 839 1076 840
f 775 839 774
f 774 777 775
f 775 777 1077
f 774 726 776
f 726 779 776
f 776 779 777
f 777 779 780
f 774 776 777
f 780 781 778
f 778 777 780
f 777 778 1086
f 777 1086 1079
f 777 1079 1077
f 782 780 779
f 781 780 782
f 778 781 1091
f 778 1091 1090
f 783 782 779
f 781 783 784
f 782 783 781
f 781 784 785
f 1091 781 785
f 1091 785 1092
f 779 505 783
f 784 783 787
f 1092 785 786
f 786 785 1100
f 787 783 506
f 843 842 787
f 784 787 842
f 785 784 842
f 789 790 513
f 787 788 843
f 843 788 848
f 848 788 847
f 847 788 790
f 500 791 514
f 500 753 791
f 514 791 789
f 789 792 790
f 789 791 793
f 852 792 789
f 792 847 790
f 792 852 847
f 793 852 789
f 754 794 791
f 791 794 793
f 794 795 793
f 793 796 852
f 791 753 754
f 754 801 794
f 794 801 795
f 793 795 796
f 795 797 796
f 1051 801 754
f 798 862 857
f 798 804 862
f 795 801 800
f 800 799 804
f 795 800 798
f 800 804 798
f 795 798 797
f 797 798 857
f 799 800 801
f 805 801 1051
f 799 801 805
f 803 860 804
f 860 862 804
f 799 805 802
f 802 803 799
f 803 804 799
f 802 805 806
f 805 1056 806
f 808 802 806
f 1056 1058 806
f 521 808 807
f 807 808 755
f 806 755 808
f 757 758 811
f 817 815 809
f 810 817 809
f 810 1112 1115
f 809 1112 810
f 1115 818 810
f 813 812 811
f 819 812 813
f 812 819 547
f 758 813 811
f 819 813 814
f 758 815 813
f 815 814 813
f 820 819 814
f 815 816 814
f 814 816 820
f 816 815 817
f 818 817 810
f 821 816 817
f 817 818 821
f 818 887 821
f 818 1117 887
f 820 822 819
f 890 822 820
f 820 816 890
f 826 834 824
f 827 824 825
f 824 834 825
f 834 836 825
f 825 828 827
f 828 825 836
f 824 830 826
f 830 824 827
f 893 830 827
f 901 893 827
f 827 828 901
f 901 828 900
f 828 899 900
f 828 836 899
f 836 837 899
f 831 830 832
f 829 830 831
f 826 830 829
f 830 823 832
f 823 830 893
f 761 831 832
f 761 832 1121
f 1121 832 1119
f 1119 832 823
f 826 762 834
f 762 833 834
f 762 771 833
f 771 772 833
f 833 772 835
f 834 833 836
f 833 835 836
f 835 837 836
f 839 837 835
f 837 839 838
f 838 839 841
f 839 835 772
f 839 840 841
f 842 843 845
f 845 785 842
f 1137 785 846
f 1137 1100 785
f 845 843 844
f 848 844 843
f 846 785 845
f 846 845 850
f 845 844 850
f 846 850 1140
f 856 848 847
f 848 856 853
f 848 853 849
f 849 844 848
f 849 853 851
f 850 849 851
f 844 849 850
f 850 851 1140
f 852 856 847
f 1149 853 856
f 852 796 854
f 796 797 854
f 854 856 852
f 797 855 854
f 797 857 855
f 855 857 859
f 856 854 855
f 859 856 855
f 1149 856 859
f 858 857 863
f 859 857 858
f 858 1151 859
f 860 551 861
f 863 861 553
f 857 862 863
f 862 861 863
f 860 861 862
f 863 553 858
f 1151 858 864
f 865 1151 864
f 864 868 865
f 1151 865 1152
f 865 870 1155
f 552 861 551
f 553 861 552
f 558 867 866
f 858 553 866
f 864 858 866
f 864 866 867
f 867 868 864
f 868 867 870
f 865 868 870
f 1155 870 871
f 874 869 562
f 869 870 867
f 870 869 874
f 870 874 871
f 873 871 872
f 876 877 872
f 872 1164 873
f 874 562 881
f 881 875 874
f 871 874 875
f 872 871 875
f 872 875 876
f 883 876 875
f 883 885 878
f 883 878 876
f 878 885 1166
f 876 878 877
f 880 881 879
f 587 880 879
f 882 881 880
f 883 875 881
f 883 881 882
f 882 880 908
f 884 883 882
f 884 882 908
f 884 885 883
f 884 886 888
f 887 1168 888
f 1168 885 888
f 888 885 884
f 886 884 908
f 886 908 909
f 910 886 909
f 886 910 888
f 821 892 816
f 887 892 821
f 911 887 888
f 888 910 911
f 889 583 822
f 890 889 822
f 890 816 892
f 911 892 887
f 889 890 914
f 892 891 890
f 889 914 913
f 919 889 913
f 896 893 901
f 896 901 894
f 823 893 1169
f 1169 893 896
f 897 896 894
f 895 897 894
f 894 903 895
f 903 906 895
f 1169 896 1170
f 1170 896 897
f 1170 897 1171
f 1172 1171 897
f 895 898 897
f 898 1172 897
f 906 898 895
f 898 906 1190
f 901 900 903
f 900 899 904
f 837 838 902
f 902 904 899
f 837 902 899
f 901 903 894
f 903 900 904
f 902 905 904
f 902 838 1177
f 904 906 903
f 905 902 1177
f 906 904 905
f 838 841 1179
f 1177 838 1179
f 906 905 1178
f 1178 905 1177
f 907 880 587
f 908 880 907
f 936 908 907
f 936 909 908
f 909 936 937
f 909 937 912
f 910 909 912
f 891 915 890
f 890 915 914
f 892 916 915
f 892 915 891
f 892 917 916
f 911 917 892
f 917 911 918
f 911 910 918
f 910 912 943
f 910 943 918
f 918 943 946
f 920 594 593
f 931 594 920
f 919 913 921
f 921 593 919
f 921 920 593
f 932 931 920
f 921 913 914
f 923 921 914
f 923 922 921
f 922 920 921
f 932 920 922
f 924 922 923
f 922 924 925
f 922 925 932
f 925 933 932
f 914 915 923
f 926 927 924
f 926 924 923
f 926 923 915
f 924 927 925
f 927 934 925
f 934 933 925
f 916 928 915
f 917 928 916
f 926 915 928
f 928 927 926
f 929 934 927
f 929 927 928
f 928 930 929
f 917 930 928
f 917 918 930
f 918 946 930
f 930 946 947
f 932 933 953
f 933 954 953
f 951 950 934
f 950 933 934
f 933 950 954
f 951 934 929
f 935 936 907
f 938 935 599
f 939 935 938
f 939 936 935
f 940 937 936
f 940 936 939
f 937 941 912
f 940 941 937
f 941 942 912
f 939 938 955
f 944 941 940
f 942 945 948
f 941 945 942
f 945 941 944
f 943 912 942
f 943 942 946
f 946 942 948
f 944 952 945
f 947 929 930
f 951 929 947
f 948 945 952
f 948 952 947
f 946 948 947
f 949 610 931
f 953 931 932
f 954 950 951
f 953 949 931
f 954 961 953
f 957 954 951
f 961 959 953
f 939 955 956
f 940 939 956
f 940 967 944
f 952 944 969
f 952 969 947
f 958 957 951
f 951 947 958
f 961 960 959
f 960 961 963
f 954 962 961
f 962 963 961
f 957 962 954
f 962 964 963
f 957 964 962
f 964 957 972
f 963 964 978
f 980 978 964
f 957 958 972
f 964 972 980
f 963 965 960
f 963 978 965
f 965 978 977
f 940 956 967
f 967 956 966
f 970 971 966
f 971 967 966
f 944 968 969
f 968 944 967
f 967 971 968
f 968 971 973
f 969 968 973
f 958 947 969
f 958 969 974
f 969 973 974
f 970 982 971
f 972 981 980
f 973 971 975
f 975 971 982
f 972 958 981
f 958 974 981
f 973 975 983
f 973 983 974
f 975 984 983
f 981 974 983
f 977 640 965
f 976 640 977
f 976 977 979
f 979 977 978
f 978 980 979
f 979 980 989
f 981 991 980
f 983 991 981
f 976 979 989
f 671 674 982
f 985 982 674
f 983 984 988
f 984 975 986
f 986 988 984
f 982 985 975
f 989 980 991
f 985 986 975
f 985 674 987
f 985 987 992
f 985 992 986
f 986 992 988
f 988 998 983
f 990 989 991
f 997 991 983
f 997 995 991
f 684 993 992
f 993 988 992
f 688 989 990
f 988 993 994
f 996 994 1000
f 990 991 999
f 999 991 995
f 998 988 994
f 996 998 994
f 983 998 997
f 997 998 996
f 997 996 995
f 688 990 999
f 994 993 695
f 994 695 1000
f 1000 1001 996
f 1003 1001 1000
f 996 1001 995
f 995 1001 1002
f 995 1002 999
f 1002 1001 1003
f 1002 1003 704
f 1004 1012 718
f 718 719 1004
f 767 1063 1005
f 1004 719 1005
f 719 767 1005
f 1004 1005 1006
f 1005 1063 1006
f 1004 1006 1007
f 1006 1067 1007
f 1012 1008 718
f 1009 1008 1011
f 1011 1023 1009
f 1009 1023 1022
f 1010 1011 1008
f 1008 1012 1010
f 1011 1013 1023
f 1010 1014 1011
f 1014 1013 1011
f 1010 1012 1014
f 1007 1012 1004
f 1013 1014 1015
f 1012 1016 1014
f 1014 1016 1015
f 1012 1007 1016
f 1016 1018 1015
f 1017 1015 1018
f 1031 1017 1018
f 1018 1016 1019
f 1031 1018 1020
f 1018 1019 1020
f 1035 1031 1020
f 1035 1020 1034
f 1019 1084 1020
f 1034 1020 1085
f 1025 1036 1021
f 1022 1025 1021
f 1022 1024 1025
f 1023 1024 1022
f 1013 1024 1023
f 1025 1024 1026
f 1027 1025 1026
f 1013 1028 1024
f 1024 1028 1026
f 1026 1028 1029
f 1026 1029 1027
f 1029 1040 1027
f 1028 1013 1015
f 1017 1028 1015
f 1030 1028 1017
f 1029 1028 1030
f 1029 1032 1040
f 1017 1031 1030
f 1030 1031 1032
f 1030 1032 1029
f 1031 1035 1032
f 1035 1033 1032
f 1085 1088 1034
f 1034 1088 1033
f 1035 1034 1033
f 1021 1036 734
f 1036 1037 734
f 1037 740 734
f 1037 1036 1038
f 1025 1038 1036
f 1038 1025 1027
f 1039 1038 1027
f 1040 1039 1027
f 1032 1041 1040
f 1040 1041 1044
f 1044 1033 1095
f 1033 1088 1095
f 1032 1033 1041
f 1044 1041 1033
f 741 740 1037
f 1042 741 1037
f 1037 1038 1042
f 1042 1038 1039
f 1043 1042 1039
f 1040 1043 1039
f 1040 1044 1043
f 1045 748 1042
f 1045 1042 1043
f 1044 1046 1043
f 1095 1099 1044
f 1044 1099 1098
f 1044 1098 1046
f 748 1045 1047
f 1048 1047 1045
f 1043 1046 1045
f 1048 1045 1046
f 1048 1049 1047
f 1047 1050 752
f 1047 1049 1050
f 1050 751 752
f 1049 1054 1050
f 1050 1052 754
f 754 1052 1051
f 1052 1050 1054
f 1052 1056 1051
f 1051 1056 805
f 1059 1056 1052
f 1059 1052 1053
f 1053 1052 1054
f 1054 1055 1053
f 1053 1055 1057
f 1054 1212 1055
f 1212 1109 1055
f 1212 1054 1211
f 1056 1059 1058
f 1053 1111 1059
f 1053 1057 1111
f 1109 1111 1057
f 1057 1055 1109
f 1061 1122 1060
f 1060 1062 1061
f 767 1062 1063
f 1063 1064 1067
f 1064 1063 1062
f 1060 1064 1062
f 1064 1065 1067
f 1060 1065 1064
f 1066 1067 1065
f 1067 1066 1069
f 1123 1066 1065
f 1060 1123 1065
f 1070 1069 1066
f 1070 1066 1123
f 1074 1132 1073
f 1073 1132 1075
f 1006 1063 1067
f 1081 1071 1068
f 1069 1007 1067
f 1069 1016 1007
f 1071 1081 1083
f 1072 1016 1069
f 1016 1072 1019
f 1072 1069 1070
f 1072 1073 1019
f 1070 1074 1072
f 1072 1074 1073
f 1073 1075 1085
f 1085 1075 1083
f 1071 1075 1133
f 1083 1075 1071
f 1077 1076 775
f 1077 1078 1076
f 1079 1068 1077
f 1068 1078 1077
f 1079 1081 1068
f 1079 1087 1080
f 1081 1079 1080
f 1082 1083 1080
f 1080 1083 1081
f 1083 1082 1085
f 1084 1085 1020
f 1019 1073 1084
f 1084 1073 1085
f 1086 778 1090
f 1086 1090 1087
f 1086 1087 1079
f 1082 1087 1089
f 1087 1082 1080
f 1085 1089 1088
f 1089 1085 1082
f 1091 1094 1090
f 1087 1090 1089
f 1094 1089 1090
f 1094 1088 1089
f 1091 1092 1094
f 1094 1092 1097
f 1096 1097 1092
f 1097 1093 1094
f 1099 1093 1097
f 1093 1095 1088
f 1099 1095 1093
f 1093 1088 1094
f 786 1096 1092
f 1100 1096 786
f 1097 1103 1099
f 1099 1103 1102
f 1103 1097 1096
f 1100 1137 1138
f 1101 1096 1100
f 1101 1100 1138
f 1096 1104 1103
f 1101 1104 1096
f 1139 1101 1138
f 1104 1102 1103
f 1046 1098 1105
f 1102 1098 1099
f 1105 1098 1102
f 1102 1104 1108
f 1139 1104 1101
f 1048 1046 1105
f 1104 1139 1108
f 1106 1048 1105
f 1105 1102 1107
f 1105 1107 1106
f 1108 1107 1102
f 1107 1108 1194
f 1108 1143 1194
f 1195 1204 1049
f 1049 1204 1054
f 1204 1211 1054
f 1212 1223 1109
f 1223 1115 1109
f 1224 1110 1115
f 1109 1115 1111
f 1113 1115 1110
f 1114 1113 1110
f 1110 1162 1114
f 1112 1111 1115
f 1115 1113 1117
f 1118 1117 1113
f 1114 1118 1113
f 1114 1165 1167
f 1115 1117 818
f 878 1166 1167
f 1116 1166 1168
f 1117 1118 1116
f 1118 1114 1167
f 1166 1118 1167
f 1118 1166 1116
f 1117 1116 887
f 1116 1168 887
f 1176 1120 1255
f 1175 1124 1176
f 1126 1124 1175
f 761 1121 1122
f 1120 1121 1119
f 1121 1120 1122
f 1060 1122 1120
f 1060 1124 1123
f 1120 1124 1060
f 1120 1176 1124
f 1070 1123 1125
f 1124 1126 1123
f 1123 1126 1125
f 1125 1126 1127
f 1126 1184 1127
f 1127 1128 1134
f 1135 1129 841
f 1129 1186 1180
f 1129 1130 1186
f 1131 1186 1130
f 1131 1130 1133
f 1186 1131 1128
f 1070 1125 1074
f 1133 1075 1132
f 1125 1134 1074
f 1074 1134 1132
f 1133 1132 1134
f 1127 1134 1125
f 1131 1133 1134
f 1134 1128 1131
f 1076 1078 840
f 840 1135 841
f 840 1078 1135
f 1068 1136 1078
f 1078 1136 1135
f 1136 1129 1135
f 1136 1130 1129
f 1071 1136 1068
f 1071 1133 1130
f 1136 1071 1130
f 1137 846 1141
f 846 1140 1141
f 1138 1137 1141
f 1142 1138 1141
f 1139 1138 1143
f 1142 1143 1138
f 1228 1143 1142
f 1143 1108 1139
f 1228 1227 1143
f 1140 851 1144
f 851 853 1144
f 1144 853 1149
f 1144 1149 1146
f 1141 1140 1145
f 1140 1144 1145
f 1144 1146 1145
f 1145 1146 1148
f 1142 1141 1147
f 1141 1145 1147
f 1147 1145 1148
f 1148 1146 1150
f 1229 1228 1142
f 1229 1142 1147
f 1148 1229 1147
f 1229 1148 1234
f 1148 1150 1234
f 1149 859 1151
f 1146 1149 1151
f 1151 1153 1146
f 1146 1153 1150
f 1150 1153 1235
f 1235 1153 1154
f 1234 1235 1237
f 1235 1154 1241
f 1235 1234 1150
f 1153 1151 1152
f 1152 1157 1153
f 1153 1157 1154
f 1241 1154 1247
f 1154 1159 1247
f 1157 1159 1154
f 1152 865 1155
f 1152 1155 1157
f 1157 1155 1156
f 1159 1157 1156
f 1156 1158 1159
f 1163 1162 1246
f 1158 1160 1159
f 1246 1162 1110
f 1161 1163 1246
f 1163 1161 1160
f 1158 1163 1160
f 1159 1160 1247
f 1155 871 1156
f 871 873 1156
f 1158 1156 873
f 1162 1165 1114
f 873 1164 1158
f 1163 1165 1162
f 1165 1163 1164
f 1164 1163 1158
f 872 877 1164
f 877 1167 1165
f 1165 1164 877
f 877 878 1167
f 885 1168 1166
f 1170 1187 1252
f 1119 823 1169
f 1173 1169 1170
f 1187 1170 1171
f 1172 1187 1171
f 1188 1187 1172
f 1172 1189 1188
f 898 1189 1172
f 1119 1169 1173
f 1173 1170 1252
f 1119 1173 1174
f 1120 1119 1174
f 1174 1173 1255
f 1255 1173 1252
f 1255 1120 1174
f 841 1129 1179
f 1177 1179 1192
f 1178 1190 906
f 1177 1192 1178
f 1180 1181 1179
f 1190 1178 1192
f 1179 1193 1192
f 1181 1193 1179
f 1180 1182 1181
f 1186 1182 1180
f 1128 1185 1186
f 1185 1249 1182
f 1185 1182 1186
f 1183 1182 1249
f 1183 1181 1182
f 1184 1185 1127
f 1127 1185 1128
f 1249 1266 1183
f 1175 1184 1126
f 1250 1184 1175
f 1250 1185 1184
f 1185 1250 1249
f 1180 1179 1129
f 1253 1252 1187
f 1187 1188 1253
f 1253 1188 1280
f 1282 1280 1188
f 1282 1188 1254
f 1188 1189 1254
f 1189 898 1190
f 1254 1189 1190
f 1190 1192 1191
f 1254 1190 1191
f 1192 1193 1191
f 1191 1193 1264
f 1193 1263 1264
f 1263 1193 1262
f 1181 1262 1193
f 1266 1181 1183
f 1266 1262 1181
f 1106 1107 1198
f 1194 1199 1107
f 1048 1106 1196
f 1106 1198 1196
f 1199 1198 1107
f 1049 1048 1195
f 1195 1048 1196
f 1197 1195 1196
f 1200 1196 1198
f 1198 1199 1201
f 1199 1194 1202
f 1196 1200 1197
f 1197 1200 1206
f 1200 1198 1201
f 1201 1202 1203
f 1199 1202 1201
f 1202 1230 1232
f 1202 1232 1203
f 1203 1232 1239
f 1195 1205 1204
f 1195 1197 1205
f 1213 1204 1205
f 1211 1204 1213
f 1205 1207 1213
f 1207 1217 1213
f 1205 1197 1206
f 1207 1205 1206
f 1206 1201 1208
f 1206 1200 1201
f 1207 1222 1217
f 1201 1203 1208
f 1203 1239 1209
f 1209 1239 1210
f 1207 1206 1208
f 1222 1207 1208
f 1208 1203 1209
f 1208 1209 1222
f 1209 1210 1222
f 1211 1214 1212
f 1223 1212 1214
f 1215 1226 1223
f 1214 1211 1213
f 1214 1215 1223
f 1213 1216 1214
f 1217 1216 1213
f 1214 1216 1215
f 1216 1218 1215
f 1219 1215 1218
f 1215 1219 1226
f 1221 1226 1219
f 1242 1246 1221
f 1222 1218 1217
f 1218 1216 1217
f 1218 1222 1220
f 1218 1220 1219
f 1219 1220 1221
f 1245 1220 1222
f 1245 1242 1220
f 1220 1242 1221
f 1245 1222 1210
f 1226 1224 1223
f 1223 1224 1115
f 1224 1225 1110
f 1225 1246 1110
f 1226 1221 1225
f 1226 1225 1224
f 1221 1246 1225
f 1194 1143 1227
f 1227 1228 1230
f 1227 1230 1194
f 1228 1231 1230
f 1231 1228 1229
f 1233 1231 1229
f 1234 1233 1229
f 1202 1194 1230
f 1230 1231 1232
f 1233 1234 1237
f 1237 1235 1238
f 1235 1241 1238
f 1232 1236 1239
f 1231 1236 1232
f 1231 1233 1236
f 1237 1236 1233
f 1240 1236 1237
f 1238 1240 1237
f 1243 1240 1238
f 1241 1243 1238
f 1239 1236 1240
f 1210 1239 1240
f 1243 1210 1240
f 1244 1247 1161
f 1244 1242 1245
f 1244 1161 1242
f 1242 1161 1246
f 1241 1244 1243
f 1247 1244 1241
f 1210 1243 1245
f 1245 1243 1244
f 1160 1161 1247
f 1255 1248 1176
f 1255 1258 1248
f 1248 1259 1176
f 1248 1260 1259
f 1248 1258 1260
f 1259 1175 1176
f 1261 1175 1259
f 1250 1268 1249
f 1266 1249 1268
f 1250 1175 1261
f 1270 1268 1250
f 1261 1270 1250
f 1277 1258 1275
f 1260 1258 1251
f 1277 1251 1258
f 1260 1251 1308
f 1260 1308 1310
f 1278 1256 1252
f 1278 1252 1253
f 1278 1253 1281
f 1280 1281 1253
f 1255 1252 1257
f 1257 1256 1275
f 1257 1252 1256
f 1255 1257 1258
f 1258 1257 1275
f 1259 1311 1261
f 1273 1313 1314
f 1265 1264 1263
f 1262 1265 1263
f 1191 1264 1283
f 1264 1265 1283
f 1267 1265 1262
f 1266 1267 1262
f 1284 1283 1265
f 1269 1267 1266
f 1285 1284 1265
f 1285 1265 1267
f 1269 1266 1268
f 1269 1285 1267
f 1270 1261 1272
f 1270 1271 1268
f 1271 1270 1272
f 1268 1271 1269
f 1273 1271 1313
f 1269 1271 1273
f 1273 1285 1269
f 1313 1271 1272
f 1274 1279 1286
f 1276 1275 1274
f 1276 1274 1294
f 1301 1275 1276
f 1301 1276 1298
f 1298 1276 1294
f 1277 1301 1333
f 1320 1277 1333
f 1301 1327 1333
f 1256 1278 1274
f 1274 1278 1279
f 1278 1281 1279
f 1281 1282 1279
f 1275 1256 1274
f 1277 1275 1301
f 1251 1320 1308
f 1277 1320 1251
f 1281 1280 1282
f 1191 1283 1254
f 1282 1254 1283
f 1284 1285 1342
f 1323 1342 1285
f 1296 1348 1300
f 1327 1300 1328
f 1300 1348 1328
f 1348 1296 1304
f 1286 1279 1288
f 1290 1274 1286
f 1290 1286 1287
f 1286 1288 1287
f 1292 1290 1287
f 1292 1287 1291
f 1291 1287 1288
f 1274 1290 1294
f 1289 1298 1294
f 1289 1294 1290
f 1296 1300 1289
f 1289 1290 1296
f 1290 1292 1296
f 1293 1291 1288
f 1282 1293 1288
f 1303 1293 1282
f 1296 1292 1305
f 1305 1292 1295
f 1292 1291 1295
f 1295 1291 1293
f 1293 1303 1297
f 1298 1289 1299
f 1289 1300 1299
f 1297 1295 1293
f 1297 1303 1307
f 1301 1298 1327
f 1327 1298 1299
f 1299 1300 1327
f 1307 1302 1371
f 1302 1332 1371
f 1288 1279 1282
f 1282 1283 1303
f 1284 1302 1283
f 1303 1283 1302
f 1303 1302 1307
f 1342 1343 1284
f 1343 1302 1284
f 1343 1332 1302
f 1349 1348 1304
f 1305 1304 1296
f 1350 1349 1304
f 1304 1306 1350
f 1306 1305 1295
f 1297 1306 1295
f 1305 1306 1304
f 1306 1297 1370
f 1297 1307 1370
f 1308 1309 1310
f 1309 1308 1319
f 1309 1319 1317
f 1317 1319 1346
f 1259 1260 1310
f 1311 1259 1310
f 1312 1261 1311
f 1261 1312 1272
f 1272 1312 1313
f 1314 1313 1318
f 1324 1314 1318
f 1324 1273 1314
f 1315 1310 1309
f 1310 1315 1311
f 1311 1315 1316
f 1311 1316 1312
f 1312 1318 1313
f 1309 1317 1315
f 1315 1317 1326
f 1315 1326 1316
f 1316 1326 1318
f 1316 1318 1312
f 1317 1346 1326
f 1333 1334 1320
f 1320 1334 1319
f 1320 1319 1308
f 1345 1344 1321
f 1321 1344 1342
f 1326 1346 1322
f 1322 1345 1321
f 1346 1347 1322
f 1273 1323 1285
f 1324 1323 1273
f 1324 1321 1323
f 1321 1342 1323
f 1318 1326 1324
f 1326 1325 1324
f 1322 1325 1326
f 1321 1324 1325
f 1321 1325 1322
f 1329 1327 1328
f 1330 1328 1356
f 1356 1328 1351
f 1328 1330 1329
f 1329 1331 1334
f 1329 1330 1359
f 1329 1359 1331
f 1331 1369 1340
f 1331 1340 1334
f 1341 1340 1369
f 1333 1327 1329
f 1333 1329 1334
f 1335 1372 1332
f 1337 1374 1335
f 1335 1374 1372
f 1319 1338 1346
f 1346 1336 1347
f 1347 1336 1345
f 1319 1334 1338
f 1339 1346 1338
f 1346 1339 1336
f 1338 1334 1340
f 1336 1374 1337
f 1338 1341 1339
f 1338 1340 1341
f 1374 1336 1375
f 1339 1341 1375
f 1336 1339 1375
f 1344 1343 1342
f 1343 1344 1335
f 1335 1332 1343
f 1347 1345 1322
f 1344 1345 1337
f 1336 1337 1345
f 1335 1344 1337
f 1351 1328 1348
f 1351 1348 1352
f 1348 1349 1352
f 1357 1351 1354
f 1351 1352 1354
f 1352 1349 1354
f 1355 1354 1349
f 1350 1355 1349
f 1306 1353 1350
f 1356 1351 1357
f 1363 1357 1358
f 1357 1354 1358
f 1354 1355 1358
f 1382 1355 1379
f 1382 1358 1355
f 1355 1350 1379
f 1353 1379 1350
f 1360 1330 1356
f 1330 1360 1359
f 1356 1361 1360
f 1361 1356 1362
f 1362 1356 1357
f 1362 1357 1363
f 1382 1363 1358
f 1364 1359 1360
f 1331 1359 1364
f 1360 1361 1365
f 1364 1360 1365
f 1365 1361 1367
f 1367 1361 1362
f 1367 1362 1368
f 1368 1362 1363
f 1364 1366 1331
f 1365 1366 1364
f 1331 1366 1369
f 1366 1397 1369
f 1367 1368 1394
f 1365 1367 1394
f 1341 1369 1377
f 1397 1396 1369
f 1396 1377 1369
f 1395 1365 1394
f 1307 1371 1373
f 1370 1307 1373
f 1372 1371 1332
f 1376 1373 1371
f 1372 1376 1371
f 1374 1376 1372
f 1370 1373 1383
f 1375 1378 1374
f 1374 1378 1376
f 1390 1376 1378
f 1341 1377 1375
f 1378 1375 1377
f 1387 1399 1368
f 1391 1398 1387
f 1387 1398 1399
f 1405 1398 1391
f 1353 1306 1380
f 1306 1370 1380
f 1380 1370 1383
f 1379 1353 1381
f 1381 1353 1384
f 1384 1353 1380
f 1385 1382 1379
f 1381 1385 1379
f 1389 1381 1384
f 1368 1363 1382
f 1376 1386 1373
f 1386 1383 1373
f 1368 1382 1387
f 1387 1382 1385
f 1385 1388 1387
f 1388 1381 1389
f 1388 1385 1381
f 1390 1386 1376
f 1391 1387 1388
f 1389 1392 1388
f 1386 1409 1383
f 1391 1392 1405
f 1388 1392 1391
f 1406 1380 1383
f 1406 1383 1409
f 1403 1389 1384
f 1380 1403 1384
f 1403 1380 1406
f 1395 1366 1365
f 1396 1393 1377
f 1377 1393 1378
f 1378 1393 1390
f 1393 1396 1412
f 1366 1395 1397
f 1401 1394 1368
f 1401 1368 1399
f 1398 1405 1400
f 1399 1398 1402
f 1398 1400 1402
f 1400 1405 1422
f 1414 1410 1401
f 1401 1432 1414
f 1432 1435 1414
f 1401 1399 1440
f 1440 1399 1402
f 1432 1434 1435
f 1433 1401 1440
f 1404 1386 1390
f 1404 1409 1386
f 1405 1392 1407
f 1389 1407 1392
f 1407 1389 1408
f 1408 1389 1403
f 1410 1394 1401
f 1395 1394 1410
f 1549 1390 1393
f 1390 1549 1404
f 1422 1407 1423
f 1422 1405 1407
f 1408 1423 1407
f 1403 1406 1421
f 1406 1409 1421
f 1395 1410 1397
f 1396 1397 1413
f 1411 1396 1413
f 1412 1396 1548
f 1397 1410 1413
f 1410 1414 1413
f 1437 1412 1548
f 1437 1404 1549
f 1415 1409 1404
f 1414 1435 1413
f 1435 1436 1413
f 1436 1411 1413
f 1436 1437 1548
f 1437 1415 1404
f 1417 1422 1426
f 1417 1400 1422
f 1416 1400 1417
f 1416 1402 1400
f 1440 1402 1419
f 1419 1402 1416
f 1417 1418 1416
f 1416 1418 1419
f 1418 1417 1420
f 1420 1417 1426
f 1419 1418 1441
f 1442 1441 1418
f 1442 1418 1420
f 1420 1426 1456
f 1408 1403 1421
f 1408 1421 1424
f 1423 1408 1424
f 1422 1423 1426
f 1421 1409 1425
f 1426 1423 1427
f 1427 1423 1424
f 1424 1421 1425
f 1427 1428 1430
f 1427 1424 1428
f 1428 1424 1425
f 1426 1427 1430
f 1415 1429 1409
f 1429 1425 1409
f 1425 1431 1428
f 1431 1425 1429
f 1430 1428 1431
f 1456 1426 1430
f 1432 1401 1433
f 1434 1438 1435
f 1432 1433 1450
f 1466 1438 1434
f 1466 1464 1438
f 1438 1436 1435
f 1438 1439 1436
f 1437 1436 1439
f 1464 1439 1438
f 1443 1440 1419
f 1419 1441 1443
f 1444 1442 1446
f 1444 1441 1442
f 1442 1420 1446
f 1446 1420 1445
f 1445 1420 1456
f 1449 1440 1443
f 1449 1443 1447
f 1447 1443 1441
f 1441 1444 1447
f 1446 1445 1448
f 1445 1456 1458
f 1448 1445 1458
f 1433 1440 1449
f 1444 1446 1453
f 1453 1446 1448
f 1448 1458 1461
f 1433 1449 1450
f 1447 1444 1452
f 1452 1444 1454
f 1444 1453 1454
f 1455 1448 1461
f 1451 1449 1447
f 1451 1447 1452
f 1455 1461 1508
f 1450 1449 1451
f 1468 1451 1452
f 1468 1452 1454
f 1450 1470 1432
f 1470 1450 1467
f 1467 1450 1451
f 1467 1451 1468
f 1468 1454 1469
f 1471 1469 1454
f 1471 1454 1453
f 1456 1430 1457
f 1457 1430 1431
f 1456 1457 1458
f 1457 1459 1458
f 1459 1457 1431
f 1429 1459 1431
f 1460 1429 1415
f 1461 1458 1459
f 1437 1439 1462
f 1437 1462 1415
f 1415 1462 1460
f 1460 1465 1429
f 1463 1459 1429
f 1465 1463 1429
f 1463 1461 1459
f 1509 1460 1462
f 1509 1465 1460
f 1508 1461 1463
f 1439 1464 1509
f 1439 1509 1462
f 1463 1465 1510
f 1510 1508 1463
f 1466 1511 1464
f 1471 1453 1472
f 1472 1453 1448
f 1432 1470 1434
f 1434 1482 1466
f 1483 1511 1466
f 1455 1508 1480
f 1472 1448 1479
f 1479 1448 1455
f 1482 1483 1466
f 1473 1470 1467
f 1467 1468 1474
f 1473 1467 1474
f 1474 1468 1475
f 1475 1468 1469
f 1469 1476 1475
f 1471 1476 1469
f 1479 1455 1480
f 1434 1470 1482
f 1471 1477 1476
f 1477 1471 1478
f 1471 1472 1478
f 1478 1472 1479
f 1470 1473 1481
f 1470 1481 1482
f 1484 1473 1474
f 1484 1481 1473
f 1516 1511 1483
f 1486 1475 1476
f 1477 1487 1486
f 1477 1486 1476
f 1487 1477 1488
f 1488 1477 1478
f 1488 1478 1489
f 1478 1479 1489
f 1489 1479 1490
f 1479 1480 1490
f 1518 1490 1480
f 1481 1491 1482
f 1491 1492 1482
f 1492 1483 1482
f 1493 1481 1484
f 1474 1475 1485
f 1485 1484 1474
f 1485 1493 1484
f 1485 1475 1486
f 1502 1486 1487
f 1488 1504 1487
f 1504 1502 1487
f 1488 1506 1504
f 1507 1490 1518
f 1489 1506 1488
f 1490 1506 1489
f 1481 1493 1491
f 1491 1493 1494
f 1491 1494 1492
f 1492 1494 1495
f 1483 1492 1496
f 1496 1492 1495
f 1483 1496 1516
f 1485 1497 1493
f 1493 1497 1494
f 1494 1497 1498
f 1494 1498 1495
f 1495 1498 1499
f 1495 1499 1496
f 1496 1499 1500
f 1496 1500 1501
f 1516 1496 1501
f 1502 1497 1485
f 1486 1502 1485
f 1497 1502 1498
f 1498 1502 1503
f 1498 1503 1499
f 1499 1503 1505
f 1499 1505 1500
f 1500 1505 1507
f 1501 1500 1507
f 1504 1503 1502
f 1505 1503 1504
f 1506 1505 1504
f 1507 1505 1506
f 1490 1507 1506
f 1509 1464 1511
f 1465 1509 1512
f 1465 1512 1510
f 1511 1512 1509
f 1511 1513 1512
f 1513 1514 1512
f 1514 1510 1512
f 1514 1515 1510
f 1515 1508 1510
f 1515 1480 1508
f 1511 1516 1513
f 1517 1514 1513
f 1517 1518 1514
f 1518 1515 1514
f 1518 1480 1515
f 1516 1501 1517
f 1513 1516 1517
f 1501 1507 1518
f 1517 1501 1518
