o FMA7260_BP9283_FJ2419
v 12.285 -154.639 1199.57
v 12.1048 -154.66 1200.19
v 12.0583 -154.359 1200.49
v 12.062 -154.044 1200.16
v 12.3007 -154.03 1199.57
v 12.1799 -154.061 1200.76
v 12.5432 -154.337 1199.21
v 12.5982 -155.257 1199.48
v 13.1891 -155.334 1198.76
v 12.4423 -155.283 1200.09
v 12.5027 -155.292 1200.7
v 12.4216 -154.943 1201.03
v 12.3132 -154.383 1201.1
v 12.6054 -154.421 1201.46
v 12.9298 -155.37 1201.24
v 12.9003 -154.755 1201.61
v 13.622 -156.23 1199.17
v 13.2484 -154.491 1201.76
v 14.0279 -156.586 1200.14
v 13.7398 -155.611 1201.51
v 14.3972 -156.487 1200.76
v 14.3057 -154.884 1201.64
v 12.9756 -153.747 1199.12
v 13.2689 -153.206 1199.55
v 13.8971 -153.283 1198.98
v 14.6001 -154.415 1197.79
v 15.0067 -153.306 1198.81
v 12.5608 -154.078 1201.31
v 12.5947 -153.48 1199.87
v 12.6407 -153.432 1200.49
v 12.9273 -154.139 1201.6
v 13.0236 -153.356 1200.81
v 13.0857 -153.19 1199.94
v 13.587 -153.923 1201.61
v 13.8823 -153.036 1199.61
v 13.8643 -153.042 1200.22
v 14.6417 -153.141 1200.08
v 14.5653 -153.337 1200.71
v 16.2404 -166.367 1194.04
v 15.8703 -164.473 1192.01
v 16.8595 -164.783 1191.84
v 16.2364 -164.433 1195.34
v 16.3995 -164.104 1195.53
v 15.827 -161.67 1189.29
v 15.7821 -162.577 1190.66
v 15.9078 -162.394 1189.8
v 16.0035 -162.811 1193.68
v 16.567 -162.442 1193.88
v 16.2778 -160.08 1187.6
v 17.0243 -160.739 1187.72
v 15.8272 -160.815 1190.63
v 17.0747 -159.94 1190.54
v 16.6307 -157.8 1188.64
v 15.2256 -156.161 1201.03
v 15.2653 -153.745 1198.02
v 15.3251 -154.096 1200.99
v 17.0867 -154.184 1204.67
v 17.0607 -153.605 1205.27
v 18.1359 -169.066 1197.65
v 18.8557 -169.491 1197.78
v 17.4707 -166.46 1193.65
v 17.5616 -166.828 1198.3
v 18.082 -165.986 1197.86
v 18.3817 -156.826 1184.47
v 17.4826 -158.094 1185.44
v 19.0533 -158.09 1184.99
v 18.1038 -155.767 1186.52
v 18.2423 -155.709 1187.13
v 17.241 -154.777 1205.24
v 17.6603 -155.166 1204.29
v 18.2112 -155.868 1204.52
v 19.0879 -156.275 1205.32
v 17.9469 -154.618 1203.75
v 19.6337 -154.268 1203.04
v 17.4315 -154.547 1205.88
v 17.1903 -153.896 1205.84
v 17.4233 -153.588 1204.4
v 17.45 -152.998 1205.03
v 17.4109 -153.045 1205.63
v 17.6024 -153.352 1206.2
v 17.8319 -152.703 1205.61
v 18.0144 -153.967 1206.58
v 18.09 -153.378 1206.56
v 18.1701 -152.907 1204.41
v 18.0747 -152.876 1206.2
v 18.1148 -152.616 1205.03
v 18.4203 -152.544 1205.34
v 18.43 -152.663 1205.91
v 18.8636 -154.802 1206.49
v 18.6749 -153.743 1206.73
v 18.6768 -153.101 1206.48
v 18.9766 -152.65 1204.74
v 19.0327 -152.613 1205.33
v 19.6109 -153.67 1206.35
v 19.3002 -152.873 1205.92
v 20.6353 -170.82 1200.41
v 18.8812 -168.067 1200.14
v 18.9368 -167.661 1200.26
v 19.9687 -167.962 1200.86
v 20.9247 -169.156 1201.99
v 19.7386 -160.987 1191.51
v 19.7084 -159.375 1198.06
v 20.9085 -157.37 1198.73
v 21.3217 -158.416 1203.26
v 20.6091 -155.856 1183.1
v 20.729 -155.021 1182.95
v 19.573 -154.364 1185.36
v 19.5217 -154.227 1185.8
v 19.7414 -154.757 1197.97
v 21.3815 -156.767 1201.75
v 19.9175 -156.205 1202.7
v 19.7304 -155.422 1202.75
v 21.1317 -153.309 1184.49
v 19.9298 -153.285 1203.92
v 20.1348 -154.82 1206.35
v 19.7282 -152.901 1204.66
v 20.6556 -153.778 1205.59
v 20.3249 -153.243 1205.11
v 22.215 -171.568 1200.82
v 22.191 -171.605 1201.39
v 23.0934 -171.731 1202.03
v 23.5215 -170.124 1203.31
v 22.4451 -166.946 1198.38
v 21.7166 -169.023 1202.58
v 22.4886 -164.739 1195.47
v 23.2047 -164.372 1195.33
v 22.2028 -162.599 1192.57
v 22.6838 -163.65 1194.07
v 23.0548 -162.375 1192.36
v 23.1972 -162.982 1193.02
v 23.4508 -162.838 1193.32
v 23.4414 -162.465 1192.7
v 23.3945 -162.439 1193.3
v 23.3008 -162.035 1192.65
v 22.2337 -163.994 1194.47
v 22.5108 -162.173 1194.46
v 22.4091 -162.185 1195.4
v 22.6136 -164.015 1194.6
v 22.9234 -163.102 1194.42
v 22.8701 -163.116 1195.06
v 23.0172 -163.738 1195.02
v 23.571 -163.68 1195.78
v 21.9189 -160.656 1191.05
v 21.8925 -160.092 1190.35
v 22.2256 -160.555 1191.18
v 22.4208 -160.607 1191.55
v 22.4306 -160.619 1191.86
v 22.2193 -160.222 1190.69
v 22.3996 -160.274 1191.29
v 22.3478 -159.963 1191.61
v 22.5351 -160.056 1190.95
v 22.7192 -159.958 1190.38
v 22.6009 -159.665 1191.3
v 22.7462 -161.282 1191.84
v 22.9544 -159.828 1190.6
v 23.2083 -159.523 1190.71
v 21.5496 -159.866 1192.69
v 21.5605 -161.18 1196.04
v 21.3817 -161.234 1195.09
v 23.6448 -160.625 1197.33
v 22.0069 -158.736 1192.03
v 22.49 -158.479 1191.8
v 22.0928 -158.663 1201.95
v 23.8555 -159.446 1200.54
v 23.5596 -154.37 1181.64
v 21.9786 -155.712 1194.44
v 22.6135 -155.404 1196.09
v 23.7347 -155.443 1202.57
v 22.8511 -153.906 1182.02
v 22.4149 -152.733 1184.33
v 23.28 -152.495 1183.34
v 23.7816 -172.014 1201.36
v 23.6575 -172.197 1201.93
v 24.8733 -172.486 1202.25
v 25.1261 -172.194 1202.83
v 24.7182 -169.315 1203.18
v 26.7853 -168.391 1194.68
v 25.1148 -167.65 1199.76
v 23.956 -165.713 1196.61
v 24.8515 -165.382 1197.21
v 25.4998 -166.557 1199.35
v 26.2066 -164.621 1199.71
v 25.6761 -162.234 1197.38
v 25.8595 -163.61 1197.98
v 26.2309 -162.659 1202
v 24.3755 -159.424 1189.31
v 24.5336 -159.131 1188.6
v 24.6923 -161.053 1201.2
v 24.675 -161.088 1201.82
v 24.9042 -160.851 1202.73
v 25.5064 -158.728 1188.88
v 24.7147 -158.814 1189.99
v 25.446 -157.459 1190.52
v 26.0438 -159.179 1197.07
v 24.4631 -156.49 1196.62
v 25.6856 -153.768 1180.84
v 26.0436 -153.145 1180.86
v 25.3649 -151.643 1182.87
v 27.6123 -171.997 1201.38
v 27.5653 -172.71 1203.15
v 27.632 -172.195 1203.56
v 26.6075 -167.194 1200.93
v 27.3048 -169.162 1203.87
v 26.6663 -164.784 1201.19
v 26.732 -166.507 1200.95
v 27.3274 -166.729 1201.57
v 27.1837 -162.796 1198.09
v 27.8195 -162.128 1197.51
v 26.2354 -162.876 1201.37
v 26.5744 -164.403 1200.72
v 26.7296 -164.155 1201.33
v 26.7545 -163.845 1200.17
v 26.7061 -163.853 1200.75
v 26.7657 -163.485 1200.46
v 26.6396 -163.56 1201.09
v 26.4958 -162.848 1200.56
v 26.7402 -162.423 1199.81
v 27.1641 -163.214 1199.28
v 26.8414 -163.594 1202.01
v 27.033 -164.507 1201.83
v 27.5727 -159.901 1196.66
v 27.2423 -161.802 1197.32
v 27.7829 -161.971 1198.46
v 27.4626 -161.125 1198.55
v 28.0248 -162.017 1198.12
v 28.312 -161.674 1197.84
v 28.1256 -161.437 1198.11
v 28.4305 -161.76 1197.54
v 28.0736 -160.611 1198.22
v 27.3563 -161.154 1203.07
v 26.6085 -156.348 1185.84
v 28.1067 -156.648 1186.9
v 27.5008 -156.745 1188.7
v 26.8216 -156.566 1191.62
v 27.7684 -156.395 1193.5
v 26.8944 -156.586 1195.01
v 28.9977 -170.101 1204.69
v 30.064 -170.31 1204.98
v 30.17 -169.778 1204.94
v 28.4254 -167.565 1202.79
v 29.4041 -167.383 1202.54
v 28.6815 -168.726 1203.85
v 29.3165 -169.399 1204.21
v 28.4823 -166.147 1202.02
v 28.5001 -165.397 1202.03
v 29.1071 -165.871 1202.05
v 29.0948 -165.057 1202.02
v 30.0897 -165.054 1201.69
v 28.7512 -161.525 1196.67
v 29.387 -161.35 1196.34
v 29.2966 -161.158 1196.15
v 29.7135 -161.22 1196.03
v 29.6927 -161.367 1196.67
v 29.6542 -160.8 1195.75
v 30.1168 -161.41 1196.28
v 28.7847 -161.382 1197.52
v 28.9877 -161.532 1196.98
v 28.6661 -159.518 1198.83
v 29.6989 -160.885 1197.4
v 29.9427 -162.353 1202.35
v 30.0032 -161.332 1202.47
v 31.0691 -157.379 1191.56
v 30.2773 -157.275 1193.01
v 28.859 -158.907 1195.75
v 29.592 -156.705 1188.07
v 30.2448 -153.487 1179.8
v 30.3869 -153.098 1179.99
v 30.6894 -154.44 1180.09
v 29.8979 -151.131 1181.99
v 29.8958 -151.17 1182.29
v 31.9829 -172.098 1202.69
v 31.9904 -172.07 1203.63
v 30.7961 -169.992 1205.1
v 31.6146 -169.963 1205.09
v 30.8435 -167.578 1201.53
v 31.1449 -168.489 1202.39
v 32.1128 -167.716 1201.76
v 32.0019 -169.419 1205.01
v 31.7727 -166.692 1201.3
v 32.9756 -165.024 1201.95
v 33.1953 -162.332 1193.64
v 32.0952 -162.206 1194.45
v 32.3408 -162.278 1194.82
v 30.9271 -164.572 1201.67
v 31.5261 -163.76 1202.06
v 32.5848 -160.38 1192.66
v 33.1579 -162.077 1193.31
v 31.1009 -161.569 1195.13
v 31.1946 -161.74 1195.42
v 31.5824 -161.586 1195.95
v 33.0649 -161.5 1196.41
v 31.5782 -160.252 1200.58
v 32.0057 -157.611 1181.79
v 33.1327 -158.388 1187.13
v 31.5495 -157.847 1188.66
v 31.9845 -157.499 1187.52
v 32.05 -158.105 1189.35
v 33.1037 -158.653 1188.05
v 32.1679 -158.259 1191.8
v 32.3212 -154.685 1179.96
v 32.7437 -154.733 1180.12
v 33.8357 -155.288 1180.64
v 31.0156 -155.383 1184.36
v 32.9495 -155.96 1184.87
v 32.8231 -153.465 1182.16
v 34.5913 -170.487 1207.01
v 35.1682 -172.167 1206.28
v 33.1269 -169.768 1205.82
v 33.1016 -169.417 1205.22
v 34.1667 -168.796 1204.41
v 34.2915 -169.801 1206.37
v 33.4208 -166.377 1202.14
v 33.594 -167.015 1202.56
v 35.0365 -165.889 1202.42
v 34.0934 -162.494 1191.6
v 34.5047 -162.481 1191.15
v 34.6738 -162.746 1191.85
v 33.4619 -162.464 1193.94
v 33.7096 -162.443 1193.24
v 34.2649 -162.556 1193.74
v 34.4002 -162.617 1192.73
v 34.9652 -162.588 1192.41
v 33.9593 -162.4 1194.58
v 34.9369 -162.866 1194.49
v 34.7841 -163.296 1201.11
v 33.8438 -161.702 1191.2
v 33.8349 -160.476 1190.76
v 34.5107 -160.823 1190.12
v 33.52 -162.057 1192.49
v 35.0954 -162.351 1197.5
v 34.9917 -162.293 1198.2
v 33.8451 -158.671 1187.08
v 34.0022 -157.293 1185.37
v 34.7565 -158.12 1185.38
v 35.5279 -158.424 1185.74
v 33.5704 -158.769 1188.72
v 34.3276 -159.305 1188.99
v 34.2795 -158.83 1187.77
v 35.576 -159.105 1187.74
v 33.6955 -155.969 1180.4
v 34.5061 -154.917 1183.09
v 35.3101 -156.52 1184.01
v 36.4683 -172.315 1206
v 36.2331 -170.281 1208.05
v 36.8212 -167.859 1204.69
v 37.5062 -167.559 1204.29
v 37.8531 -165.128 1199.34
v 36.6227 -166.566 1202.81
v 36.5572 -165.533 1201.9
v 35.8041 -162.549 1191.27
v 37.4997 -162.88 1191.44
v 35.9151 -162.874 1192.87
v 36.3191 -163.659 1194.82
v 36.1532 -163.399 1198.7
v 36.6048 -163.033 1197.59
v 37.3368 -164.938 1199.95
v 37.3209 -161.348 1184.23
v 36.3287 -160.818 1188.81
v 35.2035 -159.861 1183.18
v 36.4811 -158.839 1181.97
v 36.8644 -157.596 1181.52
v 36.9895 -158.928 1182.05
v 37.2005 -159.304 1182.41
v 36.7297 -157.861 1181.29
v 37.3437 -158.594 1182.08
v 37.302 -158.332 1181.7
v 37.4638 -158.021 1181.84
v 37.5628 -158.93 1182.65
v 38.0074 -157.871 1183.2
v 37.782 -157.444 1183.08
v 38.2495 -158.089 1183.51
v 38.5301 -157.792 1184.01
v 35.9915 -158.726 1186.87
v 37.1851 -159.355 1186.76
v 37.6341 -158.527 1185.33
v 36.9307 -156.555 1183.21
v 37.6944 -157.134 1183.9
v 37.7293 -172.031 1207.81
v 38.3145 -172.215 1206.87
v 38.0014 -172.357 1207.59
v 38.9779 -172.191 1207.59
v 39.0296 -171.85 1208.14
v 39.9956 -171.716 1206.29
v 38.5293 -169.863 1209.05
v 38.3216 -169.595 1208.76
v 38.976 -170.055 1208.81
v 38.8435 -169.602 1208.98
v 38.8132 -169.163 1208.14
v 38.0146 -165.895 1201.04
v 38.771 -166.387 1201.27
v 39.0562 -166.486 1200.15
v 39.7616 -166.318 1199.22
v 39.6361 -166.584 1200.98
v 38.795 -166.714 1202.17
v 39.736 -166.612 1201.66
v 39.4417 -164.737 1198.38
v 39.956 -164.359 1197.11
v 38.952 -159.835 1183.17
v 39.2109 -160.609 1183.32
v 39.1938 -161.758 1184.56
v 40.4798 -160.922 1183.99
v 42.4111 -170.522 1205.69
v 40.4139 -171.248 1207.38
v 40.9941 -171.38 1206.12
v 41.4824 -168.746 1206.88
v 41.1252 -165.689 1198.68
v 41.7134 -166.75 1200.84
v 41.5779 -165.149 1198.33
v 41.3382 -162.427 1185.33
v 43.3058 -170.355 1204.38
v 42.6303 -168.217 1195.38
v 43.133 -167.897 1205.05
v 43.6986 -169.974 1204.47
v 43.0801 -165.075 1195.71
v 43.2917 -165.792 1198.65
v 44.7113 -165.249 1196.88
v 44.7742 -165.293 1197.47
v 44.6042 -165.614 1198.2
v 44.6905 -166.946 1202.35
v 42.698 -167.712 1204.69
v 42.5731 -163.637 1186.81
v 43.6943 -163.026 1186.3
v 44.1024 -164.644 1188.43
v 44.8993 -162.96 1190.61
v 43.2286 -165.118 1196.59
v 43.9237 -165.048 1197.49
v 47.1424 -168.123 1197.94
v 45.7726 -168.813 1200.97
v 46.0917 -168.869 1199.71
v 44.8756 -165.665 1190.29
v 46.4555 -166.004 1191.32
v 46.8518 -165.786 1191.72
v 46.643 -167.299 1194.39
v 46.6247 -166.896 1193.23
v 46.9443 -166.132 1192.09
v 47.097 -166.883 1193.48
v 47.0491 -166.391 1193.4
v 45.4359 -165.522 1198.04
v 45.965 -165.713 1197.82
v 46.4085 -165.109 1190.24
v 45.337 -164.168 1193.66
v 45.8403 -164.157 1192.83
v 45.5776 -165.159 1196.9
v 16.2404 -166.367 1194.04
v 15.8703 -164.473 1192.01
v 15.827 -161.67 1189.29
v 15.9078 -162.394 1189.8
v 16.2778 -160.08 1187.6
v 15.8272 -160.815 1190.63
v 16.6307 -157.8 1188.64
v 17.0607 -153.605 1205.27
v 18.1359 -169.066 1197.65
v 17.5616 -166.828 1198.3
v 18.3817 -156.826 1184.47
v 17.4826 -158.094 1185.44
v 18.2423 -155.709 1187.13
v 20.6353 -170.82 1200.41
v 18.9368 -167.661 1200.26
v 20.729 -155.021 1182.95
v 19.5217 -154.227 1185.8
v 19.5217 -154.227 1185.8
v 22.191 -171.605 1201.39
v 23.5215 -170.124 1203.31
v 21.7166 -169.023 1202.58
v 21.7166 -169.023 1202.58
v 23.2047 -164.372 1195.33
v 22.6838 -163.65 1194.07
v 22.6838 -163.65 1194.07
v 23.4508 -162.838 1193.32
v 23.4508 -162.838 1193.32
v 23.4414 -162.465 1192.7
v 22.6136 -164.015 1194.6
v 22.6136 -164.015 1194.6
v 22.9234 -163.102 1194.42
v 22.9234 -163.102 1194.42
v 23.0172 -163.738 1195.02
v 23.0172 -163.738 1195.02
v 22.2256 -160.555 1191.18
v 22.2256 -160.555 1191.18
v 22.4208 -160.607 1191.55
v 22.2193 -160.222 1190.69
v 22.3996 -160.274 1191.29
v 22.3996 -160.274 1191.29
v 22.3478 -159.963 1191.61
v 22.5351 -160.056 1190.95
v 22.7462 -161.282 1191.84
v 23.6448 -160.625 1197.33
v 22.8511 -153.906 1182.02
v 22.4149 -152.733 1184.33
v 23.6575 -172.197 1201.93
v 24.8733 -172.486 1202.25
v 24.7182 -169.315 1203.18
v 25.1148 -167.65 1199.76
v 23.956 -165.713 1196.61
v 25.6761 -162.234 1197.38
v 25.6761 -162.234 1197.38
v 25.8595 -163.61 1197.98
v 26.2309 -162.659 1202
v 24.9042 -160.851 1202.73
v 25.5064 -158.728 1188.88
v 25.6856 -153.768 1180.84
v 25.3649 -151.643 1182.87
v 25.3649 -151.643 1182.87
v 27.5653 -172.71 1203.15
v 27.3048 -169.162 1203.87
v 27.3048 -169.162 1203.87
v 27.3274 -166.729 1201.57
v 27.1837 -162.796 1198.09
v 27.8195 -162.128 1197.51
v 26.8414 -163.594 1202.01
v 28.0248 -162.017 1198.12
v 28.1067 -156.648 1186.9
v 27.5008 -156.745 1188.7
v 28.9977 -170.101 1204.69
v 30.17 -169.778 1204.94
v 29.4041 -167.383 1202.54
v 28.7512 -161.525 1196.67
v 29.387 -161.35 1196.34
v 30.1168 -161.41 1196.28
v 30.0032 -161.332 1202.47
v 30.0032 -161.332 1202.47
v 29.592 -156.705 1188.07
v 30.2448 -153.487 1179.8
v 30.3869 -153.098 1179.99
v 29.8979 -151.131 1181.99
v 29.8979 -151.131 1181.99
v 29.8979 -151.131 1181.99
v 29.8958 -151.17 1182.29
v 31.9904 -172.07 1203.63
v 30.7961 -169.992 1205.1
v 31.6146 -169.963 1205.09
v 31.6146 -169.963 1205.09
v 30.8435 -167.578 1201.53
v 31.1449 -168.489 1202.39
v 32.0019 -169.419 1205.01
v 32.0019 -169.419 1205.01
v 32.3212 -154.685 1179.96
v 32.7437 -154.733 1180.12
v 31.0156 -155.383 1184.36
v 34.5913 -170.487 1207.01
v 35.1682 -172.167 1206.28
v 33.1269 -169.768 1205.82
v 33.1269 -169.768 1205.82
v 34.5047 -162.481 1191.15
v 33.6955 -155.969 1180.4
v 36.2331 -170.281 1208.05
v 35.8041 -162.549 1191.27
v 36.9895 -158.928 1182.05
v 37.2005 -159.304 1182.41
v 37.2005 -159.304 1182.41
v 36.7297 -157.861 1181.29
v 36.7297 -157.861 1181.29
v 37.302 -158.332 1181.7
v 37.302 -158.332 1181.7
v 37.4638 -158.021 1181.84
v 37.5628 -158.93 1182.65
v 38.0014 -172.357 1207.59
v 38.9779 -172.191 1207.59
v 38.5293 -169.863 1209.05
v 38.8435 -169.602 1208.98
v 39.7616 -166.318 1199.22
v 39.956 -164.359 1197.11
v 39.2109 -160.609 1183.32
v 40.4798 -160.922 1183.99
v 42.4111 -170.522 1205.69
v 40.4139 -171.248 1207.38
v 41.4824 -168.746 1206.88
v 43.133 -167.897 1205.05
v 43.6986 -169.974 1204.47
v 44.6905 -166.946 1202.35
v 43.6943 -163.026 1186.3
v 44.8993 -162.96 1190.61
v 47.1424 -168.123 1197.94
v 47.1424 -168.123 1197.94
v 45.7726 -168.813 1200.97
v 46.8518 -165.786 1191.72
v 46.9443 -166.132 1192.09
v 47.097 -166.883 1193.48
v 46.4085 -165.109 1190.24
v 46.4085 -165.109 1190.24
f 5 7 1
f 4 1 2
f 1 8 10
f 10 11 2
f 10 2 1
f 2 3 4
f 2 12 3
f 12 13 3
f 1 4 5
f 6 4 3
f 3 13 6
f 29 5 4
f 6 30 4
f 28 30 6
f 6 13 28
f 157 159 17
f 158 19 159
f 158 102 21
f 1 7 9
f 1 9 8
f 7 5 23
f 17 8 9
f 7 23 26
f 26 9 7
f 17 9 157
f 11 12 2
f 12 14 13
f 13 14 28
f 17 10 8
f 11 10 19
f 11 15 12
f 15 16 12
f 14 12 16
f 31 14 16
f 31 28 14
f 16 18 31
f 17 19 10
f 16 15 20
f 31 18 34
f 15 11 19
f 18 16 20
f 19 17 159
f 21 15 19
f 15 21 20
f 22 18 20
f 21 19 158
f 21 54 20
f 20 54 22
f 22 34 18
f 102 54 21
f 54 103 22
f 22 56 34
f 103 56 22
f 29 23 5
f 23 29 24
f 25 23 24
f 26 23 25
f 25 24 35
f 25 55 26
f 55 25 27
f 27 25 35
f 27 35 37
f 28 32 30
f 29 4 30
f 31 32 28
f 32 31 34
f 24 29 33
f 33 29 30
f 32 33 30
f 38 32 34
f 24 33 35
f 33 32 36
f 35 33 36
f 32 38 36
f 56 38 34
f 37 35 36
f 37 36 38
f 38 109 37
f 39 47 40
f 41 444 445
f 61 444 41
f 39 42 47
f 43 47 42
f 45 51 44
f 50 46 446
f 447 45 44
f 447 40 45
f 45 40 47
f 45 47 51
f 52 449 47
f 41 445 46
f 48 52 47
f 47 43 48
f 65 49 53
f 44 51 53
f 50 446 448
f 49 44 53
f 50 448 455
f 52 450 449
f 450 52 68
f 157 9 26
f 54 102 103
f 103 109 56
f 56 109 38
f 27 37 109
f 57 69 58
f 69 76 58
f 59 61 60
f 60 61 177
f 61 59 444
f 39 452 62
f 452 96 97
f 62 452 97
f 97 98 62
f 359 61 41
f 39 62 42
f 43 42 62
f 43 453 63
f 50 41 46
f 41 50 359
f 63 48 43
f 101 48 63
f 66 50 455
f 48 101 52
f 105 66 455
f 64 105 455
f 454 65 67
f 53 67 65
f 67 107 454
f 67 53 456
f 107 67 108
f 55 27 166
f 26 55 162
f 70 57 73
f 70 73 163
f 70 163 71
f 111 163 73
f 111 73 112
f 70 71 69
f 57 70 69
f 69 71 72
f 72 75 69
f 71 104 72
f 75 72 89
f 89 72 230
f 72 104 190
f 167 27 109
f 57 77 73
f 84 77 78
f 73 77 74
f 77 84 74
f 74 112 73
f 114 74 84
f 114 84 92
f 74 114 258
f 76 69 75
f 75 82 76
f 57 451 77
f 76 82 80
f 78 77 451
f 76 79 451
f 80 79 76
f 78 451 79
f 80 82 83
f 80 83 85
f 79 85 81
f 79 80 85
f 86 78 81
f 78 79 81
f 82 75 89
f 84 78 86
f 86 81 87
f 89 90 82
f 90 83 82
f 85 83 91
f 85 88 81
f 85 91 88
f 92 86 87
f 87 81 88
f 91 83 90
f 84 86 92
f 92 87 93
f 93 87 88
f 91 95 88
f 115 90 89
f 90 94 91
f 94 95 91
f 116 92 93
f 230 115 89
f 94 90 115
f 92 116 114
f 93 88 95
f 117 95 94
f 59 60 457
f 60 119 457
f 458 63 453
f 96 100 97
f 458 99 63
f 99 123 63
f 176 123 99
f 97 100 98
f 98 100 124
f 458 464 99
f 125 63 123
f 101 144 52
f 102 158 160
f 157 26 161
f 26 162 161
f 102 487 103
f 163 104 71
f 111 110 164
f 104 163 188
f 72 499 230
f 105 106 165
f 105 64 106
f 107 459 454
f 113 459 107
f 169 459 113
f 456 108 67
f 170 460 68
f 108 113 107
f 162 55 166
f 167 166 27
f 167 109 195
f 103 195 109
f 103 194 195
f 112 74 110
f 229 110 74
f 164 163 111
f 112 110 111
f 171 169 113
f 113 489 171
f 489 113 461
f 168 258 114
f 114 116 168
f 118 168 116
f 93 95 118
f 95 117 118
f 93 118 116
f 119 173 120
f 100 462 121
f 121 462 490
f 173 119 172
f 120 457 119
f 96 462 100
f 100 121 122
f 124 100 122
f 176 178 123
f 99 464 176
f 465 463 492
f 177 61 359
f 125 138 135
f 138 125 126
f 125 179 126
f 123 179 125
f 50 66 359
f 101 127 143
f 154 143 129
f 132 154 129
f 63 125 135
f 127 101 63
f 135 127 63
f 128 135 138
f 127 129 143
f 472 141 467
f 139 467 141
f 127 130 129
f 127 135 130
f 135 128 130
f 159 157 136
f 131 130 128
f 133 474 136
f 133 136 157
f 134 486 471
f 147 486 134
f 157 147 134
f 468 475 469
f 130 132 129
f 130 131 132
f 470 133 471
f 474 133 470
f 471 133 134
f 157 134 133
f 136 137 159
f 140 137 136
f 473 466 476
f 477 140 474
f 474 140 136
f 142 137 140
f 476 466 142
f 140 476 142
f 142 160 137
f 101 143 144
f 144 143 148
f 143 145 148
f 150 147 157
f 161 150 157
f 154 145 143
f 486 146 478
f 146 486 147
f 479 480 149
f 146 147 482
f 144 148 152
f 145 483 151
f 145 151 148
f 481 485 152
f 153 151 483
f 483 150 153
f 484 482 147
f 150 161 153
f 485 155 152
f 156 155 485
f 485 153 156
f 162 156 153
f 192 155 156
f 137 158 159
f 160 158 137
f 188 163 217
f 66 105 293
f 105 165 293
f 153 161 162
f 156 162 193
f 162 166 193
f 194 103 487
f 229 164 110
f 188 189 104
f 104 189 190
f 106 488 165
f 234 166 167
f 235 234 167
f 229 74 258
f 261 115 230
f 520 94 115
f 520 117 94
f 177 172 119
f 199 174 177
f 121 490 175
f 177 174 172
f 172 174 173
f 490 491 175
f 60 177 119
f 122 121 175
f 463 203 492
f 123 178 179
f 178 176 505
f 180 466 494
f 493 180 494
f 184 142 180
f 181 180 493
f 180 181 182
f 184 180 182
f 181 204 182
f 180 142 466
f 160 142 183
f 184 495 142
f 184 207 495
f 209 185 189
f 185 190 189
f 498 230 499
f 144 187 52
f 144 152 186
f 192 186 155
f 186 152 155
f 186 187 144
f 187 186 191
f 500 186 192
f 222 194 487
f 217 216 188
f 217 163 164
f 188 216 209
f 189 188 209
f 217 164 224
f 233 500 192
f 192 193 233
f 191 232 187
f 233 512 500
f 156 193 192
f 68 52 231
f 234 193 166
f 236 167 195
f 167 236 235
f 292 168 118
f 117 292 118
f 520 292 117
f 488 197 165
f 169 171 197
f 165 196 268
f 501 165 197
f 197 171 198
f 502 171 489
f 503 270 269
f 170 270 503
f 175 491 200
f 122 175 201
f 174 199 504
f 201 175 200
f 272 201 200
f 237 122 201
f 514 203 463
f 181 493 202
f 493 506 202
f 205 181 202
f 202 206 205
f 202 506 206
f 203 240 507
f 205 220 181
f 181 220 204
f 204 210 182
f 204 211 210
f 204 220 211
f 205 206 220
f 230 507 245
f 244 507 240
f 245 507 244
f 497 182 508
f 222 495 207
f 182 218 508
f 508 218 208
f 222 207 509
f 225 208 218
f 218 217 511
f 511 217 223
f 208 225 228
f 210 211 213
f 182 212 218
f 182 210 212
f 210 213 212
f 211 215 213
f 211 219 215
f 214 218 212
f 214 212 213
f 213 215 214
f 215 219 209
f 214 215 209
f 216 214 209
f 211 220 219
f 216 217 214
f 217 218 214
f 209 219 185
f 510 230 498
f 220 230 510
f 220 206 230
f 66 293 359
f 221 194 222
f 221 264 194
f 254 221 222
f 249 222 509
f 254 264 221
f 496 222 487
f 164 229 224
f 224 227 223
f 217 224 223
f 227 224 229
f 228 511 226
f 227 226 511
f 223 227 511
f 226 227 229
f 228 257 208
f 256 257 228
f 228 226 256
f 208 257 517
f 226 229 256
f 230 260 261
f 293 165 268
f 52 187 231
f 264 195 194
f 264 236 195
f 258 168 292
f 231 187 232
f 193 234 513
f 232 513 265
f 513 234 265
f 295 522 234
f 262 234 235
f 196 266 268
f 523 501 197
f 197 198 525
f 68 270 170
f 199 411 504
f 272 238 201
f 411 199 177
f 514 239 243
f 238 237 201
f 238 515 237
f 273 515 238
f 238 272 530
f 242 240 203
f 242 243 241
f 241 240 242
f 241 246 240
f 275 241 276
f 276 241 243
f 514 242 203
f 243 242 514
f 239 534 243
f 533 248 516
f 248 284 230
f 246 244 240
f 246 245 244
f 246 247 245
f 246 248 247
f 241 248 246
f 247 248 230
f 284 260 230
f 247 230 245
f 284 285 260
f 285 261 260
f 222 249 251
f 251 254 222
f 257 253 517
f 249 250 251
f 517 253 518
f 251 250 252
f 250 255 252
f 519 518 253
f 252 254 251
f 519 253 291
f 259 291 253
f 254 286 264
f 288 254 252
f 288 252 255
f 289 288 255
f 291 290 519
f 288 286 254
f 256 253 257
f 259 253 256
f 259 256 229
f 229 258 259
f 291 259 258
f 522 295 296
f 297 295 234
f 262 297 234
f 286 299 264
f 299 263 264
f 262 263 299
f 232 265 303
f 232 303 231
f 539 68 231
f 236 264 263
f 235 263 262
f 236 263 235
f 523 197 267
f 301 523 267
f 266 300 268
f 301 537 523
f 525 267 197
f 538 524 305
f 341 270 68
f 305 524 526
f 341 305 528
f 528 305 527
f 411 271 504
f 271 529 504
f 529 271 411
f 530 272 274
f 531 278 273
f 306 308 272
f 308 274 272
f 542 535 532
f 277 533 534
f 277 279 533
f 534 310 277
f 277 313 312
f 277 310 313
f 273 278 515
f 534 239 536
f 309 536 543
f 309 534 536
f 534 309 310
f 279 248 533
f 279 284 248
f 284 279 280
f 279 312 280
f 279 277 312
f 312 314 280
f 318 282 283
f 318 281 282
f 282 281 287
f 323 318 283
f 329 287 319
f 281 319 287
f 283 282 289
f 280 285 284
f 280 261 285
f 280 325 521
f 329 326 286
f 326 327 286
f 327 299 286
f 286 288 282
f 287 286 282
f 329 286 287
f 290 289 519
f 289 282 288
f 289 290 283
f 283 290 323
f 323 290 291
f 291 258 292
f 333 296 294
f 294 298 332
f 334 294 332
f 294 334 333
f 295 294 296
f 294 295 298
f 297 298 295
f 298 297 336
f 338 332 298
f 262 336 297
f 337 336 262
f 262 299 337
f 268 340 293
f 340 268 300
f 301 545 537
f 302 538 305
f 522 296 539
f 539 296 304
f 341 539 304
f 341 68 539
f 272 307 306
f 529 343 541
f 540 311 543
f 311 310 309
f 309 543 311
f 312 313 314
f 325 280 314
f 310 314 313
f 314 349 325
f 317 316 315
f 350 316 317
f 547 317 322
f 358 316 350
f 320 547 322
f 319 281 318
f 319 315 329
f 319 318 320
f 323 320 318
f 317 315 319
f 317 319 321
f 323 324 320
f 322 317 321
f 321 319 320
f 322 321 320
f 353 324 291
f 352 324 353
f 324 352 320
f 323 291 324
f 354 331 292
f 354 355 331
f 347 354 292
f 325 347 292
f 326 329 315
f 327 337 299
f 544 326 315
f 326 328 327
f 337 327 328
f 544 358 326
f 326 358 328
f 358 337 328
f 292 330 291
f 330 292 331
f 325 292 520
f 340 364 293
f 359 293 360
f 293 364 360
f 375 377 334
f 334 342 333
f 334 332 335
f 335 332 373
f 375 334 335
f 338 298 336
f 373 332 338
f 338 336 337
f 337 373 338
f 339 373 337
f 358 339 337
f 374 339 358
f 551 545 301
f 302 552 538
f 296 333 304
f 304 333 341
f 341 333 342
f 334 377 342
f 377 341 342
f 376 302 305
f 376 305 377
f 377 305 341
f 529 411 343
f 541 343 380
f 307 344 306
f 311 540 546
f 378 344 307
f 557 378 307
f 310 345 348
f 348 345 346
f 345 310 388
f 345 388 346
f 388 310 311
f 311 546 385
f 356 325 389
f 348 314 310
f 348 349 314
f 389 325 349
f 348 389 349
f 389 348 394
f 394 348 346
f 350 320 351
f 351 358 350
f 424 358 351
f 352 351 320
f 351 352 353
f 330 353 291
f 351 353 414
f 414 353 397
f 397 353 330
f 355 562 330
f 331 355 330
f 355 396 562
f 354 396 355
f 325 356 347
f 359 363 399
f 357 177 359
f 399 357 359
f 398 563 549
f 424 374 358
f 362 360 364
f 359 362 363
f 359 360 362
f 361 552 302
f 550 548 368
f 362 364 366
f 361 302 370
f 302 376 370
f 368 548 365
f 365 548 553
f 556 365 369
f 552 367 554
f 553 555 365
f 555 369 365
f 367 552 361
f 361 370 367
f 367 370 369
f 398 549 556
f 371 556 369
f 369 370 372
f 369 372 371
f 376 372 370
f 374 373 339
f 375 335 373
f 374 375 373
f 424 375 374
f 376 377 372
f 404 383 411
f 411 379 343
f 343 379 380
f 379 381 380
f 383 381 379
f 378 557 382
f 379 411 383
f 557 558 382
f 383 404 381
f 558 404 382
f 386 382 403
f 382 404 566
f 384 378 382
f 382 386 384
f 394 346 388
f 385 388 311
f 386 403 405
f 567 388 387
f 384 344 378
f 385 546 559
f 387 385 559
f 387 388 385
f 386 405 560
f 386 560 384
f 396 354 347
f 390 389 394
f 356 389 347
f 347 389 391
f 390 391 389
f 347 392 396
f 347 391 392
f 393 391 390
f 393 390 395
f 407 393 395
f 407 391 393
f 395 390 394
f 407 395 420
f 395 394 420
f 177 409 421
f 414 424 351
f 400 409 177
f 357 399 400
f 400 177 357
f 409 400 399
f 401 409 399
f 398 564 563
f 371 398 556
f 398 371 372
f 398 372 564
f 375 424 377
f 572 372 377
f 411 429 404
f 405 403 402
f 565 404 410
f 566 404 565
f 567 412 388
f 412 420 388
f 430 411 177
f 392 406 396
f 406 415 408
f 408 415 426
f 415 406 392
f 407 415 561
f 407 561 391
f 420 394 388
f 425 414 397
f 406 408 396
f 408 426 396
f 409 401 422
f 564 372 571
f 410 413 565
f 404 429 410
f 410 429 413
f 402 569 405
f 405 569 568
f 177 421 423
f 414 425 416
f 443 414 416
f 415 418 426
f 418 415 407
f 418 417 426
f 438 418 407
f 417 438 416
f 417 418 438
f 407 420 438
f 419 420 412
f 438 420 419
f 438 419 439
f 409 422 421
f 423 421 422
f 423 430 177
f 422 440 423
f 572 579 571
f 424 414 441
f 414 443 441
f 426 425 397
f 396 426 562
f 416 425 426
f 426 417 416
f 416 438 443
f 372 572 571
f 572 442 579
f 427 428 429
f 570 568 575
f 413 429 428
f 570 575 573
f 569 575 568
f 430 423 440
f 440 431 430
f 431 580 432
f 576 442 437
f 431 432 435
f 577 576 437
f 430 431 411
f 434 411 431
f 434 433 411
f 434 431 436
f 434 436 433
f 433 436 574
f 436 431 435
f 578 577 437
f 437 573 578
f 429 411 433
f 433 574 429
f 573 437 439
f 443 438 439
f 439 570 573
f 579 442 576
f 442 424 441
f 439 437 442
f 442 441 443
f 442 443 439
