o FMA7250_BP8601_FJ2427
v 32.1338 -129.456 1248.4
v 33.1478 -128.739 1249.6
v 34.1843 -128.606 1250.42
v 31.797 -131.532 1246.46
v 33.035 -130.602 1247.19
v 34.1772 -129.673 1248.5
v 35.6991 -129.236 1250.72
v 32.3031 -132.835 1245.7
v 34.7113 -131.667 1246.68
v 33.4324 -131.802 1246.3
v 33.7719 -132.388 1247.49
v 34.8006 -130.444 1247.81
v 34.1269 -131.645 1248.23
v 35.3967 -129.762 1249.23
v 33.9734 -132.739 1245.87
v 34.5028 -133.859 1245.59
v 33.2322 -133.822 1245.39
v 35.3355 -132.685 1246.31
v 35.7141 -131.174 1247.58
v 36.3751 -132.199 1247.21
v 34.7816 -132.432 1247.84
v 35.8069 -132.692 1248.35
v 35.2936 -131.766 1248.85
v 36.9599 -131.396 1248.57
v 37.1261 -130.771 1249.81
v 37.4438 -130.427 1251.47
v 35.6133 -134.972 1245.74
v 33.8772 -134.658 1245.31
v 36.1847 -133.77 1246.3
v 37.3222 -133.522 1247.2
v 35.7285 -133.879 1247.56
v 37.3328 -132.534 1247.81
v 38.0205 -132.558 1248.67
v 38.1171 -133.326 1248.16
v 38.4334 -131.968 1250.38
v 36.1681 -136.208 1246.02
v 37.0957 -135.002 1246.57
v 38.8316 -133.153 1249.46
v 38.4698 -135.182 1247.78
v 39.4415 -134.869 1249.29
v 29.3052 -130.342 1248.06
v 29.1131 -131.833 1246.88
v 30.3915 -131.245 1246.88
v 30.8783 -130.26 1247.62
v 30.7252 -129.518 1248.51
v 31.7356 -128.676 1249.63
v 32.4689 -128.165 1250.77
v 34.1237 -128.182 1251.93
v 30.7299 -132.213 1246.18
v 31.0553 -131.891 1247.78
v 31.1172 -132.794 1247.13
v 32.4937 -131.718 1247.87
v 32.9202 -130.492 1249.35
v 33.6587 -130.071 1250.27
v 33.952 -129.66 1251.45
v 34.7798 -129.926 1251.82
v 35.3929 -128.739 1252.02
v 35.6671 -128.874 1253.62
v 31.4932 -133.774 1245.44
v 31.3213 -134.116 1246.52
v 32.3808 -133.076 1246.88
v 34.4966 -131.102 1249.08
v 34.817 -130.423 1250.57
v 35.984 -131.062 1251.05
v 36.5272 -129.477 1252.32
v 36.7814 -129.712 1253.21
v 36.0706 -130.732 1252.33
v 31.6981 -136.028 1245.23
v 32.3875 -134.827 1245.2
v 32.3105 -135.116 1246.3
v 33.2833 -134.323 1246.49
v 34.2005 -133.501 1246.97
v 36.4655 -132.091 1249.88
v 37.1679 -132.141 1251.33
v 37.8252 -130.728 1252.3
v 32.9966 -135.678 1245.19
v 34.3499 -135.878 1245.38
v 34.2022 -135.38 1246.54
v 34.541 -134.317 1246.77
v 35.2696 -135 1246.93
v 36.0578 -134.959 1247.41
v 36.669 -133.741 1248.42
v 36.9585 -133.143 1249.24
v 37.2999 -132.942 1250.08
v 38.1682 -133.383 1251.76
v 38.5799 -131.768 1251.42
v 39.1307 -132.456 1252.46
v 35.3477 -136.999 1245.86
v 35.7286 -136.036 1247.2
v 36.8352 -134.581 1248.16
v 37.15 -135.227 1248.31
v 37.3944 -134.283 1248.95
v 37.8559 -134.01 1249.89
v 38.1283 -135.074 1249.64
v 39.6654 -134.105 1250.33
v 38.5376 -134.68 1250.77
v 39.5569 -133.33 1251.37
v 39.826 -133.667 1252.6
v 36.4124 -137.946 1246.81
v 37.691 -136.584 1247.09
v 38.4705 -136.338 1247.81
v 38.1007 -137.053 1247.66
v 37.3276 -136.544 1248.61
v 39.1734 -136.224 1248.69
v 38.1392 -135.904 1249.52
v 40.0636 -134.907 1250.71
v 39.8453 -135.807 1249.78
v 40.2024 -136.214 1250.64
v 40.3456 -135.085 1251.78
v 39.1545 -137.153 1249.04
v 39.8419 -136.669 1249.91
v 29.7527 -128.35 1251.04
v 30.5111 -127.813 1252.39
v 28.0806 -130.291 1248.8
v 27.7979 -131.183 1248.06
v 28.7472 -129.351 1249.65
v 29.0382 -130.622 1250.02
v 30.2768 -129.929 1250.55
v 31.4016 -129.064 1252.35
v 31.9802 -127.694 1252.87
v 33.2385 -127.808 1253.81
v 33.3468 -127.925 1255.24
v 27.7863 -132.367 1247.16
v 29.4279 -132.336 1247.95
v 30.5266 -130.99 1248.83
v 32.2694 -129.415 1251.28
v 33.8382 -129.287 1252.83
v 32.7483 -129.083 1252.45
v 34.5405 -128.259 1253.82
v 32.9208 -128.938 1253.93
v 34.6634 -128.514 1255.55
v 29.3798 -133.888 1245.83
v 28.457 -134.954 1245.85
v 27.765 -133.843 1246.46
v 28.9047 -132.796 1246.41
v 29.1315 -133.834 1247.14
v 34.9238 -129.776 1253.29
v 36.1604 -129.49 1255.18
v 29.965 -135.23 1245.44
v 30.0285 -135.688 1246.48
v 36.3415 -130.933 1254.25
v 29.9049 -136.848 1245.57
v 37.3399 -131.967 1253.29
v 37.9693 -131.165 1254.25
v 31.4906 -137.072 1245.42
v 31.9957 -138.079 1245.79
v 32.8144 -137.212 1245.46
v 32.3065 -136.278 1246.37
v 32.8608 -137.722 1246.92
v 39.212 -132.827 1254.08
v 33.9981 -138.13 1245.98
v 34.7467 -136.811 1246.94
v 33.7125 -137.139 1246.77
v 34.2838 -137.983 1247.4
v 35.4715 -137.223 1247.43
v 39.1745 -134.996 1253.19
v 35.323 -138.066 1246.31
v 34.7851 -138.752 1246.6
v 36.1016 -139.018 1247.6
v 36.6771 -137.159 1248.27
v 35.7223 -138.23 1248.45
v 37.4265 -137.328 1249.23
v 37.52 -137.869 1250.03
v 38.6934 -135.813 1250.52
v 38.1163 -136.641 1249.7
v 38.7646 -136.534 1250.78
v 38.5687 -137.222 1250.94
v 39.2402 -136.258 1251.96
v 39.1885 -135.372 1252.23
v 40.5959 -136.302 1252.56
v 40.5067 -135.478 1253.38
v 37.2018 -139.096 1248.88
v 37.8922 -138.173 1248.33
v 39.8587 -137.571 1250.65
v 40.4421 -137.039 1251.95
v 27.954 -129.024 1250.81
v 27.0267 -129.745 1250.43
v 27.0471 -129.128 1251.59
v 28.3915 -128.174 1252.67
v 29.585 -127.642 1254.45
v 26.7879 -132.491 1247.79
v 26.1974 -131.849 1248.91
v 26.8409 -130.97 1249.06
v 28.1481 -131.557 1249.43
v 27.5088 -131.083 1250.6
v 28.7953 -129.965 1251.34
v 29.3772 -129.249 1252.73
v 31.7831 -128.799 1253.88
v 30.2576 -128.849 1253.76
v 31.5985 -127.603 1255.05
v 32.0857 -128.816 1255.99
v 33.3916 -128.224 1257.06
v 26.8972 -133.404 1247.16
v 26.1547 -133.318 1247.91
v 26.3558 -134.227 1247.39
v 27.5363 -132.832 1248.68
v 27.7114 -133.886 1247.85
v 33.9708 -129.393 1255.85
v 27.6929 -135.734 1246.14
v 26.7633 -135.617 1246.82
v 28.9458 -134.821 1246.85
v 27.2767 -134.558 1246.52
v 27.9323 -134.684 1247.38
v 27.9372 -135.711 1247.26
v 36.1624 -129.96 1256.57
v 35.0507 -129.149 1257.01
v 28.2043 -136.671 1246.01
v 27.3674 -136.625 1246.45
v 28.6333 -135.921 1245.73
v 29.1237 -135.974 1246.7
v 29.191 -137.605 1245.97
v 30.4787 -136.802 1246.58
v 29.866 -137.404 1246.94
v 37.6432 -132.597 1255.1
v 30.592 -137.921 1245.83
v 31.1796 -139.085 1246.5
v 31.5706 -137.753 1246.91
v 38.5823 -133.858 1254.26
v 38.6051 -132.829 1256.2
v 32.8533 -139.487 1246.86
v 32.8341 -138.785 1247.83
v 34.0737 -138.736 1248.11
v 33.2865 -139.238 1249
v 39.1534 -135.247 1255.27
v 33.92 -139.792 1247.54
v 35.0787 -139.97 1249.36
v 35.5743 -138.813 1249.82
v 36.8018 -138.395 1250.05
v 39.1407 -137.183 1252.23
v 38.7012 -137.839 1252.23
v 39.4839 -135.966 1253.74
v 39.4934 -136.858 1253.83
v 39.222 -137.623 1253.65
v 40.0798 -135.017 1255.22
v 40.4545 -136.19 1255.04
v 39.3069 -138.529 1251.02
v 38.5533 -139.203 1251.49
v 39.9338 -138.276 1252.24
v 40.3249 -137.926 1253.38
v 40.5012 -137.458 1254.31
v 25.7777 -130.02 1251.73
v 26.7462 -128.558 1253.89
v 27.6808 -128.013 1254.6
v 27.893 -127.871 1256.21
v 25.9973 -130.524 1250.53
v 25.1462 -131.358 1250.89
v 27.2121 -130.409 1252.12
v 27.8677 -129.582 1253.33
v 28.5486 -129.039 1254.49
v 29.2436 -128.739 1256.09
v 29.5684 -127.616 1256.26
v 31.1383 -127.755 1257.73
v 25.3144 -132.978 1249.27
v 26.9234 -132.198 1249.97
v 32.0226 -128.12 1258.6
v 25.4308 -134.094 1248.62
v 26.9979 -134.073 1248.43
v 26.488 -133.551 1249.42
v 26.5277 -134.578 1248.95
v 33.4844 -128.836 1258.68
v 34.301 -129.652 1258.72
v 33.8986 -129.765 1258.89
v 34.039 -129.931 1258.48
v 26.4208 -137.046 1247.38
v 27.2278 -134.856 1247.96
v 26.919 -135.966 1248.33
v 35.3293 -130.511 1256.95
v 35.0333 -129.716 1258.19
v 35.301 -130.98 1258.41
v 26.7138 -137.682 1247.32
v 28.3211 -137.003 1247.3
v 27.323 -136.982 1248.06
v 27.7151 -137.71 1248.07
v 36.3756 -130.963 1257.85
v 28.0755 -137.864 1246.51
v 29.3161 -138.707 1246.54
v 28.558 -138.032 1247.77
v 36.9136 -132.502 1257.5
v 37.1451 -132.839 1257.9
v 30.3628 -138.727 1247.83
v 29.732 -139.46 1247.05
v 38.4615 -133.769 1257.44
v 38.2964 -134.457 1257.32
v 38.4776 -134.594 1257.5
v 30.8123 -140.331 1247.93
v 32.1157 -140.59 1248.91
v 39.7459 -135.209 1256.52
v 39.6435 -135.604 1257.02
v 38.4088 -138.4 1254.19
v 39.4588 -136.625 1255.78
v 40.2707 -136.769 1256.23
v 39.2024 -136.332 1257.05
v 40.0129 -137.223 1256.87
v 40.0237 -136.54 1256.8
v 39.7182 -136.353 1257.1
v 39.413 -136.445 1257.22
v 39.4428 -139.026 1253.3
v 40.0489 -138.526 1254.12
v 40.1602 -138.39 1255.17
v 40.3355 -137.511 1255.92
v 24.7635 -130.958 1252.34
v 25.2686 -129.57 1254.25
v 26.7099 -128.296 1255.93
v 26.9043 -129.506 1255.78
v 25.6773 -128.926 1256.1
v 24.5241 -132.969 1250.81
v 24.2641 -131.821 1252.55
v 26.0894 -131.436 1252.23
v 26.3851 -130.272 1254.1
v 25.7698 -130.869 1254.39
v 29.7439 -127.999 1259.59
v 30.4122 -128.217 1259.81
v 31.2244 -128.114 1259.24
v 25.5785 -133.895 1251.14
v 25.6633 -132.498 1251.82
v 31.0943 -128.972 1259.55
v 32.1865 -128.364 1259.09
v 32.503 -128.643 1259.23
v 32.7391 -129.35 1259.04
v 32.8032 -129.182 1259.22
v 32.491 -129.289 1259.21
v 31.9286 -129.114 1259.29
v 31.9278 -128.93 1259.48
v 31.051 -128.804 1259.74
v 25.9256 -135.678 1250.13
v 33.0487 -129.491 1259.15
v 25.4925 -136.236 1248.54
v 26.7147 -137.037 1248.92
v 27.0432 -138.727 1247.67
v 26.0161 -137.909 1248.23
v 27.0955 -138.165 1249.05
v 28.055 -139.177 1247.37
v 28.1862 -140.036 1248.19
v 29.246 -139.014 1248.39
v 27.7921 -138.623 1248.76
v 28.6487 -139.476 1249.26
v 29.3811 -140.521 1248.39
v 30.06 -139.568 1248.95
v 39.2789 -136.846 1257.27
v 39.3269 -137.582 1257.08
v 39.4472 -137.498 1257.21
v 39.1885 -138.21 1257.26
v 38.8484 -138.678 1257.23
v 39.4032 -139.365 1255.75
v 38.8927 -139.645 1255.41
v 38.2122 -139.918 1255.87
v 40.0561 -138.171 1256.47
v 39.7896 -138.878 1256.27
v 39.2078 -138.542 1257.29
v 39.4242 -138.801 1257.15
v 39.3932 -139.279 1256.79
v 39.4645 -139.062 1256.97
v 24.4367 -130.322 1255.35
v 25.8243 -130.252 1256.66
v 27.5137 -129.068 1257.59
v 27.7544 -128.065 1259.49
v 28.8232 -127.886 1259.06
v 28.4607 -128.129 1260.13
v 28.5901 -128.857 1260.48
v 23.7862 -133.584 1252.64
v 25.084 -132.635 1253.44
v 24.7289 -133.205 1254.32
v 24.3518 -134.598 1250.81
v 24.8756 -133.716 1253.3
v 24.7412 -136.946 1250.35
v 25.3951 -135.999 1251.88
v 25.4075 -138.1 1249.39
v 25.9125 -137.095 1250.74
v 26.1938 -139.218 1248.98
v 26.3076 -138.317 1250.61
v 27.2191 -139.846 1248.58
v 27.578 -139.238 1249.69
v 29.6466 -141.07 1249.59
v 27.9343 -140.712 1249.37
v 28.8325 -139.953 1250.05
v 29.7883 -140.16 1250.37
v 29.8389 -140.449 1251.94
v 37.6762 -139.263 1257.76
v 38.2712 -139.034 1257.25
v 38.2543 -139.181 1257.58
v 38.6792 -139.762 1257.07
v 37.7845 -140.034 1257.31
v 37.7775 -139.894 1257.65
v 39.0827 -139.551 1256.88
v 39.1458 -139.406 1257.11
v 38.7101 -139.017 1257.45
v 38.9017 -139.319 1257.34
v 24.3919 -130.115 1258.34
v 25.6374 -128.865 1259.33
v 26.4685 -128.412 1259.34
v 26.9534 -128.419 1260.42
v 25.9157 -128.792 1260.36
v 26.2493 -128.896 1261.06
v 23.5494 -132.356 1256.27
v 23.9709 -131.011 1255.8
v 23.7787 -131.289 1257.05
v 24.8103 -131.85 1257.05
v 26.5896 -129.489 1258.72
v 26.9225 -129.348 1260.96
v 27.5038 -128.528 1260.76
v 27.6369 -129.094 1260.36
v 27.6235 -128.967 1260.78
v 23.6446 -132.605 1254.25
v 23.6007 -134.46 1253.78
v 24.5808 -133.715 1255.52
v 24.7234 -134.232 1253.99
v 24.1768 -136.323 1252
v 24.9741 -135.875 1254.04
v 24.8637 -138.361 1251.14
v 25.8475 -137.985 1251.82
v 26.8672 -139.479 1251.01
v 25.6561 -139.667 1250.38
v 26.1473 -139.015 1252.11
v 26.5795 -140.42 1250.07
v 27.4538 -140.196 1251.64
v 28.135 -140.704 1252.81
v 29.7252 -141.523 1251.96
v 28.0334 -141.611 1251.69
v 24.0956 -130.71 1260.07
v 24.9945 -129.497 1260.55
v 25.1527 -129.542 1261.14
v 25.3805 -129.846 1261.4
v 25.9848 -129.946 1260.77
v 25.9555 -129.883 1261.23
v 25.2641 -130.798 1260.88
v 23.5897 -134.087 1256.88
v 24.6188 -132.786 1257.66
v 23.7958 -135.994 1255.39
v 24.9207 -135.557 1257.1
v 24.0353 -136.89 1253.76
v 24.6186 -138.916 1253.51
v 25.5946 -138.336 1254.67
v 25.3017 -140.298 1252.6
v 26.4947 -139.899 1252.7
v 26.2081 -139.846 1254.14
v 26.9808 -141.479 1251.94
v 25.9734 -141.1 1252.5
v 26.9159 -140.294 1252.63
v 27.0942 -140.602 1253.36
v 26.7057 -140.411 1253.65
v 26.6791 -141.73 1253.53
v 34.614 -139.849 1258.44
v 34.5229 -140.027 1258.71
v 35.1739 -140.562 1257.64
v 35.1946 -140.449 1258.38
v 24.5152 -130.371 1261.25
v 23.8359 -131.475 1259.81
v 23.8125 -132.613 1260.12
v 24.9812 -131.557 1261.55
v 24.1409 -131.671 1261.32
v 24.4653 -131.535 1261.62
v 24.9258 -132.561 1261.21
v 24.8403 -132.436 1261.62
v 25.2223 -130.767 1261.47
v 23.9098 -135.83 1256.93
v 24.5283 -138.598 1255.11
v 25.8107 -138.556 1256.74
v 25.2986 -140.594 1254.14
v 26.073 -139.637 1255.28
v 26.5019 -140.343 1255.05
v 25.2706 -140.276 1255.69
v 26.6623 -140.046 1257.42
v 25.8605 -141.308 1254.47
v 27.3629 -140.93 1255.31
v 27.159 -142.02 1255.61
v 26.4299 -141.687 1255.78
v 28.3633 -141.091 1256.14
v 27.5318 -141.986 1254.22
v 31.654 -140.609 1258.55
v 31.805 -140.713 1259.49
v 32.1155 -141.428 1258.43
v 24.0768 -133.653 1260.78
v 24.5235 -134.88 1260.82
v 24.1849 -133.231 1261.41
v 24.5953 -134.092 1261.52
v 25.2396 -134.35 1261.5
v 25.3796 -134.734 1260.89
v 26.2816 -136.761 1261.19
v 26.7185 -137.933 1260.84
v 26.6477 -137.979 1261.07
v 25.9833 -141.259 1256.1
v 25.8068 -140.505 1257.31
v 27.2442 -140.834 1257.21
v 28.4475 -142.209 1258.15
v 30.0693 -141.816 1259.95
v 26.5166 -138.465 1261.06
v 27.7418 -140.32 1260.37
v 27.7544 -140.3 1260.74
v 27.9693 -142.207 1259.37
v 27.5599 -141.97 1259.56
v 27.3723 -141.502 1260.12
v 28.1824 -142.183 1260.23
v 27.8517 -141.946 1260.42
v 28.9251 -141.272 1260.26
v 28.4273 -141.227 1260.54
v 28.7811 -141.526 1260.42
v 27.1908 -140.722 1260.58
v 27.9665 -141.721 1260.58
v 28.315 -142.123 1260.43
v 28.7856 -142.202 1259.84
v 33.8986 -129.765 1258.89
v 35.301 -130.98 1258.41
v 37.1451 -132.839 1257.9
v 38.4776 -134.594 1257.5
v 39.2024 -136.332 1257.05
v 39.2024 -136.332 1257.05
v 39.413 -136.445 1257.22
v 39.413 -136.445 1257.22
v 30.4122 -128.217 1259.81
v 31.0943 -128.972 1259.55
v 32.7391 -129.35 1259.04
v 32.7391 -129.35 1259.04
v 32.8032 -129.182 1259.22
v 32.8032 -129.182 1259.22
v 32.491 -129.289 1259.21
v 31.9286 -129.114 1259.29
v 31.9278 -128.93 1259.48
v 31.051 -128.804 1259.74
v 33.0487 -129.491 1259.15
v 33.0487 -129.491 1259.15
v 33.0487 -129.491 1259.15
v 39.2789 -136.846 1257.27
v 39.2789 -136.846 1257.27
v 39.2789 -136.846 1257.27
v 39.3269 -137.582 1257.08
v 39.3269 -137.582 1257.08
v 39.4472 -137.498 1257.21
v 39.4472 -137.498 1257.21
v 39.4472 -137.498 1257.21
v 39.1885 -138.21 1257.26
v 39.1885 -138.21 1257.26
v 38.8484 -138.678 1257.23
v 38.8484 -138.678 1257.23
v 39.2078 -138.542 1257.29
v 39.2078 -138.542 1257.29
v 28.5901 -128.857 1260.48
v 28.5901 -128.857 1260.48
v 37.6762 -139.263 1257.76
v 38.2543 -139.181 1257.58
v 38.2543 -139.181 1257.58
v 37.7775 -139.894 1257.65
v 38.7101 -139.017 1257.45
v 26.2493 -128.896 1261.06
v 26.2493 -128.896 1261.06
v 26.9225 -129.348 1260.96
v 27.5038 -128.528 1260.76
v 27.6235 -128.967 1260.78
v 25.1527 -129.542 1261.14
v 25.3805 -129.846 1261.4
v 25.9555 -129.883 1261.23
v 34.5229 -140.027 1258.71
v 35.1946 -140.449 1258.38
v 24.9812 -131.557 1261.55
v 24.8403 -132.436 1261.62
v 25.2223 -130.767 1261.47
v 31.805 -140.713 1259.49
v 31.805 -140.713 1259.49
v 24.1849 -133.231 1261.41
v 24.5953 -134.092 1261.52
v 25.2396 -134.35 1261.5
v 26.2816 -136.761 1261.19
v 26.2816 -136.761 1261.19
v 26.6477 -137.979 1261.07
v 30.0693 -141.816 1259.95
v 26.5166 -138.465 1261.06
v 27.7544 -140.3 1260.74
v 28.9251 -141.272 1260.26
v 28.4273 -141.227 1260.54
v 28.4273 -141.227 1260.54
v 27.9665 -141.721 1260.58
v 28.315 -142.123 1260.43
v 28.315 -142.123 1260.43
v 28.315 -142.123 1260.43
f 44 1 5
f 46 2 1
f 46 1 45
f 2 47 3
f 46 47 2
f 10 4 5
f 4 44 5
f 8 49 4
f 5 1 6
f 12 6 14
f 12 5 6
f 2 6 1
f 6 2 3
f 14 6 3
f 14 3 7
f 3 57 7
f 69 59 17
f 15 8 10
f 8 4 10
f 8 59 49
f 59 8 17
f 10 5 9
f 15 10 9
f 5 12 9
f 12 14 19
f 11 21 13
f 13 21 23
f 13 23 62
f 14 7 25
f 25 7 26
f 65 26 7
f 8 15 17
f 17 15 16
f 28 17 16
f 27 28 16
f 17 28 69
f 9 18 15
f 15 18 16
f 11 72 21
f 72 79 31
f 72 31 21
f 21 31 22
f 12 19 9
f 9 19 20
f 19 24 20
f 18 9 20
f 24 32 20
f 23 21 22
f 19 14 24
f 14 25 24
f 25 35 24
f 23 22 73
f 25 26 35
f 26 75 86
f 37 27 29
f 36 77 27
f 16 18 29
f 18 20 29
f 16 29 27
f 20 32 30
f 20 30 29
f 22 31 82
f 24 33 32
f 35 33 24
f 35 38 33
f 30 32 34
f 32 33 34
f 38 34 33
f 22 82 83
f 86 35 26
f 86 97 35
f 36 27 37
f 29 30 37
f 30 39 37
f 34 39 30
f 39 34 40
f 38 40 34
f 97 38 35
f 97 95 38
f 40 38 95
f 40 95 106
f 37 39 101
f 100 37 101
f 40 104 39
f 40 107 104
f 101 39 104
f 46 45 112
f 46 112 47
f 112 113 47
f 120 48 47
f 121 48 120
f 120 47 113
f 43 41 44
f 42 41 43
f 1 44 45
f 41 45 44
f 125 52 53
f 53 54 126
f 118 53 126
f 126 54 55
f 48 3 47
f 3 48 57
f 121 129 48
f 48 129 57
f 135 42 49
f 49 132 135
f 43 49 42
f 4 43 44
f 49 43 4
f 51 52 50
f 125 50 52
f 13 53 52
f 55 54 63
f 55 63 56
f 56 127 55
f 127 56 137
f 129 58 57
f 57 58 65
f 139 59 69
f 59 132 49
f 139 132 59
f 70 60 140
f 52 61 11
f 51 60 61
f 61 52 51
f 52 11 13
f 53 13 62
f 53 62 54
f 54 62 63
f 62 23 63
f 63 23 64
f 74 64 73
f 63 64 56
f 137 56 67
f 56 64 67
f 7 57 65
f 75 26 65
f 65 66 75
f 66 65 58
f 67 141 137
f 69 68 139
f 69 76 68
f 147 68 76
f 78 71 70
f 60 70 71
f 78 70 148
f 72 61 71
f 72 71 79
f 60 71 61
f 71 78 79
f 11 61 72
f 73 83 84
f 73 22 83
f 73 64 23
f 74 73 84
f 84 85 74
f 64 74 67
f 75 87 86
f 75 144 87
f 66 144 75
f 28 76 69
f 28 27 77
f 28 77 76
f 77 147 76
f 88 147 77
f 78 80 79
f 152 78 153
f 31 79 80
f 80 81 31
f 82 31 90
f 82 90 92
f 82 92 83
f 81 90 31
f 83 93 84
f 83 92 93
f 93 85 84
f 74 85 143
f 86 87 97
f 144 150 87
f 97 87 98
f 87 150 98
f 74 143 67
f 151 88 157
f 77 36 88
f 152 89 78
f 89 91 81
f 81 80 89
f 80 78 89
f 152 155 89
f 90 81 91
f 91 92 90
f 92 91 94
f 105 94 91
f 89 103 91
f 105 91 103
f 92 94 93
f 96 93 94
f 95 97 106
f 93 96 85
f 96 94 164
f 99 88 36
f 157 88 99
f 157 99 158
f 100 36 37
f 99 36 100
f 102 99 100
f 173 99 102
f 100 101 102
f 102 101 110
f 104 110 101
f 110 104 111
f 173 102 110
f 103 165 105
f 89 160 103
f 162 165 103
f 111 104 107
f 164 94 105
f 106 107 40
f 108 107 106
f 108 111 107
f 106 109 108
f 106 97 109
f 109 97 98
f 110 111 174
f 173 110 174
f 108 174 111
f 116 114 177
f 183 177 114
f 116 177 176
f 176 112 116
f 179 112 176
f 115 181 183
f 42 115 41
f 41 115 114
f 115 183 114
f 114 116 41
f 45 41 116
f 116 112 45
f 117 118 186
f 118 119 187
f 118 187 186
f 190 121 120
f 120 113 180
f 180 190 120
f 119 188 189
f 190 122 121
f 134 123 135
f 135 123 42
f 123 115 42
f 115 123 181
f 50 125 124
f 184 124 125
f 118 117 125
f 118 125 53
f 118 126 119
f 126 55 128
f 128 55 127
f 126 128 119
f 128 127 130
f 128 188 119
f 130 127 198
f 188 128 130
f 122 129 121
f 58 129 131
f 122 131 129
f 58 131 138
f 131 206 138
f 132 139 133
f 135 132 134
f 134 132 133
f 202 134 133
f 136 51 124
f 60 51 136
f 124 51 50
f 137 141 198
f 137 198 127
f 138 66 58
f 138 144 66
f 133 139 209
f 209 139 142
f 207 209 142
f 201 140 60
f 201 60 136
f 141 67 143
f 145 68 147
f 139 68 142
f 142 68 145
f 215 142 145
f 140 148 70
f 140 212 148
f 141 143 214
f 145 147 146
f 216 146 220
f 151 147 88
f 78 148 153
f 148 149 153
f 212 217 148
f 148 217 149
f 143 218 214
f 144 219 150
f 220 146 151
f 158 220 151
f 147 151 146
f 149 221 154
f 154 155 152
f 153 154 152
f 149 154 153
f 222 154 221
f 160 89 155
f 96 164 169
f 85 96 169
f 156 85 169
f 85 218 143
f 156 218 85
f 234 98 150
f 234 150 219
f 158 151 157
f 159 158 99
f 159 99 173
f 160 155 161
f 154 161 155
f 173 172 159
f 222 161 154
f 160 162 103
f 162 167 165
f 161 162 160
f 162 163 167
f 163 162 161
f 228 163 161
f 105 166 164
f 165 166 105
f 167 166 165
f 166 168 164
f 164 168 169
f 168 166 229
f 109 98 171
f 108 109 170
f 109 171 170
f 108 170 175
f 171 98 234
f 235 170 171
f 171 234 235
f 173 174 236
f 172 173 236
f 108 175 174
f 174 175 238
f 175 170 240
f 170 235 240
f 241 242 178
f 242 243 179
f 180 113 179
f 245 177 183
f 245 183 182
f 245 182 246
f 176 177 178
f 241 178 177
f 245 241 177
f 178 179 176
f 179 178 242
f 113 112 179
f 251 190 180
f 182 181 194
f 182 183 181
f 184 117 185
f 125 117 184
f 184 185 254
f 185 117 186
f 119 189 187
f 189 249 187
f 189 250 249
f 188 130 191
f 250 189 188
f 191 250 188
f 190 252 122
f 198 191 130
f 252 192 122
f 193 123 134
f 181 123 193
f 202 193 134
f 194 181 193
f 195 194 193
f 193 202 195
f 196 197 124
f 197 136 124
f 257 197 196
f 258 257 196
f 196 124 184
f 254 196 184
f 192 131 122
f 131 192 206
f 208 200 199
f 264 200 208
f 199 202 133
f 200 202 199
f 203 204 201
f 195 202 200
f 203 197 265
f 265 204 203
f 136 203 201
f 203 136 197
f 144 138 205
f 198 141 267
f 138 206 205
f 144 205 219
f 205 274 219
f 206 268 205
f 205 268 274
f 207 208 199
f 275 208 207
f 199 133 209
f 201 210 140
f 199 209 207
f 210 204 271
f 201 204 210
f 210 271 213
f 212 210 213
f 267 141 214
f 274 282 219
f 275 207 211
f 275 211 276
f 207 142 211
f 212 140 210
f 211 142 215
f 213 217 212
f 217 213 280
f 211 215 276
f 277 213 271
f 213 277 280
f 214 278 267
f 279 278 214
f 145 146 215
f 146 216 215
f 215 216 276
f 276 216 281
f 221 217 280
f 214 218 283
f 283 279 214
f 282 287 219
f 221 149 217
f 338 223 221
f 338 221 280
f 223 222 221
f 338 376 223
f 156 224 218
f 231 224 156
f 219 287 234
f 218 224 283
f 224 231 290
f 283 224 292
f 290 292 224
f 225 220 158
f 225 226 286
f 223 227 222
f 158 159 225
f 159 226 225
f 469 227 223
f 227 161 222
f 227 228 161
f 172 226 159
f 227 289 228
f 469 289 227
f 167 163 230
f 228 230 163
f 228 289 230
f 167 229 166
f 167 230 229
f 229 233 232
f 229 230 233
f 230 289 233
f 231 156 169
f 168 231 169
f 229 232 168
f 231 168 232
f 235 234 287
f 237 226 172
f 236 237 172
f 237 236 297
f 297 236 238
f 237 297 345
f 236 174 238
f 240 239 175
f 238 175 239
f 298 238 239
f 301 302 241
f 242 241 302
f 243 180 179
f 242 303 243
f 251 180 244
f 244 180 243
f 245 246 241
f 253 246 182
f 308 315 254
f 301 241 246
f 185 186 247
f 247 308 185
f 308 254 185
f 308 247 309
f 310 308 309
f 187 249 248
f 248 186 187
f 248 247 186
f 309 247 248
f 355 304 249
f 248 249 304
f 250 355 249
f 401 355 250
f 252 190 251
f 306 253 256
f 253 182 194
f 194 256 253
f 315 258 254
f 260 192 317
f 252 255 192
f 192 255 317
f 318 260 317
f 257 259 265
f 256 194 195
f 195 327 256
f 266 265 259
f 306 256 363
f 363 256 327
f 325 266 259
f 328 266 325
f 258 196 254
f 258 259 257
f 314 259 258
f 325 259 314
f 326 198 263
f 326 319 198
f 206 192 260
f 268 206 260
f 261 268 260
f 318 261 260
f 519 262 261
f 520 263 501
f 501 263 269
f 200 327 195
f 327 200 264
f 257 265 197
f 266 204 265
f 266 272 204
f 272 271 204
f 266 328 272
f 198 267 263
f 261 274 268
f 263 267 269
f 261 262 502
f 264 208 270
f 275 270 208
f 330 264 270
f 273 277 271
f 272 273 271
f 269 267 278
f 278 279 269
f 502 503 261
f 332 275 276
f 334 280 277
f 274 261 282
f 503 282 261
f 338 280 334
f 279 283 284
f 282 503 504
f 505 296 283
f 283 296 284
f 504 507 282
f 285 216 220
f 281 216 285
f 225 285 220
f 286 285 225
f 377 223 376
f 377 469 223
f 282 288 287
f 295 288 282
f 282 507 295
f 232 233 342
f 231 232 290
f 291 235 287
f 294 291 287
f 293 291 294
f 339 292 290
f 232 342 340
f 340 290 232
f 339 290 340
f 293 294 295
f 341 293 295
f 522 508 506
f 295 507 523
f 294 287 288
f 295 294 288
f 226 237 345
f 299 239 240
f 239 299 298
f 298 297 238
f 298 299 344
f 345 297 344
f 297 298 344
f 300 240 235
f 300 235 291
f 240 300 299
f 300 293 347
f 291 293 300
f 300 347 299
f 299 347 348
f 344 299 348
f 302 301 353
f 242 305 303
f 302 305 242
f 353 388 305
f 302 353 305
f 303 305 389
f 304 355 398
f 244 243 303
f 357 252 251
f 357 251 244
f 357 244 356
f 303 390 244
f 358 357 356
f 253 306 246
f 246 306 307
f 306 360 307
f 301 246 307
f 315 361 314
f 314 361 364
f 361 308 310
f 308 361 315
f 248 304 309
f 309 354 310
f 359 401 250
f 357 311 252
f 252 313 255
f 252 311 313
f 312 313 311
f 358 312 311
f 312 358 400
f 546 324 509
f 317 255 313
f 317 313 312
f 312 318 317
f 306 363 360
f 360 363 407
f 315 314 258
f 198 322 191
f 316 191 322
f 359 191 316
f 510 518 536
f 198 319 322
f 320 261 318
f 320 318 323
f 321 513 517
f 515 322 319
f 511 521 514
f 512 513 321
f 509 324 318
f 321 517 516
f 510 517 518
f 324 323 318
f 516 517 510
f 327 365 363
f 325 314 366
f 320 519 261
f 330 327 264
f 330 367 327
f 325 368 328
f 365 327 367
f 329 275 332
f 270 275 329
f 330 270 329
f 369 330 329
f 369 367 330
f 328 331 272
f 331 273 272
f 331 335 273
f 335 331 372
f 370 331 328
f 281 332 276
f 281 337 333
f 281 333 332
f 332 371 329
f 371 332 333
f 369 329 371
f 335 334 277
f 335 277 273
f 335 336 334
f 336 335 372
f 337 281 285
f 338 334 336
f 337 285 373
f 373 374 337
f 286 373 285
f 375 338 336
f 289 343 233
f 379 343 289
f 379 289 378
f 295 523 341
f 343 342 233
f 524 525 527
f 530 528 526
f 349 531 532
f 529 531 349
f 533 386 534
f 346 226 345
f 344 384 345
f 341 350 293
f 350 347 293
f 535 350 341
f 347 352 348
f 351 344 348
f 535 387 350
f 350 352 347
f 351 348 352
f 535 542 387
f 384 344 351
f 384 351 385
f 385 351 352
f 350 385 352
f 388 389 305
f 389 390 303
f 391 356 390
f 301 307 353
f 307 395 353
f 354 309 304
f 397 310 354
f 398 354 304
f 356 244 390
f 358 311 357
f 403 307 360
f 361 362 364
f 361 397 362
f 359 250 191
f 546 537 324
f 365 407 363
f 407 404 360
f 364 366 314
f 362 406 364
f 406 366 364
f 366 368 325
f 410 368 366
f 370 328 368
f 409 365 367
f 410 370 368
f 365 409 407
f 369 412 367
f 411 331 370
f 331 411 372
f 372 411 415
f 372 375 336
f 371 374 414
f 333 374 371
f 369 371 414
f 415 375 372
f 374 333 337
f 373 418 374
f 418 373 417
f 373 286 417
f 374 418 436
f 436 414 374
f 376 338 375
f 286 226 417
f 289 469 442
f 380 445 383
f 379 539 343
f 533 540 386
f 539 379 378
f 346 345 381
f 381 345 384
f 382 444 346
f 346 381 382
f 541 382 381
f 382 552 444
f 541 552 382
f 381 385 387
f 387 385 350
f 385 381 384
f 380 387 542
f 380 383 387
f 541 381 387
f 388 420 389
f 390 392 391
f 393 391 392
f 391 393 400
f 358 391 400
f 389 392 390
f 420 392 389
f 392 421 393
f 420 421 392
f 403 395 307
f 395 403 394
f 395 396 388
f 353 395 388
f 361 310 397
f 395 394 396
f 425 397 354
f 391 358 356
f 399 355 401
f 354 398 423
f 398 355 399
f 402 537 546
f 547 401 359
f 402 546 545
f 547 399 401
f 546 422 545
f 360 404 403
f 362 397 405
f 362 405 406
f 405 408 406
f 403 404 394
f 397 427 405
f 405 429 408
f 405 427 429
f 407 430 404
f 430 428 404
f 408 366 406
f 408 410 366
f 432 410 408
f 431 407 409
f 430 407 431
f 433 431 409
f 412 409 367
f 369 414 412
f 412 433 409
f 433 412 437
f 370 410 413
f 413 411 370
f 411 413 434
f 432 413 410
f 437 412 414
f 436 437 414
f 416 376 375
f 375 415 416
f 415 411 438
f 434 438 411
f 416 377 376
f 468 418 417
f 471 417 226
f 471 226 444
f 444 226 346
f 289 442 378
f 485 380 538
f 485 445 380
f 388 396 419
f 419 420 388
f 419 446 420
f 419 450 446
f 419 447 450
f 543 422 546
f 549 544 548
f 420 446 421
f 548 446 549
f 426 448 394
f 397 425 449
f 419 396 447
f 396 394 447
f 398 399 423
f 423 399 424
f 550 545 422
f 425 354 423
f 422 454 550
f 424 555 423
f 425 423 555
f 404 426 394
f 404 428 426
f 449 427 397
f 427 449 452
f 427 452 429
f 428 456 455
f 428 455 426
f 455 472 426
f 428 430 456
f 429 432 408
f 431 456 430
f 435 432 459
f 458 431 433
f 432 435 413
f 434 413 435
f 434 440 438
f 440 434 435
f 458 433 437
f 459 460 435
f 440 435 460
f 418 468 436
f 440 439 438
f 439 415 438
f 377 416 467
f 415 439 416
f 439 464 416
f 416 464 467
f 437 436 441
f 441 436 468
f 440 464 439
f 467 469 377
f 460 464 440
f 484 468 417
f 552 471 444
f 443 378 442
f 538 551 485
f 451 549 446
f 451 446 450
f 394 448 447
f 448 450 447
f 474 450 448
f 425 555 449
f 454 422 553
f 451 553 422
f 451 450 558
f 452 449 453
f 554 553 451
f 451 475 554
f 426 472 448
f 448 472 474
f 476 452 453
f 452 476 477
f 554 475 560
f 429 452 477
f 472 455 473
f 457 432 429
f 456 473 455
f 429 477 457
f 459 432 457
f 462 457 477
f 459 457 462
f 458 456 431
f 437 463 458
f 441 463 437
f 456 461 473
f 456 458 461
f 461 458 463
f 459 462 460
f 461 463 481
f 461 481 482
f 473 461 482
f 463 466 481
f 460 462 483
f 465 441 468
f 465 466 441
f 463 441 466
f 464 460 483
f 489 466 465
f 467 464 495
f 467 495 494
f 467 494 469
f 483 495 464
f 484 465 468
f 471 484 417
f 470 443 442
f 442 469 470
f 556 485 551
f 564 471 552
f 558 475 451
f 473 497 559
f 559 497 486
f 476 478 477
f 474 472 473
f 559 474 473
f 475 565 560
f 565 561 560
f 477 478 462
f 462 478 479
f 565 480 561
f 563 479 562
f 482 497 473
f 481 490 482
f 462 568 483
f 462 487 568
f 497 482 491
f 490 481 466
f 489 490 466
f 494 470 469
f 496 485 556
f 567 496 557
f 462 479 487
f 488 479 563
f 488 487 479
f 480 565 566
f 565 498 566
f 570 486 497
f 490 491 482
f 490 489 492
f 491 493 497
f 497 493 570
f 493 491 490
f 490 492 493
f 493 499 570
f 493 492 571
f 500 572 492
f 487 488 568
f 569 496 567
f 498 569 566
f 498 496 569
f 485 496 573
f 500 564 572
f 573 496 498
f 489 465 484
f 500 489 484
f 500 484 471
f 492 489 500
f 564 500 471
