o FMA7265_BP8573_FJ2418
v 31.9496 -126.218 1208.53
v 32.0837 -127.895 1207.78
v 31.8693 -127.964 1206.58
v 31.6675 -126.992 1206.37
v 31.5447 -126.727 1207.28
v 31.5977 -126.12 1206.72
v 31.7738 -125.567 1207.86
v 31.9043 -125.535 1206.73
v 31.9633 -126.187 1206.09
v 33.5029 -128.141 1209.6
v 32.4691 -125.079 1208.78
v 33.1319 -126.317 1209.85
v 33.1434 -125.409 1209.64
v 33.193 -124.662 1208.85
v 33.732 -126.692 1210.13
v 33.7565 -125.768 1210.04
v 33.7975 -124.964 1209.44
v 33.8073 -124.627 1208.83
v 34.3245 -126.412 1210.21
v 34.6125 -125.767 1209.95
v 34.3818 -124.914 1209.15
v 34.406 -124.753 1208.53
v 33.1521 -130.462 1206.02
v 32.3582 -124.828 1207.97
v 32.3103 -124.921 1207.34
v 32.3238 -125.816 1206.07
v 32.5709 -125.084 1206.73
v 32.8991 -124.602 1207.65
v 32.9331 -124.801 1207.06
v 33.2224 -124.512 1208.24
v 33.168 -125.183 1206.45
v 33.5111 -124.563 1207.65
v 33.8129 -124.536 1208.24
v 34.1303 -124.703 1207.68
v 34.0734 -124.996 1206.98
v 32.933 -129.576 1205.35
v 32.3256 -127.884 1205.48
v 32.8283 -127.047 1205.2
v 33.6911 -129.207 1204.5
v 34.3845 -128.445 1204.4
v 33.7187 -125.985 1205.72
v 36.7341 -131.841 1220.27
v 34.8739 -128.511 1210.02
v 36.3006 -127.709 1209.67
v 35.0742 -126.696 1210.07
v 34.9902 -125.297 1209.11
v 35.2636 -126.152 1209.8
v 36.3291 -126.806 1208.98
v 35.5115 -125.793 1207.52
v 35.2461 -133.683 1204.93
v 35.4959 -132.553 1203.72
v 36.1485 -131.7 1203.34
v 35.1905 -127.497 1205.05
v 37.0587 -131.424 1221.19
v 37.0856 -130.826 1220.64
v 37.2322 -132.844 1221.06
v 37.3732 -130.825 1221.26
v 37.6854 -131.495 1221.81
v 37.9321 -130.89 1221.84
v 37.7028 -130.348 1220.67
v 37.9984 -130.581 1221.62
v 38.012 -130.347 1221.25
v 38.3081 -130.281 1221.26
v 38.3073 -130.655 1221.86
v 38.3283 -130.415 1221.55
v 38.3149 -130.215 1220.68
v 38.5686 -131.242 1222.28
v 38.9102 -130.616 1221.84
v 38.8981 -130.322 1221.26
v 38.9738 -130.307 1220.65
v 37.867 -144.477 1218.33
v 38.307 -142.223 1218.17
v 38.2962 -139.822 1218.93
v 37.575 -137.941 1217.83
v 36.9357 -131.078 1220.02
v 36.9582 -132.197 1219.29
v 37.3956 -130.57 1220.09
v 37.411 -130.714 1219.76
v 37.3887 -131.1 1219.37
v 37.7392 -130.416 1220.06
v 38.0221 -130.779 1219.41
v 38.0731 -131.91 1218.57
v 38.4154 -130.534 1219.77
v 38.6947 -136.504 1216.45
v 36.8665 -145.698 1214.24
v 36.5745 -144.741 1213.8
v 38.0278 -142.133 1213.35
v 37.9728 -141.439 1214.96
v 37.5906 -143.014 1211.16
v 36.8351 -147.01 1209.3
v 36.7807 -146.431 1209.43
v 38.0572 -143.989 1208.44
v 38.7837 -135.207 1209.03
v 37.8843 -148.521 1206.97
v 38.2495 -146.817 1206.65
v 36.9743 -136.834 1204.51
v 37.1904 -136.858 1203
v 38.1408 -135.695 1201.94
v 39.1579 -133.058 1222.4
v 40.1196 -132.835 1222.45
v 39.1519 -146.739 1220.84
v 39.3204 -146.333 1221.42
v 39.9863 -144.266 1221.32
v 40.4984 -141.081 1220.62
v 39.5011 -131.377 1222.35
v 40.0534 -130.834 1221.25
v 41.2044 -132.88 1221.7
v 41.3426 -132.13 1220.47
v 39.9227 -132.582 1218
v 40.4265 -131.336 1219.88
v 40.9428 -135.002 1216.41
v 39.207 -140.723 1213.73
v 39.5386 -141.844 1211.01
v 38.8878 -142.27 1209.28
v 40.4209 -141.739 1207.96
v 39.5816 -133.986 1209.07
v 40.1679 -151.626 1205.53
v 40.5607 -152.174 1206.28
v 38.3311 -149.284 1207.28
v 38.9629 -149.247 1205.8
v 39.8545 -142.818 1207.15
v 40.0259 -142.782 1206.73
v 39.8316 -144.091 1206.14
v 39.8608 -143.866 1205.67
v 40.669 -133.236 1207.97
v 41.2199 -133.202 1206.6
v 39.781 -146.65 1205.13
v 40.0616 -147.785 1204.75
v 40.2264 -147.356 1204.3
v 40.4794 -148.73 1204.44
v 40.6524 -148.449 1203.98
v 39.9538 -145.866 1204.81
v 40.7474 -147.415 1200.79
v 38.8778 -141.484 1202.92
v 40.745 -136.634 1201.29
v 39.2717 -134.14 1202.48
v 42.0186 -149.432 1223.43
v 42.108 -149.026 1223.67
v 42.2716 -146.246 1223.5
v 42.2789 -142.056 1221.59
v 42.6699 -139.907 1221.18
v 43.9205 -136.525 1218.94
v 40.9556 -150.27 1215.32
v 41.8004 -134.486 1217.11
v 41.9231 -141.949 1210.29
v 41.2466 -142.15 1209.17
v 41.3082 -142.005 1208.4
v 41.6891 -142.187 1208.59
v 41.8841 -142.481 1208.84
v 43.0707 -142.425 1209.15
v 41.2382 -141.441 1208.46
v 42.248 -153.496 1205.16
v 41.6951 -150.993 1204.18
v 41.7501 -150.436 1203.72
v 42.5768 -151.108 1201.84
v 42.3914 -135.715 1203.1
v 41.0282 -145.395 1198.96
v 40.8753 -143.194 1199.19
v 42.0088 -141.426 1198.55
v 42.731 -140.492 1198.57
v 43.1309 -147.877 1196.53
v 42.8044 -146.05 1195.85
v 42.3274 -143.032 1197.71
v 44.5163 -150.828 1224.2
v 43.5181 -148.946 1224.23
v 44.4183 -152.487 1222.75
v 43.0463 -150.158 1223.91
v 43.7838 -144.043 1223.25
v 43.6267 -142.04 1221.59
v 44.8516 -139.325 1219.54
v 44.0569 -136.341 1217.03
v 43.3045 -138.475 1213.36
v 44.23 -137.467 1214.79
v 44.6794 -140.957 1211.46
v 44.8883 -139.698 1212.62
v 44.2867 -142.493 1209.75
v 44.3022 -142.197 1209.4
v 44.6888 -137.242 1206.06
v 43.3555 -152.308 1203.51
v 43.8165 -153.466 1204.29
v 44.3175 -153.581 1203.93
v 43.943 -140.058 1198.73
v 43.743 -141.07 1197.52
v 44.0913 -141.249 1196.52
v 44.444 -140.847 1197.53
v 44.3693 -140.973 1196.9
v 44.6823 -140.946 1196.32
v 45.0095 -140.924 1196.82
v 45.3179 -141.029 1197.46
v 44.211 -146.013 1193.96
v 43.6955 -143.244 1194.87
v 45.4489 -140.966 1195.08
v 45.5138 -140.753 1195.49
v 45.6654 -144.715 1192.92
v 47.0286 -149.329 1224.65
v 46.6892 -147.173 1224.49
v 46.6216 -155.263 1222.21
v 46.0615 -152.799 1223.72
v 45.921 -141.452 1220.07
v 46.4035 -139.501 1215.23
v 46.1577 -158.088 1209.2
v 46.7712 -158.347 1207.9
v 46.1112 -143.506 1209.71
v 46.2691 -143.486 1209.31
v 46.8909 -144.392 1209.39
v 48.058 -144.172 1207.42
v 46.2666 -140.836 1207.46
v 46.9279 -141.119 1206.41
v 46.4397 -155.274 1202.28
v 47.2395 -140.084 1201.47
v 46.1494 -141.069 1198.61
v 46.6231 -141.782 1196.44
v 45.878 -141.173 1196.58
v 46.4232 -141.725 1197.1
v 45.9496 -149.749 1194
v 45.8959 -141.857 1193.87
v 47.7701 -142.513 1195.48
v 47.8388 -141.839 1193.4
v 45.9196 -140.736 1195.09
v 46.126 -140.79 1195.47
v 46.5288 -141.169 1195.66
v 46.5198 -140.844 1195.06
v 46.7834 -141.1 1194.21
v 47.1731 -149.015 1192.71
v 47.8048 -142.738 1192.88
v 49.8112 -153.714 1222.76
v 49.6782 -149.807 1224.11
v 47.9492 -147.129 1224
v 48.8691 -158.236 1219.11
v 48.5653 -159.103 1216.39
v 49.1482 -159.617 1216.05
v 49.4448 -159.892 1214.88
v 48.5555 -160 1212.2
v 48.7667 -159.926 1213.98
v 49.1 -160.004 1214.21
v 49.3688 -160.032 1213.32
v 48.3372 -142.737 1215.15
v 49.8059 -145.082 1213.71
v 48.1446 -159.759 1211.86
v 48.2505 -159.68 1210.39
v 49.105 -159.795 1210.99
v 50.1688 -145.924 1211.57
v 49.0287 -144.026 1212.03
v 47.3319 -159.271 1209.5
v 47.7914 -159.198 1209.14
v 48.6545 -156.598 1205.36
v 49.3069 -156.829 1205.94
v 49.5532 -156.646 1205.66
v 47.4527 -156.229 1204.97
v 49.0839 -144.085 1206.04
v 50.0763 -151.009 1203.46
v 48.9886 -144.012 1204.28
v 50.1939 -144.79 1200.84
v 48.571 -142.443 1202.47
v 48.9324 -142.855 1201.5
v 49.7858 -145.167 1198.66
v 48.8765 -143.791 1197.37
v 48.1564 -141.627 1193.98
v 48.2191 -141.714 1193.57
v 49.3638 -142.9 1193.63
v 48.5125 -142.211 1193.21
v 48.491 -142.788 1192.87
v 48.5724 -144.013 1192.49
v 49.384 -142.679 1193.24
v 49.2918 -143.131 1192.92
v 50.0109 -143.979 1192.89
v 50.3283 -144.051 1193.19
v 51.3772 -151.523 1223.07
v 50.5368 -149.342 1223.86
v 51.199 -156.432 1220.2
v 50.3135 -158.622 1217.88
v 50.7067 -159.343 1215.77
v 51.3622 -147.258 1215.82
v 49.731 -159.912 1212.37
v 50.1177 -159.833 1213.92
v 51.5844 -147.685 1214.08
v 50.2757 -159.199 1209.88
v 52.2423 -151.417 1211.85
v 52.4169 -150.227 1210.99
v 50.9776 -148.291 1212.43
v 51.0406 -148.641 1211.65
v 51.1229 -147.89 1210.78
v 50.3055 -157.815 1207.44
v 51.8927 -150.489 1208.31
v 51.4627 -148.605 1209.52
v 51.9859 -156.085 1205.98
v 52.413 -152.398 1205.93
v 50.9902 -149.937 1206.95
v 51.223 -150.352 1206.25
v 52.1894 -150.044 1205.32
v 50.4481 -151.035 1203.64
v 50.4274 -151.431 1203.44
v 50.4805 -150.417 1203.18
v 50.4212 -151.548 1202.84
v 51.0255 -151.349 1203.15
v 50.7856 -150.328 1203.18
v 50.9982 -150.436 1202.88
v 50.7919 -150.207 1202.89
v 51.5067 -146.649 1205.16
v 51.5929 -146.311 1203.98
v 50.3044 -157.434 1200.46
v 51.8073 -157.794 1202.28
v 50.2485 -150.977 1202.26
v 50.2928 -150.679 1202.27
v 50.9193 -150.748 1202.58
v 50.7503 -151.001 1202.2
v 50.7676 -150.67 1202.27
v 51.8264 -147.754 1201.7
v 52.188 -148.105 1202.33
v 50.6225 -145.339 1201.76
v 51.0548 -146.058 1202.77
v 52.4173 -149.62 1200.13
v 50.9382 -147.082 1198.36
v 51.4568 -146.981 1199.23
v 52.0765 -147.773 1200.25
v 52.2917 -148.126 1198.59
v 51.6729 -156.488 1195.7
v 49.3297 -155.267 1196.04
v 51.0197 -147.317 1197.48
v 50.9132 -154.61 1193.7
v 50.8746 -145.634 1194.35
v 52.0483 -152.927 1192.48
v 50.2907 -147.396 1191.81
v 51.2672 -145.02 1192.58
v 51.2111 -145.6 1192.24
v 52.2966 -146.199 1192.88
v 52.4861 -146.541 1192.41
v 53.4015 -154.706 1220.09
v 54.2363 -153.007 1220.17
v 53.643 -156.784 1217.81
v 54.2413 -152.697 1219.47
v 54.3119 -157.624 1214.05
v 52.927 -152.582 1213.18
v 54.0848 -153.699 1214.18
v 52.3917 -158.912 1211.91
v 52.9842 -158.038 1210.15
v 54.0935 -157.734 1211.63
v 53.7542 -154.17 1211.97
v 53.7553 -153.648 1210.31
v 54.1192 -154.49 1210.54
v 54.0952 -154.458 1209.93
v 52.6867 -150.259 1210.33
v 52.5283 -152.593 1208.68
v 53.2271 -152.534 1209.43
v 53.7123 -154.29 1208.82
v 52.5379 -150.585 1209.44
v 53.1009 -155.186 1206.62
v 52.9235 -155.392 1206.31
v 53.3581 -154.578 1206.04
v 53.0403 -154.282 1206.65
v 52.8228 -151.819 1204.96
v 53.944 -156.848 1204.22
v 53.645 -151.802 1204.07
v 53.8742 -151.257 1203.13
v 52.8739 -148.521 1203.17
v 53.0666 -148.849 1204.14
v 52.1929 -157.858 1200.27
v 53.4687 -157.799 1201.01
v 53.9842 -152.057 1201.93
v 54.4351 -153.144 1201.35
v 52.79 -150.67 1201.17
v 53.488 -150.806 1202.29
v 53.4127 -152.069 1200.08
v 53.1107 -149.726 1198.61
v 53.8276 -156.812 1196.6
v 54.6591 -152.641 1196.86
v 53.2889 -149.351 1196.28
v 52.5893 -148.677 1197.31
v 52.5444 -148.541 1196.58
v 52.9742 -155.316 1193.82
v 54.0684 -148.631 1193.49
v 53.3993 -151.733 1192.27
v 55.4711 -156.201 1215.33
v 55.8196 -155.26 1216.27
v 56.115 -155.091 1215.61
v 55.713 -154.806 1217.02
v 55.8341 -154.42 1216.92
v 55.3105 -154.098 1216.14
v 55.8704 -154.682 1215.27
v 55.5209 -155.297 1212.71
v 55.676 -156.145 1212.52
v 56.001 -155.29 1214.04
v 55.911 -155.922 1213.89
v 54.7451 -155.06 1210.66
v 54.845 -155.318 1209.72
v 54.8294 -155.972 1209.3
v 54.7328 -154.34 1203.67
v 55.1917 -155.722 1203.97
v 55.3427 -156.726 1202.8
v 55.7378 -155.719 1202.81
v 55.841 -156.358 1202.6
v 55.7441 -156.634 1200.78
v 56.1223 -156.032 1200.63
v 54.9981 -154.122 1201.84
v 54.7907 -153.797 1200.65
v 55.9971 -155.981 1198.73
v 55.944 -155.208 1199
v 55.8558 -155.993 1196.65
v 56.5314 -155.335 1197.13
v 56.5823 -154.365 1195.55
v 55.5379 -155.138 1194.68
v 56.2476 -154.093 1194.34
v 56.5072 -154.681 1195.24
v 55.0167 -153.59 1193.23
v 56.2353 -152.214 1193.96
v 56.0331 -152.533 1193.5
v 56.128 -151.881 1193.53
v 56.3509 -153.389 1194.04
v 56.3587 -152.626 1193.82
v 56.5892 -153.462 1194.4
v 55.1796 -152.348 1192.93
v 55.114 -150.36 1192.97
v 37.575 -137.941 1217.83
v 36.8351 -147.01 1209.3
v 38.7837 -135.207 1209.03
v 37.8843 -148.521 1206.97
v 40.1196 -132.835 1222.45
v 39.5011 -131.377 1222.35
v 39.5386 -141.844 1211.01
v 40.4209 -141.739 1207.96
v 40.4209 -141.739 1207.96
v 40.4209 -141.739 1207.96
v 40.0259 -142.782 1206.73
v 40.0259 -142.782 1206.73
v 42.6699 -139.907 1221.18
v 42.6699 -139.907 1221.18
v 41.3082 -142.005 1208.4
v 41.8841 -142.481 1208.84
v 41.8841 -142.481 1208.84
v 41.8841 -142.481 1208.84
v 43.0707 -142.425 1209.15
v 44.5163 -150.828 1224.2
v 44.8516 -139.325 1219.54
v 43.3045 -138.475 1213.36
v 44.2867 -142.493 1209.75
v 44.2867 -142.493 1209.75
v 44.3022 -142.197 1209.4
v 44.3022 -142.197 1209.4
v 44.6823 -140.946 1196.32
v 45.5138 -140.753 1195.49
v 46.6216 -155.263 1222.21
v 46.6216 -155.263 1222.21
v 46.0615 -152.799 1223.72
v 45.921 -141.452 1220.07
v 46.1112 -143.506 1209.71
v 46.8909 -144.392 1209.39
v 45.9196 -140.736 1195.09
v 46.5198 -140.844 1195.06
v 46.7834 -141.1 1194.21
v 47.9492 -147.129 1224
v 47.9492 -147.129 1224
v 48.8691 -158.236 1219.11
v 48.6545 -156.598 1205.36
v 49.3069 -156.829 1205.94
v 49.5532 -156.646 1205.66
v 50.0763 -151.009 1203.46
v 50.0763 -151.009 1203.46
v 50.0763 -151.009 1203.46
v 48.2191 -141.714 1193.57
v 49.384 -142.679 1193.24
v 50.5368 -149.342 1223.86
v 51.4627 -148.605 1209.52
v 51.9859 -156.085 1205.98
v 51.9859 -156.085 1205.98
v 52.413 -152.398 1205.93
v 51.223 -150.352 1206.25
v 50.4481 -151.035 1203.64
v 50.4481 -151.035 1203.64
v 50.4481 -151.035 1203.64
v 50.4274 -151.431 1203.44
v 50.4274 -151.431 1203.44
v 50.4274 -151.431 1203.44
v 50.4805 -150.417 1203.18
v 50.4805 -150.417 1203.18
v 50.4212 -151.548 1202.84
v 50.4212 -151.548 1202.84
v 50.4212 -151.548 1202.84
v 51.0255 -151.349 1203.15
v 51.0255 -151.349 1203.15
v 51.0255 -151.349 1203.15
v 51.0255 -151.349 1203.15
v 50.7856 -150.328 1203.18
v 50.7856 -150.328 1203.18
v 50.7856 -150.328 1203.18
v 50.9982 -150.436 1202.88
v 50.9982 -150.436 1202.88
v 50.7919 -150.207 1202.89
v 50.7919 -150.207 1202.89
v 50.7919 -150.207 1202.89
v 50.7919 -150.207 1202.89
v 50.2485 -150.977 1202.26
v 50.2485 -150.977 1202.26
v 50.2485 -150.977 1202.26
v 50.2928 -150.679 1202.27
v 50.2928 -150.679 1202.27
v 50.7503 -151.001 1202.2
v 50.7503 -151.001 1202.2
v 50.7503 -151.001 1202.2
v 50.7676 -150.67 1202.27
v 50.7676 -150.67 1202.27
v 51.2672 -145.02 1192.58
v 52.4861 -146.541 1192.41
v 54.2363 -153.007 1220.17
v 54.0848 -153.699 1214.18
v 52.9842 -158.038 1210.15
v 53.1009 -155.186 1206.62
v 53.1009 -155.186 1206.62
v 53.1009 -155.186 1206.62
v 52.9235 -155.392 1206.31
v 52.9235 -155.392 1206.31
v 53.3581 -154.578 1206.04
v 53.3581 -154.578 1206.04
v 56.115 -155.091 1215.61
v 55.8341 -154.42 1216.92
v 55.5209 -155.297 1212.71
v 55.676 -156.145 1212.52
v 56.001 -155.29 1214.04
v 54.8294 -155.972 1209.3
v 55.1917 -155.722 1203.97
v 55.3427 -156.726 1202.8
v 55.841 -156.358 1202.6
v 55.841 -156.358 1202.6
v 56.1223 -156.032 1200.63
v 55.9971 -155.981 1198.73
v 56.5314 -155.335 1197.13
v 56.5314 -155.335 1197.13
v 56.5314 -155.335 1197.13
v 56.5823 -154.365 1195.55
v 56.128 -151.881 1193.53
v 56.3587 -152.626 1193.82
v 56.5892 -153.462 1194.4
v 55.114 -150.36 1192.97
f 1 11 7
f 2 5 3
f 5 4 3
f 6 4 5
f 9 4 6
f 23 2 3
f 2 1 5
f 5 7 6
f 1 7 5
f 6 7 8
f 11 24 7
f 7 24 25
f 8 7 25
f 27 8 25
f 8 9 6
f 8 27 26
f 9 8 26
f 38 9 26
f 37 9 38
f 1 2 10
f 10 2 122
f 10 43 15
f 43 19 15
f 10 423 43
f 1 12 13
f 1 13 11
f 13 14 11
f 14 30 24
f 11 14 24
f 10 15 12
f 1 10 12
f 15 16 12
f 16 13 12
f 14 17 18
f 14 13 17
f 18 30 14
f 17 13 16
f 33 30 18
f 15 19 16
f 19 20 16
f 17 20 21
f 18 17 21
f 21 22 18
f 22 33 18
f 17 16 20
f 45 20 19
f 22 21 46
f 23 122 2
f 37 36 3
f 4 37 3
f 4 9 37
f 3 36 23
f 31 26 27
f 30 28 24
f 25 24 28
f 25 28 29
f 27 25 29
f 27 29 31
f 26 31 41
f 30 32 28
f 32 29 28
f 32 35 29
f 35 31 29
f 33 32 30
f 34 32 33
f 34 35 32
f 35 41 31
f 22 34 33
f 49 34 22
f 49 35 34
f 49 53 35
f 46 49 22
f 53 41 35
f 51 36 39
f 23 36 50
f 51 39 52
f 36 51 50
f 39 37 38
f 39 36 37
f 39 38 40
f 38 41 40
f 40 41 53
f 39 40 52
f 38 26 41
f 42 74 56
f 56 54 42
f 42 75 76
f 93 116 43
f 43 45 19
f 43 423 93
f 116 45 43
f 44 45 116
f 125 48 44
f 125 44 116
f 20 45 47
f 46 20 47
f 20 46 21
f 44 47 45
f 48 46 47
f 44 48 47
f 49 156 53
f 48 49 46
f 97 50 51
f 40 53 136
f 53 156 136
f 104 56 73
f 104 99 56
f 54 55 42
f 55 75 42
f 56 99 58
f 54 56 58
f 57 54 58
f 57 55 54
f 60 77 55
f 55 77 75
f 59 57 58
f 55 57 60
f 80 77 60
f 57 59 61
f 57 61 62
f 60 57 62
f 66 60 62
f 66 80 60
f 64 61 59
f 65 61 64
f 63 62 65
f 62 61 65
f 62 63 66
f 99 67 58
f 58 67 59
f 64 59 67
f 68 65 64
f 63 69 66
f 69 70 66
f 67 68 64
f 68 69 65
f 63 65 69
f 105 68 67
f 101 71 85
f 73 74 72
f 73 56 74
f 42 76 413
f 84 413 76
f 75 79 76
f 78 79 75
f 78 75 77
f 80 78 77
f 81 79 78
f 80 81 78
f 82 79 81
f 79 82 76
f 83 80 66
f 80 83 81
f 82 84 76
f 82 81 109
f 81 83 109
f 70 83 66
f 83 110 109
f 70 110 83
f 85 71 86
f 74 88 72
f 71 72 88
f 413 84 88
f 85 86 91
f 91 90 85
f 85 414 119
f 89 91 86
f 71 88 86
f 88 87 86
f 88 84 112
f 113 88 112
f 87 88 113
f 86 87 89
f 90 91 94
f 414 416 119
f 91 95 94
f 92 91 89
f 114 92 89
f 92 114 121
f 48 126 49
f 94 95 120
f 122 50 96
f 122 23 50
f 134 96 97
f 50 97 96
f 134 122 96
f 98 97 51
f 98 158 97
f 98 51 52
f 98 52 136
f 52 40 136
f 137 102 101
f 103 102 139
f 141 100 99
f 104 141 99
f 417 425 107
f 100 418 99
f 99 418 67
f 101 85 166
f 102 71 101
f 102 103 71
f 166 137 101
f 139 104 103
f 71 103 104
f 425 170 107
f 107 105 417
f 69 68 106
f 70 69 106
f 105 106 68
f 110 70 106
f 106 105 107
f 108 106 107
f 106 108 110
f 110 108 171
f 107 433 108
f 104 72 71
f 73 72 104
f 111 82 109
f 110 144 109
f 171 144 110
f 166 85 143
f 143 85 119
f 84 172 112
f 172 84 111
f 84 82 111
f 144 111 109
f 419 112 145
f 112 172 145
f 143 119 118
f 113 114 87
f 114 89 87
f 115 121 114
f 113 115 114
f 146 420 419
f 415 424 421
f 93 177 116
f 153 152 117
f 119 416 120
f 117 118 119
f 120 117 119
f 117 120 153
f 154 153 120
f 127 120 95
f 120 127 128
f 121 123 92
f 92 95 91
f 92 123 95
f 123 127 95
f 124 132 123
f 134 124 122
f 121 122 123
f 121 115 122
f 123 122 124
f 126 125 178
f 48 125 126
f 154 120 130
f 132 128 127
f 123 132 127
f 134 129 132
f 120 128 130
f 128 132 129
f 131 129 133
f 129 134 133
f 128 129 130
f 131 130 129
f 132 124 134
f 97 158 134
f 135 98 136
f 136 156 135
f 134 157 133
f 134 158 157
f 159 158 98
f 138 137 167
f 102 137 138
f 139 102 138
f 165 139 138
f 140 104 139
f 168 140 139
f 169 140 168
f 168 139 196
f 104 140 426
f 426 140 169
f 433 142 108
f 108 142 171
f 144 434 111
f 173 434 144
f 201 143 118
f 419 145 146
f 434 174 145
f 146 147 420
f 151 422 427
f 149 147 146
f 428 148 427
f 150 427 148
f 151 427 150
f 145 429 146
f 428 150 148
f 429 145 176
f 431 430 435
f 150 177 93
f 151 93 422
f 150 93 151
f 437 207 116
f 207 125 116
f 152 201 118
f 153 179 152
f 118 117 152
f 178 125 207
f 180 152 179
f 179 154 155
f 154 133 155
f 179 153 154
f 130 131 154
f 131 133 154
f 49 126 156
f 156 182 135
f 161 155 133
f 161 133 157
f 163 157 158
f 159 163 158
f 159 160 163
f 159 98 160
f 98 182 160
f 182 98 135
f 190 161 162
f 161 157 162
f 163 160 183
f 162 157 191
f 157 163 191
f 167 164 165
f 164 195 165
f 164 198 195
f 165 196 139
f 195 196 165
f 167 166 432
f 166 197 443
f 166 167 137
f 432 166 443
f 138 167 165
f 168 228 169
f 169 170 425
f 169 199 170
f 433 237 142
f 200 173 171
f 171 142 200
f 171 173 144
f 143 201 166
f 173 175 434
f 200 175 173
f 174 176 145
f 175 174 434
f 438 431 435
f 203 176 174
f 445 204 436
f 204 437 436
f 207 437 204
f 201 152 202
f 202 152 249
f 152 180 249
f 180 181 249
f 181 209 249
f 181 180 179
f 179 209 181
f 318 209 179
f 155 318 179
f 318 155 161
f 211 182 210
f 211 185 182
f 257 211 210
f 184 163 183
f 163 184 191
f 182 183 160
f 183 186 184
f 185 183 182
f 185 186 183
f 186 187 184
f 189 188 185
f 188 186 185
f 188 439 186
f 188 193 439
f 440 184 187
f 211 189 185
f 213 188 189
f 213 220 188
f 215 161 190
f 318 161 215
f 191 190 162
f 194 190 191
f 191 216 194
f 191 184 192
f 191 192 216
f 192 184 440
f 192 440 219
f 216 192 223
f 220 193 188
f 223 192 219
f 226 227 198
f 227 195 198
f 227 196 195
f 196 228 168
f 226 198 441
f 199 169 228
f 237 444 450
f 444 237 433
f 237 200 142
f 200 243 175
f 237 243 200
f 243 174 175
f 201 202 244
f 288 205 174
f 206 207 204
f 445 446 204
f 205 203 174
f 204 446 206
f 202 249 283
f 178 207 208
f 252 178 208
f 210 126 178
f 255 178 254
f 210 178 255
f 210 156 126
f 210 182 156
f 213 214 212
f 257 214 211
f 212 217 221
f 214 321 212
f 257 321 214
f 214 213 189
f 189 211 214
f 213 221 220
f 212 221 213
f 318 215 320
f 216 223 218
f 259 218 223
f 321 217 212
f 321 260 217
f 258 459 449
f 218 261 225
f 261 218 259
f 220 447 193
f 220 221 222
f 220 448 447
f 449 447 448
f 217 258 221
f 258 222 221
f 448 258 449
f 224 320 215
f 224 215 190
f 224 190 194
f 194 323 224
f 263 323 194
f 225 216 218
f 216 225 194
f 225 263 194
f 261 262 225
f 262 263 225
f 226 268 227
f 230 442 166
f 229 442 230
f 239 230 201
f 166 201 230
f 229 230 231
f 230 239 234
f 231 234 235
f 231 230 234
f 232 231 235
f 272 231 232
f 233 239 240
f 233 235 234
f 234 239 233
f 235 233 236
f 236 233 274
f 275 232 235
f 236 275 235
f 237 276 238
f 239 201 244
f 240 244 245
f 239 244 240
f 233 240 241
f 233 241 274
f 242 237 238
f 237 242 243
f 242 285 243
f 202 245 244
f 283 245 202
f 277 245 283
f 243 288 174
f 283 249 247
f 246 454 249
f 302 246 249
f 248 247 453
f 455 246 302
f 283 247 286
f 248 286 247
f 289 205 288
f 206 446 466
f 206 250 207
f 207 250 208
f 250 252 208
f 254 252 310
f 301 249 209
f 178 252 254
f 254 310 255
f 255 310 253
f 318 301 209
f 255 313 256
f 313 319 256
f 253 313 255
f 256 257 255
f 210 255 257
f 321 257 256
f 256 319 321
f 217 260 258
f 258 264 459
f 460 261 259
f 260 264 258
f 321 267 260
f 264 260 267
f 320 224 322
f 224 323 322
f 322 323 372
f 262 265 263
f 265 262 261
f 460 265 261
f 263 265 266
f 460 266 265
f 267 266 460
f 226 328 268
f 269 227 268
f 268 328 329
f 329 269 268
f 461 503 331
f 269 196 227
f 269 228 196
f 461 331 451
f 452 270 441
f 270 452 271
f 226 441 270
f 270 328 226
f 452 231 271
f 272 271 231
f 330 271 272
f 275 272 232
f 272 275 332
f 272 332 330
f 334 273 450
f 237 273 276
f 450 273 237
f 273 334 276
f 236 274 275
f 335 275 274
f 335 332 275
f 280 333 281
f 280 238 276
f 280 276 333
f 276 504 333
f 245 277 240
f 240 277 241
f 277 274 241
f 335 274 277
f 277 336 335
f 333 278 281
f 279 281 278
f 279 282 281
f 342 282 279
f 333 338 278
f 339 279 278
f 282 342 285
f 242 238 281
f 280 281 238
f 282 285 242
f 281 282 242
f 287 284 343
f 284 287 462
f 285 346 284
f 285 288 243
f 336 283 348
f 283 463 348
f 288 465 289
f 285 465 288
f 466 290 206
f 287 351 466
f 351 290 466
f 353 290 351
f 290 299 206
f 206 299 250
f 251 291 292
f 456 293 467
f 457 294 303
f 457 470 294
f 458 491 304
f 458 304 473
f 473 304 298
f 467 293 296
f 482 474 487
f 295 475 471
f 468 478 472
f 479 469 483
f 479 483 297
f 484 488 485
f 492 476 306
f 477 480 496
f 486 305 481
f 486 307 305
f 486 489 307
f 290 356 299
f 311 300 355
f 356 355 300
f 309 311 355
f 252 311 310
f 252 250 300
f 300 311 252
f 300 299 356
f 299 300 250
f 301 302 249
f 357 302 301
f 358 302 357
f 497 494 493
f 499 490 495
f 481 305 498
f 305 307 498
f 494 497 500
f 361 309 355
f 309 308 311
f 310 308 315
f 309 361 308
f 361 312 308
f 310 311 308
f 357 301 317
f 364 315 312
f 314 313 253
f 316 313 314
f 316 368 313
f 316 310 315
f 310 316 314
f 312 315 308
f 310 314 253
f 301 318 317
f 369 319 368
f 369 321 319
f 368 319 313
f 317 318 320
f 370 317 320
f 322 370 320
f 321 326 267
f 371 326 321
f 323 327 372
f 325 327 323
f 267 324 266
f 501 325 263
f 263 325 323
f 501 263 266
f 324 267 326
f 324 326 502
f 501 327 325
f 328 376 329
f 377 331 503
f 330 270 271
f 330 328 270
f 328 330 376
f 330 332 373
f 451 378 504
f 451 331 378
f 504 378 338
f 335 337 332
f 381 332 337
f 380 384 338
f 338 333 504
f 335 336 337
f 341 340 385
f 338 384 340
f 384 385 340
f 341 345 339
f 339 338 340
f 339 340 341
f 339 278 338
f 342 346 285
f 342 279 339
f 342 339 344
f 344 346 342
f 283 336 277
f 386 350 385
f 385 350 345
f 385 345 341
f 347 350 386
f 336 506 518
f 343 344 345
f 344 339 345
f 345 350 343
f 284 346 343
f 343 346 344
f 455 302 464
f 464 302 352
f 507 505 509
f 509 349 507
f 511 287 350
f 508 511 350
f 352 510 464
f 388 512 510
f 519 287 511
f 287 343 350
f 352 389 388
f 520 352 302
f 358 520 302
f 519 387 287
f 352 388 510
f 387 351 287
f 387 353 351
f 354 353 387
f 356 290 353
f 353 354 356
f 387 394 354
f 356 354 355
f 354 362 355
f 358 357 365
f 363 360 395
f 394 359 354
f 360 359 394
f 360 394 395
f 361 355 362
f 312 361 363
f 363 361 360
f 359 361 362
f 359 360 361
f 362 354 359
f 365 357 317
f 363 395 397
f 366 364 312
f 366 312 363
f 316 315 364
f 366 363 397
f 397 399 366
f 366 367 364
f 367 366 371
f 316 364 368
f 368 364 367
f 369 368 367
f 367 321 369
f 398 365 401
f 365 317 370
f 404 370 322
f 370 401 365
f 370 404 401
f 372 404 322
f 367 371 321
f 502 326 371
f 372 327 412
f 502 371 532
f 514 329 376
f 377 378 331
f 332 383 373
f 374 330 373
f 330 374 376
f 374 373 375
f 376 374 375
f 383 375 373
f 375 383 382
f 513 517 379
f 378 379 338
f 379 377 513
f 377 379 378
f 514 376 375
f 383 332 381
f 379 517 338
f 517 380 338
f 516 515 382
f 516 382 383
f 337 336 518
f 337 518 381
f 515 516 385
f 380 385 384
f 386 385 516
f 358 392 520
f 394 387 390
f 389 391 388
f 390 387 519
f 390 519 521
f 522 392 393
f 520 392 522
f 523 390 521
f 365 392 358
f 395 394 397
f 397 394 390
f 397 390 523
f 397 523 396
f 393 392 524
f 392 365 524
f 397 396 525
f 524 398 526
f 524 365 398
f 398 401 403
f 526 398 403
f 400 527 403
f 366 399 528
f 401 404 402
f 401 402 403
f 406 411 407
f 411 406 404
f 404 406 408
f 405 366 528
f 402 408 410
f 404 408 402
f 371 366 405
f 409 408 406
f 530 529 405
f 371 405 529
f 407 409 406
f 403 402 410
f 403 410 400
f 528 531 405
f 409 410 408
f 530 405 531
f 411 412 407
f 529 532 371
f 411 404 372
f 411 372 412
