o FMA7253_BP8415_FJ2435
v 26.4858 -124.902 1244.14
v 26.5184 -125.899 1242.12
v 26.5594 -125.044 1242.9
v 26.6562 -125.917 1243.56
v 26.4538 -125.786 1245.18
v 26.2305 -127.409 1241.79
v 26.4331 -127.463 1242.92
v 26.4654 -126.826 1245.2
v 26.2047 -128.316 1244.45
v 25.4513 -123.194 1240.73
v 25.8919 -123.218 1242.61
v 25.4546 -122.727 1241.63
v 25.1503 -122.231 1242.84
v 25.8544 -123.241 1243.41
v 25.1762 -122.812 1244.29
v 25.209 -124.344 1239.4
v 26.0688 -123.814 1241.84
v 25.0427 -124.779 1242.28
v 26.2276 -123.917 1243.35
v 26.0864 -123.888 1244.17
v 25.0104 -124.4 1243.37
v 26.0031 -124.604 1245.41
v 25.0269 -124.834 1244.59
v 26.161 -124.939 1241.17
v 25.956 -125.98 1240.53
v 25.0877 -125.856 1241.96
v 25.2374 -125.468 1244.34
v 25.3013 -125.799 1243.28
v 24.9718 -125.903 1245.89
v 25.8816 -126.33 1247.25
v 25.0578 -125.952 1248.57
v 25.1237 -126.449 1239.11
v 25.6687 -127.337 1240.27
v 24.9501 -127.406 1242.42
v 25.1678 -127.031 1243.34
v 26.0909 -128.162 1245.76
v 25.1631 -126.653 1244.86
v 26.0325 -127.173 1246.91
v 24.843 -126.966 1246.31
v 25.0684 -127.067 1249.18
v 24.7836 -128.183 1239.18
v 25.4587 -128.512 1240.65
v 24.6479 -129.117 1239.69
v 25.8132 -128.768 1242.06
v 25.3225 -129.394 1241.6
v 25.9781 -128.839 1243.25
v 25.7651 -129.291 1244.2
v 25.5772 -129.334 1245.59
v 24.689 -128.171 1245.21
v 25.3445 -129.164 1247.03
v 25.1518 -128.385 1248.57
v 24.5955 -129.39 1248.64
v 25.4249 -129.776 1243.32
v 24.7727 -130.394 1242.75
v 25.0441 -130.218 1244.38
v 24.8178 -129.906 1247
v 23.8272 -121.004 1241.56
v 24.336 -121.54 1243.42
v 23.8731 -121.688 1244.51
v 24.6332 -123.018 1239.22
v 23.6461 -122.618 1238.2
v 23.5023 -121.771 1238.94
v 24.3428 -121.844 1240.28
v 23.6905 -122.461 1242.77
v 24.3238 -123.192 1243.18
v 23.9026 -122.942 1244.03
v 24.2125 -124.149 1238
v 23.4416 -124.605 1238.81
v 23.8914 -123.838 1239.94
v 24.4613 -123.529 1242.01
v 23.5522 -124.989 1237.14
v 24.4767 -125.549 1238.15
v 24.6757 -125.336 1240.87
v 24.4634 -125.025 1246.24
v 24.0846 -126.611 1248.44
v 24.01 -126.74 1237.75
v 23.6693 -127.76 1237.7
v 23.2372 -126.939 1237.07
v 24.4554 -127.238 1240.71
v 24.1228 -126.444 1239.81
v 24.3502 -127.681 1247.51
v 23.4109 -128.114 1249.5
v 23.6548 -128.205 1251.68
v 23.3995 -127.165 1252.03
v 23.2751 -127.617 1252.34
v 24.043 -128.952 1238.74
v 23.6452 -128.167 1239.83
v 23.3321 -129.16 1240.63
v 23.9915 -128.835 1241.52
v 24.5746 -128.563 1243.78
v 23.9628 -129.376 1243.94
v 24.1685 -129.034 1245.22
v 24.2723 -128.312 1246.87
v 23.5045 -129.445 1246.49
v 22.9253 -129.054 1249.13
v 23.5776 -128.864 1251.33
v 23.1115 -129.757 1250.81
v 23.6677 -129.621 1238.99
v 23.8542 -130.378 1240.33
v 24.4313 -130.259 1241.15
v 23.6689 -130.867 1241.23
v 23.0736 -129.99 1242.88
v 24.072 -130.992 1244.55
v 24.4884 -130.474 1246.12
v 23.4639 -131.216 1246.15
v 23.8017 -130.512 1247.96
v 23.3816 -131.329 1242.86
v 22.9819 -120.732 1240.12
v 22.492 -120.116 1241.75
v 21.9407 -121.2 1241.71
v 22.984 -120.484 1243.16
v 22.6301 -121.885 1237.92
v 22.2937 -122.829 1236.86
v 22.7273 -122.844 1239.08
v 21.8287 -122.507 1238.6
v 23.3127 -122.47 1240.73
v 22.3061 -121.799 1240.25
v 22.7596 -121.762 1241.51
v 22.7414 -121.709 1243.23
v 22.1362 -121.979 1245.16
v 22.8625 -123.691 1236.83
v 22.404 -123.709 1238
v 22.5356 -125.51 1236.32
v 22.1917 -124.616 1236.12
v 21.5829 -125.401 1235.75
v 22.8984 -126.114 1238.1
v 22.3237 -125.211 1237.51
v 23.0885 -126.581 1251.97
v 22.4957 -125.434 1251.26
v 21.7159 -126.149 1252.26
v 21.7056 -126.344 1252.14
v 22.1235 -126.163 1252.32
v 21.6576 -127.313 1236.19
v 22.2606 -127.049 1237.77
v 23.0779 -127.091 1238.53
v 23.0343 -128.032 1252.59
v 22.8838 -127.03 1252.55
v 22.7674 -127.61 1252.73
v 22.807 -128.237 1252.68
v 22.5824 -128.236 1252.7
v 22.0191 -127.174 1252.47
v 21.9649 -128.099 1252.44
v 22.9792 -128.277 1237.38
v 22.7869 -129.174 1237.85
v 21.7671 -128.8 1237.02
v 22.7895 -128.688 1239.28
v 22.5783 -127.908 1238.46
v 21.895 -128.822 1238.82
v 22.7837 -128.809 1252.34
v 22.6892 -129.459 1251.75
v 22.1687 -129.18 1252.27
v 21.9407 -128.433 1252.09
v 21.5485 -129.341 1252.12
v 23.0288 -128.428 1252.41
v 22.5731 -128.617 1252.57
v 22.1765 -128.779 1252.49
v 21.9516 -128.371 1252.43
v 21.9614 -130.045 1238.35
v 22.8188 -131.112 1240.72
v 22.7044 -130.634 1239.56
v 22.4923 -129.564 1240.3
v 21.4735 -130.354 1241.65
v 22.87 -130.112 1245.28
v 22.017 -130.544 1244.3
v 22.2826 -129.875 1248.43
v 21.3711 -130.39 1248.32
v 21.9423 -131.08 1249.62
v 21.4703 -130.843 1250.55
v 21.4994 -130.106 1251.55
v 21.5959 -131.117 1239.93
v 21.4406 -131.563 1240.99
v 22.5508 -131.572 1242.12
v 22.6062 -131.678 1245.51
v 22.5581 -131.485 1247.22
v 21.6467 -119.935 1240.48
v 20.7152 -119.493 1241.14
v 20.6049 -119.83 1239.9
v 20.8543 -119.62 1244.15
v 21.1474 -121.12 1237.84
v 21.4787 -120.638 1238.76
v 21.3345 -121.076 1240.87
v 20.5781 -120.593 1241.96
v 21.2086 -120.825 1243.5
v 21.4237 -120.536 1245.62
v 20.7788 -120.953 1244.99
v 20.7196 -122.189 1236.55
v 20.9411 -121.52 1239.49
v 21.4657 -123.726 1235.94
v 20.3684 -123.521 1235.57
v 21.5997 -124.225 1237.12
v 21.279 -123.57 1237.26
v 20.606 -123.944 1236.72
v 20.508 -122.983 1237.36
v 20.9903 -124.694 1235.5
v 20.5046 -125.709 1235.3
v 20.9435 -124.99 1236.63
v 20.0378 -127.108 1235.48
v 21.5407 -126.201 1237.05
v 21.0117 -127.391 1237.25
v 20.4918 -126.295 1236.59
v 20.7518 -128.127 1236.19
v 20.1098 -128.963 1236.62
v 19.9811 -128.524 1237.85
v 20.7158 -129.184 1238.8
v 21.1449 -129.4 1251.79
v 20.7826 -129.843 1251.16
v 21.0741 -129.864 1240.11
v 20.0688 -130.947 1243.92
v 20.9784 -130.759 1246.67
v 20.6995 -129.88 1251.59
v 20.6269 -130.801 1250.88
v 20.183 -130.477 1251.14
v 20.9384 -132.022 1242.68
v 20.8101 -132.184 1244.66
v 20.7486 -131.988 1247.77
v 20.6826 -131.735 1248.94
v 19.8431 -131.598 1249.74
v 19.8019 -119.437 1240.79
v 20.0033 -119.241 1243
v 20.0278 -120.51 1238.31
v 19.7042 -121.395 1239.23
v 18.8888 -119.934 1239.32
v 19.7858 -120.695 1240.87
v 19.2561 -120.321 1242.14
v 19.0992 -120.199 1244.62
v 19.301 -121.557 1249.52
v 18.7352 -121.994 1236.25
v 20.0974 -121.405 1237.1
v 20.1172 -122.223 1238.06
v 18.7639 -122.809 1235.6
v 19.2869 -123.285 1236.8
v 18.906 -125.222 1234.84
v 19.8048 -124.477 1235.11
v 19.5819 -125.322 1236.14
v 19.3907 -124.62 1236.16
v 18.4498 -125.207 1235.96
v 19.4207 -126.237 1235.04
v 19.094 -126.609 1236.32
v 18.8543 -128.005 1235.65
v 18.8313 -127.66 1236.88
v 19.145 -129.237 1238.68
v 19.5932 -130.634 1238.61
v 19.4501 -130.328 1241
v 18.2301 -130.898 1250.02
v 19.656 -130.405 1250.77
v 19.3435 -131.796 1241.24
v 19.0006 -132.349 1243.88
v 18.8117 -132.366 1246.9
v 18.5426 -131.168 1246.16
v 18.6714 -132.236 1248.08
v 19.2431 -131.956 1249.06
v 19.1187 -131.37 1250.14
v 18.4683 -131.774 1249.51
v 18.3051 -131.46 1249.87
v 18.1586 -119.593 1240.79
v 18.6482 -119.194 1242.35
v 18.0242 -119.008 1245.07
v 17.4474 -119.645 1248.66
v 18.4515 -120.907 1237.54
v 18.0359 -121.244 1239.5
v 17.5329 -120.344 1238.81
v 18.0725 -120.475 1241.95
v 17.6591 -120.014 1245.74
v 18.5506 -121.295 1249.79
v 17.9587 -121.409 1249.46
v 17.7778 -121.041 1249.63
v 17.4172 -122.594 1235.72
v 18.3014 -122.335 1237.7
v 17.1599 -121.37 1237.04
v 17.1371 -121.319 1239.7
v 18.2393 -123.966 1234.98
v 17.4476 -123.927 1236.32
v 17.3685 -126.3 1234.8
v 18.3264 -126.967 1235.05
v 18.1302 -126.987 1236.39
v 17.2924 -125.954 1236
v 17.2533 -127.165 1235.08
v 17.6853 -128.73 1236.1
v 18.0343 -128.614 1237.78
v 16.8337 -128.883 1238.26
v 18.0916 -129.65 1237.06
v 17.2959 -130.305 1237.97
v 17.706 -129.807 1239.76
v 17.2427 -130.302 1241.05
v 18.0175 -130.985 1243.55
v 16.9919 -130.847 1238.97
v 16.9305 -132.126 1242.69
v 17.4788 -132.441 1245.08
v 16.846 -132.383 1246.92
v 17.3876 -132.13 1248.43
v 17.1638 -131.932 1248.86
v 18.0273 -131.961 1249.07
v 17.7936 -131.661 1249.48
v 17.6164 -131.263 1249.63
v 17.1211 -131.634 1249.19
v 16.4843 -119.137 1246.59
v 17.2158 -119.096 1247.77
v 16.9421 -119.663 1248.91
v 16.6799 -119.185 1248.52
v 16.5272 -118.971 1248.02
v 16.4136 -119.595 1248.73
v 15.9788 -119.129 1247.83
v 15.8629 -119.301 1248.18
v 16.8145 -120.313 1248.9
v 16.8221 -120.168 1249.03
v 16.232 -119.964 1248.51
v 16.2342 -119.922 1248.59
v 16.0338 -119.925 1248.51
v 15.6356 -119.88 1248.29
v 16.3562 -122.665 1237.59
v 16.8945 -121.766 1238.81
v 16.1943 -124.065 1234.95
v 16.597 -125.419 1234.7
v 15.844 -124.713 1236.17
v 15.6749 -125.842 1236.15
v 15.7593 -126.501 1236.35
v 15.5226 -126.597 1235
v 15.6868 -127.641 1235.44
v 16.6646 -127.587 1236.87
v 15.6461 -128.678 1238.29
v 16.1524 -129.732 1237.33
v 15.8342 -130.402 1238.39
v 15.6418 -129.678 1239.94
v 15.298 -130.153 1241.22
v 15.9698 -130.891 1243.62
v 15.719 -131.243 1240.18
v 15.9271 -132.338 1246.17
v 15.7018 -131.142 1246.01
v 15.5546 -132.216 1247.04
v 16.0496 -132.135 1247.88
v 15.4381 -131.291 1248.26
v 15.2655 -131.637 1248.08
v 15.4533 -131.968 1247.91
v 15.389 -132.074 1247.65
v 15.4508 -131.152 1247.85
v 15.0217 -120.428 1247.69
v 15.4005 -122.389 1236.24
v 15.3513 -121.774 1237.11
v 15.2614 -122.691 1238.02
v 14.9286 -122.151 1239.66
v 14.7793 -121.323 1238.88
v 14.9589 -123.225 1235.62
v 14.296 -122.772 1236.25
v 15.2873 -123.677 1236.85
v 13.8279 -123.98 1237.25
v 14.8021 -125.222 1234.96
v 14.4946 -124.376 1235.18
v 14.4055 -124.434 1236.68
v 14.1959 -125.224 1236.58
v 14.0755 -126.34 1235.27
v 14.2732 -126.203 1236.67
v 14.3096 -127.085 1237.15
v 15.0421 -128.277 1236.05
v 14.2089 -127.348 1235.64
v 13.7449 -128.006 1236.3
v 13.9437 -129.323 1237.63
v 13.6526 -130.466 1239.61
v 14.3042 -129.663 1240.55
v 13.9112 -130.795 1244.79
v 13.6658 -131.46 1242.13
v 14.6985 -132.04 1243.95
v 13.8545 -131.94 1245.35
v 14.3734 -131.932 1247.03
v 14.3345 -131.768 1247.31
v 13.8862 -130.969 1247.12
v 13.8277 -131.154 1247.22
v 13.0993 -120.733 1245.95
v 13.255 -122.491 1237.42
v 12.8492 -121.67 1246.15
v 12.9344 -123.656 1236.19
v 13.4147 -123.168 1238.6
v 12.2643 -124.493 1236.1
v 13.1376 -124.94 1237.14
v 13.1247 -125.642 1235.53
v 12.3628 -126.464 1236.08
v 12.9258 -125.733 1237.21
v 12.1145 -127.143 1236.58
v 12.0808 -126.532 1238.09
v 12.4943 -128.555 1237.63
v 12.8108 -128.449 1239.57
v 13.3534 -130.165 1242.61
v 12.6962 -129.454 1241.36
v 11.827 -130.414 1245.81
v 13.001 -131.673 1244.25
v 12.4379 -131.542 1245.09
v 12.6813 -131.557 1245.88
v 12.4122 -131.022 1246.29
v 12.4976 -131.35 1246.13
v 12.0222 -121.816 1246.04
v 11.0962 -123.901 1237.37
v 11.3937 -125.104 1236.52
v 11.745 -124.341 1238.39
v 11.062 -125.157 1238.55
v 11.3802 -126.439 1236.73
v 10.8904 -125.915 1238.75
v 10.6593 -126.777 1239.53
v 10.985 -128.308 1241.07
v 10.8765 -129.144 1239.92
v 11.3407 -130.478 1241.89
v 11.3258 -129.458 1242.88
v 10.5023 -130.467 1243.15
v 10.2781 -130.497 1244.11
v 10.5325 -129.902 1245.08
v 10.5229 -130.335 1245.03
v 10.3381 -129.928 1245
v 11.7021 -131.127 1243.45
v 11.6713 -131.201 1245.3
v 11.4421 -131.147 1244.47
v 11.3052 -130.916 1245.35
v 10.6846 -130.718 1244.74
v 9.94788 -123.609 1239.2
v 9.18457 -123.671 1244.24
v 10.0899 -122.587 1244.72
v 10.354 -124.689 1237.49
v 10.1855 -125.489 1239.35
v 9.16545 -124.433 1239.02
v 10.2658 -124.226 1240.25
v 9.84486 -124.735 1239.96
v 8.87758 -125.511 1240.96
v 10.3581 -125.665 1237.38
v 9.21633 -125.621 1238.68
v 10.0227 -126.085 1239.7
v 9.55912 -126.491 1240.56
v 10.1442 -127.242 1238.44
v 9.21873 -127.936 1240.34
v 9.63393 -127.312 1241.3
v 9.6108 -129.434 1242.11
v 9.65419 -129.995 1244.1
v 9.51815 -129.789 1243.18
v 8.81268 -129.174 1243.54
v 8.70246 -128.958 1243.77
v 10.0707 -130.271 1244.53
v 9.79172 -129.193 1244.3
v 9.5394 -129.228 1244.5
v 9.49163 -129.63 1244.37
v 8.05035 -123.788 1242.26
v 7.71271 -123.894 1242.92
v 7.65471 -124.237 1241.61
v 7.39764 -124.678 1243.13
v 7.96852 -124.748 1242.91
v 7.53131 -125.482 1242.99
v 7.40812 -124.239 1242.98
v 7.3536 -125.094 1243.1
v 8.39261 -126.83 1240.44
v 7.45982 -126.666 1242.03
v 7.36418 -125.845 1241.63
v 7.3003 -126.702 1242.65
v 7.67808 -126.503 1243.31
v 7.32096 -125.674 1243.07
v 8.17826 -127.482 1241.47
v 7.8209 -127.671 1242.61
v 8.79591 -127.984 1243.51
v 8.58142 -128.373 1243.87
v 8.59532 -128.717 1242.71
v 8.17213 -128.348 1243.2
v 7.8164 -127.673 1243.21
v 7.13587 -124.421 1242.51
v 7.15921 -124.857 1241.96
v 7.0132 -124.885 1242.72
v 6.99224 -125.616 1242.46
v 7.08916 -126.064 1242.45
v 7.10637 -126.068 1242.71
v 21.7159 -126.149 1252.26
v 21.7056 -126.344 1252.14
v 22.1235 -126.163 1252.32
v 22.8838 -127.03 1252.55
v 22.7674 -127.61 1252.73
v 22.0191 -127.174 1252.47
v 22.0191 -127.174 1252.47
v 22.0191 -127.174 1252.47
v 21.9649 -128.099 1252.44
v 21.9649 -128.099 1252.44
v 21.9407 -128.433 1252.09
v 21.9516 -128.371 1252.43
v 21.9516 -128.371 1252.43
v 21.1449 -129.4 1251.79
v 20.6995 -129.88 1251.59
v 20.6995 -129.88 1251.59
v 18.2301 -130.898 1250.02
v 19.656 -130.405 1250.77
v 17.9587 -121.409 1249.46
v 17.7778 -121.041 1249.63
v 16.6799 -119.185 1248.52
v 16.8145 -120.313 1248.9
v 16.8221 -120.168 1249.03
v 16.232 -119.964 1248.51
v 16.2342 -119.922 1248.59
v 16.0338 -119.925 1248.51
v 16.0338 -119.925 1248.51
v 15.4381 -131.291 1248.26
v 15.4381 -131.291 1248.26
v 15.0217 -120.428 1247.69
v 13.8862 -130.969 1247.12
v 11.827 -130.414 1245.81
v 12.0222 -121.816 1246.04
v 10.5325 -129.902 1245.08
v 9.18457 -123.671 1244.24
v 9.5394 -129.228 1244.5
v 7.39764 -124.678 1243.13
v 7.39764 -124.678 1243.13
v 7.96852 -124.748 1242.91
v 7.53131 -125.482 1242.99
v 7.53131 -125.482 1242.99
v 7.3536 -125.094 1243.1
v 7.67808 -126.503 1243.31
v 7.67808 -126.503 1243.31
v 7.32096 -125.674 1243.07
v 8.58142 -128.373 1243.87
f 3 19 1
f 1 22 5
f 3 2 24
f 4 2 3
f 24 2 25
f 3 1 4
f 4 1 5
f 4 8 7
f 4 5 8
f 4 7 2
f 2 6 25
f 7 6 2
f 44 6 7
f 44 7 46
f 7 8 9
f 7 9 46
f 8 36 9
f 10 12 17
f 63 12 10
f 11 14 19
f 11 13 14
f 11 12 13
f 13 57 58
f 13 15 14
f 13 58 15
f 10 17 24
f 16 10 24
f 10 16 60
f 17 19 3
f 24 17 3
f 17 12 11
f 19 17 11
f 21 18 28
f 70 21 65
f 26 18 73
f 1 20 22
f 19 14 20
f 14 15 20
f 1 19 20
f 21 23 66
f 66 65 21
f 22 20 15
f 15 31 22
f 23 29 74
f 66 23 74
f 31 15 129
f 24 25 16
f 23 21 27
f 27 29 23
f 18 26 28
f 28 27 21
f 35 28 26
f 27 28 37
f 29 27 37
f 5 38 8
f 31 30 22
f 22 30 5
f 5 30 38
f 29 39 75
f 30 31 40
f 25 32 16
f 32 33 41
f 25 6 33
f 42 33 6
f 25 33 32
f 6 44 42
f 79 34 26
f 26 34 35
f 28 35 37
f 35 49 37
f 34 90 35
f 35 90 49
f 37 49 39
f 39 49 93
f 8 38 36
f 30 40 38
f 38 51 36
f 51 38 40
f 36 51 50
f 29 37 39
f 81 39 93
f 40 83 51
f 42 44 45
f 33 42 41
f 41 42 43
f 43 42 45
f 9 47 46
f 46 53 44
f 53 46 47
f 53 45 44
f 89 90 34
f 36 48 9
f 36 50 48
f 9 48 47
f 48 55 47
f 49 90 92
f 50 56 48
f 50 51 52
f 52 56 50
f 43 45 100
f 100 45 54
f 101 100 54
f 47 55 53
f 45 53 54
f 55 54 53
f 48 56 104
f 55 48 104
f 108 57 63
f 12 63 57
f 13 12 57
f 59 15 58
f 111 59 58
f 62 61 112
f 60 63 10
f 63 60 62
f 61 60 67
f 108 63 62
f 62 60 61
f 116 70 64
f 114 69 116
f 70 116 69
f 64 70 65
f 64 66 119
f 59 129 15
f 66 64 65
f 120 119 66
f 61 67 121
f 121 67 71
f 67 60 16
f 68 73 69
f 114 68 69
f 69 18 70
f 69 73 18
f 70 18 21
f 66 74 120
f 71 67 72
f 124 71 123
f 16 72 67
f 32 72 16
f 68 80 73
f 126 80 68
f 26 73 79
f 80 79 73
f 74 29 75
f 74 75 131
f 131 120 74
f 141 131 75
f 72 32 76
f 72 76 71
f 76 78 71
f 76 77 78
f 143 77 86
f 71 78 123
f 77 143 78
f 77 41 86
f 32 41 76
f 41 77 76
f 79 80 87
f 80 135 87
f 135 80 126
f 87 135 147
f 34 79 89
f 89 79 87
f 81 75 39
f 81 93 82
f 81 82 75
f 31 84 40
f 85 40 84
f 40 85 83
f 128 84 31
f 128 137 84
f 85 84 137
f 83 85 136
f 137 138 85
f 85 138 136
f 83 136 154
f 43 86 41
f 86 43 98
f 144 143 86
f 89 87 88
f 87 146 88
f 89 88 102
f 146 161 88
f 161 102 88
f 91 90 89
f 91 92 90
f 102 91 89
f 91 163 92
f 92 93 49
f 94 93 92
f 94 92 163
f 95 93 94
f 94 165 95
f 56 52 106
f 95 82 93
f 51 96 52
f 97 52 96
f 96 51 83
f 83 154 96
f 43 100 99
f 98 43 99
f 99 101 159
f 99 160 98
f 160 99 159
f 99 100 101
f 101 54 107
f 159 101 172
f 107 172 101
f 107 54 103
f 102 163 91
f 162 102 161
f 162 164 102
f 55 104 103
f 103 54 55
f 103 104 105
f 104 106 105
f 105 106 174
f 106 104 56
f 97 106 52
f 107 214 172
f 107 103 173
f 103 105 173
f 105 174 173
f 180 112 179
f 180 108 62
f 180 175 108
f 57 108 109
f 108 175 109
f 117 118 110
f 109 111 57
f 119 110 118
f 58 57 111
f 184 111 178
f 184 59 111
f 129 59 184
f 112 61 113
f 121 113 61
f 180 62 112
f 117 114 116
f 115 114 117
f 187 115 117
f 187 229 115
f 117 116 118
f 116 64 118
f 181 187 117
f 64 119 118
f 188 113 121
f 188 124 194
f 188 121 124
f 121 71 124
f 122 190 127
f 191 190 122
f 115 191 122
f 127 68 122
f 114 122 68
f 115 122 114
f 124 123 125
f 123 133 125
f 124 125 194
f 126 127 198
f 126 198 134
f 198 127 196
f 190 196 127
f 127 126 68
f 129 128 31
f 129 132 128
f 128 132 137
f 264 132 129
f 266 130 465
f 266 465 264
f 78 133 123
f 135 126 134
f 143 133 78
f 134 198 199
f 134 199 147
f 135 134 147
f 142 82 95
f 75 82 142
f 468 75 142
f 463 464 469
f 471 152 157
f 139 136 138
f 139 154 136
f 466 465 467
f 140 139 138
f 155 139 140
f 467 474 140
f 130 467 465
f 130 470 467
f 470 472 467
f 467 472 474
f 143 145 133
f 143 144 145
f 133 145 201
f 147 146 87
f 148 146 147
f 147 199 148
f 148 161 146
f 95 165 205
f 96 149 150
f 97 96 150
f 149 155 151
f 150 149 151
f 150 151 169
f 473 142 95
f 473 95 205
f 156 151 155
f 156 153 151
f 153 169 151
f 473 205 475
f 474 476 153
f 169 153 212
f 476 210 153
f 477 212 153
f 96 154 149
f 149 154 139
f 155 149 139
f 474 156 140
f 156 155 140
f 153 156 474
f 144 86 98
f 158 145 144
f 158 144 98
f 158 98 160
f 158 160 170
f 160 159 170
f 161 148 207
f 207 148 204
f 207 162 161
f 102 164 163
f 208 164 162
f 164 209 163
f 165 94 163
f 163 166 165
f 209 166 163
f 106 167 174
f 97 150 168
f 97 168 167
f 106 97 167
f 168 150 169
f 159 172 171
f 170 159 171
f 213 172 214
f 214 107 173
f 214 173 215
f 173 174 215
f 218 176 177
f 177 176 175
f 176 109 175
f 218 219 176
f 176 219 109
f 109 178 111
f 219 178 109
f 180 179 220
f 180 177 175
f 220 177 180
f 222 177 220
f 117 110 181
f 110 182 181
f 181 223 187
f 182 223 181
f 223 221 187
f 110 119 183
f 110 183 182
f 182 183 225
f 225 224 182
f 224 223 182
f 120 183 119
f 120 185 183
f 225 183 185
f 297 184 178
f 113 188 186
f 113 186 112
f 112 186 179
f 228 179 186
f 220 179 228
f 229 193 115
f 229 187 221
f 264 129 226
f 186 188 189
f 189 188 194
f 186 189 230
f 271 189 233
f 193 191 115
f 192 190 191
f 193 192 191
f 193 231 192
f 197 195 133
f 125 195 194
f 133 195 125
f 233 189 194
f 233 194 195
f 234 200 196
f 196 190 192
f 200 198 196
f 482 464 463
f 133 201 197
f 198 200 199
f 199 200 238
f 145 202 201
f 201 239 197
f 201 202 239
f 202 145 158
f 240 199 238
f 240 203 199
f 240 279 203
f 199 203 148
f 204 148 203
f 241 203 279
f 241 204 203
f 206 205 165
f 478 205 206
f 242 158 170
f 242 170 246
f 204 241 207
f 241 243 207
f 162 207 243
f 243 208 162
f 208 209 164
f 166 209 244
f 206 165 166
f 216 167 168
f 168 217 216
f 217 168 211
f 166 245 206
f 244 245 166
f 211 168 169
f 212 211 169
f 170 171 246
f 171 172 213
f 246 171 213
f 246 213 247
f 214 215 248
f 214 248 247
f 213 214 247
f 174 216 215
f 216 174 167
f 217 251 216
f 219 218 256
f 222 255 218
f 218 255 256
f 222 261 255
f 297 178 219
f 222 218 177
f 220 259 222
f 260 268 221
f 259 261 222
f 223 260 221
f 260 223 262
f 262 223 224
f 225 185 304
f 304 185 120
f 184 226 129
f 304 120 265
f 258 264 226
f 258 226 184
f 228 186 227
f 259 220 228
f 259 228 227
f 221 268 229
f 227 186 230
f 271 230 189
f 231 193 229
f 232 237 273
f 232 233 195
f 231 235 192
f 235 196 192
f 235 234 196
f 237 232 195
f 271 233 232
f 234 238 200
f 272 235 231
f 236 234 235
f 236 238 234
f 272 236 235
f 197 237 195
f 237 197 274
f 273 237 274
f 238 275 240
f 239 202 278
f 197 239 274
f 274 239 277
f 239 278 277
f 319 279 240
f 280 283 241
f 241 283 243
f 243 285 208
f 243 283 284
f 284 285 243
f 249 209 208
f 209 249 244
f 479 294 212
f 294 254 212
f 206 245 478
f 480 479 212
f 480 212 477
f 286 242 246
f 246 326 286
f 287 326 246
f 246 247 287
f 287 247 288
f 285 249 208
f 247 248 288
f 248 289 288
f 216 251 215
f 251 292 250
f 215 250 248
f 215 251 250
f 289 248 250
f 290 250 292
f 289 250 290
f 211 252 217
f 252 211 212
f 251 217 253
f 251 253 292
f 253 217 252
f 254 252 212
f 254 253 252
f 293 253 254
f 294 293 254
f 219 256 257
f 255 296 256
f 256 296 257
f 255 341 296
f 258 184 297
f 227 269 259
f 259 269 261
f 261 341 255
f 262 270 260
f 262 340 270
f 224 225 262
f 263 262 225
f 263 225 308
f 263 308 262
f 340 262 336
f 306 308 225
f 304 306 225
f 482 484 481
f 482 481 464
f 267 227 230
f 227 267 269
f 229 268 231
f 311 268 260
f 311 260 270
f 270 340 311
f 265 120 131
f 312 267 271
f 230 271 267
f 268 272 231
f 313 232 273
f 313 271 232
f 236 276 238
f 314 276 236
f 314 236 272
f 277 317 273
f 276 275 238
f 277 273 274
f 240 275 319
f 279 319 280
f 241 279 280
f 278 202 281
f 281 202 158
f 281 158 242
f 282 281 242
f 321 278 281
f 281 282 321
f 282 322 321
f 242 286 282
f 322 282 286
f 280 323 283
f 284 325 285
f 325 328 285
f 328 249 285
f 290 292 291
f 295 333 291
f 290 291 330
f 330 289 290
f 333 330 291
f 293 292 253
f 295 293 294
f 291 292 293
f 295 291 293
f 219 257 297
f 296 300 257
f 296 302 300
f 296 367 302
f 303 302 367
f 296 341 367
f 264 258 298
f 264 298 266
f 257 300 297
f 258 297 299
f 258 299 298
f 298 301 266
f 300 299 297
f 302 303 300
f 300 303 483
f 483 303 301
f 298 483 301
f 303 309 301
f 488 307 301
f 413 309 303
f 301 309 488
f 484 482 305
f 266 301 485
f 485 301 307
f 305 486 484
f 487 486 305
f 262 308 336
f 489 486 487
f 309 492 488
f 337 269 267
f 337 267 342
f 311 310 268
f 268 310 272
f 269 337 338
f 338 261 269
f 261 338 341
f 311 339 310
f 339 311 340
f 312 342 267
f 312 347 342
f 272 310 344
f 314 272 344
f 339 344 310
f 312 271 313
f 313 273 317
f 346 347 312
f 346 312 313
f 348 349 314
f 349 315 314
f 315 349 351
f 314 315 276
f 276 315 316
f 275 276 316
f 275 316 319
f 316 315 351
f 317 318 354
f 318 277 278
f 278 353 318
f 278 321 353
f 317 277 318
f 353 354 318
f 280 319 320
f 280 320 323
f 323 320 358
f 356 353 321
f 321 322 356
f 283 323 284
f 324 323 358
f 284 324 325
f 324 284 323
f 381 325 324
f 322 286 326
f 326 360 357
f 360 326 287
f 360 287 361
f 325 359 328
f 287 288 361
f 361 288 327
f 328 359 365
f 249 335 244
f 327 288 289
f 289 330 329
f 328 335 249
f 329 327 289
f 365 335 328
f 332 333 295
f 331 294 479
f 294 332 295
f 329 330 334
f 333 334 330
f 244 335 490
f 363 329 334
f 363 334 333
f 331 332 294
f 364 333 332
f 333 364 363
f 490 335 365
f 336 369 340
f 413 303 367
f 369 492 309
f 337 343 338
f 338 368 341
f 343 368 338
f 440 340 369
f 337 342 343
f 347 370 342
f 370 343 342
f 372 370 347
f 348 314 344
f 340 371 339
f 348 344 345
f 344 339 345
f 339 371 345
f 374 347 346
f 351 349 376
f 373 348 345
f 349 348 373
f 346 313 317
f 317 350 346
f 354 350 317
f 350 354 375
f 350 374 346
f 352 319 316
f 320 319 352
f 351 352 316
f 380 320 352
f 352 351 378
f 354 353 355
f 377 354 355
f 355 379 377
f 355 356 379
f 355 353 356
f 380 358 320
f 357 356 322
f 358 381 324
f 358 382 381
f 381 359 325
f 381 383 359
f 383 365 359
f 493 494 366
f 357 322 326
f 360 361 384
f 361 327 362
f 327 329 362
f 363 362 329
f 493 366 491
f 331 366 332
f 387 366 494
f 387 332 366
f 387 364 332
f 436 367 341
f 413 389 309
f 369 309 495
f 343 370 368
f 390 370 372
f 371 392 345
f 411 341 368
f 370 390 368
f 340 417 371
f 371 417 392
f 372 347 374
f 392 373 345
f 373 376 349
f 376 373 393
f 392 393 373
f 354 377 375
f 375 374 350
f 374 375 391
f 391 375 394
f 377 394 375
f 351 376 378
f 380 352 378
f 378 376 393
f 378 393 395
f 380 378 396
f 382 358 380
f 397 382 380
f 398 356 357
f 398 379 356
f 399 398 357
f 399 357 360
f 381 382 400
f 400 382 397
f 383 381 400
f 384 406 360
f 406 384 408
f 399 360 406
f 384 361 362
f 385 362 386
f 362 385 384
f 408 384 385
f 386 407 385
f 408 385 407
f 388 407 386
f 388 364 387
f 388 363 364
f 363 388 386
f 362 363 386
f 413 367 437
f 495 412 369
f 437 367 436
f 413 497 389
f 368 390 411
f 391 414 390
f 390 416 411
f 341 411 436
f 372 391 390
f 374 391 372
f 420 414 391
f 393 392 418
f 393 418 415
f 415 395 393
f 418 392 417
f 394 377 424
f 391 394 420
f 378 395 396
f 395 415 422
f 395 422 396
f 377 379 424
f 424 379 398
f 424 398 425
f 396 397 380
f 397 396 426
f 427 425 398
f 427 398 399
f 427 399 401
f 383 400 403
f 433 400 452
f 403 400 433
f 402 401 408
f 494 496 387
f 410 409 404
f 496 405 387
f 387 405 404
f 404 432 410
f 432 404 435
f 410 402 408
f 405 435 404
f 401 399 406
f 401 406 408
f 387 409 388
f 409 407 388
f 404 409 387
f 410 408 407
f 409 410 407
f 390 414 416
f 416 438 411
f 440 417 340
f 411 438 436
f 412 440 369
f 421 414 420
f 414 421 416
f 458 438 416
f 418 419 415
f 418 417 440
f 418 440 419
f 420 394 424
f 415 419 422
f 421 420 424
f 444 421 424
f 422 423 396
f 419 423 422
f 423 426 396
f 423 448 426
f 419 448 423
f 426 452 397
f 448 452 426
f 454 425 427
f 452 400 397
f 454 430 455
f 429 402 428
f 402 429 401
f 429 427 401
f 452 453 434
f 454 427 429
f 430 454 429
f 428 430 429
f 431 428 435
f 431 435 508
f 428 431 430
f 402 432 428
f 410 432 402
f 434 403 433
f 496 498 405
f 432 435 428
f 433 452 434
f 498 435 405
f 498 508 435
f 497 413 439
f 412 499 440
f 442 413 437
f 416 421 458
f 441 419 440
f 442 437 457
f 458 457 438
f 439 413 442
f 500 443 501
f 443 502 501
f 502 443 449
f 442 459 439
f 459 504 439
f 459 462 507
f 459 507 504
f 444 424 425
f 421 446 458
f 444 446 421
f 419 503 448
f 444 450 445
f 451 445 450
f 447 445 451
f 444 445 446
f 461 445 447
f 461 447 462
f 462 456 505
f 449 506 502
f 447 456 462
f 507 462 505
f 454 455 451
f 425 454 450
f 450 454 451
f 444 425 450
f 456 447 451
f 452 448 453
f 508 456 431
f 431 455 430
f 456 508 505
f 455 456 451
f 455 431 456
f 436 438 457
f 437 436 457
f 442 457 459
f 459 457 458
f 458 446 460
f 460 459 458
f 459 460 462
f 446 445 461
f 446 461 460
f 460 461 462
