o FMA7264_BP8949_FJ2429
v 46.7631 -108.534 1212.64
v 47.8224 -109.306 1210.72
v 48.3547 -110.73 1211.91
v 47.4937 -109.486 1214.21
v 47.5235 -108.64 1215.94
v 46.8677 -107.57 1211.84
v 47.2028 -106.368 1212.16
v 47.7351 -107.072 1210.86
v 46.5438 -107.972 1213.85
v 46.4648 -107.611 1213.49
v 46.4821 -107.334 1214.15
v 46.6328 -107.075 1214.83
v 46.6282 -106.738 1213.31
v 46.5891 -106.711 1214.23
v 46.7521 -107.972 1214.78
v 47.0634 -106.215 1215.43
v 47.5015 -107.467 1216.63
v 47.8679 -106.337 1216.92
v 48.24 -108.202 1217.37
v 47.2625 -105.664 1214.4
v 47.9835 -105.173 1215.14
v 48.2069 -105.594 1216.55
v 50.0907 -117.905 1204.16
v 49.893 -116.208 1203.06
v 48.7394 -116.143 1204.85
v 48.768 -115.824 1204.25
v 48.8315 -115.867 1205.44
v 48.6866 -115.487 1204.63
v 49.0167 -116.747 1204.84
v 49.0892 -116.423 1203.92
v 48.9138 -116.433 1204.28
v 49.0307 -116.462 1205.44
v 49.2713 -117.046 1204.24
v 49.2764 -116.821 1205.42
v 49.3737 -115.516 1203.42
v 49.4298 -117.259 1204.81
v 49.9512 -117.409 1203.54
v 49.0191 -115.581 1205.78
v 49.1528 -116.176 1205.8
v 49.4386 -116.509 1205.88
v 49.494 -115.921 1206.15
v 49.7614 -116.872 1205.83
v 50.0501 -116.563 1206.16
v 50.1133 -115.973 1206.38
v 48.8569 -115.261 1205.47
v 48.9621 -114.958 1204.02
v 48.9428 -114.696 1205.19
v 49.0895 -114.679 1205.51
v 49.0749 -114.384 1204.61
v 49.1437 -114.375 1205.21
v 49.4916 -114.391 1203.73
v 49.5678 -114.199 1205.5
v 49.6048 -113.956 1204.35
v 49.5589 -113.981 1204.94
v 50.1742 -113.788 1204.94
v 49.156 -114.999 1205.79
v 49.4996 -115.055 1206.09
v 49.5539 -114.492 1205.82
v 50.0774 -115.381 1206.4
v 50.1398 -114.789 1206.26
v 50.1688 -114.226 1205.8
v 50.3575 -109.32 1208.72
v 48.8962 -109.864 1216.67
v 49.2836 -108.823 1217.88
v 50.5464 -110.532 1217.11
v 49.173 -107.015 1210.03
v 48.4627 -107.563 1217.7
v 49.3833 -106.721 1217.96
v 50.1714 -107.985 1218.26
v 48.5502 -105.023 1212.81
v 48.7438 -105.664 1211.28
v 49.75 -105.519 1211.22
v 50.0708 -105.061 1212.3
v 49.2378 -104.767 1214.82
v 49.1058 -105.616 1217.19
v 49.0847 -105.068 1216.29
v 49.8221 -105.059 1216.33
v 50.2758 -105.849 1217.48
v 51.6984 -118.352 1202.41
v 52.2537 -118.215 1201.83
v 52.5303 -119.58 1202.48
v 52.6219 -119.199 1201.91
v 50.3695 -117.878 1205.04
v 52.7414 -119.852 1203.38
v 50.779 -117.561 1205.67
v 51.327 -116.725 1206.23
v 51.1305 -115.345 1202.44
v 50.5129 -113.891 1203.84
v 50.769 -113.936 1205.26
v 50.8531 -113.817 1204.63
v 51.5021 -114.258 1205.17
v 50.7887 -115.502 1206.45
v 51.1716 -114.915 1206.17
v 52.214 -113.159 1208.06
v 50.8864 -112.846 1213.92
v 52.3265 -111.015 1216.87
v 50.7184 -109.223 1218
v 51.5736 -107.675 1209.29
v 51.3598 -107.127 1217.89
v 51.656 -108.906 1217.87
v 51.532 -106.14 1211.1
v 52.2823 -105.807 1214.56
v 51.2657 -105.573 1216.65
v 54.0399 -120.262 1204.04
v 54.4055 -119.512 1204.75
v 54.5352 -118.043 1205.28
v 54.8956 -117.061 1204.74
v 53.9842 -116.494 1208.3
v 53.0901 -115.068 1203.32
v 54.3557 -113.899 1206.51
v 53.8548 -108.283 1216.52
v 56.5613 -119.374 1199.35
v 56.7192 -120.359 1207.69
v 55.3529 -118.098 1210.01
v 56.4866 -117.346 1205.27
v 56.8873 -116.551 1204.8
v 56.2578 -117.625 1211.94
v 56.3099 -113.256 1205.7
v 57.0539 -112.009 1206.51
v 57.526 -110.873 1209.09
v 57.6387 -124.156 1201.16
v 58.1929 -123.852 1201.87
v 59.02 -123.841 1201.93
v 57.7272 -121.97 1198.17
v 58.3174 -121.029 1197.89
v 57.9431 -122.348 1202.77
v 58.2477 -121.156 1203.07
v 58.4992 -122.09 1202.75
v 59.0133 -122.625 1202.85
v 57.9109 -120.776 1203.21
v 58.3762 -121.101 1203.2
v 58.3252 -120.798 1203.21
v 58.2962 -120.681 1203.63
v 58.7464 -122.076 1204.78
v 58.1305 -121.293 1209.22
v 58.4084 -119.889 1198.41
v 58.0267 -118.948 1199.34
v 58.8151 -118.93 1200.23
v 58.2571 -120.171 1202.94
v 58.392 -119.88 1202.65
v 58.8469 -119.903 1202.65
v 58.5834 -119.9 1202.95
v 59.4519 -120.3 1201.73
v 59.4553 -120.236 1202.04
v 57.2579 -119.516 1205.49
v 58.3659 -120.199 1203.24
v 59.6885 -120.241 1211.19
v 57.6158 -117.952 1204.12
v 57.3929 -117.722 1212.21
v 59.9485 -113.019 1206.76
v 60.7559 -127.935 1196.83
v 61.3429 -126.205 1194.74
v 58.9447 -125.214 1197.98
v 59.2039 -126.075 1198.8
v 61.4572 -124.438 1194.41
v 59.7993 -124.355 1201.95
v 60.0621 -124.088 1203.82
v 61.0916 -125.403 1203.86
v 59.5756 -124.192 1205.41
v 60.1063 -124.92 1206.62
v 61.3738 -122.545 1195.61
v 59.8225 -122.116 1196.48
v 61.2815 -121.66 1196.43
v 61.2189 -120.978 1200.21
v 61.3153 -120.859 1200.49
v 59.7964 -119.612 1200.65
v 60.7586 -119.963 1199.81
v 61.9165 -120.531 1199.13
v 59.7752 -120.187 1201.44
v 59.8324 -120.225 1201.72
v 60.3566 -120.235 1201.26
v 60.662 -119.991 1201.26
v 60.9546 -119.347 1201.24
v 60.9855 -117.677 1201.36
v 62.0451 -116.594 1201.33
v 59.9442 -117.669 1212.17
v 60.9825 -113.632 1209.25
v 60.7936 -114.7 1211.48
v 63.648 -132.803 1193.2
v 63.9526 -133.352 1195.78
v 63.0666 -131.67 1192.82
v 63.8289 -131.268 1191.84
v 62.9386 -131.857 1193.54
v 63.3313 -132.187 1193.87
v 62.5537 -130.864 1195.6
v 62.499 -130.521 1196.89
v 62.993 -131.413 1196.44
v 63.0374 -131.671 1197.3
v 62.8701 -130.624 1198.28
v 63.4291 -128.381 1192.03
v 62.1872 -129.957 1194.16
v 63.4256 -127.01 1192.25
v 63.6515 -125.834 1191.91
v 62.2819 -126.475 1193.3
v 61.5398 -127.309 1200.17
v 63.1637 -127.815 1201.81
v 63.2543 -128.093 1206.92
v 62.2576 -126.487 1208.43
v 62.8179 -126.186 1209.07
v 62.5516 -125.129 1193.23
v 63.4195 -124.482 1192.89
v 63.9009 -124.92 1191.77
v 64.0693 -124.152 1193
v 62.7683 -124.191 1193.64
v 62.8218 -121.571 1195.86
v 63.9424 -122.813 1195.12
v 64.0579 -122.283 1195.29
v 64.1392 -121.113 1195.17
v 62.3887 -121.585 1199.29
v 62.3941 -121.482 1199.49
v 62.6477 -121.106 1199.33
v 62.9316 -120.577 1199.12
v 63.6777 -120.209 1195.73
v 64.5616 -119.426 1194.32
v 62.6848 -120.495 1196.26
v 62.781 -119.832 1197.85
v 63.029 -119.354 1197.87
v 63.0742 -119.969 1196.65
v 63.4315 -119.321 1196.59
v 63.4536 -118.462 1197.5
v 62.3689 -119.66 1199.63
v 62.7634 -119.338 1198.76
v 63.1022 -120.591 1198.73
v 63.1488 -120.293 1198.74
v 64.43 -117.899 1197.57
v 62.3067 -118.179 1199.71
v 63.1804 -117.762 1199.17
v 63.8456 -117.666 1198.95
v 65.7586 -139.339 1190.29
v 65.2035 -138.051 1196.32
v 64.9056 -136.927 1189.83
v 64.9582 -136.542 1189.21
v 64.8482 -135.362 1189.85
v 64.8347 -134.992 1190.16
v 65.0153 -135.495 1190.59
v 65.6533 -135.399 1188.6
v 65.9257 -136.943 1188.94
v 65.036 -135.181 1191.54
v 65.4926 -136.566 1190.8
v 65.7333 -136.255 1191.5
v 65.7201 -137.331 1194.76
v 64.7477 -133.846 1189.89
v 64.5749 -133.263 1189.28
v 64.7323 -134.042 1190.22
v 64.1469 -133.32 1191.32
v 64.2189 -132.916 1194.06
v 64.191 -134.741 1195.88
v 65.0497 -132.455 1190.49
v 64.9777 -131.631 1190.22
v 64.8268 -131.225 1190.62
v 65.1886 -131.215 1189.96
v 65.1503 -130.842 1190.2
v 65.8584 -130.663 1189.97
v 64.8399 -132.475 1190.83
v 64.8868 -132.087 1190.84
v 65.8241 -132.07 1200.03
v 65.7082 -131.149 1200.78
v 65.405 -130.889 1207.57
v 65.236 -129.858 1190.42
v 65.8892 -129.31 1190.32
v 65.96 -127.959 1190.25
v 64.9528 -127.988 1191.59
v 65.5693 -128.62 1190.92
v 65.6239 -128.217 1190.94
v 65.3528 -128.023 1191.49
v 64.2013 -130.373 1199.59
v 64.302 -129.589 1202.44
v 65.3469 -130.323 1204.57
v 65.4479 -130.366 1205.82
v 65.7168 -130.629 1208.83
v 64.8551 -126.114 1190.71
v 65.6916 -127.35 1190.42
v 65.9134 -125.707 1190.31
v 64.4894 -126.714 1191.83
v 64.5497 -126.14 1191.29
v 64.5404 -125.813 1191.1
v 65.1066 -126.759 1191.61
v 65.0371 -127.355 1191.78
v 65.4693 -127.324 1191
v 65.4624 -127.378 1191.59
v 64.5806 -125.262 1191
v 65.4433 -124.852 1190.62
v 66.4327 -123.907 1190.84
v 64.7081 -124.036 1191.71
v 64.2188 -123.233 1194.69
v 65.3969 -121.423 1192.65
v 64.5721 -120.906 1194.56
v 64.7203 -122.954 1195.1
v 64.7517 -122.354 1195.11
v 64.9257 -121.711 1193.58
v 65.1171 -122.951 1194.45
v 65.9762 -119.537 1193.49
v 64.6317 -118.342 1195.33
v 65.001 -118.511 1194.59
v 65.7187 -118.298 1194.66
v 65.3168 -118.154 1194.97
v 65.3901 -117.921 1195.67
v 66.5723 -117.306 1199.96
v 65.8202 -116.833 1202.06
v 67.3219 -144.383 1193.7
v 67.5036 -144.364 1193.1
v 66.1672 -141.247 1191.71
v 67.3644 -141.912 1193.75
v 67.3458 -140.788 1194.16
v 68.086 -142.074 1195.29
v 67.8894 -139.155 1189.83
v 67.0797 -139.311 1192.87
v 66.8012 -137.534 1193.1
v 66.1715 -137.985 1196.94
v 67.313 -138.791 1197.02
v 66.313 -134.224 1188.44
v 68.1102 -133.844 1188.6
v 66.4526 -134.985 1198.69
v 68.1194 -135.03 1201.28
v 67.9657 -133.937 1206.86
v 67.9735 -134.206 1205.7
v 66.575 -132.428 1188.9
v 68.0194 -130.508 1189.9
v 67.9804 -132.877 1208.78
v 67.9054 -132.222 1209.41
v 67.095 -129.521 1209.98
v 67.3456 -127.692 1210.48
v 68.8212 -124.238 1191.22
v 68.3445 -125.086 1210.77
v 68.4324 -118.189 1195.23
v 67.308 -117.534 1196.11
v 67.5749 -117.195 1197.92
v 68.6405 -117.436 1197.37
v 68.7532 -117.629 1199.93
v 69.1099 -118.491 1203.59
v 67.1066 -117.829 1206.95
v 68.0367 -145.656 1194.65
v 68.0977 -145.721 1197.42
v 68.648 -146.768 1199.3
v 68.6066 -146.245 1197.54
v 68.4058 -146.717 1200.11
v 68.452 -146.381 1200.97
v 68.6133 -146.897 1200.86
v 68.6066 -146.663 1201.76
v 68.9937 -146.92 1200.07
v 68.8938 -146.797 1201.87
v 68.9276 -146.492 1203.98
v 69.772 -146.684 1203.24
v 69.9005 -146.357 1204.41
v 68.8033 -145.372 1204.98
v 69.3421 -145.837 1205.38
v 69.8588 -144.485 1193.48
v 69.2603 -143.029 1201.49
v 69.0813 -144.207 1206.86
v 70.4794 -143.945 1206.92
v 69.2824 -140.595 1200.77
v 68.9964 -141.361 1207.92
v 69.5576 -141.417 1208.27
v 69.3422 -139.599 1208.58
v 70.4262 -139.845 1208.76
v 68.4651 -136.216 1188.8
v 69.4617 -138.049 1205.66
v 69.9459 -137.887 1210.3
v 70.6383 -136.139 1210.87
v 70.8568 -134.382 1190.33
v 69.1304 -133.691 1209.52
v 69.6265 -135.159 1210.34
v 69.9589 -130.662 1190.54
v 69.563 -131.937 1210.33
v 71.0468 -128.345 1210.87
v 71.3691 -123.404 1194.43
v 69.3435 -119.525 1194.23
v 69.7641 -118.638 1195.93
v 70.3087 -118.534 1199.69
v 70.465 -145.926 1197.34
v 70.4344 -145.754 1196.53
v 71.1502 -146.384 1199.42
v 71.6244 -146.101 1203.16
v 71.9602 -144.535 1195.46
v 72.2489 -144.794 1197.31
v 72.1433 -144.469 1205.53
v 72.3144 -141.525 1193.54
v 71.5979 -139.884 1208.37
v 72.8228 -135.755 1193.66
v 71.4242 -137.954 1209.93
v 71.4626 -131.747 1191.77
v 72.8581 -128.243 1209.63
v 71.9428 -124.454 1208.9
v 71.7991 -120.872 1198.14
v 72.0564 -120.937 1202.6
v 73.4856 -144.335 1200
v 73.4485 -143.898 1203.94
v 73.2594 -142.148 1195.69
v 74.1272 -142.145 1200.21
v 74.5404 -135.189 1202.35
v 73.8909 -136.015 1208.35
v 74.0885 -126.808 1204.87
v 53.8548 -108.283 1216.52
v 58.2477 -121.156 1203.07
v 58.4992 -122.09 1202.75
v 57.9109 -120.776 1203.21
v 58.3762 -121.101 1203.2
v 58.3252 -120.798 1203.21
v 58.3252 -120.798 1203.21
v 58.3252 -120.798 1203.21
v 58.8151 -118.93 1200.23
v 58.2571 -120.171 1202.94
v 58.2571 -120.171 1202.94
v 58.2571 -120.171 1202.94
v 58.2571 -120.171 1202.94
v 58.2571 -120.171 1202.94
v 58.392 -119.88 1202.65
v 58.392 -119.88 1202.65
v 58.392 -119.88 1202.65
v 58.8469 -119.903 1202.65
v 58.8469 -119.903 1202.65
v 58.8469 -119.903 1202.65
v 58.5834 -119.9 1202.95
v 58.5834 -119.9 1202.95
v 59.4519 -120.3 1201.73
v 59.4553 -120.236 1202.04
v 58.3659 -120.199 1203.24
v 61.2189 -120.978 1200.21
v 61.3153 -120.859 1200.49
v 59.7752 -120.187 1201.44
v 59.8324 -120.225 1201.72
v 60.3566 -120.235 1201.26
v 60.3566 -120.235 1201.26
v 60.3566 -120.235 1201.26
v 60.3566 -120.235 1201.26
v 60.7936 -114.7 1211.48
v 62.8701 -130.624 1198.28
v 62.3887 -121.585 1199.29
v 62.3887 -121.585 1199.29
v 62.3941 -121.482 1199.49
v 62.3941 -121.482 1199.49
v 62.781 -119.832 1197.85
v 62.781 -119.832 1197.85
v 62.781 -119.832 1197.85
v 63.029 -119.354 1197.87
v 63.029 -119.354 1197.87
v 63.0742 -119.969 1196.65
v 63.4536 -118.462 1197.5
v 63.1022 -120.591 1198.73
v 63.1022 -120.591 1198.73
v 63.1022 -120.591 1198.73
v 63.1488 -120.293 1198.74
v 65.7586 -139.339 1190.29
v 65.2035 -138.051 1196.32
v 64.9582 -136.542 1189.21
v 64.5749 -133.263 1189.28
v 64.5749 -133.263 1189.28
v 65.0497 -132.455 1190.49
v 64.9777 -131.631 1190.22
v 65.1886 -131.215 1189.96
v 65.7082 -131.149 1200.78
v 65.96 -127.959 1190.25
v 65.6916 -127.35 1190.42
v 65.4624 -127.378 1191.59
v 65.4624 -127.378 1191.59
v 64.7081 -124.036 1191.71
v 64.7203 -122.954 1195.1
v 64.7203 -122.954 1195.1
v 64.7517 -122.354 1195.11
v 65.1171 -122.951 1194.45
v 67.3219 -144.383 1193.7
v 67.5036 -144.364 1193.1
v 66.1672 -141.247 1191.71
v 67.3458 -140.788 1194.16
v 68.086 -142.074 1195.29
v 68.3445 -125.086 1210.77
v 68.0367 -145.656 1194.65
v 68.0977 -145.721 1197.42
v 68.6066 -146.245 1197.54
v 68.4058 -146.717 1200.11
v 68.6133 -146.897 1200.86
v 68.6066 -146.663 1201.76
v 68.9276 -146.492 1203.98
v 69.3421 -145.837 1205.38
v 69.0813 -144.207 1206.86
v 69.0813 -144.207 1206.86
v 68.9964 -141.361 1207.92
v 69.5576 -141.417 1208.27
v 69.3422 -139.599 1208.58
v 69.9459 -137.887 1210.3
v 69.9459 -137.887 1210.3
v 70.6383 -136.139 1210.87
v 69.6265 -135.159 1210.34
v 69.563 -131.937 1210.33
v 71.0468 -128.345 1210.87
v 72.8581 -128.243 1209.63
v 71.9428 -124.454 1208.9
f 8 62 2
f 2 3 1
f 4 5 15
f 3 4 1
f 63 5 4
f 63 4 95
f 15 5 17
f 5 19 17
f 2 6 8
f 6 1 10
f 10 13 6
f 13 7 6
f 2 1 6
f 6 7 8
f 71 8 7
f 71 66 8
f 1 9 10
f 9 11 10
f 9 15 11
f 10 11 13
f 15 12 11
f 13 11 14
f 11 12 14
f 14 12 16
f 12 17 16
f 9 1 4
f 9 4 15
f 15 17 12
f 14 20 13
f 16 20 14
f 7 13 20
f 17 18 16
f 67 18 17
f 19 67 17
f 70 71 7
f 20 16 21
f 7 20 70
f 70 20 21
f 21 16 22
f 21 22 76
f 70 21 74
f 74 21 76
f 18 22 16
f 76 22 75
f 83 23 84
f 37 80 79
f 31 29 25
f 26 31 25
f 26 30 31
f 26 25 28
f 25 27 28
f 27 45 28
f 27 38 45
f 38 56 45
f 33 36 29
f 31 33 29
f 36 83 34
f 29 36 34
f 30 37 33
f 30 33 31
f 29 34 32
f 32 25 29
f 32 27 25
f 27 32 39
f 35 24 30
f 26 35 30
f 38 27 39
f 46 35 26
f 33 23 36
f 83 42 34
f 34 40 32
f 34 42 40
f 37 30 24
f 40 39 32
f 33 37 23
f 36 23 83
f 80 37 24
f 40 41 39
f 39 41 38
f 56 38 57
f 38 41 57
f 42 43 40
f 43 41 40
f 43 44 41
f 44 59 41
f 59 57 41
f 83 85 42
f 85 43 42
f 43 85 86
f 35 87 24
f 26 28 46
f 28 45 47
f 45 48 47
f 56 48 45
f 46 28 49
f 28 47 49
f 47 50 49
f 48 50 47
f 54 49 50
f 35 46 51
f 56 58 48
f 46 49 51
f 51 49 53
f 54 53 49
f 50 48 52
f 48 58 52
f 54 50 52
f 88 51 53
f 52 61 55
f 58 61 52
f 88 53 55
f 53 54 55
f 54 52 55
f 61 89 55
f 55 89 90
f 58 57 60
f 56 57 58
f 59 60 57
f 60 61 58
f 2 94 108
f 114 95 3
f 4 3 95
f 114 3 108
f 2 108 3
f 94 2 62
f 62 110 94
f 118 110 62
f 118 62 98
f 63 19 5
f 63 64 19
f 95 65 63
f 64 63 65
f 96 97 65
f 97 64 65
f 97 69 64
f 8 66 62
f 71 72 66
f 98 66 72
f 66 98 62
f 64 69 67
f 19 64 67
f 69 68 67
f 67 68 18
f 68 69 99
f 98 72 101
f 72 71 70
f 73 72 70
f 73 101 72
f 102 101 73
f 74 73 70
f 102 73 74
f 18 75 22
f 18 68 75
f 76 75 77
f 74 76 77
f 78 75 68
f 99 78 68
f 78 77 75
f 103 77 78
f 74 77 102
f 102 77 103
f 99 103 78
f 81 37 79
f 81 79 82
f 82 79 80
f 81 84 23
f 37 81 23
f 84 104 83
f 87 80 24
f 112 87 137
f 104 85 83
f 105 85 104
f 105 86 85
f 44 43 86
f 92 59 44
f 86 92 44
f 106 92 86
f 87 35 51
f 88 87 51
f 109 87 88
f 137 87 109
f 90 88 55
f 90 109 88
f 89 61 93
f 90 89 91
f 93 91 89
f 91 109 90
f 107 109 91
f 107 91 93
f 92 60 59
f 60 93 61
f 93 60 92
f 106 107 93
f 106 93 92
f 94 145 108
f 117 65 95
f 65 117 96
f 100 96 176
f 100 69 97
f 97 96 100
f 98 101 119
f 111 103 99
f 393 99 100
f 100 176 393
f 177 102 111
f 100 99 69
f 120 101 102
f 103 111 102
f 81 82 153
f 84 154 121
f 121 104 84
f 87 124 80
f 81 154 84
f 86 105 106
f 114 117 95
f 94 110 116
f 149 176 96
f 98 119 118
f 119 101 120
f 102 177 120
f 153 154 81
f 153 82 80
f 80 124 153
f 121 122 104
f 105 104 122
f 105 122 126
f 124 87 112
f 124 112 125
f 125 112 136
f 136 112 137
f 126 106 105
f 126 130 106
f 159 113 145
f 145 134 159
f 108 113 114
f 108 145 113
f 135 117 114
f 117 135 147
f 149 117 147
f 139 107 106
f 139 106 130
f 140 109 107
f 115 94 116
f 145 115 148
f 148 115 116
f 115 145 94
f 116 118 148
f 116 110 118
f 149 96 117
f 150 120 177
f 178 393 176
f 152 153 124
f 152 124 155
f 195 156 123
f 195 123 122
f 125 155 124
f 125 162 155
f 162 125 136
f 122 123 126
f 127 130 128
f 127 132 130
f 126 123 128
f 131 394 129
f 394 395 129
f 398 394 131
f 123 156 395
f 395 156 129
f 156 157 129
f 128 130 126
f 397 129 134
f 397 134 399
f 134 133 399
f 134 145 133
f 129 157 134
f 160 135 113
f 113 135 114
f 138 137 109
f 140 166 401
f 137 138 218
f 400 402 396
f 407 107 139
f 403 399 146
f 109 140 401
f 144 408 141
f 404 410 409
f 142 411 405
f 406 417 413
f 146 148 414
f 148 412 414
f 412 148 416
f 408 144 143
f 415 166 140
f 143 170 169
f 170 143 144
f 420 166 415
f 145 148 133
f 146 399 133
f 146 133 148
f 416 148 173
f 176 149 147
f 173 148 118
f 150 119 120
f 177 111 426
f 189 195 154
f 153 151 154
f 152 151 153
f 154 151 427
f 154 195 121
f 121 195 122
f 196 157 195
f 267 160 159
f 160 198 135
f 155 204 200
f 157 156 195
f 134 157 159
f 158 159 157
f 159 160 113
f 135 198 147
f 155 162 204
f 204 162 161
f 162 163 161
f 136 163 162
f 161 163 206
f 164 209 167
f 428 418 165
f 418 171 165
f 428 165 210
f 209 168 167
f 419 173 430
f 437 136 137
f 215 136 437
f 216 218 138
f 401 166 167
f 432 401 167
f 166 164 167
f 422 164 166
f 167 168 432
f 168 223 432
f 226 221 173
f 420 423 166
f 416 173 421
f 170 424 169
f 421 172 425
f 421 173 172
f 425 172 419
f 172 173 419
f 173 174 226
f 175 226 174
f 173 118 174
f 118 175 174
f 118 119 175
f 299 150 177
f 119 150 299
f 235 238 183
f 235 183 181
f 179 184 183
f 179 246 184
f 187 180 188
f 191 183 151
f 183 185 151
f 181 183 191
f 184 185 183
f 185 184 246
f 187 185 246
f 185 186 151
f 185 187 186
f 186 188 427
f 188 186 187
f 181 191 182
f 191 151 152
f 182 191 152
f 151 186 427
f 266 196 195
f 266 267 196
f 195 189 266
f 196 267 158
f 197 258 198
f 155 200 194
f 194 190 182
f 194 192 190
f 262 190 192
f 193 192 194
f 193 194 202
f 274 192 193
f 278 262 192
f 152 155 194
f 194 182 152
f 158 157 196
f 158 267 159
f 198 160 197
f 200 204 201
f 200 202 194
f 201 202 200
f 201 204 203
f 203 204 285
f 203 202 201
f 202 203 284
f 285 204 161
f 206 285 161
f 203 285 288
f 147 198 199
f 205 163 136
f 205 136 215
f 206 163 207
f 208 205 215
f 163 205 207
f 205 208 207
f 209 439 168
f 429 211 440
f 429 431 211
f 211 430 173
f 211 212 440
f 173 212 211
f 213 208 215
f 219 214 213
f 293 214 219
f 213 215 437
f 220 219 217
f 225 438 226
f 217 437 433
f 435 441 224
f 434 441 435
f 219 437 217
f 437 219 213
f 219 220 293
f 225 293 438
f 222 221 226
f 220 222 226
f 217 222 220
f 221 442 212
f 442 440 212
f 212 173 221
f 442 221 222
f 442 222 436
f 228 225 227
f 225 226 227
f 226 175 227
f 228 227 175
f 228 298 225
f 228 175 298
f 324 178 176
f 119 299 175
f 229 302 231
f 231 463 239
f 306 443 237
f 230 309 189
f 232 229 231
f 232 231 243
f 239 233 231
f 243 231 233
f 233 235 234
f 242 243 233
f 239 235 233
f 239 240 235
f 236 445 446
f 237 443 445
f 236 237 445
f 356 237 236
f 311 356 236
f 240 238 235
f 238 240 246
f 239 308 240
f 246 240 308
f 241 444 247
f 241 247 180
f 444 427 188
f 444 188 247
f 309 266 189
f 244 234 245
f 244 242 234
f 242 233 234
f 245 254 244
f 244 248 242
f 254 448 244
f 317 446 251
f 311 236 446
f 311 446 317
f 235 181 245
f 238 179 183
f 245 181 182
f 245 182 254
f 245 234 235
f 238 246 179
f 246 180 187
f 247 188 180
f 254 255 448
f 242 249 243
f 242 248 249
f 448 250 449
f 448 255 250
f 449 450 447
f 450 449 252
f 252 449 250
f 250 190 252
f 190 259 252
f 253 317 251
f 251 252 253
f 253 252 259
f 260 253 259
f 190 250 182
f 255 254 182
f 250 255 182
f 257 266 256
f 256 266 313
f 267 266 257
f 267 451 314
f 267 314 268
f 269 316 258
f 270 320 321
f 258 315 270
f 263 260 259
f 264 260 263
f 260 264 261
f 253 260 318
f 260 452 318
f 262 259 190
f 262 265 259
f 265 262 278
f 263 265 264
f 259 265 263
f 265 280 264
f 268 160 267
f 160 268 269
f 269 268 314
f 198 258 270
f 269 258 197
f 197 160 269
f 199 198 270
f 270 321 199
f 281 271 276
f 272 279 271
f 264 279 272
f 453 271 273
f 264 272 261
f 452 453 273
f 318 452 273
f 323 273 283
f 275 193 276
f 275 274 193
f 276 193 281
f 193 202 281
f 192 274 278
f 277 274 275
f 275 276 271
f 277 278 274
f 277 271 279
f 271 277 275
f 454 278 277
f 455 277 279
f 264 455 279
f 265 278 454
f 147 199 322
f 281 202 282
f 281 282 271
f 271 282 273
f 273 282 283
f 282 202 284
f 203 291 284
f 285 206 288
f 288 291 203
f 176 147 322
f 282 284 286
f 290 286 284
f 282 286 283
f 457 206 207
f 457 207 289
f 287 459 208
f 289 207 208
f 213 214 287
f 287 208 213
f 458 459 460
f 460 459 287
f 290 287 214
f 456 460 290
f 460 287 290
f 286 292 283
f 292 323 283
f 290 214 286
f 214 293 294
f 296 294 293
f 296 293 297
f 214 292 286
f 292 214 294
f 295 292 294
f 295 294 296
f 296 326 295
f 296 297 326
f 297 293 225
f 298 175 299
f 298 299 329
f 177 426 331
f 331 426 466
f 299 177 331
f 300 332 333
f 301 332 300
f 468 348 461
f 461 303 463
f 305 303 461
f 347 467 462
f 302 301 300
f 462 443 306
f 301 302 229
f 465 444 304
f 463 303 307
f 305 464 303
f 303 464 307
f 308 307 464
f 309 230 305
f 463 307 239
f 307 308 239
f 444 241 304
f 180 308 241
f 308 304 241
f 180 246 308
f 309 305 310
f 237 356 306
f 377 306 356
f 310 266 309
f 266 310 313
f 305 314 310
f 310 314 313
f 313 314 256
f 356 311 312
f 317 312 311
f 318 312 317
f 351 357 314
f 316 357 315
f 316 269 314
f 314 357 316
f 319 315 361
f 318 317 253
f 312 318 363
f 256 314 257
f 316 315 258
f 319 320 270
f 270 315 319
f 320 361 321
f 319 361 320
f 321 322 199
f 323 318 273
f 324 176 322
f 323 292 367
f 325 367 292
f 325 292 295
f 295 326 325
f 368 367 325
f 327 297 225
f 225 298 327
f 297 327 326
f 326 327 328
f 327 329 328
f 368 325 328
f 328 325 326
f 327 298 329
f 329 330 369
f 330 299 331
f 329 299 330
f 333 332 335
f 347 371 467
f 371 370 469
f 333 335 334
f 334 336 333
f 372 334 469
f 372 340 334
f 340 372 343
f 469 370 372
f 334 338 336
f 470 471 337
f 339 337 471
f 470 337 468
f 334 340 338
f 338 341 472
f 341 342 472
f 343 338 340
f 341 338 343
f 473 337 339
f 473 345 337
f 341 343 342
f 344 342 343
f 337 345 348
f 346 342 344
f 473 474 345
f 474 349 345
f 346 344 376
f 306 347 462
f 347 306 377
f 461 348 305
f 337 348 468
f 349 352 345
f 475 346 350
f 346 376 350
f 353 477 476
f 475 350 478
f 305 348 351
f 348 357 351
f 352 357 345
f 345 357 348
f 357 352 354
f 353 479 477
f 353 355 479
f 378 355 478
f 305 351 314
f 358 362 354
f 354 362 357
f 479 355 480
f 480 355 380
f 359 483 481
f 380 482 480
f 312 363 360
f 312 360 356
f 377 356 360
f 315 357 361
f 357 362 361
f 364 361 362
f 363 381 360
f 361 484 321
f 484 322 321
f 365 484 483
f 484 365 322
f 318 323 363
f 323 381 363
f 381 323 366
f 381 366 379
f 322 365 324
f 383 466 485
f 323 367 366
f 366 368 384
f 466 383 331
f 367 368 366
f 368 369 384
f 330 331 385
f 369 368 328
f 328 329 369
f 369 330 385
f 469 467 371
f 371 375 370
f 374 371 347
f 374 375 371
f 375 372 370
f 373 343 372
f 373 344 343
f 344 373 376
f 377 374 347
f 388 374 377
f 388 375 374
f 478 350 378
f 378 350 376
f 376 387 391
f 355 378 380
f 380 378 391
f 378 376 391
f 391 482 380
f 379 377 360
f 482 391 485
f 360 381 379
f 365 483 359
f 485 391 382
f 379 366 392
f 486 391 392
f 382 383 485
f 384 369 385
f 392 366 384
f 385 392 384
f 372 375 386
f 373 372 386
f 386 375 388
f 388 389 386
f 373 387 376
f 373 386 387
f 389 387 386
f 377 379 388
f 391 387 389
f 388 379 390
f 388 390 389
f 389 390 391
f 391 390 392
f 390 379 392
f 392 487 486
f 392 385 487
f 385 331 487
