o FMA7252_BP7905_FJ2431
v 22.7759 -108.465 1240.76
v 22.7095 -107.537 1243.25
v 22.7357 -108.586 1244.58
v 23.2396 -109.932 1242.45
v 23.1784 -111.593 1240.21
v 22.4187 -111.959 1243.9
v 22.5411 -112.912 1238.09
v 22.7123 -113.912 1239.54
v 22.7791 -113.534 1241.71
v 21.7879 -106.423 1242.83
v 21.2287 -106.42 1247.6
v 21.4621 -107.394 1239.76
v 21.5012 -108.433 1247.15
v 22.0462 -111.038 1237.43
v 21.5747 -111.436 1238.61
v 21.2091 -112.37 1236.07
v 20.8383 -112.977 1243.73
v 21.1566 -114.108 1236.17
v 21.5038 -115.253 1237.41
v 21.9738 -115.749 1240.43
v 21.3947 -115.88 1242.88
v 20.5979 -117.546 1238.83
v 20.302 -117.875 1241.54
v 19.5093 -105.146 1243.18
v 20.3923 -105.477 1247.17
v 19.9668 -106.153 1249.76
v 20.1577 -106.619 1249.81
v 19.7501 -107.818 1249.95
v 19.8021 -105.71 1249.1
v 19.7237 -106.569 1250.32
v 19.4094 -106.318 1250.36
v 20.3913 -108.279 1237.7
v 20.6646 -110.91 1236.04
v 19.4378 -112.567 1234.77
v 19.9976 -113.077 1236.33
v 20.4808 -113.72 1235.39
v 20.1225 -115.822 1235.81
v 19.8326 -116.013 1237.82
v 20.0087 -116.191 1241.26
v 19.0486 -118.41 1237.15
v 18.8374 -119.113 1238.41
v 19.3305 -105.124 1247.33
v 18.9709 -105.479 1249.1
v 19.1777 -105.918 1240.17
v 19.3516 -105.967 1249.97
v 19.3366 -106.543 1250.51
v 19.194 -107.447 1250.5
v 19.1138 -106.304 1250.38
v 19.0623 -106.769 1250.52
v 18.4402 -106.675 1250.17
v 18.3596 -105.827 1249.73
v 18.3257 -106.764 1249.98
v 18.106 -106.249 1249.9
v 18.1487 -106.843 1248.77
v 17.9364 -106.55 1249.78
v 18.0259 -107.707 1237.16
v 18.6995 -107.281 1250.33
v 18.6165 -107.276 1250.16
v 18.317 -108.9 1250.08
v 17.5479 -108.838 1239.42
v 19.0656 -110.539 1235.38
v 18.4363 -114.695 1234.16
v 17.331 -117.051 1235.66
v 18.0714 -117.539 1247.33
v 17.3952 -118.675 1247.13
v 17.4799 -119.852 1240.66
v 16.4408 -105.289 1241.16
v 17.4944 -104.826 1244.39
v 17.4352 -105.283 1248.28
v 16.6846 -105.623 1248.54
v 17.087 -109.908 1235.3
v 17.0585 -112.593 1234.06
v 16.1614 -113.736 1235.46
v 17.3077 -114.559 1249.42
v 16.4322 -117.177 1233.91
v 15.8831 -116.47 1234.84
v 17.1816 -117.657 1248.61
v 16.3971 -116.725 1248.62
v 16.89 -117.507 1248.92
v 16.5424 -118.012 1248.88
v 16.3441 -117.653 1248.83
v 16.8145 -118.498 1248.49
v 16.5036 -118.51 1248.71
v 16.1764 -119.041 1248.02
v 16.0134 -118.565 1248.6
v 15.5756 -106.562 1238.45
v 15.5896 -106.269 1248.29
v 15.5386 -106.445 1248.22
v 15.3411 -108.149 1236.62
v 15.0772 -115.398 1233.41
v 14.292 -118.497 1235.24
v 15.4223 -118.403 1247.34
v 15.1076 -118.684 1248.02
v 15.4122 -119.399 1237.25
v 14.7373 -121.321 1238.23
v 13.7774 -106.144 1240.58
v 14.0883 -105.429 1244.08
v 14.5523 -105.581 1246.38
v 13.4561 -106.286 1246.62
v 13.6326 -108.222 1237.21
v 14.3015 -111.213 1234.86
v 13.2542 -116.839 1235.14
v 13.4333 -117.703 1233.55
v 13.8208 -120.095 1234.77
v 12.8644 -120.967 1245.81
v 12.6634 -120.835 1246.3
v 13.6226 -121.297 1236.23
v 12.1351 -106.493 1243.24
v 12.7417 -106.192 1245.34
v 11.3103 -107.533 1245.53
v 12.9031 -107.054 1246.65
v 12.6873 -107.35 1246.34
v 11.4053 -108.484 1239.23
v 11.2383 -115.771 1234.34
v 11.7165 -118.951 1235.97
v 11.2222 -120.521 1235.08
v 11.7884 -120.682 1236.88
v 10.8405 -107.689 1244.62
v 9.93248 -108.965 1242.11
v 11.1023 -111.418 1236.47
v 9.62593 -115.47 1238.84
v 9.9389 -118.524 1234.98
v 10.4694 -122.835 1238.51
v 9.25612 -122.342 1237.57
v 9.60677 -122.69 1243.73
v 9.42499 -109.723 1244.17
v 9.1524 -111.324 1243.82
v 8.88263 -111.162 1244.06
v 9.03866 -115.987 1236.16
v 7.658 -120.112 1237.38
v 8.18356 -121.338 1237.33
v 8.24112 -123.598 1241.58
v 7.68395 -122.569 1243.2
v 8.63228 -122.645 1243.88
v 7.72125 -112.932 1242.67
v 7.68 -114.071 1243.1
v 7.53927 -113.866 1243.17
v 7.72946 -114.456 1239.31
v 7.1129 -115.435 1242.85
v 6.21192 -117.357 1241.25
v 6.2182 -117.364 1242.2
v 6.95509 -117.845 1238.59
v 6.53498 -117.743 1242.37
v 6.34299 -117.585 1242.43
v 6.30111 -118.384 1242.43
v 6.16979 -120.36 1239.71
v 6.18482 -121.17 1242.05
v 5.75988 -121.748 1242.03
v 5.99772 -122.025 1240.47
v 6.83621 -123.825 1241.53
v 6.2488 -123.72 1241.94
v 6.21909 -123.234 1241.12
v 5.78559 -122.7 1241.99
v 5.8128 -123.086 1241.74
v 7.27484 -122.733 1242.79
v 7.06848 -122.849 1242.88
v 7.10415 -123.847 1242.38
v 6.38673 -122.395 1242.4
v 6.23877 -123.482 1242.21
v 5.66774 -121.536 1241.58
v 21.5747 -111.436 1238.61
v 19.7237 -106.569 1250.32
v 17.9364 -106.55 1249.78
v 17.9364 -106.55 1249.78
v 18.6165 -107.276 1250.16
v 17.5479 -108.838 1239.42
v 17.5479 -108.838 1239.42
v 16.1614 -113.736 1235.46
v 16.3971 -116.725 1248.62
v 16.5036 -118.51 1248.71
v 16.5036 -118.51 1248.71
v 16.0134 -118.565 1248.6
v 15.5896 -106.269 1248.29
v 15.5386 -106.445 1248.22
v 14.292 -118.497 1235.24
v 15.1076 -118.684 1248.02
v 13.2542 -116.839 1235.14
v 12.6634 -120.835 1246.3
v 11.3103 -107.533 1245.53
v 12.9031 -107.054 1246.65
v 12.6873 -107.35 1246.34
v 12.6873 -107.35 1246.34
v 12.6873 -107.35 1246.34
v 11.7884 -120.682 1236.88
v 11.7884 -120.682 1236.88
v 8.88263 -111.162 1244.06
v 7.68395 -122.569 1243.2
v 8.63228 -122.645 1243.88
v 7.53927 -113.866 1243.17
v 7.53927 -113.866 1243.17
v 7.1129 -115.435 1242.85
v 7.1129 -115.435 1242.85
v 7.1129 -115.435 1242.85
v 6.53498 -117.743 1242.37
v 6.34299 -117.585 1242.43
v 6.30111 -118.384 1242.43
v 6.30111 -118.384 1242.43
v 6.30111 -118.384 1242.43
v 6.18482 -121.17 1242.05
v 6.18482 -121.17 1242.05
v 5.75988 -121.748 1242.03
v 5.75988 -121.748 1242.03
v 6.2488 -123.72 1241.94
v 6.2488 -123.72 1241.94
v 6.2488 -123.72 1241.94
v 5.78559 -122.7 1241.99
v 5.78559 -122.7 1241.99
v 5.8128 -123.086 1241.74
v 7.27484 -122.733 1242.79
v 7.06848 -122.849 1242.88
v 7.06848 -122.849 1242.88
v 7.10415 -123.847 1242.38
v 6.38673 -122.395 1242.4
v 6.38673 -122.395 1242.4
v 6.23877 -123.482 1242.21
f 2 10 11
f 12 1 14
f 1 4 5
f 4 1 2
f 1 10 2
f 2 3 4
f 1 5 14
f 5 7 14
f 3 6 4
f 3 13 6
f 7 5 8
f 5 4 9
f 9 4 6
f 13 64 6
f 20 19 8
f 8 19 7
f 5 9 8
f 6 21 9
f 8 9 20
f 6 64 21
f 22 19 20
f 12 44 10
f 11 10 25
f 11 3 2
f 11 13 3
f 44 12 32
f 12 14 32
f 1 12 10
f 15 60 35
f 58 161 17
f 16 33 14
f 7 16 14
f 7 18 16
f 161 39 17
f 13 28 64
f 18 36 16
f 7 19 18
f 35 38 161
f 38 39 161
f 37 36 18
f 37 18 19
f 21 20 9
f 23 41 22
f 23 22 20
f 20 21 23
f 10 24 25
f 42 25 24
f 11 25 29
f 42 29 25
f 24 10 44
f 29 26 11
f 166 161 54
f 11 27 13
f 27 11 26
f 28 13 27
f 27 26 30
f 162 28 27
f 29 45 26
f 31 45 48
f 31 26 45
f 31 30 26
f 30 31 46
f 28 162 47
f 162 46 47
f 44 32 56
f 79 28 47
f 61 56 32
f 14 33 32
f 32 33 61
f 78 165 17
f 61 33 34
f 16 34 33
f 77 64 28
f 36 34 16
f 36 62 34
f 37 62 36
f 38 35 63
f 19 40 37
f 19 22 40
f 40 22 41
f 38 63 94
f 38 94 39
f 21 64 23
f 17 39 78
f 41 23 66
f 44 67 24
f 68 24 67
f 68 42 24
f 42 43 29
f 42 69 43
f 69 51 43
f 69 70 51
f 86 44 56
f 88 166 54
f 161 58 52
f 52 54 161
f 43 45 29
f 45 43 51
f 48 45 51
f 46 31 48
f 46 48 49
f 46 49 47
f 53 49 48
f 49 59 47
f 57 59 49
f 48 51 53
f 53 50 49
f 52 57 50
f 49 50 57
f 58 57 52
f 55 52 50
f 51 70 53
f 163 54 52
f 164 53 87
f 50 53 164
f 87 174 164
f 163 88 54
f 86 56 89
f 57 58 59
f 58 169 59
f 71 56 61
f 59 169 74
f 61 34 72
f 72 71 61
f 77 28 79
f 73 35 60
f 74 47 59
f 34 62 72
f 63 35 76
f 75 37 40
f 41 107 40
f 66 95 41
f 133 92 94
f 94 92 39
f 64 65 23
f 66 23 65
f 78 39 92
f 64 82 65
f 77 82 64
f 68 69 42
f 68 98 69
f 86 67 44
f 98 70 69
f 98 99 70
f 173 70 99
f 53 70 173
f 56 71 89
f 101 71 72
f 73 76 35
f 167 121 168
f 90 72 62
f 74 79 47
f 37 75 62
f 91 63 76
f 77 79 82
f 93 81 169
f 81 93 85
f 176 78 92
f 74 80 79
f 81 80 74
f 74 169 81
f 75 40 104
f 103 75 104
f 84 65 82
f 83 82 79
f 84 82 170
f 80 85 171
f 172 84 170
f 81 85 80
f 106 84 172
f 93 178 85
f 66 65 84
f 79 80 83
f 41 95 107
f 97 67 96
f 97 68 67
f 112 166 88
f 68 97 98
f 89 100 86
f 121 167 181
f 101 89 71
f 90 62 75
f 101 72 90
f 73 102 76
f 121 177 168
f 90 75 103
f 114 101 90
f 102 175 76
f 104 40 107
f 94 63 91
f 133 176 92
f 117 94 91
f 133 94 117
f 106 105 84
f 86 96 67
f 96 113 108
f 96 108 97
f 97 108 109
f 98 97 109
f 99 98 109
f 111 182 174
f 87 111 174
f 100 96 86
f 100 113 96
f 101 100 89
f 114 90 103
f 121 115 177
f 116 103 104
f 115 175 102
f 184 175 115
f 105 66 84
f 178 93 134
f 107 95 123
f 66 132 95
f 105 125 66
f 109 108 118
f 109 118 110
f 118 108 119
f 99 109 110
f 113 119 108
f 99 180 173
f 99 110 180
f 182 111 179
f 120 113 100
f 100 101 120
f 114 120 101
f 114 129 120
f 114 103 122
f 115 121 147
f 147 184 115
f 107 116 104
f 107 123 124
f 116 107 124
f 95 132 123
f 132 66 125
f 119 113 138
f 138 113 120
f 126 118 119
f 118 126 110
f 110 126 128
f 110 128 183
f 127 121 181
f 127 136 121
f 114 122 129
f 129 122 130
f 116 122 103
f 147 158 184
f 124 131 116
f 117 155 133
f 125 106 188
f 125 105 106
f 93 187 134
f 135 119 138
f 119 135 126
f 128 126 135
f 127 186 136
f 128 135 137
f 186 127 181
f 189 136 186
f 138 120 129
f 121 145 147
f 142 129 130
f 122 116 131
f 131 124 152
f 130 122 131
f 209 185 213
f 150 152 124
f 124 123 150
f 123 132 150
f 132 125 157
f 187 156 134
f 188 157 125
f 210 133 155
f 159 134 156
f 159 212 134
f 140 135 138
f 137 135 141
f 135 140 141
f 121 136 139
f 141 191 190
f 192 136 189
f 144 191 141
f 129 142 138
f 142 140 138
f 121 143 145
f 121 139 143
f 193 195 194
f 142 146 140
f 144 141 196
f 194 195 197
f 196 141 148
f 130 146 142
f 160 140 146
f 199 198 201
f 131 152 149
f 131 149 130
f 146 130 149
f 202 214 200
f 153 148 160
f 150 132 157
f 150 157 151
f 150 203 152
f 152 154 149
f 203 154 152
f 215 208 204
f 160 154 153
f 160 149 154
f 211 209 213
f 214 159 156
f 159 205 212
f 214 206 159
f 214 202 206
f 207 208 215
f 140 160 141
f 149 160 146
f 141 160 148
