o FMA7247_BP9071_FJ2417
v 34.8357 -140.443 1247.5
v 35.1218 -140.822 1246.83
v 35.0979 -141.574 1246.09
v 36.7946 -140.254 1247.63
v 36.0345 -140.859 1246.73
v 35.8217 -139.99 1248.37
v 37.4236 -139.781 1248.98
v 36.6659 -139.679 1249.45
v 34.996 -142.91 1245.38
v 37.1845 -142.081 1246.12
v 36.5425 -141.401 1246.34
v 36.072 -142.219 1245.76
v 36.5721 -142.898 1245.62
v 38.1011 -141.434 1246.92
v 37.3079 -140.642 1247.21
v 37.5075 -142.42 1247.79
v 38.4854 -140.925 1247.54
v 39.1832 -140.946 1248.14
v 38.4199 -140.293 1248.31
v 37.45 -141.544 1248.43
v 38.6456 -139.991 1249.16
v 39.3745 -140.275 1249.51
v 39.1159 -139.824 1250.6
v 39.7594 -140.165 1250.85
v 36.2994 -144.631 1245.18
v 37.3903 -144.268 1245.6
v 38.7187 -142.2 1246.9
v 37.771 -142.534 1246.2
v 38.5443 -143.129 1246.46
v 39.0777 -141.478 1247.57
v 39.5583 -141.503 1248.09
v 39.2991 -142.332 1247.34
v 39.927 -142.531 1248.03
v 38.2009 -142.15 1248.5
v 39.994 -141.277 1249.03
v 40.2313 -142.252 1248.67
v 40.6624 -142.137 1250
v 40.3974 -141.071 1250.55
v 38.5278 -144.224 1246.22
v 39.3642 -143.59 1247.03
v 40.5407 -143.586 1248.82
v 33.1944 -141.639 1246.39
v 33.5832 -140.823 1247.27
v 33.7045 -140.462 1248.09
v 35.0695 -139.997 1249.86
v 32.8403 -143.467 1245.45
v 34.1166 -142.839 1245.44
v 33.1481 -142.46 1245.8
v 33.5835 -142.6 1247.07
v 34.9256 -142.173 1247.22
v 35.634 -141.423 1248.13
v 34.8619 -141.2 1248.98
v 36.4213 -141.076 1248.78
v 36.9758 -140.824 1249.61
v 36.0175 -140.878 1250.53
v 38.0962 -139.537 1251.12
v 34.2701 -143.956 1245.09
v 34.57 -143.342 1246.53
v 34.4741 -144.346 1246.22
v 35.8549 -142.443 1247.1
v 35.3874 -143.557 1246.5
v 36.8125 -141.958 1247.74
v 35.8783 -141.913 1247.48
v 36.8151 -141.271 1248.47
v 37.6131 -141.186 1248.98
v 38.2143 -141.456 1249.1
v 37.2317 -140.998 1249.14
v 38.3133 -141.21 1249.55
v 38.695 -141.664 1249.45
v 38.007 -140.941 1249.85
v 39.0014 -141.477 1250.23
v 38.6966 -141.007 1250.63
v 37.9417 -140.684 1250.87
v 39.0238 -141.104 1251.15
v 40.2071 -140.458 1251.8
v 38.6688 -140.737 1251.75
v 39.4129 -141.268 1252.23
v 39.8488 -140.051 1252.42
v 39.3401 -139.736 1252.88
v 34.7861 -145.141 1244.92
v 35.3895 -144.045 1245.09
v 35.5318 -144.753 1246.26
v 36.9487 -144.899 1246.77
v 37.7121 -143.031 1247.64
v 37.0038 -143.253 1247.15
v 38.0502 -144.09 1247.64
v 38.289 -142.878 1248.2
v 38.999 -142.447 1249.28
v 39.3411 -142.069 1250.24
v 40.6006 -141.133 1251.96
v 39.381 -141.591 1251.07
v 40.812 -141.85 1251.71
v 39.7149 -142.365 1251.32
v 35.8135 -146.207 1245.03
v 37.1372 -145.786 1245.4
v 38.0086 -145.691 1245.81
v 39.0083 -143.934 1248.75
v 40.9215 -143.407 1250.53
v 39.5619 -143.392 1250.01
v 40.9164 -142.669 1252.4
v 38.6306 -147.038 1246.29
v 39.3113 -147.143 1246.93
v 39.3175 -145.451 1246.8
v 39.8309 -146.219 1247.44
v 40.2961 -146.483 1248.35
v 40.319 -144.549 1248.19
v 40.7497 -145.255 1249.46
v 31.5512 -141.377 1247.67
v 31.7229 -142.562 1246.33
v 30.9198 -142.21 1247.1
v 32.3879 -142.433 1247.78
v 31.566 -143.099 1247.65
v 33.7684 -141.707 1248.17
v 32.0987 -141.97 1248.85
v 33.3861 -141.438 1249.46
v 31.5568 -144.124 1245.72
v 32.4538 -143.505 1246.94
v 38.2771 -139.543 1253.08
v 39.098 -139.707 1255.53
v 32.813 -144.834 1245.12
v 33.1051 -145.768 1246.07
v 33.4345 -144.156 1246.36
v 38.3768 -140.595 1252.71
v 39.0084 -140.77 1253.49
v 39.6144 -141.492 1253.38
v 40.2854 -140.639 1254.73
v 39.7921 -140.035 1255.02
v 32.2912 -147.151 1244.96
v 34.6823 -145.946 1246.04
v 39.9041 -143.41 1251.59
v 39.9077 -142.764 1253.33
v 40.6108 -141.456 1254.47
v 33.7932 -147.944 1244.9
v 35.2308 -148.13 1245.09
v 34.6418 -147.38 1246.09
v 36.0963 -146.632 1246.4
v 37.7137 -146.38 1247.25
v 39.5008 -145.252 1249.6
v 39.8179 -144.717 1250.74
v 39.845 -145.08 1252.07
v 40.8057 -143.977 1253.36
v 37.2942 -148.054 1245.71
v 37.0629 -148.084 1247.09
v 38.1454 -147.419 1247.75
v 38.8224 -146.094 1248.39
v 39.0982 -146.976 1249.03
v 38.6163 -147.753 1248.43
v 39.5733 -146.38 1250.22
v 40.9031 -144.865 1250.66
v 38.5209 -148.336 1246.5
v 39.3383 -148.775 1247.5
v 39.9576 -147.556 1247.98
v 40.2825 -147.769 1248.94
v 39.8696 -148.669 1248.39
v 40.5683 -147.089 1249.8
v 29.3978 -142.423 1248.16
v 30.1722 -141.747 1248.35
v 31.0216 -141.107 1249.09
v 29.9345 -143.851 1246.67
v 30.4235 -144.144 1247.72
v 31.4855 -142.453 1248.42
v 31.7464 -141.857 1250.19
v 39.53 -139.977 1256.32
v 39.1448 -139.967 1256.97
v 37.871 -139.9 1256.92
v 39.8103 -140.338 1256.49
v 40.2462 -141.251 1256.35
v 39.8843 -140.848 1256.83
v 39.065 -140.807 1257.1
v 39.3842 -140.794 1257.12
v 32.817 -147.423 1246
v 40.5817 -142.914 1255.4
v 40.3912 -142.271 1256.3
v 33.5806 -149.08 1246.21
v 33.1031 -149.976 1245.2
v 35.4976 -148.399 1246.47
v 34.1417 -150.7 1245.51
v 35.8775 -150.099 1245.74
v 36.5761 -149.864 1247.46
v 38.1054 -148.449 1248.04
v 40.5961 -146.878 1252.23
v 37.0647 -150.448 1246.37
v 38.5067 -150.143 1247.25
v 38.4776 -149.026 1248.87
v 37.535 -149.555 1248
v 39.0095 -148.376 1249.59
v 37.8066 -151.571 1247.47
v 39.013 -150.879 1248.37
v 40.0156 -149.67 1249.78
v 39.6064 -150.596 1249.36
v 28.6169 -142.217 1249.51
v 28.8988 -141.802 1250.28
v 28.5056 -143.614 1247.88
v 27.6665 -143.373 1249.01
v 30.1007 -142.635 1249.75
v 29.3555 -142.717 1250.98
v 27.9068 -146.152 1246.88
v 29.8174 -143.515 1248.74
v 28.8986 -146.546 1247.47
v 37.9863 -140.215 1257.51
v 38.7444 -140.685 1257.3
v 37.9887 -140.784 1257.03
v 38.1446 -140.624 1257.52
v 36.952 -140.848 1257.88
v 37.4272 -140.957 1257.42
v 36.618 -141.177 1257.56
v 36.8583 -141.064 1257.84
v 29.8675 -147.984 1245.47
v 30.2585 -148.184 1246.41
v 30.1546 -147.153 1246.65
v 39.5501 -141.574 1256.85
v 39.7382 -141.541 1257
v 39.6273 -142.337 1256.89
v 29.7837 -149.495 1245.42
v 30.4038 -149.068 1246.35
v 31.2867 -149.884 1246.31
v 40.1381 -142.416 1256.78
v 39.5765 -143.516 1256.85
v 39.8 -143.646 1256.95
v 31.413 -149.812 1245.2
v 32.2737 -150.653 1246.48
v 34.0431 -150.425 1246.68
v 35.0405 -150.892 1247.17
v 34.884 -151.615 1246
v 36.6281 -151.668 1248.53
v 37.4975 -151.004 1248.92
v 38.7779 -149.884 1250.32
v 39.2938 -148.725 1251.74
v 38.3395 -152.172 1248.49
v 39.0099 -151.657 1249.09
v 38.191 -151.17 1250.25
v 39.329 -151.834 1250.31
v 39.9442 -150.513 1251.65
v 26.917 -143.19 1250.62
v 27.5877 -142.45 1251.09
v 28.9934 -141.714 1252.69
v 27.8123 -142.198 1252.15
v 27.0507 -144.872 1248.34
v 26.2595 -144.535 1249.71
v 27.801 -144.635 1249.85
v 28.5032 -143.122 1251.65
v 28.2199 -143.556 1250.89
v 29.4543 -142.628 1252.88
v 28.2622 -145.277 1248.71
v 27.3532 -145.885 1249.2
v 27.8359 -147.95 1246.32
v 28.0242 -148.651 1247.27
v 28.6115 -150.001 1245.78
v 29.1164 -148.958 1246.71
v 29.6161 -150.853 1245.62
v 31.2342 -151.432 1245.55
v 40.0847 -145.496 1256.66
v 32.7448 -152.532 1245.98
v 32.085 -152.037 1246.98
v 33.7462 -152.244 1247.37
v 39.2983 -148.23 1254.25
v 40.0557 -147.002 1256.22
v 33.9064 -153.538 1246.6
v 35.1057 -152.592 1248.09
v 38.9599 -150.191 1251.93
v 39.0003 -150.081 1253.24
v 35.535 -153.27 1247.04
v 34.4575 -154.574 1247.37
v 36.9126 -153.878 1248.39
v 35.5803 -153.483 1249.03
v 37.0273 -152.753 1249.92
v 37.7434 -152.369 1250.82
v 38.3459 -151.544 1251.33
v 38.6084 -151.351 1253.23
v 39.5131 -151.746 1253.35
v 39.9329 -150.122 1253.5
v 38.1416 -153.534 1249.71
v 25.9822 -144.231 1250.91
v 25.7073 -144.484 1251.77
v 26.6361 -143.172 1251.96
v 26.7043 -143.134 1253.23
v 28.4172 -143.115 1253.57
v 27.7757 -142.346 1254.18
v 25.6077 -146.17 1249.15
v 26.5929 -146.132 1250.1
v 25.3841 -145.517 1250.38
v 27.039 -144.861 1250.93
v 27.2434 -144.17 1252.39
v 26.1016 -146.566 1248.23
v 26.2849 -147.86 1247.42
v 25.1029 -148.038 1248.67
v 26.399 -147.311 1249.4
v 26.413 -149.684 1246.9
v 27.1827 -147.685 1248.25
v 27.0613 -149.553 1247.77
v 26.3898 -148.569 1248.69
v 27.0746 -150.686 1246.48
v 27.8626 -149.905 1247.2
v 28.006 -151.986 1246.34
v 28.9512 -150.732 1246.86
v 29.2093 -153.046 1246.36
v 30.1061 -151.901 1246.97
v 30.5422 -153.003 1246.15
v 38.8648 -148.935 1257.13
v 39.0002 -148.863 1257.16
v 39.1082 -148.107 1257.16
v 32.2486 -154.839 1247.1
v 32.1278 -154.291 1248.24
v 33.5921 -154.494 1248.75
v 39.7658 -149.118 1256.16
v 39.593 -149.189 1256.81
v 39.3756 -149.014 1257.06
v 35.2366 -155.332 1248.33
v 34.2173 -155.671 1248.12
v 36.2082 -154.252 1250.53
v 37.0237 -153.673 1251.26
v 37.764 -152.934 1252.16
v 38.0301 -152.721 1253.26
v 35.5971 -156.007 1249.3
v 36.7402 -155.513 1250.08
v 38.2992 -153.93 1250.89
v 38.858 -153.371 1252.46
v 38.2143 -154.463 1252.31
v 25.3155 -145.941 1253.39
v 26.1468 -143.908 1253.32
v 27.5254 -143.961 1254.38
v 26.7974 -143.584 1255.6
v 27.1924 -142.967 1255.34
v 25.0092 -146.064 1251
v 26.2161 -146.193 1250.96
v 26.4667 -145.372 1252.14
v 25.8435 -146.787 1251.48
v 26.7361 -145.041 1253.57
v 24.3622 -149.352 1249.22
v 24.4518 -148.256 1249.77
v 25.8488 -147.35 1250.43
v 25.7995 -150.757 1247.37
v 25.0574 -149.644 1248.18
v 25.9477 -150.254 1248.79
v 24.5051 -150.226 1248.76
v 25.5088 -149.393 1249.63
v 26.7701 -151.914 1246.89
v 25.7008 -152.392 1247.75
v 27.3872 -151.292 1247.64
v 26.602 -151.239 1248.2
v 28.4192 -152.458 1247.59
v 27.8305 -153.231 1246.87
v 27.2174 -152.268 1248.07
v 29.8508 -154.58 1246.99
v 29.1967 -155.479 1247.66
v 29.825 -154.017 1248.07
v 30.445 -155.77 1247.66
v 31.0095 -155.192 1248.8
v 31.2193 -156.487 1248.18
v 39.4254 -150.775 1256.24
v 32.2958 -156.681 1248.46
v 33.6248 -155.619 1249.8
v 33.4349 -156.979 1249.07
v 34.9718 -154.978 1250
v 36.2509 -154.729 1251.4
v 35.4419 -155.505 1251.3
v 36.7318 -154.633 1252.8
v 37.281 -154.041 1253.8
v 38.8751 -152.733 1256.19
v 34.8259 -156.466 1249.22
v 35.7566 -156.796 1250.71
v 36.8283 -156.127 1251.68
v 27.6896 -144.974 1257.49
v 27.9731 -142.73 1257.79
v 28.545 -143.592 1257.99
v 28.9624 -142.407 1259.08
v 28.335 -142.868 1259.39
v 30.5051 -141.895 1258.83
v 31.0691 -141.907 1259.46
v 30.1757 -142.43 1259.93
v 29.3491 -142.466 1259.81
v 30.3688 -142.826 1259.98
v 24.1389 -148.433 1251.56
v 25.7049 -147.302 1252.47
v 30.4223 -142.892 1259.19
v 23.8566 -150.666 1249.77
v 23.9056 -149.461 1250.35
v 24.9374 -149.578 1251.16
v 24.8911 -151.351 1248.27
v 23.9307 -151.501 1249.57
v 24.8604 -150.798 1250.41
v 24.6688 -152.522 1248.75
v 25.2463 -153.314 1248.46
v 25.3234 -152.028 1249.7
v 25.7368 -153.021 1249.61
v 26.195 -153.419 1247.78
v 27.3255 -153.638 1248.69
v 26.3959 -153.49 1249.26
v 27.1815 -155.068 1248.14
v 28.2734 -154.39 1248.73
v 28.9574 -156.468 1248.45
v 28.7553 -155.496 1249.41
v 30.1048 -156.701 1248.41
v 30.3092 -155.938 1249.49
v 30.8695 -157.253 1248.88
v 32.0389 -155.869 1249.53
v 38.1671 -151.71 1257.4
v 38.3693 -151.736 1257.45
v 32.3329 -157.52 1249.34
v 32.5245 -156.468 1250.34
v 33.0421 -157.916 1250.12
v 32.7238 -157.028 1251.28
v 34.4491 -156.106 1251.03
v 33.5131 -156.524 1250.91
v 33.7631 -156.879 1251.78
v 35.7139 -155.662 1252.34
v 34.5362 -156.582 1252.18
v 35.996 -155.684 1253.9
v 37.7324 -153.271 1255.47
v 38.8214 -152.115 1257.13
v 38.3318 -152.88 1257.45
v 38.2384 -154.026 1256.92
v 34.752 -157.27 1250.31
v 35.6501 -157.304 1251.86
v 36.6608 -156.641 1253.48
v 37.6428 -155.468 1254.86
v 38.3157 -154.233 1255.57
v 28.0411 -143.237 1259.39
v 28.6084 -143.058 1260.08
v 28.8547 -143.765 1259.88
v 29.0034 -143.678 1260.45
v 28.6276 -143.807 1260.51
v 28.6382 -144.149 1260.56
v 27.8408 -144.218 1259.98
v 28.1032 -144.447 1260.55
v 29.1789 -142.95 1260.24
v 29.3677 -143.078 1260.29
v 29.4313 -143.247 1260.19
v 28.7613 -144.24 1260.39
v 23.4251 -150.944 1251.38
v 23.5171 -151.398 1250.49
v 24.6831 -152.072 1250.77
v 24.9963 -152.794 1250.42
v 23.9192 -153.35 1250.04
v 25.7064 -154.513 1248.71
v 25.9108 -154.369 1250.3
v 25.8727 -155.593 1249.31
v 26.5759 -156.41 1249.52
v 27.1487 -155.322 1250.09
v 28.2502 -157.198 1249.41
v 28.3931 -156.789 1251.08
v 29.4356 -157.216 1249.01
v 29.4701 -158.08 1250.05
v 29.7312 -156.863 1250.66
v 30.681 -157.257 1251.17
v 31.2077 -158.228 1250.12
v 31.8813 -158.834 1251.33
v 32.4998 -157.748 1252.8
v 34.687 -156.921 1254.18
v 33.7676 -157.464 1253.74
v 36.7955 -154.827 1255.97
v 37.0031 -154.754 1257.93
v 37.1845 -155.089 1257.81
v 37.948 -154.309 1257.37
v 37.2363 -154.024 1257.38
v 37.1749 -154.308 1257.83
v 37.3814 -154.318 1257.8
v 33.7577 -158.335 1251.49
v 35.6496 -157.631 1253.59
v 34.6031 -158.361 1253.4
v 36.4334 -156.932 1255.71
v 37.6288 -155.135 1257.11
v 37.0023 -156.163 1256.8
v 27.9261 -147.045 1260.77
v 28.1681 -145.946 1260.36
v 28.171 -145.838 1260.75
v 23.4206 -151.565 1252.96
v 23.2392 -152.344 1251.45
v 23.4145 -152.965 1250.93
v 24.3643 -151.987 1251.99
v 23.2178 -152.056 1252.2
v 24.2821 -152.7 1253.06
v 24.6332 -151.587 1253.69
v 24.3416 -154.408 1250.05
v 25.0928 -153.955 1251.01
v 24.5337 -153.136 1251.53
v 23.7226 -154.274 1250.95
v 24.3196 -153.45 1252.56
v 24.615 -154.328 1252.38
v 25.0623 -155.344 1249.86
v 25.8958 -155.355 1251.21
v 25.5212 -156.331 1250.28
v 26.4516 -156.366 1251.92
v 27.4129 -157.568 1250.28
v 27.9704 -158.35 1251.12
v 29.1424 -157.45 1251.77
v 29.3452 -158.85 1251.39
v 29.7392 -157.866 1252.48
v 30.9832 -158.216 1253.62
v 30.7592 -159.127 1251.82
v 31.3912 -157.779 1252.24
v 31.9115 -159.185 1252.37
v 32.9978 -157.909 1254.4
v 34.2427 -157.34 1255.52
v 35.4229 -156.399 1256.36
v 36.451 -155.265 1258.02
v 36.1696 -155.823 1258.2
v 35.6207 -156.095 1258.24
v 33.3885 -159.01 1253.77
v 35.465 -157.803 1255.64
v 34.2782 -158.588 1255.63
v 35.8396 -157.145 1257.68
v 36.6737 -156.228 1257.69
v 27.5815 -146.915 1260.9
v 23.1402 -153.458 1252.43
v 23.1942 -153.461 1254.02
v 23.528 -152.817 1254.96
v 23.8675 -155.349 1251.62
v 23.4088 -154.774 1252.26
v 23.3073 -155.038 1253.18
v 24.3972 -154.461 1253.64
v 24.4241 -155.887 1251.18
v 25.5624 -155.751 1252.2
v 24.101 -156.142 1252.11
v 24.809 -155.398 1253.37
v 25.3852 -156.299 1253.69
v 25.021 -156.779 1251.4
v 25.9513 -156.488 1252.8
v 26.3661 -157.637 1251.18
v 27.0947 -158.532 1252.16
v 28.2487 -157.698 1252.94
v 27.119 -157.306 1253.09
v 27.8364 -157.889 1254.11
v 28.5468 -159.105 1252.46
v 28.5549 -159.35 1253.5
v 29.411 -158.189 1253.8
v 30.1549 -158.387 1255.02
v 30.0834 -159.461 1253.15
v 31.8916 -158.23 1254.59
v 31.9128 -159.439 1253.87
v 31.3433 -159.552 1254.93
v 32.6845 -158.073 1255.82
v 33.2539 -157.815 1256.76
v 34.4698 -156.937 1258.52
v 34.6816 -156.948 1258.66
v 34.9531 -157.455 1258.41
v 34.4581 -157.952 1258.42
v 32.9344 -159.212 1255.17
v 34.8271 -157.869 1257.99
v 23.4042 -154.186 1255.63
v 26.9735 -150.303 1261.02
v 26.7261 -150.585 1261.18
v 26.7157 -151.297 1261.18
v 23.6244 -155.858 1253.09
v 23.2523 -154.668 1254.7
v 23.4405 -155.694 1254.23
v 24.5255 -154.304 1255.89
v 24.613 -155.227 1255.79
v 24.1252 -156.909 1253.74
v 24.8457 -155.793 1254.6
v 23.8869 -156.677 1254.62
v 25.8318 -158.179 1252.97
v 24.7957 -157.462 1253.12
v 26.4555 -157.312 1254.39
v 24.9672 -157.893 1254.46
v 26.9364 -157.713 1255.89
v 25.7175 -156.925 1255.86
v 27.2045 -158.898 1253.14
v 26.3283 -158.72 1254.12
v 28.2125 -158.145 1255.44
v 29.0194 -158.251 1257.13
v 27.646 -159.252 1254.53
v 29.5106 -159.581 1254.98
v 30.754 -158.358 1256.61
v 30.0889 -159.546 1256.39
v 31.7794 -159.344 1257
v 32.0175 -158.129 1257.56
v 33.2766 -158.769 1257.83
v 33.2444 -158.626 1258.54
v 32.5466 -158.892 1258.54
v 32.6311 -158.648 1259.03
v 33.306 -157.742 1259.07
v 32.9826 -157.649 1258.9
v 26.0238 -150.677 1261.1
v 26.5763 -151.455 1260.85
v 26.5363 -151.773 1261.19
v 26.378 -151.629 1261.28
v 23.6612 -156.049 1255.72
v 24.9569 -155.472 1257.55
v 24.3511 -157.345 1254.71
v 24.2553 -157.156 1255.87
v 25.1704 -156.211 1256.81
v 25.8606 -156.861 1257.85
v 26.4833 -157.379 1257.74
v 27.5043 -157.769 1258.5
v 26.387 -158.831 1256.13
v 27.1875 -159.11 1256.76
v 29.9377 -158.006 1259.84
v 28.6325 -159.464 1256.02
v 30.0017 -159.171 1259.1
v 31.2909 -158.023 1259.31
v 31.2152 -158.11 1259.71
v 30.6789 -159.059 1259.39
v 30.8042 -158.965 1259.56
v 30.6973 -158.758 1259.77
v 30.0587 -158.128 1260.06
v 30.2372 -158.979 1259.7
v 31.235 -159.258 1258.23
v 32.1697 -158.532 1259.34
v 31.7062 -158.979 1259.06
v 31.5603 -158.832 1259.41
v 25.2543 -153.453 1261.32
v 24.9799 -153.341 1260.62
v 25.5027 -153.558 1261.45
v 24.1431 -155.415 1258.83
v 24.5163 -154.752 1260.13
v 24.6104 -155.727 1260.31
v 24.6205 -156.225 1259.92
v 25.0237 -155.475 1261.18
v 25.9393 -153.903 1261.37
v 25.0005 -154.46 1261.21
v 25.2197 -154.617 1261.42
v 25.7869 -155.133 1261.27
v 25.7064 -155.234 1261.42
v 25.6704 -155.633 1261.41
v 24.1788 -156.478 1257.75
v 24.8214 -157.156 1258.89
v 26.031 -156.008 1261.32
v 25.1997 -157.936 1257.42
v 26.0437 -158.3 1258.79
v 26.8687 -158.443 1259.87
v 27.8291 -157.543 1260.74
v 26.8874 -157.004 1260.82
v 27.0071 -157.244 1261
v 27.1121 -158.859 1258.55
v 28.373 -159.154 1258.53
v 27.9623 -158.691 1260.21
v 27.7105 -158.248 1260.64
v 29.1345 -157.898 1260.19
v 29.045 -157.961 1260.37
v 29.4053 -158.992 1259.77
v 29.4413 -158.87 1260.01
v 25.0196 -156.069 1260.95
v 25.3721 -155.783 1261.37
v 25.046 -156.569 1260.58
v 25.4581 -157.474 1259.97
v 25.8317 -156.96 1261.1
v 26.7048 -158.003 1260.63
v 39.065 -140.807 1257.1
v 39.065 -140.807 1257.1
v 39.065 -140.807 1257.1
v 39.3842 -140.794 1257.12
v 39.3842 -140.794 1257.12
v 38.7444 -140.685 1257.3
v 38.7444 -140.685 1257.3
v 38.1446 -140.624 1257.52
v 36.952 -140.848 1257.88
v 37.4272 -140.957 1257.42
v 36.8583 -141.064 1257.84
v 39.5501 -141.574 1256.85
v 39.5501 -141.574 1256.85
v 39.7382 -141.541 1257
v 39.7382 -141.541 1257
v 39.7382 -141.541 1257
v 39.6273 -142.337 1256.89
v 39.5765 -143.516 1256.85
v 39.8 -143.646 1256.95
v 38.8648 -148.935 1257.13
v 39.1082 -148.107 1257.16
v 39.1082 -148.107 1257.16
v 30.3688 -142.826 1259.98
v 30.3688 -142.826 1259.98
v 38.1671 -151.71 1257.4
v 29.0034 -143.678 1260.45
v 29.0034 -143.678 1260.45
v 29.0034 -143.678 1260.45
v 28.6382 -144.149 1260.56
v 29.3677 -143.078 1260.29
v 29.4313 -143.247 1260.19
v 28.7613 -144.24 1260.39
v 37.0031 -154.754 1257.93
v 37.0031 -154.754 1257.93
v 37.1749 -154.308 1257.83
v 27.9261 -147.045 1260.77
v 28.171 -145.838 1260.75
v 28.171 -145.838 1260.75
v 36.451 -155.265 1258.02
v 36.451 -155.265 1258.02
v 36.1696 -155.823 1258.2
v 35.6207 -156.095 1258.24
v 35.6207 -156.095 1258.24
v 34.4698 -156.937 1258.52
v 34.6816 -156.948 1258.66
v 26.9735 -150.303 1261.02
v 26.7157 -151.297 1261.18
v 33.306 -157.742 1259.07
v 26.0238 -150.677 1261.1
v 26.0238 -150.677 1261.1
v 26.5363 -151.773 1261.19
v 31.2152 -158.11 1259.71
v 30.0587 -158.128 1260.06
v 25.9393 -153.903 1261.37
v 25.9393 -153.903 1261.37
v 25.9393 -153.903 1261.37
v 25.7869 -155.133 1261.27
v 25.7064 -155.234 1261.42
v 26.031 -156.008 1261.32
v 26.031 -156.008 1261.32
v 27.8291 -157.543 1260.74
v 27.8291 -157.543 1260.74
v 27.8291 -157.543 1260.74
v 26.8874 -157.004 1260.82
v 27.0071 -157.244 1261
v 27.0071 -157.244 1261
v 29.1345 -157.898 1260.19
v 29.045 -157.961 1260.37
v 25.3721 -155.783 1261.37
v 25.8317 -156.96 1261.1
f 15 11 5
f 3 2 5
f 3 5 11
f 3 11 12
f 3 42 2
f 2 42 43
f 1 2 43
f 15 14 11
f 15 5 4
f 1 6 4
f 4 5 2
f 2 1 4
f 19 15 4
f 6 7 4
f 7 19 4
f 6 8 7
f 45 8 6
f 7 8 56
f 7 56 23
f 7 23 21
f 12 9 3
f 13 9 12
f 81 57 9
f 9 13 81
f 81 13 25
f 9 47 3
f 57 47 9
f 10 12 11
f 10 28 13
f 12 10 13
f 17 14 15
f 11 14 10
f 10 14 28
f 27 28 14
f 62 20 64
f 62 16 20
f 20 16 34
f 17 15 19
f 19 18 17
f 18 30 17
f 17 30 14
f 65 20 66
f 20 34 66
f 66 34 69
f 7 21 19
f 18 35 31
f 18 22 35
f 19 21 22
f 18 19 22
f 24 38 22
f 23 22 21
f 75 38 24
f 22 23 24
f 26 25 13
f 13 28 26
f 26 28 29
f 27 14 30
f 28 27 29
f 27 32 29
f 29 32 40
f 26 29 39
f 29 40 39
f 27 30 32
f 30 18 31
f 30 31 32
f 32 31 33
f 36 33 31
f 35 36 31
f 22 38 35
f 36 41 33
f 36 37 41
f 35 37 36
f 37 35 38
f 38 75 90
f 90 92 38
f 39 96 26
f 39 103 96
f 40 32 33
f 106 40 33
f 40 106 103
f 103 39 40
f 103 106 104
f 41 106 33
f 41 37 98
f 48 42 3
f 43 42 108
f 43 44 1
f 6 1 44
f 45 6 44
f 47 46 48
f 46 47 57
f 109 42 48
f 46 57 120
f 109 46 116
f 48 46 109
f 116 46 120
f 47 48 3
f 49 58 50
f 51 50 63
f 113 50 51
f 49 50 113
f 49 113 111
f 63 64 51
f 64 53 51
f 51 53 52
f 113 51 52
f 115 113 52
f 53 64 67
f 53 67 54
f 54 55 53
f 55 52 53
f 55 115 52
f 45 56 8
f 54 73 55
f 79 23 56
f 56 118 79
f 45 118 56
f 55 73 123
f 118 119 79
f 57 80 120
f 128 120 80
f 59 58 122
f 61 58 59
f 122 49 117
f 122 58 49
f 50 60 63
f 63 60 62
f 60 61 85
f 61 82 85
f 60 50 58
f 58 61 60
f 60 85 62
f 62 85 16
f 62 64 63
f 64 65 67
f 67 65 70
f 65 64 20
f 65 68 70
f 65 66 68
f 68 66 69
f 54 67 70
f 68 69 71
f 70 68 72
f 70 73 54
f 73 70 72
f 72 68 71
f 73 72 76
f 72 71 74
f 74 76 72
f 71 91 74
f 78 23 79
f 24 23 78
f 78 75 24
f 126 75 78
f 90 75 126
f 124 74 77
f 76 74 124
f 74 91 77
f 73 76 123
f 93 77 91
f 78 79 127
f 127 126 78
f 57 81 80
f 80 25 94
f 81 25 80
f 59 82 61
f 85 83 86
f 85 82 83
f 83 82 136
f 85 84 16
f 84 87 16
f 84 86 87
f 86 84 85
f 97 87 86
f 87 97 88
f 34 88 69
f 69 88 89
f 71 69 89
f 16 87 34
f 89 88 99
f 34 87 88
f 99 88 97
f 91 89 93
f 91 71 89
f 89 99 93
f 92 37 38
f 92 98 37
f 90 132 92
f 132 100 92
f 98 92 100
f 132 90 126
f 133 80 94
f 134 133 94
f 25 26 95
f 25 95 94
f 96 95 26
f 96 142 95
f 95 142 94
f 86 83 137
f 97 86 145
f 137 145 86
f 145 138 97
f 138 99 97
f 99 138 139
f 98 100 149
f 101 142 96
f 101 150 142
f 96 103 101
f 103 104 102
f 101 103 102
f 150 101 102
f 105 104 106
f 107 106 41
f 41 98 107
f 106 107 105
f 107 155 105
f 107 98 149
f 107 149 155
f 149 181 155
f 102 104 152
f 152 104 105
f 108 110 157
f 108 157 158
f 158 44 108
f 43 108 44
f 45 44 158
f 110 42 109
f 159 109 116
f 110 109 159
f 108 42 110
f 113 114 111
f 112 111 161
f 111 114 161
f 198 112 161
f 113 115 114
f 114 115 162
f 161 114 195
f 114 162 195
f 55 162 115
f 159 116 197
f 210 122 117
f 111 112 117
f 49 111 117
f 79 119 127
f 45 165 118
f 119 118 165
f 55 123 201
f 119 163 127
f 163 166 127
f 133 128 80
f 59 122 121
f 210 121 122
f 76 124 123
f 93 125 77
f 77 125 124
f 124 125 169
f 166 126 127
f 220 128 133
f 82 59 129
f 59 121 129
f 129 121 171
f 82 129 136
f 99 139 130
f 99 130 93
f 93 130 131
f 131 130 140
f 131 125 93
f 140 213 131
f 132 172 100
f 100 172 141
f 211 125 131
f 94 142 134
f 129 135 136
f 176 136 135
f 137 83 136
f 148 139 138
f 139 140 130
f 149 100 141
f 182 142 150
f 182 150 183
f 143 137 136
f 136 176 143
f 137 144 145
f 145 144 147
f 144 137 143
f 180 144 143
f 147 144 180
f 180 143 185
f 138 145 146
f 138 146 148
f 146 145 147
f 148 140 139
f 233 155 181
f 141 181 149
f 178 134 142
f 151 150 102
f 151 102 152
f 151 183 150
f 188 183 151
f 151 154 188
f 105 153 152
f 152 153 154
f 152 154 151
f 153 189 154
f 188 154 190
f 154 189 190
f 105 155 153
f 155 189 153
f 156 191 157
f 110 156 157
f 197 193 159
f 160 199 117
f 110 159 193
f 244 160 198
f 244 199 160
f 160 112 198
f 160 117 112
f 195 198 161
f 199 210 117
f 201 202 55
f 165 164 119
f 119 164 163
f 163 164 166
f 168 166 164
f 164 165 200
f 200 170 164
f 170 168 164
f 639 642 644
f 208 120 128
f 214 208 128
f 116 120 208
f 121 210 209
f 171 121 209
f 123 124 201
f 125 211 169
f 201 124 169
f 167 126 166
f 167 132 126
f 168 167 166
f 167 173 132
f 640 650 212
f 168 217 167
f 217 173 167
f 170 652 168
f 652 217 168
f 128 220 214
f 215 216 171
f 209 215 171
f 131 213 211
f 141 172 257
f 132 173 172
f 252 172 173
f 252 257 172
f 220 133 175
f 216 174 171
f 133 134 175
f 171 135 129
f 171 174 135
f 174 176 135
f 222 176 174
f 256 301 140
f 175 134 177
f 177 178 224
f 176 179 143
f 134 178 177
f 223 176 222
f 143 179 185
f 148 228 140
f 228 256 140
f 182 178 142
f 182 183 187
f 225 226 185
f 180 184 147
f 227 186 184
f 185 184 180
f 184 185 226
f 147 186 146
f 146 186 148
f 184 186 147
f 186 228 148
f 186 227 228
f 155 233 189
f 229 187 188
f 183 188 187
f 191 192 157
f 157 192 158
f 192 191 235
f 45 158 236
f 368 45 236
f 238 193 197
f 191 156 194
f 156 110 193
f 194 156 193
f 194 193 238
f 195 242 198
f 242 195 196
f 195 162 196
f 55 243 162
f 243 196 162
f 246 116 208
f 246 197 116
f 200 645 170
f 203 202 201
f 646 645 200
f 206 55 205
f 205 55 202
f 203 205 202
f 207 204 372
f 200 204 646
f 207 648 204
f 649 206 205
f 203 647 205
f 200 372 204
f 206 649 661
f 249 215 209
f 210 249 209
f 247 210 199
f 641 653 643
f 651 655 654
f 655 219 654
f 220 250 214
f 652 657 217
f 140 218 213
f 655 656 219
f 307 217 657
f 252 173 217
f 307 252 217
f 140 301 218
f 219 656 659
f 660 307 657
f 175 251 220
f 216 221 174
f 216 297 221
f 175 177 253
f 253 177 224
f 222 255 223
f 174 221 222
f 223 179 176
f 141 257 181
f 253 224 258
f 182 262 224
f 258 224 262
f 224 178 182
f 223 259 179
f 179 225 185
f 259 225 179
f 225 266 226
f 184 231 227
f 226 231 184
f 226 266 231
f 228 227 260
f 228 260 261
f 228 261 256
f 305 181 257
f 187 262 182
f 264 262 187
f 264 187 229
f 272 229 230
f 264 229 272
f 230 188 190
f 230 229 188
f 190 232 230
f 267 231 266
f 230 232 272
f 272 232 316
f 232 317 316
f 190 189 232
f 232 189 233
f 317 232 233
f 233 181 271
f 191 194 234
f 234 194 239
f 235 237 192
f 234 235 191
f 235 275 237
f 235 234 275
f 276 237 275
f 273 275 234
f 158 192 236
f 236 192 237
f 238 197 284
f 239 194 238
f 279 239 238
f 282 240 242
f 240 244 198
f 240 198 242
f 245 244 240
f 240 280 245
f 241 242 196
f 283 242 241
f 282 242 283
f 243 241 196
f 284 197 285
f 245 289 244
f 375 55 206
f 661 375 206
f 197 246 285
f 285 246 288
f 247 249 210
f 199 289 247
f 199 244 289
f 290 247 289
f 248 246 208
f 248 208 214
f 247 293 249
f 295 249 293
f 295 215 249
f 248 214 250
f 215 295 216
f 297 216 295
f 251 250 220
f 298 251 253
f 254 297 346
f 297 254 221
f 175 253 251
f 221 254 222
f 222 254 255
f 254 303 255
f 303 254 346
f 261 299 256
f 253 258 302
f 258 263 302
f 304 255 303
f 225 259 265
f 255 259 223
f 304 259 255
f 259 304 265
f 260 269 261
f 305 271 181
f 258 262 263
f 262 264 308
f 262 308 263
f 265 266 225
f 231 267 268
f 267 266 311
f 268 227 231
f 227 268 260
f 317 233 270
f 260 268 269
f 267 312 268
f 233 271 270
f 264 272 315
f 239 273 234
f 273 239 281
f 275 273 274
f 281 274 273
f 275 320 276
f 274 320 275
f 237 278 236
f 241 243 277
f 237 276 278
f 241 277 283
f 283 277 321
f 321 277 365
f 366 236 278
f 366 368 236
f 277 243 428
f 286 279 284
f 330 279 286
f 279 238 284
f 279 281 239
f 331 280 325
f 324 274 281
f 279 330 281
f 282 280 240
f 325 280 282
f 325 282 326
f 326 282 283
f 165 45 368
f 333 286 285
f 286 284 285
f 291 289 287
f 336 291 287
f 245 287 289
f 245 280 287
f 280 331 287
f 331 336 287
f 333 285 288
f 292 288 246
f 288 292 332
f 332 333 288
f 291 290 289
f 292 246 248
f 293 339 295
f 340 293 290
f 340 339 293
f 290 293 247
f 294 248 250
f 292 248 294
f 295 341 297
f 341 295 339
f 294 337 292
f 250 296 294
f 250 251 298
f 298 296 250
f 342 294 296
f 341 346 297
f 253 302 298
f 298 302 344
f 347 344 302
f 301 256 299
f 658 300 660
f 660 300 307
f 658 398 300
f 398 307 300
f 306 257 252
f 305 257 306
f 307 306 252
f 305 350 271
f 271 350 270
f 309 302 263
f 351 302 309
f 308 309 263
f 360 309 308
f 304 354 265
f 304 352 354
f 310 311 266
f 265 310 266
f 310 265 354
f 355 311 310
f 311 312 267
f 268 313 269
f 312 313 268
f 264 314 308
f 315 314 264
f 272 316 315
f 316 317 318
f 362 315 316
f 319 320 274
f 324 319 274
f 319 324 373
f 320 322 276
f 320 319 322
f 321 365 363
f 328 283 321
f 328 321 363
f 365 277 428
f 276 323 278
f 322 323 276
f 323 364 278
f 278 364 366
f 324 281 330
f 324 330 373
f 325 327 331
f 327 378 331
f 327 374 378
f 325 326 327
f 327 326 374
f 326 283 328
f 326 328 374
f 374 328 363
f 55 375 243
f 428 243 375
f 165 369 200
f 369 165 368
f 286 329 330
f 329 286 333
f 335 329 333
f 336 331 378
f 378 381 336
f 379 333 332
f 334 340 290
f 333 379 335
f 336 381 334
f 334 290 291
f 336 334 291
f 332 292 337
f 338 332 337
f 379 332 338
f 343 341 339
f 340 343 339
f 388 343 340
f 342 337 294
f 337 342 386
f 386 338 337
f 343 387 341
f 388 387 343
f 387 390 341
f 390 346 341
f 386 342 389
f 296 344 342
f 344 345 342
f 344 296 298
f 344 347 345
f 347 349 393
f 348 303 346
f 347 302 349
f 303 348 396
f 304 303 396
f 299 261 397
f 269 397 261
f 306 350 305
f 350 306 410
f 306 307 410
f 411 307 398
f 411 410 307
f 309 353 351
f 349 302 351
f 399 351 353
f 309 360 353
f 396 352 304
f 396 400 352
f 352 403 354
f 356 355 310
f 356 310 354
f 403 356 354
f 356 406 355
f 355 357 311
f 311 357 312
f 312 357 358
f 355 406 357
f 406 408 357
f 357 408 358
f 312 358 313
f 358 409 313
f 313 409 269
f 358 451 409
f 270 359 417
f 359 270 350
f 359 350 410
f 308 314 360
f 361 315 362
f 361 314 315
f 360 314 413
f 413 314 361
f 362 414 361
f 316 318 362
f 417 317 270
f 416 317 417
f 323 322 364
f 364 322 418
f 322 424 418
f 322 319 424
f 365 420 363
f 366 364 367
f 364 418 367
f 371 368 366
f 418 419 367
f 367 419 366
f 419 371 366
f 426 371 419
f 420 365 428
f 368 371 369
f 369 371 370
f 369 370 200
f 371 426 370
f 370 372 200
f 426 427 370
f 372 370 427
f 668 669 662
f 661 428 375
f 319 373 467
f 376 329 335
f 376 377 329
f 330 329 377
f 330 377 373
f 374 473 378
f 374 363 473
f 379 382 380
f 379 380 335
f 334 384 340
f 376 335 380
f 384 334 381
f 470 381 378
f 338 382 379
f 383 382 338
f 385 388 340
f 384 385 340
f 385 436 388
f 385 384 433
f 383 338 386
f 435 386 389
f 435 383 386
f 474 383 435
f 439 387 388
f 439 390 387
f 439 388 436
f 389 342 345
f 389 345 391
f 391 345 393
f 345 347 393
f 392 346 390
f 346 392 394
f 445 394 444
f 442 391 393
f 393 395 442
f 346 394 348
f 394 396 348
f 349 395 393
f 394 445 396
f 445 400 396
f 658 663 398
f 349 351 395
f 351 399 395
f 395 446 443
f 402 404 400
f 356 403 407
f 352 400 404
f 404 403 352
f 405 407 403
f 404 405 403
f 404 402 405
f 450 407 405
f 407 406 356
f 450 449 407
f 407 449 406
f 408 406 449
f 408 451 358
f 397 269 409
f 451 455 409
f 409 455 397
f 359 412 417
f 417 412 462
f 462 412 454
f 359 410 412
f 411 454 410
f 454 412 410
f 413 353 360
f 401 399 353
f 401 353 413
f 458 401 413
f 413 361 414
f 458 413 414
f 414 362 415
f 415 362 318
f 318 317 416
f 318 416 415
f 417 462 416
f 363 420 429
f 424 419 418
f 668 421 669
f 419 422 426
f 426 422 427
f 429 420 664
f 420 428 664
f 422 423 665
f 427 422 665
f 667 670 666
f 425 422 419
f 425 419 424
f 422 425 504
f 422 504 423
f 319 574 424
f 687 504 425
f 574 425 424
f 431 377 376
f 380 431 376
f 430 377 431
f 377 430 373
f 373 430 467
f 378 473 470
f 467 507 319
f 432 384 381
f 431 380 469
f 381 470 432
f 430 431 468
f 468 431 469
f 434 469 380
f 382 383 474
f 434 382 474
f 474 477 434
f 384 432 433
f 380 382 434
f 433 432 476
f 475 385 433
f 435 389 437
f 480 474 435
f 480 435 437
f 475 436 385
f 481 439 436
f 437 389 438
f 438 482 437
f 392 390 439
f 440 391 442
f 389 391 440
f 440 442 443
f 438 389 440
f 392 441 444
f 444 394 392
f 439 441 392
f 444 441 486
f 442 395 443
f 487 443 446
f 486 445 444
f 402 445 491
f 446 395 399
f 401 446 399
f 401 447 446
f 447 490 446
f 402 400 445
f 458 447 401
f 448 402 491
f 402 448 405
f 448 450 405
f 495 496 451
f 451 496 455
f 455 496 456
f 677 452 673
f 457 411 398
f 453 454 411
f 456 397 455
f 663 673 398
f 398 673 457
f 457 453 411
f 673 452 457
f 457 452 453
f 492 447 458
f 492 458 499
f 414 460 458
f 460 499 458
f 459 460 414
f 460 459 500
f 461 500 459
f 460 500 501
f 459 414 415
f 459 415 461
f 415 416 461
f 461 416 463
f 461 463 502
f 416 462 463
f 453 462 454
f 453 503 462
f 462 503 463
f 503 502 463
f 363 429 465
f 466 464 465
f 465 464 363
f 675 670 667
f 429 466 465
f 423 504 676
f 430 471 467
f 468 471 430
f 477 469 434
f 468 505 471
f 468 469 505
f 471 505 506
f 509 469 477
f 432 470 476
f 472 470 473
f 470 478 476
f 472 478 470
f 478 472 511
f 473 547 472
f 471 506 467
f 472 547 511
f 473 363 610
f 547 473 610
f 475 433 476
f 479 476 478
f 475 476 479
f 477 474 508
f 508 474 512
f 508 509 477
f 437 482 480
f 512 474 480
f 512 480 482
f 481 483 439
f 481 436 475
f 475 479 513
f 513 481 475
f 481 513 483
f 513 518 483
f 519 482 438
f 441 439 483
f 517 482 519
f 512 482 517
f 517 519 552
f 438 440 484
f 440 443 485
f 440 485 484
f 484 519 438
f 485 519 484
f 519 485 520
f 521 486 441
f 487 485 443
f 524 485 487
f 487 446 490
f 488 486 521
f 488 445 486
f 445 488 491
f 489 448 491
f 489 491 488
f 526 488 521
f 526 489 488
f 489 529 448
f 490 528 487
f 528 490 492
f 492 490 447
f 450 448 493
f 529 493 448
f 450 494 449
f 493 494 450
f 493 532 494
f 449 495 408
f 494 495 449
f 495 494 534
f 533 534 494
f 408 495 451
f 495 498 496
f 495 534 498
f 680 497 671
f 678 681 672
f 679 453 452
f 453 536 503
f 679 536 453
f 680 682 497
f 497 682 535
f 683 536 679
f 492 499 530
f 530 499 538
f 499 460 501
f 499 501 538
f 501 500 539
f 500 461 502
f 502 539 500
f 536 502 503
f 674 676 504
f 505 545 506
f 509 505 469
f 505 510 545
f 506 507 467
f 509 510 505
f 544 509 508
f 544 510 509
f 510 546 545
f 511 479 478
f 514 508 512
f 512 517 514
f 514 544 508
f 549 544 514
f 549 514 553
f 515 513 479
f 515 479 511
f 513 515 516
f 513 516 518
f 514 517 553
f 553 517 552
f 518 522 483
f 441 483 522
f 522 518 554
f 518 516 554
f 523 522 554
f 520 552 519
f 441 522 521
f 559 552 558
f 552 520 558
f 522 523 521
f 485 524 520
f 524 558 520
f 528 524 487
f 524 528 525
f 524 525 558
f 563 525 528
f 521 523 526
f 526 523 560
f 560 527 526
f 489 526 527
f 527 529 489
f 564 527 561
f 532 493 529
f 530 528 492
f 564 529 527
f 530 531 528
f 531 530 538
f 538 566 531
f 529 564 532
f 532 564 567
f 532 567 533
f 568 566 538
f 494 532 533
f 501 539 568
f 568 539 569
f 536 539 502
f 573 535 682
f 536 537 539
f 534 533 573
f 573 572 535
f 683 686 536
f 569 539 537
f 501 568 538
f 674 504 542
f 687 542 504
f 506 545 540
f 506 540 507
f 363 575 610
f 363 464 541
f 684 674 542
f 363 541 543
f 542 685 684
f 575 363 543
f 544 546 510
f 550 511 548
f 545 605 540
f 605 545 578
f 544 551 546
f 545 546 578
f 511 547 548
f 579 548 547
f 544 549 551
f 549 553 555
f 549 580 551
f 515 511 550
f 515 550 516
f 557 554 516
f 557 516 550
f 550 548 582
f 557 550 582
f 549 555 580
f 555 553 552
f 556 523 554
f 557 556 554
f 557 584 556
f 558 562 559
f 525 562 558
f 555 552 559
f 559 562 586
f 559 586 555
f 556 560 523
f 560 585 561
f 586 562 587
f 562 525 563
f 589 562 563
f 587 562 589
f 560 561 527
f 567 564 591
f 561 588 564
f 591 564 588
f 567 591 573
f 563 528 531
f 565 563 531
f 566 565 531
f 598 565 566
f 568 570 566
f 570 598 566
f 573 533 567
f 569 537 571
f 569 570 568
f 571 570 569
f 571 600 570
f 599 536 686
f 573 592 572
f 686 690 599
f 571 537 536
f 571 536 599
f 319 507 603
f 319 603 574
f 577 685 542
f 685 577 576
f 543 689 575
f 542 687 577
f 577 692 576
f 610 575 689
f 687 693 577
f 693 687 604
f 546 551 578
f 605 578 616
f 610 613 547
f 547 613 579
f 581 551 580
f 555 581 580
f 551 581 578
f 619 581 555
f 579 582 548
f 582 583 557
f 578 581 616
f 582 618 583
f 618 623 583
f 618 582 579
f 584 585 556
f 557 583 584
f 619 555 586
f 584 583 623
f 560 556 585
f 587 626 625
f 587 625 586
f 585 629 561
f 561 629 588
f 705 630 588
f 588 630 596
f 587 589 626
f 563 565 589
f 626 589 565
f 565 590 626
f 598 590 565
f 593 590 598
f 591 592 573
f 690 595 599
f 592 591 588
f 601 594 600
f 595 601 599
f 601 595 594
f 596 592 588
f 691 595 690
f 593 597 590
f 594 597 593
f 691 628 595
f 594 595 597
f 601 600 571
f 599 601 571
f 570 600 598
f 600 593 598
f 600 594 593
f 507 606 603
f 603 602 574
f 604 688 602
f 603 611 602
f 605 616 608
f 540 606 507
f 579 613 618
f 603 606 611
f 605 606 540
f 611 606 609
f 605 607 606
f 607 605 608
f 609 606 607
f 607 608 633
f 609 634 612
f 633 608 635
f 611 612 602
f 612 604 602
f 612 611 609
f 614 693 604
f 614 604 612
f 696 695 694
f 697 695 696
f 614 615 698
f 707 614 612
f 614 707 615
f 581 617 616
f 581 619 617
f 617 619 636
f 616 617 608
f 608 617 635
f 636 635 617
f 637 615 707
f 615 637 698
f 637 624 698
f 584 623 585
f 636 619 620
f 619 586 620
f 636 620 621
f 623 622 585
f 623 618 703
f 704 699 702
f 624 628 700
f 625 626 627
f 586 625 620
f 625 627 621
f 620 625 621
f 585 622 629
f 631 632 627
f 627 626 631
f 632 628 627
f 638 621 627
f 638 627 628
f 705 701 630
f 706 628 691
f 700 628 706
f 590 631 626
f 632 597 595
f 632 595 628
f 597 631 590
f 597 632 631
f 609 607 633
f 634 609 633
f 633 635 708
f 708 634 633
f 708 635 636
f 636 638 708
f 628 624 637
f 636 621 638
f 637 638 628
