o FMA7249_BP9033_FJ2434
v 18.3246 -137.337 1249.77
v 19.7503 -136.351 1250.63
v 18.651 -135.867 1251.12
v 20.2634 -135.411 1251.89
v 19.5278 -135.217 1252.01
v 20.9754 -134.906 1253.02
v 19.9676 -134.726 1252.91
v 21.529 -134.356 1254.56
v 18.5744 -139.239 1248.68
v 21.1916 -137.292 1250.23
v 20.2917 -137.369 1249.84
v 20.9854 -136.411 1250.96
v 21.2299 -135.634 1252.07
v 22.084 -135.136 1253.79
v 22.7306 -135.955 1253.61
v 19.8413 -138.478 1249.09
v 21.939 -138.345 1249.91
v 20.9054 -138.482 1249.35
v 20.9021 -138.19 1251.02
v 22.3696 -137.619 1250.79
v 22.1094 -136.747 1251.44
v 22.806 -137.187 1251.84
v 19.8992 -140.625 1248.36
v 21.0979 -140.52 1248.7
v 22.3398 -139.54 1249.61
v 22.7395 -138.549 1250.42
v 23.1252 -138.289 1251.1
v 23.2976 -139.226 1250.64
v 22.0394 -139.276 1251.07
v 23.6094 -138.494 1251.84
v 21.8546 -141.45 1248.89
v 23.0035 -140.412 1249.84
v 23.746 -140.711 1250.55
v 24.3426 -140.106 1251.92
v 16.1015 -137.002 1250.84
v 17.4001 -135.915 1251.4
v 19.1457 -134.664 1252.97
v 18.3846 -135.179 1252.17
v 18.3705 -134.333 1253.98
v 20.5959 -134.166 1254.22
v 20.6883 -133.716 1255.39
v 19.7147 -133.966 1254.52
v 19.8197 -133.499 1255.9
v 21.4199 -133.561 1256.44
v 16.5208 -138.068 1249.73
v 17.4395 -136.611 1250.59
v 19.0969 -136.941 1251.7
v 18.1301 -137.216 1251.52
v 19.7398 -136.476 1252.37
v 18.6649 -136.347 1252.58
v 20.1084 -135.783 1253.65
v 20.3947 -135.007 1255.41
v 21.4814 -135.209 1255.86
v 22.4895 -133.898 1257.27
v 23.1131 -134.563 1257.41
v 17.4386 -138.522 1249.15
v 17.5523 -139.448 1248.69
v 16.6364 -139.214 1249.04
v 19.1792 -138.803 1250.14
v 18.0517 -138.187 1250.63
v 18.2392 -139.521 1249.79
v 19.7909 -138.28 1250.55
v 18.8388 -137.829 1250.81
v 20.3159 -137.343 1251.52
v 21.4894 -137.091 1252.57
v 20.9171 -136.17 1253.41
v 22.1035 -136.385 1254.65
v 18.2576 -140.594 1248.26
v 18.2124 -140.839 1249.31
v 20.2752 -139.914 1249.83
v 19.3214 -140.321 1249.48
v 20.8157 -139.147 1250.37
v 22.2211 -138.216 1252.14
v 23.0101 -138.376 1253.67
v 23.857 -137.188 1254.67
v 18.8282 -142.717 1248.07
v 19.3304 -141.191 1249.29
v 20.0256 -142.22 1249.34
v 20.0988 -140.999 1249.46
v 20.9587 -141.415 1249.75
v 21.4213 -140.455 1250.15
v 22.1798 -140.232 1250.75
v 22.9992 -140.001 1251.86
v 20.3354 -142.6 1248.26
v 22.4196 -141.518 1250.65
v 24.813 -139.782 1253.61
v 24.0432 -140.425 1253.77
v 23.0869 -144.073 1249.51
v 23.4242 -142.172 1249.9
v 24.079 -142.34 1250.61
v 23.2197 -142.413 1251.38
v 24.4533 -141.385 1251.43
v 25.3983 -141.598 1253.43
v 23.9009 -144.415 1250.33
v 24.5951 -143.255 1251.28
v 15.2814 -136.518 1252.06
v 16.5972 -135.41 1252.73
v 15.58 -135.874 1252.83
v 16.7995 -134.665 1254.6
v 18.4144 -133.683 1256.24
v 19.6425 -133.148 1257.57
v 20.0707 -132.91 1259.39
v 15.5433 -138.114 1250.2
v 14.8868 -137.54 1251.21
v 16.2375 -137.371 1252.36
v 15.6054 -138.1 1252.02
v 16.2179 -135.95 1252.05
v 17.2749 -136.871 1252.31
v 17.2193 -136.273 1253.44
v 18.7222 -135.566 1254.13
v 18.1311 -135.411 1254.94
v 18.9857 -134.897 1255.95
v 19.9652 -134.502 1256.94
v 20.4221 -134.163 1258.49
v 20.9661 -133.094 1257.76
v 22.1635 -133.249 1258.6
v 21.4878 -132.921 1259.31
v 22.584 -133.206 1260.45
v 21.4562 -132.88 1260.44
v 15.6648 -139.035 1249.52
v 15.9793 -138.821 1251.02
v 16.7068 -137.723 1251.59
v 20.8342 -134.618 1256.71
v 23.0143 -133.706 1259.31
v 21.9786 -134.158 1259.75
v 15.342 -140.365 1249.1
v 16.8621 -139.435 1250.16
v 16.5125 -140.515 1249.79
v 23.1303 -136.022 1258.45
v 16.9261 -141.212 1248.35
v 17.214 -141.238 1249.37
v 16.143 -141.918 1249.56
v 18.2683 -141.831 1249.17
v 24.2184 -136.555 1257.31
v 16.6115 -143.546 1248.29
v 19.0914 -143.111 1249.14
v 24.2547 -139.83 1255.32
v 18.3582 -145.345 1248.09
v 20.0485 -146.168 1248.2
v 22.3195 -143.779 1250.39
v 24.1449 -142.291 1252.93
v 24.0499 -143.721 1252.56
v 25.1245 -141.884 1255.55
v 21.971 -145.484 1248.78
v 22.8593 -146.134 1249.37
v 21.7339 -145.809 1249.97
v 24.7353 -144.82 1251.69
v 23.3522 -144.468 1251.47
v 25.514 -142.832 1253.14
v 25.6482 -144.752 1253.73
v 26.1443 -143.247 1254.63
v 21.7697 -147.469 1248.83
v 23.4586 -146.238 1249.99
v 14.4605 -136.601 1252.99
v 15.2896 -135.601 1254.1
v 15.518 -136.771 1254.77
v 13.8874 -136.583 1254.09
v 15.0195 -135.418 1255.86
v 16.3923 -134.593 1256.14
v 17.0442 -135.495 1257.46
v 18.3984 -133.465 1257.84
v 17.7135 -133.766 1258.94
v 19.0677 -133.146 1259.12
v 19.3821 -133.09 1260.32
v 20.3566 -132.964 1261.08
v 14.0331 -139.399 1250.4
v 15.1218 -137.781 1252.99
v 17.2186 -135.612 1255.66
v 19.1966 -134.441 1258.24
v 21.1847 -133.881 1261.41
v 22.2168 -133.098 1261.09
v 21.6249 -133.14 1261.76
v 22.4681 -133.57 1261.99
v 22.0987 -133.966 1262.21
v 13.5354 -141.61 1249.81
v 15.2179 -140.217 1250.56
v 14.6137 -139.567 1251.47
v 22.5905 -134.58 1259.86
v 23.3346 -133.735 1260.97
v 23.8283 -134.395 1260.7
v 23.1379 -133.677 1261.48
v 23.7391 -134.232 1261.47
v 23.3382 -134.106 1261.87
v 23.8068 -134.608 1261.81
v 23.1877 -134.32 1262.08
v 22.7281 -133.936 1262.17
v 22.8971 -134.3 1262.02
v 23.1774 -134.579 1261.96
v 15.2727 -142.285 1248.73
v 15.413 -141.061 1250.07
v 14.3102 -141.537 1250.62
v 14.8602 -142.351 1250.08
v 24.4719 -135.516 1260.96
v 24.2045 -134.924 1261.49
v 24.7751 -136.06 1261.58
v 23.8487 -135.894 1261.63
v 23.9474 -135.669 1261.92
v 15.4993 -143.733 1249.74
v 25.4185 -137.62 1260.85
v 25.3234 -137.4 1261.47
v 17.314 -143.69 1249.2
v 25.878 -138.545 1260.93
v 25.667 -137.998 1261.22
v 17.3536 -146.633 1248.32
v 18.1935 -145.84 1249.19
v 19.5291 -146.053 1249.22
v 20.5499 -146.026 1249.45
v 26.0451 -142.335 1258.11
v 20.1674 -148.283 1248.42
v 18.7371 -148.233 1248.35
v 21.0231 -148.044 1249.83
v 22.5338 -146.043 1250.61
v 23.8084 -145.592 1252.44
v 25.3665 -143.889 1255.77
v 26.9102 -143.418 1257.1
v 27.1189 -142.329 1258.61
v 22.3221 -148.742 1249.46
v 21.3851 -149.239 1249
v 22.1298 -148.008 1250.63
v 23.4147 -148.244 1250.49
v 23.1482 -146.768 1251.56
v 24.3239 -146.82 1251.49
v 23.912 -148.822 1251.97
v 15.575 -134.976 1257.86
v 12.8931 -138.332 1252.56
v 12.4546 -137.786 1254.32
v 15.1533 -136.684 1256.78
v 18.098 -133.664 1260.45
v 18.366 -134.816 1260.64
v 20.2225 -133.349 1262.29
v 18.9057 -133.603 1262.07
v 19.8586 -133.656 1262.74
v 20.1112 -133.98 1263.01
v 11.9879 -141.1 1251.41
v 12.838 -140.789 1252.57
v 12.83 -139.081 1251.81
v 13.8432 -139.32 1252.58
v 13.0506 -139.653 1253.36
v 13.9862 -138.23 1254.05
v 20.1383 -134.038 1260.93
v 21.5055 -133.425 1262.32
v 21.6217 -133.664 1262.49
v 20.9726 -133.659 1262.67
v 21.2739 -133.965 1262.6
v 20.8751 -134.021 1262.54
v 21.0509 -133.93 1262.76
v 13.8602 -140.717 1251.4
v 14.0606 -143.392 1249.28
v 12.936 -143.114 1250.02
v 13.943 -142.445 1250.67
v 24.4061 -136.863 1261.77
v 13.7229 -145.583 1249.66
v 14.2896 -143.989 1250.41
v 15.1535 -144.953 1248.86
v 25.7744 -138.366 1261.3
v 16.9256 -146.279 1249.49
v 16.5048 -148.415 1248.9
v 18.2654 -147.525 1249.38
v 27.2235 -141.772 1260.38
v 26.4769 -141.962 1260.61
v 26.9155 -142.439 1260.98
v 19.5774 -149.173 1248.5
v 18.6898 -148.847 1249.59
v 19.4005 -149.364 1249.7
v 19.7226 -148.007 1249.45
v 27.3198 -143.716 1258.82
v 27.5245 -143.655 1259.73
v 27.3664 -142.542 1260.79
v 27.5195 -143.084 1260.37
v 20.2243 -150.28 1248.9
v 21.2486 -149.084 1250.23
v 20.2245 -149.182 1249.8
v 22.032 -149.448 1251.11
v 23.2171 -147.943 1252.35
v 21.2318 -151.385 1249.77
v 22.6437 -150.323 1250.53
v 12.9655 -136.894 1255.88
v 13.5554 -136.322 1256.97
v 14.5931 -135.683 1259.66
v 17.303 -134.394 1262.09
v 11.6202 -139.886 1252.71
v 10.7275 -140.455 1253.73
v 11.3773 -139.106 1254.17
v 12.636 -139.35 1254.67
v 12.8421 -138.759 1255.58
v 13.627 -137.895 1256.16
v 15.2129 -136.603 1258.77
v 19.0336 -134.13 1263.12
v 19.2857 -134.748 1263.26
v 18.1659 -134.204 1262.85
v 18.8928 -134.604 1263.37
v 11.9165 -140.642 1254.33
v 12.6387 -143.025 1251.83
v 11.6184 -143.088 1251.21
v 12.8508 -141.837 1251.93
v 13.2737 -143.705 1251.14
v 13.3451 -145.147 1251.19
v 15.0713 -146.766 1250.36
v 17.2011 -148.862 1249.97
v 17.5764 -150 1248.94
v 16.5745 -150.265 1249.36
v 26.9614 -143.176 1260.79
v 27.5073 -143.978 1260.6
v 27.133 -144.612 1260.89
v 17.9911 -151.329 1249.28
v 19.1174 -150.932 1248.99
v 19.7049 -151.294 1250.49
v 18.6682 -151.041 1250.32
v 20.9747 -150.498 1250.64
v 27.2326 -144.906 1259.93
v 27.1074 -145.564 1260.77
v 19.7101 -151.946 1249.46
v 21.4529 -152.281 1250.43
v 20.7339 -151.969 1251.33
v 21.4615 -151.14 1251.45
v 22.0963 -150.863 1252.24
v 22.0395 -152.166 1250.98
v 22.7823 -151.503 1251.67
v 11.1938 -138.443 1256.8
v 12.3392 -137.237 1257.7
v 12.8719 -136.838 1259.48
v 9.98344 -141.692 1254.2
v 10.2231 -139.874 1256.11
v 9.97807 -140.816 1255.13
v 12.0775 -139.526 1255.99
v 12.5246 -138.823 1256.8
v 11.8032 -139.569 1257.45
v 13.5947 -137.755 1258.05
v 16.4555 -135.548 1263.77
v 10.6699 -141.726 1252.88
v 11.0307 -142.274 1254.84
v 11.1797 -141.109 1255.75
v 11.0064 -144.509 1251.81
v 10.8378 -142.851 1252.2
v 11.6784 -143.624 1253.01
v 11.8233 -142.356 1253.16
v 11.8854 -145.41 1250.98
v 12.2424 -144.831 1252.24
v 12.8412 -146.879 1252.01
v 13.7901 -148.059 1250.09
v 12.5345 -147.439 1250.8
v 12.8036 -148.646 1250.97
v 14.164 -147.75 1251.13
v 14.6225 -149.513 1251.51
v 14.8445 -150.623 1250.33
v 15.6251 -149.282 1250.78
v 15.9154 -151.753 1250.26
v 17.2152 -151.521 1251.01
v 17.2549 -152.995 1250.32
v 19.1758 -151.879 1250.7
v 18.3723 -152.576 1251.21
v 18.6539 -152.904 1249.92
v 19.8506 -153.257 1250.25
v 19.1194 -152.818 1251.32
v 19.8872 -152.312 1251.12
v 20.9813 -152.794 1252.22
v 20.5663 -153.075 1252.09
v 19.6885 -153.327 1251.87
v 21.6341 -152.532 1252.98
v 22.5682 -151.749 1254.37
v 20.5591 -153.562 1250.74
v 19.6408 -154.337 1251.07
v 21.1355 -153.557 1251.15
v 21.9965 -153.599 1252.35
v 22.9764 -152.424 1253.14
v 9.86898 -140.097 1257.99
v 11.3426 -138.207 1260.36
v 15.1262 -136.158 1263.73
v 9.32036 -142.382 1255.47
v 9.51214 -141.038 1256.79
v 11.0872 -140.702 1257.22
v 11.4196 -140.03 1258.88
v 12.3331 -138.899 1258.87
v 13.6395 -137.808 1260.47
v 14.5736 -137.374 1262.52
v 16.5224 -135.824 1263.95
v 9.80572 -143.172 1253.81
v 10.6707 -141.874 1256.52
v 10.183 -144.931 1252.99
v 11.0916 -144.517 1253.96
v 11.0479 -143.304 1254.2
v 11.0037 -146.707 1252.2
v 11.7344 -145.449 1253.01
v 11.5841 -148.475 1252.15
v 12.2893 -147.591 1252.99
v 13.4584 -149.088 1252.33
v 14.2372 -151.36 1251.12
v 15.396 -151.813 1252.37
v 16.5614 -153.348 1250.87
v 18.1953 -153.247 1251.79
v 17.1274 -152.831 1251.93
v 18.3367 -153.983 1250.71
v 17.3664 -154.087 1251.07
v 17.8709 -154.742 1251.54
v 18.99 -153.595 1252.02
v 18.8049 -154.151 1252.69
v 20.3187 -153.902 1252.83
v 19.5535 -154.058 1252.62
v 19.7816 -155.357 1252.28
v 18.6711 -155.218 1251.98
v 20.6489 -154.592 1251.81
v 21.4175 -155.129 1253.41
v 21.103 -153.66 1253.4
v 23.3845 -153.646 1256.15
v 22.2859 -154.734 1254.55
v 10.461 -139.176 1259.42
v 9.97371 -139.992 1260.18
v 10.5205 -139.34 1261.38
v 12.639 -137.352 1262.14
v 11.3937 -138.375 1261.92
v 14.1185 -137.186 1264.35
v 13.3545 -137.518 1264.17
v 8.96049 -142.536 1257.74
v 10.6815 -141.428 1258.45
v 11.9987 -139.387 1260.88
v 12.9979 -138.735 1263.2
v 15.3189 -137.313 1264.21
v 14.8455 -137.431 1264.44
v 13.8117 -138.361 1264.31
v 9.00708 -143.664 1255.81
v 10.344 -142.983 1256.56
v 10.3658 -142.416 1257.68
v 9.27506 -144.714 1254.74
v 9.52923 -146.301 1254.57
v 9.04256 -145.343 1255.6
v 10.4054 -144.106 1255.67
v 10.5139 -145.084 1255.34
v 10.2446 -145.256 1256.5
v 10.472 -147.382 1253.22
v 11.0469 -146.029 1254.36
v 10.5409 -146.248 1255.87
v 11.1026 -147.527 1255.2
v 11.2024 -149.732 1253.52
v 12.4335 -150.125 1252.06
v 12.7517 -151.733 1253.02
v 13.0417 -149.809 1253.36
v 13.7436 -152.011 1252.03
v 13.9395 -153.014 1252.84
v 14.2683 -150.847 1252.69
v 14.7486 -152.638 1251.6
v 16.7789 -154.384 1251.69
v 15.6987 -154.384 1252.57
v 17.6455 -153.838 1252.68
v 16.4529 -153.277 1252.93
v 17.1967 -154.392 1253.98
v 17.2127 -155.381 1252.74
v 16.5154 -155.147 1252.9
v 17.9625 -154.588 1253.7
v 18.8734 -154.86 1253.83
v 18.698 -155.14 1254.51
v 19.3974 -155.854 1252.94
v 18.1497 -155.961 1253.29
v 20.4931 -155.746 1253.31
v 19.6583 -154.812 1253.8
v 20.1039 -156.224 1253.96
v 19.3864 -155.202 1254.53
v 19.2464 -156.329 1253.89
v 21.0371 -154.471 1254.5
v 20.497 -154.924 1254.61
v 22.0011 -154.04 1255.95
v 21.0262 -156.004 1254.42
v 21.5621 -156.059 1255.58
v 9.5699 -141.172 1261.04
v 11.0465 -139.116 1262.84
v 11.5097 -139.178 1263.92
v 12.1518 -138.259 1263.61
v 12.4445 -138.397 1264.34
v 12.8142 -138.3 1264.61
v 12.817 -138.746 1264.83
v 11.9818 -139.292 1264.7
v 8.83447 -143.281 1258.56
v 9.39769 -141.182 1259.59
v 10.4609 -142.302 1259.82
v 9.09068 -142.538 1260.07
v 11.2776 -140.631 1261.63
v 11.8302 -139.888 1262.44
v 12.4257 -139.621 1263.92
v 13.1158 -139.171 1264.74
v 12.9521 -139.16 1264.94
v 12.7115 -139.934 1265.02
v 13.7559 -138.124 1264.7
v 13.5711 -138.604 1264.76
v 8.76793 -143.98 1257.61
v 10.1157 -144.222 1257.44
v 10.1519 -143.618 1258.59
v 10.438 -143.091 1260.67
v 9.16137 -146.951 1256.55
v 8.8546 -145.492 1257.02
v 10.2103 -145.647 1257.59
v 10.183 -144.976 1258.73
v 9.79206 -147.904 1255.01
v 10.8297 -147.581 1256.21
v 10.5177 -146.932 1257.01
v 10.5982 -150.006 1255.2
v 11.4101 -149.002 1256.28
v 11.4416 -150.989 1254.52
v 12.0211 -149.286 1254.74
v 13.1196 -151.004 1254.69
v 13.2443 -153.027 1254.05
v 14.6397 -152.357 1253.95
v 14.4663 -152.698 1255.13
v 15.674 -153.458 1254.21
v 15.7753 -153.875 1255.4
v 15.5178 -154.738 1253.38
v 17.1898 -154.787 1255.35
v 17.0102 -155.736 1253.59
v 16.2864 -155.54 1254.13
v 17.0749 -156.081 1254.64
v 17.9462 -155.085 1255
v 18.5997 -155.418 1255.54
v 18.1445 -155.315 1255.86
v 18.8597 -155.591 1256.35
v 18.1416 -156.339 1254.23
v 19.8482 -156.776 1255.59
v 19.0215 -156.74 1255.3
v 20.1451 -155.419 1255.45
v 19.3027 -155.541 1255.58
v 19.8199 -155.708 1256.43
v 21.3479 -155.269 1256.9
v 20.7653 -155.69 1257.42
v 24.8016 -152.937 1260.74
v 24.6866 -152.963 1261.59
v 24.059 -153.584 1261.88
v 20.7013 -156.599 1255.7
v 23.0702 -155.573 1258.82
v 23.871 -154.632 1259.63
v 10.191 -140.61 1262.74
v 10.7957 -140.036 1263.6
v 11.245 -139.931 1264.28
v 10.837 -140.571 1264.1
v 11.6067 -140.033 1264.8
v 9.36003 -142.81 1261.56
v 11.034 -141.72 1262.43
v 9.79594 -142.185 1262.74
v 10.3193 -141.624 1263.72
v 11.6268 -140.97 1263.69
v 11.3442 -140.785 1264.86
v 10.8462 -141.28 1264.44
v 12.5858 -140.007 1264.89
v 12.6431 -139.863 1265.04
v 12.6948 -139.946 1265.01
v 12.0681 -139.959 1265.05
v 12.3742 -140.255 1265.12
v 12.0651 -140.925 1264.7
v 11.7475 -140.814 1265.14
v 12.1306 -141.032 1265.21
v 8.87212 -144.187 1259.24
v 9.118 -145.294 1260.07
v 10.8059 -143.445 1262.34
v 11.2144 -142.425 1263.44
v 9.01606 -146.387 1258.17
v 10.4959 -144.938 1260.67
v 10.5394 -146.172 1259.77
v 9.43889 -148.022 1257.16
v 9.47674 -147.937 1258.33
v 10.6136 -147.238 1258.19
v 10.2846 -149.854 1256.26
v 11.0901 -148.549 1257.29
v 11.0543 -148.145 1258.92
v 12.4147 -150.639 1256.22
v 11.0028 -151.035 1256.57
v 11.7902 -149.766 1258.02
v 12.4656 -152.714 1256
v 12.8711 -151.191 1257.68
v 13.9746 -152.407 1256.21
v 14.4445 -154.362 1254.62
v 14.1795 -154.318 1255.82
v 15.2617 -153.521 1256.81
v 16.1452 -155.672 1255.47
v 15.1786 -154.956 1256.79
v 17.3179 -154.601 1258.2
v 17.6519 -156.371 1256.83
v 17.5983 -155.065 1256.7
v 18.8071 -155.43 1258
v 19.6229 -155.172 1259.76
v 17.9143 -156.539 1255.58
v 18.7445 -156.784 1256.22
v 19.9293 -156.869 1257.04
v 18.7067 -156.706 1257.12
v 20.0253 -155.749 1257.95
v 19.8941 -156.685 1258.39
v 21.3738 -155.621 1259.34
v 20.6283 -155.474 1259.85
v 22.5565 -155.022 1259.72
v 22.4006 -155.315 1260.45
v 23.4255 -154.486 1261.51
v 23.6145 -154.378 1261.83
v 23.735 -154.419 1261.88
v 23.5225 -154.613 1261.9
v 23.1959 -154.834 1261.75
v 23.1993 -154.92 1261.99
v 22.8831 -155.048 1261.96
v 21.9475 -156.429 1258.11
v 20.9207 -156.765 1257.52
v 21.9899 -156.484 1259.3
v 21.5947 -156.532 1259.6
v 23.0427 -155.864 1260.43
v 22.6449 -156.078 1260.68
v 23.9692 -154.811 1260.83
v 23.952 -154.661 1261.46
v 23.7757 -154.596 1261.75
v 23.398 -155.438 1261.18
v 23.4412 -155.038 1261.75
v 10.4739 -142.614 1264.1
v 11.2324 -141.795 1264.97
v 11.5484 -142.137 1265.2
v 9.74767 -144.714 1262.37
v 11.3173 -143.664 1263.68
v 10.7023 -143.612 1264.33
v 12.0589 -142.195 1265.14
v 11.8848 -142.202 1265.27
v 12.1191 -143.488 1265.22
v 11.2932 -143.082 1265.05
v 11.7477 -143.5 1265.25
v 11.3691 -144.444 1264.88
v 9.49045 -147.28 1259.55
v 9.90043 -146.637 1261.46
v 11.0169 -144.923 1262.42
v 10.362 -145.351 1263.22
v 11.8134 -144.914 1264.09
v 12.2784 -144.124 1265.16
v 12.2055 -143.957 1265.24
v 12.3608 -144.845 1264.93
v 11.9475 -144.31 1265.22
v 12.2851 -144.423 1265.22
v 10.1553 -148.168 1260.44
v 10.9858 -146.679 1260.85
v 10.5335 -147.39 1261.99
v 11.5545 -147.185 1261.78
v 12.0425 -146.471 1263.33
v 12.8801 -145.994 1264.86
v 10.2403 -149.735 1257.82
v 10.15 -149.193 1258.86
v 11.6623 -149.088 1259.44
v 11.1153 -149.725 1260.28
v 11.3846 -148.101 1260.24
v 11.8265 -148.793 1260.36
v 12.4321 -148.168 1262.18
v 10.9945 -150.624 1258.52
v 12.7221 -150.31 1259.59
v 11.9195 -152.029 1257.46
v 12.1738 -151.817 1258.66
v 14.2433 -150.323 1261.67
v 13.5434 -153.63 1257.07
v 16.5732 -150.833 1263.46
v 15.6218 -153.204 1258.79
v 14.6275 -153.812 1258.73
v 16.3627 -155.262 1258.21
v 17.6667 -153.744 1260.4
v 16.4784 -154.462 1259.78
v 19.4057 -153.119 1263.17
v 18.1363 -156.159 1258.35
v 17.821 -155.533 1259.34
v 19.1084 -154.565 1262.06
v 19.8512 -154.303 1262.86
v 21.0895 -154.49 1262.63
v 20.5798 -154.155 1262.88
v 21.2706 -156.326 1260.47
v 20.0762 -156.204 1260.05
v 21.2088 -156.013 1261.3
v 21.5574 -155.403 1262.4
v 21.6597 -155.769 1261.94
v 20.7096 -155.226 1262.36
v 20.4439 -155.611 1261.59
v 21.041 -155.265 1262.45
v 21.176 -155.123 1262.57
v 21.2611 -155.6 1262.13
v 22.5771 -155.131 1261.97
v 21.7622 -155.019 1262.03
v 22.333 -155.216 1262.32
v 22.2467 -155.523 1262.14
v 21.8777 -154.989 1262.51
v 21.9147 -156.152 1261.07
v 22.4624 -155.83 1261.59
v 22.7485 -155.533 1261.83
v 11.698 -146.647 1264.09
v 12.3011 -146.249 1264.89
v 12.7618 -146.135 1265.05
v 11.8842 -148.466 1262.72
v 13.2266 -147.413 1264.78
v 13.1365 -148.32 1264.14
v 13.5556 -147.017 1264.87
v 14.3675 -150.085 1263.5
v 13.3942 -151.227 1261.12
v 15.8005 -150.457 1264.1
v 15.8711 -150.938 1263.81
v 16.6803 -150.66 1264.02
v 17.9361 -152.539 1263.49
v 18.0635 -153.248 1262.91
v 22.0987 -133.966 1262.21
v 22.0987 -133.966 1262.21
v 23.1877 -134.32 1262.08
v 23.1877 -134.32 1262.08
v 22.7281 -133.936 1262.17
v 22.7281 -133.936 1262.17
v 22.7281 -133.936 1262.17
v 22.8971 -134.3 1262.02
v 24.7751 -136.06 1261.58
v 24.7751 -136.06 1261.58
v 23.9474 -135.669 1261.92
v 25.3234 -137.4 1261.47
v 21.6217 -133.664 1262.49
v 21.2739 -133.965 1262.6
v 21.0509 -133.93 1262.76
v 21.0509 -133.93 1262.76
v 24.4061 -136.863 1261.77
v 25.7744 -138.366 1261.3
v 26.9155 -142.439 1260.98
v 27.3664 -142.542 1260.79
v 27.3664 -142.542 1260.79
v 27.3664 -142.542 1260.79
v 19.2857 -134.748 1263.26
v 19.2857 -134.748 1263.26
v 26.9614 -143.176 1260.79
v 26.9614 -143.176 1260.79
v 27.5073 -143.978 1260.6
v 27.1074 -145.564 1260.77
v 15.3189 -137.313 1264.21
v 12.9521 -139.16 1264.94
v 12.7115 -139.934 1265.02
v 13.5711 -138.604 1264.76
v 24.059 -153.584 1261.88
v 24.059 -153.584 1261.88
v 24.059 -153.584 1261.88
v 12.5858 -140.007 1264.89
v 12.6431 -139.863 1265.04
v 12.6948 -139.946 1265.01
v 12.3742 -140.255 1265.12
v 12.1306 -141.032 1265.21
v 12.1306 -141.032 1265.21
v 12.1306 -141.032 1265.21
v 23.6145 -154.378 1261.83
v 23.735 -154.419 1261.88
v 23.5225 -154.613 1261.9
v 23.5225 -154.613 1261.9
v 23.1993 -154.92 1261.99
v 23.1993 -154.92 1261.99
v 22.8831 -155.048 1261.96
v 22.8831 -155.048 1261.96
v 12.0589 -142.195 1265.14
v 11.8848 -142.202 1265.27
v 12.1191 -143.488 1265.22
v 12.1191 -143.488 1265.22
v 12.1191 -143.488 1265.22
v 12.2784 -144.124 1265.16
v 12.2784 -144.124 1265.16
v 12.2784 -144.124 1265.16
v 12.2784 -144.124 1265.16
v 12.2055 -143.957 1265.24
v 12.3608 -144.845 1264.93
v 12.2851 -144.423 1265.22
v 12.2851 -144.423 1265.22
v 12.2851 -144.423 1265.22
v 12.8801 -145.994 1264.86
v 19.4057 -153.119 1263.17
v 21.0895 -154.49 1262.63
v 20.5798 -154.155 1262.88
v 20.5798 -154.155 1262.88
v 20.5798 -154.155 1262.88
v 22.5771 -155.131 1261.97
v 22.333 -155.216 1262.32
v 22.333 -155.216 1262.32
v 21.8777 -154.989 1262.51
v 21.8777 -154.989 1262.51
v 22.7485 -155.533 1261.83
v 12.7618 -146.135 1265.05
v 13.5556 -147.017 1264.87
v 13.5556 -147.017 1264.87
v 16.6803 -150.66 1264.02
f 3 36 38
f 5 37 7
f 2 3 5
f 3 2 1
f 4 2 5
f 3 38 5
f 1 46 3
f 4 13 12
f 12 2 4
f 13 4 6
f 5 7 4
f 13 6 14
f 14 21 13
f 7 6 4
f 14 6 8
f 42 40 7
f 40 6 7
f 40 8 6
f 1 9 56
f 9 1 16
f 9 57 56
f 1 11 16
f 12 10 11
f 11 10 18
f 1 2 11
f 11 2 12
f 13 21 12
f 21 10 12
f 21 14 15
f 54 15 14
f 23 16 18
f 9 16 23
f 10 17 18
f 11 18 16
f 19 72 29
f 72 81 29
f 10 21 20
f 10 20 17
f 21 22 20
f 20 22 27
f 22 30 27
f 64 19 65
f 19 73 65
f 19 29 73
f 15 22 21
f 30 22 15
f 18 24 23
f 24 84 23
f 24 31 84
f 18 25 24
f 18 17 25
f 17 26 25
f 26 28 25
f 25 31 24
f 32 31 25
f 25 28 32
f 82 29 81
f 20 26 17
f 20 27 26
f 27 28 26
f 27 30 28
f 34 28 30
f 34 33 28
f 31 32 89
f 89 32 33
f 89 33 90
f 90 33 92
f 33 32 28
f 92 33 34
f 36 46 35
f 35 96 107
f 38 36 97
f 3 46 36
f 107 97 36
f 35 107 36
f 37 5 38
f 97 39 38
f 37 38 39
f 39 42 37
f 42 7 37
f 42 41 40
f 40 41 8
f 43 41 42
f 8 41 44
f 43 115 41
f 41 115 44
f 115 43 101
f 116 54 44
f 116 44 115
f 120 58 126
f 56 58 45
f 120 45 58
f 103 35 45
f 45 120 103
f 56 45 1
f 45 35 46
f 45 46 1
f 60 63 48
f 48 63 47
f 60 48 122
f 108 122 48
f 50 48 47
f 48 50 108
f 47 49 50
f 51 49 66
f 49 47 64
f 66 49 64
f 49 51 50
f 50 51 110
f 51 66 53
f 67 53 66
f 8 54 14
f 51 52 110
f 52 51 53
f 52 53 123
f 8 44 54
f 54 124 55
f 68 9 23
f 57 9 68
f 57 58 56
f 130 57 68
f 130 58 57
f 126 58 130
f 60 127 61
f 61 127 128
f 63 59 62
f 59 63 60
f 61 59 60
f 64 62 19
f 19 62 72
f 63 64 47
f 62 64 63
f 64 65 66
f 65 73 67
f 67 66 65
f 55 15 54
f 15 55 75
f 55 180 134
f 68 76 130
f 135 130 76
f 23 76 68
f 71 59 61
f 77 71 69
f 79 71 77
f 77 69 133
f 69 71 61
f 128 131 61
f 61 131 69
f 59 72 62
f 59 70 72
f 81 72 70
f 70 59 71
f 70 71 79
f 73 74 67
f 74 129 67
f 15 75 30
f 129 74 137
f 75 134 86
f 55 134 75
f 84 76 23
f 78 77 136
f 79 77 78
f 78 136 207
f 70 80 81
f 80 70 79
f 80 79 78
f 85 81 80
f 81 85 82
f 29 83 73
f 73 83 74
f 83 29 82
f 87 74 83
f 74 87 137
f 30 75 86
f 84 31 144
f 207 80 78
f 140 85 80
f 85 83 82
f 85 91 83
f 83 91 141
f 87 83 141
f 30 86 34
f 93 92 34
f 34 86 93
f 88 31 89
f 88 89 94
f 31 88 144
f 94 89 90
f 94 90 95
f 92 93 149
f 92 149 95
f 92 95 90
f 95 147 94
f 98 107 96
f 98 96 154
f 97 107 98
f 98 155 97
f 97 99 39
f 97 155 99
f 159 99 155
f 99 100 39
f 42 39 43
f 39 100 43
f 159 100 99
f 159 161 100
f 100 101 43
f 161 101 100
f 101 102 115
f 102 117 115
f 102 119 117
f 166 103 120
f 35 103 104
f 104 96 35
f 122 108 105
f 122 105 106
f 105 109 167
f 167 106 105
f 50 109 108
f 108 109 105
f 168 109 111
f 109 50 110
f 109 110 111
f 112 111 110
f 112 168 111
f 112 110 52
f 112 52 113
f 113 52 123
f 169 168 112
f 113 169 112
f 160 168 169
f 113 123 114
f 114 169 113
f 115 117 116
f 114 123 125
f 54 116 124
f 117 118 116
f 124 116 118
f 119 118 117
f 179 124 118
f 166 120 126
f 121 127 60
f 127 176 128
f 121 176 127
f 60 122 121
f 122 106 121
f 55 124 180
f 53 67 178
f 67 129 178
f 53 125 123
f 125 53 178
f 179 180 124
f 189 130 135
f 126 130 189
f 176 190 128
f 190 132 128
f 260 129 137
f 129 260 196
f 134 180 193
f 132 131 128
f 132 201 131
f 69 131 133
f 199 86 134
f 193 199 134
f 138 135 76
f 201 133 131
f 133 201 136
f 77 133 136
f 136 206 207
f 139 138 76
f 76 84 139
f 87 143 137
f 137 143 208
f 86 199 216
f 210 138 139
f 84 144 139
f 207 146 80
f 140 80 146
f 212 140 146
f 85 140 91
f 140 148 91
f 141 91 142
f 142 91 148
f 143 87 141
f 143 141 214
f 93 86 216
f 144 152 139
f 144 88 145
f 145 153 217
f 152 145 217
f 152 144 145
f 88 94 153
f 153 145 88
f 94 147 153
f 148 140 212
f 95 149 147
f 149 150 147
f 142 214 141
f 151 150 149
f 93 216 151
f 93 151 149
f 151 216 215
f 220 217 153
f 222 153 147
f 222 147 150
f 222 150 223
f 224 159 158
f 104 225 154
f 154 155 98
f 104 154 96
f 154 157 155
f 277 155 157
f 156 168 227
f 277 158 155
f 155 158 159
f 227 168 160
f 161 159 162
f 161 163 101
f 162 163 161
f 102 101 163
f 163 164 102
f 228 164 163
f 165 119 102
f 172 119 165
f 165 102 164
f 230 172 165
f 104 103 166
f 236 225 104
f 104 166 236
f 106 177 121
f 106 237 177
f 237 106 167
f 167 156 239
f 109 168 156
f 156 167 109
f 229 169 240
f 119 171 118
f 171 119 172
f 169 114 240
f 170 240 114
f 170 114 125
f 171 181 118
f 173 171 172
f 181 171 173
f 181 173 183
f 173 186 183
f 230 241 172
f 241 173 172
f 125 187 174
f 170 125 174
f 175 166 126
f 234 166 175
f 236 166 234
f 177 237 247
f 247 176 177
f 177 176 121
f 178 129 188
f 187 125 178
f 188 187 178
f 118 181 179
f 180 194 193
f 181 182 179
f 179 182 180
f 194 180 182
f 194 182 184
f 181 183 182
f 183 184 182
f 186 185 183
f 185 184 183
f 188 692 697
f 690 697 692
f 694 691 693
f 189 175 126
f 248 249 175
f 189 248 175
f 191 190 176
f 192 132 190
f 191 192 190
f 192 191 250
f 188 129 196
f 195 193 194
f 184 698 194
f 185 197 184
f 197 699 184
f 197 200 699
f 196 700 188
f 188 700 692
f 251 196 260
f 196 251 700
f 706 200 197
f 189 135 254
f 248 189 254
f 256 201 198
f 192 198 132
f 198 201 132
f 199 193 195
f 701 199 195
f 706 261 200
f 261 255 200
f 254 135 204
f 136 201 205
f 205 201 256
f 199 202 216
f 216 202 259
f 199 701 203
f 199 203 202
f 707 203 701
f 707 202 203
f 202 707 259
f 205 206 136
f 204 138 210
f 138 204 135
f 207 206 265
f 265 206 258
f 258 206 205
f 143 214 208
f 214 302 208
f 210 209 262
f 218 209 152
f 209 210 139
f 152 209 139
f 207 265 211
f 146 207 211
f 221 148 212
f 221 213 148
f 213 221 274
f 274 214 213
f 142 148 213
f 213 214 142
f 523 214 274
f 150 151 215
f 214 523 302
f 215 216 266
f 209 218 270
f 270 262 209
f 218 152 217
f 219 212 146
f 211 219 146
f 153 222 220
f 219 221 212
f 219 274 221
f 219 273 274
f 223 150 310
f 521 223 310
f 223 276 220
f 220 222 223
f 226 319 277
f 278 158 277
f 278 224 158
f 159 224 162
f 279 224 278
f 224 279 162
f 226 154 225
f 225 236 281
f 226 157 154
f 277 157 226
f 286 156 227
f 239 156 286
f 287 227 160
f 162 228 163
f 279 228 162
f 279 280 228
f 229 160 169
f 228 231 164
f 280 231 228
f 231 165 164
f 231 230 165
f 233 243 232
f 290 288 231
f 232 230 231
f 230 232 243
f 281 236 234
f 330 281 234
f 167 239 237
f 239 238 237
f 235 237 238
f 235 247 237
f 292 235 238
f 240 170 245
f 229 240 289
f 240 245 289
f 173 241 242
f 242 186 173
f 244 170 174
f 174 695 244
f 243 241 230
f 244 245 170
f 702 703 696
f 243 242 241
f 246 245 244
f 704 703 702
f 243 705 242
f 246 289 245
f 243 233 705
f 233 712 705
f 234 175 294
f 294 175 249
f 247 191 176
f 295 191 247
f 295 250 191
f 293 250 295
f 295 247 235
f 249 248 252
f 294 249 337
f 253 250 296
f 252 337 249
f 253 296 297
f 293 296 250
f 248 254 252
f 253 198 192
f 253 192 250
f 253 298 198
f 297 298 253
f 251 260 708
f 256 198 298
f 257 254 204
f 205 256 258
f 256 299 258
f 298 299 256
f 137 208 260
f 258 263 265
f 204 210 257
f 263 258 299
f 268 259 707
f 709 255 261
f 208 302 260
f 260 302 708
f 261 714 709
f 300 257 210
f 262 306 210
f 300 210 306
f 265 272 211
f 265 263 264
f 272 265 264
f 215 266 150
f 266 216 267
f 266 267 310
f 267 216 269
f 216 259 269
f 269 259 268
f 262 270 306
f 272 271 211
f 309 273 271
f 272 309 271
f 271 219 211
f 273 219 271
f 273 309 315
f 273 315 316
f 316 274 273
f 310 150 266
f 275 270 218
f 276 217 220
f 218 217 275
f 275 217 276
f 276 223 318
f 319 320 277
f 277 320 278
f 320 321 278
f 409 368 280
f 282 281 330
f 283 226 225
f 283 225 281
f 282 283 281
f 283 319 226
f 286 285 239
f 284 239 285
f 325 284 285
f 286 326 285
f 326 286 328
f 328 286 227
f 328 227 287
f 328 287 374
f 160 229 287
f 375 229 289
f 329 290 368
f 280 290 231
f 288 232 231
f 232 288 233
f 368 290 280
f 288 291 233
f 329 288 290
f 291 712 233
f 329 376 288
f 288 376 291
f 376 712 291
f 330 234 334
f 334 377 330
f 284 238 239
f 292 238 284
f 292 336 235
f 325 292 284
f 334 234 294
f 333 294 337
f 295 235 336
f 295 336 293
f 335 293 336
f 338 296 293
f 296 338 297
f 335 338 293
f 340 254 257
f 340 252 254
f 343 298 297
f 346 298 343
f 340 257 301
f 301 345 340
f 299 298 346
f 348 299 346
f 300 301 257
f 300 306 305
f 301 300 305
f 263 299 308
f 348 308 299
f 715 722 710
f 268 303 269
f 303 267 269
f 303 310 267
f 723 304 711
f 304 716 711
f 311 310 303
f 304 717 716
f 306 352 305
f 306 270 312
f 263 308 264
f 306 312 352
f 264 308 307
f 351 350 308
f 308 350 307
f 307 309 272
f 307 314 309
f 307 272 264
f 312 270 275
f 353 312 275
f 353 275 361
f 350 355 307
f 313 275 276
f 314 315 309
f 313 276 317
f 317 318 364
f 355 314 307
f 276 318 317
f 356 315 314
f 313 361 275
f 318 223 365
f 318 365 364
f 323 319 283
f 320 367 321
f 320 319 367
f 321 279 278
f 280 279 409
f 330 322 282
f 322 324 282
f 324 283 282
f 332 371 378
f 325 285 326
f 327 325 326
f 371 325 327
f 326 328 373
f 327 326 373
f 327 373 372
f 374 287 375
f 287 229 375
f 334 379 377
f 379 334 333
f 330 377 322
f 336 331 381
f 336 292 331
f 332 331 292
f 332 325 371
f 332 292 325
f 334 294 333
f 382 379 333
f 336 381 335
f 335 381 380
f 333 337 382
f 382 337 341
f 338 383 339
f 383 335 380
f 338 335 383
f 339 343 297
f 338 339 297
f 339 383 385
f 341 252 340
f 337 252 341
f 342 341 340
f 339 386 343
f 342 340 345
f 344 343 386
f 343 344 346
f 348 346 344
f 301 347 345
f 387 342 345
f 388 348 344
f 301 305 347
f 388 391 348
f 305 352 349
f 349 347 305
f 348 351 308
f 391 390 351
f 351 354 350
f 391 351 348
f 390 354 351
f 392 349 352
f 312 353 352
f 354 355 350
f 352 353 392
f 353 362 392
f 358 355 354
f 358 354 395
f 355 357 314
f 357 356 314
f 358 357 355
f 403 356 357
f 358 398 397
f 397 357 358
f 357 397 403
f 359 315 356
f 316 315 359
f 274 316 360
f 316 359 360
f 460 360 359
f 401 361 363
f 362 353 361
f 362 361 401
f 363 361 313
f 317 363 313
f 401 363 364
f 363 317 364
f 356 403 359
f 359 403 460
f 365 405 364
f 365 223 404
f 404 223 521
f 365 404 405
f 366 319 323
f 366 370 472
f 366 406 319
f 406 366 407
f 406 367 319
f 410 367 408
f 367 410 409
f 408 367 406
f 321 409 279
f 409 321 367
f 412 368 409
f 412 411 368
f 329 368 411
f 324 369 370
f 377 369 322
f 369 324 322
f 369 377 420
f 283 324 323
f 324 370 323
f 323 370 366
f 371 327 372
f 372 414 371
f 373 328 374
f 417 375 289
f 718 713 418
f 329 411 376
f 481 376 411
f 481 418 376
f 376 418 712
f 377 379 423
f 332 378 331
f 378 421 331
f 331 421 426
f 378 371 422
f 381 426 380
f 426 381 331
f 427 380 426
f 430 383 380
f 427 430 380
f 383 430 385
f 382 341 384
f 385 386 339
f 342 384 341
f 434 384 342
f 386 439 344
f 386 436 439
f 387 345 347
f 440 387 347
f 439 388 344
f 437 387 440
f 388 439 500
f 440 347 389
f 440 389 441
f 347 349 389
f 441 389 393
f 393 389 349
f 440 441 442
f 390 443 396
f 395 390 396
f 391 443 390
f 443 391 444
f 393 349 392
f 393 394 441
f 393 392 394
f 446 394 400
f 395 354 390
f 358 395 398
f 398 395 396
f 392 400 394
f 454 398 396
f 400 392 362
f 449 454 396
f 398 454 397
f 362 401 399
f 399 400 362
f 400 399 451
f 401 364 402
f 402 364 405
f 451 399 453
f 399 401 453
f 453 401 402
f 403 458 460
f 397 458 403
f 405 404 525
f 523 274 360
f 460 523 360
f 402 405 462
f 472 407 366
f 472 463 407
f 406 407 408
f 410 464 466
f 466 409 410
f 466 412 409
f 466 467 412
f 469 411 468
f 468 411 412
f 481 411 469
f 468 412 467
f 420 413 369
f 413 370 369
f 414 473 422
f 372 373 415
f 372 415 475
f 372 475 414
f 473 414 475
f 373 374 415
f 415 374 416
f 416 374 375
f 416 375 419
f 419 375 417
f 476 415 416
f 416 419 478
f 476 416 477
f 418 481 482
f 418 482 718
f 419 417 721
f 420 377 423
f 420 423 425
f 378 422 421
f 422 484 421
f 484 426 421
f 484 422 485
f 422 371 414
f 424 423 379
f 424 425 423
f 426 484 428
f 428 427 426
f 428 431 427
f 431 428 493
f 382 429 379
f 491 429 433
f 432 385 430
f 429 424 379
f 429 491 424
f 431 492 432
f 427 431 430
f 430 431 432
f 384 429 382
f 433 429 384
f 497 436 385
f 432 497 385
f 433 384 434
f 386 385 436
f 434 342 387
f 434 387 437
f 435 434 437
f 433 434 435
f 500 439 436
f 500 436 498
f 444 388 500
f 438 437 440
f 388 444 391
f 441 447 442
f 438 440 442
f 444 445 443
f 446 441 394
f 446 447 441
f 448 449 396
f 443 448 396
f 450 449 448
f 445 448 443
f 506 447 446
f 454 449 456
f 449 450 456
f 448 509 450
f 400 451 452
f 446 400 452
f 452 457 513
f 451 457 452
f 459 397 454
f 454 516 459
f 451 453 455
f 455 453 461
f 453 402 461
f 451 455 457
f 456 516 454
f 461 524 455
f 459 458 397
f 519 458 459
f 519 460 458
f 516 519 459
f 521 310 311
f 461 402 462
f 525 462 405
f 463 408 407
f 463 527 408
f 408 527 464
f 527 528 464
f 408 464 410
f 464 465 466
f 467 466 465
f 464 528 465
f 465 528 529
f 529 470 465
f 470 467 465
f 470 468 467
f 470 469 468
f 470 542 469
f 413 472 370
f 471 474 413
f 413 474 472
f 476 475 415
f 475 476 536
f 475 536 533
f 533 536 550
f 475 533 473
f 477 536 476
f 477 416 478
f 482 481 469
f 469 479 482
f 719 478 721
f 478 539 477
f 536 477 539
f 469 542 479
f 541 540 480
f 725 478 543
f 543 478 719
f 721 478 419
f 483 413 420
f 488 483 420
f 488 547 483
f 483 471 413
f 547 471 483
f 473 485 422
f 486 485 473
f 488 420 425
f 425 487 488
f 424 487 425
f 489 493 428
f 487 551 488
f 551 547 488
f 428 484 489
f 484 485 490
f 484 490 489
f 485 486 490
f 489 490 556
f 491 487 424
f 431 493 492
f 432 492 495
f 497 432 495
f 433 494 491
f 557 491 494
f 558 495 492
f 494 433 496
f 498 436 497
f 495 560 497
f 496 433 435
f 496 435 499
f 496 499 563
f 563 561 496
f 560 498 497
f 498 560 501
f 435 437 438
f 435 438 499
f 563 499 566
f 498 501 500
f 501 565 503
f 438 504 566
f 499 438 566
f 444 500 502
f 445 502 503
f 501 502 500
f 502 501 503
f 504 438 442
f 447 504 442
f 447 507 504
f 502 445 444
f 447 506 507
f 566 504 507
f 509 445 505
f 503 505 445
f 573 505 503
f 448 445 509
f 446 452 506
f 452 513 506
f 513 508 506
f 507 508 569
f 508 507 506
f 569 508 576
f 450 517 456
f 450 510 517
f 510 450 509
f 509 505 511
f 509 511 510
f 510 511 512
f 511 505 573
f 512 511 573
f 513 457 515
f 457 514 515
f 455 514 457
f 524 514 455
f 508 513 576
f 576 513 515
f 577 576 515
f 515 514 577
f 520 519 516
f 516 456 517
f 518 520 516
f 518 516 517
f 510 512 517
f 512 518 517
f 580 518 512
f 520 585 519
f 580 520 518
f 582 520 580
f 519 584 460
f 521 599 526
f 600 599 521
f 460 586 523
f 521 522 600
f 522 521 311
f 304 522 717
f 522 304 723
f 524 461 462
f 524 594 514
f 593 524 462
f 462 525 593
f 525 404 526
f 525 526 599
f 525 599 597
f 404 521 526
f 530 528 527
f 529 531 470
f 528 530 529
f 531 529 530
f 470 531 542
f 474 463 472
f 474 532 463
f 527 463 534
f 463 532 534
f 486 473 533
f 533 549 486
f 534 535 527
f 527 535 530
f 536 610 550
f 536 544 610
f 537 531 530
f 537 530 538
f 605 537 538
f 535 538 530
f 726 727 720
f 542 728 479
f 542 531 545
f 544 536 539
f 545 531 537
f 728 542 545
f 605 545 537
f 546 728 545
f 543 729 725
f 730 544 539
f 606 545 605
f 610 544 730
f 471 547 474
f 547 548 532
f 552 490 486
f 547 532 474
f 486 549 552
f 618 552 549
f 618 549 608
f 549 533 550
f 608 549 550
f 608 550 610
f 551 555 616
f 553 556 490
f 553 559 556
f 551 548 547
f 616 548 551
f 490 552 553
f 552 627 553
f 552 618 627
f 487 491 554
f 554 551 487
f 492 493 558
f 493 556 558
f 558 556 559
f 551 554 555
f 554 632 555
f 555 633 616
f 489 556 493
f 559 636 634
f 553 627 559
f 491 557 554
f 557 632 554
f 557 561 632
f 558 562 495
f 562 558 559
f 634 562 559
f 561 494 496
f 561 557 494
f 561 641 639
f 632 561 639
f 560 495 562
f 562 564 560
f 562 640 564
f 501 560 565
f 641 561 563
f 565 560 564
f 563 567 644
f 644 641 563
f 567 566 569
f 563 566 567
f 567 569 570
f 573 503 568
f 503 565 568
f 565 564 568
f 570 644 567
f 644 570 647
f 646 571 568
f 569 566 507
f 568 571 573
f 569 572 570
f 569 576 572
f 572 579 652
f 512 573 574
f 571 574 573
f 571 575 574
f 576 577 572
f 579 572 577
f 577 578 579
f 514 578 577
f 578 514 594
f 581 579 578
f 652 581 659
f 579 581 652
f 582 585 520
f 574 580 512
f 581 596 658
f 519 585 584
f 580 583 582
f 580 574 583
f 583 574 575
f 586 460 584
f 584 585 586
f 583 668 582
f 668 585 582
f 583 669 668
f 668 592 585
f 588 522 723
f 588 601 522
f 586 587 523
f 724 732 733
f 589 587 586
f 732 734 733
f 735 601 588
f 585 590 586
f 586 590 591
f 589 586 591
f 603 601 736
f 736 601 735
f 591 590 592
f 592 590 585
f 675 737 738
f 524 593 594
f 594 581 578
f 594 596 581
f 593 525 597
f 595 594 593
f 597 595 593
f 595 596 594
f 598 595 597
f 598 596 595
f 602 597 599
f 598 597 602
f 674 598 602
f 602 765 674
f 601 600 522
f 599 600 602
f 603 600 601
f 602 600 603
f 736 765 603
f 603 765 602
f 534 532 607
f 535 604 538
f 604 535 534
f 607 604 534
f 607 609 604
f 611 545 606
f 545 611 546
f 605 538 604
f 604 613 605
f 613 606 605
f 607 532 548
f 607 548 617
f 548 616 617
f 619 609 607
f 615 609 619
f 741 740 731
f 610 612 608
f 604 609 613
f 614 606 613
f 606 614 611
f 742 740 741
f 743 614 622
f 611 614 743
f 609 615 613
f 613 615 614
f 624 614 615
f 622 614 624
f 616 626 617
f 619 607 617
f 617 626 628
f 619 617 628
f 608 620 618
f 620 608 612
f 618 620 630
f 620 631 630
f 612 621 620
f 744 749 745
f 624 625 746
f 624 747 622
f 620 621 623
f 751 750 748
f 631 620 623
f 623 752 631
f 624 678 625
f 766 754 753
f 555 632 633
f 616 633 626
f 636 559 627
f 636 627 629
f 628 626 635
f 618 629 627
f 630 629 618
f 630 638 629
f 630 682 638
f 630 631 682
f 754 766 767
f 637 634 636
f 634 640 562
f 634 637 640
f 626 633 635
f 633 639 635
f 629 637 636
f 638 637 629
f 632 639 633
f 639 641 642
f 637 638 640
f 638 643 640
f 635 639 642
f 635 642 684
f 638 682 643
f 642 641 644
f 564 640 646
f 647 684 642
f 643 646 640
f 643 649 646
f 642 644 647
f 647 650 684
f 649 645 651
f 687 651 645
f 564 646 568
f 649 571 646
f 657 651 687
f 647 570 648
f 648 650 647
f 650 648 653
f 689 650 654
f 688 655 757
f 648 570 572
f 648 652 653
f 648 572 652
f 571 649 575
f 650 653 654
f 649 651 656
f 655 666 757
f 663 655 654
f 755 758 756
f 652 659 653
f 659 581 658
f 659 658 660
f 575 669 583
f 658 596 673
f 671 662 674
f 765 671 674
f 575 656 669
f 660 658 673
f 674 673 598
f 673 674 662
f 656 575 649
f 660 673 662
f 671 661 662
f 664 659 660
f 660 667 664
f 661 672 666
f 667 660 662
f 661 667 662
f 653 659 664
f 653 664 654
f 654 664 663
f 655 663 665
f 655 665 666
f 664 667 663
f 663 667 665
f 665 667 661
f 661 666 665
f 668 670 592
f 761 765 739
f 761 671 765
f 656 763 669
f 763 668 669
f 672 661 761
f 760 764 762
f 661 671 761
f 757 666 672
f 656 759 763
f 673 596 598
f 628 676 619
f 619 676 615
f 615 677 624
f 615 676 677
f 624 677 678
f 628 635 679
f 676 679 681
f 676 681 677
f 677 680 678
f 678 680 768
f 679 635 684
f 628 679 676
f 677 681 680
f 679 684 681
f 681 684 683
f 681 685 680
f 681 686 685
f 768 680 685
f 684 686 683
f 681 683 686
f 643 645 649
f 643 682 645
f 687 645 682
f 685 769 768
f 688 685 686
f 685 688 769
f 688 757 769
f 650 689 684
f 686 684 689
f 686 689 688
f 689 655 688
f 655 689 654
