o FMA7261_BP8146_FJ2430
v 7.60909 -144.162 1190.59
v 7.46748 -143.643 1189.89
v 7.30981 -142.941 1189.98
v 7.81829 -142.106 1189.74
v 7.16454 -143.239 1190.35
v 7.16959 -142.906 1190.35
v 7.36934 -143.55 1190.94
v 7.27869 -142.942 1190.91
v 7.41046 -142.36 1190.37
v 7.60278 -142.351 1190.95
v 7.84934 -141.853 1190.38
v 9.7639 -147.825 1185.2
v 9.70588 -147.665 1184.78
v 10.1074 -147.283 1186.62
v 10.2231 -146.583 1187.23
v 9.95451 -146.297 1189.32
v 9.42113 -144.322 1187.43
v 9.5655 -145.63 1187.72
v 10.0438 -145.836 1186.92
v 10.2185 -145.9 1186.31
v 8.36979 -145.048 1189.9
v 8.10541 -144.231 1191.45
v 9.19636 -145.707 1190.52
v 9.80576 -145.198 1191.51
v 10.2291 -144.617 1191.81
v 8.17939 -141.617 1190.09
v 8.61087 -141.799 1189.35
v 10.3824 -141.86 1188.8
v 8.10827 -143.272 1191.8
v 8.19315 -141.673 1190.67
v 8.44733 -141.881 1191.26
v 8.72431 -143.988 1191.95
v 9.29036 -143.402 1192.1
v 9.32754 -142.232 1191.74
v 10.2337 -141.743 1190.99
v 8.83957 -141.398 1190.08
v 10.3228 -141.494 1190.07
v 9.10591 -141.427 1190.72
v 11.375 -154.304 1186.26
v 11.8025 -155.822 1187.24
v 11.1288 -153.87 1188.19
v 11.695 -154.083 1188.48
v 10.2977 -152.819 1186.45
v 10.2596 -151.691 1187.34
v 10.3111 -152.276 1185.82
v 11.2019 -152.305 1187.88
v 12.1094 -152.192 1187.72
v 10.2843 -147.945 1186.95
v 10.5965 -147.221 1187.53
v 10.5895 -147.513 1187.2
v 10.9041 -148.685 1187.3
v 10.644 -146.987 1188.51
v 10.5876 -146.614 1189.6
v 11.2736 -147.323 1189.02
v 11.4136 -148.13 1187.76
v 11.4233 -146.612 1190.17
v 10.5231 -144.783 1186.12
v 10.3739 -144.577 1186.43
v 10.6865 -144.198 1185.83
v 10.6776 -144.19 1186.15
v 12.0393 -146.064 1190.8
v 10.683 -143.523 1185.22
v 12.0311 -142.385 1185.04
v 11.0557 -143.8 1186.12
v 10.5392 -143.171 1191.76
v 11.2604 -142.199 1190.61
v 12.8605 -141.118 1182.72
v 10.9128 -141.743 1183.9
v 11.1884 -141.644 1183.58
v 11.5229 -140.867 1183.44
v 11.3212 -140.821 1183.77
v 11.2315 -141.118 1184.41
v 12.6359 -156.765 1187.19
v 14.5974 -156.854 1186.55
v 13.055 -157.198 1187.8
v 14.2455 -157.617 1188.88
v 14.2498 -157.372 1189.08
v 12.9774 -155.253 1188.69
v 12.5312 -155.772 1188.88
v 13.3944 -149.639 1188.12
v 14.4107 -145.71 1190.19
v 13.3081 -143.473 1186.57
v 13.471 -143.032 1188.2
v 13.6857 -137.677 1182.36
v 14.723 -137.659 1191.04
v 15.7462 -138.723 1190.6
v 15.2952 -137.886 1191.71
v 13.8251 -136.532 1182.59
v 14.7758 -135.872 1183.78
v 14.1371 -136.077 1190.03
v 14.6049 -135.908 1189.26
v 14.3854 -134.909 1190.02
v 14.758 -136.81 1189.27
v 15.0564 -135.636 1188.9
v 13.9477 -135.212 1190.66
v 13.9558 -136.382 1191.15
v 13.9246 -135.808 1191.81
v 14.0015 -135.221 1191.78
v 14.1446 -135.25 1192.12
v 14.2852 -136.828 1190.42
v 14.3769 -136.747 1192.02
v 14.2483 -134.854 1191.78
v 14.4858 -136.134 1192.46
v 14.5746 -134.83 1192.13
v 14.831 -135.322 1192.59
v 15.038 -136.811 1192.51
v 15.3706 -136.229 1192.79
v 15.4016 -135.018 1192.49
v 15.4996 -134.619 1189.75
v 14.5738 -134.456 1190.92
v 14.873 -134.403 1191.54
v 15.202 -134.502 1191.87
v 15.1749 -134.283 1190.94
v 14.7743 -158.497 1188.02
v 14.9108 -158.473 1187.65
v 16.9177 -148.612 1182.53
v 15.4318 -144.118 1185.61
v 17.2954 -140.29 1187.44
v 17.7596 -140.862 1187.8
v 16.7459 -138.397 1186.87
v 17.9077 -137.246 1186.27
v 15.9795 -137.461 1192.29
v 16.9179 -139.019 1190.96
v 18.2278 -136.509 1182.94
v 17.2592 -134.962 1189.95
v 15.7264 -135.629 1192.78
v 16.2679 -135.042 1192.25
v 16.5994 -136.373 1192.56
v 16.8888 -135.694 1192.27
v 16.9619 -134.956 1191.48
v 17.7955 -136.651 1191.69
v 18.0232 -135.992 1191.17
v 16.1301 -134.61 1181.55
v 16.7066 -133.422 1181.69
v 16.8201 -133.512 1183.47
v 16.0258 -134.396 1191.24
v 16.8696 -158.932 1189.12
v 18.9408 -160.082 1187.65
v 18.1457 -149.425 1189.16
v 18.8321 -144.455 1184.01
v 19.6392 -145.427 1184.05
v 17.9889 -145.096 1185.45
v 17.7805 -143.015 1183.82
v 17.9308 -142.586 1183.69
v 18.4951 -142.69 1184.07
v 18.6254 -142.085 1183.79
v 18.3601 -141.921 1185.18
v 18.3876 -143.817 1183.93
v 18.5596 -143.264 1183.97
v 18.7673 -143.027 1184.38
v 18.9052 -143.608 1184.05
v 19.2411 -143.285 1184.6
v 19.4083 -144.22 1183.9
v 19.7547 -143.994 1184.06
v 18.9245 -142.608 1185.46
v 17.6618 -140.091 1183.07
v 18.0656 -141.473 1183.27
v 18.7043 -141.162 1183.06
v 19.067 -139.974 1182.91
v 18.5042 -141.398 1184.47
v 18.9229 -140.89 1184.11
v 18.8 -139.515 1184.5
v 19.4427 -140.029 1183.57
v 18.6212 -141.054 1188.79
v 19.2874 -138.214 1180.68
v 19.7292 -138.801 1182.77
v 19.454 -139.029 1184.21
v 20.0622 -139.085 1183.57
v 19.0269 -139.158 1190.38
v 18.1457 -135.528 1190.27
v 19.6111 -137.023 1189.44
v 19.8398 -136.692 1188.18
v 19.3856 -133.211 1180.74
v 20.373 -132.25 1180.83
v 19.1477 -132.701 1184.12
v 19.1317 -132.555 1183.65
v 20.3556 -132.582 1184.5
v 20.3778 -132.158 1184.44
v 20.7456 -159.309 1186.36
v 19.2028 -160.214 1188.04
v 20.5014 -160.418 1187.69
v 20.4314 -159.797 1189.01
v 20.4469 -159.501 1189.12
v 20.7394 -158.897 1188.64
v 20.2202 -155.927 1187.1
v 20.8062 -153.821 1187.39
v 21.7398 -153.197 1187.62
v 20.5558 -148.149 1187.56
v 20.0003 -149.391 1188.56
v 19.9026 -145.762 1184.31
v 20.0004 -145.939 1184.89
v 20.2392 -145.427 1183.71
v 20.2611 -145.84 1184.29
v 20.2745 -145.713 1183.99
v 20.2551 -144.838 1183.6
v 21.0061 -146.565 1185.41
v 20.8476 -145.919 1184.53
v 20.8778 -145.615 1183.99
v 20.8595 -145.203 1183.65
v 20.775 -144.732 1183.91
v 21.1722 -145.694 1184.3
v 21.3521 -145.86 1184.56
v 21.2314 -145.247 1184.02
v 21.6079 -145.597 1184.55
v 21.7583 -145.3 1184.85
v 21.6815 -146.169 1184.82
v 22.0051 -146.499 1184.94
v 22.0636 -145.893 1184.87
v 19.5555 -146.328 1186.45
v 21.6078 -144.677 1185.84
v 21.8979 -140.121 1188.59
v 20.2897 -138.766 1183.03
v 20.9699 -138.056 1182.73
v 21.2414 -138.203 1183.05
v 20.5706 -137.687 1184.57
v 20.9854 -138.242 1183.66
v 21.826 -137.386 1184.52
v 21.0155 -137.187 1186.06
v 21.9846 -138.245 1187.43
v 21.5208 -132.444 1184.44
v 22.752 -131.886 1183.69
v 21.5909 -160.328 1187.04
v 23.3058 -160.268 1186.86
v 22.2297 -159.876 1188.57
v 22.545 -159.592 1188.57
v 23.7443 -159.637 1188.07
v 22.1113 -156.267 1186.4
v 22.7979 -155.855 1186.23
v 23.4725 -155.084 1186.7
v 24.0086 -156.622 1186.36
v 24.0513 -155.993 1186.41
v 23.7351 -147.473 1184.69
v 23.7806 -147.088 1184.73
v 24.1542 -147.845 1184.88
v 24.3787 -147.531 1184.76
v 23.8487 -148.561 1185.55
v 22.3417 -146.245 1184.93
v 22.3465 -145.616 1185.28
v 22.6149 -146.822 1184.87
v 22.6561 -145.967 1185.18
v 22.9284 -146.546 1184.93
v 23.2721 -146.248 1185.14
v 22.8387 -145.484 1185.63
v 22.3299 -142.106 1188.07
v 23.3966 -137.61 1182.75
v 24.8948 -137.683 1182.75
v 24.3181 -137.223 1182.34
v 24.9427 -137.276 1182.35
v 23.8684 -133.009 1179.96
v 23.7682 -132.559 1180.07
v 24.0506 -132.18 1180.78
v 24.6228 -132.086 1183.42
v 24.6005 -132.156 1183.82
v 24.1371 -159.989 1186.19
v 24.8284 -159.861 1186.19
v 26.0074 -159.077 1185.04
v 25.3411 -158.345 1186.87
v 25.6452 -156.959 1186.31
v 25.0881 -148.97 1184.99
v 24.9726 -147.228 1184.94
v 25.8774 -147.595 1184.81
v 26.6765 -147.287 1184.95
v 24.6931 -145.266 1185.91
v 25.4973 -143.71 1186.47
v 26.7565 -140.206 1184.5
v 25.3217 -137.644 1182.39
v 26.3758 -138.987 1182.32
v 27.0993 -139.381 1182.29
v 27.2562 -138.79 1181.67
v 27.2299 -139.787 1183.65
v 25.6755 -136.965 1182.24
v 26.517 -133.886 1179.6
v 26.7672 -133.396 1180.09
v 27.5612 -133.462 1183.07
v 26.9166 -133.498 1183.67
v 27.7341 -158.111 1184.13
v 28.7368 -157.282 1183.56
v 28.9076 -157.388 1184.77
v 28.619 -156.956 1183.19
v 26.8821 -157.776 1186.05
v 27.027 -158.73 1185.1
v 28.327 -157.029 1185.33
v 26.7332 -156.571 1183.19
v 26.7902 -155.481 1186
v 28.5452 -155.919 1185.05
v 28.7511 -140.548 1183
v 28.2215 -139.634 1182.37
v 28.719 -139.232 1181.61
v 28.7063 -135.841 1183
v 29.7567 -135.119 1179.69
v 29.4889 -134.551 1182.64
v 29.2698 -134.455 1183.17
v 28.9923 -157.4 1184.46
v 29.128 -157.061 1184.16
v 28.9557 -157.052 1184.82
v 28.7924 -154.566 1181.72
v 29.6352 -155.232 1182
v 30.232 -154.573 1181.6
v 30.3792 -154.73 1182.03
v 29.0834 -156.519 1182.91
v 29.2678 -156.704 1183.83
v 29.2649 -156.416 1184.4
v 29.9644 -152.924 1180.71
v 30.8017 -153.359 1181.04
v 30.4453 -153.368 1182.92
v 30.2872 -150.69 1180.06
v 30.2229 -150.286 1179.95
v 31.1567 -150.502 1179.89
v 31.1251 -150.832 1180.18
v 31.5073 -150.423 1180.2
v 31.499 -151.704 1181.68
v 31.6138 -150.499 1181.42
v 31.3665 -150.647 1181.79
v 29.7157 -150.795 1183.05
v 30.7893 -144.941 1182.74
v 31.9527 -140.584 1181.06
v 30.8257 -138.825 1181.58
v 31.4966 -137.312 1182.78
v 32.3072 -149.705 1179.47
v 31.9058 -150.181 1181.03
v 31.7691 -149.737 1181.66
v 31.3339 -149.176 1179.19
v 32.7595 -149.009 1179.14
v 33.0142 -149.151 1180.78
v 33.7404 -146.598 1178.44
v 33.8566 -146.19 1181.3
v 31.4086 -143.871 1182.23
v 33.5808 -138.178 1178.57
v 34.149 -138.297 1179.12
v 32.6464 -138.283 1182.38
v 33.5658 -137.309 1182.04
v 35.502 -143.392 1178.67
v 35.9208 -144.357 1179.84
v 35.7078 -143.451 1180.05
v 35.9607 -143.147 1179.58
v 35.122 -141.344 1180.69
v 36.0662 -142.345 1180.21
v 36.1711 -142.268 1179.91
v 36.2965 -140.816 1181.16
v 36.4572 -140.616 1181.47
v 36.586 -140.531 1181.17
v 34.7166 -139.435 1178.44
v 35.3402 -139 1182.25
v 35.6089 -139.606 1181.98
v 36.1566 -139.628 1181.8
v 36.1967 -140.245 1181.7
v 36.2852 -139.838 1181.27
v 36.7766 -140.254 1181.78
v 7.16959 -142.906 1190.35
v 9.70588 -147.665 1184.78
v 10.2231 -146.583 1187.23
v 11.8025 -155.822 1187.24
v 11.1288 -153.87 1188.19
v 11.695 -154.083 1188.48
v 10.2596 -151.691 1187.34
v 10.3111 -152.276 1185.82
v 11.2019 -152.305 1187.88
v 11.4136 -148.13 1187.76
v 10.6776 -144.19 1186.15
v 10.6776 -144.19 1186.15
v 10.683 -143.523 1185.22
v 12.0311 -142.385 1185.04
v 12.0311 -142.385 1185.04
v 11.0557 -143.8 1186.12
v 11.0557 -143.8 1186.12
v 11.0557 -143.8 1186.12
v 11.0557 -143.8 1186.12
v 11.0557 -143.8 1186.12
v 10.9128 -141.743 1183.9
v 11.3212 -140.821 1183.77
v 11.2315 -141.118 1184.41
v 12.6359 -156.765 1187.19
v 14.2498 -157.372 1189.08
v 12.5312 -155.772 1188.88
v 12.5312 -155.772 1188.88
v 13.8251 -136.532 1182.59
v 14.7758 -135.872 1183.78
v 14.7758 -135.872 1183.78
v 14.7758 -135.872 1183.78
v 14.9108 -158.473 1187.65
v 15.4318 -144.118 1185.61
v 15.4318 -144.118 1185.61
v 16.7066 -133.422 1181.69
v 16.8201 -133.512 1183.47
v 16.8696 -158.932 1189.12
v 16.8696 -158.932 1189.12
v 18.8321 -144.455 1184.01
v 17.9308 -142.586 1183.69
v 17.9308 -142.586 1183.69
v 18.4951 -142.69 1184.07
v 18.4951 -142.69 1184.07
v 18.6254 -142.085 1183.79
v 18.3876 -143.817 1183.93
v 18.5596 -143.264 1183.97
v 18.7043 -141.162 1183.06
v 19.067 -139.974 1182.91
v 19.067 -139.974 1182.91
v 19.4427 -140.029 1183.57
v 19.7292 -138.801 1182.77
v 20.0622 -139.085 1183.57
v 20.0622 -139.085 1183.57
v 19.8398 -136.692 1188.18
v 20.373 -132.25 1180.83
v 19.1477 -132.701 1184.12
v 20.3778 -132.158 1184.44
v 20.3778 -132.158 1184.44
v 19.2028 -160.214 1188.04
v 20.4314 -159.797 1189.01
v 20.2202 -155.927 1187.1
v 20.8595 -145.203 1183.65
v 20.8595 -145.203 1183.65
v 21.2314 -145.247 1184.02
v 21.6079 -145.597 1184.55
v 21.6815 -146.169 1184.82
v 22.0051 -146.499 1184.94
v 20.2897 -138.766 1183.03
v 20.9699 -138.056 1182.73
v 21.2414 -138.203 1183.05
v 21.0155 -137.187 1186.06
v 21.5208 -132.444 1184.44
v 22.752 -131.886 1183.69
v 22.2297 -159.876 1188.57
v 22.545 -159.592 1188.57
v 23.7443 -159.637 1188.07
v 23.7443 -159.637 1188.07
v 22.1113 -156.267 1186.4
v 22.7979 -155.855 1186.23
v 23.7351 -147.473 1184.69
v 24.3787 -147.531 1184.76
v 22.6149 -146.822 1184.87
v 23.3966 -137.61 1182.75
v 23.3966 -137.61 1182.75
v 24.8948 -137.683 1182.75
v 23.7682 -132.559 1180.07
v 24.6005 -132.156 1183.82
v 24.6005 -132.156 1183.82
v 24.8284 -159.861 1186.19
v 26.0074 -159.077 1185.04
v 25.3411 -158.345 1186.87
v 26.517 -133.886 1179.6
v 26.9166 -133.498 1183.67
v 27.7341 -158.111 1184.13
v 28.9076 -157.388 1184.77
v 28.9076 -157.388 1184.77
v 28.9076 -157.388 1184.77
v 28.719 -139.232 1181.61
v 29.2698 -134.455 1183.17
v 28.9923 -157.4 1184.46
v 29.128 -157.061 1184.16
v 28.9557 -157.052 1184.82
v 30.232 -154.573 1181.6
v 29.2649 -156.416 1184.4
v 30.8017 -153.359 1181.04
v 31.1567 -150.502 1179.89
v 31.1251 -150.832 1180.18
v 31.1251 -150.832 1180.18
v 31.6138 -150.499 1181.42
v 31.6138 -150.499 1181.42
v 32.3072 -149.705 1179.47
v 31.9058 -150.181 1181.03
v 32.7595 -149.009 1179.14
v 33.0142 -149.151 1180.78
v 33.7404 -146.598 1178.44
v 33.5808 -138.178 1178.57
v 35.502 -143.392 1178.67
v 35.9208 -144.357 1179.84
v 35.9607 -143.147 1179.58
v 36.0662 -142.345 1180.21
v 36.0662 -142.345 1180.21
v 36.1711 -142.268 1179.91
v 36.2965 -140.816 1181.16
v 36.2965 -140.816 1181.16
v 36.4572 -140.616 1181.47
v 36.586 -140.531 1181.17
v 36.586 -140.531 1181.17
v 36.586 -140.531 1181.17
v 34.7166 -139.435 1178.44
v 35.3402 -139 1182.25
v 35.6089 -139.606 1181.98
v 36.1566 -139.628 1181.8
v 36.1566 -139.628 1181.8
v 36.7766 -140.254 1181.78
v 36.7766 -140.254 1181.78
v 36.7766 -140.254 1181.78
f 2 1 5
f 21 2 18
f 1 2 21
f 5 1 7
f 1 21 23
f 22 1 23
f 22 7 1
f 3 2 5
f 6 3 5
f 17 18 2
f 2 3 17
f 6 9 3
f 4 17 3
f 9 4 3
f 4 9 11
f 26 27 4
f 11 26 4
f 5 8 349
f 8 5 7
f 8 9 349
f 7 29 8
f 8 10 9
f 8 29 10
f 9 10 11
f 22 29 7
f 11 10 30
f 10 29 31
f 10 31 30
f 26 11 30
f 13 45 12
f 14 12 44
f 12 14 20
f 15 52 18
f 44 48 14
f 52 16 18
f 18 17 19
f 19 351 18
f 19 17 58
f 20 351 19
f 20 14 351
f 21 16 23
f 18 16 21
f 22 32 29
f 32 22 24
f 24 22 23
f 25 33 32
f 53 56 23
f 23 56 24
f 25 32 24
f 25 65 33
f 24 56 61
f 61 25 24
f 81 65 25
f 4 27 17
f 36 27 26
f 64 17 27
f 34 31 29
f 38 30 31
f 29 32 33
f 33 34 29
f 38 31 34
f 35 38 34
f 34 33 65
f 34 65 35
f 65 66 35
f 36 26 30
f 28 364 27
f 28 27 36
f 28 36 37
f 37 36 38
f 37 38 35
f 30 38 36
f 43 40 41
f 39 43 45
f 352 43 39
f 43 41 44
f 353 42 355
f 42 353 79
f 40 374 41
f 375 78 354
f 12 45 43
f 43 44 12
f 116 39 356
f 46 355 42
f 357 354 47
f 355 51 48
f 46 51 355
f 47 51 357
f 50 14 48
f 14 50 15
f 50 49 15
f 49 55 52
f 49 52 15
f 50 48 51
f 50 55 49
f 358 50 51
f 16 52 53
f 53 23 16
f 54 53 52
f 56 53 54
f 55 80 52
f 80 358 51
f 54 52 80
f 56 54 80
f 61 56 80
f 116 350 67
f 63 365 140
f 20 19 57
f 58 57 19
f 58 60 57
f 57 59 20
f 57 359 59
f 58 17 60
f 59 359 366
f 25 61 81
f 20 62 12
f 12 62 68
f 13 12 68
f 69 67 350
f 62 72 68
f 350 369 69
f 362 62 367
f 20 59 62
f 64 360 17
f 62 59 367
f 37 66 83
f 83 66 81
f 81 66 65
f 71 88 70
f 370 68 72
f 70 67 69
f 69 369 70
f 371 361 363
f 71 70 369
f 35 66 37
f 88 84 70
f 370 72 376
f 84 67 70
f 89 371 363
f 73 352 39
f 73 74 115
f 74 73 39
f 372 75 40
f 75 374 40
f 372 114 75
f 114 76 75
f 75 76 374
f 372 380 114
f 77 78 375
f 374 76 373
f 80 51 47
f 185 80 47
f 47 354 78
f 116 356 350
f 61 80 139
f 387 368 117
f 83 81 209
f 28 82 364
f 83 82 28
f 37 83 28
f 82 381 364
f 381 82 83
f 165 67 84
f 165 84 133
f 72 377 376
f 378 63 156
f 124 378 156
f 85 100 118
f 119 86 118
f 101 96 85
f 85 87 101
f 87 106 101
f 86 85 118
f 122 106 87
f 86 87 85
f 123 122 87
f 84 88 133
f 88 134 133
f 135 383 376
f 135 376 377
f 95 91 90
f 91 95 92
f 90 93 100
f 91 93 90
f 94 91 92
f 92 95 110
f 93 118 100
f 91 120 93
f 162 120 91
f 94 162 91
f 109 94 92
f 92 110 109
f 162 94 121
f 94 109 121
f 96 97 95
f 95 97 98
f 100 96 90
f 100 85 96
f 90 96 95
f 96 101 97
f 97 103 99
f 97 99 98
f 95 98 102
f 98 99 102
f 101 103 97
f 99 103 105
f 99 105 104
f 102 110 95
f 102 104 111
f 102 99 104
f 104 112 111
f 103 101 106
f 103 106 107
f 107 105 103
f 108 104 105
f 108 112 104
f 107 106 122
f 126 105 107
f 126 108 105
f 126 127 108
f 110 102 111
f 109 110 113
f 111 112 136
f 113 110 111
f 112 127 136
f 127 112 108
f 113 111 136
f 114 380 138
f 137 114 138
f 373 76 137
f 74 39 116
f 115 74 138
f 76 114 137
f 409 47 78
f 83 142 381
f 116 67 165
f 142 140 382
f 160 120 162
f 86 119 164
f 93 120 118
f 162 121 167
f 123 87 86
f 122 123 169
f 86 164 123
f 169 123 244
f 123 164 244
f 165 133 173
f 125 121 109
f 125 172 121
f 402 125 170
f 128 107 122
f 128 126 107
f 128 122 169
f 128 129 126
f 129 127 126
f 130 127 129
f 131 129 128
f 169 131 128
f 132 130 129
f 125 130 170
f 131 132 129
f 132 131 171
f 132 170 130
f 131 169 171
f 133 134 173
f 173 134 174
f 176 383 135
f 384 379 177
f 124 177 378
f 125 109 136
f 109 113 136
f 130 136 127
f 125 136 130
f 179 138 74
f 180 137 138
f 77 385 78
f 78 385 183
f 78 183 184
f 74 116 283
f 185 139 80
f 81 61 139
f 81 188 209
f 81 139 189
f 188 81 189
f 141 140 142
f 195 153 140
f 142 191 190
f 190 141 142
f 141 192 140
f 140 192 195
f 195 154 153
f 142 83 209
f 143 144 63
f 144 157 63
f 148 143 63
f 149 143 393
f 144 143 149
f 147 119 118
f 148 63 140
f 388 394 145
f 394 150 145
f 389 390 146
f 145 155 147
f 147 155 119
f 153 148 140
f 149 393 151
f 394 151 150
f 150 155 145
f 151 393 153
f 152 150 151
f 152 155 150
f 154 151 153
f 151 154 152
f 200 119 155
f 200 155 152
f 158 156 157
f 157 144 158
f 159 156 158
f 396 395 163
f 212 396 163
f 157 156 63
f 118 120 147
f 147 120 160
f 160 392 391
f 160 391 147
f 160 162 161
f 389 146 395
f 395 146 163
f 160 161 392
f 398 161 162
f 392 161 398
f 398 162 167
f 164 243 244
f 159 124 156
f 416 166 397
f 399 124 159
f 213 124 399
f 416 417 166
f 168 212 163
f 167 400 398
f 214 400 216
f 418 416 401
f 167 216 400
f 121 215 167
f 211 171 169
f 271 177 124
f 170 171 402
f 402 171 219
f 171 170 132
f 250 173 174
f 403 383 176
f 384 177 175
f 135 404 176
f 403 176 178
f 178 176 404
f 177 405 175
f 220 405 177
f 289 220 177
f 403 178 221
f 181 138 222
f 222 138 179
f 386 407 182
f 183 385 408
f 138 181 180
f 407 181 182
f 225 183 408
f 183 423 184
f 223 181 222
f 179 74 283
f 78 184 409
f 227 186 185
f 139 185 186
f 228 186 227
f 187 186 228
f 187 139 186
f 139 187 189
f 187 284 189
f 196 239 207
f 196 209 188
f 189 236 188
f 236 196 188
f 284 236 189
f 190 193 194
f 190 191 193
f 191 142 209
f 141 194 192
f 141 190 194
f 196 191 209
f 193 197 194
f 197 193 191
f 195 200 154
f 194 198 192
f 194 197 198
f 198 199 192
f 410 195 192
f 197 191 206
f 196 206 191
f 198 201 204
f 201 198 197
f 199 198 203
f 200 411 412
f 195 411 200
f 412 205 200
f 207 206 196
f 202 197 414
f 201 202 204
f 201 197 202
f 204 203 198
f 413 205 412
f 205 210 200
f 204 202 414
f 205 238 210
f 204 414 208
f 208 238 205
f 413 208 205
f 414 415 237
f 237 415 430
f 208 414 237
f 208 237 240
f 238 208 240
f 164 210 243
f 243 210 238
f 200 152 154
f 119 200 210
f 210 164 119
f 169 244 211
f 417 416 418
f 213 247 124
f 417 245 247
f 418 245 417
f 271 124 247
f 167 215 216
f 217 216 215
f 217 215 121
f 431 214 216
f 217 121 218
f 217 218 246
f 431 216 217
f 246 432 217
f 433 419 219
f 419 402 219
f 211 219 171
f 218 121 172
f 165 173 250
f 250 249 165
f 251 434 403
f 403 221 251
f 421 406 420
f 223 222 254
f 222 179 254
f 223 224 181
f 224 182 181
f 408 422 225
f 223 226 224
f 225 422 424
f 184 426 409
f 184 423 257
f 427 426 257
f 257 426 184
f 257 230 427
f 423 425 257
f 229 187 228
f 228 231 229
f 230 231 228
f 187 229 284
f 229 231 284
f 196 236 232
f 232 239 196
f 428 233 430
f 233 241 430
f 232 234 235
f 234 232 236
f 429 260 428
f 260 233 428
f 233 260 263
f 259 234 236
f 259 261 234
f 261 235 234
f 259 236 284
f 241 237 430
f 240 237 241
f 238 240 243
f 242 240 241
f 243 240 242
f 233 242 241
f 263 242 233
f 263 243 242
f 243 263 244
f 244 263 264
f 211 244 264
f 245 433 247
f 247 433 248
f 266 248 433
f 433 219 267
f 248 271 247
f 272 165 249
f 272 249 250
f 273 434 251
f 273 440 434
f 271 289 177
f 275 220 289
f 251 252 274
f 274 273 251
f 252 251 221
f 252 221 253
f 435 421 420
f 253 274 252
f 275 436 220
f 254 255 223
f 437 226 223
f 256 255 254
f 438 254 179
f 179 283 438
f 258 230 257
f 280 258 257
f 258 231 230
f 258 284 231
f 261 260 429
f 261 262 260
f 262 263 260
f 264 263 262
f 327 211 264
f 265 219 211
f 327 265 211
f 266 433 267
f 248 266 271
f 268 267 219
f 219 270 268
f 267 269 266
f 269 271 266
f 269 317 271
f 287 268 270
f 268 269 267
f 265 270 219
f 328 165 272
f 317 289 271
f 292 275 289
f 274 441 447
f 274 253 441
f 256 276 281
f 442 438 283
f 279 442 283
f 279 277 442
f 293 281 276
f 277 293 276
f 293 278 281
f 279 300 277
f 255 256 281
f 226 437 281
f 443 257 425
f 280 439 444
f 280 444 282
f 284 258 280
f 278 226 281
f 444 295 282
f 283 296 279
f 296 283 116
f 285 295 302
f 282 284 280
f 282 285 284
f 282 295 285
f 285 259 284
f 259 285 305
f 314 261 259
f 314 264 262
f 262 261 314
f 314 315 264
f 315 314 321
f 264 315 327
f 286 265 327
f 286 270 265
f 286 287 270
f 288 269 268
f 288 268 287
f 317 269 446
f 287 286 316
f 287 316 288
f 446 316 317
f 440 273 290
f 447 291 274
f 273 274 291
f 291 290 273
f 290 291 331
f 447 331 291
f 447 343 331
f 277 294 293
f 450 445 448
f 277 300 299
f 277 299 301
f 277 301 294
f 449 301 452
f 449 452 448
f 450 448 452
f 300 279 296
f 296 297 300
f 300 297 298
f 299 300 451
f 297 296 298
f 299 452 301
f 302 305 285
f 303 116 306
f 296 116 303
f 298 296 303
f 299 451 304
f 298 303 453
f 299 304 311
f 299 311 305
f 314 259 305
f 452 299 305
f 306 116 307
f 303 306 309
f 309 453 303
f 306 307 308
f 309 306 308
f 454 310 455
f 313 314 305
f 311 304 456
f 311 312 313
f 305 311 313
f 456 457 311
f 320 458 455
f 321 313 312
f 308 307 322
f 322 307 116
f 322 116 165
f 313 321 314
f 327 316 286
f 318 317 330
f 464 440 290
f 318 292 289
f 318 289 317
f 478 292 318
f 308 322 319
f 454 459 310
f 310 459 320
f 320 455 310
f 321 312 460
f 322 165 325
f 322 325 323
f 322 323 319
f 459 461 324
f 320 459 324
f 333 324 461
f 326 315 321
f 460 462 321
f 462 326 321
f 466 326 462
f 342 325 165
f 327 315 326
f 328 342 165
f 316 326 334
f 326 316 327
f 316 334 317
f 317 334 336
f 336 339 317
f 477 464 329
f 329 464 290
f 329 290 331
f 478 330 317
f 478 318 330
f 333 461 463
f 332 333 463
f 335 333 332
f 326 466 334
f 467 334 466
f 332 338 335
f 334 467 337
f 325 342 465
f 336 334 468
f 468 339 336
f 338 332 477
f 337 467 470
f 337 470 341
f 338 477 474
f 344 317 339
f 471 469 475
f 472 476 340
f 339 346 344
f 346 339 473
f 348 340 476
f 482 474 477
f 477 329 347
f 478 317 344
f 331 345 329
f 345 331 343
f 344 480 478
f 346 483 344
f 481 479 484
f 346 473 483
f 347 329 345
f 477 347 482
f 482 347 345
