o FMA7254_BP8827_FJ2426
v 31.9134 -115.219 1245.34
v 31.6917 -115.584 1244.28
v 32.2378 -116.319 1246.31
v 31.9576 -115.18 1246.85
v 31.937 -115.868 1247.74
v 31.7737 -116.996 1243.98
v 32.1891 -117.278 1245.05
v 32.3882 -117.935 1246.26
v 32.2119 -117.683 1247.61
v 31.7599 -117.461 1248.85
v 31.8198 -119.114 1244.26
v 32.3358 -119.002 1245.77
v 32.2232 -118.906 1247.54
v 31.8287 -118.634 1248.74
v 32.0871 -119.85 1245.19
v 32.2596 -119.852 1246.54
v 31.9712 -121.09 1246.31
v 32.0252 -120.137 1247.77
v 32.0053 -120.898 1247.12
v 31.5829 -121.788 1245.64
v 31.7425 -121.734 1247.1
v 31.5089 -121.711 1248.24
v 30.3228 -111.211 1247.68
v 31.2577 -112.972 1245.97
v 30.8584 -112.027 1247.05
v 31.2567 -113.365 1247.74
v 30.6537 -112.492 1248.57
v 30.3663 -113.28 1249.78
v 30.6437 -114.258 1243.18
v 31.3625 -113.972 1244.72
v 30.2373 -114.199 1246.68
v 31.0024 -114.284 1249.26
v 30.6148 -114.554 1250.11
v 31.2762 -116.094 1243.29
v 30.6959 -115.67 1242.68
v 30.0449 -116.226 1243.63
v 30.7863 -116.114 1245.49
v 30.4506 -116.242 1244.28
v 31.2184 -115.555 1249.45
v 30.7839 -116.206 1250.34
v 30.9748 -117.458 1242.85
v 30.1434 -117.277 1243.66
v 30.789 -117.035 1244.84
v 31.006 -117.294 1245.88
v 30.8555 -116.507 1246.91
v 30.5982 -117.173 1248.3
v 30.0478 -118.294 1243.63
v 30.935 -118.93 1245.38
v 30.6242 -118.683 1244.55
v 30.1496 -119.465 1244.13
v 30.9787 -119.373 1246.54
v 30.9245 -118.39 1247.39
v 31.1101 -118.754 1250.02
v 30.387 -118.546 1248.96
v 30.6547 -119.72 1242.97
v 30.5271 -119.762 1244.79
v 30.8229 -120.244 1246.59
v 30.807 -120.166 1245.92
v 30.5627 -121 1246.48
v 30.3371 -120.988 1245.54
v 30.6824 -119.899 1247.77
v 31.1633 -121.237 1249.33
v 29.7748 -120.793 1249.57
v 30.1336 -121.24 1243.25
v 31.1523 -121.301 1244.31
v 29.9243 -122.809 1244.25
v 30.8934 -122.791 1245.42
v 29.9009 -122.165 1246.53
v 30.3287 -121.422 1247.47
v 29.6889 -122.036 1248.91
v 29.9174 -122.468 1250.69
v 29.6422 -123.887 1245.21
v 31.1224 -122.954 1246.45
v 30.2228 -123.986 1246.2
v 31.0743 -123.031 1247.72
v 30.4904 -123.709 1248.4
v 30.5782 -123.836 1247.22
v 30.4721 -123.103 1249.29
v 29.8011 -124.593 1247.99
v 28.969 -109.144 1246.55
v 29.0005 -110.462 1243.68
v 29.9547 -110.556 1245.26
v 29.5099 -110.249 1244.64
v 30.0107 -110.415 1246.3
v 29.7234 -110.157 1247.33
v 29.5728 -110.593 1248.63
v 29.9325 -111.651 1249.21
v 28.9049 -110.43 1249.5
v 29.8593 -112.227 1243.37
v 30.2689 -111.909 1244.25
v 29.0372 -112.297 1244.99
v 29.3111 -112.146 1246.2
v 29.0276 -111.686 1247.22
v 29.5775 -112.778 1247.4
v 29.3839 -113.058 1248.57
v 28.7594 -111.804 1248.47
v 29.2854 -112.115 1250.44
v 29.1836 -113.206 1242.21
v 28.767 -114.492 1241.49
v 28.9378 -113.74 1243.61
v 29.9134 -113.965 1244.96
v 30.1217 -114.202 1247.54
v 29.8105 -114.534 1248.86
v 28.6617 -113.52 1250.31
v 29.7202 -114.368 1251.17
v 30.0557 -114.796 1242.33
v 29.5143 -115.809 1241.72
v 29.7496 -115.055 1243.73
v 29.1029 -115.183 1243.03
v 29.6587 -115.5 1249.72
v 28.6111 -116.017 1251.49
v 29.7326 -117.833 1241.84
v 29.0261 -116.383 1242.72
v 29.9074 -117.284 1249.77
v 29.4009 -118.223 1252.34
v 29.1419 -116.741 1252.53
v 29.3289 -118.213 1243.01
v 29.5473 -119.534 1250.31
v 29.795 -119.628 1242.31
v 28.4381 -120.901 1242.29
v 29.197 -119.986 1243.61
v 29.7701 -120.978 1244.69
v 29.6611 -120.871 1251.66
v 28.1983 -120.503 1251.98
v 29.4432 -122.25 1243.48
v 28.6051 -121.22 1244.1
v 28.2766 -122.529 1245.21
v 29.0777 -122.641 1245.84
v 28.2337 -122.234 1251.21
v 28.323 -122.482 1252.7
v 28.8563 -123.632 1244.4
v 29.2669 -123.104 1248.02
v 28.8366 -123.521 1247.56
v 28.8189 -123.272 1249.23
v 28.3988 -123.88 1248.64
v 28.9147 -123.46 1251.4
v 28.3565 -124.452 1251.23
v 28.1028 -123.259 1250.65
v 28.4174 -124.505 1245.25
v 29.025 -124.814 1246.17
v 28.1501 -125.287 1246.59
v 29.5963 -124.76 1247.16
v 28.9332 -125.137 1247
v 28.9104 -125.237 1248.2
v 29.0315 -124.795 1249.58
v 28.0179 -108.365 1245.77
v 27.5044 -108.046 1247.18
v 28.3963 -109.42 1244.12
v 27.8307 -109.785 1243.27
v 27.4067 -108.95 1243.87
v 28.8383 -109.207 1245.15
v 27.6676 -108.574 1244.59
v 27.3569 -109.94 1245.72
v 28.403 -109.284 1248.63
v 27.4986 -109.894 1247.51
v 27.8853 -110.699 1242.59
v 28.5697 -111.019 1242.84
v 28.5009 -111.104 1245.6
v 27.9089 -110.641 1245.25
v 27.5215 -110.977 1244.38
v 27.9887 -110.294 1246.31
v 28.1106 -110.549 1247.68
v 27.3229 -110.417 1249.26
v 27.978 -110.873 1250.89
v 27.9012 -111.715 1242.04
v 27.6443 -112.168 1243.5
v 28.2288 -111.627 1244.44
v 27.9068 -112.216 1250.42
v 27.8522 -113.279 1241.39
v 27.7991 -114.343 1242.52
v 27.1242 -114.224 1242.28
v 27.1905 -113.255 1242.69
v 27.5664 -113.737 1253.03
v 27.0948 -115.111 1240.8
v 27.9307 -114.862 1241.05
v 27.0803 -115.103 1242.1
v 28.1759 -115.818 1253.3
v 27.2004 -116.604 1240.77
v 28.1706 -116.254 1242.29
v 28.2024 -116.844 1241.05
v 28.1846 -117.321 1242.32
v 27.2415 -116.634 1242.05
v 27.1527 -117.485 1242.13
v 28.2709 -117.19 1252.14
v 27.2895 -116.709 1253.25
v 28.3487 -118.718 1241.39
v 27.3431 -118.002 1240.97
v 28.0716 -118.9 1242.66
v 26.8622 -118.587 1242.39
v 27.4773 -119.017 1253.11
v 27.7754 -118.679 1254.1
v 27.4475 -119.612 1241.48
v 27.168 -120.923 1242.12
v 27.9026 -119.992 1243.15
v 26.8696 -119.709 1242.93
v 27.8946 -120.302 1253.82
v 26.9859 -121.332 1254.48
v 26.5224 -122.336 1243.19
v 27.9084 -121.366 1244.05
v 27.2865 -122.711 1245.24
v 26.7517 -121.646 1244.31
v 27.8924 -122.727 1243.38
v 26.6452 -123.669 1244.43
v 27.8546 -123.853 1246.87
v 27.6752 -123.467 1246.18
v 27.1939 -123.955 1246.87
v 26.6866 -123.592 1246.39
v 27.8207 -124.251 1248.19
v 27.2445 -124.393 1250.2
v 27.3137 -124.035 1252.9
v 27.811 -124.346 1244.93
v 27.1673 -125.214 1246.31
v 27.9038 -125.703 1247.98
v 26.8921 -125.901 1247.98
v 27.6538 -125.715 1249.99
v 27.3843 -125.955 1249.28
v 27.1555 -124.579 1249.57
v 26.7633 -124.662 1248.6
v 26.6545 -125.444 1252.18
v 27.2458 -107.945 1245.52
v 26.6999 -108.038 1244.73
v 26.2761 -107.531 1245.58
v 25.8876 -107.815 1244.77
v 26.8338 -107.607 1246.42
v 27.0536 -108.233 1248.72
v 26.4448 -107.579 1247.98
v 25.8475 -107.846 1249.39
v 26.4119 -108.688 1243.77
v 25.801 -109.117 1243.32
v 25.834 -109.259 1245.69
v 27.1699 -109.551 1246.68
v 26.2126 -108.971 1247.32
v 26.2675 -109.108 1246.29
v 26.0973 -109.145 1248.73
v 26.8709 -109.013 1250.08
v 27.1298 -110.88 1242.18
v 26.9619 -110.011 1242.72
v 26.1422 -110.671 1242.19
v 26.7483 -110.923 1244
v 26.1056 -111.04 1243.81
v 27.0937 -110.245 1244.91
v 26.1175 -110.258 1244.52
v 26.5595 -111.459 1251.4
v 26.2926 -110.781 1252.27
v 26.8762 -112.032 1241.57
v 26.0227 -112.368 1241.38
v 26.6817 -111.741 1243.38
v 25.8636 -111.623 1243.43
v 26.0855 -112.263 1253.43
v 26.5773 -113.781 1240.97
v 26.5392 -113.364 1242.53
v 26.4898 -114.259 1242.22
v 26.7352 -114.72 1253.16
v 26.9391 -114.87 1254.08
v 25.9617 -114.059 1254.43
v 25.7142 -114.821 1254.72
v 26.6443 -115.83 1240.7
v 25.7008 -115.501 1240.76
v 25.9242 -115.175 1242.1
v 26.4989 -115.841 1254.71
v 25.9134 -116.205 1254.54
v 25.8075 -116.363 1254.82
v 26.2067 -116.972 1240.74
v 26.063 -116.415 1242.04
v 25.8203 -117.602 1242.19
v 26.8977 -117.469 1254.77
v 26.3642 -117.305 1255.04
v 26.4906 -118.407 1241
v 25.2985 -118.928 1241.27
v 26.2646 -119.467 1255.08
v 26.0285 -118.302 1254.97
v 26.017 -118.446 1254.79
v 26.4583 -119.434 1241.35
v 25.4855 -120.037 1241.8
v 25.5899 -120.019 1243.37
v 26.6831 -119.841 1254.94
v 26.3912 -121.305 1254.92
v 26.1514 -121.142 1254.97
v 25.8791 -120.386 1254.72
v 25.9116 -120.65 1254.91
v 25.878 -122.524 1245.59
v 26.5597 -122.794 1254.34
v 26.3575 -122.223 1254.71
v 26.1163 -122.661 1254.69
v 25.5826 -121.826 1254.67
v 25.538 -122.41 1254.67
v 25.3295 -122.861 1254.41
v 25.9625 -124.358 1248.07
v 26.009 -123.891 1252.9
v 26.5038 -123.627 1253.96
v 25.8305 -124.026 1254.22
v 25.4416 -123.587 1254.51
v 25.9676 -124.701 1246.32
v 26.0615 -125.817 1248
v 25.8987 -124.963 1251.24
v 25.4189 -125.194 1250.75
v 26.2963 -124.95 1253.14
v 25.8358 -124.555 1252.32
v 25.5846 -125.741 1252.92
v 25.9499 -126.391 1250.29
v 24.9249 -126.519 1250.45
v 25.5719 -126.275 1251.93
v 25.0794 -107.238 1245.79
v 25.0669 -108.036 1244.52
v 25.2689 -106.971 1246.96
v 25.1189 -106.928 1247.8
v 24.9285 -107.13 1248.95
v 24.6544 -108.297 1247.98
v 24.6291 -109.445 1243.4
v 25.0076 -109.186 1245.74
v 25.2514 -108.615 1246.9
v 25.1628 -109.496 1250.66
v 24.317 -108.577 1249.98
v 24.9363 -109.112 1251.8
v 25.1433 -110.59 1242.43
v 24.9781 -110.444 1244.49
v 24.3509 -110.208 1253.19
v 23.975 -111.078 1253.44
v 25.1345 -111.712 1253.75
v 24.296 -111.309 1253.84
v 25.2528 -112.049 1241.65
v 24.0632 -112.515 1242.08
v 25.4506 -112.479 1243.03
v 24.8783 -111.783 1243.62
v 24.3627 -112.391 1243.63
v 24.4445 -112.101 1253.83
v 25.4326 -113.765 1242.5
v 24.841 -113.393 1241.33
v 24.7579 -113.759 1242.79
v 25.3437 -114.248 1254.33
v 25.0552 -113.772 1254.35
v 25.317 -114.784 1242.29
v 24.3096 -115.657 1241.1
v 25.2474 -116.124 1242.19
v 25.0165 -116.852 1240.87
v 24.9643 -117.329 1242.35
v 24.0258 -117.047 1241.18
v 24.1064 -116.111 1242.66
v 23.9742 -117.497 1242.77
v 25.1531 -117.882 1240.99
v 23.9251 -118.115 1241.41
v 25.2273 -118.413 1242.56
v 23.9456 -118.336 1243
v 24.2798 -119.498 1241.87
v 24.3093 -121.078 1243.15
v 24.6932 -124.361 1253.98
v 24.7498 -124.371 1254.18
v 24.7934 -125.29 1250.9
v 24.7503 -126.076 1253.07
v 24.8072 -125.175 1253.89
v 24.5821 -124.958 1254.04
v 23.9351 -125.308 1253.54
v 23.5488 -125.568 1253.33
v 23.5277 -126.238 1251.14
v 24.527 -126.54 1252.28
v 24.3247 -126.656 1251.82
v 23.9598 -126.256 1253.12
v 23.518 -126.529 1252.66
v 23.5217 -126.618 1251.87
v 23.3606 -126.021 1253.22
v 23.5726 -106.589 1248.84
v 23.3712 -106.637 1247.56
v 23.3897 -106.502 1248.21
v 22.7143 -106.635 1249.86
v 23.7082 -107.519 1245.84
v 23.8322 -108.209 1247.74
v 22.6326 -108.192 1248.36
v 23.8877 -107.189 1250.03
v 23.727 -108.082 1249.33
v 22.7722 -107.821 1249.31
v 22.7658 -108.418 1252.52
v 23.7174 -109.021 1244.42
v 23.9601 -109.23 1246.14
v 22.7556 -108.973 1247.42
v 22.7812 -108.801 1252.8
v 22.5864 -109.383 1252.89
v 23.9743 -110.964 1244.74
v 22.9045 -110.995 1245.89
v 23.7288 -110.668 1253.56
v 22.4432 -113.876 1243.11
v 23.5177 -114.648 1241.71
v 23.401 -115.286 1243.34
v 23.3956 -116.102 1241.51
v 23.1763 -117.265 1241.61
v 22.0575 -117.369 1242.42
v 23.4688 -119.212 1243.86
v 22.9319 -118.465 1243.67
v 23.03 -117.768 1243.38
v 22.2724 -118.368 1242.44
v 22.751 -119.262 1242.59
v 22.2256 -120.28 1244.12
v 22.9443 -125.636 1252.96
v 22.5466 -125.559 1252.79
v 22.9208 -126.347 1252.7
v 22.9265 -126.411 1252.06
v 22.7679 -126.38 1252.3
v 22.3565 -125.999 1252.07
v 22.1642 -125.883 1252.25
v 22.3503 -125.954 1252.51
v 21.9916 -106.41 1248.99
v 22.1647 -106.431 1249.6
v 21.6338 -106.726 1248.66
v 21.2409 -107.599 1248.31
v 22.0928 -107.8 1250.55
v 21.6818 -107.691 1249.95
v 22.3912 -107.672 1251.9
v 22.0447 -107.091 1251.29
v 21.5306 -107.22 1251.76
v 21.383 -106.767 1251.11
v 21.1217 -107.312 1251.85
v 21.6459 -108.375 1252.13
v 21.6493 -108.311 1252.29
v 22.5252 -109.068 1252.45
v 22.3162 -108.962 1252.71
v 22.0881 -108.374 1252.51
v 21.9748 -108.737 1252.52
v 21.9163 -116.242 1242.72
v 21.9496 -117.652 1244.2
v 21.0757 -124.413 1251.25
v 20.8698 -124.253 1251.65
v 20.4635 -106.511 1250.69
v 20.0595 -106.785 1250.44
v 19.7433 -107.368 1250.43
v 20.9067 -106.813 1251.37
v 20.744 -107.455 1251.75
v 20.6832 -107.637 1251.67
v 20.3403 -107.02 1251.42
v 20.2805 -107.679 1251.35
v 20.1492 -106.652 1251
v 20.0745 -108.704 1250.82
v 19.8904 -106.782 1250.77
v 19.6459 -107.326 1250.7
v 19.7707 -107.076 1250.95
v 19.9369 -106.98 1251.13
v 19.8532 -107.42 1251.14
v 19.8538 -108.179 1251.21
v 20.3172 -118.102 1244.06
v 20.1749 -118.801 1244.49
v 20.3505 -118.718 1246.23
v 20.0093 -117.737 1246.21
v 18.9466 -118.106 1245.66
v 19.3188 -122.428 1250.56
v 18.6986 -110.522 1250.27
v 17.8861 -113.282 1249.57
v 18.07 -113.938 1248.87
v 17.8025 -113.908 1249.78
v 17.6877 -117.226 1249.3
v 17.7123 -118.789 1249.23
v 17.0317 -117.467 1248.48
v 16.8496 -118.478 1248.3
v 16.8613 -118.914 1248.34
v 17.1573 -117.594 1249.42
v 17.105 -118.592 1249.38
v 16.8103 -117.55 1248.8
v 16.7679 -117.781 1249.03
v 16.5969 -118.706 1248.75
v 16.8455 -119.181 1249.09
v 17.3404 -119.365 1248.3
v 16.9394 -119.397 1248.87
v 25.7142 -114.821 1254.72
v 25.7142 -114.821 1254.72
v 25.7142 -114.821 1254.72
v 25.8075 -116.363 1254.82
v 25.8075 -116.363 1254.82
v 26.3642 -117.305 1255.04
v 26.2646 -119.467 1255.08
v 26.0285 -118.302 1254.97
v 26.017 -118.446 1254.79
v 25.8791 -120.386 1254.72
v 25.9116 -120.65 1254.91
v 25.5826 -121.826 1254.67
v 25.5826 -121.826 1254.67
v 25.3295 -122.861 1254.41
v 25.3295 -122.861 1254.41
v 25.4416 -123.587 1254.51
v 23.975 -111.078 1253.44
v 24.296 -111.309 1253.84
v 24.296 -111.309 1253.84
v 24.4445 -112.101 1253.83
v 24.4445 -112.101 1253.83
v 25.3437 -114.248 1254.33
v 25.3437 -114.248 1254.33
v 25.0552 -113.772 1254.35
v 25.0552 -113.772 1254.35
v 25.0552 -113.772 1254.35
v 24.6932 -124.361 1253.98
v 24.7498 -124.371 1254.18
v 24.5821 -124.958 1254.04
v 24.5821 -124.958 1254.04
v 24.5821 -124.958 1254.04
v 23.9351 -125.308 1253.54
v 23.9351 -125.308 1253.54
v 23.9351 -125.308 1253.54
v 23.5488 -125.568 1253.33
v 23.5488 -125.568 1253.33
v 23.5488 -125.568 1253.33
v 22.5864 -109.383 1252.89
v 22.5864 -109.383 1252.89
v 23.7288 -110.668 1253.56
v 23.7288 -110.668 1253.56
v 22.9443 -125.636 1252.96
v 22.9443 -125.636 1252.96
v 22.9443 -125.636 1252.96
v 22.5466 -125.559 1252.79
v 21.6459 -108.375 1252.13
v 21.6493 -108.311 1252.29
v 22.3162 -108.962 1252.71
v 21.9748 -108.737 1252.52
v 21.9748 -108.737 1252.52
v 20.8698 -124.253 1251.65
v 20.4635 -106.511 1250.69
v 20.6832 -107.637 1251.67
v 20.6832 -107.637 1251.67
v 20.6832 -107.637 1251.67
v 20.2805 -107.679 1251.35
v 20.2805 -107.679 1251.35
v 20.1492 -106.652 1251
v 19.8904 -106.782 1250.77
v 19.8538 -108.179 1251.21
v 19.3188 -122.428 1250.56
v 17.7123 -118.789 1249.23
v 17.1573 -117.594 1249.42
v 17.105 -118.592 1249.38
v 17.105 -118.592 1249.38
v 16.7679 -117.781 1249.03
v 16.5969 -118.706 1248.75
f 26 5 4
f 7 6 2
f 3 1 4
f 2 1 7
f 3 7 1
f 4 5 3
f 3 8 7
f 7 11 6
f 8 3 9
f 5 9 3
f 9 13 8
f 14 9 10
f 5 10 9
f 14 10 53
f 15 7 12
f 15 11 7
f 11 15 65
f 7 8 12
f 13 16 8
f 8 16 12
f 15 12 16
f 9 14 13
f 14 18 13
f 13 18 16
f 14 62 18
f 14 53 62
f 15 17 20
f 20 65 15
f 16 18 19
f 15 16 17
f 16 19 17
f 19 21 17
f 18 22 19
f 19 22 21
f 17 21 73
f 73 20 17
f 21 22 75
f 21 75 73
f 62 22 18
f 90 24 30
f 84 23 25
f 23 27 25
f 27 23 87
f 30 24 1
f 25 24 84
f 27 26 25
f 28 32 27
f 27 87 28
f 28 105 33
f 29 90 30
f 29 89 90
f 89 29 98
f 24 4 1
f 24 26 4
f 24 25 26
f 31 37 45
f 31 45 102
f 31 101 37
f 32 5 26
f 26 27 32
f 32 33 39
f 28 33 32
f 2 34 29
f 29 30 2
f 34 35 29
f 35 106 29
f 98 29 106
f 36 38 108
f 30 1 2
f 38 37 101
f 45 46 103
f 39 10 5
f 5 32 39
f 39 40 10
f 39 33 40
f 40 53 10
f 33 105 40
f 35 41 107
f 107 41 112
f 55 112 41
f 34 2 6
f 6 41 34
f 35 34 41
f 48 44 43
f 43 37 38
f 43 44 37
f 43 38 42
f 43 49 48
f 42 38 36
f 43 42 49
f 45 44 52
f 37 44 45
f 52 46 45
f 46 54 114
f 53 40 115
f 119 112 55
f 41 6 11
f 41 11 55
f 55 11 65
f 42 47 49
f 50 49 47
f 47 117 50
f 49 56 48
f 50 56 49
f 44 48 51
f 52 44 51
f 51 48 58
f 51 58 57
f 52 51 61
f 52 54 46
f 52 61 54
f 62 53 123
f 61 63 54
f 54 63 118
f 123 53 115
f 55 65 64
f 119 55 64
f 122 60 56
f 50 122 56
f 58 48 56
f 51 57 61
f 56 60 58
f 57 69 61
f 59 57 58
f 69 57 59
f 58 60 59
f 68 59 60
f 61 69 70
f 61 70 63
f 66 64 65
f 64 66 125
f 67 65 20
f 66 65 67
f 73 67 20
f 128 68 60
f 128 60 122
f 68 69 59
f 22 78 75
f 22 62 78
f 71 78 62
f 62 123 71
f 123 130 71
f 66 67 72
f 73 77 74
f 73 75 77
f 67 73 74
f 74 72 67
f 77 142 74
f 78 76 75
f 76 77 75
f 142 77 79
f 77 76 79
f 79 76 145
f 78 145 76
f 82 83 151
f 151 83 148
f 151 80 84
f 84 80 85
f 80 147 154
f 154 85 80
f 151 146 80
f 86 85 154
f 157 81 89
f 90 82 24
f 24 82 84
f 84 82 151
f 81 83 90
f 90 83 82
f 85 86 23
f 23 84 85
f 92 93 161
f 93 162 161
f 23 86 87
f 162 96 163
f 87 86 88
f 88 97 87
f 98 169 165
f 89 81 90
f 98 157 89
f 91 101 92
f 91 92 158
f 93 92 94
f 94 102 95
f 96 93 94
f 95 96 94
f 96 162 93
f 104 96 95
f 97 105 28
f 28 87 97
f 104 95 103
f 105 97 173
f 98 106 99
f 106 107 99
f 99 107 175
f 98 99 169
f 170 109 100
f 92 101 31
f 94 31 102
f 94 92 31
f 102 45 103
f 95 102 103
f 103 110 104
f 177 105 173
f 106 35 107
f 175 107 180
f 108 101 100
f 36 108 109
f 36 109 113
f 100 109 108
f 170 113 109
f 108 38 101
f 46 110 103
f 46 114 110
f 40 105 116
f 104 110 111
f 110 114 111
f 177 116 105
f 107 112 180
f 179 181 113
f 36 113 42
f 113 117 42
f 42 117 47
f 113 181 117
f 115 40 116
f 111 114 184
f 114 118 184
f 112 119 186
f 180 112 186
f 117 181 188
f 114 54 118
f 118 124 190
f 186 120 192
f 192 120 193
f 117 121 50
f 64 120 119
f 117 188 121
f 119 120 186
f 188 194 121
f 50 121 122
f 121 126 122
f 121 194 126
f 118 63 124
f 124 63 129
f 123 115 196
f 64 125 120
f 126 128 122
f 126 127 128
f 204 133 128
f 132 70 69
f 70 132 134
f 63 70 129
f 129 70 138
f 138 70 134
f 130 210 136
f 120 125 202
f 131 202 125
f 202 193 120
f 131 66 72
f 66 131 125
f 139 131 72
f 211 131 139
f 133 68 128
f 205 128 127
f 204 128 205
f 132 69 68
f 68 133 132
f 133 135 132
f 204 208 133
f 134 132 135
f 209 138 134
f 135 209 134
f 130 136 71
f 78 71 136
f 137 78 136
f 140 72 74
f 140 74 142
f 142 143 140
f 139 72 140
f 140 143 141
f 139 140 141
f 144 142 79
f 142 144 143
f 144 79 145
f 143 144 213
f 143 213 141
f 141 213 214
f 145 215 144
f 78 137 145
f 152 220 146
f 221 220 152
f 226 225 147
f 148 149 150
f 151 152 146
f 152 151 148
f 152 148 150
f 159 161 153
f 221 152 150
f 80 146 147
f 154 147 225
f 155 231 161
f 155 232 231
f 154 88 86
f 154 235 88
f 235 154 225
f 156 157 165
f 236 156 165
f 148 83 81
f 81 157 149
f 157 98 165
f 148 81 149
f 149 157 156
f 237 149 156
f 239 160 241
f 158 92 161
f 159 167 158
f 160 167 159
f 166 167 160
f 158 161 159
f 241 160 159
f 159 153 241
f 161 162 155
f 155 162 163
f 164 97 88
f 163 96 168
f 88 235 164
f 163 168 243
f 244 164 235
f 244 173 164
f 164 173 97
f 245 165 169
f 236 165 245
f 167 166 100
f 166 170 100
f 166 172 170
f 239 166 160
f 247 172 166
f 167 100 91
f 158 167 91
f 91 100 101
f 96 104 168
f 168 104 253
f 168 253 243
f 169 99 175
f 250 245 169
f 250 169 175
f 251 171 172
f 171 170 172
f 253 104 111
f 173 255 254
f 174 180 178
f 174 178 257
f 174 175 180
f 250 175 174
f 170 176 179
f 171 176 170
f 176 264 182
f 170 179 113
f 177 173 254
f 185 253 111
f 186 187 180
f 178 180 187
f 181 183 188
f 182 181 179
f 182 183 181
f 179 176 182
f 183 189 188
f 182 264 183
f 264 265 183
f 265 189 183
f 263 178 187
f 111 184 185
f 190 184 118
f 184 190 185
f 177 266 116
f 191 116 266
f 191 266 276
f 192 187 186
f 192 268 187
f 189 195 188
f 342 195 189
f 115 116 191
f 191 276 196
f 192 193 273
f 188 195 194
f 194 199 126
f 194 195 199
f 199 195 201
f 129 285 124
f 191 196 115
f 123 196 130
f 130 196 197
f 130 197 282
f 272 190 279
f 190 124 279
f 197 196 276
f 198 193 202
f 199 127 126
f 199 200 127
f 199 201 200
f 200 201 281
f 289 129 138
f 283 282 197
f 203 198 202
f 202 131 211
f 202 211 203
f 293 345 203
f 205 127 200
f 204 205 206
f 200 207 205
f 207 200 281
f 205 207 206
f 206 207 288
f 206 218 204
f 218 208 204
f 206 288 218
f 133 208 135
f 217 209 135
f 138 209 298
f 210 137 136
f 290 130 282
f 210 130 290
f 290 282 284
f 297 210 290
f 212 211 139
f 211 212 203
f 212 139 141
f 293 203 212
f 212 294 293
f 212 141 214
f 214 294 212
f 218 288 348
f 144 216 213
f 144 215 216
f 216 215 300
f 208 217 135
f 218 217 208
f 209 217 295
f 295 298 209
f 218 296 217
f 218 348 296
f 210 297 137
f 145 137 219
f 215 145 219
f 214 213 300
f 216 300 213
f 300 215 302
f 220 222 224
f 222 220 221
f 222 305 224
f 222 221 223
f 228 304 223
f 220 224 146
f 146 224 147
f 226 147 224
f 224 305 306
f 226 227 225
f 235 225 227
f 237 150 149
f 221 150 228
f 228 150 237
f 229 228 237
f 238 229 237
f 228 223 221
f 304 228 229
f 153 233 241
f 233 230 241
f 230 242 241
f 242 230 310
f 231 153 161
f 231 233 153
f 155 234 232
f 233 231 232
f 311 230 233
f 232 311 233
f 234 155 163
f 308 232 234
f 312 234 163
f 312 313 234
f 235 314 244
f 227 314 235
f 156 236 237
f 237 236 238
f 315 238 321
f 239 242 240
f 242 316 240
f 316 248 240
f 242 239 241
f 243 312 163
f 243 318 312
f 173 244 249
f 249 244 319
f 238 236 245
f 321 238 246
f 246 238 245
f 239 247 166
f 247 240 248
f 239 240 247
f 248 251 247
f 248 323 251
f 243 253 331
f 249 255 173
f 319 255 249
f 258 250 174
f 246 250 328
f 328 250 258
f 328 258 333
f 172 247 251
f 251 252 171
f 246 245 250
f 252 176 171
f 328 321 246
f 251 327 252
f 327 332 252
f 323 327 251
f 254 255 260
f 255 256 260
f 256 267 260
f 253 330 331
f 481 262 460
f 460 262 465
f 483 482 461
f 258 174 257
f 333 258 335
f 259 176 252
f 259 264 176
f 259 252 332
f 334 264 259
f 332 334 259
f 177 254 260
f 185 261 253
f 185 272 261
f 261 330 253
f 463 330 261
f 258 257 263
f 263 257 178
f 335 263 340
f 335 258 263
f 336 265 264
f 334 336 264
f 177 260 266
f 266 260 267
f 266 267 276
f 271 464 468
f 465 262 467
f 261 272 463
f 268 263 187
f 265 342 189
f 340 263 268
f 192 273 268
f 269 340 268
f 269 268 273
f 195 342 275
f 336 342 265
f 190 272 185
f 267 270 276
f 467 466 465
f 468 469 271
f 271 469 280
f 467 470 466
f 269 273 274
f 273 193 274
f 198 345 274
f 345 344 274
f 201 195 275
f 201 275 281
f 197 276 277
f 270 278 276
f 124 285 279
f 278 277 276
f 466 470 278
f 469 471 280
f 470 472 278
f 198 274 193
f 345 198 203
f 197 277 283
f 284 282 283
f 277 278 284
f 284 283 277
f 292 284 278
f 129 287 285
f 472 286 278
f 286 292 278
f 472 473 286
f 293 391 345
f 281 288 207
f 391 293 354
f 392 288 281
f 289 138 298
f 289 298 346
f 289 287 129
f 284 291 290
f 291 297 290
f 284 292 291
f 297 291 350
f 350 291 292
f 473 475 286
f 351 350 292
f 473 347 475
f 347 488 475
f 392 348 288
f 354 293 294
f 217 296 295
f 353 348 501
f 219 137 297
f 302 215 219
f 297 299 219
f 219 299 302
f 302 349 355
f 302 299 349
f 352 346 298
f 299 297 350
f 349 299 350
f 214 300 301
f 294 214 301
f 302 355 300
f 363 361 306
f 222 223 303
f 303 305 222
f 223 304 303
f 304 365 303
f 363 306 305
f 305 362 363
f 303 362 305
f 306 226 224
f 307 226 306
f 369 308 234
f 361 307 306
f 361 368 307
f 366 308 370
f 308 369 370
f 227 226 307
f 227 307 368
f 314 227 368
f 313 369 234
f 238 315 229
f 309 304 229
f 315 309 229
f 304 309 372
f 322 309 315
f 322 372 309
f 310 230 311
f 304 372 365
f 310 366 373
f 311 232 308
f 366 311 308
f 311 366 310
f 244 314 317
f 321 322 315
f 324 248 316
f 377 324 316
f 316 242 310
f 316 310 373
f 316 373 377
f 317 319 244
f 320 319 317
f 477 379 326
f 476 479 499
f 322 321 328
f 324 323 248
f 329 327 323
f 324 329 323
f 325 329 324
f 325 324 377
f 331 480 243
f 243 480 318
f 320 255 319
f 320 256 255
f 484 462 478
f 477 326 485
f 328 333 381
f 329 332 327
f 328 381 322
f 382 329 325
f 338 334 332
f 337 333 335
f 333 383 381
f 383 333 337
f 329 338 332
f 338 329 382
f 336 334 338
f 337 335 340
f 383 337 384
f 339 336 338
f 339 338 388
f 274 344 269
f 269 344 341
f 269 341 340
f 337 340 341
f 342 336 343
f 343 275 342
f 336 339 343
f 386 281 275
f 386 275 343
f 388 343 339
f 281 386 439
f 344 345 390
f 344 390 341
f 390 345 391
f 392 281 439
f 287 289 346
f 474 486 487
f 348 353 296
f 296 353 295
f 352 298 295
f 295 353 352
f 486 491 487
f 350 357 349
f 347 492 488
f 493 494 489
f 350 351 360
f 495 360 490
f 354 294 301
f 356 301 300
f 359 354 301
f 395 354 359
f 300 355 356
f 357 355 349
f 358 355 357
f 357 360 358
f 355 358 356
f 360 357 350
f 359 301 356
f 396 395 359
f 358 359 356
f 359 358 396
f 394 358 360
f 362 400 363
f 362 402 400
f 372 402 365
f 365 362 303
f 365 402 362
f 370 405 366
f 368 361 364
f 404 369 313
f 368 406 314
f 406 371 314
f 314 371 317
f 372 403 402
f 366 367 373
f 374 373 367
f 374 428 378
f 374 367 428
f 375 320 317
f 376 312 318
f 375 500 320
f 497 476 499
f 500 375 415
f 317 371 375
f 415 498 500
f 413 312 376
f 414 498 415
f 376 507 413
f 380 372 322
f 380 403 372
f 380 445 403
f 377 373 378
f 378 373 374
f 325 377 378
f 381 380 322
f 378 382 325
f 381 417 380
f 337 341 384
f 385 383 384
f 383 417 381
f 385 417 383
f 338 382 388
f 382 378 440
f 384 341 389
f 341 390 389
f 385 384 389
f 343 388 387
f 386 343 387
f 387 439 386
f 389 390 438
f 388 382 418
f 388 418 387
f 438 390 391
f 391 354 419
f 354 397 419
f 393 496 502
f 504 399 360
f 504 360 495
f 419 397 398
f 399 504 420
f 398 399 420
f 398 510 419
f 397 354 395
f 394 396 358
f 399 394 360
f 396 397 395
f 398 397 396
f 399 398 396
f 394 399 396
f 363 401 361
f 400 401 363
f 361 401 364
f 409 364 401
f 400 421 401
f 366 405 367
f 400 402 511
f 370 369 404
f 404 405 370
f 367 405 428
f 407 368 364
f 368 407 406
f 415 371 406
f 404 313 411
f 415 375 371
f 408 406 407
f 408 415 406
f 364 409 407
f 409 408 407
f 410 412 415
f 408 410 415
f 411 426 404
f 424 408 409
f 410 408 424
f 512 505 506
f 425 513 412
f 410 425 412
f 423 403 445
f 416 312 413
f 312 411 313
f 412 508 415
f 506 505 509
f 312 416 411
f 508 414 415
f 413 507 416
f 428 430 378
f 418 382 440
f 440 378 447
f 385 389 437
f 437 389 438
f 437 417 385
f 418 440 439
f 387 418 439
f 419 510 442
f 401 421 409
f 424 409 421
f 403 422 402
f 511 402 422
f 511 422 431
f 422 403 423
f 422 423 518
f 518 423 432
f 423 444 432
f 432 444 443
f 410 424 427
f 427 425 410
f 404 515 405
f 515 404 514
f 425 427 435
f 513 425 435
f 513 435 516
f 431 429 511
f 421 517 424
f 424 517 427
f 434 427 517
f 427 434 435
f 436 430 428
f 519 516 435
f 433 517 518
f 518 432 433
f 517 433 434
f 443 433 432
f 434 433 435
f 435 433 443
f 435 443 446
f 446 519 435
f 423 445 444
f 430 436 447
f 430 447 378
f 380 417 441
f 441 445 380
f 449 445 441
f 438 441 437
f 437 441 417
f 439 440 448
f 392 439 448
f 440 447 448
f 453 504 503
f 504 453 420
f 457 420 453
f 420 457 520
f 443 444 446
f 446 452 519
f 522 447 436
f 445 449 454
f 445 454 444
f 444 454 455
f 444 455 446
f 451 450 441
f 438 451 441
f 450 449 441
f 451 438 458
f 448 523 392
f 524 447 522
f 521 447 524
f 458 438 391
f 419 458 391
f 442 459 419
f 457 459 520
f 446 525 452
f 450 454 449
f 451 459 456
f 458 459 451
f 454 450 456
f 450 451 456
f 453 452 525
f 525 457 453
f 459 457 456
f 454 456 455
f 525 526 457
f 459 458 419
