o FMA7262_BP8088_FJ2437
v 12.8912 -131.28 1219
v 12.9962 -131.909 1218.95
v 12.9467 -131.908 1219.26
v 13.0702 -131.575 1218.66
v 13.1853 -132.512 1219.24
v 13.4677 -131.892 1218.35
v 12.934 -131.403 1219.56
v 13.2595 -132.483 1219.81
v 13.3045 -131.633 1220.13
v 12.9203 -130.73 1219.3
v 13.0283 -130.723 1218.7
v 13.1537 -130.397 1218.7
v 12.9925 -130.435 1219.01
v 13.0607 -130.407 1219.33
v 13.2757 -130.149 1219.03
v 13.3561 -130.136 1219.32
v 13.0408 -130.757 1219.61
v 13.4939 -130.52 1219.91
v 13.7876 -133.291 1219.22
v 15.1815 -134.278 1218.87
v 15.2239 -134.682 1219.76
v 15.1594 -134.411 1220.66
v 15.2559 -133.532 1221.16
v 13.4901 -132.526 1218.66
v 14.1916 -132.64 1218.28
v 14.0786 -131.851 1218.08
v 14.4876 -131.094 1218.08
v 14.7186 -132.516 1218.15
v 13.7082 -133.196 1219.82
v 13.7746 -132.626 1220.42
v 14.1646 -131.488 1220.64
v 13.5512 -130.776 1218.2
v 13.6089 -130.114 1218.75
v 13.5847 -130.017 1219.31
v 13.8674 -130.436 1218.24
v 13.9271 -130.001 1219.3
v 14.763 -130.388 1218.75
v 13.5759 -130.17 1219.65
v 13.9015 -130.071 1219.62
v 14.1595 -130.508 1220.18
v 14.5901 -130.968 1220.52
v 14.8922 -130.698 1220.23
v 14.79 -130.333 1219.62
v 16.404 -136.164 1223.65
v 16.9053 -136.159 1223.18
v 17.5667 -137.063 1223.54
v 17.7812 -136.215 1222.82
v 16.1512 -136.163 1224.21
v 16.1676 -136.167 1224.51
v 16.3477 -136.47 1224.5
v 16.5257 -136.513 1224.81
v 16.3001 -136.184 1224.79
v 16.5805 -136.708 1224.18
v 16.6273 -136.238 1225.07
v 16.8421 -136.952 1224.51
v 17.6557 -137.468 1224.21
v 17.7952 -137.178 1225.26
v 16.7864 -136.689 1230.87
v 17.5269 -136.373 1230.09
v 17.3418 -137.063 1232.29
v 16.3652 -134.725 1218.54
v 16.5382 -134.023 1218.25
v 16.9268 -134.747 1218.26
v 16.9841 -134.117 1218.16
v 17.3052 -135.112 1218.23
v 17.2461 -134.747 1218.07
v 17.6518 -134.185 1217.55
v 17.2832 -134.175 1217.98
v 17.7426 -134.793 1217.58
v 16.3835 -134.804 1221.43
v 17.1718 -135.569 1221.22
v 16.1037 -135.844 1223.95
v 16.3644 -135.574 1223.6
v 16.3234 -135.343 1223.94
v 16.6759 -135.294 1223.64
v 16.6076 -135.205 1223.97
v 17.0539 -135.187 1223.97
v 17.4793 -135.875 1222.8
v 17.4575 -135.514 1222.09
v 17.6806 -135.572 1222.44
v 17.7198 -135.585 1222.74
v 17.4948 -135.58 1222.94
v 17.5142 -134.946 1222.29
v 17.7715 -135.832 1222.13
v 17.7793 -135.882 1222.56
v 17.8108 -135.282 1222.55
v 16.0982 -135.87 1224.51
v 16.1188 -135.558 1224.22
v 16.2226 -135.569 1224.54
v 16.3028 -135.882 1224.85
v 16.3183 -135.349 1224.24
v 16.7356 -135.923 1225.13
v 16.6525 -135.31 1224.53
v 16.646 -135.497 1224.85
v 17.0037 -135.634 1225.07
v 16.5013 -135.504 1230.84
v 17.8601 -135.223 1229.71
v 17.8863 -134.333 1229.68
v 18.056 -134.03 1229.4
v 17.9698 -134.064 1230.13
v 16.4634 -136.126 1231.95
v 16.6388 -135.187 1231.5
v 17.0569 -135.767 1232.69
v 17.8617 -131.756 1216.04
v 17.926 -131.423 1216.03
v 15.8922 -132.073 1218.37
v 16.4075 -131.454 1218.96
v 16.7416 -132.718 1218.37
v 16.7713 -131.825 1218.71
v 16.8083 -131.481 1218.98
v 17.044 -132.97 1218.31
v 17.0599 -132.415 1218.41
v 17.1181 -131.814 1218.34
v 17.1191 -131.284 1218.68
v 17.3357 -131.214 1217.21
v 17.4774 -131.928 1217.33
v 17.5832 -133.278 1217.95
v 16.1586 -131.092 1219.56
v 16.4135 -132.942 1221.53
v 16.4847 -131.576 1220.48
v 16.4161 -131.337 1220.14
v 16.6629 -132.414 1221.28
v 16.8314 -131.908 1220.8
v 16.8016 -131.655 1220.47
v 16.797 -131.345 1219.6
v 16.7958 -131.488 1220.19
v 17.3649 -132.145 1221.35
v 17.1272 -131.289 1219.57
v 17.1336 -131.562 1220.44
v 17.329 -132.606 1221.63
v 17.3794 -131.706 1221.02
v 17.5448 -131.856 1221.7
v 17.4197 -131.302 1220.43
v 17.25 -133.215 1221.9
v 17.6912 -132.29 1222.73
v 17.6362 -132.855 1222
v 17.6402 -132.532 1222.04
v 17.9343 -133.227 1222.22
v 17.9604 -132.898 1222.33
v 17.83 -132.597 1226.5
v 18.1457 -133.415 1226.67
v 18.0863 -133.56 1228.89
v 18.0334 -133.856 1233
v 18.1532 -133.584 1233.34
v 18.181 -133.599 1234.22
v 17.6474 -130.593 1217.24
v 17.6926 -130.39 1219.11
v 17.8469 -130.006 1218.21
v 17.844 -129.252 1219.38
v 17.8132 -130.436 1220.82
v 18.0277 -128.926 1220.03
v 17.9353 -130.249 1222.55
v 18.0611 -130.707 1226.28
v 18.0738 -128.656 1219.33
v 18.4342 -128.291 1219.39
v 18.9522 -136.392 1218.66
v 18.5894 -136.302 1222.4
v 18.8732 -136.655 1222.73
v 18.013 -136.59 1225.56
v 18.6438 -136.613 1225.83
v 19.3069 -137.214 1225.91
v 18.0505 -137.711 1230.82
v 19.3826 -137.735 1230.17
v 19.7989 -134.206 1214.8
v 18.9888 -133.494 1215.46
v 18.5171 -135.436 1217.46
v 18.103 -135.439 1223.04
v 18.108 -135.368 1223.43
v 18.1674 -135.258 1222.82
v 18.1405 -134.85 1222.58
v 19.6547 -134.491 1222.94
v 19.9305 -134.22 1223.39
v 20.0015 -134.835 1223.67
v 18.3233 -136.007 1225.62
v 18.3138 -135.343 1225.13
v 19.0277 -136.058 1226.17
v 19.0192 -135.474 1226.03
v 19.236 -135.168 1225.76
v 19.0649 -134.278 1226.5
v 19.2132 -135.1 1224.51
v 19.3297 -135.183 1226.33
v 19.4905 -134.892 1226.07
v 19.4388 -134.9 1226.38
v 19.4631 -134.59 1226.08
v 19.3431 -134.6 1226.43
v 19.3047 -134.223 1225.65
v 19.9337 -134.899 1225.61
v 19.9497 -134.595 1225.49
v 20.224 -135.094 1225.16
v 18.2082 -134.056 1228.76
v 19.0991 -134.436 1227.01
v 19.4652 -135.235 1226.65
v 19.3731 -135.159 1228.66
v 19.5309 -134.919 1226.93
v 19.7495 -135.552 1226.92
v 19.6662 -134.994 1227.6
v 19.882 -135.266 1227.23
v 20.2214 -135.411 1227.55
v 18.1938 -134.405 1229.23
v 18.7546 -135.65 1229.42
v 18.2676 -134.345 1233.36
v 18.7666 -134.067 1235.12
v 19.6927 -134.658 1235.7
v 18.7776 -134.146 1236.25
v 19.0849 -134.368 1236.29
v 19.0919 -134.333 1236.91
v 19.6812 -134.591 1237.41
v 19.899 -134.443 1238.39
v 19.5439 -132.763 1214.51
v 18.255 -132.352 1215.72
v 18.4037 -132.117 1215.36
v 18.6342 -131.742 1215.31
v 19.4066 -133.264 1214.76
v 19.5888 -131.511 1215.08
v 18.5045 -133.51 1222.41
v 18.501 -133.365 1222.51
v 18.6055 -133.252 1223.05
v 18.804 -133.528 1222.47
v 18.2575 -133.638 1229.66
v 19.4785 -132.528 1230.73
v 18.3236 -133.971 1233.66
v 18.2012 -133.566 1233.05
v 18.3032 -133.214 1233.45
v 18.4136 -133.669 1235.16
v 18.411 -132.998 1234.86
v 18.7196 -134.018 1236.6
v 19.0281 -133.447 1236.62
v 19.9058 -132.636 1236.7
v 18.711 -130.526 1216.29
v 19.6195 -129.869 1216.76
v 18.4031 -129.616 1217.84
v 18.6774 -129.043 1221.94
v 19.0058 -128.921 1223.05
v 19.4518 -128.937 1223.07
v 18.7198 -129.137 1225.33
v 19.0424 -128.978 1225.97
v 18.4501 -131.441 1228.13
v 19.1302 -129.94 1228.11
v 20.227 -130.336 1231.29
v 20.4392 -130.016 1231.34
v 19.7272 -131.239 1233.35
v 20.1692 -130.44 1232.5
v 20.2897 -130.057 1232.21
v 20.4995 -129.836 1231.95
v 20.5292 -130.025 1232.65
v 19.9362 -131.086 1234.07
v 19.4545 -128.703 1219.02
v 18.4826 -128.195 1219.99
v 19.1545 -128.737 1221.38
v 21.5583 -138.752 1223.75
v 22.4757 -139.252 1225.16
v 22.2617 -139.083 1230.2
v 22.4187 -139.073 1229.5
v 22.7023 -136.531 1213.83
v 22.7194 -136.19 1213.46
v 20.3653 -137.012 1222.55
v 21.7627 -137.203 1228.82
v 21.8839 -136.948 1226.98
v 21.869 -136.34 1227.54
v 22.115 -136.633 1228.12
v 22.7109 -137.291 1228.13
v 21.0468 -138.661 1231.96
v 21.5623 -136.563 1235.42
v 21.4022 -135.222 1214.02
v 21.7536 -134.506 1213.57
v 20.5384 -134.825 1225.47
v 20.4572 -135.92 1227.19
v 20.601 -135.641 1228.09
v 20.7897 -135.798 1227.55
v 20.7547 -134.983 1236.76
v 20.5633 -134.747 1238.59
v 21.6392 -134.914 1238.91
v 21.6149 -134.565 1239.49
v 20.729 -132.518 1214.31
v 21.3918 -131.926 1214.65
v 20.8383 -134.093 1238.89
v 21.4231 -133.638 1238.96
v 22.0997 -134.039 1239.56
v 22.4723 -132.745 1238.67
v 20.718 -130.955 1215.37
v 21.3837 -130.282 1216.15
v 21.0571 -129.344 1217.6
v 22.7174 -130.047 1219.09
v 21.0036 -130.122 1231.04
v 22.4924 -130.67 1233.77
v 21.3178 -130.49 1234.07
v 21.9503 -130.456 1234.07
v 22.6737 -131.084 1236.34
v 24.6868 -138.864 1214.57
v 23.9888 -139.359 1221.61
v 23.8817 -139.077 1227.38
v 23.8517 -138.997 1228.63
v 24.161 -138.877 1228.03
v 24.7802 -139.139 1228.61
v 23.971 -139.274 1228.94
v 24.0743 -139.289 1230.76
v 23.6761 -139.101 1231.6
v 24.2307 -139.119 1233.24
v 24.8418 -138.236 1214.12
v 24.7998 -137.242 1213.88
v 22.6789 -137.592 1215.66
v 23.1526 -138.35 1216.35
v 22.7395 -138.106 1220.25
v 22.758 -138.405 1228.72
v 23.0185 -137.857 1227.77
v 22.7695 -137.223 1227.78
v 23.0655 -138.168 1227.42
v 23.1922 -138.17 1227.77
v 23.0955 -138.149 1228.09
v 24.1855 -138.389 1234.31
v 22.9289 -133.729 1213.88
v 23.2634 -135.024 1213.53
v 24.7139 -135.025 1213.99
v 23.979 -134.766 1240.02
v 23.9107 -132.954 1214.58
v 23.4031 -134.302 1240
v 24.2576 -132.462 1238.78
v 23.0907 -131.206 1215.73
v 23.6394 -131.258 1236.82
v 24.2278 -131.713 1237.87
v 24.7872 -131.739 1237.72
v 25.2025 -132.074 1238.28
v 25.3417 -139.671 1215.49
v 25.4593 -138.921 1214.65
v 25.7069 -139.527 1215.15
v 25.9827 -140.179 1216.04
v 26.3487 -140.116 1216.09
v 26.6182 -138.835 1215.47
v 27.4125 -139.202 1216.58
v 25.957 -140.396 1217.4
v 26.8318 -140.849 1217.47
v 25.048 -139.88 1227.12
v 25.0866 -139.498 1228.9
v 25.0765 -139.199 1228.02
v 25.431 -139.396 1228.6
v 26.0006 -139.852 1228.03
v 25.9155 -139.827 1228.83
v 26.2603 -139.958 1228.63
v 27.1676 -141.334 1227.54
v 24.9528 -139.936 1229.48
v 25.0402 -139.828 1230.1
v 26.5351 -140.179 1228.92
v 26.2342 -140.093 1229.24
v 26.949 -140.495 1228.91
v 26.9177 -140.35 1229.32
v 26.7853 -139.781 1230.67
v 26.2068 -139.345 1233.42
v 26.2755 -139.526 1231.87
v 26.003 -139.58 1232.5
v 26.8974 -139.937 1232.49
v 26.7987 -139.252 1235.08
v 26.0977 -136.948 1214.59
v 25.2194 -139.023 1234.37
v 25.6753 -137.962 1235.57
v 26.0898 -139.139 1234.11
v 25.2973 -137.065 1236.53
v 27.0538 -139.219 1236.09
v 25.924 -135.14 1240.17
v 26.2365 -134.799 1240.17
v 26.5687 -133.793 1216.1
v 25.7704 -132.212 1238.01
v 26.6473 -132.709 1236.52
v 25.6936 -133.239 1239.32
v 26.6193 -132.906 1238.74
v 27.4615 -134.258 1239.44
v 27.218 -141.927 1219.98
v 27.6595 -142.253 1219.82
v 28.5341 -142.759 1224.01
v 29.1501 -142.478 1223.84
v 27.756 -140.973 1218.58
v 29.6867 -140.012 1221.38
v 29.2254 -141.341 1231.87
v 28.0868 -139.514 1236.71
v 28.4561 -139.576 1236.7
v 28.692 -139.45 1236.13
v 29.5803 -139.431 1236.71
v 28.2856 -136.723 1217.21
v 27.5285 -138.933 1236.69
v 29.0363 -138.81 1237.84
v 29.2852 -139.239 1237.58
v 29.1201 -137.912 1238.28
v 29.6478 -138.28 1238.29
v 29.6706 -137.915 1238.58
v 29.7072 -137.344 1238.9
v 27.176 -136.059 1239.35
v 28.4826 -136.054 1239.63
v 29.0935 -137.062 1239.15
v 29.4831 -136.121 1238.94
v 30.0532 -136.722 1238.52
v 28.1258 -133.612 1237.86
v 28.9761 -134.366 1238.42
v 29.6202 -134.462 1236.8
v 29.289 -143.247 1226.51
v 29.9971 -143.505 1226.39
v 29.914 -143.445 1228.24
v 30.2926 -143.599 1227.58
v 31.4205 -141.795 1227.27
v 30.6 -143.249 1229.7
v 30.9269 -142.8 1230.28
v 31.2721 -142.389 1229.44
v 30.2172 -142.683 1231.04
v 30.6601 -142.531 1231.49
v 31.0665 -141.962 1231.45
v 29.9919 -141.261 1223.89
v 30.4378 -139.389 1223.47
v 30.6019 -139.349 1223.87
v 30.4017 -141.546 1232.89
v 30.7849 -141.328 1232.81
v 31.834 -139.692 1231.35
v 29.5839 -139.559 1235.9
v 30.4218 -139.573 1236.77
v 30.6242 -138.719 1223.81
v 31.3489 -138.898 1225.14
v 31.7516 -138.474 1234.57
v 29.8599 -139.295 1237.31
v 30.1839 -138.821 1237.84
v 30.5604 -137.456 1237.96
v 31.0443 -139.406 1236.48
v 30.4078 -136.386 1224.22
v 31.2354 -136.58 1230.98
v 30.2016 -135.068 1237.52
v 31.0274 -136.347 1236.85
v 30.8058 -135.479 1235.6
v 32.1741 -138.795 1229.05
v 13.8674 -130.436 1218.24
v 13.8674 -130.436 1218.24
v 16.7864 -136.689 1230.87
v 16.7864 -136.689 1230.87
v 17.3418 -137.063 1232.29
v 17.4575 -135.514 1222.09
v 17.6806 -135.572 1222.44
v 17.6806 -135.572 1222.44
v 17.6806 -135.572 1222.44
v 17.7198 -135.585 1222.74
v 17.7198 -135.585 1222.74
v 17.7198 -135.585 1222.74
v 17.7198 -135.585 1222.74
v 17.7715 -135.832 1222.13
v 17.7793 -135.882 1222.56
v 17.7793 -135.882 1222.56
v 17.7793 -135.882 1222.56
v 17.8108 -135.282 1222.55
v 16.5013 -135.504 1230.84
v 16.5013 -135.504 1230.84
v 16.5013 -135.504 1230.84
v 17.8863 -134.333 1229.68
v 18.056 -134.03 1229.4
v 16.4634 -136.126 1231.95
v 16.4634 -136.126 1231.95
v 16.4634 -136.126 1231.95
v 16.6388 -135.187 1231.5
v 17.0569 -135.767 1232.69
v 17.0569 -135.767 1232.69
v 16.4075 -131.454 1218.96
v 16.7713 -131.825 1218.71
v 16.7713 -131.825 1218.71
v 16.8083 -131.481 1218.98
v 16.8083 -131.481 1218.98
v 17.1181 -131.814 1218.34
v 17.1181 -131.814 1218.34
v 17.1191 -131.284 1218.68
v 17.6362 -132.855 1222
v 18.0863 -133.56 1228.89
v 18.0334 -133.856 1233
v 18.0334 -133.856 1233
v 18.0334 -133.856 1233
v 18.1532 -133.584 1233.34
v 18.181 -133.599 1234.22
v 18.4342 -128.291 1219.39
v 18.0505 -137.711 1230.82
v 18.0505 -137.711 1230.82
v 19.3826 -137.735 1230.17
v 18.103 -135.439 1223.04
v 19.6547 -134.491 1222.94
v 19.9305 -134.22 1223.39
v 20.0015 -134.835 1223.67
v 20.0015 -134.835 1223.67
v 20.0015 -134.835 1223.67
v 18.3138 -135.343 1225.13
v 19.236 -135.168 1225.76
v 19.236 -135.168 1225.76
v 19.4905 -134.892 1226.07
v 19.9337 -134.899 1225.61
v 19.9337 -134.899 1225.61
v 19.9497 -134.595 1225.49
v 19.9497 -134.595 1225.49
v 20.224 -135.094 1225.16
v 20.224 -135.094 1225.16
v 18.2082 -134.056 1228.76
v 19.5309 -134.919 1226.93
v 18.1938 -134.405 1229.23
v 19.899 -134.443 1238.39
v 18.804 -133.528 1222.47
v 18.804 -133.528 1222.47
v 18.804 -133.528 1222.47
v 18.2012 -133.566 1233.05
v 18.2012 -133.566 1233.05
v 18.4136 -133.669 1235.16
v 18.7196 -134.018 1236.6
v 18.6774 -129.043 1221.94
v 19.0058 -128.921 1223.05
v 19.0424 -128.978 1225.97
v 19.0424 -128.978 1225.97
v 20.4392 -130.016 1231.34
v 20.4995 -129.836 1231.95
v 20.5292 -130.025 1232.65
v 18.4826 -128.195 1219.99
v 18.4826 -128.195 1219.99
v 19.1545 -128.737 1221.38
v 19.1545 -128.737 1221.38
v 22.4757 -139.252 1225.16
v 21.7536 -134.506 1213.57
v 20.5384 -134.825 1225.47
v 20.5384 -134.825 1225.47
v 20.5384 -134.825 1225.47
v 20.5384 -134.825 1225.47
v 20.7547 -134.983 1236.76
v 21.6149 -134.565 1239.49
v 21.3837 -130.282 1216.15
v 21.0571 -129.344 1217.6
v 23.979 -134.766 1240.02
v 25.4593 -138.921 1214.65
v 25.9827 -140.179 1216.04
v 26.8318 -140.849 1217.47
v 25.2194 -139.023 1234.37
v 25.6753 -137.962 1235.57
v 27.0538 -139.219 1236.09
v 25.924 -135.14 1240.17
v 27.6595 -142.253 1219.82
v 27.6595 -142.253 1219.82
v 28.5341 -142.759 1224.01
v 29.1501 -142.478 1223.84
v 29.9971 -143.505 1226.39
v 29.9971 -143.505 1226.39
v 30.2926 -143.599 1227.58
v 30.6 -143.249 1229.7
v 30.6601 -142.531 1231.49
v 30.4017 -141.546 1232.89
v 31.0443 -139.406 1236.48
f 7 10 1
f 7 17 10
f 24 5 2
f 5 3 2
f 5 8 3
f 4 6 24
f 24 2 4
f 2 1 4
f 7 1 3
f 1 2 3
f 32 6 4
f 11 32 4
f 11 4 1
f 17 7 9
f 6 25 24
f 6 32 26
f 3 8 7
f 30 9 8
f 7 8 9
f 5 29 8
f 30 31 9
f 9 31 18
f 17 9 18
f 13 1 10
f 12 32 11
f 13 11 1
f 13 12 11
f 14 13 10
f 17 14 10
f 12 13 15
f 15 13 14
f 15 33 12
f 16 15 14
f 15 16 34
f 33 15 34
f 14 17 18
f 14 38 16
f 14 18 38
f 16 38 34
f 24 19 5
f 19 29 5
f 20 19 24
f 20 24 25
f 19 20 21
f 21 20 156
f 20 61 156
f 25 62 61
f 61 20 25
f 19 21 29
f 21 22 29
f 30 29 22
f 30 22 23
f 22 21 71
f 26 25 6
f 27 26 32
f 28 25 26
f 27 28 26
f 106 28 27
f 27 107 106
f 62 28 106
f 62 25 28
f 108 62 106
f 40 18 31
f 8 29 30
f 23 31 30
f 41 40 31
f 23 119 31
f 119 41 31
f 41 119 122
f 42 122 120
f 27 32 35
f 32 12 425
f 425 12 33
f 37 426 33
f 37 33 36
f 33 34 36
f 36 34 39
f 37 36 43
f 36 39 43
f 37 27 426
f 27 37 107
f 118 37 43
f 37 118 454
f 38 40 39
f 40 38 18
f 39 34 38
f 40 43 39
f 42 40 41
f 42 41 122
f 40 42 43
f 42 121 43
f 43 121 118
f 156 71 21
f 44 48 72
f 48 87 72
f 44 53 48
f 44 72 73
f 46 56 53
f 44 46 53
f 46 44 45
f 45 44 73
f 78 47 45
f 73 78 45
f 47 46 45
f 47 78 85
f 48 49 87
f 49 52 87
f 52 90 87
f 48 53 50
f 49 48 50
f 49 50 52
f 50 51 52
f 51 54 52
f 52 54 90
f 90 54 92
f 53 56 55
f 50 53 55
f 51 50 55
f 51 57 54
f 159 54 57
f 92 54 159
f 159 174 92
f 55 56 57
f 51 55 57
f 161 159 57
f 59 162 58
f 470 60 427
f 200 59 97
f 428 101 96
f 427 60 448
f 429 103 449
f 429 263 103
f 262 263 60
f 164 67 165
f 63 61 62
f 63 62 64
f 63 66 65
f 65 61 63
f 66 63 64
f 66 64 68
f 68 64 117
f 156 61 65
f 65 66 69
f 66 67 69
f 67 66 68
f 166 156 65
f 166 65 69
f 68 117 67
f 164 166 69
f 67 164 69
f 67 117 165
f 71 70 22
f 70 23 22
f 23 70 134
f 134 119 23
f 72 88 73
f 72 87 88
f 73 88 74
f 75 73 74
f 74 88 91
f 75 74 76
f 91 76 74
f 76 91 93
f 75 82 73
f 75 76 77
f 77 76 93
f 70 83 134
f 82 78 73
f 77 93 175
f 167 82 75
f 75 77 167
f 70 79 83
f 71 430 70
f 71 84 430
f 430 84 80
f 431 439 81
f 440 82 434
f 78 82 440
f 435 86 432
f 436 82 167
f 83 79 433
f 442 170 83
f 433 442 83
f 170 134 83
f 170 138 134
f 157 84 71
f 441 84 157
f 431 438 439
f 442 473 169
f 442 437 473
f 77 168 167
f 169 170 442
f 168 77 180
f 87 89 88
f 87 90 89
f 91 88 89
f 94 89 90
f 94 90 92
f 91 89 93
f 89 94 93
f 174 95 92
f 95 94 92
f 93 94 175
f 95 175 94
f 77 175 180
f 443 59 58
f 443 98 59
f 100 446 444
f 444 102 100
f 222 100 102
f 97 59 98
f 97 199 200
f 97 98 491
f 190 491 99
f 491 98 99
f 100 447 446
f 190 99 142
f 445 450 451
f 450 452 451
f 496 451 452
f 103 263 201
f 453 143 497
f 103 201 464
f 201 221 465
f 104 115 105
f 116 115 104
f 104 211 210
f 210 116 104
f 210 165 116
f 211 104 105
f 108 64 62
f 106 109 108
f 107 109 106
f 454 118 125
f 107 110 109
f 454 125 457
f 111 64 108
f 108 112 111
f 112 108 109
f 112 455 113
f 456 458 459
f 459 458 114
f 461 457 128
f 457 125 128
f 117 64 111
f 111 112 117
f 112 113 117
f 116 460 115
f 128 147 461
f 460 461 115
f 116 165 117
f 117 460 116
f 42 120 121
f 123 120 122
f 125 121 126
f 118 121 125
f 134 122 119
f 120 124 126
f 123 124 120
f 126 121 120
f 122 134 130
f 122 130 123
f 128 125 129
f 125 126 129
f 124 129 126
f 123 127 131
f 123 130 127
f 123 129 124
f 131 129 123
f 133 129 131
f 128 129 133
f 134 136 130
f 130 462 137
f 127 130 137
f 127 137 132
f 127 150 131
f 127 132 150
f 131 150 133
f 133 147 128
f 150 147 133
f 137 139 135
f 137 135 132
f 135 152 132
f 132 152 150
f 139 462 138
f 136 134 138
f 137 462 139
f 138 215 139
f 135 217 141
f 141 140 135
f 140 152 135
f 140 153 152
f 140 463 153
f 463 237 153
f 190 142 141
f 142 140 141
f 219 237 463
f 222 466 144
f 467 465 221
f 222 144 223
f 223 144 145
f 468 467 221
f 145 225 223
f 145 224 225
f 223 225 241
f 105 115 146
f 105 146 229
f 229 146 231
f 146 115 461
f 461 148 146
f 461 147 148
f 146 148 231
f 148 147 149
f 231 148 154
f 148 149 154
f 155 231 154
f 149 151 154
f 152 232 150
f 147 150 149
f 149 150 151
f 150 232 151
f 153 235 152
f 154 151 248
f 155 154 248
f 151 232 248
f 71 156 303
f 71 256 157
f 71 303 256
f 157 47 85
f 47 157 158
f 158 46 47
f 56 46 250
f 256 158 157
f 250 46 256
f 256 46 158
f 161 57 251
f 160 159 161
f 160 174 159
f 251 57 56
f 160 176 174
f 176 160 161
f 163 162 59
f 262 471 472
f 163 59 200
f 163 200 257
f 257 200 193
f 470 262 60
f 164 209 264
f 165 213 164
f 264 166 164
f 169 473 171
f 171 170 169
f 180 167 168
f 215 138 170
f 218 215 170
f 171 218 170
f 172 493 474
f 171 473 173
f 167 180 476
f 477 172 474
f 95 174 175
f 479 174 177
f 479 177 178
f 174 176 177
f 186 179 141
f 141 217 186
f 177 176 192
f 480 180 175
f 192 181 177
f 177 181 178
f 186 184 179
f 180 480 189
f 181 182 178
f 181 183 182
f 181 192 183
f 182 183 184
f 183 185 184
f 186 217 188
f 186 188 184
f 179 184 185
f 187 481 482
f 187 487 481
f 485 483 182
f 184 485 182
f 476 180 189
f 172 477 266
f 478 488 513
f 487 187 514
f 475 515 217
f 217 515 188
f 516 484 486
f 179 191 141
f 141 193 489
f 141 191 193
f 193 191 196
f 185 194 191
f 185 191 179
f 176 195 192
f 192 197 490
f 192 194 183
f 197 196 191
f 194 185 183
f 191 194 197
f 176 161 267
f 176 267 195
f 192 195 197
f 267 197 195
f 198 196 197
f 267 198 197
f 268 196 198
f 268 193 196
f 200 199 193
f 193 199 489
f 447 219 463
f 100 219 447
f 202 204 498
f 498 204 226
f 221 201 263
f 263 203 221
f 203 202 221
f 204 202 205
f 203 205 202
f 270 203 263
f 204 206 226
f 204 205 206
f 207 206 205
f 205 203 207
f 207 271 208
f 206 207 208
f 226 206 208
f 271 273 208
f 517 207 203
f 212 209 211
f 214 209 212
f 209 164 213
f 214 274 209
f 105 212 211
f 105 229 212
f 165 210 211
f 213 165 211
f 214 212 229
f 209 213 211
f 214 275 274
f 275 214 280
f 280 214 229
f 216 139 215
f 216 217 139
f 217 135 139
f 494 216 215
f 217 216 495
f 475 217 495
f 237 219 220
f 100 220 219
f 220 222 223
f 220 223 241
f 100 222 220
f 246 241 225
f 202 468 221
f 498 468 202
f 224 499 225
f 227 228 225
f 225 228 246
f 499 227 225
f 227 499 492
f 492 228 227
f 230 229 231
f 280 229 230
f 507 249 247
f 247 249 283
f 232 152 233
f 235 233 152
f 236 233 235
f 232 233 509
f 249 501 234
f 501 502 234
f 283 249 234
f 234 502 283
f 237 238 153
f 238 235 153
f 237 220 238
f 235 238 503
f 220 239 238
f 238 239 240
f 239 244 240
f 240 503 238
f 504 505 284
f 504 284 502
f 241 246 242
f 220 241 242
f 220 242 239
f 242 246 245
f 242 243 239
f 242 245 243
f 239 243 244
f 244 243 245
f 506 246 286
f 506 287 505
f 246 228 288
f 230 231 155
f 469 507 247
f 469 247 230
f 500 510 508
f 303 156 330
f 251 56 250
f 253 252 472
f 252 253 340
f 264 255 254
f 156 166 264
f 254 301 264
f 302 156 301
f 264 301 156
f 250 256 290
f 161 251 258
f 258 267 161
f 258 259 267
f 257 193 260
f 306 259 258
f 260 268 259
f 260 193 268
f 307 306 258
f 304 253 257
f 261 260 306
f 261 257 260
f 306 260 259
f 258 511 307
f 304 257 261
f 253 163 257
f 292 253 304
f 252 262 472
f 252 297 262
f 209 274 265
f 264 209 512
f 255 264 512
f 312 255 265
f 312 265 311
f 269 198 267
f 268 198 269
f 259 268 269
f 259 269 267
f 517 271 207
f 492 518 276
f 277 276 518
f 517 272 271
f 271 272 273
f 517 385 272
f 273 272 385
f 278 277 518
f 316 278 518
f 273 385 314
f 521 316 518
f 311 274 275
f 265 274 311
f 311 275 315
f 275 280 318
f 315 275 318
f 276 228 492
f 276 277 228
f 228 279 288
f 279 228 277
f 277 278 279
f 279 278 316
f 281 280 230
f 318 280 281
f 230 282 281
f 519 520 283
f 283 318 519
f 247 282 230
f 247 283 520
f 284 283 502
f 284 505 285
f 285 505 287
f 506 286 287
f 285 362 284
f 284 362 283
f 246 288 286
f 287 286 288
f 285 287 319
f 287 288 319
f 279 320 288
f 299 324 289
f 330 156 302
f 330 290 303
f 290 330 366
f 251 250 290
f 332 511 339
f 511 291 307
f 511 332 291
f 253 292 295
f 334 293 291
f 334 294 293
f 293 294 292
f 294 295 292
f 333 295 294
f 291 332 334
f 335 333 294
f 340 253 295
f 252 296 297
f 341 252 340
f 296 252 341
f 333 340 295
f 337 340 333
f 346 296 341
f 262 297 349
f 298 263 262
f 349 298 262
f 347 355 298
f 289 254 255
f 299 289 255
f 300 299 255
f 255 312 300
f 313 300 312
f 301 289 302
f 289 301 254
f 303 290 256
f 292 304 309
f 305 306 307
f 305 309 306
f 309 261 306
f 309 304 261
f 292 309 293
f 308 293 309
f 308 305 307
f 309 305 308
f 307 291 293
f 293 308 307
f 310 263 298
f 310 356 263
f 355 353 298
f 310 298 525
f 356 385 263
f 311 313 312
f 270 263 385
f 314 385 358
f 521 528 316
f 313 311 315
f 360 313 315
f 318 360 315
f 318 283 360
f 322 320 317
f 363 322 317
f 317 320 279
f 317 279 316
f 316 363 317
f 320 319 288
f 320 321 319
f 321 320 322
f 319 321 285
f 285 321 361
f 361 321 322
f 370 367 331
f 524 529 330
f 368 290 366
f 393 251 290
f 339 511 393
f 289 325 323
f 302 289 323
f 330 302 323
f 325 289 324
f 522 299 352
f 327 326 325
f 325 326 323
f 523 330 323
f 325 328 327
f 522 328 325
f 328 522 352
f 327 331 326
f 523 524 330
f 352 377 328
f 327 370 331
f 327 329 370
f 328 329 327
f 328 377 329
f 294 334 335
f 332 336 334
f 336 335 334
f 339 336 332
f 337 338 343
f 338 335 336
f 337 335 338
f 344 336 339
f 338 336 344
f 342 338 344
f 343 338 342
f 339 372 344
f 337 343 340
f 343 341 340
f 335 337 333
f 296 348 297
f 343 346 341
f 346 348 296
f 344 345 342
f 342 345 343
f 345 346 343
f 372 348 346
f 344 372 345
f 372 346 345
f 297 348 349
f 298 349 347
f 348 350 349
f 350 347 349
f 350 348 372
f 310 525 357
f 351 527 353
f 355 351 353
f 351 373 527
f 378 357 373
f 299 300 352
f 300 313 352
f 360 377 352
f 310 354 356
f 310 357 378
f 378 526 310
f 356 354 381
f 347 410 355
f 355 410 351
f 526 378 381
f 356 381 385
f 352 313 360
f 419 360 283
f 386 365 359
f 386 359 528
f 358 385 386
f 362 285 361
f 361 322 364
f 322 363 364
f 362 361 390
f 390 361 364
f 362 390 283
f 528 359 316
f 359 363 316
f 359 365 363
f 365 364 363
f 390 364 365
f 330 529 366
f 368 366 529
f 369 531 530
f 371 532 367
f 404 532 371
f 393 290 368
f 393 368 394
f 531 369 533
f 395 339 393
f 339 395 401
f 372 339 401
f 371 367 370
f 329 371 370
f 350 372 347
f 372 410 347
f 410 375 351
f 374 373 351
f 351 375 374
f 375 376 374
f 410 376 375
f 373 374 380
f 329 377 371
f 387 385 381
f 381 378 379
f 373 379 378
f 380 379 373
f 379 380 416
f 416 382 379
f 381 379 382
f 415 374 376
f 374 415 380
f 380 415 416
f 381 382 383
f 383 387 381
f 416 383 382
f 387 383 384
f 383 416 384
f 377 360 419
f 371 377 419
f 388 421 391
f 388 389 421
f 423 283 392
f 385 387 386
f 391 365 386
f 391 386 388
f 384 388 386
f 387 384 386
f 384 389 388
f 391 392 390
f 390 392 283
f 365 391 390
f 404 534 532
f 397 534 404
f 396 393 394
f 395 393 396
f 397 535 534
f 398 535 400
f 400 535 397
f 396 536 395
f 395 536 401
f 401 536 402
f 398 399 537
f 400 399 398
f 403 537 399
f 403 399 400
f 407 372 401
f 407 401 402
f 537 403 408
f 404 371 405
f 404 405 406
f 406 405 412
f 404 406 413
f 404 413 397
f 397 413 424
f 397 424 400
f 403 400 409
f 372 407 411
f 408 538 537
f 408 403 409
f 408 409 414
f 411 410 372
f 538 408 418
f 411 538 418
f 408 414 539
f 410 411 376
f 405 371 412
f 419 412 371
f 406 412 413
f 413 412 419
f 419 424 413
f 424 419 420
f 419 283 420
f 424 420 409
f 409 420 414
f 539 414 422
f 411 415 376
f 416 415 411
f 416 417 384
f 411 418 416
f 417 416 539
f 539 422 417
f 384 417 389
f 423 420 283
f 420 423 414
f 421 389 422
f 421 392 391
f 422 389 417
f 421 422 423
f 392 421 423
f 423 422 414
f 400 424 409
