o FMA8612_BP8690_FJ2966
v 11.2747 -142.191 1264.88
v 11.4458 -143.691 1264.93
v 11.6042 -142.734 1265.85
v 13.2054 -138.222 1265.06
v 13.3747 -138.291 1264.39
v 13.6747 -138.291 1263.82
v 13.6747 -138.158 1264.03
v 13.6747 -138.591 1264.28
v 12.147 -139.682 1265.17
v 12.1747 -139.778 1264.64
v 12.7747 -139.162 1264.49
v 12.504 -145.945 1265.01
v 12.2756 -145.16 1265.61
v 12.566 -145.914 1264.56
v 13.6875 -147.986 1264.75
v 13.3875 -137.421 1267.41
v 12.0651 -143.976 1266.3
v 12.785 -145.166 1266.88
v 13.4646 -146.381 1267.01
v 13.8824 -136.042 1270.38
v 13.1551 -138.367 1269.22
v 13.0323 -139.477 1269.68
v 12.889 -142.637 1268.98
v 13.8426 -143.885 1270.12
v 13.8345 -137.251 1272.15
v 13.5157 -139.811 1271.31
v 14.9071 -135.797 1265.77
v 15.4747 -136.409 1264.03
v 15.7747 -136.491 1263.9
v 13.9747 -137.991 1263.81
v 13.9747 -138.291 1264.22
v 13.9747 -137.684 1264.33
v 14.2747 -137.991 1264.19
v 15.106 -137.091 1264.03
v 15.1747 -137.091 1263.55
v 15.1747 -136.955 1263.73
v 15.3047 -137.091 1263.73
v 15.1747 -137.391 1263.97
v 15.4747 -136.791 1263.58
v 15.4747 -137.091 1263.92
v 15.7747 -136.791 1263.88
v 14.3181 -139.92 1264.06
v 14.4429 -149.123 1264.08
v 14.83 -149.638 1264.43
v 15.1505 -149.386 1263.84
v 15.1747 -150.123 1264.03
v 15.7709 -150.645 1263.71
v 15.7882 -150.558 1265.49
v 16.2174 -151.201 1264.64
v 16.1234 -132.464 1268.06
v 14.3621 -148.113 1266.7
v 14.8602 -149.153 1266.12
v 15.777 -149.393 1267.88
v 14.1933 -135.399 1268.94
v 14.0074 -145.8 1268.79
v 15.018 -147.816 1268.5
v 16.2042 -128.365 1271.54
v 15.0052 -131.856 1271.58
v 15.0363 -145.886 1270.57
v 15.4231 -143.991 1272.82
v 16.0397 -124.245 1273.94
v 15.1713 -127.581 1274.87
v 14.6622 -132.138 1273.91
v 14.4718 -134.859 1274.57
v 14.7228 -139.272 1274.6
v 15.4747 -117.291 1277.79
v 15.9505 -117.591 1276.33
v 14.8166 -129.349 1276.44
v 14.8043 -131.787 1276.9
v 14.8703 -135.668 1276.15
v 15.5394 -140.398 1275.6
v 15.1755 -117.469 1278.98
v 15.4874 -117.112 1278.8
v 15.8557 -117.175 1277.77
v 14.8903 -121.305 1278.64
v 15.2718 -133.421 1278.41
v 16.0424 -135.111 1279.37
v 14.9005 -117.571 1280.89
v 14.7148 -121.58 1280.36
v 14.7613 -122.659 1281.76
v 14.849 -116.991 1282.93
v 15.0036 -116.991 1284.73
v 15.4837 -116.759 1284.39
v 14.9788 -121.244 1283.73
v 15.3066 -126.331 1282.75
v 15.8071 -125.514 1284.56
v 16.054 -129.629 1282.83
v 15.1269 -117.176 1285.31
v 15.1747 -116.691 1285.45
v 15.5367 -116.701 1285.09
v 15.4747 -116.647 1285.93
v 15.5661 -116.991 1287.14
v 15.4886 -120.894 1285.77
v 16.0828 -120.864 1287.2
v 15.6788 -116.691 1287.43
v 15.79 -117.104 1287.65
v 15.8659 -116.691 1287.77
v 16.1263 -116.591 1287.59
v 16.1373 -116.691 1288.46
v 16.2629 -117.189 1288.65
v 16.9747 -135.591 1263.27
v 17.8747 -134.691 1263.24
v 18.146 -135.172 1263.3
v 18.1747 -134.391 1263.23
v 18.1929 -134.694 1263.3
v 18.3741 -135.113 1263.23
v 18.1499 -152.105 1263
v 18.2912 -153.012 1263.19
v 16.4584 -135.891 1263.73
v 16.6747 -135.755 1263.43
v 16.6747 -136.191 1263.65
v 16.9747 -135.891 1263.6
v 17.0321 -135.112 1263.76
v 17.2747 -135.291 1263.57
v 17.2747 -135.591 1263.54
v 17.5899 -134.637 1263.64
v 17.8903 -135.115 1263.39
v 16.5261 -151.518 1263.75
v 16.6969 -151.507 1265.58
v 17.5848 -152.517 1264.41
v 17.438 -132.795 1265.86
v 16.5369 -150.836 1266.97
v 17.4422 -151.78 1267.02
v 17.9163 -152.527 1266.17
v 18.2176 -129.052 1268.33
v 16.4762 -149.272 1269.25
v 17.8968 -150.543 1269.73
v 17.4502 -151.138 1268.25
v 16.961 -123.707 1272.61
v 16.7711 -146.986 1272.09
v 18.4476 -148.036 1272.96
v 17.8492 -149.319 1271.05
v 17.1441 -117.507 1274.63
v 16.8381 -118.32 1274.46
v 17.8512 -118.116 1273.23
v 17.4373 -145.088 1274.55
v 16.5988 -141.398 1276.51
v 17.9235 -142.776 1277
v 17.2865 -117.075 1280.58
v 18.0083 -139.892 1279.16
v 16.4211 -127.79 1284.6
v 16.9309 -130.197 1284.03
v 16.3999 -122.804 1287.04
v 17.33 -127.826 1285.93
v 17.7906 -131.029 1284.62
v 18.5554 -130.002 1286.09
v 16.4443 -116.588 1288.73
v 16.7057 -117.992 1289.19
v 17.0372 -120.377 1288.92
v 17.2869 -124.243 1287.69
v 18.4781 -125.732 1288.29
v 16.9747 -116.691 1289.9
v 17.4495 -117.196 1290.37
v 17.6832 -116.713 1290.73
v 17.8111 -116.524 1290.35
v 18.1962 -117.157 1291.16
v 18.4747 -116.691 1291.52
v 18.4765 -119.924 1290.67
v 18.4532 -122.43 1289.76
v 19.0747 -134.091 1262.65
v 19.0747 -133.727 1262.83
v 19.3115 -133.191 1263.14
v 19.3747 -133.791 1262.95
v 19.3747 -134.091 1262.94
v 20.4072 -132.421 1262.67
v 18.7747 -134.391 1262.64
v 18.7747 -134.544 1262.83
v 18.7747 -134.691 1263.08
v 19.0747 -134.691 1263.02
v 19.8423 -154.193 1262.92
v 18.7889 -153.407 1265.56
v 19.1689 -153.794 1264.59
v 20.7568 -154.874 1263.37
v 18.7413 -152.566 1267.91
v 19.3935 -153.401 1267.26
v 20.286 -154.397 1266.1
v 20.9003 -154.421 1267.32
v 19.1402 -151.804 1269.63
v 20.2574 -153.414 1268.51
v 18.7646 -118.583 1272.22
v 19.2084 -117.867 1272.38
v 20.7276 -118.402 1270.9
v 19.0047 -123.629 1270.55
v 19.1001 -149.994 1271.67
v 20.3845 -150.021 1272.73
v 19.7492 -148.158 1273.99
v 19.0821 -144.504 1276.61
v 19.7054 -142.275 1278.84
v 20.3378 -135.746 1284.03
v 20.8082 -131.101 1287.27
v 19.3231 -133.007 1284.99
v 19.7051 -126.776 1288.82
v 19.3682 -119.053 1291.62
v 19.1294 -121.694 1290.62
v 20.8243 -121.249 1291.78
v 19.7142 -123.697 1290.25
v 19.8121 -116.518 1291.81
v 19.9055 -116.691 1292.47
v 20.2838 -116.554 1292.51
v 20.6873 -116.691 1292.84
v 20.7418 -116.519 1292.16
v 20.3669 -118.782 1292.26
v 21.2427 -131.561 1262.43
v 21.8922 -131.425 1261.97
v 23.1273 -129.82 1261.93
v 21.3819 -131.991 1262.23
v 23.7021 -139.695 1261.55
v 21.6351 -155.033 1262.08
v 22.2022 -155.098 1261.84
v 22.073 -155.477 1261.95
v 22.2887 -155.685 1261.94
v 22.1149 -155.645 1262.24
v 22.603 -155.961 1262.26
v 23.098 -155.851 1261.66
v 23.2574 -156.394 1262.88
v 23.4537 -126.938 1265.35
v 21.1173 -129.075 1265.4
v 21.7343 -155.472 1264.88
v 22.2099 -125.68 1267.39
v 22.0997 -155.53 1265.91
v 22.5715 -155.34 1267.34
v 21.7281 -118.742 1270.3
v 22.0747 -118.126 1270.33
v 22.8536 -117.891 1270.03
v 22.6747 -117.736 1270.33
v 22.9747 -117.841 1270.33
v 22.6647 -120.716 1269.45
v 23.4387 -121.851 1268.77
v 21.6494 -122.645 1269.25
v 21.438 -153.251 1269.94
v 21.5322 -154.206 1268.55
v 23.2514 -153.941 1270.27
v 21.7747 -118.114 1270.64
v 22.3716 -118.108 1270.64
v 22.6823 -118.057 1270.64
v 22.5039 -118.027 1271.5
v 22.9747 -118.119 1270.64
v 21.1052 -151.992 1271.24
v 22.3829 -152.969 1271
v 22.4056 -151.22 1272.88
v 22.0427 -149.315 1274.43
v 21.4908 -146.009 1276.94
v 22.3123 -138.743 1283.17
v 21.5836 -133.752 1286.19
v 22.6222 -136.103 1285.25
v 21.4225 -127.469 1289.55
v 22.754 -131.343 1288.2
v 21.234 -124.016 1290.98
v 22.461 -123.14 1291.77
v 22.9759 -127.463 1290.22
v 21.1861 -116.516 1292.82
v 21.633 -116.523 1292.45
v 21.7747 -116.691 1293.23
v 22.1662 -116.53 1293.12
v 22.4303 -117.061 1293.31
v 22.9352 -116.554 1292.4
v 21.8104 -118.43 1292.9
v 23.256 -117.68 1293.37
v 22.0606 -120.346 1292.53
v 23.3411 -122.03 1292.37
v 23.2944 -119.922 1292.92
v 24.5171 -147.096 1261.16
v 24.1638 -156.805 1261.7
v 24.6599 -156.239 1261.11
v 24.7956 -157.188 1262.23
v 25.3542 -157.341 1261.07
v 25.7804 -157.625 1263.05
v 23.8736 -156.562 1265.16
v 24.5087 -157.048 1263.7
v 25.622 -157.428 1264.33
v 25.6018 -123.813 1266.89
v 23.8958 -156.148 1266.74
v 24.7443 -155.97 1267.92
v 25.1389 -156.488 1267.01
v 25.7284 -156.235 1267.89
v 23.5747 -118.491 1269.69
v 23.5747 -118.191 1270.01
v 24.7888 -118.361 1269.43
v 23.5538 -155.223 1268.49
v 24.7843 -155.262 1269.18
v 23.8391 -152.707 1272.05
v 25.0646 -152.818 1272.41
v 24.5382 -153.914 1270.96
v 25.7098 -154.521 1270.61
v 23.5861 -150.511 1274.11
v 25.3938 -150.505 1274.73
v 24.457 -151.78 1273.26
v 23.8997 -147.545 1276.77
v 25.3236 -117.195 1281.98
v 24.1632 -139.555 1283.43
v 25.6342 -136.399 1286.28
v 23.9075 -136.837 1285.36
v 25.6617 -137.989 1285.19
v 25.5525 -130.887 1289.36
v 23.8355 -133.706 1287.34
v 25.5384 -133.489 1288.01
v 25.0321 -124.467 1291.87
v 24.484 -127.133 1290.8
v 23.8999 -116.746 1293.55
v 25.229 -117.106 1293.61
v 24.5055 -118.27 1293.4
v 25.3688 -121.024 1292.88
v 25.8184 -128.393 1260.93
v 26.4525 -127.923 1260.94
v 26.5781 -128.354 1260.46
v 26.9407 -128.065 1260.38
v 27.1747 -129.291 1260.35
v 27.514 -127.745 1260.41
v 27.7091 -128.116 1260.09
v 28.0747 -127.791 1259.92
v 27.9886 -133.423 1260.31
v 27.9795 -158.486 1260.64
v 27.9943 -126.245 1262.65
v 26.229 -157.806 1261.09
v 27.7525 -158.342 1262.53
v 27.3428 -124.947 1264.99
v 25.9267 -157.246 1265.53
v 26.8733 -157.887 1264.03
v 27.7168 -157.829 1264.99
v 26.8076 -157.156 1266.4
v 27.9735 -157.134 1266.79
v 26.4142 -118.538 1269.09
v 27.4184 -118.022 1269.68
v 26.7861 -120.55 1268.34
v 26.3384 -155.646 1269.12
v 28.1091 -155.989 1268.84
v 26.2909 -153.401 1272.1
v 28.1085 -153.392 1272.36
v 27.4403 -154.556 1270.88
v 27.6321 -117.623 1275
v 27.6485 -150.086 1275.59
v 25.9949 -152.383 1273.11
v 27.7036 -152.716 1273.07
v 27.3197 -140.105 1283.97
v 26.889 -135.59 1287.12
v 26.9348 -137.421 1285.93
v 27.745 -131.972 1289.2
v 28.0014 -134.369 1288
v 26.892 -124.581 1291.96
v 26.5738 -128.319 1290.65
v 28.0781 -127.243 1291.12
v 28.1925 -129.643 1290.23
v 26.6951 -116.584 1293.05
v 27.1747 -116.691 1293.58
v 27.1572 -117.103 1293.53
v 28.0474 -116.691 1293.47
v 26.9121 -119.437 1293.19
v 28.1302 -118.176 1293.28
v 27.4866 -122.705 1292.47
v 29.6371 -127.239 1260.26
v 28.7975 -158.691 1259.83
v 29.9464 -158.864 1259.88
v 29.2639 -158.752 1261.39
v 30.4754 -158.657 1262.2
v 29.4352 -124.826 1264.37
v 28.3562 -158.279 1263.71
v 28.6993 -157.85 1265.22
v 29.3296 -158.361 1263.7
v 30.1621 -157.737 1265.27
v 30.5081 -158.283 1263.7
v 28.9103 -121.475 1267.57
v 28.4594 -123.576 1266.12
v 30.3276 -122.324 1266.92
v 29.2481 -157.117 1266.82
v 29.2328 -118.214 1269.08
v 29.3184 -155.922 1268.89
v 30.5113 -156.025 1268.41
v 29.2028 -154.572 1270.87
v 29.8487 -153.715 1271.88
v 30.4745 -154.417 1270.84
v 28.9966 -152.397 1273.44
v 30.5976 -152.183 1273.47
v 30.3578 -141.227 1283.59
v 28.6376 -136.174 1287.03
v 28.9889 -138.315 1285.67
v 30.4579 -136.769 1286.74
v 30.5048 -139.173 1285.16
v 30.4219 -130.727 1289.7
v 29.5261 -134.143 1288.23
v 29.8553 -132.272 1289.12
v 29.2593 -126.129 1291.38
v 29.6378 -128.644 1290.54
v 28.2457 -116.626 1292.74
v 28.6747 -116.691 1293.26
v 28.7189 -117.044 1293.34
v 29.8747 -116.669 1293.14
v 30.6652 -117.141 1292.89
v 29.8706 -118.176 1292.97
v 29.6018 -120.272 1292.69
v 29.292 -122.705 1292.27
v 30.7747 -127.791 1259.31
v 31.7148 -128.602 1259.03
v 31.0739 -158.664 1259.18
v 31.1594 -158.842 1259.54
v 31.091 -158.805 1260.74
v 32.2921 -158.673 1259.6
v 32.8082 -158.419 1260.73
v 32.22 -158.262 1262.28
v 31.2595 -124.168 1265.03
v 31.1187 -157.931 1264.32
v 32.3014 -157.515 1264.34
v 32.8754 -155.33 1267.98
v 31.3833 -157.158 1265.87
v 31.6875 -156.118 1267.65
v 32.2867 -156.672 1266.14
v 31.2601 -117.722 1269.57
v 31.3649 -117.977 1269.31
v 31.3135 -119.927 1268.44
v 32.93 -120.251 1268.54
v 31.6756 -154.706 1269.92
v 32.8555 -153.774 1270.46
v 32.2559 -152.718 1272.25
v 31.0544 -153.556 1271.77
v 31.6735 -153.809 1271.2
v 30.769 -148.231 1277.44
v 32.2422 -148.851 1276.6
v 32.8094 -149.859 1275.3
v 32.8275 -146.276 1278.97
v 31.9437 -142.765 1282.33
v 32.8984 -143.358 1281.6
v 30.7409 -144.25 1281.07
v 32.1964 -144.654 1280.64
v 31.6812 -141.114 1283.67
v 32.8894 -139.195 1284.7
v 32.8417 -141.603 1283.04
v 32.2599 -136.249 1286.76
v 31.6533 -138.086 1285.79
v 32.8827 -129.016 1289.67
v 32.856 -131.381 1288.85
v 31.6189 -132.015 1288.98
v 32.3272 -134.027 1287.91
v 31.0639 -134.61 1287.9
v 32.2521 -119.454 1292.1
v 31.8748 -123.148 1291.57
v 31.0506 -124.806 1291.43
v 32.3341 -125.063 1290.99
v 31.8968 -127.185 1290.55
v 31.6542 -129.635 1289.86
v 33.7747 -129.291 1258.37
v 34.3828 -129.177 1258.53
v 33.7938 -129.77 1258.36
v 34.3747 -129.591 1258.11
v 34.0639 -130.035 1258.31
v 34.6747 -129.591 1258.18
v 34.5631 -130.083 1258.17
v 34.6396 -156.613 1258.19
v 33.2859 -127 1260.99
v 33.0379 -128.693 1258.83
v 33.4463 -158.302 1259.85
v 34.6349 -157.686 1259.65
v 33.3435 -158.391 1258.64
v 35.1695 -127.352 1261.32
v 33.4699 -158.031 1261.28
v 34.0187 -157.215 1262.76
v 35.2839 -156.84 1261.07
v 33.452 -124.3 1265.05
v 33.4655 -156.575 1265.03
v 34.9473 -155.98 1263.83
v 33.1527 -122.694 1266.79
v 35.2304 -122.945 1267.16
v 34.111 -154.511 1267.89
v 34.9949 -154.235 1266.91
v 33.7288 -117.536 1270.47
v 33.4926 -117.728 1270
v 35.1711 -120.098 1269.39
v 34.091 -152.95 1270.38
v 35.2703 -152.428 1269.36
v 34.0103 -149.98 1274.34
v 35.496 -145.643 1277.63
v 33.4714 -148.076 1276.88
v 34.6976 -148.198 1275.81
v 34.0666 -145.8 1278.8
v 35.0391 -117.215 1280.23
v 35.268 -141.246 1281.76
v 34.0454 -141.803 1282.3
v 34.7796 -143.141 1280.69
v 34.6734 -138.346 1284.22
v 34.7686 -133.87 1286.75
v 35.2408 -132.208 1287.17
v 33.495 -135.491 1286.69
v 34.6345 -136.179 1285.6
v 33.4961 -137.295 1285.63
v 35.2502 -125.871 1289.36
v 35.2648 -128.265 1288.64
v 34.1039 -130.659 1288.54
v 35.306 -130.208 1287.93
v 34.0235 -132.658 1287.79
v 32.8346 -116.801 1291.18
v 34.0747 -116.991 1291.74
v 34.9508 -119.686 1290.9
v 34.0252 -122.792 1290.79
v 34.0036 -126.766 1289.82
v 35.8747 -130.491 1257.99
v 37.4826 -132.591 1257.43
v 37.2305 -155.394 1257.77
v 36.9801 -154.27 1257.53
v 37.3747 -155.091 1257.4
v 37.4647 -154.791 1257.43
v 37.6255 -154.791 1257.73
v 37.4286 -152.748 1257.4
v 37.6584 -154.431 1257.34
v 37.6747 -154.701 1257.43
v 35.283 -156.292 1258.01
v 35.5747 -157.217 1258.03
v 35.9622 -156.891 1258.03
v 36.2815 -156.567 1258.09
v 36.51 -156.306 1257.73
v 36.751 -155.999 1258.15
v 38.1445 -130.535 1260.73
v 37.4362 -154.798 1258.89
v 35.9995 -156.619 1259.43
v 36.3966 -155.946 1260.12
v 36.3753 -127.528 1261.95
v 37.3813 -128.389 1261.95
v 37.1941 -154.238 1261.07
v 35.8928 -155.934 1261.72
v 37.4391 -152.259 1263.74
v 36.0177 -154.342 1264.48
v 36.2729 -124.366 1266.09
v 37.6126 -124.576 1266.88
v 37.1312 -120.328 1270.36
v 37.0011 -122.404 1268.65
v 36.4911 -150.537 1269.56
v 37.172 -117.336 1272.05
v 35.6266 -117.775 1270.84
v 37.5854 -117.8 1272
v 37.6087 -145.142 1274.36
v 36.7686 -147.817 1272.99
v 36.6009 -146.894 1274.58
v 35.8019 -148.918 1273.43
v 37.0222 -143.497 1277.45
v 35.8853 -146.954 1275.74
v 37.338 -140.336 1279.92
v 36.2288 -142.177 1279.94
v 36.4367 -138.75 1282.32
v 37.4088 -137.953 1281.68
v 35.8526 -135.626 1284.92
v 36.7665 -134.356 1284.71
v 37.0791 -135.906 1283.46
v 37.7929 -134.31 1283.48
v 37.881 -125.481 1287.13
v 36.4227 -131.183 1286.57
v 37.0228 -129.711 1286.56
v 35.9155 -133.157 1286.16
v 37.4882 -131.986 1285.05
v 37.9311 -117.025 1288.93
v 37.6195 -120.817 1288.78
v 35.8634 -122.63 1289.75
v 36.4687 -126.203 1288.32
v 36.1609 -129.018 1287.67
v 36.2576 -117.403 1290.47
v 36.1881 -116.916 1289.78
v 36.3649 -117.005 1290.33
v 36.8041 -117.068 1290.13
v 36.5049 -118.855 1290.09
v 38.4253 -136.244 1257.1
v 39.1747 -135.591 1256.93
v 40.0747 -140.991 1256.5
v 40.1099 -139.191 1256.83
v 40.2283 -142.601 1257.16
v 40.0337 -146.165 1257.15
v 39.952 -146.295 1256.56
v 39.2209 -150.59 1256.91
v 39.6545 -148.643 1257.36
v 38.5747 -152.091 1257.05
v 38.5747 -152.691 1257.04
v 38.6904 -152.391 1257.14
v 38.6489 -152.706 1257.16
v 38.7335 -152.424 1257.46
v 38.8747 -152.138 1257.14
v 39.008 -151.293 1257.87
v 37.9747 -153.591 1257.24
v 37.9747 -153.891 1257.26
v 37.9747 -154.191 1257.43
v 38.2106 -152.865 1259.2
v 38.2747 -153.591 1257.42
v 39.303 -133.436 1260.5
v 39.9502 -135.463 1261.99
v 40.1357 -137.4 1262.68
v 40.0474 -140.523 1261.66
v 40.3268 -138.133 1264.5
v 39.5061 -145.263 1263.17
v 40.2625 -139.876 1266.57
v 38.5182 -122.582 1269.79
v 38.9838 -124.55 1268.42
v 39.7252 -141.935 1269.68
v 37.0636 -117.289 1272.77
v 38.5661 -119.715 1271.88
v 38.0187 -146.013 1271.82
v 39.0361 -117.439 1273.65
v 40.2116 -120.998 1273.04
v 40.0416 -138.015 1274.7
v 40.1503 -136.175 1276.63
v 39.4125 -139.752 1275.16
v 39.1522 -136.126 1279.97
v 39.9061 -134.561 1279.04
v 38.5682 -137.739 1279.93
v 39.3976 -136.911 1278.62
v 38.3615 -140.554 1277.64
v 40.0202 -131.155 1280.99
v 39.0026 -134.07 1281.66
v 38.3298 -135.916 1281.73
v 39.0346 -131.184 1283.11
v 39.7747 -117.291 1287.29
v 39.2055 -120.302 1287.24
v 39.8185 -120.935 1286.15
v 38.1235 -129.285 1285.38
v 38.2391 -117.516 1288.9
v 41.0487 -128.62 1269.43
v 41.5503 -127.505 1272.36
v 41.3319 -130.171 1270.36
v 41.5878 -129.438 1272.54
v 41.3158 -132.455 1271.65
v 40.9813 -134.989 1272.22
v 41.794 -126.557 1274.76
v 41.3065 -132.419 1273.75
v 40.7926 -134.76 1274.74
v 40.3636 -117.176 1275.89
v 40.8203 -117.438 1275.63
v 41.0527 -117.175 1276.73
v 41.2747 -117.158 1276.93
v 41.4335 -117.292 1276.93
v 41.5747 -117.166 1277.23
v 41.4925 -117.815 1276.81
v 41.3823 -121.997 1274.89
v 41.8417 -121.283 1277.08
v 41.4902 -129.02 1276.73
v 41.7758 -127.019 1275.9
v 40.8427 -132.903 1276.75
v 41.7276 -117.291 1277.83
v 41.3558 -117.183 1278.34
v 41.938 -117.291 1278.43
v 41.7912 -117.691 1277.77
v 42.075 -118.059 1279.67
v 40.8211 -130.007 1279.17
v 41.9972 -117.282 1280.26
v 41.8747 -117.192 1282.33
v 42.0673 -117.915 1280.71
v 41.2815 -117.191 1283.86
v 41.4161 -117.291 1284.14
v 41.3755 -117.291 1284.43
v 40.9758 -117.193 1282.92
v 41.7419 -117.291 1282.93
v 41.5543 -117.192 1283.5
v 41.5912 -117.291 1283.83
v 41.9099 -117.291 1282.64
v 41.3975 -117.793 1284.15
v 41.771 -117.741 1282.96
v 40.7441 -120.639 1284.55
v 41.1955 -121.775 1282.87
v 40.5013 -117.291 1286.16
v 40.6323 -117.149 1285.32
v 40.8382 -118.281 1285.29
v 11.2747 -142.191 1264.88
v 11.4458 -143.691 1264.93
v 13.3747 -138.291 1264.39
v 13.3747 -138.291 1264.39
v 13.6747 -138.291 1263.82
v 13.6747 -138.291 1263.82
v 13.6747 -138.291 1263.82
v 13.6747 -138.158 1264.03
v 13.6747 -138.158 1264.03
v 13.6747 -138.591 1264.28
v 13.6747 -138.591 1264.28
v 12.1747 -139.778 1264.64
v 12.7747 -139.162 1264.49
v 12.566 -145.914 1264.56
v 15.4747 -136.409 1264.03
v 15.4747 -136.409 1264.03
v 15.4747 -136.409 1264.03
v 15.4747 -136.409 1264.03
v 15.4747 -136.409 1264.03
v 15.7747 -136.491 1263.9
v 15.7747 -136.491 1263.9
v 13.9747 -137.991 1263.81
v 13.9747 -137.991 1263.81
v 13.9747 -137.991 1263.81
v 13.9747 -138.291 1264.22
v 13.9747 -138.291 1264.22
v 13.9747 -138.291 1264.22
v 13.9747 -138.291 1264.22
v 13.9747 -137.684 1264.33
v 13.9747 -137.684 1264.33
v 14.2747 -137.991 1264.19
v 14.2747 -137.991 1264.19
v 15.106 -137.091 1264.03
v 15.1747 -137.091 1263.55
v 15.1747 -137.091 1263.55
v 15.1747 -136.955 1263.73
v 15.1747 -136.955 1263.73
v 15.1747 -136.955 1263.73
v 15.3047 -137.091 1263.73
v 15.1747 -137.391 1263.97
v 15.1747 -137.391 1263.97
v 15.4747 -136.791 1263.58
v 15.4747 -136.791 1263.58
v 15.4747 -136.791 1263.58
v 15.4747 -137.091 1263.92
v 15.4747 -137.091 1263.92
v 15.4747 -137.091 1263.92
v 15.7747 -136.791 1263.88
v 15.7747 -136.791 1263.88
v 14.4429 -149.123 1264.08
v 15.1747 -150.123 1264.03
v 15.4747 -117.291 1277.79
v 15.4747 -117.291 1277.79
v 15.9505 -117.591 1276.33
v 15.1755 -117.469 1278.98
v 15.4874 -117.112 1278.8
v 14.849 -116.991 1282.93
v 15.0036 -116.991 1284.73
v 15.1747 -116.691 1285.45
v 15.1747 -116.691 1285.45
v 15.1747 -116.691 1285.45
v 15.4747 -116.647 1285.93
v 15.4747 -116.647 1285.93
v 15.5661 -116.991 1287.14
v 15.6788 -116.691 1287.43
v 15.8659 -116.691 1287.77
v 16.1373 -116.691 1288.46
v 16.9747 -135.591 1263.27
v 16.9747 -135.591 1263.27
v 16.9747 -135.591 1263.27
v 17.8747 -134.691 1263.24
v 17.8747 -134.691 1263.24
v 17.8747 -134.691 1263.24
v 18.1747 -134.391 1263.23
v 18.1747 -134.391 1263.23
v 18.1747 -134.391 1263.23
v 18.1929 -134.694 1263.3
v 18.3741 -135.113 1263.23
v 18.2912 -153.012 1263.19
v 16.4584 -135.891 1263.73
v 16.4584 -135.891 1263.73
v 16.6747 -135.755 1263.43
v 16.6747 -135.755 1263.43
v 16.6747 -136.191 1263.65
v 16.6747 -136.191 1263.65
v 16.9747 -135.891 1263.6
v 17.0321 -135.112 1263.76
v 17.2747 -135.291 1263.57
v 17.2747 -135.591 1263.54
v 17.2747 -135.591 1263.54
v 17.5899 -134.637 1263.64
v 17.5899 -134.637 1263.64
v 17.8903 -135.115 1263.39
v 17.1441 -117.507 1274.63
v 17.1441 -117.507 1274.63
v 16.9747 -116.691 1289.9
v 17.6832 -116.713 1290.73
v 18.4747 -116.691 1291.52
v 19.0747 -134.091 1262.65
v 19.0747 -134.091 1262.65
v 19.0747 -133.727 1262.83
v 19.3115 -133.191 1263.14
v 19.3747 -133.791 1262.95
v 19.3747 -134.091 1262.94
v 19.3747 -134.091 1262.94
v 20.4072 -132.421 1262.67
v 20.4072 -132.421 1262.67
v 18.7747 -134.391 1262.64
v 18.7747 -134.391 1262.64
v 18.7747 -134.544 1262.83
v 18.7747 -134.691 1263.08
v 19.0747 -134.691 1263.02
v 19.0747 -134.691 1263.02
v 19.2084 -117.867 1272.38
v 19.9055 -116.691 1292.47
v 20.6873 -116.691 1292.84
v 20.6873 -116.691 1292.84
v 21.3819 -131.991 1262.23
v 21.3819 -131.991 1262.23
v 22.073 -155.477 1261.95
v 22.2887 -155.685 1261.94
v 23.098 -155.851 1261.66
v 22.0747 -118.126 1270.33
v 22.0747 -118.126 1270.33
v 22.8536 -117.891 1270.03
v 22.6747 -117.736 1270.33
v 22.6747 -117.736 1270.33
v 22.9747 -117.841 1270.33
v 21.7747 -118.114 1270.64
v 22.3716 -118.108 1270.64
v 22.6823 -118.057 1270.64
v 22.9747 -118.119 1270.64
v 21.7747 -116.691 1293.23
v 21.7747 -116.691 1293.23
v 21.7747 -116.691 1293.23
v 22.1662 -116.53 1293.12
v 25.3542 -157.341 1261.07
v 23.5747 -118.491 1269.69
v 23.5747 -118.191 1270.01
v 23.5747 -118.191 1270.01
v 24.7888 -118.361 1269.43
v 24.7888 -118.361 1269.43
v 23.8999 -116.746 1293.55
v 23.8999 -116.746 1293.55
v 26.5781 -128.354 1260.46
v 26.9407 -128.065 1260.38
v 27.1747 -129.291 1260.35
v 28.0747 -127.791 1259.92
v 26.4142 -118.538 1269.09
v 27.1747 -116.691 1293.58
v 28.0474 -116.691 1293.47
v 28.7975 -158.691 1259.83
v 28.6747 -116.691 1293.26
v 29.8747 -116.669 1293.14
v 30.7747 -127.791 1259.31
v 31.0739 -158.664 1259.18
v 33.7747 -129.291 1258.37
v 34.3747 -129.591 1258.11
v 34.3747 -129.591 1258.11
v 34.6747 -129.591 1258.18
v 33.0379 -128.693 1258.83
v 33.3435 -158.391 1258.64
v 34.0747 -116.991 1291.74
v 35.8747 -130.491 1257.99
v 37.4826 -132.591 1257.43
v 37.3747 -155.091 1257.4
v 37.4647 -154.791 1257.43
v 37.4647 -154.791 1257.43
v 37.6255 -154.791 1257.73
v 37.4286 -152.748 1257.4
v 37.6747 -154.701 1257.43
v 37.6747 -154.701 1257.43
v 37.6747 -154.701 1257.43
v 37.6747 -154.701 1257.43
v 35.5747 -157.217 1258.03
v 35.9622 -156.891 1258.03
v 36.51 -156.306 1257.73
v 37.9311 -117.025 1288.93
v 36.3649 -117.005 1290.33
v 36.8041 -117.068 1290.13
v 36.8041 -117.068 1290.13
v 39.1747 -135.591 1256.93
v 39.1747 -135.591 1256.93
v 40.0747 -140.991 1256.5
v 40.0747 -140.991 1256.5
v 40.1099 -139.191 1256.83
v 39.952 -146.295 1256.56
v 39.2209 -150.59 1256.91
v 38.5747 -152.691 1257.04
v 38.8747 -152.138 1257.14
v 37.9747 -153.591 1257.24
v 37.9747 -153.891 1257.26
v 37.9747 -153.891 1257.26
v 37.9747 -154.191 1257.43
v 37.9747 -154.191 1257.43
v 37.9747 -154.191 1257.43
v 38.2747 -153.591 1257.42
v 39.0361 -117.439 1273.65
v 39.7747 -117.291 1287.29
v 39.7747 -117.291 1287.29
v 38.2391 -117.516 1288.9
v 40.8203 -117.438 1275.63
v 41.0527 -117.175 1276.73
v 41.0527 -117.175 1276.73
v 41.2747 -117.158 1276.93
v 41.5747 -117.166 1277.23
v 41.5747 -117.166 1277.23
v 41.7276 -117.291 1277.83
v 41.938 -117.291 1278.43
v 41.9972 -117.282 1280.26
v 41.8747 -117.192 1282.33
v 41.4161 -117.291 1284.14
v 41.3755 -117.291 1284.43
v 41.7419 -117.291 1282.93
v 41.7419 -117.291 1282.93
v 41.5912 -117.291 1283.83
v 41.9099 -117.291 1282.64
v 40.5013 -117.291 1286.16
f 2 1 14
f 654 655 3
f 654 3 26
f 16 4 9
f 4 5 11
f 656 8 666
f 7 6 5
f 658 663 657
f 7 5 32
f 4 32 5
f 42 666 8
f 32 30 7
f 31 659 661
f 660 678 664
f 675 679 662
f 680 42 8
f 21 654 22
f 654 9 10
f 4 11 10
f 4 10 9
f 9 21 16
f 9 654 21
f 666 42 665
f 665 42 1
f 14 1 42
f 12 13 655
f 12 655 667
f 13 17 655
f 19 13 12
f 12 51 19
f 667 43 12
f 43 15 12
f 12 15 51
f 43 44 15
f 54 4 16
f 654 26 22
f 655 17 3
f 23 26 3
f 17 23 3
f 17 24 23
f 17 13 18
f 19 18 13
f 18 24 17
f 18 55 24
f 19 55 18
f 20 54 16
f 16 21 20
f 21 22 25
f 22 26 25
f 24 65 23
f 70 25 26
f 26 23 65
f 65 24 71
f 27 28 32
f 27 32 4
f 39 36 668
f 695 669 29
f 696 673 41
f 670 111 674
f 674 111 701
f 28 27 121
f 28 121 109
f 733 111 670
f 682 33 676
f 683 38 684
f 677 685 681
f 684 42 680
f 38 42 684
f 683 671 34
f 34 38 683
f 689 35 686
f 693 686 35
f 686 672 689
f 37 687 690
f 688 692 694
f 690 40 37
f 697 698 691
f 692 699 694
f 700 42 38
f 702 698 697
f 701 42 700
f 42 45 14
f 14 45 703
f 44 52 15
f 703 45 46
f 43 704 44
f 48 52 44
f 704 48 44
f 47 46 45
f 107 118 47
f 47 45 107
f 118 49 704
f 47 118 704
f 48 704 49
f 42 107 45
f 49 119 48
f 118 120 49
f 120 119 49
f 27 4 54
f 15 52 51
f 56 19 51
f 52 53 51
f 51 53 56
f 56 53 126
f 52 48 122
f 119 122 48
f 122 53 52
f 125 50 57
f 20 58 54
f 27 54 58
f 57 50 58
f 50 27 58
f 56 59 55
f 55 59 24
f 56 55 19
f 126 59 56
f 57 58 62
f 61 57 62
f 58 20 63
f 25 63 20
f 21 25 20
f 24 60 71
f 24 59 60
f 59 130 60
f 126 130 59
f 67 134 61
f 67 61 62
f 62 58 63
f 63 64 69
f 25 70 64
f 25 64 63
f 70 69 64
f 65 70 26
f 60 137 71
f 707 66 74
f 62 705 67
f 133 707 74
f 705 62 75
f 62 68 75
f 68 62 63
f 68 63 69
f 69 70 76
f 77 70 65
f 71 77 65
f 145 77 71
f 72 78 73
f 709 74 66
f 72 73 706
f 139 74 709
f 75 78 708
f 705 75 708
f 75 79 78
f 68 79 75
f 68 69 79
f 76 77 87
f 70 77 76
f 81 73 78
f 710 83 709
f 709 83 139
f 78 79 81
f 80 85 84
f 79 69 80
f 69 85 80
f 69 76 85
f 82 83 710
f 80 711 81
f 711 80 84
f 711 84 88
f 81 79 80
f 84 85 93
f 76 87 85
f 85 87 86
f 141 86 87
f 88 84 92
f 89 717 91
f 90 83 712
f 83 82 713
f 712 715 90
f 88 714 711
f 88 92 714
f 139 83 90
f 139 90 715
f 95 716 92
f 94 96 92
f 84 93 92
f 94 92 93
f 85 86 93
f 93 86 94
f 86 143 94
f 95 92 96
f 718 97 98
f 718 98 715
f 96 719 95
f 96 99 719
f 96 94 99
f 720 98 97
f 94 100 99
f 148 100 94
f 720 147 98
f 152 147 720
f 100 749 99
f 161 166 104
f 104 102 116
f 724 103 117
f 744 725 746
f 117 103 207
f 726 727 105
f 105 106 726
f 724 731 103
f 103 731 207
f 728 168 730
f 168 731 730
f 761 167 729
f 167 764 729
f 207 731 168
f 107 108 118
f 262 107 42
f 116 121 104
f 110 737 734
f 111 42 701
f 109 121 735
f 101 735 113
f 721 740 114
f 722 112 736
f 736 112 738
f 739 42 111
f 113 735 121
f 740 117 114
f 723 741 115
f 742 112 722
f 743 42 739
f 117 740 745
f 116 113 121
f 117 207 114
f 207 743 114
f 207 42 743
f 120 124 119
f 118 732 120
f 732 172 120
f 172 171 120
f 120 171 124
f 50 121 27
f 121 50 125
f 122 128 53
f 122 119 123
f 123 119 124
f 123 174 128
f 122 123 128
f 174 123 124
f 128 174 178
f 174 179 178
f 175 124 171
f 174 124 175
f 129 183 125
f 57 129 125
f 128 126 53
f 126 128 127
f 126 127 132
f 128 178 127
f 180 183 129
f 129 135 180
f 129 57 61
f 130 126 132
f 130 132 131
f 134 67 747
f 134 135 129
f 134 747 135
f 61 134 129
f 136 137 60
f 60 130 136
f 136 130 131
f 136 131 187
f 139 748 74
f 748 139 236
f 137 145 71
f 137 140 145
f 137 138 140
f 188 138 187
f 137 136 138
f 136 187 138
f 188 140 138
f 145 142 77
f 77 142 87
f 87 142 141
f 98 139 715
f 155 139 98
f 141 143 86
f 144 141 142
f 142 145 144
f 144 145 146
f 191 145 140
f 191 146 145
f 148 749 100
f 152 155 147
f 98 147 155
f 148 94 149
f 148 153 749
f 149 153 148
f 143 149 94
f 143 150 149
f 150 159 149
f 150 143 141
f 141 144 150
f 150 151 159
f 144 146 151
f 150 144 151
f 151 146 192
f 155 152 154
f 750 749 153
f 750 153 156
f 154 157 155
f 750 156 751
f 751 156 193
f 198 751 193
f 149 158 153
f 153 158 156
f 156 158 193
f 149 159 158
f 158 159 194
f 121 217 165
f 165 217 203
f 759 203 206
f 763 762 160
f 752 166 161
f 161 104 162
f 121 162 104
f 753 754 163
f 754 755 163
f 162 165 756
f 163 164 753
f 160 757 763
f 757 169 763
f 758 311 765
f 165 162 121
f 311 758 756
f 307 756 165
f 756 307 311
f 760 771 800
f 167 766 764
f 765 207 168
f 765 311 207
f 207 262 42
f 262 208 107
f 108 107 208
f 108 208 170
f 173 172 170
f 172 732 170
f 176 171 172
f 176 172 218
f 219 217 125
f 121 125 217
f 175 171 176
f 179 174 175
f 175 176 177
f 179 175 177
f 183 222 229
f 222 227 229
f 183 219 125
f 178 184 127
f 178 179 230
f 179 177 231
f 230 179 231
f 135 181 180
f 181 135 747
f 767 748 236
f 183 182 222
f 183 180 182
f 181 182 180
f 132 127 184
f 131 132 184
f 131 184 186
f 184 178 238
f 238 185 184
f 187 131 186
f 184 185 186
f 186 185 241
f 187 186 242
f 187 242 188
f 243 188 242
f 191 140 189
f 140 188 189
f 188 243 189
f 146 191 190
f 192 146 190
f 191 189 190
f 189 244 190
f 159 151 196
f 192 196 151
f 139 155 197
f 197 155 157
f 768 197 157
f 201 139 197
f 193 202 198
f 158 194 193
f 193 194 195
f 194 159 196
f 196 195 194
f 195 196 248
f 248 196 246
f 768 199 197
f 197 199 201
f 199 768 200
f 769 198 202
f 201 199 770
f 251 201 770
f 769 202 257
f 202 193 195
f 205 217 216
f 205 204 203
f 204 307 772
f 203 204 206
f 217 205 203
f 173 170 208
f 208 212 173
f 262 209 208
f 209 210 208
f 208 773 212
f 262 214 209
f 211 210 209
f 211 209 214
f 212 773 774
f 774 213 212
f 213 173 212
f 774 775 213
f 214 262 264
f 215 173 213
f 218 172 173
f 173 215 218
f 218 220 176
f 218 215 268
f 218 268 220
f 220 268 272
f 269 268 215
f 216 217 219
f 216 219 271
f 220 177 176
f 221 177 220
f 231 177 221
f 272 221 220
f 279 231 221
f 272 279 221
f 279 232 231
f 273 279 272
f 233 222 182
f 222 223 224
f 222 224 227
f 223 222 233
f 776 782 234
f 224 223 225
f 779 777 783
f 224 276 227
f 779 783 235
f 778 780 226
f 781 779 235
f 237 781 235
f 277 781 237
f 778 226 792
f 227 276 228
f 778 792 791
f 228 271 229
f 227 228 229
f 219 183 229
f 219 229 271
f 230 232 239
f 230 231 232
f 232 279 280
f 283 281 232
f 182 181 233
f 782 767 236
f 234 782 236
f 784 234 236
f 785 784 236
f 178 230 238
f 238 230 239
f 240 185 238
f 239 240 238
f 240 239 281
f 281 239 232
f 287 240 281
f 287 285 240
f 785 236 330
f 241 288 242
f 240 241 185
f 241 240 285
f 241 285 288
f 186 241 242
f 243 242 290
f 189 245 244
f 189 243 245
f 244 247 190
f 247 244 295
f 295 244 245
f 295 245 292
f 192 246 196
f 192 190 246
f 246 190 247
f 252 139 201
f 195 249 259
f 248 249 195
f 260 259 249
f 260 249 297
f 249 298 297
f 248 246 250
f 249 248 250
f 249 250 298
f 250 246 247
f 250 247 294
f 298 250 294
f 252 201 251
f 770 253 251
f 786 769 257
f 252 251 787
f 254 252 787
f 299 789 788
f 139 252 256
f 256 252 254
f 256 254 796
f 797 786 255
f 786 257 255
f 797 255 258
f 257 202 259
f 257 259 261
f 258 257 261
f 258 261 301
f 255 257 258
f 259 202 195
f 261 259 260
f 351 264 262
f 266 264 351
f 790 805 314
f 216 303 205
f 316 303 216
f 304 303 316
f 205 303 204
f 214 264 266
f 790 263 775
f 213 775 215
f 775 263 215
f 265 269 215
f 215 263 265
f 263 790 265
f 265 267 269
f 314 265 790
f 316 216 271
f 317 272 268
f 268 269 270
f 317 268 270
f 270 269 267
f 271 228 324
f 274 273 272
f 275 273 274
f 272 317 274
f 792 278 791
f 794 793 785
f 228 276 795
f 228 795 324
f 323 794 785
f 283 232 280
f 280 284 283
f 273 280 279
f 273 275 280
f 325 280 275
f 283 282 281
f 287 281 282
f 287 282 332
f 283 284 327
f 283 327 282
f 286 288 285
f 285 287 286
f 288 286 334
f 289 330 236
f 289 236 139
f 288 290 242
f 243 290 292
f 243 292 245
f 290 293 292
f 295 291 296
f 292 293 291
f 292 291 295
f 291 293 336
f 294 247 296
f 296 247 295
f 289 139 256
f 294 340 298
f 343 256 796
f 344 343 796
f 300 797 301
f 289 256 343
f 803 797 300
f 258 301 797
f 261 302 301
f 302 261 260
f 260 297 302
f 303 307 204
f 305 303 304
f 307 303 798
f 313 306 304
f 305 304 306
f 798 799 307
f 799 309 307
f 313 308 306
f 306 308 309
f 310 308 313
f 309 308 801
f 801 307 309
f 805 312 314
f 207 351 262
f 353 315 312
f 313 304 316
f 265 314 267
f 314 312 267
f 315 267 312
f 315 318 267
f 356 318 315
f 355 316 362
f 355 313 316
f 318 270 267
f 318 317 270
f 319 317 318
f 356 319 318
f 319 320 317
f 357 319 356
f 271 324 361
f 316 271 362
f 271 361 362
f 320 274 317
f 275 320 321
f 320 275 274
f 321 325 275
f 326 325 321
f 364 326 321
f 320 319 321
f 322 794 323
f 324 795 802
f 365 322 323
f 365 324 802
f 324 365 361
f 284 280 325
f 329 284 325
f 329 325 326
f 323 785 330
f 332 282 327
f 328 327 329
f 328 333 327
f 284 329 327
f 287 332 286
f 332 327 333
f 331 332 333
f 331 286 332
f 331 334 286
f 288 334 290
f 293 290 334
f 296 291 335
f 296 335 338
f 293 334 336
f 291 336 335
f 335 336 374
f 334 375 336
f 336 375 374
f 296 338 337
f 294 296 337
f 379 337 338
f 339 302 297
f 339 349 302
f 341 381 339
f 381 349 339
f 340 297 298
f 339 297 340
f 339 340 341
f 342 341 340
f 382 341 342
f 340 337 342
f 340 294 337
f 803 300 345
f 300 347 345
f 346 343 344
f 803 345 804
f 383 289 343
f 383 343 346
f 345 348 804
f 300 301 347
f 348 345 347
f 301 302 347
f 347 302 349
f 391 307 801
f 310 350 808
f 311 307 391
f 805 353 312
f 352 353 805
f 207 393 351
f 805 809 352
f 352 809 394
f 310 355 350
f 310 313 355
f 355 399 350
f 350 399 808
f 353 356 315
f 353 358 356
f 395 353 352
f 354 353 395
f 398 354 395
f 399 355 362
f 358 357 356
f 354 360 358
f 359 358 360
f 359 357 358
f 400 359 360
f 400 403 359
f 354 358 353
f 408 363 361
f 363 362 361
f 362 363 399
f 399 363 459
f 319 357 321
f 357 364 321
f 357 359 364
f 359 367 364
f 359 403 367
f 406 365 323
f 587 406 323
f 365 408 361
f 407 408 365
f 326 366 368
f 368 329 326
f 368 366 370
f 367 370 366
f 366 326 364
f 364 367 366
f 587 323 330
f 371 333 328
f 368 369 328
f 369 371 328
f 369 413 372
f 328 329 368
f 370 369 368
f 371 331 333
f 369 372 371
f 415 331 371
f 473 330 289
f 373 334 331
f 331 421 373
f 331 415 421
f 335 374 338
f 374 376 379
f 432 379 376
f 375 376 374
f 375 377 376
f 377 375 373
f 427 376 377
f 334 373 375
f 337 379 380
f 380 342 337
f 432 380 379
f 378 342 380
f 430 378 380
f 430 380 432
f 379 338 374
f 390 434 389
f 390 381 435
f 435 434 390
f 381 437 435
f 381 382 437
f 381 341 382
f 378 438 382
f 382 342 378
f 384 383 346
f 806 804 385
f 385 804 348
f 386 383 384
f 806 385 807
f 385 388 807
f 386 289 383
f 388 385 348
f 389 388 348
f 388 389 433
f 807 388 387
f 433 387 388
f 349 390 347
f 390 389 347
f 389 348 347
f 433 389 434
f 381 390 349
f 808 456 447
f 391 392 311
f 311 392 448
f 808 447 814
f 448 392 391
f 448 439 311
f 452 814 447
f 207 446 393
f 394 395 352
f 398 395 397
f 394 809 451
f 451 396 394
f 396 395 394
f 395 396 397
f 449 397 396
f 451 449 396
f 399 456 808
f 456 519 447
f 398 400 360
f 454 398 453
f 398 360 354
f 453 398 397
f 459 456 399
f 401 403 400
f 398 401 400
f 454 401 398
f 457 401 454
f 405 401 457
f 409 363 408
f 363 409 459
f 456 459 460
f 457 402 405
f 457 461 402
f 403 404 367
f 405 403 401
f 405 404 403
f 405 402 404
f 406 587 463
f 365 406 407
f 464 408 407
f 407 406 464
f 464 409 408
f 410 367 404
f 410 370 367
f 402 410 404
f 402 411 410
f 372 413 412
f 411 412 414
f 414 412 413
f 413 369 370
f 414 413 370
f 414 370 410
f 411 414 410
f 417 372 412
f 417 416 372
f 417 412 468
f 371 372 415
f 372 416 415
f 417 470 416
f 587 330 473
f 416 418 415
f 418 422 415
f 419 373 421
f 419 420 425
f 420 475 425
f 415 422 421
f 422 419 421
f 422 418 420
f 420 419 422
f 373 423 377
f 423 427 377
f 373 419 423
f 419 425 423
f 423 425 424
f 425 475 424
f 426 432 376
f 482 480 426
f 426 376 427
f 424 427 423
f 424 426 427
f 426 424 482
f 438 378 430
f 438 430 429
f 438 429 428
f 430 432 431
f 431 429 430
f 431 432 426
f 480 431 426
f 436 435 437
f 435 436 434
f 437 492 436
f 436 492 491
f 437 382 438
f 437 438 428
f 492 437 428
f 489 807 387
f 488 289 386
f 816 488 386
f 387 433 489
f 810 814 440
f 311 439 441
f 440 442 810
f 439 811 441
f 442 440 444
f 444 440 513
f 443 311 441
f 811 443 441
f 813 445 812
f 811 445 443
f 445 311 443
f 445 494 311
f 813 493 445
f 444 513 817
f 815 393 446
f 207 503 446
f 446 503 504
f 815 446 504
f 440 814 452
f 452 447 519
f 513 440 452
f 449 451 450
f 828 450 451
f 828 511 450
f 511 455 450
f 828 505 511
f 518 516 515
f 458 516 518
f 449 453 397
f 449 450 453
f 450 454 453
f 450 455 454
f 454 455 458
f 455 516 458
f 460 519 456
f 462 458 518
f 467 462 518
f 458 457 454
f 458 461 457
f 458 462 461
f 409 465 459
f 465 460 459
f 461 466 402
f 462 467 461
f 467 466 461
f 406 463 464
f 464 463 524
f 524 463 587
f 464 524 525
f 464 525 409
f 467 523 530
f 466 411 402
f 471 530 532
f 411 468 412
f 466 468 411
f 468 470 417
f 466 530 468
f 530 471 468
f 468 471 470
f 467 530 466
f 471 472 470
f 471 469 472
f 532 469 471
f 470 418 416
f 472 418 470
f 473 289 642
f 474 535 477
f 475 472 476
f 476 474 475
f 474 477 475
f 469 476 472
f 476 534 474
f 535 474 534
f 472 420 418
f 472 475 420
f 481 477 537
f 475 477 424
f 477 482 424
f 535 537 477
f 431 480 487
f 487 480 478
f 478 479 487
f 478 544 479
f 478 537 544
f 480 481 478
f 482 481 480
f 481 537 478
f 477 481 482
f 485 484 492
f 483 491 492
f 484 483 492
f 428 485 492
f 484 485 486
f 428 429 485
f 479 486 485
f 431 487 429
f 485 429 487
f 485 487 479
f 489 433 490
f 433 434 491
f 433 491 490
f 548 490 491
f 555 490 548
f 434 436 491
f 548 491 483
f 493 494 445
f 817 514 818
f 556 311 494
f 818 514 509
f 494 557 556
f 509 835 818
f 500 311 556
f 311 500 207
f 565 566 500
f 500 566 572
f 503 207 497
f 819 495 507
f 500 496 207
f 207 496 497
f 495 819 499
f 502 498 496
f 824 496 501
f 501 496 500
f 497 496 498
f 499 819 820
f 822 821 825
f 510 499 574
f 495 499 510
f 572 573 500
f 845 847 823
f 848 501 500
f 501 848 826
f 827 574 499
f 575 510 574
f 503 829 504
f 829 503 830
f 506 511 505
f 497 830 503
f 507 506 505
f 508 506 507
f 506 508 511
f 508 507 495
f 817 513 514
f 510 508 495
f 512 508 510
f 515 512 510
f 575 515 510
f 455 511 512
f 512 511 508
f 516 455 512
f 512 515 516
f 513 452 519
f 519 520 513
f 513 520 514
f 515 575 517
f 589 517 575
f 518 515 517
f 465 522 460
f 460 522 519
f 520 519 522
f 518 523 467
f 518 517 523
f 525 465 409
f 465 521 522
f 528 530 523
f 523 517 589
f 526 525 524
f 524 590 526
f 851 524 587
f 526 465 525
f 526 521 465
f 526 588 521
f 528 523 589
f 531 529 527
f 527 529 528
f 528 529 530
f 589 527 528
f 531 532 529
f 469 531 534
f 532 531 469
f 530 529 532
f 469 534 476
f 531 533 534
f 533 531 599
f 535 536 539
f 535 533 536
f 533 597 536
f 536 597 602
f 602 539 536
f 533 535 534
f 545 542 544
f 538 545 544
f 538 540 545
f 537 538 544
f 539 538 537
f 602 540 539
f 538 539 540
f 539 537 535
f 542 543 550
f 543 541 549
f 550 543 549
f 543 607 541
f 479 542 486
f 479 544 542
f 607 543 545
f 542 545 543
f 546 552 554
f 608 831 833
f 642 289 552
f 547 854 555
f 854 547 605
f 548 547 555
f 548 483 549
f 548 549 547
f 547 549 541
f 484 486 550
f 486 542 550
f 549 484 550
f 483 484 549
f 552 289 488
f 816 552 488
f 553 552 816
f 551 832 489
f 490 551 489
f 554 552 553
f 832 551 834
f 555 854 834
f 551 490 555
f 555 834 551
f 835 509 577
f 835 577 559
f 558 836 839
f 837 556 557
f 500 556 837
f 500 837 562
f 560 838 559
f 840 838 560
f 840 560 561
f 564 840 561
f 564 561 582
f 562 565 500
f 562 563 565
f 564 571 841
f 571 564 582
f 841 840 564
f 842 576 844
f 570 567 565
f 842 565 567
f 568 842 567
f 569 567 843
f 567 569 568
f 568 569 850
f 842 568 576
f 575 850 569
f 570 565 563
f 843 841 571
f 843 571 569
f 569 571 575
f 576 846 844
f 849 846 576
f 575 574 850
f 577 578 559
f 578 580 559
f 559 580 560
f 560 580 582
f 560 582 561
f 577 609 578
f 578 611 579
f 580 578 579
f 579 581 580
f 579 611 581
f 580 581 583
f 580 583 582
f 582 575 571
f 585 625 509
f 585 514 520
f 585 509 514
f 509 625 577
f 577 625 609
f 575 594 589
f 521 584 522
f 521 588 584
f 591 584 588
f 584 520 522
f 584 591 585
f 584 585 520
f 591 625 585
f 614 586 583
f 586 575 582
f 594 575 586
f 583 586 582
f 590 588 526
f 590 591 588
f 586 592 594
f 473 851 587
f 851 473 618
f 586 617 592
f 592 617 593
f 593 596 598
f 617 629 593
f 629 596 593
f 594 598 599
f 593 594 592
f 598 594 593
f 599 531 527
f 594 599 589
f 589 599 527
f 598 596 595
f 601 595 596
f 598 595 597
f 597 599 598
f 597 533 599
f 600 649 603
f 601 600 603
f 600 601 596
f 601 602 595
f 597 595 602
f 606 603 649
f 607 545 603
f 540 603 545
f 601 540 602
f 603 540 601
f 651 546 604
f 651 652 546
f 546 652 642
f 606 871 852
f 606 649 653
f 606 653 871
f 541 606 605
f 606 607 603
f 541 607 606
f 546 642 552
f 853 831 608
f 605 852 854
f 605 606 852
f 547 541 605
f 578 609 611
f 611 613 581
f 581 613 583
f 612 613 611
f 613 614 583
f 609 625 610
f 609 610 611
f 611 610 612
f 612 628 613
f 628 616 613
f 614 613 616
f 625 626 610
f 626 615 610
f 610 615 612
f 612 615 628
f 628 627 616
f 614 616 617
f 614 617 586
f 619 851 618
f 591 590 855
f 591 855 624
f 620 619 618
f 624 855 856
f 620 618 473
f 620 473 621
f 622 624 857
f 858 622 857
f 622 858 623
f 859 621 473
f 859 473 631
f 624 622 860
f 624 860 633
f 631 630 859
f 860 861 633
f 624 633 626
f 591 624 625
f 624 626 625
f 615 626 628
f 635 627 646
f 628 646 627
f 627 629 617
f 616 627 617
f 629 627 635
f 632 630 631
f 633 861 862
f 632 631 637
f 637 631 473
f 636 632 637
f 862 863 634
f 626 633 862
f 862 634 626
f 626 634 628
f 628 634 638
f 650 635 646
f 596 635 600
f 650 600 635
f 635 596 629
f 637 473 642
f 634 863 638
f 638 863 864
f 646 638 864
f 642 870 637
f 648 650 646
f 628 638 646
f 649 600 650
f 641 639 652
f 652 639 642
f 647 866 653
f 644 642 639
f 641 640 639
f 865 866 647
f 643 870 642
f 643 642 644
f 646 867 648
f 645 868 644
f 867 869 648
f 648 869 650
f 639 645 644
f 647 650 869
f 645 639 640
f 869 865 647
f 653 649 647
f 647 649 650
f 651 641 652
f 866 871 653
