o FMA9465_BP8719_FJ2425
v -19.3286 -88.9779 1244.54
v -18.2631 -89.9156 1243.77
v -19.0741 -89.124 1249.95
v -18.2607 -90.991 1247.71
v -17.6087 -91.1232 1250.59
v -19.3699 -87.9644 1243.12
v -18.5445 -85.4015 1242.11
v -17.3516 -87.9917 1240.33
v -18.9426 -88.8181 1251.15
v -19.4438 -86.7268 1251.04
v -18.6056 -87.7171 1251.6
v -18.955 -86.2317 1251.22
v -18.2598 -85.6683 1251.17
v -17.9606 -86.211 1251.46
v -19.99 -83.7537 1242.96
v -18.3987 -84.328 1242.2
v -18.0292 -83.1924 1242.7
v -17.0921 -84.6616 1240.21
v -20.3846 -83.7537 1243.68
v -19.7786 -82.9713 1244.77
v -20.046 -84.5944 1248.54
v -19.8819 -83.6938 1248.43
v -19.2937 -84.2841 1249.81
v -18.8486 -82.6983 1247.77
v -17.1534 -82.3308 1249.11
v -18.1276 -77.7639 1231.68
v -17.7293 -77.8981 1234.69
v -18.9393 -73.7752 1227.24
v -17.4384 -73.7669 1227.08
v -19.2985 -74.6195 1229.83
v -19.4061 -73.6727 1228.14
v -18.9554 -75.7656 1230.83
v -18.9558 -74.5112 1228.65
v -18.1911 -75.3159 1229.13
v -17.9815 -74.5354 1228.13
v -19.3721 -74.7153 1234.84
v -18.7264 -76.6657 1233.71
v -17.9515 -76.3084 1235.42
v -19.1253 -75.2537 1235.68
v -18.99 -74.7537 1235.83
v -19.5174 -72.7537 1226.68
v -19.5668 -72.2848 1227.24
v -19.49 -72.2255 1226.68
v -18.8306 -72.7922 1226.44
v -18.7932 -72.2127 1226.68
v -19.6132 -71.9303 1228.48
v -19.49 -71.5917 1227.68
v -18.8089 -71.5156 1227.79
v -18.8566 -71.3687 1229.35
v -19.6081 -72.4021 1233.36
v -19.4606 -71.7742 1232.37
v -19.4314 -72.3794 1234
v -18.5845 -72.3936 1234.24
v -18.4939 -71.7588 1232.96
v -14.8957 -89.3258 1238.4
v -16.7741 -89.3872 1241.26
v -16.7536 -91.8598 1249.69
v -16.7476 -91.6621 1250.75
v -13.4962 -92.6387 1251.16
v -16.7461 -90.6845 1251.81
v -13.5641 -92.1759 1252.15
v -13.1927 -91.2925 1253.19
v -15.5121 -84.893 1234.9
v -16.7614 -85.1196 1238.24
v -15.9579 -87.4574 1236.92
v -15.925 -81.1787 1233.08
v -16.4589 -81.4656 1235.79
v -16.996 -82.8312 1241.73
v -15.0472 -84.5369 1252.17
v -13.8618 -80.0211 1228.87
v -16.3693 -79.2463 1236.74
v -16.2416 -77.2445 1236.63
v -15.8488 -80.8576 1239.27
v -15.0068 -78.7287 1238.56
v -15.5863 -80.6945 1245.37
v -16.4824 -73.2393 1226.83
v -16.0023 -74.8035 1227.48
v -14.8044 -73.9032 1226.93
v -13.3957 -73.3936 1226.81
v -16.7738 -74.2141 1235.63
v -17.0425 -75.7102 1236.04
v -14.5016 -75.3827 1236.86
v -15.99 -72.7537 1227
v -14.99 -72.7537 1227.22
v -13.0133 -72.7653 1227.24
v -14.3788 -71.3761 1229.59
v -12.2854 -92.8668 1248.23
v -10.3174 -93.7672 1252.29
v -10.6663 -91.1099 1238.36
v -10.9945 -92.92 1253.29
v -11.1384 -91.8544 1254.16
v -10.6888 -89.7807 1254.96
v -10.0907 -87.7278 1228.53
v -11.9282 -83.0556 1228.44
v -12.5737 -81.7458 1251.48
v -11.7406 -77.8017 1226.09
v -12.4499 -77.6391 1240.4
v -12.6291 -71.3615 1231.82
v -9.98905 -72.1773 1234.45
v -6.27479 -94.459 1256.18
v -6.24668 -93.3191 1256.95
v -6.50138 -89.3514 1225.01
v -9.00949 -89.4541 1230.11
v -6.23563 -87.4304 1221.74
v -5.79418 -88.2275 1256.96
v -7.21823 -82.9426 1222.42
v -7.09468 -77.9534 1249.31
v -7.59929 -76.514 1224.28
v -1.92943 -97.8572 1253.16
v -1.43769 -93.1734 1223.84
v -2.68717 -94.5522 1234.37
v -4.9533 -91.7385 1257.84
v -3.9482 -81.7349 1219.95
v -2.06465 -79.9491 1220.06
v -3.99686 -78.5183 1251.84
v -2.90198 -74.5091 1224.61
v -3.14467 -73.4408 1240.36
v 1.83431 -97.25 1226.33
v 2.44368 -98.8133 1243.81
v 1.59841 -99.4976 1257.28
v 2.97864 -94.7234 1211.37
v 1.65267 -95.5153 1220.32
v -1.39653 -96.1928 1243.49
v -0.860485 -94.7844 1259.19
v 1.78806 -92.1871 1211.23
v -0.650825 -91.2191 1215.02
v -0.417551 -89.8063 1213.67
v -0.186549 -92.9436 1216.98
v 0.130807 -92.3091 1259.65
v 2.07399 -87.2384 1211.66
v 2.40561 -87.5929 1259.4
v -0.892591 -82.8029 1256.51
v 0.445509 -74.4621 1245.77
v -0.216463 -76.1878 1249.65
v 3.29265 -72.5849 1226.99
v -0.85146 -71.0038 1233.12
v 5.12491 -100.904 1223.47
v 5.41915 -101.472 1243.38
v 3.28118 -100.878 1255.28
v 5.96259 -101.397 1258.18
v 6.71494 -102.324 1256.24
v 5.52588 -97.6664 1210.77
v 6.62842 -97.2325 1209.15
v 5.15113 -98.9667 1214.93
v 3.11336 -99.029 1259.07
v 4.89166 -93.2491 1208.32
v 5.48885 -95.7136 1208.88
v 6.12021 -91.7633 1207.41
v 2.8109 -90.1239 1209.94
v 5.93981 -89.1927 1208.11
v 5.54651 -85.5718 1210.81
v 5.39752 -79.3227 1217.65
v 6.09115 -75.9866 1250.88
v 6.68685 -74.4147 1247.67
v 2.39638 -70.9905 1231.06
v 3.14872 -72.0441 1239.92
v 10.0415 -101.187 1214.2
v 7.9032 -102.351 1218.36
v 8.98097 -101.995 1216.01
v 9.52796 -103.016 1219.22
v 10.1086 -102.247 1216.81
v 6.92141 -102.854 1225.68
v 9.04399 -103.683 1224.06
v 10.7635 -103.568 1226.71
v 8.18515 -103.292 1230.58
v 9.63032 -103.238 1232.44
v 7.40529 -102.58 1242.95
v 10.3374 -102.717 1242.96
v 7.9816 -102.643 1253.14
v 10.215 -103.009 1255.65
v 8.54795 -99.6917 1211.28
v 8.62172 -97.2389 1208.53
v 7.03299 -99.5632 1211.99
v 6.59954 -97.9069 1261.06
v 8.46392 -99.7272 1260.88
v 6.90669 -94.7069 1207.48
v 7.58298 -93.6993 1206.96
v 8.02812 -95.2807 1207.33
v 9.03074 -94.1791 1206.86
v 9.96853 -95.2537 1207.38
v 10.6276 -93.5893 1206.87
v 10.4944 -96.4103 1208.3
v 8.45567 -90.1798 1206.75
v 9.47462 -91.3527 1206.45
v 9.78044 -91.5535 1261.78
v 8.48902 -88.1948 1207.49
v 9.03995 -83.3688 1211.31
v 10.03 -81.335 1257.95
v 10.317 -77.1083 1253.55
v 6.83769 -79.3727 1255.88
v 9.5789 -71.2336 1235.72
v 12.3982 -100.583 1216.08
v 12.0215 -102.908 1221.8
v 11.9938 -102.485 1234.16
v 14.7137 -103.074 1252.88
v 11.3347 -102.297 1259.43
v 11.2468 -98.8675 1211.5
v 12.0109 -94.7092 1207.93
v 13.1181 -95.7376 1262.66
v 12.4681 -90.3091 1206.56
v 13.8659 -91.3771 1207.2
v 11.0346 -88.7036 1206.69
v 13.6551 -88.5572 1206.92
v 10.9265 -85.8003 1208.38
v 14.5018 -84.9038 1208.54
v 14.7775 -82.8907 1259.41
v 11.9679 -85.1888 1260.24
v 13.9231 -78.3299 1255.21
v 10.7055 -73.338 1245.05
v 12.5686 -74.6758 1248.65
v 11.3419 -71.2449 1232.18
v 11.4084 -72.2459 1240.81
v 18.6034 -101.771 1248.12
v 15.4963 -104.091 1255.82
v 16.4777 -101.367 1261.84
v 16.4792 -99.1948 1262.66
v 15.126 -89.6064 1207.37
v 15.896 -91.3482 1208.5
v 16.3715 -92.4462 1262.87
v 14.4386 -82.0865 1211.24
v 18.0785 -83.2228 1209.85
v 18.3887 -84.9449 1209.07
v 18.0218 -72.0359 1237.39
v 20.3506 -105.989 1257.79
v 20.6159 -105.964 1256.44
v 21.5282 -106.072 1259.25
v 22.6089 -107.094 1257.49
v 21.0132 -104.399 1253.18
v 18.8577 -104.018 1260.11
v 21.2751 -104.31 1260.69
v 21.7367 -101.72 1262.04
v 20.8928 -98.6931 1231.27
v 19.4348 -99.645 1236.71
v 22.0509 -95.9655 1263.02
v 19.4525 -87.2737 1209.41
v 20.8204 -88.7443 1211.85
v 23.446 -85.376 1212.08
v 21.7448 -86.9083 1261.43
v 22.0854 -84.2672 1210.91
v 22.276 -82.6568 1211.47
v 22.2305 -80.2315 1213.77
v 21.6682 -80.671 1257.69
v 21.9973 -74.0138 1243.98
v 20.7036 -75.8076 1250.21
v 22.2948 -72.0887 1232.57
v 25.7379 -109.897 1259.06
v 27.2207 -111.631 1259.21
v 26.1156 -110.592 1260.16
v 27.1088 -112.003 1259.79
v 26.5295 -111.157 1259.7
v 25.8848 -105.42 1254.81
v 23.0279 -107.535 1258.18
v 23.4118 -107.737 1259.15
v 23.5572 -107.566 1257.68
v 23.6561 -106.719 1256.59
v 24.1095 -108.424 1258.73
v 24.5655 -108.458 1258.18
v 25.0786 -108.157 1257.72
v 24.044 -107.298 1260.19
v 26.5408 -106.592 1260.93
v 27.1126 -100.877 1247.84
v 26.1948 -97.6446 1240.79
v 26.5555 -96.412 1236.65
v 25.4605 -83.6841 1259.74
v 26.2813 -79.1333 1255.49
v 29.6262 -117.396 1261.54
v 30.7532 -119.201 1263.13
v 27.6661 -109.206 1257.43
v 27.1726 -112.36 1260.66
v 27.0001 -109.3 1261.13
v 27.8833 -113.081 1261.82
v 29.0226 -111.501 1262.37
v 27.843 -106.609 1256.12
v 28.5254 -107.912 1261.1
v 29.001 -81.2825 1216.19
v 30.1745 -83.3015 1258.78
v 29.9608 -81.2181 1257.09
v 30.1692 -79.28 1217.77
v 29.2076 -77.2937 1246.58
v 28.2426 -78.2885 1253.36
v 27.8501 -73.5848 1236.88
v 30.1208 -75.1959 1239
v 29.0055 -76.5255 1243.39
v 32.5268 -121.67 1262.63
v 33.6609 -122.425 1261.59
v 34.6585 -123.461 1262.71
v 33.3526 -122.125 1264.15
v 34.4164 -122.12 1265.68
v 33.5972 -119.931 1259.11
v 31.2399 -120.15 1262.15
v 30.9514 -117.87 1259.71
v 31.7738 -120.208 1260.77
v 31.7836 -119.161 1265.04
v 33.1651 -119.26 1266.33
v 31.3977 -116.601 1265.39
v 33.0497 -116.666 1266.46
v 34.5536 -114.271 1265.94
v 32.7082 -110.123 1255.58
v 34.5874 -111.806 1255.48
v 31.2872 -111.557 1256.39
v 32.5156 -110.582 1262.73
v 34.2899 -109.243 1261.64
v 31.8124 -108.083 1255.93
v 32.0975 -106.969 1260.64
v 34.0543 -103.072 1253.61
v 32.2776 -103.534 1259.72
v 34.4918 -93.3002 1240.78
v 31.4115 -95.836 1260.62
v 32.0147 -92.5732 1237.17
v 32.9548 -85.544 1259.1
v 32.2874 -78.1891 1241.52
v 32.9742 -79.7365 1244.56
v 31.0404 -78.4836 1250.51
v 32.473 -80.1536 1254.44
v 38.1112 -125.615 1263.18
v 35.1889 -123.506 1264.66
v 36.564 -123.267 1266.43
v 36.5347 -121.698 1267.41
v 38.2232 -120.101 1257.24
v 35.9383 -119.177 1267.79
v 37.0973 -118.273 1268.03
v 38.4191 -120.266 1268.28
v 35.5479 -116.789 1267.43
v 37.9883 -116.317 1267.4
v 38.1303 -113.226 1265.06
v 35.1335 -111.581 1263.57
v 36.4318 -106.233 1255
v 37.2617 -107.309 1254.85
v 37.7397 -106.037 1258.35
v 36.6858 -100.727 1251.73
v 37.0158 -104.386 1254.63
v 37.3924 -102.755 1253.99
v 37.9925 -104.826 1254.8
v 38.0128 -103.232 1254.55
v 37.9657 -102.293 1254.04
v 38.4695 -102.753 1255.15
v 38.7303 -104.824 1255.2
v 38.497 -103.773 1255.16
v 38.5396 -101.052 1254.01
v 37.7153 -102.191 1256.75
v 38.4308 -102.294 1255.68
v 38.3729 -101.119 1255.56
v 38.8722 -104.337 1255.72
v 38.5328 -104.253 1256.79
v 38.5733 -103.293 1255.68
v 38.0182 -100.371 1252.31
v 38.6233 -98.32 1254.93
v 35.3274 -97.4616 1258.17
v 37.508 -94.9544 1245.46
v 35.7886 -89.8696 1237.32
v 37.2851 -90.5329 1241.06
v 38.8606 -89.9781 1244.92
v 38.2876 -86.2559 1235.18
v 37.0406 -88.799 1238.12
v 37.5045 -87.6096 1236.81
v 37.6791 -87.152 1238.23
v 38.6171 -85.2482 1235.79
v 37.2225 -85.7539 1242.64
v 37.3668 -85.07 1239.59
v 37.886 -88.7165 1241.86
v 37.5302 -88.1912 1239.57
v 37.5744 -87.2095 1240.63
v 38.006 -85.3745 1246.27
v 36.94 -82.9005 1225.34
v 37.0633 -81.0732 1223.04
v 35.5805 -81.1609 1240.23
v 35.5422 -82.4036 1244.07
v 35.4338 -81.2869 1248.12
v 34.8961 -83.7912 1257.72
v 36.8179 -79.8677 1222.38
v 38.7582 -80.6824 1225.16
v 35.3129 -73.8717 1228
v 36.2401 -76.9473 1236.56
v 39.1029 -125.293 1260.69
v 41.124 -125.43 1259.66
v 41.8543 -126.744 1261.71
v 38.9393 -125.42 1265.22
v 41.4769 -126.488 1264.17
v 42.4823 -123.533 1257.78
v 39.0097 -123.684 1267.22
v 41.5067 -124.737 1266.71
v 39.0261 -122.197 1268
v 40.0063 -121.233 1268.29
v 41.4686 -122.749 1267.83
v 41.4793 -121.157 1268.07
v 41.5335 -120.762 1256.56
v 41.9192 -118.558 1255.94
v 42.6536 -120.069 1267.34
v 39.464 -119.267 1268.24
v 40.5426 -118.63 1267.84
v 40.0515 -115.699 1266.66
v 42.0797 -113.272 1263.86
v 42.5676 -115.889 1265.48
v 39.0053 -109.904 1254.73
v 42.1831 -109.336 1259.53
v 39.1863 -106.529 1255
v 39.2968 -105.82 1257.25
v 39.1161 -107.629 1258.87
v 39.6083 -105.714 1256.65
v 40.2158 -106.537 1255.8
v 40.5743 -106.937 1257.28
v 39.1073 -98.4689 1253.74
v 39.3133 -94.4945 1247.84
v 40.2002 -94.049 1250.37
v 39.7851 -94.9891 1253.14
v 39.7487 -93.6972 1254.22
v 39.0081 -93.6214 1256.04
v 40.0183 -92.4159 1248.23
v 40.6322 -90.5532 1250.25
v 40.318 -92.6027 1253.17
v 40.4745 -92.5046 1255.2
v 40.7706 -92.1857 1254.61
v 41.4402 -91.5439 1255.12
v 41.658 -90.6293 1253.5
v 38.9897 -91.8329 1257.28
v 39.9893 -91.9836 1256.66
v 40.0076 -91.3446 1257.17
v 40.0131 -90.6429 1257.39
v 40.9399 -91.1851 1257.16
v 41.446 -89.5696 1256.91
v 39.5892 -88.4027 1247.72
v 40.7391 -87.2128 1249.6
v 41.2901 -88.8354 1250.71
v 40.9925 -85.6936 1250.07
v 41.5589 -86.6888 1250.27
v 41.9559 -87.3003 1250.53
v 42.4235 -87.8377 1251.1
v 42.4668 -86.983 1250.72
v 42.6578 -87.3575 1251.56
v 38.8398 -88.3342 1257.81
v 39.6593 -86.1349 1257.05
v 40.9482 -88.3941 1257.56
v 40.9309 -86.8396 1257.09
v 41.4825 -87.6839 1257.11
v 41.9704 -86.2547 1255.43
v 41.3822 -85.8144 1256.16
v 39.5954 -81.625 1229.8
v 39.0567 -84.1843 1232.04
v 39.4275 -84.1805 1233.8
v 39.6208 -83.3254 1234.73
v 40.1215 -82.329 1234.7
v 40.3764 -81.6626 1234.66
v 40.6168 -81.855 1233.57
v 39.2013 -82.913 1235.77
v 38.9582 -82.05 1236.14
v 40.5142 -83.8057 1250.93
v 41.9516 -84.719 1250.97
v 42.6641 -84.7537 1251.18
v 38.5848 -83.7119 1255.73
v 39.7477 -83.0251 1251.59
v 41.5925 -83.7242 1252.77
v 41.5989 -84.2023 1253.89
v 42.7235 -84.8569 1251.83
v 42.51 -83.9952 1251.68
v 42.4679 -84.3192 1252.76
v 39.8447 -77.2537 1225.18
v 40.1669 -77.3148 1225.84
v 40.3082 -78.7399 1229.98
v 40.4896 -80.2658 1234.64
v 40.4064 -78.769 1234.66
v 41.092 -79.7537 1233.68
v 41.0657 -79.2317 1234.19
v 42.1389 -78.2537 1233.18
v 42.01 -77.7537 1233.95
v 38.2268 -75.8466 1225.09
v 38.8475 -77.0292 1224.45
v 40.51 -76.2537 1225.2
v 40.3189 -75.099 1225.76
v 41.3954 -75.8313 1225.84
v 40.7873 -74.6564 1226.33
v 41.4268 -75.2404 1225.74
v 41.6609 -75.2118 1226.59
v 37.781 -73.775 1230.65
v 41.1554 -76.8036 1228.05
v 41.6767 -76.3067 1228.48
v 41.3326 -74.0862 1228.52
v 41.2162 -73.871 1230.11
v 41.9609 -74.0619 1230.12
v 38.9947 -74.5902 1232.6
v 40.8783 -76.7817 1234.02
v 40.7467 -75.7793 1233.52
v 42.4123 -76.2537 1233.18
v 41.8969 -75.4289 1233.15
v 42.3652 -74.7537 1232.18
v 41.8019 -74.2802 1231.76
v 44.4049 -125.245 1259.15
v 43.4684 -126.761 1262.71
v 43.5357 -126.48 1260.74
v 45.4091 -125.968 1262.62
v 45.5082 -125.534 1260.22
v 44.0061 -125.664 1265.04
v 44.9754 -122.745 1257.41
v 45.9929 -123.744 1258.5
v 46.4499 -122.083 1257.68
v 46.8241 -124.692 1261.69
v 46.7113 -124.171 1259.74
v 43.9512 -123.736 1266.68
v 43.9021 -122.172 1267.05
v 45.626 -124.197 1265.13
v 45.5174 -122.306 1265.82
v 46.2972 -124.758 1263.66
v 44.8426 -117.024 1255.59
v 43.9296 -120.726 1256.36
v 45.5351 -120.645 1256.59
v 46.5004 -118.023 1256.28
v 45.4273 -120.601 1265.59
v 45.8336 -114.385 1262.24
v 46.8939 -116.934 1262.74
v 45.7223 -116.902 1263.86
v 43.1317 -111.248 1255.22
v 43.3339 -110.104 1255.69
v 44.3081 -110.276 1256.7
v 44.4127 -110.188 1258.56
v 45.4518 -112.814 1256.18
v 46.1604 -112.257 1257.71
v 46.2953 -112.329 1259.18
v 45.3729 -111.923 1260.27
v 47.3208 -122.246 1258.7
v 47.2375 -123.198 1263.21
v 47.8483 -122.635 1261.07
v 46.9859 -121.088 1264.07
v 47.0184 -120.267 1257.25
v 47.7201 -118.655 1257.65
v 47.9643 -120.251 1258.68
v 48.1664 -118.237 1258.68
v 47.9348 -118.255 1261.64
v 48.0903 -120.784 1261.75
v 48.3237 -119.283 1260.18
v 47.0145 -116.243 1256.71
v 47.1623 -114.318 1257.68
v 47.1838 -113.811 1258.72
v 47.729 -116.344 1257.74
v 48.006 -116.295 1259.21
v 47.3854 -115.173 1260.69
v -18.2631 -89.9156 1243.77
v -19.4438 -86.7268 1251.04
v -19.99 -83.7537 1242.96
v -18.0292 -83.1924 1242.7
v -20.3846 -83.7537 1243.68
v -18.9393 -73.7752 1227.24
v -19.2985 -74.6195 1229.83
v -19.4061 -73.6727 1228.14
v -17.9515 -76.3084 1235.42
v -19.1253 -75.2537 1235.68
v -19.1253 -75.2537 1235.68
v -19.1253 -75.2537 1235.68
v -18.99 -74.7537 1235.83
v -18.99 -74.7537 1235.83
v -19.5174 -72.7537 1226.68
v -19.5174 -72.7537 1226.68
v -19.5174 -72.7537 1226.68
v -19.49 -72.2255 1226.68
v -19.49 -72.2255 1226.68
v -18.8306 -72.7922 1226.44
v -18.7932 -72.2127 1226.68
v -19.49 -71.5917 1227.68
v -19.4606 -71.7742 1232.37
v -19.4314 -72.3794 1234
v -16.4589 -81.4656 1235.79
v -15.8488 -80.8576 1239.27
v -16.4824 -73.2393 1226.83
v -17.0425 -75.7102 1236.04
v -15.99 -72.7537 1227
v -12.4499 -77.6391 1240.4
v 26.1156 -110.592 1260.16
v 38.8722 -104.337 1255.72
v 40.9399 -91.1851 1257.16
v 41.446 -89.5696 1256.91
v 42.4668 -86.983 1250.72
v 40.9482 -88.3941 1257.56
v 41.4825 -87.6839 1257.11
v 42.6641 -84.7537 1251.18
v 42.51 -83.9952 1251.68
v 42.4679 -84.3192 1252.76
v 41.0657 -79.2317 1234.19
v 42.1389 -78.2537 1233.18
v 42.01 -77.7537 1233.95
v 40.51 -76.2537 1225.2
v 41.4268 -75.2404 1225.74
v 41.4268 -75.2404 1225.74
v 41.6609 -75.2118 1226.59
v 41.9609 -74.0619 1230.12
v 41.9609 -74.0619 1230.12
v 42.4123 -76.2537 1233.18
v 42.3652 -74.7537 1232.18
v 42.3652 -74.7537 1232.18
v 42.3652 -74.7537 1232.18
f 6 2 1
f 2 6 8
f 2 8 56
f 2 4 1
f 4 3 1
f 87 4 535
f 3 4 5
f 5 9 3
f 9 5 60
f 57 5 4
f 60 11 9
f 4 87 57
f 57 58 5
f 60 5 58
f 6 1 19
f 15 6 19
f 7 6 15
f 7 8 6
f 8 7 16
f 3 21 1
f 21 3 10
f 9 10 3
f 9 11 536
f 11 12 536
f 536 12 23
f 13 23 12
f 14 12 11
f 13 12 14
f 13 14 69
f 20 537 539
f 15 17 16
f 538 537 20
f 15 16 7
f 8 16 18
f 16 68 18
f 16 538 68
f 1 21 19
f 75 20 24
f 538 20 75
f 21 22 19
f 20 19 22
f 21 536 23
f 22 24 20
f 21 23 22
f 22 23 25
f 22 25 24
f 24 25 75
f 13 69 23
f 25 23 95
f 70 26 34
f 66 26 70
f 26 37 32
f 27 37 26
f 38 27 72
f 66 67 27
f 26 66 27
f 44 28 41
f 540 31 549
f 28 44 29
f 29 35 28
f 28 35 33
f 29 44 76
f 83 561 554
f 29 78 77
f 78 29 76
f 30 50 46
f 33 31 540
f 33 541 31
f 46 542 30
f 32 541 34
f 541 33 34
f 34 33 35
f 34 26 32
f 34 35 77
f 77 35 29
f 32 37 36
f 37 39 36
f 544 40 36
f 30 32 36
f 37 27 38
f 37 38 545
f 80 53 547
f 543 81 546
f 546 81 548
f 562 80 547
f 38 72 562
f 82 80 562
f 43 554 550
f 42 552 551
f 551 542 42
f 542 46 42
f 47 552 42
f 42 46 47
f 45 554 43
f 556 555 553
f 48 555 556
f 86 555 48
f 83 554 45
f 50 51 46
f 47 46 51
f 48 556 49
f 556 557 49
f 49 557 54
f 86 48 49
f 86 49 54
f 30 36 50
f 50 36 52
f 50 52 51
f 558 547 53
f 40 52 36
f 54 557 558
f 53 54 558
f 56 65 55
f 535 56 87
f 55 87 56
f 89 87 55
f 59 57 87
f 59 58 57
f 60 58 61
f 58 59 61
f 11 60 92
f 60 61 62
f 60 62 92
f 93 55 65
f 94 93 65
f 65 56 8
f 65 8 64
f 65 64 67
f 8 18 64
f 63 94 65
f 65 67 63
f 11 69 14
f 92 69 11
f 67 66 63
f 66 94 63
f 18 73 64
f 64 73 559
f 73 71 559
f 18 68 73
f 68 75 73
f 75 68 538
f 69 95 23
f 70 34 96
f 94 70 96
f 94 66 70
f 559 71 27
f 71 72 27
f 71 74 72
f 74 71 560
f 82 72 74
f 560 97 74
f 84 78 561
f 84 561 83
f 77 78 96
f 79 78 84
f 79 84 85
f 78 79 108
f 108 79 116
f 34 77 96
f 53 80 99
f 82 562 72
f 99 80 82
f 97 82 74
f 86 563 555
f 84 563 86
f 116 79 85
f 86 85 84
f 54 98 86
f 53 99 54
f 98 54 99
f 103 55 93
f 103 89 55
f 62 61 90
f 90 61 59
f 62 90 91
f 88 59 87
f 88 90 59
f 91 92 62
f 132 95 69
f 94 96 106
f 73 75 564
f 108 96 78
f 96 108 106
f 564 99 82
f 99 564 117
f 135 116 85
f 86 98 136
f 89 109 87
f 88 120 90
f 90 100 91
f 100 90 120
f 87 109 88
f 91 100 101
f 100 145 101
f 102 111 103
f 89 103 111
f 101 92 91
f 105 92 112
f 101 112 92
f 112 129 105
f 94 127 104
f 94 104 93
f 102 93 104
f 93 102 103
f 69 92 105
f 113 106 108
f 132 115 95
f 114 108 116
f 25 95 107
f 107 95 115
f 25 107 75
f 564 75 117
f 117 75 107
f 135 85 86
f 136 98 99
f 99 117 136
f 110 118 111
f 89 111 123
f 123 109 89
f 120 88 109
f 145 124 101
f 145 100 120
f 124 112 101
f 124 129 112
f 102 126 128
f 127 126 104
f 126 102 104
f 102 110 111
f 102 128 110
f 94 106 127
f 105 129 131
f 69 105 132
f 132 105 131
f 108 114 113
f 116 152 114
f 152 116 135
f 117 107 133
f 86 136 155
f 111 119 123
f 109 123 119
f 119 139 109
f 120 109 139
f 121 144 128
f 122 128 144
f 118 110 122
f 110 128 122
f 118 119 111
f 149 106 130
f 149 125 127
f 149 127 106
f 125 121 126
f 126 121 128
f 125 126 127
f 130 150 149
f 106 113 130
f 151 130 114
f 152 151 114
f 130 113 114
f 115 134 107
f 107 134 133
f 115 153 134
f 134 153 133
f 155 135 86
f 117 156 136
f 122 144 137
f 137 144 158
f 158 162 137
f 137 162 119
f 138 119 162
f 162 167 138
f 139 138 167
f 139 140 120
f 140 139 141
f 141 139 169
f 142 143 173
f 158 144 173
f 173 144 142
f 118 137 119
f 137 118 122
f 119 138 139
f 120 140 145
f 145 175 174
f 140 175 145
f 196 175 140
f 148 176 146
f 176 148 177
f 177 148 184
f 121 125 146
f 146 125 149
f 121 146 147
f 147 143 142
f 142 121 147
f 176 147 146
f 143 147 176
f 144 121 142
f 174 124 145
f 129 124 174
f 148 149 150
f 148 150 183
f 146 149 148
f 130 151 150
f 150 151 186
f 207 188 131
f 152 187 151
f 188 132 131
f 190 132 188
f 115 132 190
f 117 133 156
f 133 209 156
f 154 153 210
f 133 153 154
f 135 155 211
f 211 155 136
f 211 136 191
f 173 159 158
f 159 171 157
f 159 160 158
f 159 161 160
f 157 161 159
f 158 163 162
f 158 160 163
f 193 163 160
f 161 193 160
f 163 165 162
f 163 164 165
f 193 164 163
f 164 193 232
f 164 166 165
f 162 165 167
f 167 165 168
f 165 166 168
f 167 169 139
f 167 168 169
f 213 169 168
f 169 170 141
f 169 195 170
f 170 195 214
f 170 196 141
f 196 140 141
f 214 196 170
f 173 143 171
f 171 159 173
f 172 171 143
f 171 172 197
f 172 180 182
f 172 182 197
f 171 197 157
f 174 175 199
f 178 143 176
f 178 176 177
f 143 178 172
f 178 179 180
f 179 177 184
f 179 178 177
f 172 178 180
f 184 181 179
f 181 180 179
f 198 180 181
f 180 198 182
f 199 129 174
f 185 129 199
f 184 148 183
f 202 184 183
f 184 200 181
f 185 207 131
f 185 131 129
f 202 183 186
f 183 150 186
f 186 151 204
f 204 202 186
f 204 151 187
f 187 220 204
f 187 152 220
f 189 153 115
f 189 210 153
f 189 115 190
f 188 189 190
f 133 154 209
f 154 210 209
f 211 372 135
f 372 211 245
f 212 191 136
f 136 156 212
f 223 191 212
f 212 156 209
f 157 192 161
f 161 192 193
f 232 194 164
f 164 194 166
f 192 232 193
f 168 166 194
f 168 194 233
f 213 195 169
f 214 224 196
f 157 197 192
f 197 236 192
f 216 199 175
f 181 200 201
f 201 198 181
f 182 198 197
f 218 197 198
f 201 218 198
f 219 207 185
f 219 185 199
f 200 184 202
f 203 200 202
f 201 200 217
f 217 200 203
f 204 205 202
f 203 202 205
f 217 203 222
f 220 152 135
f 220 205 204
f 207 206 188
f 242 188 206
f 238 206 207
f 188 208 189
f 242 208 188
f 243 209 210
f 223 211 191
f 223 245 211
f 212 209 243
f 223 212 243
f 229 224 226
f 233 213 168
f 229 196 224
f 215 175 196
f 215 196 229
f 236 232 192
f 232 233 194
f 199 216 234
f 215 216 175
f 234 219 199
f 238 219 234
f 218 201 217
f 218 217 235
f 218 236 197
f 218 235 236
f 238 207 219
f 222 203 205
f 222 205 221
f 222 235 217
f 221 205 220
f 135 241 220
f 241 135 372
f 210 189 244
f 243 210 244
f 189 208 244
f 230 229 226
f 195 225 214
f 224 214 225
f 227 225 228
f 225 195 228
f 227 224 225
f 226 224 253
f 227 252 224
f 224 252 253
f 230 226 259
f 251 228 213
f 213 228 195
f 215 229 230
f 215 230 231
f 232 263 233
f 231 216 215
f 231 234 216
f 239 235 222
f 236 235 237
f 239 237 235
f 241 221 220
f 221 240 222
f 239 222 240
f 241 240 221
f 264 242 206
f 238 264 206
f 208 242 244
f 246 250 248
f 247 249 250
f 250 246 247
f 246 257 268
f 249 269 250
f 250 269 248
f 228 251 255
f 256 248 253
f 252 227 254
f 253 252 256
f 227 228 255
f 254 227 255
f 254 257 252
f 256 252 257
f 256 257 246
f 248 256 246
f 254 258 257
f 254 255 258
f 268 257 258
f 268 258 273
f 273 258 255
f 273 255 251
f 253 259 226
f 565 259 253
f 230 259 260
f 565 270 259
f 270 260 259
f 261 251 213
f 231 230 260
f 263 262 233
f 233 262 213
f 262 261 213
f 234 231 260
f 234 310 238
f 310 264 238
f 239 275 237
f 240 275 239
f 240 278 275
f 241 278 240
f 244 242 265
f 280 244 265
f 277 265 242
f 280 265 277
f 281 223 243
f 473 245 223
f 266 267 271
f 267 293 271
f 291 292 266
f 267 266 290
f 247 291 266
f 291 247 300
f 269 266 271
f 272 271 295
f 247 246 300
f 268 300 246
f 249 266 269
f 269 271 248
f 271 270 565
f 270 271 272
f 247 266 249
f 274 270 272
f 272 301 304
f 251 305 273
f 273 303 268
f 274 260 270
f 304 274 272
f 274 304 260
f 251 261 305
f 306 308 260
f 260 308 234
f 262 309 261
f 263 309 262
f 232 309 263
f 364 309 232
f 264 277 242
f 276 264 310
f 310 369 276
f 264 276 277
f 276 369 277
f 466 275 278
f 283 311 282
f 312 311 283
f 283 279 312
f 243 244 280
f 313 243 280
f 279 243 313
f 314 313 280
f 372 465 241
f 372 245 473
f 282 479 281
f 243 283 281
f 282 281 283
f 279 283 243
f 284 290 292
f 267 284 287
f 292 285 284
f 292 289 285
f 285 286 284
f 287 284 286
f 287 293 267
f 293 287 288
f 286 316 287
f 288 287 316
f 290 284 267
f 292 290 266
f 292 291 289
f 293 295 271
f 294 296 295
f 293 294 295
f 294 320 296
f 320 323 296
f 291 300 289
f 296 272 295
f 272 296 297
f 323 297 296
f 297 326 272
f 303 298 268
f 298 300 268
f 299 300 298
f 289 300 299
f 302 304 301
f 326 302 301
f 326 301 272
f 328 298 303
f 327 328 303
f 331 303 273
f 304 329 306
f 304 306 260
f 261 330 305
f 307 330 261
f 306 348 308
f 348 430 308
f 309 307 261
f 236 364 232
f 364 350 309
f 309 350 307
f 312 367 366
f 368 363 367
f 369 449 277
f 278 241 465
f 278 465 466
f 311 373 282
f 366 373 311
f 312 366 311
f 313 368 279
f 279 368 312
f 368 367 312
f 280 277 314
f 449 314 277
f 473 223 281
f 479 473 281
f 373 479 282
f 374 286 285
f 374 315 286
f 316 315 377
f 315 378 377
f 289 319 374
f 374 285 289
f 316 286 315
f 316 317 288
f 288 294 293
f 288 318 294
f 317 318 288
f 377 317 316
f 382 318 380
f 380 317 377
f 380 318 317
f 322 318 382
f 319 289 299
f 387 319 394
f 394 319 299
f 320 294 318
f 321 323 320
f 322 321 320
f 318 322 320
f 389 321 322
f 324 321 389
f 325 326 297
f 324 323 321
f 324 297 323
f 324 325 297
f 325 324 391
f 326 398 302
f 398 326 395
f 326 325 395
f 331 327 303
f 333 328 327
f 394 299 298
f 394 298 328
f 327 331 333
f 396 328 333
f 328 396 394
f 398 329 304
f 398 304 302
f 273 305 331
f 305 332 331
f 330 332 305
f 333 331 334
f 332 334 331
f 332 335 334
f 330 335 332
f 330 346 335
f 396 333 337
f 338 337 333
f 334 338 333
f 338 334 336
f 334 339 336
f 334 335 339
f 336 339 341
f 342 341 339
f 346 339 335
f 337 343 400
f 337 338 343
f 338 336 345
f 338 345 343
f 345 336 341
f 306 340 348
f 340 306 329
f 397 344 329
f 344 340 329
f 341 340 344
f 341 342 340
f 566 344 399
f 344 397 399
f 345 344 566
f 345 341 344
f 347 342 402
f 339 402 342
f 347 348 340
f 347 340 342
f 307 349 330
f 349 346 330
f 349 351 403
f 349 403 346
f 403 351 408
f 407 348 347
f 350 351 307
f 307 351 349
f 350 354 351
f 360 351 354
f 351 360 408
f 408 360 352
f 354 361 360
f 430 234 308
f 415 430 348
f 353 350 438
f 355 350 353
f 357 355 353
f 364 438 350
f 438 439 353
f 357 353 439
f 439 440 357
f 350 355 354
f 354 355 361
f 356 355 357
f 361 355 356
f 356 359 362
f 362 359 358
f 359 367 358
f 361 362 360
f 360 362 358
f 361 356 362
f 363 360 358
f 352 360 363
f 430 310 234
f 430 431 310
f 237 365 236
f 236 365 364
f 371 364 365
f 364 371 438
f 444 357 440
f 359 357 444
f 445 366 359
f 357 359 356
f 367 359 366
f 367 363 358
f 449 452 314
f 369 431 449
f 310 431 369
f 275 370 237
f 466 370 275
f 237 370 365
f 466 456 370
f 456 365 370
f 365 456 371
f 373 445 460
f 366 445 373
f 481 479 373
f 375 379 486
f 374 376 315
f 376 378 315
f 374 375 376
f 375 374 319
f 376 487 378
f 375 488 376
f 375 486 488
f 380 377 381
f 378 381 377
f 375 319 379
f 503 379 386
f 379 492 486
f 492 379 503
f 380 381 384
f 381 497 384
f 378 491 381
f 381 491 497
f 322 382 383
f 383 389 322
f 382 380 384
f 384 383 382
f 383 385 389
f 384 497 498
f 498 385 384
f 385 383 384
f 388 385 498
f 386 319 387
f 379 319 386
f 390 324 389
f 385 390 389
f 388 390 385
f 391 392 325
f 390 391 324
f 393 392 391
f 393 391 390
f 395 401 398
f 511 396 400
f 337 400 396
f 396 510 394
f 511 510 396
f 398 397 329
f 397 398 401
f 399 401 400
f 401 399 397
f 401 513 400
f 400 566 399
f 346 403 339
f 347 402 407
f 339 403 404
f 339 404 402
f 404 403 408
f 402 405 407
f 405 406 407
f 410 406 405
f 407 406 411
f 410 411 406
f 402 404 405
f 348 407 415
f 408 409 404
f 421 409 408
f 409 421 423
f 404 409 405
f 405 409 410
f 409 423 410
f 414 410 423
f 423 421 422
f 423 427 414
f 412 411 410
f 413 411 412
f 412 410 414
f 414 413 412
f 429 413 414
f 429 435 420
f 427 429 414
f 416 407 411
f 415 407 416
f 417 415 416
f 417 418 415
f 418 430 415
f 411 419 416
f 419 417 416
f 418 417 419
f 419 432 418
f 432 430 418
f 419 411 413
f 420 419 413
f 420 413 429
f 567 568 570
f 434 420 435
f 570 568 571
f 408 352 421
f 352 363 421
f 422 421 363
f 424 422 363
f 422 426 423
f 425 426 422
f 424 425 422
f 427 423 426
f 428 427 426
f 428 426 425
f 424 448 425
f 448 424 447
f 569 429 427
f 572 429 569
f 425 448 428
f 429 572 453
f 436 452 449
f 435 452 436
f 429 453 435
f 449 431 436
f 433 431 430
f 432 433 430
f 431 433 436
f 434 436 433
f 434 433 432
f 436 434 435
f 438 371 437
f 459 445 442
f 439 441 440
f 441 444 440
f 444 441 445
f 441 442 445
f 438 437 443
f 439 438 443
f 441 439 443
f 442 441 443
f 443 461 442
f 443 437 461
f 359 444 445
f 424 363 446
f 446 363 368
f 313 450 368
f 450 446 368
f 424 446 447
f 446 454 447
f 450 454 446
f 448 447 454
f 453 572 573
f 313 314 450
f 454 450 314
f 451 314 452
f 435 455 452
f 454 314 451
f 455 451 452
f 435 453 574
f 574 453 573
f 451 455 454
f 371 456 457
f 456 466 467
f 456 467 457
f 437 371 458
f 371 457 458
f 463 458 475
f 437 458 461
f 463 461 458
f 458 474 475
f 460 480 373
f 480 481 373
f 442 461 459
f 461 462 459
f 459 575 460
f 464 480 460
f 462 461 577
f 460 575 464
f 577 461 576
f 483 480 464
f 475 482 576
f 576 482 577
f 459 460 445
f 466 465 578
f 465 372 468
f 578 465 468
f 470 468 372
f 372 476 470
f 457 467 469
f 471 469 467
f 579 578 468
f 470 579 468
f 476 579 470
f 469 472 475
f 469 580 472
f 581 579 476
f 372 473 477
f 476 372 477
f 458 457 474
f 474 457 469
f 475 474 469
f 475 472 484
f 581 476 478
f 476 477 582
f 477 473 485
f 482 475 484
f 583 484 472
f 485 585 582
f 477 485 582
f 473 479 485
f 479 481 483
f 479 483 485
f 483 481 480
f 464 584 483
f 483 584 586
f 485 483 587
f 376 488 487
f 489 491 487
f 487 488 489
f 488 490 489
f 486 490 488
f 486 493 490
f 489 501 491
f 496 490 493
f 501 489 495
f 496 495 490
f 490 495 489
f 491 378 487
f 501 499 491
f 486 492 493
f 504 492 503
f 493 518 496
f 494 518 493
f 494 493 492
f 504 494 492
f 498 506 388
f 491 499 497
f 498 500 506
f 497 500 498
f 497 499 500
f 499 519 500
f 519 499 501
f 519 521 500
f 502 387 394
f 386 387 503
f 502 503 387
f 504 503 502
f 502 505 504
f 494 504 522
f 522 504 505
f 506 509 388
f 509 393 388
f 508 509 506
f 521 506 500
f 506 521 508
f 502 394 510
f 510 514 502
f 502 514 529
f 502 529 505
f 514 515 530
f 529 514 530
f 531 515 516
f 531 516 534
f 507 392 393
f 508 507 509
f 517 507 534
f 388 393 390
f 509 507 393
f 395 513 401
f 400 512 511
f 513 512 400
f 512 513 515
f 512 514 511
f 511 514 510
f 512 515 514
f 513 516 515
f 392 395 325
f 517 395 392
f 517 392 507
f 513 395 517
f 534 516 517
f 516 513 517
f 496 518 520
f 518 494 522
f 518 522 524
f 520 518 524
f 520 495 496
f 495 520 519
f 495 519 501
f 527 519 520
f 519 527 521
f 520 524 528
f 520 528 527
f 522 505 523
f 529 523 505
f 522 523 524
f 524 523 525
f 524 525 528
f 533 528 525
f 523 532 525
f 526 508 521
f 528 526 527
f 527 526 521
f 528 533 526
f 532 529 530
f 530 531 533
f 531 534 533
f 515 531 530
f 529 532 523
f 532 530 533
f 532 533 525
f 534 507 508
f 534 508 526
f 533 534 526
