o FMA9466_BP8928_FJ2422
v 69.4958 -125.282 1204.13
v 68.8327 -123.01 1211.21
v 68.0549 -125.523 1218.41
v 69.411 -127.505 1201.2
v 69.7074 -127.628 1205.09
v 69.631 -128.572 1204.48
v 69.9409 -129.015 1206.03
v 69.7176 -126.44 1205.96
v 69.8566 -129.846 1211.05
v 69.9007 -129.967 1205.18
v 69.8014 -131.353 1202.4
v 69.1282 -131.222 1215.01
v 70.2463 -135.16 1204.86
v 67.7015 -137.981 1193.76
v 68.9516 -139.733 1212.13
v 67.0552 -139.771 1219.29
v 68.9922 -141.09 1196.63
v 69.6444 -142.806 1201.51
v 66.9394 -143.756 1216.5
v 67.5201 -144.648 1193.7
v 67.1409 -146.076 1214.7
v 66.5711 -151.633 1195.69
v 67.9098 -150.084 1198.68
v 68.1865 -148.523 1206.39
v 67.3329 -151.627 1204.38
v 66.7405 -151.527 1208.44
v 66.7024 -149.659 1210.87
v 66.3425 -153.842 1201.76
v 64.9741 -113.193 1212.61
v 65.0683 -114.71 1219.97
v 65.4747 -117.869 1197.65
v 66.2855 -116.287 1214.78
v 65.4582 -120.144 1195.05
v 66.8164 -118.95 1200.67
v 66.6866 -120.637 1220.51
v 67.4912 -123.427 1197.16
v 65.6319 -126.69 1225.15
v 64.0513 -130.018 1188.97
v 65.5468 -137.31 1223.48
v 65.0764 -142.097 1189.42
v 66.2963 -143.215 1219.33
v 65.8436 -146.03 1218.19
v 65.2233 -148.249 1217.22
v 64.554 -147.696 1219.36
v 64.0486 -147.708 1189.04
v 63.5491 -151.238 1189.57
v 66.2299 -148.499 1192.63
v 65.7197 -151.624 1211.29
v 65.778 -150.318 1214.33
v 63.4091 -149.889 1219.04
v 62.9047 -151.188 1189.04
v 63.9283 -152.702 1191.3
v 62.9237 -152.762 1189.87
v 62.9297 -154.214 1191.43
v 65.1405 -154.972 1199.3
v 65.8853 -154.207 1205.96
v 64.7097 -153.418 1209.89
v 65.022 -152.331 1213.44
v 63.5358 -154.31 1213.83
v 63.7431 -155.295 1195.22
v 62.7835 -156.772 1196.52
v 63.6278 -157.188 1203.01
v 64.769 -155.651 1206.53
v 62.6082 -157.488 1207.62
v 62.8656 -156.048 1210.64
v 62.0051 -109.882 1203.89
v 61.4924 -108.431 1210.97
v 63.4111 -110.706 1216.1
v 62.3492 -109.124 1213.56
v 62.8537 -111.098 1220.1
v 63.4686 -114.543 1225.47
v 62.4561 -116.135 1194.34
v 62.7342 -117.271 1229.47
v 60.7467 -118.565 1233.16
v 63.0836 -122.954 1189.67
v 60.6031 -122.388 1187.08
v 62.8045 -124.982 1230.46
v 60.5281 -133.725 1185.64
v 62.8521 -137.016 1187.02
v 62.7792 -143.497 1224.23
v 60.6604 -141.953 1227.45
v 62.4825 -143.915 1186.9
v 61.2258 -143.863 1186.46
v 60.9504 -147.598 1187.71
v 59.8617 -145.42 1186.9
v 62.6367 -147.524 1188.07
v 59.5362 -148.173 1188.44
v 61.8214 -149.607 1221.33
v 59.1394 -151.965 1220.8
v 62.4226 -152.76 1189.56
v 61.5277 -151.318 1188.93
v 62.3915 -153.746 1190.26
v 61.9128 -153.668 1190.11
v 61.8262 -154.836 1191.34
v 61.391 -153.558 1190.16
v 61.4322 -154.175 1190.56
v 60.8578 -154.001 1190.76
v 60.8667 -154.634 1191.3
v 59.392 -151.321 1190.16
v 61.0532 -153.089 1218.61
v 61.575 -154.481 1216.2
v 59.4851 -155.027 1216.65
v 62.2408 -156.677 1195.11
v 61.2494 -157.148 1195.18
v 60.3009 -157.635 1196.3
v 59.9184 -156.538 1194.28
v 58.9728 -157.338 1196.55
v 61.3282 -157.903 1198.06
v 60.3176 -158.345 1199.94
v 59.3331 -157.985 1198.56
v 61.6816 -158.393 1202.96
v 60.686 -158.522 1203.75
v 59.2891 -158.338 1203.34
v 59.824 -158.063 1207.81
v 58.7679 -158.026 1206.65
v 61.1851 -156.734 1211.95
v 59.6275 -105.995 1206.8
v 60.101 -106.032 1213.12
v 60.0932 -106.816 1215.82
v 58.226 -104.444 1215.92
v 58.7347 -105.758 1220.04
v 59.7792 -110.16 1229.27
v 59.3509 -112.127 1232.3
v 58.0335 -116.232 1235.61
v 58.3929 -119.463 1186.84
v 57.3862 -119.284 1236.71
v 58.4911 -121.442 1185.78
v 56.7669 -123.595 1184.56
v 58.7236 -125.26 1235.3
v 59.3207 -125.401 1185.27
v 57.7194 -130.801 1184.45
v 57.9396 -134.204 1233.72
v 57.7731 -140.534 1231.19
v 55.7071 -139.254 1233.54
v 57.5605 -140.43 1185.92
v 56.0723 -142.504 1186.98
v 58.8407 -144.781 1227.62
v 57.8914 -143.533 1229.05
v 58.1429 -147.051 1226.56
v 56.9207 -148.377 1225.75
v 55.9242 -146.304 1228.43
v 58.0474 -149.162 1224.79
v 57.9756 -150.553 1223.6
v 57.4789 -149.455 1224.77
v 57.4205 -150.007 1224.41
v 57.0122 -149.469 1224.73
v 56.9457 -150.503 1223.9
v 55.6386 -149.946 1224.02
v 58.3316 -154.463 1193.38
v 57.3265 -153.645 1219.05
v 57.1354 -154.479 1217.17
v 56.0645 -152.096 1221.93
v 55.607 -153.535 1219.21
v 57.9135 -155.892 1195.32
v 57.8121 -156.759 1197.37
v 57.9205 -157.499 1201.29
v 56.7797 -156.62 1204.85
v 56.543 -156.786 1206.26
v 56.6279 -156.922 1207.31
v 58.1143 -157.134 1210.52
v 57.2098 -156.901 1208.69
v 56.6993 -156.268 1210.93
v 55.6516 -155.781 1208.78
v 55.3497 -155.563 1211.44
v 57.5546 -156.187 1212.9
v 55.2145 -101.864 1203.82
v 56.1609 -101.632 1209.71
v 54.6748 -101.152 1217.32
v 54.9568 -104.319 1198.87
v 56.9841 -106.637 1228.87
v 53.9779 -105.838 1233.11
v 55.9148 -111.126 1235.66
v 54.03 -115.61 1186.72
v 56.156 -114.287 1188.99
v 53.5081 -115.459 1239.43
v 55.5131 -119.241 1185.37
v 53.9368 -122.165 1239.74
v 53.6543 -119.456 1240.1
v 53.7263 -124.431 1239.92
v 53.965 -129.983 1238.54
v 55.6279 -130.931 1184.07
v 56.2008 -135.411 1185.19
v 53.7698 -134.36 1185.16
v 55.3335 -137.178 1185.7
v 52.4464 -141.241 1233.28
v 53.3609 -142.659 1189
v 54.8028 -146.707 1228.18
v 53.1728 -147.126 1227.34
v 54.6391 -147.929 1192.43
v 52.7608 -151.136 1222.29
v 55.1421 -148.638 1225.25
v 53.3621 -149.678 1224.46
v 52.9424 -151.101 1196.74
v 53.7521 -154.766 1203.53
v 52.276 -153.886 1206.98
v 53.1569 -154.692 1211.72
v 54.5002 -155.568 1206.44
v 52.7184 -98.7535 1211.78
v 52.4352 -101.42 1225.59
v 50.8284 -101.46 1229.18
v 51.7625 -106.849 1236.47
v 50.8206 -108.038 1191.07
v 50.1689 -108.826 1238.84
v 50.9392 -113.21 1187.36
v 50.7472 -116.653 1185.4
v 50.4613 -118.355 1241.57
v 51.5387 -121.95 1240.91
v 50.173 -120.931 1241.8
v 49.6664 -119.539 1242.06
v 50.878 -124.669 1241.31
v 50.5322 -123.306 1241.68
v 50.0278 -122.779 1242.03
v 50.026 -123.729 1241.76
v 49.9152 -127.483 1184.22
v 49.0459 -132.315 1239.43
v 51.3269 -134.38 1238.14
v 52.3534 -138.281 1187.26
v 49.6418 -135.687 1188.1
v 48.8639 -137.789 1191.01
v 50.0659 -139.612 1234.07
v 48.384 -138.231 1233.97
v 49.9653 -137.61 1235.57
v 49.4538 -142.416 1230.83
v 49.1777 -146.337 1196.55
v 51.3884 -148.047 1225.89
v 49.837 -151.536 1203.96
v 49.7909 -152.506 1208.92
v 49.8616 -152.648 1211.33
v 49.7387 -151.694 1215.98
v 50.2591 -97.8438 1203.59
v 49.222 -97.2788 1219.32
v 47.6172 -97.4604 1223.12
v 48.1394 -100.117 1197.4
v 47.2449 -100.358 1231.23
v 49.1282 -102.179 1232.97
v 47.8991 -104.313 1236.78
v 46.5366 -110.044 1188.66
v 46.9057 -111.846 1241.46
v 48.123 -117.202 1242.35
v 46.4192 -118.542 1242.95
v 48.7096 -117.929 1184.74
v 49.2521 -120.975 1242.13
v 47.8894 -119.605 1242.59
v 46.8247 -121.822 1242.89
v 49.5232 -122.759 1184.11
v 45.9533 -120.838 1184.54
v 48.6014 -122.688 1242.19
v 48.7063 -123.812 1242
v 46.7413 -124.825 1242.51
v 48.4378 -129.684 1240.79
v 47.7668 -127.254 1241.61
v 47.0515 -129.881 1186.07
v 45.6976 -130.08 1240.83
v 44.9084 -134.082 1191.39
v 46.132 -136.711 1233.99
v 47.2556 -135.447 1236.45
v 47.1355 -136.305 1235.38
v 45.8062 -134.437 1237.02
v 45.3713 -136.993 1194.07
v 46.7915 -140.961 1229.58
v 45.1949 -139.226 1230.39
v 47.4069 -139.577 1232.04
v 47.4366 -147.026 1222.96
v 47.06 -144.893 1226.36
v 44.5068 -147.434 1210.1
v 46.244 -149.297 1212.54
v 46.3391 -95.0517 1204.57
v 46.3545 -94.509 1207.39
v 45.8662 -94.5354 1213.25
v 45.4747 -95.0817 1217.82
v 43.275 -97.7362 1197.66
v 44.3996 -97.2481 1225.83
v 43.7234 -101.495 1193.9
v 44.0601 -103.123 1236
v 46.403 -105.483 1238.47
v 45.3771 -104.139 1237.37
v 45.9048 -107.095 1190.05
v 44.007 -107.38 1189.72
v 42.8749 -108.654 1189.37
v 43.3007 -107.703 1240.58
v 44.061 -110.616 1188.52
v 43.67 -111.349 1241.81
v 46.0291 -113.816 1186.33
v 43.0308 -113.266 1186.76
v 44.3577 -118.184 1243.48
v 43.8195 -114.87 1243.23
v 45.1832 -119.952 1242.96
v 42.2924 -121.886 1243.82
v 45.4364 -123.206 1184.78
v 44.8032 -125.429 1242.91
v 44.6089 -123.003 1243.05
v 43.2981 -125.156 1243.48
v 43.8989 -126.285 1186.67
v 45.2767 -127.212 1242.2
v 44.3089 -128.475 1242.15
v 43.1716 -128.897 1241.94
v 41.8834 -129.475 1240.95
v 43.2224 -126.646 1242.92
v 43.1072 -128.643 1188.88
v 43.7885 -133.349 1237.75
v 43.7288 -130.347 1240.97
v 42.1075 -136.196 1196.32
v 41.1536 -136.361 1197.86
v 43.7418 -137.279 1231.73
v 44.1122 -140.407 1197.97
v 43.2127 -143.27 1203.29
v 40.9426 -140.444 1204.41
v 41.9187 -143.228 1208.49
v 42.541 -141.669 1223.07
v 44.2911 -141.782 1226.59
v 43.3353 -142.016 1224.94
v 41.8923 -140.746 1224.99
v 42.4182 -145.4 1211.65
v 42.1365 -145.17 1212.99
v 43.2194 -94.4603 1203.1
v 40.7564 -93.8682 1203.39
v 41.8371 -92.8325 1206.5
v 41.5748 -92.716 1208.21
v 40.4183 -92.7297 1209.92
v 42.9804 -93.4138 1212.04
v 41.374 -95.1317 1221.92
v 39.6345 -93.2174 1224.92
v 40.6492 -95.4569 1229.19
v 41.9534 -95.806 1226.18
v 42.4128 -99.117 1231.8
v 40.6413 -97.8078 1232.03
v 39.5711 -98.22 1233.37
v 39.6862 -101.079 1193.88
v 41.4904 -101.632 1234.72
v 40.5278 -106.146 1239.43
v 42.015 -106.713 1189.9
v 40.9054 -108.11 1189.29
v 40.1296 -111.214 1242.56
v 40.7056 -116.025 1243.83
v 39.2271 -125.085 1242.71
v 41.0737 -125.659 1243.03
v 40.3786 -123.409 1243.91
v 38.3195 -123.033 1243.63
v 38.3695 -124.881 1189.29
v 41.0294 -127.437 1242.34
v 38.1607 -127.323 1241.39
v 38.7785 -128.276 1193.37
v 40.9664 -131.913 1194.45
v 37.9017 -132.356 1234.76
v 38.1258 -132.4 1200.21
v 37.7871 -136.627 1205.03
v 38.7193 -138.674 1222.29
v 40.9938 -138.22 1226.98
v 40.7715 -139.865 1224.85
v 39.0223 -138.095 1223.97
v 40.0167 -142.487 1211.36
v 40.6765 -142.229 1217.34
v 40.2941 -140.432 1221.61
v 37.1426 -89.5842 1223.35
v 36.4947 -88.7338 1225.89
v 37.3058 -90.7766 1229.47
v 37.3182 -91.9324 1230.9
v 39.0444 -94.7182 1200.17
v 38.6228 -93.8421 1202.07
v 37.486 -94.1797 1201.24
v 37.879 -92.6596 1204.21
v 37.3224 -92.3198 1205.63
v 39.2571 -92.4504 1207.7
v 38.2144 -92.1375 1209.43
v 38.3495 -92.3202 1211.3
v 37.5068 -92.3533 1212.74
v 36.2774 -92.0173 1213.46
v 39.2061 -92.9843 1215.54
v 38.6088 -92.7815 1217.45
v 37.2418 -92.029 1215.92
v 39.0095 -93.1794 1222.9
v 38.7189 -92.1007 1229.04
v 38.5745 -92.7032 1230.42
v 38.1096 -93.6588 1231.73
v 37.1012 -93.9256 1232.46
v 38.9588 -96.6426 1232.86
v 38.8614 -99.1565 1234.25
v 38.0143 -96.7441 1233.73
v 36.8298 -96.8417 1234.17
v 37.4887 -99.2279 1195.21
v 37.3682 -101.089 1235.5
v 39.1006 -102.71 1192.51
v 37.0779 -108.082 1189.44
v 36.5051 -109.172 1241.9
v 38.4516 -111.256 1187.97
v 36.5966 -114.286 1243.66
v 37.8626 -113.283 1187.6
v 36.3045 -118.388 1244.35
v 36.7031 -119.612 1188.14
v 37.9235 -118.76 1244.41
v 36.2993 -120.418 1244.19
v 34.9056 -118.2 1244.61
v 35.3275 -123.509 1243.2
v 36.3283 -124.966 1191.42
v 36.0745 -129.726 1200.47
v 37.551 -134.591 1229.58
v 33.8741 -132.643 1231.04
v 37.0434 -138.506 1216
v 36.9218 -138.206 1218.53
v 34.806 -136.31 1217.13
v 36.4377 -136.797 1222.13
v 33.3981 -86.7194 1219.38
v 35.4906 -87.7691 1221.93
v 34.6977 -87.2054 1223.02
v 34.6419 -87.6373 1224.91
v 36.1988 -90.8814 1217.27
v 36.0806 -88.0735 1223.59
v 35.5301 -89.0141 1227.76
v 34.1779 -88.0264 1225.88
v 33.2394 -89.2381 1227.51
v 35.9566 -91.2583 1230.85
v 34.8629 -90.7144 1230.4
v 32.6957 -90.9583 1229.93
v 35.2993 -92.8712 1203.84
v 34.5747 -92.728 1206.28
v 33.8317 -93.073 1204.88
v 32.959 -92.6809 1207.24
v 35.9775 -92.3137 1210.63
v 34.964 -91.2161 1213.68
v 33.5231 -91.9289 1210.85
v 34.176 -92.9281 1232.56
v 33.0716 -92.3513 1232.11
v 33.319 -95.9212 1199.24
v 33.8306 -101.096 1236.23
v 34.7938 -102.677 1193.42
v 35.0081 -103.369 1237.34
v 34.325 -105.886 1239.3
v 32.6506 -104.429 1237.8
v 32.1305 -105.575 1238.8
v 33.501 -106.132 1191.12
v 33.5922 -109.738 1242.24
v 32.3912 -106.981 1240.3
v 32.1057 -109.777 1243.28
v 33.3544 -109.876 1189.43
v 33.361 -112.746 1244.21
v 31.9949 -113.093 1246.05
v 31.6834 -113.483 1189.2
v 33.3582 -117.319 1245.82
v 32.6947 -114.6 1245.86
v 31.8246 -114.761 1247.47
v 31.1311 -116.547 1248.69
v 34.5197 -120.312 1244.67
v 33.4752 -120.221 1245.61
v 31.587 -119.812 1248.49
v 33.9968 -121.682 1190.36
v 31.6092 -119.963 1190.43
v 31.1966 -121.283 1192.2
v 31.3666 -122.974 1194.84
v 33.7014 -122.592 1244.15
v 32.3909 -122.529 1245.98
v 31.2232 -125.104 1243.28
v 30.8109 -124.003 1246.85
v 32.8012 -126.176 1199.98
v 32.0634 -126.234 1240.76
v 30.3837 -126.12 1241.36
v 33.3342 -130.651 1206.85
v 32.5536 -131.681 1233.56
v 32.7109 -132.79 1211.97
v 32.0444 -86.5442 1216.76
v 30.6518 -86.507 1215.74
v 32.4686 -86.4016 1219.44
v 31.4404 -86.4433 1219.28
v 31.0111 -86.8129 1220.36
v 32.5092 -86.652 1221.75
v 32.1173 -87.1397 1222.9
v 30.9773 -87.8323 1222.77
v 30.2691 -90.0094 1209.53
v 32.5767 -87.9067 1214.35
v 30.3287 -87.6185 1212.3
v 29.3409 -88.1118 1219.83
v 29.4429 -90.7287 1223.58
v 31.9376 -89.8688 1226.71
v 31.5948 -91.4935 1229.1
v 28.8972 -93.4828 1205.4
v 32.0995 -91.8629 1208.89
v 30.2505 -91.7179 1207.57
v 29.6427 -92.3909 1225.83
v 31.2063 -93.2292 1232.25
v 29.5217 -94.9142 1232.03
v 32.1214 -94.8651 1233.79
v 29.8792 -95.0389 1203
v 29.3155 -94.3466 1204.44
v 29.6322 -97.5773 1234.48
v 28.8008 -96.9508 1233.8
v 31.0736 -100.715 1195.43
v 31.4276 -104.573 1193.13
v 28.9609 -102.387 1195.25
v 29.0341 -103.1 1235.63
v 28.5146 -104.925 1237.05
v 30.7073 -106.901 1240.65
v 30.9095 -106.103 1191.97
v 29.4955 -109.59 1246.74
v 28.9085 -110.234 1248.32
v 27.9937 -109.954 1248.81
v 30.7093 -114.119 1249.1
v 29.4528 -111.47 1249.14
v 27.8861 -111.778 1251.35
v 28.4889 -112.93 1190.27
v 30.11 -115.412 1250.32
v 30.327 -117.023 1250.3
v 29.4718 -116.982 1251.55
v 30.1362 -117.302 1190.07
v 28.0594 -117.645 1191.58
v 29.8155 -119.698 1250.72
v 29.2987 -119.725 1251.05
v 29.2436 -121.173 1250.88
v 28.6052 -119.149 1250.92
v 28.3892 -121.06 1250.85
v 28.248 -119.887 1193.88
v 29.1704 -124.575 1248.71
v 29.0109 -125.29 1248.14
v 28.4861 -125.28 1248.67
v 28.1413 -124.374 1250.33
v 27.5599 -123.385 1250.95
v 30.004 -124.156 1201.23
v 29.1382 -125.513 1206.59
v 28.9054 -126.635 1242.28
v 28.9843 -126.438 1244.91
v 27.0195 -128.341 1244.59
v 27.002 -128.12 1246.04
v 29.1644 -131.911 1219.71
v 28.5699 -131.103 1225.86
v 27.1703 -130.067 1224.12
v 26.6588 -129.865 1225.41
v 27.365 -130.778 1229.97
v 30.1299 -131.574 1231.81
v 27.0867 -130.394 1232.78
v 28.5207 -87.0792 1212.85
v 28.4522 -87.1272 1215.51
v 27.7632 -89.4563 1208.54
v 26.3374 -88.6712 1209.24
v 28.4772 -90.3544 1221.88
v 27.8629 -94.1981 1204.76
v 27.5243 -91.2675 1206.68
v 26.9314 -93.4314 1205.21
v 25.4379 -92.4542 1205.47
v 25.1797 -91.74 1219.53
v 25.7957 -94.1265 1222.9
v 26.51 -97.4531 1201.11
v 28.2004 -95.091 1203.83
v 26.3103 -96.6212 1202.8
v 25.6111 -95.5133 1204.21
v 25.4862 -95.7601 1225.77
v 28.3612 -95.2123 1229.3
v 27.1559 -97.4326 1232.56
v 27.1705 -98.6577 1233.73
v 28.1792 -100.475 1196.42
v 27.7289 -101.751 1234.46
v 24.8219 -100.805 1232.81
v 24.6185 -99.6317 1232.1
v 27.5814 -102.952 1195.17
v 26.4854 -101.327 1196.61
v 24.6566 -103.711 1195.42
v 26.1685 -104.943 1235.28
v 24.6556 -103.085 1232.84
v 26.9775 -105.68 1237.61
v 24.466 -106.039 1239.35
v 27.5199 -106.09 1192.79
v 27.3959 -107.141 1244.03
v 27.1354 -108.083 1247.55
v 24.2598 -106.983 1249.14
v 27.2734 -110.328 1250.56
v 26.1209 -109.157 1250.46
v 25.68 -109.359 1250.97
v 24.4424 -110.017 1250.49
v 26.7867 -110.21 1191.44
v 26.5387 -111.165 1251.22
v 24.3453 -113.699 1193.08
v 23.9832 -115.014 1194.1
v 25.0307 -116.478 1249.72
v 24.8192 -118.309 1196.89
v 24.468 -118.914 1248.63
v 26.1516 -120.79 1199.49
v 23.8955 -120.851 1206.77
v 23.4149 -123.536 1249.84
v 24.8224 -124.64 1250.33
v 23.6402 -127.417 1224.62
v 25.4107 -128.44 1237.01
v 24.4325 -128.578 1237.96
v 25.3534 -128.389 1239.24
v 25.3082 -127.65 1248.34
v 24.1561 -127.604 1248.62
v 26.0359 -125.622 1250.13
v 25.6149 -129.741 1227.14
v 25.0533 -128.489 1225.25
v 24.2241 -128.789 1226.71
v 23.7228 -128.684 1227.52
v 24.5614 -129.004 1231.1
v 25.9879 -129.933 1232.62
v 24.7218 -129.129 1233.77
v 26.7771 -129.125 1235.34
v 23.6305 -129.843 1241.14
v 23.1654 -129.249 1239.13
v 25.0142 -129.538 1243.46
v 23.7562 -129.025 1247.69
v 24.9618 -88.4229 1210.11
v 24.5091 -90.5283 1206.83
v 22.9652 -89.2797 1209.55
v 22.654 -90.2945 1207.38
v 24.9965 -88.3698 1212.35
v 21.4954 -92.2183 1205.54
v 21.1212 -93.2823 1215.42
v 23.1891 -97.1173 1202.58
v 21.5312 -97.2334 1202.55
v 24.5864 -94.9843 1204.38
v 21.9656 -94.1635 1204.17
v 23.0192 -96.9254 1221.8
v 23.5162 -97.8942 1227.6
v 23.8394 -100.182 1199
v 23.5227 -98.5643 1201.07
v 22.5196 -99.9317 1200.44
v 22.5467 -98.0598 1201.88
v 21.7068 -98.6742 1201.85
v 21.1138 -99.2441 1224.92
v 22.1429 -103.159 1197.75
v 20.5527 -101.833 1200.85
v 20.7923 -102.405 1229.51
v 23.5313 -105.903 1243.6
v 23.6243 -106.525 1248.56
v 21.6113 -106.298 1248.25
v 21.9935 -106.671 1235.58
v 21.7671 -106.55 1232.49
v 23.5158 -106.964 1249.76
v 23.4811 -107.481 1249.99
v 21.962 -109.187 1195.21
v 22.0821 -117.119 1198.99
v 20.7404 -119.185 1207.42
v 23.327 -119.877 1248.19
v 21.5787 -117.476 1246.85
v 23.2516 -122.398 1210.44
v 22.3554 -124.42 1217.51
v 22.7827 -127.317 1225.69
v 22.1534 -128.061 1231.67
v 20.7152 -128.1 1234.54
v 22.3019 -128.521 1247.93
v 21.0108 -126.579 1248.44
v 19.6843 -128.344 1247.1
v 20.9715 -130.604 1240.62
v 22.2004 -130.681 1243.32
v 20.0033 -130.046 1245.74
v 19.9693 -130.974 1242.46
v 19.5068 -130.787 1243.48
v 22.7419 -130.129 1246.05
v 21.8001 -129.783 1246.98
v 21.0964 -90.5605 1210.16
v 18.1425 -93.0887 1206.21
v 19.8313 -91.4536 1207.31
v 20.039 -92.3215 1212.09
v 18.7046 -95.151 1204.22
v 17.6204 -96.9779 1203.86
v 19.6539 -99.1046 1220.08
v 19.2056 -101.694 1226.62
v 18.2987 -103.666 1201.39
v 17.6325 -102.548 1202.36
v 19.6948 -106.007 1238.28
v 20.2023 -105.552 1240.96
v 18.748 -105.135 1246.59
v 18.2426 -104.994 1245.97
v 17.6634 -105.088 1246.45
v 18.4196 -105.667 1247.24
v 20.2531 -105.456 1197.47
v 18.1907 -107.23 1199.25
v 17.6029 -105.516 1225.98
v 20.1292 -106.352 1229.81
v 17.8671 -109.015 1230.66
v 20.1255 -107.553 1233.48
v 19.2366 -107.498 1234.67
v 17.8525 -108.804 1232.61
v 16.9706 -108.454 1234.51
v 17.9944 -106.315 1237.75
v 20.3059 -106.869 1248.26
v 16.8414 -109.645 1247.02
v 16.7561 -109.23 1201.88
v 18.0579 -113.592 1245.91
v 16.8013 -111.871 1246.18
v 19.238 -110.49 1247.47
v 19.9869 -112.64 1197.28
v 18.5607 -114.994 1202.65
v 16.9345 -114.565 1245.3
v 19.7396 -116.88 1203
v 18.854 -117.761 1207.17
v 16.9046 -116.788 1210.9
v 17.7552 -119.576 1213.12
v 16.3592 -118.211 1217.63
v 19.6065 -120.216 1246.19
v 17.7898 -119.069 1245.23
v 16.7006 -120.777 1244.93
v 19.7029 -121.375 1213.13
v 18.7639 -121.649 1216.02
v 16.7102 -120.379 1224.8
v 18.6838 -124.17 1228.39
v 16.671 -121.887 1228.82
v 17.5072 -123.177 1246.13
v 16.0854 -122.902 1245.09
v 15.9798 -124.087 1244.68
v 18.527 -124.447 1247.36
v 18.2056 -125.52 1231.61
v 16.4297 -126.92 1234.82
v 17.6718 -126.837 1245.86
v 17.5716 -127.187 1244.15
v 17.136 -125.406 1245.47
v 16.8875 -127.239 1243.17
v 16.6973 -128.139 1242.81
v 15.9091 -126.281 1243.18
v 15.8764 -127.562 1242.87
v 19.3242 -126.051 1247.88
v 18.2063 -126.947 1246.78
v 17.7575 -125.496 1246.8
v 19.3238 -128.993 1237.04
v 16.3688 -129.689 1237.98
v 18.2231 -130.829 1242.04
v 16.725 -129.896 1242.5
v 16.6101 -130.752 1241.49
v 16.0876 -130.345 1242.02
v 15.7438 -129.372 1242.42
v 19.0095 -130.064 1244.38
v 18.6286 -128.696 1245.76
v 18.1984 -129.095 1243.94
v 18.3668 -130.071 1243.44
v 17.5993 -129.852 1242.9
v 17.6043 -130.559 1242.5
v 17.4363 -93.4668 1208.47
v 16.2336 -95.636 1205.61
v 16.3712 -94.5754 1206.71
v 14.9051 -97.1021 1206.53
v 15.2578 -97.9322 1205.44
v 14.0282 -99.8268 1206.34
v 17.2118 -98.9369 1216.05
v 16.1597 -101.223 1220.38
v 16.2546 -101.426 1203.5
v 15.0735 -102.431 1204.61
v 13.3414 -102.677 1207.02
v 14.6305 -103.49 1221.47
v 16.6411 -103.828 1224.86
v 15.5391 -105.564 1241.09
v 16.9373 -104.965 1243.63
v 14.8321 -105.921 1245.75
v 14.4095 -105.359 1244.66
v 16.0878 -106.536 1203.36
v 15.6997 -104.524 1203.97
v 14.7063 -106.958 1205.5
v 14.1212 -107.555 1207.37
v 14.5143 -108.075 1220.11
v 13.3718 -105.861 1219.05
v 16.4375 -106.546 1224.3
v 15.152 -108.745 1221.96
v 14.9686 -107.251 1221.55
v 14.2655 -105.408 1221.1
v 13.4921 -107.293 1238.52
v 14.6455 -107.715 1246.59
v 14.0726 -109.048 1246.7
v 13.2158 -108.015 1245.79
v 12.9676 -109.077 1245.81
v 16.5152 -107.715 1247.05
v 15.0721 -109.059 1247.01
v 14.9376 -109.97 1206.13
v 14.3952 -110.21 1211.29
v 14.7746 -110.941 1220.37
v 14.2975 -109.109 1217.9
v 14.7817 -111.654 1222.54
v 15.7627 -109.647 1224.97
v 14.9633 -111.584 1226.37
v 15.7822 -110.948 1229.11
v 15.6616 -111.172 1230.86
v 13.5707 -111.601 1233.77
v 16.1486 -113.261 1245.45
v 15.4474 -111.04 1246.49
v 14.5518 -110.397 1246.66
v 14.2839 -111.89 1245.82
v 13.3403 -110.462 1245.94
v 15.506 -113.848 1213.1
v 15.6357 -113.35 1217.39
v 15.4717 -114.905 1221.16
v 15.0211 -115.368 1223.13
v 14.8292 -115.159 1224.95
v 14.536 -113.547 1227.67
v 14.5841 -115.775 1226.83
v 14.1163 -113.824 1230.51
v 14.1897 -114.67 1243.99
v 15.7602 -116.966 1221.47
v 15.1284 -116.898 1225.65
v 13.435 -118.581 1230.58
v 13.1993 -116.906 1230.64
v 15.4089 -119.038 1244.09
v 13.5924 -118.511 1243.63
v 15.4684 -122.125 1230.82
v 13 -121.23 1243.8
v 13.4429 -124.263 1234.17
v 13.2747 -126.294 1235.69
v 12.6696 -125.489 1235.69
v 12.5953 -127.068 1236.54
v 12.2836 -127.276 1242.22
v 14.5565 -125.178 1243.35
v 14.3953 -126.121 1243
v 14.5631 -127.929 1242.76
v 15.5556 -128.523 1236.56
v 13.2347 -128.212 1237.05
v 15.4265 -130.442 1240.04
v 13.1221 -129.176 1241.89
v 13.0862 -129.986 1240.12
v 13.1386 -129.905 1241.13
v 12.0525 -129.197 1241.11
v 13.0051 -100.476 1208.92
v 12.289 -103.618 1209.42
v 11.8212 -103.955 1213.17
v 12.0902 -104.754 1211.35
v 12.716 -103.005 1215.31
v 12.4188 -104.627 1217.05
v 12.2779 -105.676 1215.41
v 11.6367 -108.439 1238.98
v 12.746 -107.14 1239.71
v 11.9696 -107.611 1241.4
v 12.8306 -106.659 1244.64
v 11.9898 -107.013 1243.17
v 12.1337 -111.296 1235.46
v 10.017 -109.486 1241.2
v 10.0699 -109.461 1242.09
v 9.8193 -110.937 1241.97
v 9.02774 -111.86 1240.31
v 11.1022 -114.524 1234.42
v 9.56236 -112.866 1237.71
v 9.17236 -115.421 1236.65
v 11.8244 -116.331 1242.64
v 9.07172 -116.361 1240.38
v 9.43997 -118.23 1235.71
v 11.3691 -121.96 1234.53
v 10.0031 -121.431 1235.96
v 10.4747 -123.726 1241.88
v 8.87136 -121.393 1240.86
v 8.43248 -123.805 1239.4
v 10.7984 -124.422 1237.54
v 10.9064 -127.274 1241.39
v 10.3093 -127.025 1238.85
v 10.1813 -127.571 1239.33
v 9.74387 -126.13 1240.75
v 9.35123 -125.694 1239.33
v 9.29777 -126.105 1239.85
v 9.04421 -124.222 1238.9
v 11.2615 -127.949 1238.32
v 11.6989 -129.293 1240.24
v 11.2763 -128.757 1239.28
v 10.5181 -128.079 1240.25
v 8.25508 -114.005 1238.82
v 7.8031 -114.983 1238.79
v 7.48671 -116.381 1238.76
v 8.73326 -113.604 1240.35
v 7.85386 -114.331 1239.36
v 7.58826 -115.87 1239.27
v 7.57648 -118.968 1237.32
v 6.86531 -118.429 1238.6
v 6.661 -119.066 1238.66
v 6.95683 -119.946 1238.18
v 7.95098 -119.941 1240.27
v 7.42089 -116.79 1239.24
v 7.15965 -118.972 1239.76
v 7.09904 -120.071 1239.86
v 6.56667 -118.603 1239.18
v 6.46745 -119.526 1239.14
v 8.08101 -121.609 1237.75
v 7.92197 -120.41 1237.25
v 7.33532 -120.895 1238.19
v 8.10712 -122.509 1239.99
v 7.79249 -122.163 1239.02
v 34.9056 -118.2 1244.61
v 27.8861 -111.778 1251.35
v 29.4718 -116.982 1251.55
v 29.2987 -119.725 1251.05
v 29.2436 -121.173 1250.88
v 25.68 -109.359 1250.97
v 21.6113 -106.298 1248.25
v 23.5158 -106.964 1249.76
v 17.6043 -130.559 1242.5
v 8.43248 -123.805 1239.4
v 7.48671 -116.381 1238.76
v 7.85386 -114.331 1239.36
v 7.58826 -115.87 1239.27
v 7.42089 -116.79 1239.24
v 6.56667 -118.603 1239.18
v 6.56667 -118.603 1239.18
f 1 34 2
f 36 1 4
f 2 8 1
f 1 6 4
f 1 5 6
f 1 8 5
f 9 8 2
f 2 3 9
f 38 36 14
f 14 36 4
f 6 5 7
f 6 7 10
f 4 6 11
f 8 9 7
f 5 8 7
f 9 3 12
f 12 3 39
f 14 4 11
f 11 13 14
f 11 9 13
f 6 10 11
f 11 10 9
f 10 7 9
f 12 15 9
f 12 39 15
f 9 15 13
f 17 20 14
f 40 14 20
f 17 14 13
f 17 13 18
f 13 15 18
f 15 41 19
f 39 41 16
f 16 41 15
f 39 80 41
f 18 20 17
f 15 24 18
f 15 27 24
f 15 21 27
f 15 19 21
f 42 21 19
f 20 23 47
f 18 23 20
f 18 25 23
f 24 25 18
f 27 26 24
f 27 21 49
f 26 56 24
f 24 56 25
f 63 56 26
f 27 48 26
f 55 22 23
f 25 28 23
f 62 28 25
f 25 56 62
f 29 70 32
f 70 30 32
f 34 36 31
f 31 66 34
f 72 66 31
f 29 2 34
f 29 34 66
f 29 32 2
f 31 36 33
f 72 31 33
f 75 72 33
f 1 36 34
f 32 35 2
f 35 3 2
f 30 35 32
f 71 35 30
f 73 35 71
f 35 73 3
f 33 36 75
f 3 73 37
f 73 77 37
f 75 36 38
f 39 3 37
f 77 39 37
f 38 14 40
f 39 16 15
f 80 44 41
f 40 79 38
f 79 40 82
f 19 41 42
f 44 42 41
f 40 45 82
f 40 47 45
f 82 45 86
f 20 47 40
f 42 43 21
f 42 44 43
f 88 50 44
f 47 46 45
f 52 46 47
f 51 86 45
f 45 46 51
f 84 86 51
f 47 23 22
f 47 22 52
f 21 43 49
f 49 59 58
f 49 48 27
f 43 59 49
f 58 48 49
f 59 43 101
f 43 50 101
f 44 50 43
f 51 46 53
f 84 51 91
f 90 51 53
f 53 46 52
f 52 22 54
f 22 60 54
f 52 54 53
f 90 53 92
f 53 54 92
f 92 54 94
f 60 22 55
f 55 23 28
f 63 26 57
f 56 63 62
f 48 57 26
f 57 64 63
f 57 65 64
f 59 48 58
f 65 48 59
f 48 65 57
f 60 55 61
f 54 60 103
f 103 60 61
f 55 28 62
f 62 61 55
f 62 108 61
f 62 63 64
f 64 65 116
f 116 65 59
f 29 117 67
f 118 69 67
f 29 68 70
f 69 118 68
f 121 70 119
f 68 119 70
f 169 66 72
f 69 29 67
f 69 68 29
f 70 71 30
f 71 123 73
f 73 74 77
f 124 129 74
f 130 76 75
f 130 75 38
f 130 38 78
f 38 79 78
f 39 77 129
f 129 132 39
f 182 78 83
f 78 82 83
f 79 82 78
f 39 81 80
f 80 81 137
f 82 86 83
f 83 86 84
f 83 84 85
f 87 85 84
f 44 80 88
f 137 88 80
f 137 139 88
f 99 87 91
f 91 87 84
f 50 88 100
f 100 88 89
f 88 143 89
f 143 88 142
f 91 51 90
f 93 91 90
f 95 91 93
f 95 99 91
f 92 93 90
f 94 93 92
f 96 93 94
f 96 95 93
f 98 96 94
f 97 99 95
f 97 95 96
f 97 96 98
f 106 98 94
f 97 149 99
f 149 97 98
f 116 102 165
f 50 100 101
f 89 102 100
f 101 100 102
f 116 101 102
f 149 98 106
f 104 94 103
f 94 54 103
f 104 103 108
f 108 103 61
f 106 94 104
f 106 104 105
f 105 104 108
f 106 105 107
f 107 154 106
f 62 111 108
f 105 108 109
f 111 109 108
f 107 105 110
f 110 105 109
f 110 109 113
f 107 110 155
f 155 110 156
f 110 113 156
f 111 62 64
f 109 111 112
f 111 64 112
f 109 112 113
f 114 112 64
f 112 115 113
f 115 114 161
f 112 114 115
f 114 64 116
f 116 160 114
f 160 161 114
f 116 59 101
f 116 165 160
f 66 117 29
f 117 118 67
f 117 167 118
f 118 120 119
f 119 120 121
f 170 70 121
f 70 170 122
f 68 118 119
f 71 70 122
f 122 170 123
f 170 172 123
f 169 72 174
f 71 122 123
f 123 124 74
f 124 123 172
f 72 125 174
f 73 123 74
f 124 126 129
f 125 76 127
f 125 75 76
f 72 75 125
f 77 74 129
f 76 130 127
f 127 130 128
f 181 128 130
f 131 130 78
f 181 131 78
f 130 131 181
f 129 180 132
f 78 182 181
f 181 182 183
f 182 83 135
f 132 133 39
f 81 39 133
f 134 133 132
f 134 132 180
f 83 85 135
f 85 136 135
f 135 136 184
f 182 135 184
f 136 85 87
f 136 217 184
f 87 186 136
f 81 138 137
f 138 81 133
f 141 137 138
f 133 141 138
f 133 134 141
f 134 185 141
f 87 189 186
f 88 139 142
f 142 139 140
f 137 141 139
f 141 140 139
f 187 140 141
f 185 187 141
f 87 99 189
f 189 99 193
f 150 89 152
f 190 148 192
f 140 144 142
f 143 142 145
f 145 142 144
f 143 145 147
f 89 143 152
f 147 152 143
f 146 144 140
f 146 145 144
f 148 146 140
f 148 145 146
f 148 147 145
f 148 152 147
f 190 152 148
f 140 191 148
f 99 149 193
f 165 102 151
f 151 196 165
f 164 165 196
f 102 150 151
f 150 153 151
f 102 89 150
f 152 153 150
f 149 106 154
f 155 154 107
f 154 155 193
f 149 154 193
f 156 194 155
f 155 194 193
f 113 157 156
f 157 194 156
f 113 115 157
f 161 159 115
f 157 115 158
f 158 115 159
f 161 163 159
f 158 159 197
f 159 163 197
f 194 157 158
f 163 161 162
f 161 160 162
f 160 165 162
f 162 164 163
f 164 162 165
f 166 230 167
f 230 198 167
f 120 118 198
f 118 167 198
f 168 120 198
f 117 66 166
f 66 169 166
f 166 167 117
f 199 120 168
f 121 120 199
f 121 199 170
f 170 171 172
f 171 201 172
f 201 203 172
f 172 175 124
f 175 172 203
f 204 174 173
f 176 173 174
f 173 176 205
f 175 126 124
f 239 206 175
f 178 175 206
f 176 174 125
f 176 125 127
f 126 175 178
f 129 126 178
f 177 129 178
f 177 179 129
f 177 178 207
f 176 127 128
f 245 176 128
f 129 179 180
f 179 177 207
f 179 210 180
f 181 214 245
f 183 214 181
f 183 252 214
f 183 182 184
f 134 180 216
f 184 217 183
f 216 185 134
f 186 217 136
f 217 186 218
f 188 191 140
f 188 140 187
f 187 185 188
f 185 225 188
f 189 193 186
f 224 186 193
f 153 152 190
f 192 225 190
f 190 229 153
f 191 192 148
f 188 192 191
f 225 192 188
f 197 163 195
f 195 163 196
f 197 195 194
f 195 226 194
f 196 163 164
f 227 195 196
f 196 153 229
f 151 153 196
f 158 197 194
f 232 199 231
f 233 169 174
f 233 174 202
f 166 169 230
f 231 168 198
f 199 168 231
f 200 170 199
f 171 200 235
f 232 200 199
f 171 170 200
f 201 171 235
f 202 174 204
f 204 173 205
f 206 239 209
f 241 205 176
f 206 207 178
f 207 211 210
f 209 208 206
f 206 208 207
f 208 212 207
f 207 212 211
f 209 242 208
f 242 212 208
f 243 242 209
f 247 212 242
f 181 245 128
f 179 207 210
f 213 211 212
f 213 210 211
f 213 248 210
f 213 212 248
f 210 216 180
f 250 216 210
f 210 248 251
f 210 251 250
f 215 216 250
f 218 252 183
f 215 222 216
f 256 222 215
f 183 217 218
f 216 220 185
f 222 221 220
f 262 223 220
f 222 220 216
f 218 186 219
f 219 186 305
f 223 225 185
f 223 185 220
f 186 224 305
f 263 229 190
f 223 264 225
f 225 263 190
f 225 264 263
f 193 306 224
f 193 194 226
f 306 193 226
f 195 227 226
f 227 265 226
f 266 265 227
f 228 266 227
f 196 228 227
f 229 228 196
f 229 266 228
f 268 269 198
f 230 233 267
f 230 267 268
f 268 198 230
f 198 269 231
f 230 169 233
f 200 232 234
f 235 200 234
f 236 201 235
f 236 235 234
f 201 236 203
f 275 203 236
f 280 203 275
f 277 202 237
f 203 238 175
f 239 175 238
f 238 203 280
f 237 204 283
f 202 204 237
f 285 239 238
f 241 283 204
f 204 205 241
f 285 240 239
f 240 243 239
f 240 285 287
f 283 241 246
f 243 209 239
f 243 247 242
f 247 243 244
f 287 243 240
f 287 244 243
f 241 176 245
f 246 241 245
f 289 246 245
f 248 212 247
f 249 247 244
f 248 247 249
f 251 248 249
f 291 249 244
f 290 251 249
f 290 249 291
f 245 214 289
f 289 214 252
f 294 251 290
f 294 295 251
f 252 218 299
f 215 250 253
f 250 251 253
f 301 258 253
f 259 254 219
f 257 255 221
f 258 255 257
f 256 215 258
f 256 257 222
f 222 257 221
f 215 253 258
f 257 256 258
f 219 254 218
f 259 219 305
f 302 259 305
f 262 261 260
f 261 310 260
f 261 262 255
f 262 220 221
f 262 260 223
f 255 262 221
f 311 263 264
f 311 264 310
f 263 311 309
f 223 260 264
f 260 310 264
f 305 224 306
f 263 352 266
f 352 314 266
f 226 265 306
f 265 266 314
f 229 263 266
f 267 233 315
f 268 320 269
f 268 318 320
f 320 270 269
f 269 270 231
f 270 232 231
f 232 321 272
f 324 272 321
f 234 232 272
f 325 234 272
f 325 272 324
f 323 325 324
f 271 233 273
f 273 233 202
f 274 234 329
f 236 234 276
f 276 234 274
f 330 274 329
f 273 202 277
f 273 277 382
f 236 276 275
f 275 276 280
f 330 276 274
f 276 330 280
f 277 237 278
f 279 278 237
f 277 331 382
f 331 277 278
f 331 278 279
f 282 238 280
f 333 282 280
f 281 283 284
f 281 237 283
f 279 237 281
f 385 279 281
f 385 281 284
f 238 286 285
f 282 286 238
f 333 286 282
f 284 283 246
f 291 244 287
f 287 288 291
f 288 287 285
f 285 334 288
f 252 293 289
f 291 288 290
f 290 288 292
f 298 290 292
f 337 292 288
f 337 298 292
f 337 336 298
f 293 252 299
f 253 251 295
f 298 296 295
f 301 295 296
f 340 296 298
f 296 297 301
f 340 297 296
f 298 336 340
f 290 295 294
f 298 295 290
f 299 218 254
f 297 344 300
f 253 295 301
f 300 258 301
f 297 300 301
f 254 259 343
f 259 302 343
f 343 302 303
f 300 255 258
f 300 344 255
f 255 344 304
f 396 304 344
f 305 303 302
f 312 310 349
f 348 349 310
f 255 304 261
f 304 396 261
f 348 310 261
f 261 396 348
f 305 306 303
f 351 308 313
f 309 353 352
f 309 349 353
f 312 311 310
f 311 312 309
f 308 306 265
f 306 308 307
f 308 265 313
f 265 314 313
f 313 314 351
f 309 352 263
f 315 358 316
f 315 317 267
f 316 317 315
f 268 317 318
f 268 267 317
f 365 320 319
f 317 363 318
f 318 319 320
f 363 319 318
f 270 320 321
f 232 270 321
f 368 321 320
f 372 324 322
f 321 371 324
f 324 372 323
f 271 273 380
f 233 271 315
f 271 358 315
f 358 271 380
f 326 325 323
f 323 376 326
f 329 325 377
f 376 327 326
f 327 325 326
f 377 325 327
f 273 382 328
f 328 380 273
f 329 234 325
f 329 381 330
f 377 381 329
f 384 333 330
f 280 330 333
f 332 331 279
f 385 332 279
f 383 332 385
f 383 331 332
f 331 383 382
f 385 284 387
f 334 286 333
f 333 386 334
f 284 246 387
f 285 286 334
f 390 288 334
f 386 390 334
f 387 246 389
f 389 246 289
f 293 389 289
f 293 339 389
f 335 336 337
f 390 337 288
f 338 335 337
f 390 338 337
f 393 335 338
f 293 299 339
f 394 339 299
f 341 297 340
f 335 340 336
f 335 341 340
f 393 341 335
f 344 297 341
f 254 342 299
f 254 343 342
f 343 345 342
f 342 345 395
f 397 396 344
f 343 303 345
f 303 346 345
f 307 303 306
f 307 346 303
f 351 398 346
f 398 314 399
f 353 349 399
f 352 353 399
f 350 347 349
f 399 349 347
f 347 401 399
f 350 401 347
f 396 350 348
f 350 349 348
f 307 308 346
f 346 308 351
f 398 351 314
f 314 352 399
f 312 349 309
f 406 468 354
f 407 355 354
f 404 355 407
f 354 355 372
f 355 408 356
f 356 372 355
f 356 373 372
f 356 357 373
f 411 356 408
f 356 411 357
f 411 375 357
f 359 316 358
f 358 423 360
f 358 360 359
f 359 360 361
f 423 414 360
f 362 363 317
f 362 317 361
f 317 316 361
f 316 359 361
f 365 319 364
f 319 363 364
f 364 362 418
f 364 363 362
f 364 418 365
f 365 366 320
f 366 368 320
f 366 365 418
f 418 367 366
f 366 367 368
f 369 370 406
f 369 368 370
f 368 367 370
f 321 368 369
f 321 406 371
f 321 369 406
f 324 371 322
f 354 372 322
f 371 354 322
f 371 406 354
f 372 373 323
f 373 376 323
f 373 374 376
f 374 378 376
f 373 357 374
f 378 374 375
f 375 374 357
f 379 378 375
f 379 375 421
f 423 358 380
f 485 423 380
f 377 327 378
f 327 376 378
f 377 378 379
f 381 377 379
f 380 328 382
f 424 381 379
f 426 381 424
f 382 425 380
f 430 425 382
f 426 330 381
f 382 383 430
f 434 430 383
f 385 434 383
f 387 434 385
f 386 384 431
f 333 384 386
f 388 390 386
f 386 392 388
f 389 502 387
f 391 338 390
f 388 391 390
f 388 442 391
f 392 442 388
f 442 393 391
f 438 443 864
f 442 864 443
f 449 393 442
f 339 445 389
f 339 394 445
f 446 389 445
f 391 393 338
f 449 454 393
f 394 299 342
f 342 453 394
f 453 448 394
f 395 453 342
f 393 454 341
f 346 395 345
f 456 395 346
f 397 344 457
f 458 398 400
f 521 400 399
f 401 350 396
f 401 396 522
f 398 458 346
f 399 400 398
f 468 459 402
f 402 404 403
f 402 403 468
f 402 461 404
f 461 464 404
f 403 407 354
f 403 404 407
f 405 404 464
f 465 405 464
f 406 419 468
f 468 419 467
f 419 406 370
f 468 403 354
f 405 355 404
f 405 408 355
f 405 409 408
f 408 409 410
f 465 409 405
f 465 410 409
f 410 472 413
f 472 473 413
f 411 412 421
f 421 375 411
f 408 410 412
f 411 408 412
f 421 412 422
f 413 412 410
f 412 413 422
f 361 360 414
f 414 423 481
f 361 414 362
f 362 414 415
f 414 416 415
f 481 416 414
f 416 481 417
f 416 417 415
f 362 415 418
f 417 367 418
f 415 417 418
f 475 420 417
f 476 475 417
f 419 370 367
f 367 417 420
f 420 419 367
f 467 419 420
f 421 422 480
f 480 422 478
f 413 478 422
f 379 421 480
f 424 379 480
f 425 485 380
f 485 547 423
f 428 426 424
f 486 425 430
f 486 485 425
f 487 485 486
f 491 486 430
f 330 426 427
f 427 384 330
f 426 428 427
f 429 432 427
f 427 428 429
f 430 434 491
f 384 427 431
f 431 435 386
f 431 427 432
f 435 431 433
f 431 432 490
f 490 433 431
f 433 492 435
f 392 386 435
f 436 439 435
f 436 440 439
f 436 496 440
f 437 434 387
f 437 387 502
f 864 435 438
f 435 439 438
f 438 444 443
f 439 440 438
f 440 444 438
f 441 444 440
f 440 499 441
f 389 446 502
f 446 503 502
f 449 442 443
f 450 443 444
f 446 445 447
f 394 448 447
f 447 445 394
f 503 446 447
f 447 448 509
f 449 443 450
f 454 449 451
f 449 450 451
f 451 450 452
f 450 444 452
f 515 448 453
f 573 448 515
f 515 456 516
f 456 515 453
f 516 456 458
f 341 454 344
f 454 451 455
f 591 454 455
f 453 395 456
f 456 346 458
f 397 522 396
f 457 526 397
f 521 458 400
f 521 399 401
f 528 460 469
f 469 460 468
f 528 529 460
f 459 461 402
f 468 460 459
f 459 460 461
f 460 462 461
f 529 463 462
f 529 462 460
f 462 464 461
f 463 464 462
f 465 464 463
f 466 465 463
f 469 468 467
f 469 467 530
f 531 469 530
f 470 466 463
f 532 466 470
f 470 537 532
f 466 410 465
f 466 472 410
f 466 471 472
f 532 471 466
f 538 471 532
f 472 477 473
f 477 472 471
f 417 474 476
f 481 482 417
f 476 474 534
f 482 533 474
f 417 482 474
f 475 467 420
f 467 475 476
f 467 476 530
f 530 476 534
f 538 477 471
f 477 544 473
f 473 478 413
f 473 479 478
f 479 484 478
f 479 473 544
f 480 478 484
f 484 483 480
f 423 539 481
f 539 423 547
f 481 540 482
f 540 533 482
f 483 424 480
f 483 548 424
f 548 428 424
f 548 488 428
f 551 487 486
f 491 551 486
f 487 547 485
f 551 547 487
f 429 490 432
f 489 429 428
f 489 428 488
f 429 489 490
f 556 490 489
f 557 490 556
f 558 491 434
f 492 433 490
f 559 492 490
f 436 492 496
f 496 492 493
f 494 496 493
f 492 494 493
f 560 492 559
f 492 560 494
f 494 562 496
f 498 566 434
f 558 434 566
f 566 498 568
f 435 492 436
f 496 495 440
f 499 495 496
f 496 497 499
f 567 501 865
f 564 567 865
f 570 501 567
f 498 437 502
f 498 434 437
f 499 440 495
f 444 441 500
f 499 500 441
f 500 499 866
f 500 866 444
f 504 444 866
f 504 866 505
f 499 497 866
f 498 502 568
f 502 503 568
f 503 447 509
f 568 503 569
f 569 503 509
f 507 572 508
f 506 504 505
f 444 504 506
f 501 507 867
f 507 508 867
f 508 868 867
f 508 514 868
f 573 509 448
f 571 509 573
f 574 573 515
f 444 510 452
f 510 511 452
f 512 511 510
f 520 511 512
f 510 513 512
f 444 513 510
f 513 444 506
f 506 514 513
f 583 513 514
f 515 516 574
f 630 574 516
f 630 516 631
f 631 516 458
f 344 454 591
f 591 455 578
f 578 455 580
f 455 517 580
f 580 517 519
f 455 451 517
f 517 451 518
f 518 451 452
f 519 517 518
f 520 518 452
f 518 520 519
f 452 511 520
f 520 512 513
f 513 581 520
f 513 583 581
f 458 521 631
f 523 631 521
f 521 401 522
f 522 523 521
f 523 522 524
f 397 525 522
f 522 584 524
f 591 457 344
f 527 526 457
f 527 457 591
f 525 397 526
f 527 525 526
f 589 525 527
f 528 600 529
f 470 529 600
f 531 530 597
f 530 534 597
f 534 536 597
f 531 599 596
f 531 597 599
f 531 528 469
f 531 596 528
f 596 600 528
f 470 463 529
f 600 537 470
f 537 538 532
f 474 533 535
f 535 534 474
f 536 534 535
f 607 538 537
f 607 543 538
f 481 539 541
f 609 539 552
f 539 610 541
f 609 610 539
f 481 541 540
f 535 533 542
f 542 533 540
f 605 535 542
f 542 540 541
f 536 535 605
f 610 603 541
f 538 543 477
f 477 543 544
f 543 545 544
f 545 479 544
f 608 550 545
f 479 545 484
f 484 546 483
f 483 546 548
f 484 545 546
f 550 546 545
f 539 547 552
f 548 546 549
f 555 548 549
f 550 549 546
f 558 551 491
f 551 552 547
f 551 553 552
f 553 551 558
f 548 555 488
f 554 489 488
f 554 556 489
f 557 559 490
f 555 554 488
f 559 557 618
f 557 656 618
f 618 619 559
f 558 566 553
f 553 566 661
f 559 619 561
f 561 560 559
f 494 560 563
f 563 562 494
f 563 560 561
f 623 869 563
f 561 623 563
f 562 497 496
f 562 869 497
f 563 869 562
f 564 565 567
f 624 565 564
f 564 871 624
f 565 570 567
f 572 507 570
f 507 501 570
f 509 571 569
f 573 626 571
f 574 626 573
f 628 508 572
f 628 575 508
f 628 572 629
f 570 629 572
f 575 628 685
f 688 627 574
f 630 688 574
f 636 583 576
f 514 576 583
f 575 514 508
f 575 576 514
f 636 576 575
f 585 631 523
f 577 631 585
f 632 577 585
f 689 631 577
f 587 588 633
f 578 580 579
f 578 579 709
f 580 519 594
f 593 580 592
f 594 519 520
f 583 582 581
f 582 595 581
f 636 582 583
f 581 595 520
f 525 584 522
f 585 523 524
f 584 585 524
f 587 584 525
f 586 585 584
f 586 584 587
f 632 585 586
f 587 632 586
f 589 588 525
f 588 587 525
f 527 591 590
f 527 590 589
f 590 588 589
f 634 588 590
f 634 590 578
f 633 588 634
f 578 590 591
f 709 579 593
f 592 580 594
f 579 580 593
f 638 593 592
f 709 593 638
f 520 643 594
f 520 595 643
f 596 599 598
f 596 598 600
f 600 598 645
f 645 598 647
f 599 647 598
f 645 602 600
f 601 597 536
f 606 601 536
f 649 601 606
f 597 601 599
f 645 648 602
f 600 602 537
f 728 537 602
f 728 607 537
f 603 610 612
f 604 603 612
f 613 604 612
f 606 536 605
f 541 603 542
f 606 605 603
f 603 605 542
f 603 604 606
f 543 607 614
f 608 545 543
f 543 614 608
f 610 609 611
f 611 613 610
f 613 612 610
f 611 609 616
f 611 616 613
f 651 614 607
f 608 614 652
f 608 652 550
f 549 550 617
f 652 617 550
f 549 617 555
f 609 552 553
f 553 615 609
f 553 661 615
f 609 615 616
f 615 661 653
f 615 653 616
f 664 555 617
f 664 617 663
f 554 555 664
f 554 622 556
f 664 622 554
f 655 656 557
f 618 656 736
f 736 658 618
f 658 657 618
f 618 620 619
f 623 561 619
f 671 624 871
f 671 871 870
f 620 623 619
f 657 620 618
f 566 625 661
f 664 665 622
f 556 621 557
f 622 621 556
f 622 666 621
f 666 667 621
f 665 666 622
f 557 621 655
f 624 671 565
f 676 565 671
f 625 566 568
f 565 629 570
f 569 571 626
f 569 626 677
f 677 626 678
f 568 569 677
f 676 674 629
f 678 626 680
f 627 626 574
f 626 627 681
f 688 681 627
f 629 685 628
f 688 630 631
f 689 688 631
f 575 706 636
f 575 685 696
f 632 689 577
f 632 691 689
f 689 691 690
f 691 632 587
f 691 587 633
f 697 691 633
f 697 633 634
f 634 698 697
f 578 709 634
f 582 636 635
f 635 595 582
f 637 635 636
f 637 644 635
f 706 637 636
f 711 638 641
f 592 594 639
f 638 592 639
f 594 643 639
f 638 639 641
f 642 639 643
f 641 639 642
f 640 643 644
f 640 642 643
f 642 640 716
f 716 719 642
f 644 643 595
f 635 644 595
f 645 647 722
f 599 601 647
f 647 601 646
f 646 723 724
f 648 645 722
f 647 646 722
f 724 722 646
f 722 602 648
f 649 606 604
f 649 646 601
f 604 650 649
f 649 723 646
f 649 650 723
f 803 728 722
f 722 728 602
f 604 613 616
f 616 650 604
f 654 650 616
f 728 651 607
f 729 614 651
f 728 729 651
f 729 652 614
f 616 653 654
f 654 653 739
f 740 654 739
f 733 734 652
f 663 617 734
f 617 652 734
f 745 663 734
f 621 670 655
f 655 670 656
f 656 735 736
f 735 656 670
f 670 749 735
f 657 658 659
f 657 659 660
f 658 736 659
f 659 737 660
f 660 737 754
f 660 671 870
f 870 657 660
f 661 625 662
f 661 662 653
f 653 662 739
f 664 663 745
f 664 745 761
f 665 664 761
f 668 665 764
f 666 668 667
f 665 668 666
f 667 668 669
f 667 669 670
f 621 667 670
f 676 629 565
f 672 676 671
f 671 660 754
f 675 676 672
f 754 672 671
f 672 767 675
f 625 677 662
f 662 677 673
f 739 662 673
f 763 665 761
f 762 763 761
f 668 764 669
f 675 674 676
f 766 679 674
f 679 686 674
f 675 766 674
f 677 625 568
f 677 678 673
f 678 680 681
f 681 682 678
f 678 682 771
f 771 684 772
f 682 684 771
f 629 686 685
f 674 686 629
f 679 784 686
f 626 681 680
f 682 681 683
f 683 681 688
f 682 683 684
f 684 780 772
f 690 780 684
f 686 784 687
f 686 687 685
f 688 689 683
f 689 684 683
f 689 690 684
f 691 692 690
f 692 691 697
f 692 697 786
f 687 693 685
f 687 694 693
f 694 695 693
f 787 694 687
f 575 696 706
f 685 693 696
f 708 696 693
f 697 788 786
f 698 788 697
f 634 709 698
f 709 796 698
f 699 708 701
f 717 699 700
f 702 718 700
f 717 700 718
f 695 701 693
f 695 700 701
f 701 708 693
f 701 700 699
f 702 700 695
f 695 704 702
f 703 702 704
f 704 695 793
f 705 703 704
f 794 704 793
f 705 704 795
f 795 703 705
f 706 707 637
f 717 707 699
f 717 637 707
f 696 708 706
f 708 707 706
f 699 707 708
f 709 710 796
f 710 709 638
f 797 710 798
f 638 711 713
f 711 641 642
f 711 642 721
f 713 798 638
f 721 713 711
f 710 638 798
f 714 872 712
f 714 713 721
f 715 714 712
f 799 714 715
f 716 640 717
f 637 640 644
f 717 640 637
f 718 716 717
f 718 719 716
f 720 718 702
f 720 719 718
f 720 872 719
f 872 642 719
f 720 702 703
f 712 872 720
f 712 720 703
f 703 715 712
f 795 715 703
f 723 725 724
f 650 726 723
f 723 726 725
f 724 803 722
f 803 724 725
f 654 730 650
f 726 650 730
f 730 727 726
f 726 727 725
f 803 725 727
f 807 728 803
f 729 728 807
f 730 654 740
f 731 730 740
f 730 731 727
f 731 740 732
f 732 727 731
f 803 727 732
f 733 729 807
f 733 652 729
f 748 745 734
f 734 733 748
f 735 738 736
f 738 659 736
f 738 737 659
f 813 737 738
f 813 752 737
f 813 738 814
f 739 756 741
f 739 732 740
f 741 732 739
f 742 741 756
f 743 759 758
f 744 743 748
f 759 743 744
f 747 745 748
f 747 746 745
f 747 748 743
f 747 743 746
f 743 758 746
f 745 746 761
f 670 669 749
f 749 669 815
f 749 811 735
f 811 812 735
f 754 737 750
f 754 750 755
f 755 750 751
f 750 752 751
f 755 751 768
f 751 770 768
f 737 752 750
f 752 753 751
f 751 753 770
f 738 735 814
f 754 755 672
f 768 672 755
f 673 756 739
f 673 678 756
f 742 756 757
f 757 756 771
f 759 771 772
f 771 759 757
f 759 772 758
f 760 746 758
f 746 760 761
f 761 760 762
f 760 776 762
f 763 764 665
f 762 776 763
f 764 778 765
f 778 764 763
f 778 783 765
f 763 776 778
f 764 765 669
f 669 765 815
f 783 820 765
f 779 679 766
f 672 768 767
f 768 769 767
f 766 675 767
f 769 766 767
f 769 779 766
f 769 846 779
f 770 769 768
f 770 846 769
f 818 770 753
f 818 846 770
f 756 678 771
f 773 772 780
f 758 772 773
f 773 780 774
f 774 690 781
f 758 773 760
f 773 774 760
f 760 774 775
f 774 781 775
f 776 760 775
f 775 781 777
f 783 776 777
f 777 776 775
f 777 781 783
f 778 776 783
f 823 779 846
f 774 780 690
f 690 692 781
f 782 781 692
f 781 782 783
f 782 825 783
f 825 782 826
f 785 787 784
f 787 687 784
f 679 779 784
f 779 785 784
f 779 823 785
f 787 785 823
f 782 692 786
f 782 786 788
f 826 782 788
f 787 695 694
f 787 828 695
f 793 695 828
f 793 828 794
f 788 698 789
f 797 789 698
f 797 698 796
f 710 797 796
f 789 791 790
f 797 791 789
f 788 789 790
f 788 790 826
f 792 795 794
f 792 799 795
f 832 799 792
f 704 794 795
f 839 797 841
f 800 798 713
f 797 798 800
f 801 713 714
f 797 800 841
f 799 801 714
f 713 801 800
f 832 802 799
f 802 801 799
f 840 800 801
f 800 840 841
f 842 802 832
f 799 715 795
f 741 742 804
f 805 803 804
f 803 732 804
f 732 741 804
f 804 742 806
f 804 806 805
f 806 742 757
f 805 806 809
f 808 733 807
f 807 803 805
f 805 808 807
f 805 809 808
f 733 808 748
f 748 808 744
f 806 757 809
f 759 809 757
f 808 809 744
f 759 744 809
f 815 810 749
f 810 811 749
f 816 811 810
f 810 815 821
f 816 810 821
f 811 816 812
f 814 735 812
f 816 814 812
f 818 753 817
f 817 814 816
f 814 817 813
f 813 817 752
f 752 817 753
f 820 815 765
f 815 820 822
f 815 822 821
f 816 821 819
f 816 819 817
f 817 819 818
f 825 820 783
f 820 825 822
f 819 821 843
f 821 822 843
f 823 846 824
f 827 825 826
f 823 824 787
f 787 824 829
f 827 826 831
f 859 827 831
f 859 831 838
f 830 859 838
f 787 829 828
f 862 828 829
f 862 835 828
f 856 862 829
f 862 873 837
f 837 835 862
f 826 790 831
f 790 791 831
f 791 839 831
f 839 791 797
f 833 839 834
f 839 833 831
f 831 836 838
f 828 792 794
f 835 832 828
f 828 832 792
f 836 833 834
f 831 833 836
f 842 835 837
f 842 832 835
f 842 837 834
f 836 837 830
f 837 836 834
f 838 836 830
f 834 839 841
f 801 802 840
f 840 802 842
f 842 834 841
f 840 842 841
f 819 846 818
f 843 822 844
f 845 844 822
f 819 843 847
f 847 843 844
f 847 844 848
f 844 874 848
f 848 874 854
f 819 875 846
f 876 824 846
f 875 876 846
f 876 877 824
f 827 860 825
f 822 825 849
f 849 825 860
f 822 850 845
f 822 849 850
f 849 860 852
f 857 854 874
f 878 845 850
f 849 851 850
f 850 851 878
f 852 851 849
f 852 860 861
f 852 861 858
f 858 878 851
f 852 858 851
f 829 824 853
f 877 855 824
f 855 853 824
f 855 856 853
f 877 879 855
f 879 858 856
f 855 879 856
f 863 861 859
f 830 863 859
f 860 827 859
f 860 859 861
f 861 863 858
f 856 829 853
f 863 873 862
f 863 862 858
f 862 856 858
