o FMA9291_BP9227_FJ2423
v 50.6123 -148.217 1182.04
v 51.6583 -151.102 1181.73
v 50.7588 -149.093 1181.15
v 50.7666 -150.114 1181.03
v 52.2982 -151.713 1182.45
v 52.4507 -151.733 1182.97
v 52.2884 -152.291 1184.01
v 51.7612 -150.174 1182.94
v 51.828 -150.579 1181.95
v 52.0946 -150.672 1182.46
v 51.5471 -149.671 1182.03
v 51.2893 -151.372 1184.44
v 51.5416 -152.401 1181.92
v 52.6634 -153.948 1183.71
v 52.5573 -154.151 1184.4
v 52.58 -155.063 1184.24
v 52.2963 -156.196 1184.85
v 52.3674 -154.427 1183.26
v 52.1832 -155.912 1184.14
v 51.8796 -155.19 1183.27
v 51.3641 -153.911 1182.39
v 51.416 -156.218 1183.73
v 50.8312 -155.794 1183.21
v 52.045 -156.504 1186.12
v 51.7115 -156.988 1184.71
v 50.7659 -157.063 1184.19
v 51.4823 -158.111 1188.2
v 51.6786 -158.519 1187.56
v 51.2362 -159.672 1187.69
v 50.711 -158.9 1186.19
v 51.4777 -159.495 1189.39
v 50.4462 -159.292 1191.19
v 50.0257 -156.959 1189.43
v 50.6215 -161.227 1189.09
v 51.2802 -160.916 1190.75
v 51.1076 -161.262 1190.03
v 50.6652 -162.417 1192.31
v 50.5666 -161.919 1190.21
v 50.7517 -161.22 1192.78
v 50.5172 -162.341 1194.34
v 49.7488 -161.202 1194.99
v 49.8274 -163.431 1198.89
v 49.5693 -164.41 1198.3
v 49.6134 -163.487 1202.66
v 49.7363 -164.534 1203.48
v 49.5384 -164.699 1207.16
v 49.871 -147.655 1181.14
v 49.4163 -148.057 1180.46
v 48.8827 -146.606 1181.7
v 48.3713 -147.989 1180.05
v 48.0257 -146.604 1180.76
v 46.9982 -146.984 1180.05
v 49.3361 -147.227 1182.7
v 46.9293 -146.5 1184.27
v 46.5368 -150.36 1236.91
v 49.4146 -149.007 1180.25
v 49.394 -150.185 1180.48
v 48.3524 -148.96 1179.93
v 47.8619 -149.959 1180.06
v 47.6359 -150.587 1186.57
v 47.1434 -153.108 1234.18
v 47.895 -153.426 1235.54
v 47.603 -154.146 1237.39
v 47.4735 -152.239 1235.75
v 47.5606 -152.279 1236.28
v 47.6203 -152.73 1236.89
v 47.0887 -151.316 1236.31
v 46.9602 -151.308 1237.76
v 48.538 -156.309 1183.09
v 47.9014 -154.075 1181.86
v 46.8526 -157.877 1226.06
v 48.3881 -156.622 1232
v 48.3197 -156.68 1233.51
v 47.7811 -155.907 1231.37
v 47.7054 -156.198 1236.2
v 48.2368 -159.285 1185.62
v 49.7024 -159.739 1192.66
v 48.0982 -161.384 1211.34
v 47.6794 -161.084 1218.48
v 47.8812 -160.785 1222.15
v 48.5548 -160.328 1226.84
v 48.2955 -159.508 1226.44
v 48.4253 -160.577 1228.34
v 47.7872 -159.679 1232.22
v 46.695 -161.219 1232.41
v 49.5506 -161.186 1188.39
v 49.5542 -162.102 1189.7
v 49.4918 -162.858 1191.17
v 49.5157 -163.737 1194
v 47.9641 -164.163 1193.4
v 49.4128 -162.37 1198.4
v 48.6875 -162.193 1201.88
v 49.1278 -162.488 1212.22
v 49.4863 -163.531 1212.41
v 49.1724 -163.991 1214.67
v 48.834 -164.922 1213.06
v 48.4896 -162.315 1219.31
v 48.4123 -162.188 1223.23
v 48.394 -163.546 1219.97
v 48.0847 -162.067 1226.52
v 47.3103 -163.986 1223.4
v 48.3608 -164.932 1197.14
v 49.4597 -165.085 1203.46
v 48.1602 -165.996 1203.12
v 49.1432 -165.242 1207.29
v 47.2226 -166.365 1211.96
v 46.9521 -165.65 1217.49
v 45.739 -144.766 1182.12
v 45.3948 -144.519 1183.12
v 44.9261 -144.925 1184.54
v 43.1923 -143.183 1182.11
v 43.0576 -146.672 1241.24
v 44.6795 -145.406 1180.44
v 44.8004 -148.333 1179.48
v 44.2434 -149.499 1234.76
v 46.2096 -150.299 1235.94
v 45.0054 -148.738 1240.08
v 42.9341 -146.874 1239.13
v 44.2811 -149.839 1244.25
v 43.5457 -150.494 1245.44
v 44.4303 -151.58 1180.98
v 43.4333 -149.783 1190.09
v 43.3082 -153.383 1229.41
v 45.7646 -151.057 1241.63
v 45.4254 -154.139 1241.85
v 44.9477 -152.026 1243.58
v 43.8138 -152.391 1244.87
v 42.957 -153.331 1181.75
v 46.4125 -156.234 1192.42
v 45.2538 -153.068 1191.35
v 45.3174 -156.58 1194.84
v 43.054 -156.765 1204.77
v 43.3075 -155.102 1226.28
v 46.0905 -158.142 1237.72
v 44.5327 -158.242 1239.88
v 44.1537 -154.8 1243.22
v 44.8089 -157.551 1183.56
v 45.4146 -157.77 1197.58
v 44.1403 -157.694 1202
v 44.8672 -158.89 1208.08
v 43.9627 -158.168 1217.65
v 45.4616 -158.889 1220.05
v 45.1533 -159.602 1237.69
v 43.5948 -162.121 1188.03
v 45.2444 -163.29 1190.12
v 42.4254 -164.132 1191.05
v 44.7456 -164.041 1230.92
v 43.7955 -165.454 1194.55
v 45.6913 -166.118 1198.33
v 43.0199 -167.952 1203.47
v 43.8951 -165.833 1227.6
v 39.8888 -135.192 1250.62
v 40.533 -138.376 1248.18
v 40.1952 -136.517 1251.53
v 40.4367 -140.936 1246.52
v 40.2788 -142.878 1243.25
v 40.8159 -141.477 1248.48
v 40.7466 -139.933 1249.79
v 40.45 -142.727 1253.97
v 39.9627 -141.502 1254.68
v 39.6536 -142.131 1255.2
v 40.9096 -143.263 1180.43
v 42.2153 -142.364 1183.26
v 42.5087 -142.774 1183.96
v 39.9864 -143.894 1240.18
v 42.0185 -146.157 1245.7
v 41.1383 -143.925 1246.99
v 40.6517 -146.378 1250.08
v 40.6527 -145.279 1252.99
v 40.4968 -145.943 1254.08
v 40.1647 -144.9 1255.04
v 39.513 -144.516 1255.59
v 42.4074 -146.52 1188.56
v 39.3668 -150.142 1229.43
v 39.6107 -147.021 1235.39
v 42.2843 -148.062 1246.37
v 41.3699 -149.978 1247.2
v 41.3556 -147.5 1247.77
v 39.8887 -149.529 1253.34
v 39.7563 -148.595 1254.9
v 39.2998 -147.628 1255.84
v 39.3066 -149.008 1255.39
v 40.8932 -149.468 1179.81
v 38.6389 -151.524 1180.61
v 39.8233 -151.284 1197.41
v 41.0801 -150.248 1231.15
v 42.3541 -154.366 1244.96
v 41.6394 -152.404 1246.24
v 39.6875 -153.834 1246.53
v 39.2855 -152.927 1247.5
v 38.7716 -152.915 1253.26
v 39.2342 -151.071 1254.37
v 39.2552 -156.116 1182.54
v 42.4024 -153.761 1196.73
v 39.7355 -154.019 1206.04
v 40.4075 -155.101 1218.89
v 40.6883 -156.946 1244
v 42.3988 -156.251 1182.68
v 41.9448 -159.6 1185.26
v 41.6284 -159.139 1241.88
v 41.1732 -164.565 1237.03
v 41.0006 -167.315 1199.53
v 39.9597 -166.75 1234.38
v 38.4255 -168.727 1202.28
v 40.079 -169.945 1213.3
v 41.7035 -168.865 1218.47
v 38.3662 -169.145 1229
v 37.3965 -131.471 1250.23
v 36.4379 -130.892 1251.76
v 38.9048 -133.754 1249.27
v 38.1087 -134.399 1247.15
v 37.7063 -132.605 1248.4
v 36.3702 -132.202 1247.29
v 38.9741 -134.453 1252.56
v 38.1407 -132.44 1251.22
v 37.7627 -133.369 1252.98
v 37.1169 -134.745 1254.09
v 36.3096 -132.67 1253.29
v 39.5434 -136.692 1253.25
v 38.0924 -137.489 1255.12
v 36.6354 -138.1 1255.68
v 36.2227 -139.466 1187.07
v 38.3737 -140.477 1243.01
v 35.8563 -141.536 1239.37
v 38.9523 -139.613 1255.25
v 38.6626 -141.687 1255.6
v 38.3329 -140.032 1255.67
v 36.1128 -143.029 1255.84
v 36.0596 -139.766 1256.07
v 38.5541 -144.129 1179.65
v 37.9459 -145.008 1255.96
v 36.6888 -148.566 1229.04
v 38.3617 -147.851 1256.44
v 35.5779 -150.483 1256.95
v 37.1139 -150.37 1225.07
v 38.358 -153.166 1249.34
v 38.6016 -152.916 1253.87
v 38.1251 -151.937 1254.97
v 36.9997 -153.908 1254.55
v 36.3169 -152.855 1255.38
v 35.7358 -151.942 1256.26
v 38.4683 -156.072 1245.51
v 37.5878 -154.615 1247.56
v 35.7336 -156.377 1248.73
v 35.6639 -157.063 1247.34
v 37.5706 -155.116 1252.66
v 37.091 -155.555 1251.65
v 37.1653 -155.496 1253.34
v 36.797 -156.112 1252.62
v 36.272 -156.414 1253.28
v 35.6192 -156.06 1254.14
v 35.5594 -157.137 1252.15
v 37.2139 -160.507 1243.92
v 37.5774 -164.655 1240.11
v 37.7361 -164.404 1192.09
v 35.6659 -166.705 1195.92
v 36.838 -169.077 1233.33
v 37.0059 -167.312 1237.39
v 34.3414 -168.956 1201
v 36.2262 -171.317 1217.97
v 34.7321 -171.66 1223.17
v 34.315 -170.506 1231.94
v 33.5791 -131.274 1246.37
v 36.0074 -130.214 1250.35
v 36.0306 -130.71 1248.91
v 34.1969 -129.173 1249.88
v 34.1814 -130.116 1247.96
v 33.1801 -129.319 1248.5
v 35.0363 -130.782 1252.82
v 34.5192 -129.242 1251.33
v 33.5188 -129.277 1252.74
v 33.5998 -130.239 1253.28
v 32.7284 -131.193 1253.59
v 35.0738 -134.699 1254.01
v 34.5267 -132.752 1253.52
v 34.125 -131.66 1253.43
v 33.507 -132.14 1253.41
v 34.6801 -137.93 1241.85
v 35.5027 -139.551 1181.82
v 33.1811 -139.505 1180.9
v 33.4034 -137.067 1184.78
v 32.7097 -137.513 1183.24
v 33.2271 -140.529 1180.2
v 33.2385 -147.614 1209.32
v 34.786 -149.342 1256.95
v 34.4939 -150.502 1257.34
v 34.337 -147.817 1256.26
v 32.6751 -146.929 1256.31
v 34.4921 -151.398 1257.39
v 34.277 -153.741 1255.62
v 33.4402 -150.714 1257.59
v 33.4025 -151.816 1257.87
v 33.4669 -152.373 1257.5
v 31.8285 -154.071 1256.77
v 34.4933 -157.294 1248.98
v 34.1011 -157.766 1247.98
v 34.1111 -157.917 1252.7
v 33.6264 -158.024 1251.18
v 34.5035 -155.5 1254.8
v 31.9051 -157.682 1255.01
v 34.7949 -159.227 1185.49
v 31.9119 -160.446 1246.42
v 31.6276 -158.684 1249.27
v 32.1583 -158.624 1252.67
v 32.1685 -158.449 1254.06
v 34.3847 -162.327 1189.59
v 30.6403 -162.792 1190.21
v 33.4887 -166.767 1196.46
v 33.7217 -168.412 1238.48
v 32.1997 -167.924 1240.07
v 31.2787 -168.959 1238.88
v 31.737 -169.213 1201.65
v 32.1444 -169.987 1204.91
v 33.4126 -171.079 1208.16
v 33.5427 -169.933 1235.18
v 31.5132 -172.525 1214.68
v 31.8517 -172.614 1221.39
v 32.1397 -130.119 1246.95
v 32.3059 -128.332 1250.27
v 31.395 -128.936 1248.46
v 30.0186 -128.656 1249.01
v 29.8617 -129.434 1247.49
v 32.4565 -128.142 1251.29
v 32.1226 -129.223 1253.69
v 31.9371 -128.036 1252.32
v 31.802 -130.125 1253.99
v 31.2718 -127.954 1251.36
v 31.3215 -130.593 1253.98
v 31.0046 -128.155 1253.71
v 30.8431 -129.149 1254.47
v 30.6811 -130.081 1254.33
v 30.7125 -131.137 1253.71
v 30.02 -127.772 1253.68
v 29.5402 -128.192 1254.75
v 29.1021 -127.91 1252.76
v 29.0402 -127.805 1254.14
v 28.9738 -127.957 1254.64
v 29.0423 -129.077 1255.04
v 32.0013 -133.791 1243.68
v 30.1677 -132.744 1243.92
v 28.5971 -132.411 1244.26
v 31.4635 -134.829 1252.85
v 31.1703 -132.43 1252.81
v 31.4041 -133.335 1252.54
v 29.7337 -133.716 1251.65
v 29.6987 -134.694 1251.69
v 29.6922 -135.206 1252.17
v 29.1609 -134.671 1251.55
v 28.7719 -132.706 1252.3
v 28.7541 -133.687 1251.61
v 28.7019 -134.167 1251.51
v 28.2809 -134.678 1252.12
v 30.9199 -135.174 1184.88
v 29.1579 -135.737 1183.03
v 28.3227 -133.182 1186.03
v 30.5217 -134.392 1187.81
v 31.4833 -136.552 1254.38
v 29.5402 -136.167 1253.85
v 29.1138 -135.204 1252.16
v 28.5944 -135.816 1253.85
v 30.4544 -139.043 1256.54
v 28.6145 -136.892 1255.3
v 31.221 -139.186 1181.01
v 30.2267 -142.025 1257.26
v 29.5647 -140.744 1180.4
v 31.3804 -142.095 1203.65
v 28.9114 -141.685 1207.67
v 30.1228 -142.623 1230.25
v 29.8536 -145.476 1257.03
v 30.6692 -147.089 1257.04
v 31.1419 -152.198 1259.12
v 30.6962 -153.204 1259.04
v 29.7787 -151.052 1258.94
v 29.1708 -153.26 1259.5
v 28.5128 -156.488 1257.07
v 29.3252 -159.307 1249.89
v 30.7451 -158.794 1251.3
v 27.9556 -158.829 1252.63
v 29.4076 -158.882 1253.99
v 28.2505 -158.402 1255.58
v 27.276 -158.647 1254.98
v 29.8602 -166.805 1196.08
v 30.6035 -165.63 1243.09
v 28.3796 -167.201 1242.35
v 27.7163 -170.478 1203.61
v 28.6527 -171.61 1207.24
v 29.1204 -171.566 1232.52
v 26.8405 -173.418 1218.47
v 28.1178 -172.808 1226.09
v 28.5985 -128.513 1250.05
v 28.4775 -129.181 1248.08
v 27.0822 -129.992 1247.43
v 26.6558 -129.339 1249.17
v 24.9125 -130.077 1250.31
v 24.9802 -130.591 1248.43
v 28.4928 -128.584 1255.08
v 28.4776 -130.506 1254.48
v 28.0729 -128.051 1253.95
v 27.4945 -131.01 1254.58
v 26.9569 -128.498 1253.88
v 27.0831 -128.518 1254.68
v 28.4352 -129.052 1255.16
v 28.0675 -129.523 1255.09
v 27.0963 -129.077 1255.13
v 26.5844 -130.055 1255.44
v 24.9006 -130.753 1188.85
v 25.0969 -134.27 1240.48
v 25.4448 -131.649 1246.51
v 28.2814 -133.668 1251.86
v 28.0046 -134.132 1252.14
v 27.7997 -134.646 1253.12
v 27.8133 -132.985 1252.7
v 27.4621 -133.647 1253.18
v 26.9427 -131.625 1254.97
v 26.5125 -133.795 1255.73
v 26.0171 -131.952 1256.17
v 25.4053 -131.88 1256.3
v 28.0391 -133.597 1184.92
v 25.4812 -133.995 1183.58
v 27.1442 -134.276 1197.51
v 26.3001 -136.83 1203.87
v 24.5025 -137.335 1229.73
v 28.3478 -136.362 1238.61
v 27.6885 -135.233 1254.5
v 26.8072 -135.747 1256.04
v 25.7898 -135.493 1256.55
v 25.108 -137.471 1257.05
v 27.5297 -137.806 1181.28
v 25.7049 -138.841 1181.03
v 25.0661 -139.235 1217.92
v 27.4604 -138.892 1256.89
v 27.6834 -142.588 1180.68
v 27.4161 -141.304 1211.99
v 25.6065 -144.42 1256.97
v 26.12 -146.929 1181.63
v 26.1631 -148.298 1257.77
v 26.5551 -152.763 1259.33
v 25.5676 -155.792 1258.31
v 23.3357 -160.153 1249.25
v 23.9696 -158.434 1252.3
v 26.1716 -161.76 1247.26
v 24.994 -167.772 1242.28
v 26.3052 -168.676 1199.51
v 24.4107 -171.093 1205.5
v 25.2284 -169.861 1238.33
v 22.8587 -171.952 1207.45
v 25.8065 -172.413 1210.01
v 22.8615 -173.273 1223.64
v 23.3527 -172.688 1228.33
v 24.8125 -129.714 1254.47
v 24.0373 -130.303 1254.5
v 24.7702 -130.204 1255.48
v 23.109 -130.931 1202.28
v 21.1828 -129.597 1203.25
v 21.1227 -132.085 1207.09
v 22.3961 -133.951 1242.89
v 24.291 -133.232 1244.2
v 20.9264 -133.152 1249.74
v 22.6907 -131.581 1254.43
v 21.2921 -132.48 1254.22
v 23.9314 -134.193 1256.52
v 23.1646 -131.653 1255.49
v 21.6347 -133.152 1255.74
v 21.2504 -132.593 1255.01
v 24.4223 -135.649 1206.45
v 22.3659 -135.01 1211.91
v 22.7025 -135.842 1227.27
v 21.4669 -135.209 1227.65
v 22.2963 -135.6 1229.25
v 22.4702 -134.67 1237.84
v 22.166 -137.746 1257.34
v 23.2104 -136.705 1181.94
v 22.7716 -139.211 1181.56
v 25.1539 -139.68 1223.02
v 24.3518 -139.43 1257.25
v 24.0827 -141.832 1257.1
v 22.726 -139.449 1257.39
v 22.1143 -141.306 1257.35
v 21.2728 -139.784 1257.91
v 20.577 -141.74 1257.75
v 21.4899 -147.443 1182.98
v 21.0345 -144.636 1182.35
v 21.9976 -147.752 1256.52
v 21.3895 -146.098 1256.36
v 21.7685 -151.124 1257.79
v 23.8688 -151.944 1183.32
v 22.5586 -157.339 1186.38
v 20.5481 -162.851 1192.17
v 22.5801 -164.23 1246.09
v 19.6373 -163.09 1247.11
v 20.8586 -168.127 1241.72
v 20.6555 -165.898 1244.69
v 22.3133 -167.832 1198.66
v 19.7218 -170.996 1205.76
v 22.0429 -171.64 1232.73
v 20.4417 -172.426 1209.92
v 20.7125 -173.231 1217.2
v 20.3547 -172.065 1228.62
v 17.8617 -126.902 1188.92
v 20.0067 -127.56 1199.46
v 17.1573 -127.997 1211.2
v 20.1335 -130.101 1185.91
v 21.2957 -129.249 1187.27
v 19.0329 -133.196 1219.66
v 20.2142 -134.188 1234.15
v 18.5684 -133.716 1252.55
v 20.1488 -133.72 1256.01
v 19.7397 -133.171 1255.29
v 17.9324 -134.432 1257.31
v 17.8203 -134.113 1256.62
v 17.3805 -133.384 1183.49
v 20.7781 -134.41 1223.28
v 19.4925 -134.319 1229.35
v 17.8024 -134.103 1238.47
v 18.7075 -134.614 1242.35
v 18.5527 -135.448 1246.6
v 17.0356 -135.204 1250.7
v 19.0172 -137.094 1258.63
v 18.0983 -138.237 1259.46
v 16.9998 -137.46 1259.41
v 17.2712 -136.962 1182.66
v 19.0188 -139.686 1259.13
v 18.1641 -141.603 1258.84
v 17.4659 -139.6 1259.74
v 18.5999 -145.214 1256.78
v 16.651 -145.429 1256.79
v 19.6407 -149.673 1257.09
v 18.5162 -147.218 1256.62
v 16.9811 -148.591 1256.63
v 16.6405 -147.027 1256.48
v 18.4657 -150.442 1184.23
v 17.0832 -154.313 1186.08
v 18.3572 -157.12 1252.12
v 19.0576 -156.494 1257.37
v 18.4749 -156.794 1254.1
v 18.8146 -156.836 1256.28
v 17.0475 -156.152 1256.96
v 16.547 -155.976 1255.56
v 16.5335 -155.587 1257.54
v 18.1984 -154.977 1258.08
v 18.2983 -158.432 1250.3
v 17.9083 -160.151 1190
v 16.8638 -160.979 1248.29
v 16.6249 -163.022 1246.66
v 17.8463 -164.944 1195.48
v 17.8808 -167.226 1242.26
v 16.5829 -165.009 1244.67
v 16.1591 -167.392 1199.66
v 17.1372 -171.737 1229.4
v 17.8041 -171.287 1232.25
v 18.393 -169.322 1238.23
v 17.4667 -172.552 1213.17
v 18.6863 -173.027 1220.79
v 18.0094 -171.984 1226.45
v 15.2945 -124.632 1193.86
v 14.4471 -123.406 1200.4
v 14.0364 -124.554 1210.92
v 17.1377 -127.047 1187.49
v 15.0662 -127.256 1186.45
v 14.4613 -125.558 1188.73
v 13.652 -126.074 1187.29
v 16.474 -125.782 1205.82
v 14.6557 -127.413 1214.64
v 15.8516 -130.346 1221.4
v 14.9213 -130.655 1227.67
v 16.9493 -132.653 1232.33
v 14.432 -133.739 1238.78
v 14.1434 -132.719 1236.68
v 13.255 -133.17 1238.2
v 14.3009 -134.994 1183.67
v 13.2665 -132.361 1184.3
v 16.202 -134.51 1240.13
v 14.0612 -135.273 1240.58
v 15.7568 -136.198 1243.34
v 14.7591 -137.701 1247.72
v 16.5602 -134.786 1257.62
v 15.3381 -135.277 1257.29
v 15.2247 -135.808 1258.34
v 16.4192 -138.678 1259.99
v 15.8392 -139.786 1260.03
v 14.5516 -142.165 1259.41
v 13.3828 -138.403 1259.21
v 13.2999 -140.197 1259.8
v 12.9299 -143.743 1259.38
v 15.1479 -146.54 1184.24
v 15.4234 -148.096 1256.74
v 15.1206 -146.092 1256.9
v 12.8873 -146.218 1258.18
v 12.701 -149.332 1257.61
v 14.6585 -152.009 1257.65
v 13.462 -153.136 1257.35
v 12.9023 -153.189 1255.1
v 12.3753 -152.566 1256.64
v 13.152 -152.944 1186.92
v 15.2189 -155.229 1253.32
v 13.2015 -153.912 1252.82
v 13.16 -155.734 1250.63
v 15.5655 -154.47 1257.71
v 14.4288 -154.58 1256.55
v 14.3775 -154.496 1255.17
v 12.9204 -158.568 1190.44
v 14.8238 -161.721 1192.93
v 12.0949 -163.088 1244.51
v 14.9785 -166.368 1242
v 14.9815 -167.676 1239.76
v 13.5804 -169.333 1204.8
v 14.9056 -171.17 1227.99
v 13.6005 -169.641 1233.57
v 12.4722 -168.038 1236.73
v 14.5904 -171.404 1210.73
v 12.067 -171.243 1214.21
v 14.1473 -172.043 1221.35
v 10.4113 -122.848 1191.72
v 12.5288 -122.869 1196.23
v 12.5697 -122.134 1205.06
v 12.3121 -122.448 1209.44
v 10.1561 -122.9 1216.74
v 13.2862 -127.921 1185.85
v 11.1685 -125.704 1187.53
v 13.3069 -128.473 1219.85
v 10.8185 -126.217 1220.26
v 12.8016 -128.739 1223.21
v 12.7445 -128.759 1225.21
v 12.5435 -129.005 1226.91
v 10.032 -126.42 1225.58
v 10.0042 -128.55 1229.46
v 9.85726 -131.39 1235.42
v 11.1455 -134.818 1185.1
v 12.7697 -137.377 1254.32
v 12.7881 -137.276 1258.06
v 9.24926 -138.135 1240.59
v 12.0519 -139.523 1245.28
v 12.7357 -139.362 1249.58
v 9.95596 -140.399 1256.63
v 9.68913 -141.018 1255.49
v 9.45036 -141.502 1256.57
v 9.64395 -141.525 1257.52
v 12.6011 -141.249 1259.78
v 12.22 -139.845 1259.38
v 11.7725 -139.307 1258.95
v 10.4263 -140.586 1258.43
v 10.8139 -141.076 1258.98
v 11.0056 -140.064 1184.66
v 10.4386 -143.184 1250.07
v 9.52839 -142.698 1246.69
v 9.87848 -145.169 1250.3
v 9.04615 -144.188 1247.55
v 10.5682 -142.168 1251.9
v 9.95465 -145.068 1251.67
v 9.62985 -143.456 1253.72
v 9.44446 -142.634 1257.4
v 9.20489 -145.09 1255.05
v 9.16816 -142.923 1255.99
v 12.624 -142.675 1259.69
v 11.5252 -145.477 1258.9
v 11.1048 -143.492 1259.24
v 9.95751 -142.996 1258.39
v 9.38367 -145.455 1186.47
v 9.11389 -146.42 1249.25
v 9.80615 -147.228 1253.02
v 9.70629 -147.473 1251.05
v 12.3951 -148.137 1257.8
v 11.7265 -149.328 1257.73
v 11.3181 -148.254 1257.99
v 10.3403 -148.178 1257.56
v 9.89173 -149.03 1254.89
v 9.22323 -146.197 1254.96
v 9.53594 -146.125 1257.4
v 9.35971 -147.62 1256.35
v 9.04691 -145.614 1256.37
v 10.8635 -145.886 1258.64
v 9.64134 -152.071 1249.7
v 9.26855 -149.287 1249.66
v 10.9212 -151.074 1252.51
v 11.1017 -151.028 1253.97
v 10.3551 -151.18 1251
v 10.2795 -149.594 1253.84
v 12.3013 -150.838 1257.55
v 11.249 -150.207 1257.34
v 11.0564 -151.054 1256.15
v 10.2842 -149.553 1256.71
v 11.0436 -156.766 1190.29
v 10.918 -161.117 1193.4
v 11.6714 -160.989 1246.39
v 8.74298 -164.45 1198.5
v 9.92295 -166.326 1200.45
v 11.3264 -165.103 1241.06
v 8.44593 -169.368 1211.17
v 7.77439 -169.767 1217.91
v 9.54247 -169.875 1225.65
v 6.48073 -120.309 1194.69
v 8.80274 -120.085 1199.15
v 6.38318 -119.093 1200.08
v 8.91698 -119.973 1205.23
v 6.95404 -119.278 1208.13
v 7.61818 -122.417 1190.97
v 6.32235 -123.035 1224.32
v 8.44165 -127.65 1187.12
v 8.33203 -133.155 1237.56
v 7.99994 -132.855 1186.25
v 7.11114 -135.372 1238.33
v 7.59649 -135.477 1186.16
v 6.02662 -136.878 1187.22
v 6.55568 -146.152 1246.36
v 7.95577 -146.771 1248
v 7.82339 -148.434 1248.24
v 5.90928 -147.766 1246.59
v 5.40492 -146.851 1188.41
v 7.59699 -152.602 1248.17
v 5.60133 -151.652 1246.79
v 5.20808 -150.125 1246.44
v 5.27712 -151.56 1190.02
v 6.6375 -155.149 1191.04
v 6.90904 -158.716 1245.14
v 7.5537 -157.131 1246.61
v 6.70939 -158.583 1193.36
v 7.23711 -161.276 1196.32
v 5.12484 -163.238 1237.96
v 6.17085 -163.253 1199.02
v 5.12039 -164.604 1201.67
v 7.45785 -166.292 1234.86
v 6.75084 -167.354 1205.64
v 3.25034 -117.897 1205.59
v 5.41233 -118.818 1205.67
v 6.21919 -119.749 1218.56
v 5.79843 -120.741 1222.14
v 3.04286 -118.88 1224.25
v 4.23512 -120.357 1225.38
v 3.05511 -121.404 1228.33
v 5.31504 -122.809 1191.01
v 4.48127 -120.68 1193.62
v 4.74512 -122.914 1228.06
v 4.44243 -127.659 1233
v 3.24706 -128.671 1234.55
v 2.17952 -125.945 1233.1
v 4.22133 -130.563 1188.13
v 4.38259 -130.212 1235.46
v 2.2353 -130.542 1235.52
v 2.16008 -135.792 1188.66
v 2.05202 -140.719 1189.35
v 1.99114 -145.624 1190
v 2.33791 -146.892 1240.98
v 1.42457 -145.66 1239.52
v 3.18204 -148.061 1190.22
v 1.85917 -151.153 1242.39
v 2.34169 -148.124 1242.28
v 1.81742 -149.249 1242.43
v 2.69973 -159.712 1240.6
v 3.17569 -160.817 1198.28
v 3.71642 -163.553 1236.04
v 2.97369 -162.004 1237.34
v 1.34364 -161.725 1236.1
v 1.21551 -166.396 1214.48
v 2.01983 -166.648 1220.39
v 3.41756 -166.776 1226.43
v 2.15676 -116.491 1212.19
v 0.551848 -116.208 1210.53
v 2.22727 -116.767 1216.67
v -0.111607 -118.368 1201.07
v -0.695371 -123.132 1193.47
v 0.237822 -121.133 1195.01
v 1.26337 -122.751 1230.84
v 1.08007 -125.572 1190.98
v 1.08695 -128.247 1234.46
v -1.04109 -129.648 1234.42
v -1.17591 -138.001 1235.67
v -1.94195 -144.943 1237.15
v -0.179183 -147.966 1239.19
v -2.61771 -148.482 1237.27
v 0.377823 -149.251 1240.6
v -1.08499 -151.574 1239.4
v -0.323532 -151.111 1193.13
v -2.82359 -153.402 1196.02
v -2.15897 -154.381 1238.29
v 0.635767 -155.072 1241.25
v -0.956223 -158.988 1236.79
v -1.5513 -157.41 1237.52
v -2.9314 -162.495 1207.59
v -1.2978 -164.721 1212.33
v -1.08616 -164.731 1216.46
v -0.8973 -164.807 1220.99
v -2.86285 -163.532 1223.01
v -2.84962 -163.894 1219.57
v 0.0624482 -163.896 1229.38
v -4.45482 -115.329 1213.15
v -2.974 -115.195 1216.58
v -4.61941 -115.236 1215.6
v -2.05099 -115.502 1219.12
v -3.24195 -115.335 1218.87
v -1.54952 -116.311 1222.42
v -2.78116 -116.079 1222.2
v -3.76438 -117.319 1224.22
v -4.35297 -116.438 1220.9
v -1.75249 -117.19 1224.89
v -1.68956 -118.319 1201.89
v -2.12453 -119.735 1198.9
v -3.12727 -116.952 1207.86
v -1.67876 -118.885 1227.73
v -2.82184 -117.459 1225.45
v -3.40118 -119.286 1228.16
v -2.466 -120.618 1230.04
v -3.95123 -120.999 1230.08
v -5.17418 -120.972 1228.21
v -3.02649 -121.293 1197.19
v -4.03156 -123.265 1195.66
v -2.97819 -122.474 1231.69
v -5.06158 -123.332 1231.78
v -5.09844 -124.5 1232.79
v -4.86361 -126.492 1194
v -3.91656 -125.395 1233.39
v -4.85213 -128.809 1192.99
v -3.07618 -134.256 1234.4
v -4.87712 -139.449 1192.41
v -5.12356 -143.161 1234.11
v -4.80571 -145.739 1234.52
v -6.37704 -146.875 1233.41
v -5.74007 -148.318 1234.04
v -5.49464 -154.514 1233.44
v -4.22192 -152.707 1235.54
v -4.83757 -158.269 1202.23
v -5.95859 -157.468 1230.47
v -3.79752 -156.602 1234.54
v -5.55343 -162.252 1218.47
v -3.79303 -159.822 1231.26
v -5.40342 -160.126 1227.64
v -5.59954 -115.511 1212.65
v -5.42699 -116.072 1210.55
v -6.53502 -116.145 1213.31
v -6.64449 -116.282 1210.71
v -5.26788 -118.606 1204.88
v -7.01809 -117.333 1208.35
v -8.48983 -118.137 1208.13
v -7.88234 -117.193 1211.11
v -8.93598 -119.223 1214.51
v -5.75416 -121.604 1199.2
v -7.85857 -123.725 1198.6
v -7.44474 -120.779 1203.03
v -6.56966 -124.652 1231.38
v -6.15432 -126.473 1233.45
v -6.59541 -125.836 1232.75
v -6.56853 -128.396 1233.84
v -7.70698 -128.3 1233.4
v -8.17734 -127.739 1232.61
v -7.02309 -130.809 1233.88
v -8.3269 -130.65 1233.56
v -7.54016 -134.243 1193.37
v -7.73385 -135.587 1232.88
v -8.67964 -133.004 1233.23
v -9.11184 -139.515 1231.28
v -8.9258 -142.436 1231.17
v -7.15361 -140.262 1232.42
v -7.50383 -143.073 1232.45
v -8.52903 -145.329 1195.59
v -10.2545 -144.151 1229.84
v -7.00697 -144.527 1233.11
v -8.53365 -144.931 1231.79
v -7.24321 -148.437 1232.47
v -8.27502 -155.226 1201.68
v -7.89481 -157.913 1204.77
v -7.67653 -158.416 1225.97
v -9.08833 -159.42 1211.42
v -8.95061 -159.652 1218.96
v -7.97735 -159.678 1222.51
v -10.1472 -123.365 1202.96
v -10.6074 -120.372 1206.98
v -11.0746 -120.467 1208
v -12.7362 -123.233 1206.14
v -9.50117 -126.313 1197.87
v -10.7174 -126.096 1199.57
v -12.376 -126.206 1203.12
v -12.7148 -129.981 1198.77
v -13.3007 -129.566 1200.73
v -10.2192 -129.281 1230.85
v -10.292 -130.671 1232.02
v -10.2049 -133.563 1194.9
v -11.2399 -131.779 1196.34
v -11.6835 -133.722 1231.55
v -11.7688 -135.741 1231.02
v -9.83044 -132.467 1232.85
v -9.9411 -134.308 1232.48
v -11.7929 -137.842 1195.59
v -13.6108 -136.644 1197.17
v -12.011 -138.924 1229.14
v -12.9738 -140.654 1196.66
v -13.4919 -138.721 1196.76
v -13.0837 -141.903 1225.98
v -10.7647 -141.509 1229.46
v -13.2114 -142.811 1197.51
v -13.4773 -145.983 1224.19
v -10.74 -146.062 1228.77
v -11.096 -148.53 1198.71
v -14.1553 -147.593 1200.89
v -13.4144 -150.948 1202.89
v -13.3341 -152.569 1221.16
v -11.31 -153.17 1224.34
v -11.2592 -154.837 1204.57
v -12.0719 -156.113 1208.62
v -13.3084 -155.537 1213.64
v -14.0295 -154.393 1215.06
v -11.3179 -157.224 1219.37
v -12.0553 -156.785 1217.57
v -12.9844 -155.464 1217.9
v -11.9319 -155.014 1221.62
v -13.3854 -123.227 1207.16
v -13.545 -123.22 1208.29
v -14.7724 -125.563 1206.77
v -15.3324 -125.508 1207.96
v -15.89 -126.38 1209.12
v -14.3972 -130.119 1203.68
v -16.3063 -127.569 1207.9
v -13.8014 -132.212 1199.26
v -16.4083 -134.554 1206.32
v -14.8724 -131.271 1223.1
v -14.5903 -133.85 1227.51
v -13.6242 -134.893 1229.64
v -16.8522 -137.928 1204.27
v -17.1103 -138.355 1206.89
v -17.2901 -135.547 1209.64
v -17.4861 -138.62 1217.11
v -17.0577 -137.421 1222.64
v -15.124 -135.838 1227.58
v -15.6867 -137.714 1225.56
v -16.6225 -136.48 1224.4
v -13.8068 -136.619 1229.01
v -14.0328 -140.602 1197.45
v -14.6318 -139.686 1198.08
v -15.9995 -139.632 1200.91
v -16.8191 -142.288 1203.39
v -17.2648 -139.822 1205.16
v -17.6134 -139.322 1212.08
v -17.5503 -139.707 1214.71
v -16.6459 -141.665 1217.96
v -15.6544 -142.329 1220.51
v -16.2508 -140.128 1220.51
v -14.8008 -142.71 1199.01
v -15.7318 -142.435 1200.37
v -17.6315 -143.513 1211.7
v -15.9838 -144.454 1219.38
v -16.4183 -146.252 1217.3
v -15.0576 -148.383 1202.57
v -15.2983 -146.371 1201.53
v -16.0395 -147.013 1203.26
v -15.9758 -149.325 1205.34
v -16.7092 -147.699 1206.21
v -16.9119 -146.981 1213.3
v -14.9531 -150.989 1205.38
v -14.9943 -152.679 1211.56
v -15.1454 -151.228 1216.53
v -17.0068 -128.851 1211.79
v -17.7987 -130.204 1210.27
v -17.3979 -131.334 1209.08
v -18.4841 -131.809 1213.07
v -18.5799 -132.887 1212.84
v -18.5009 -133.243 1216.36
v -18.8458 -134.152 1215.59
v -17.9741 -136.608 1213.3
v -18.0482 -137.132 1215.22
v -18.6234 -135.194 1214.79
v -18.0729 -135.29 1219.89
v -18.1463 -136.507 1219.1
v -18.6699 -135.341 1216.73
v 50.5172 -162.341 1194.34
v 28.9738 -127.957 1254.64
v 29.6987 -134.694 1251.69
v 29.1609 -134.671 1251.55
v 27.0831 -128.518 1254.68
v 26.5844 -130.055 1255.44
v 26.0171 -131.952 1256.17
v 24.7702 -130.204 1255.48
v 19.7397 -133.171 1255.29
v 17.8203 -134.113 1256.62
v 16.5602 -134.786 1257.62
v 16.5602 -134.786 1257.62
f 3 1 11
f 1 53 8
f 11 1 8
f 53 12 8
f 5 2 9
f 9 3 11
f 9 4 3
f 9 2 4
f 4 2 13
f 10 8 6
f 6 8 7
f 10 6 5
f 13 2 5
f 5 9 10
f 7 8 12
f 7 12 33
f 8 10 11
f 10 9 11
f 33 12 60
f 6 7 15
f 6 15 14
f 6 14 5
f 14 18 5
f 15 16 14
f 15 24 16
f 14 16 18
f 18 16 19
f 19 16 17
f 17 16 24
f 7 33 15
f 18 13 5
f 15 33 24
f 20 18 19
f 25 19 17
f 13 18 21
f 18 20 21
f 21 20 23
f 20 22 23
f 20 19 22
f 22 25 26
f 22 19 25
f 26 25 30
f 23 22 26
f 23 26 69
f 24 33 27
f 25 17 29
f 30 25 29
f 76 26 30
f 17 24 28
f 28 29 17
f 24 27 28
f 27 31 28
f 36 29 28
f 28 35 36
f 28 31 35
f 29 36 34
f 30 29 34
f 27 39 31
f 32 39 27
f 39 35 31
f 35 39 40
f 33 32 27
f 77 39 32
f 77 41 39
f 76 30 86
f 86 30 34
f 86 34 87
f 35 37 36
f 962 37 35
f 34 36 38
f 38 36 37
f 88 38 37
f 87 34 38
f 87 38 88
f 89 88 37
f 39 41 40
f 41 42 40
f 41 91 42
f 37 43 89
f 962 42 37
f 43 37 42
f 42 45 43
f 42 91 44
f 42 44 45
f 103 43 45
f 44 94 45
f 45 94 46
f 47 1 3
f 48 47 3
f 48 3 56
f 47 49 1
f 1 49 53
f 51 47 48
f 49 47 51
f 50 51 48
f 50 48 56
f 50 56 58
f 49 51 108
f 52 50 114
f 52 51 50
f 114 50 58
f 108 51 113
f 113 51 52
f 59 114 58
f 54 12 53
f 60 12 54
f 49 108 109
f 53 49 109
f 110 54 53
f 67 116 55
f 55 68 67
f 117 68 55
f 4 57 56
f 3 4 56
f 4 13 57
f 13 21 57
f 58 56 57
f 59 58 57
f 59 57 70
f 70 114 59
f 62 66 63
f 62 63 73
f 64 65 62
f 124 63 66
f 66 62 65
f 61 116 64
f 65 64 67
f 64 116 67
f 68 65 67
f 68 124 66
f 66 65 68
f 61 64 62
f 63 125 75
f 68 117 124
f 57 21 70
f 26 76 69
f 21 23 70
f 70 23 69
f 60 130 33
f 130 129 33
f 82 71 74
f 72 82 74
f 62 72 74
f 62 73 72
f 73 63 75
f 75 84 73
f 74 61 62
f 84 134 85
f 75 134 84
f 125 134 75
f 125 135 134
f 76 137 69
f 33 129 32
f 129 77 32
f 77 129 41
f 41 129 131
f 138 91 41
f 92 91 138
f 140 141 78
f 79 80 97
f 79 142 80
f 78 141 79
f 97 80 98
f 82 98 80
f 142 71 80
f 82 80 71
f 82 81 98
f 81 82 72
f 72 73 81
f 73 83 81
f 73 84 83
f 84 100 83
f 100 84 85
f 76 86 145
f 145 86 87
f 144 76 145
f 88 89 90
f 145 87 88
f 145 88 90
f 90 89 102
f 89 43 102
f 90 102 148
f 91 92 44
f 43 103 104
f 92 140 78
f 46 103 45
f 105 103 46
f 78 44 92
f 93 94 44
f 94 95 46
f 93 44 78
f 96 105 46
f 79 97 93
f 93 97 94
f 94 97 95
f 97 99 95
f 95 96 46
f 95 99 101
f 95 101 96
f 79 93 78
f 81 83 98
f 97 98 99
f 98 100 99
f 98 83 100
f 99 100 101
f 101 100 147
f 100 85 147
f 149 148 102
f 149 102 104
f 149 104 150
f 104 102 43
f 104 205 150
f 103 105 104
f 104 106 205
f 105 106 104
f 106 105 96
f 96 101 107
f 107 106 96
f 206 107 101
f 106 107 206
f 111 108 113
f 111 163 108
f 108 163 109
f 110 109 164
f 163 164 109
f 114 113 52
f 109 110 53
f 110 173 54
f 173 60 54
f 60 173 122
f 115 186 175
f 175 118 115
f 117 55 116
f 115 118 116
f 117 116 112
f 112 116 118
f 124 117 119
f 126 124 119
f 119 120 126
f 120 127 126
f 176 120 119
f 119 117 112
f 120 176 177
f 177 127 120
f 121 114 70
f 121 183 114
f 128 183 121
f 128 121 70
f 122 130 60
f 130 122 194
f 116 61 123
f 123 61 74
f 115 116 123
f 186 115 123
f 124 126 63
f 63 126 125
f 126 136 125
f 126 127 136
f 136 127 187
f 136 187 200
f 188 187 127
f 70 69 137
f 137 198 70
f 70 198 128
f 130 194 129
f 194 131 129
f 132 139 185
f 141 196 133
f 71 141 133
f 71 133 74
f 133 123 74
f 134 135 143
f 125 136 135
f 135 136 200
f 137 76 144
f 137 199 198
f 138 41 131
f 131 194 138
f 92 138 139
f 194 139 138
f 185 139 194
f 92 139 140
f 140 139 132
f 79 141 142
f 71 142 141
f 143 85 134
f 144 199 137
f 148 146 145
f 145 90 148
f 144 145 146
f 101 147 151
f 151 147 203
f 85 201 147
f 147 201 203
f 85 143 201
f 149 150 148
f 148 150 202
f 205 106 206
f 206 101 151
f 206 151 207
f 210 215 152
f 152 215 214
f 153 152 154
f 154 159 158
f 154 158 153
f 211 210 153
f 153 210 152
f 152 214 154
f 154 214 219
f 154 219 159
f 118 165 156
f 156 165 223
f 155 223 153
f 156 223 155
f 153 158 157
f 155 153 157
f 155 157 167
f 158 159 169
f 160 171 159
f 219 160 159
f 171 160 161
f 162 111 113
f 230 162 113
f 162 230 279
f 279 111 162
f 173 110 164
f 163 222 164
f 163 111 279
f 222 173 164
f 279 281 163
f 281 222 163
f 165 175 224
f 118 156 112
f 165 118 175
f 166 119 112
f 176 119 166
f 156 167 166
f 166 112 156
f 167 176 166
f 155 167 156
f 167 168 178
f 157 168 167
f 158 168 157
f 169 168 158
f 159 170 169
f 168 169 179
f 169 170 179
f 170 159 171
f 161 172 171
f 230 113 114
f 230 114 183
f 185 122 173
f 186 174 232
f 177 188 127
f 167 178 176
f 176 178 177
f 177 178 168
f 170 180 179
f 180 192 179
f 179 236 168
f 180 170 171
f 171 181 180
f 181 182 180
f 180 182 192
f 181 171 172
f 181 233 182
f 182 233 238
f 192 182 238
f 183 128 184
f 185 194 122
f 133 235 123
f 186 123 174
f 235 174 123
f 189 187 188
f 189 188 190
f 188 177 190
f 190 177 168
f 168 236 190
f 179 192 191
f 192 237 191
f 238 237 192
f 179 191 236
f 193 486 184
f 128 198 184
f 184 198 193
f 195 132 185
f 132 195 140
f 195 196 140
f 196 141 140
f 133 196 235
f 197 200 187
f 197 189 242
f 189 197 187
f 197 253 200
f 242 253 197
f 193 198 199
f 301 193 199
f 144 301 199
f 200 253 254
f 253 383 254
f 255 144 146
f 135 200 254
f 201 143 135
f 135 254 201
f 255 146 148
f 202 255 148
f 202 150 204
f 202 204 256
f 151 203 207
f 207 203 257
f 203 201 258
f 258 201 254
f 206 260 205
f 206 207 261
f 215 208 209
f 208 265 264
f 208 264 209
f 212 265 208
f 265 212 213
f 213 212 211
f 278 213 211
f 278 211 223
f 263 213 278
f 210 208 215
f 212 210 211
f 208 210 212
f 211 153 223
f 214 220 219
f 216 220 214
f 215 209 216
f 215 216 214
f 217 220 216
f 220 217 221
f 209 218 216
f 217 216 218
f 221 217 274
f 269 218 209
f 160 219 225
f 220 225 219
f 225 220 227
f 221 227 220
f 221 229 227
f 278 223 224
f 225 227 161
f 160 225 161
f 227 226 161
f 226 172 161
f 172 226 231
f 226 228 231
f 229 226 227
f 228 226 229
f 283 279 230
f 185 173 222
f 224 175 232
f 223 165 224
f 233 172 231
f 233 231 285
f 183 435 230
f 230 435 432
f 474 232 235
f 174 235 232
f 175 186 232
f 181 172 233
f 238 233 234
f 234 233 285
f 286 234 285
f 184 435 183
f 196 474 235
f 236 243 190
f 237 248 191
f 238 248 237
f 238 239 248
f 243 236 244
f 236 191 246
f 191 248 246
f 247 244 236
f 240 239 238
f 290 239 240
f 234 241 238
f 241 240 238
f 239 290 299
f 240 241 290
f 375 299 290
f 190 243 189
f 242 189 243
f 253 242 245
f 243 245 242
f 243 244 245
f 245 244 296
f 236 246 247
f 247 246 249
f 249 246 248
f 244 247 249
f 250 249 248
f 244 249 252
f 252 249 250
f 251 250 248
f 298 244 252
f 297 298 252
f 297 252 250
f 251 248 239
f 299 251 239
f 487 486 193
f 301 487 193
f 245 302 253
f 302 383 253
f 302 245 296
f 301 144 255
f 306 301 255
f 256 307 255
f 202 256 255
f 308 256 259
f 308 259 382
f 203 258 257
f 258 315 257
f 254 309 258
f 258 309 315
f 310 254 383
f 254 310 309
f 256 204 259
f 259 204 313
f 314 204 150
f 314 313 204
f 150 316 314
f 150 205 316
f 316 205 260
f 206 261 260
f 317 260 261
f 257 315 262
f 207 257 262
f 267 213 263
f 318 267 263
f 263 340 318
f 266 264 265
f 265 213 267
f 264 266 270
f 209 264 270
f 266 265 267
f 267 268 266
f 266 268 319
f 318 268 267
f 323 319 327
f 323 266 319
f 270 266 323
f 271 269 209
f 271 272 269
f 272 276 269
f 209 270 271
f 272 271 324
f 273 276 272
f 273 277 276
f 270 325 271
f 326 273 272
f 324 326 272
f 325 270 323
f 278 339 263
f 217 218 275
f 275 274 217
f 276 218 269
f 276 275 218
f 277 275 276
f 344 274 275
f 344 275 277
f 273 344 277
f 282 353 281
f 281 356 222
f 281 353 356
f 224 423 278
f 279 280 282
f 280 279 283
f 283 363 280
f 280 363 282
f 282 281 279
f 222 420 185
f 229 364 228
f 364 229 221
f 365 283 230
f 365 230 432
f 363 283 365
f 420 366 185
f 366 284 185
f 364 288 228
f 288 364 369
f 284 195 185
f 196 195 284
f 474 196 284
f 474 284 433
f 224 232 368
f 368 232 474
f 228 287 231
f 287 285 231
f 288 287 228
f 285 287 291
f 291 286 285
f 288 291 287
f 373 291 288
f 373 288 370
f 291 373 371
f 184 486 435
f 234 286 289
f 241 234 289
f 241 289 293
f 241 293 290
f 292 289 286
f 293 289 292
f 292 286 291
f 293 294 290
f 375 290 294
f 293 292 372
f 372 292 371
f 292 291 371
f 293 372 294
f 296 244 295
f 295 244 298
f 298 303 295
f 295 303 296
f 304 298 297
f 375 300 299
f 300 251 299
f 250 251 300
f 305 250 300
f 487 301 307
f 303 302 296
f 303 441 302
f 250 305 297
f 297 305 304
f 377 298 304
f 377 304 379
f 298 377 303
f 305 379 304
f 305 380 379
f 306 307 301
f 307 306 255
f 256 308 307
f 307 308 382
f 387 315 311
f 309 310 311
f 309 311 315
f 310 383 384
f 310 384 311
f 312 259 313
f 259 312 382
f 312 313 385
f 382 312 443
f 443 312 385
f 385 313 386
f 313 314 386
f 314 316 447
f 317 316 260
f 262 261 207
f 387 262 315
f 262 387 261
f 316 317 388
f 261 389 317
f 317 389 388
f 341 318 340
f 322 318 341
f 321 327 319
f 320 319 268
f 321 319 320
f 321 390 327
f 318 322 320
f 268 318 320
f 320 322 321
f 321 391 390
f 321 322 391
f 327 325 323
f 329 271 325
f 329 324 271
f 328 273 326
f 324 330 326
f 331 328 326
f 325 327 333
f 331 326 330
f 332 273 328
f 390 335 327
f 325 333 329
f 324 329 330
f 332 328 331
f 335 333 327
f 330 329 334
f 334 329 333
f 338 330 334
f 338 331 330
f 335 336 333
f 336 337 333
f 333 337 334
f 403 331 338
f 390 398 335
f 396 334 963
f 402 338 396
f 338 334 396
f 402 403 338
f 397 331 403
f 332 331 397
f 339 278 423
f 340 339 423
f 340 423 407
f 340 263 339
f 340 407 341
f 407 457 341
f 343 344 273
f 274 344 342
f 342 357 274
f 343 273 332
f 344 345 342
f 345 344 343
f 332 345 343
f 345 346 342
f 347 342 964
f 332 349 345
f 345 349 350
f 350 351 345
f 345 351 348
f 345 348 346
f 965 359 347
f 965 347 964
f 352 965 351
f 352 359 965
f 352 360 359
f 349 332 397
f 409 350 349
f 351 350 409
f 351 410 352
f 353 418 355
f 356 353 355
f 354 282 363
f 354 353 282
f 356 355 406
f 354 418 353
f 354 363 428
f 356 420 222
f 406 420 356
f 357 221 274
f 342 347 357
f 347 358 357
f 357 358 362
f 359 358 347
f 360 358 359
f 358 360 362
f 362 360 424
f 221 357 361
f 361 431 364
f 221 361 364
f 431 361 362
f 357 362 361
f 365 428 363
f 367 366 420
f 224 368 423
f 434 369 364
f 364 431 475
f 366 367 284
f 367 433 284
f 368 474 422
f 288 369 370
f 436 373 370
f 436 370 369
f 371 373 374
f 373 436 437
f 374 372 371
f 372 375 294
f 437 374 373
f 372 374 375
f 300 380 305
f 380 300 375
f 374 438 375
f 377 376 303
f 441 303 376
f 377 379 378
f 378 379 381
f 379 380 381
f 307 382 493
f 311 384 442
f 489 384 383
f 443 493 382
f 385 386 444
f 386 314 447
f 495 387 445
f 387 311 445
f 444 386 447
f 447 316 388
f 387 389 261
f 389 387 449
f 322 341 392
f 408 392 341
f 390 393 398
f 391 393 390
f 391 392 393
f 392 391 322
f 393 400 398
f 400 393 394
f 392 395 393
f 408 395 392
f 393 395 394
f 335 398 336
f 398 337 336
f 398 401 337
f 963 966 396
f 404 396 966
f 405 399 397
f 400 401 398
f 405 414 399
f 450 401 400
f 394 450 400
f 450 452 401
f 402 396 404
f 403 402 404
f 397 403 405
f 404 967 403
f 967 404 969
f 404 966 969
f 969 417 967
f 417 969 462
f 418 503 355
f 355 503 406
f 500 420 406
f 407 456 457
f 408 341 457
f 397 399 349
f 412 349 399
f 409 349 412
f 410 409 412
f 351 409 410
f 410 413 411
f 410 411 352
f 411 360 352
f 412 399 414
f 413 412 414
f 413 410 412
f 415 411 413
f 414 415 413
f 414 405 416
f 415 414 416
f 416 426 415
f 417 968 967
f 417 426 968
f 472 419 428
f 354 428 419
f 418 354 419
f 418 419 503
f 465 421 420
f 470 422 505
f 424 360 411
f 411 415 424
f 424 415 425
f 362 424 425
f 362 425 431
f 426 425 415
f 431 425 426
f 431 426 427
f 417 461 426
f 461 427 426
f 429 428 365
f 429 365 432
f 429 472 428
f 473 429 432
f 420 421 367
f 367 421 465
f 466 367 465
f 504 433 466
f 504 430 433
f 430 474 433
f 512 474 430
f 368 422 423
f 470 423 422
f 476 434 364
f 476 364 475
f 427 475 431
f 484 434 476
f 466 433 367
f 436 369 434
f 482 432 435
f 481 435 486
f 540 374 437
f 375 438 380
f 540 438 374
f 534 380 438
f 441 376 439
f 376 377 378
f 378 381 440
f 376 378 440
f 439 376 440
f 302 489 383
f 489 302 441
f 439 489 441
f 488 307 545
f 384 489 442
f 489 492 442
f 491 445 442
f 444 493 385
f 443 385 493
f 494 444 446
f 387 495 449
f 551 495 445
f 445 311 442
f 444 447 446
f 496 447 497
f 446 447 496
f 447 388 497
f 553 497 388
f 388 389 448
f 451 450 394
f 450 451 452
f 452 451 462
f 459 462 451
f 503 419 502
f 453 420 500
f 420 453 465
f 453 500 454
f 454 455 453
f 455 465 453
f 465 455 466
f 470 456 407
f 470 515 456
f 395 408 458
f 457 458 408
f 395 458 394
f 459 451 394
f 394 460 459
f 464 459 460
f 394 458 460
f 508 464 460
f 460 458 508
f 462 461 417
f 464 462 459
f 464 463 462
f 462 463 461
f 461 463 471
f 463 507 471
f 511 419 472
f 562 466 455
f 512 467 422
f 467 512 468
f 469 467 468
f 468 513 469
f 467 469 422
f 469 505 422
f 423 470 407
f 456 516 457
f 471 427 461
f 471 475 427
f 477 475 471
f 518 471 507
f 473 472 429
f 482 473 432
f 430 504 512
f 422 474 512
f 477 476 475
f 478 476 477
f 478 484 476
f 477 471 479
f 479 478 477
f 478 480 484
f 479 480 478
f 435 481 482
f 481 531 482
f 484 483 434
f 483 436 434
f 483 485 436
f 484 527 483
f 531 481 486
f 436 485 437
f 483 527 485
f 485 540 437
f 527 540 485
f 531 486 487
f 381 380 534
f 440 381 536
f 438 540 534
f 601 487 542
f 543 439 541
f 543 490 439
f 533 439 440
f 307 488 487
f 490 489 439
f 489 490 492
f 307 493 545
f 488 545 602
f 491 551 445
f 546 551 491
f 605 551 546
f 491 442 492
f 546 491 492
f 606 493 494
f 493 444 494
f 449 495 498
f 550 495 551
f 550 498 495
f 494 446 496
f 494 496 610
f 688 494 610
f 552 496 497
f 552 610 496
f 552 497 553
f 448 553 388
f 553 448 554
f 389 449 448
f 554 448 449
f 498 554 449
f 499 406 503
f 499 500 406
f 499 503 558
f 455 454 562
f 500 562 454
f 564 466 501
f 502 419 511
f 511 559 502
f 558 503 502
f 558 502 559
f 466 564 504
f 562 501 466
f 564 512 504
f 513 505 469
f 513 566 505
f 513 565 566
f 505 566 514
f 458 516 517
f 458 506 508
f 458 517 506
f 464 970 463
f 463 970 507
f 506 510 508
f 509 970 971
f 576 510 506
f 971 972 509
f 472 521 511
f 564 513 512
f 512 513 468
f 565 513 564
f 514 470 505
f 516 456 515
f 470 514 515
f 574 516 515
f 572 574 515
f 457 516 458
f 517 577 506
f 518 507 509
f 970 509 507
f 520 509 973
f 518 519 471
f 518 509 520
f 520 519 518
f 579 519 520
f 521 472 473
f 482 521 473
f 525 484 480
f 523 525 480
f 479 522 480
f 523 480 522
f 479 471 522
f 519 522 471
f 523 522 524
f 519 524 522
f 524 519 579
f 526 525 523
f 530 525 526
f 523 581 526
f 482 531 585
f 521 482 585
f 528 484 525
f 528 527 484
f 530 528 525
f 530 529 528
f 529 527 528
f 532 531 487
f 594 531 532
f 533 440 535
f 595 533 535
f 538 595 535
f 597 541 533
f 535 440 536
f 534 536 381
f 540 539 534
f 535 536 538
f 537 536 534
f 539 537 534
f 536 537 538
f 538 537 599
f 539 599 537
f 598 539 540
f 541 597 543
f 684 543 597
f 541 439 533
f 542 487 488
f 542 488 602
f 492 544 547
f 603 544 684
f 603 547 544
f 544 492 490
f 490 543 544
f 684 544 543
f 683 602 545
f 605 546 604
f 492 547 546
f 604 546 547
f 603 687 604
f 603 604 547
f 545 493 548
f 606 548 493
f 549 498 550
f 549 550 608
f 607 554 549
f 608 607 549
f 608 550 551
f 551 605 608
f 553 554 607
f 553 607 612
f 554 498 549
f 555 556 500
f 555 614 556
f 555 613 614
f 562 500 556
f 615 562 556
f 616 562 615
f 499 555 500
f 555 499 560
f 558 560 499
f 560 558 561
f 558 559 561
f 561 559 618
f 613 555 560
f 501 563 564
f 562 557 501
f 563 501 557
f 620 564 563
f 511 571 618
f 618 559 511
f 565 568 566
f 565 627 568
f 568 514 566
f 567 568 569
f 573 567 569
f 627 569 568
f 699 569 627
f 569 699 573
f 570 511 521
f 571 511 570
f 568 572 514
f 568 567 572
f 572 515 514
f 567 573 572
f 573 574 572
f 632 574 573
f 632 575 516
f 632 516 574
f 517 629 577
f 506 577 576
f 577 578 576
f 630 577 629
f 578 577 630
f 973 578 520
f 520 582 579
f 520 578 582
f 630 582 578
f 643 570 521
f 575 517 516
f 633 517 575
f 580 524 579
f 580 523 524
f 581 523 580
f 583 579 582
f 579 583 580
f 580 583 638
f 639 583 582
f 521 585 643
f 587 526 581
f 581 588 587
f 588 581 584
f 584 655 588
f 638 654 580
f 654 581 580
f 654 584 581
f 526 587 530
f 586 529 530
f 586 530 587
f 590 529 586
f 586 587 662
f 586 662 589
f 662 587 588
f 589 590 586
f 655 662 588
f 678 590 589
f 674 596 592
f 590 527 529
f 590 540 527
f 598 540 590
f 593 599 591
f 678 598 590
f 593 680 592
f 591 598 678
f 585 531 594
f 594 532 601
f 595 597 533
f 595 596 597
f 596 595 592
f 674 597 596
f 539 591 599
f 591 539 598
f 538 600 595
f 599 600 538
f 600 592 595
f 592 600 599
f 592 599 593
f 487 601 532
f 601 682 594
f 601 542 683
f 542 602 683
f 683 545 548
f 683 548 686
f 687 605 604
f 609 608 605
f 548 606 686
f 611 688 610
f 606 494 688
f 690 612 607
f 610 552 611
f 552 553 612
f 611 552 612
f 556 692 615
f 556 614 692
f 694 616 615
f 557 562 616
f 617 557 616
f 619 618 698
f 571 698 618
f 619 561 618
f 619 698 730
f 563 621 620
f 563 557 621
f 557 617 621
f 622 564 620
f 565 564 622
f 622 625 623
f 565 622 623
f 622 620 621
f 621 625 622
f 565 623 624
f 624 627 565
f 625 624 623
f 626 627 624
f 625 626 624
f 733 627 626
f 570 643 628
f 571 570 628
f 628 700 571
f 700 628 643
f 571 700 698
f 632 573 631
f 699 631 573
f 517 633 629
f 633 575 632
f 632 644 633
f 633 648 629
f 629 648 635
f 630 629 634
f 641 630 634
f 629 635 634
f 641 634 637
f 637 657 641
f 635 653 636
f 635 636 634
f 634 636 637
f 637 636 651
f 657 637 651
f 638 583 639
f 630 640 582
f 582 640 639
f 642 638 639
f 639 640 642
f 642 656 638
f 630 641 640
f 641 642 640
f 656 642 657
f 642 641 657
f 658 643 585
f 631 645 632
f 644 648 633
f 632 645 644
f 647 659 644
f 646 644 659
f 644 645 647
f 648 644 649
f 644 646 649
f 635 648 650
f 648 649 650
f 635 650 653
f 636 653 651
f 650 652 653
f 653 652 670
f 670 652 667
f 653 670 651
f 668 651 670
f 651 668 657
f 654 655 584
f 638 656 654
f 656 671 655
f 654 656 655
f 657 671 656
f 673 661 659
f 673 659 706
f 705 659 647
f 674 677 660
f 646 659 661
f 646 661 649
f 650 649 660
f 660 649 661
f 664 589 662
f 663 678 589
f 655 664 662
f 664 679 663
f 664 663 589
f 679 678 663
f 671 664 655
f 671 665 664
f 665 679 664
f 668 665 671
f 668 671 657
f 681 665 669
f 681 679 665
f 666 669 667
f 669 665 668
f 652 650 667
f 670 669 668
f 650 660 667
f 660 666 667
f 670 667 669
f 594 658 585
f 676 661 673
f 672 676 673
f 672 673 706
f 674 592 675
f 672 597 676
f 674 675 677
f 676 660 661
f 660 676 674
f 666 660 677
f 679 591 678
f 675 592 680
f 679 593 591
f 680 593 679
f 666 675 680
f 680 679 681
f 675 666 677
f 680 681 666
f 681 669 666
f 674 676 597
f 682 713 594
f 716 713 682
f 714 603 684
f 715 684 597
f 714 684 715
f 716 601 683
f 716 682 601
f 717 683 685
f 683 717 716
f 686 685 683
f 685 686 720
f 605 687 609
f 721 609 687
f 722 686 606
f 722 720 686
f 606 688 722
f 611 689 688
f 689 611 612
f 754 689 690
f 689 612 690
f 690 607 608
f 721 690 608
f 721 608 609
f 691 613 696
f 693 692 691
f 693 694 692
f 694 615 692
f 724 695 694
f 616 694 695
f 617 616 725
f 619 730 696
f 613 560 561
f 561 619 696
f 696 613 561
f 613 692 614
f 691 692 613
f 617 726 621
f 726 697 621
f 726 728 697
f 625 621 697
f 625 697 732
f 732 626 625
f 732 733 626
f 733 737 627
f 627 737 699
f 700 702 736
f 736 702 703
f 699 701 631
f 699 738 701
f 700 643 702
f 703 702 643
f 740 703 643
f 701 738 766
f 643 658 740
f 746 645 631
f 658 708 740
f 704 647 645
f 746 707 704
f 645 746 704
f 659 705 706
f 705 647 704
f 707 705 704
f 706 705 707
f 658 712 708
f 709 672 706
f 672 709 597
f 709 706 711
f 706 707 711
f 711 710 709
f 658 594 712
f 594 713 712
f 709 775 715
f 709 715 597
f 713 716 773
f 773 716 820
f 820 716 749
f 749 716 717
f 719 749 717
f 720 749 719
f 718 721 687
f 718 750 721
f 718 687 603
f 719 717 685
f 719 685 720
f 754 690 755
f 690 721 755
f 688 689 753
f 689 754 753
f 779 688 753
f 616 756 758
f 731 691 696
f 731 759 691
f 759 693 691
f 694 693 724
f 693 723 724
f 693 759 723
f 723 695 724
f 723 756 695
f 756 616 695
f 756 723 757
f 725 726 617
f 726 725 727
f 758 725 616
f 727 725 758
f 729 728 727
f 731 696 730
f 727 728 726
f 732 697 728
f 729 732 728
f 729 733 732
f 729 735 733
f 729 762 735
f 698 763 730
f 733 734 737
f 733 735 734
f 738 737 734
f 734 735 738
f 738 735 764
f 736 698 700
f 763 698 736
f 699 737 738
f 736 703 739
f 703 740 739
f 631 701 766
f 631 766 743
f 740 708 741
f 708 744 741
f 853 740 741
f 746 631 742
f 743 742 631
f 742 743 768
f 707 746 747
f 712 744 708
f 712 772 744
f 744 772 741
f 772 853 741
f 745 711 747
f 746 770 747
f 770 742 768
f 770 746 742
f 710 711 775
f 707 747 711
f 745 775 711
f 713 773 712
f 712 773 772
f 710 775 709
f 748 714 775
f 748 603 714
f 748 718 603
f 775 777 748
f 775 714 715
f 820 749 720
f 721 750 784
f 751 750 718
f 751 748 752
f 748 751 718
f 750 751 752
f 722 820 720
f 779 722 688
f 754 780 753
f 781 754 755
f 721 784 755
f 757 723 759
f 757 786 756
f 786 788 756
f 758 756 788
f 790 727 758
f 794 727 790
f 761 796 759
f 797 759 795
f 729 727 798
f 798 727 794
f 762 729 798
f 763 760 730
f 760 805 761
f 759 731 761
f 731 730 761
f 761 730 760
f 764 765 738
f 764 810 765
f 764 735 810
f 736 811 763
f 812 738 765
f 846 736 739
f 738 812 766
f 846 739 740
f 767 766 814
f 743 766 767
f 766 851 814
f 768 743 767
f 769 768 767
f 853 772 773
f 853 773 891
f 771 769 774
f 747 771 745
f 745 771 775
f 768 771 770
f 770 771 747
f 768 769 771
f 775 771 774
f 777 774 822
f 822 774 819
f 774 769 819
f 777 822 824
f 777 776 748
f 777 775 774
f 824 776 777
f 755 784 782
f 750 752 784
f 784 752 824
f 752 748 776
f 776 824 752
f 778 820 722
f 779 778 722
f 779 861 778
f 779 753 780
f 861 779 823
f 779 780 823
f 781 780 754
f 780 781 783
f 755 782 781
f 783 781 782
f 797 757 759
f 786 757 785
f 785 757 827
f 826 785 827
f 797 827 757
f 785 787 786
f 785 826 787
f 793 787 828
f 786 789 788
f 786 787 789
f 787 793 789
f 834 793 828
f 788 790 758
f 791 794 790
f 791 788 789
f 788 791 790
f 789 793 791
f 792 791 793
f 793 803 792
f 794 791 799
f 804 796 761
f 759 796 795
f 830 795 796
f 795 830 797
f 797 830 827
f 791 792 799
f 803 793 834
f 799 798 794
f 800 798 799
f 801 798 800
f 792 800 799
f 800 792 803
f 801 762 798
f 800 802 801
f 803 802 800
f 761 805 804
f 809 805 760
f 835 804 805
f 835 796 804
f 762 801 806
f 735 762 806
f 802 806 801
f 807 806 802
f 803 807 802
f 803 838 807
f 735 806 810
f 806 807 808
f 806 808 810
f 763 811 809
f 760 763 809
f 809 811 876
f 844 812 765
f 736 846 811
f 851 766 812
f 847 851 812
f 848 847 812
f 847 849 851
f 846 740 813
f 813 740 853
f 814 815 767
f 851 852 814
f 855 814 852
f 769 767 815
f 855 815 814
f 855 816 815
f 817 815 816
f 817 819 769
f 815 817 769
f 819 857 818
f 817 857 819
f 818 857 890
f 821 818 890
f 819 818 822
f 773 820 858
f 859 858 820
f 778 859 820
f 824 821 825
f 895 821 890
f 821 860 825
f 821 824 822
f 821 822 818
f 782 823 783
f 861 823 862
f 782 863 823
f 784 824 825
f 825 782 784
f 825 863 782
f 860 863 825
f 783 823 780
f 827 829 826
f 829 828 826
f 831 829 827
f 833 829 832
f 787 826 828
f 830 831 827
f 831 832 829
f 832 831 830
f 830 837 832
f 833 828 829
f 833 834 828
f 833 832 866
f 833 866 834
f 809 836 805
f 830 796 835
f 805 836 835
f 837 830 835
f 835 836 837
f 869 864 836
f 836 864 837
f 868 809 876
f 836 809 868
f 873 838 803
f 807 840 808
f 839 808 840
f 808 839 810
f 810 839 841
f 838 840 807
f 842 839 840
f 841 839 842
f 841 765 810
f 841 844 765
f 845 844 841
f 838 843 840
f 843 842 840
f 845 841 842
f 873 843 838
f 873 874 843
f 848 812 844
f 845 848 844
f 842 874 845
f 842 843 874
f 879 845 874
f 845 879 848
f 879 874 877
f 875 811 846
f 811 875 876
f 881 875 846
f 848 880 847
f 879 880 848
f 813 881 846
f 880 878 847
f 878 883 849
f 878 849 847
f 850 851 849
f 852 851 850
f 883 887 849
f 849 887 850
f 850 887 854
f 855 852 856
f 852 850 856
f 854 856 850
f 856 854 890
f 855 856 816
f 816 856 857
f 856 890 857
f 857 817 816
f 858 891 773
f 858 896 893
f 859 896 858
f 778 861 859
f 863 860 895
f 895 860 821
f 823 863 862
f 832 837 865
f 865 864 867
f 864 865 837
f 832 865 866
f 905 866 904
f 867 904 865
f 865 904 866
f 866 905 834
f 876 871 868
f 836 868 869
f 864 869 870
f 869 868 871
f 870 869 872
f 864 870 906
f 867 864 906
f 870 872 909
f 906 870 909
f 876 911 871
f 869 871 872
f 911 872 871
f 909 872 911
f 881 882 875
f 911 876 882
f 878 880 877
f 877 915 878
f 924 878 915
f 879 877 880
f 813 853 881
f 875 882 876
f 882 881 885
f 886 883 924
f 924 883 878
f 853 884 881
f 881 884 885
f 853 888 884
f 885 884 925
f 884 888 925
f 887 883 886
f 886 933 889
f 853 891 888
f 939 894 889
f 890 886 889
f 889 895 890
f 938 889 933
f 887 890 854
f 890 887 886
f 893 891 858
f 892 891 893
f 888 891 892
f 892 893 940
f 939 948 894
f 889 894 895
f 897 893 896
f 893 946 940
f 893 897 946
f 899 902 948
f 898 899 947
f 948 902 894
f 903 895 894
f 902 903 894
f 897 896 859
f 897 861 898
f 861 897 859
f 897 898 947
f 899 898 902
f 901 898 861
f 898 901 902
f 861 862 901
f 863 900 862
f 901 862 900
f 900 903 902
f 901 900 902
f 903 863 895
f 863 903 900
f 904 867 906
f 907 905 904
f 907 904 906
f 906 909 910
f 907 906 910
f 907 910 908
f 907 908 905
f 834 905 908
f 949 834 908
f 912 951 909
f 909 951 910
f 910 950 908
f 910 951 950
f 950 949 908
f 949 913 834
f 834 913 803
f 911 882 927
f 911 927 909
f 912 909 916
f 909 927 916
f 912 918 951
f 959 914 913
f 954 959 913
f 913 873 803
f 913 914 873
f 914 921 915
f 874 873 914
f 915 874 914
f 874 915 877
f 924 915 921
f 926 927 882
f 885 926 882
f 912 917 918
f 916 917 912
f 917 916 929
f 930 918 917
f 956 930 931
f 931 957 956
f 957 931 919
f 932 934 919
f 919 934 960
f 886 922 934
f 922 923 920
f 922 920 934
f 959 923 914
f 959 920 923
f 960 920 959
f 934 920 960
f 922 924 921
f 924 922 886
f 921 914 923
f 923 922 921
f 925 926 885
f 888 935 925
f 925 935 926
f 935 936 926
f 926 936 927
f 927 936 928
f 916 927 929
f 929 927 928
f 929 928 937
f 937 917 929
f 917 937 930
f 919 931 932
f 931 930 937
f 933 934 932
f 938 933 932
f 933 886 934
f 888 892 935
f 935 892 941
f 941 942 935
f 935 942 936
f 936 942 928
f 928 944 937
f 937 944 945
f 931 939 932
f 939 931 937
f 937 945 939
f 939 938 932
f 939 889 938
f 892 940 941
f 941 940 942
f 942 944 928
f 942 940 943
f 944 942 943
f 943 940 946
f 943 946 947
f 944 943 947
f 944 947 945
f 945 948 939
f 946 897 947
f 899 948 947
f 947 948 945
f 950 952 949
f 951 953 950
f 953 951 918
f 918 956 953
f 950 953 952
f 949 954 913
f 954 949 952
f 953 955 952
f 952 955 954
f 955 953 958
f 955 958 961
f 955 961 954
f 954 961 959
f 918 930 956
f 958 956 957
f 958 957 961
f 957 919 961
f 958 953 956
f 959 961 960
f 961 919 960
